<svg xmlns="http://www.w3.org/2000/svg" xmlns:xlink="http://www.w3.org/1999/xlink" width="112" height="112" viewBox="0 0 112 112">
  <defs>
    <linearGradient id="linear-gradient" x1="0.5" x2="0.5" y2="1" gradientUnits="objectBoundingBox">
      <stop offset="0" stop-color="#fdbe41"/>
      <stop offset="1" stop-color="#d09f40"/>
    </linearGradient>
  </defs>
  <g id="Grupo_173792" data-name="Grupo 173792" transform="translate(-6041 9392.436)">
    <g id="Grupo_173789" data-name="Grupo 173789">
      <circle id="Elipse_6147" data-name="Elipse 6147" cx="56" cy="56" r="56" transform="translate(6041 -9392.436)" fill="url(#linear-gradient)"/>
    </g>
    <g id="sj1zhn.tif" transform="translate(7011.647 -9363.777)">
      <g id="Grupo_155560" data-name="Grupo 155560" transform="translate(-941.767 -2.86)">
        <path id="Trazado_197563" data-name="Trazado 197563" d="M-941.767-.385q6.13,0,12.259.012c.293,0,.386-.093.379-.381-.016-.69-.005-1.38-.005-2.106h17.6V-.394h12.586c.014.167.034.3.034.43q0,9.141,0,18.283a1.242,1.242,0,0,1-1.719,1.321,1.039,1.039,0,0,1-.725-.833,4,4,0,0,1-.053-.7q0-7.729,0-15.457V2.127h-10.073V4.636h7.526V5.1q0,15.416,0,30.832c0,1.077-.754,1.665-1.7,1.335a1.074,1.074,0,0,1-.759-.947,5.146,5.146,0,0,1-.015-.623q0-13.961,0-27.923c0-.7.07-.632-.614-.632q-10.742,0-21.484,0h-.592V2.121h-10.1V54.969h30.253v-.509c0-2.895-.008-5.79,0-8.684a6.318,6.318,0,0,1,4.278-6.064q2.127-.765,4.256-1.525c.43-.154.866-.292,1.282-.477.125-.056.191-.246.282-.376.007-.009,0-.027,0-.041a1.866,1.866,0,0,0-.691-1.8,5.288,5.288,0,0,1-1.788-3.854,23.4,23.4,0,0,1,.1-4.305,6.076,6.076,0,0,1,6.356-5.052,6.2,6.2,0,0,1,6.061,6.317c0,1.107.024,2.219-.078,3.319a5.721,5.721,0,0,1-2.1,3.922.8.8,0,0,0-.333.742c.032.384-.1.859.086,1.13.17.251.658.292,1.009.414q2.39.832,4.781,1.657a6.257,6.257,0,0,1,4.206,5.895q.008,5.236,0,10.471a1.161,1.161,0,0,1-1.046,1.311,1.172,1.172,0,0,1-1.43-1.289c-.006-2.839,0-5.679-.005-8.518a19.66,19.66,0,0,0-.07-2.529,3.6,3.6,0,0,0-2.537-3.1q-3.487-1.21-7-2.357c-.374-.123-.537-.279-.507-.691.041-.561.01-1.127.01-1.68H-896.4c0,.542-.024,1.118.009,1.692a.566.566,0,0,1-.459.676c-2.366.814-4.722,1.658-7.081,2.494a3.676,3.676,0,0,0-2.542,3.529q-.018,5.194.015,10.388a1.4,1.4,0,0,1-1.065,1.47h-.5a5.827,5.827,0,0,0-.608-.062q-16.259,0-32.518,0c-.207,0-.415-.011-.622-.017Zm42.826,30.172h.04c0,.526-.022,1.053,0,1.578a3.713,3.713,0,0,0,3.568,3.495,3.679,3.679,0,0,0,3.941-3.208,22.769,22.769,0,0,0,.057-3.275,3.69,3.69,0,0,0-3.374-3.6,3.7,3.7,0,0,0-4.132,3.019A14.352,14.352,0,0,0-898.941,29.787ZM-926.633,4.619c.115.011.184.022.252.022q6,0,12,.008c.332,0,.386-.133.383-.419-.018-1.425-.02-2.849-.03-4.274,0-.108-.021-.216-.032-.331h-12.57Z" transform="translate(941.767 2.86)" fill="#12263f"/>
        <path id="Trazado_197564" data-name="Trazado 197564" d="M-941.767,721.933c.207.006.415.017.622.017q16.259,0,32.518,0a5.841,5.841,0,0,1,.608.062q-16.687,0-33.374,0A1.8,1.8,0,0,1-941.767,721.933Z" transform="translate(941.767 -661.612)" fill="#12263f"/>
        <path id="Trazado_197565" data-name="Trazado 197565" d="M-880.521,87.651h4.929V90.1h-2.449v42.843H-855.4v2.466h-25.122Z" transform="translate(885.618 -80.118)" fill="#12263f"/>
        <path id="Trazado_197566" data-name="Trazado 197566" d="M-775.422,185.394a7.586,7.586,0,0,1,8.441-7.47c.219.031.441.05.656.1a1.255,1.255,0,0,1,.99,1.457,1.114,1.114,0,0,1-1.28,1.018,7.067,7.067,0,0,0-2.472.072,5.007,5.007,0,0,0-3.77,4.958,5.058,5.058,0,0,0,4.218,4.858,5.091,5.091,0,0,0,5.725-3.87,1.293,1.293,0,0,1,1.1-1.084,1.225,1.225,0,0,1,1.355,1.563,9.28,9.28,0,0,1-.968,2.363,7.606,7.606,0,0,1-7.773,3.512,7.565,7.565,0,0,1-6.056-5.991C-775.35,186.39-775.367,185.888-775.422,185.394Z" transform="translate(789.266 -162.822)" fill="#12263f"/>
        <path id="Trazado_197567" data-name="Trazado 197567" d="M-775.3,397.772a7.576,7.576,0,0,1,6.926-7.466,10.924,10.924,0,0,1,2.146.089,1.2,1.2,0,0,1,1.01,1.394,1.193,1.193,0,0,1-1.264,1.069,7.705,7.705,0,0,0-2.474.076,4.964,4.964,0,0,0-3.791,4.933,5.073,5.073,0,0,0,4.234,4.889,5.1,5.1,0,0,0,5.7-3.856,1.35,1.35,0,0,1,.7-.971,1.179,1.179,0,0,1,1.26.069,1.1,1.1,0,0,1,.538,1.176,9.258,9.258,0,0,1-.711,2.151,7.62,7.62,0,0,1-8.046,3.9,7.516,7.516,0,0,1-6.119-6.3C-775.247,398.545-775.266,398.157-775.3,397.772Z" transform="translate(789.156 -357.565)" fill="#12263f"/>
        <path id="Trazado_197568" data-name="Trazado 197568" d="M-720.321,189.686l6.681-6.716,1.711,1.715-8.275,8.3-3.3-3.324,1.638-1.651Z" transform="translate(741.666 -167.504)" fill="#12263f"/>
        <path id="Trazado_197569" data-name="Trazado 197569" d="M-713.72,394.431l1.692,1.69-8.341,8.369-3.257-3.291,1.688-1.692,1.528,1.651Z" transform="translate(741.782 -361.366)" fill="#12263f"/>
        <path id="Trazado_197570" data-name="Trazado 197570" d="M-484.687,606.641c0,1.246.008,2.492,0,3.738a1.214,1.214,0,0,1-1.674,1.2,1.122,1.122,0,0,1-.8-1.1q-.016-3.841,0-7.683a1.158,1.158,0,0,1,1.229-1.188,1.154,1.154,0,0,1,1.239,1.21c.013,1.273,0,2.547,0,3.82Z" transform="translate(525.003 -551.303)" fill="#12263f"/>
        <path id="Trazado_197571" data-name="Trazado 197571" d="M-302.916,606.638c0,1.232.005,2.464,0,3.7a1.18,1.18,0,0,1-1.469,1.286,1.123,1.123,0,0,1-1-1.178q-.014-3.821,0-7.641a1.158,1.158,0,0,1,1.226-1.191,1.154,1.154,0,0,1,1.242,1.207c.013,1.273,0,2.547,0,3.821Z" transform="translate(358.361 -551.303)" fill="#12263f"/>
      </g>
    </g>
  </g>
</svg>
