<svg id="Grupo_173576" data-name="Grupo 173576" xmlns="http://www.w3.org/2000/svg" xmlns:xlink="http://www.w3.org/1999/xlink" width="1200" height="920" viewBox="0 0 1200 920">
  <defs>
    <clipPath id="clip-path">
      <rect id="Rectángulo_46332" data-name="Rectángulo 46332" width="1200" height="920" rx="16" fill="#f6f6f6"/>
    </clipPath>
    <clipPath id="clip-path-2">
      <ellipse id="Elipse_4979" data-name="Elipse 4979" cx="84.753" cy="89.475" rx="84.753" ry="89.475" fill="none"/>
    </clipPath>
  </defs>
  <g id="Grupo_154673" data-name="Grupo 154673" transform="translate(0 0)">
    <rect id="Rectángulo_52779" data-name="Rectángulo 52779" width="1198" height="920" rx="20" fill="#f6f6f6"/>
    <g id="Enmascarar_grupo_141249" data-name="Enmascarar grupo 141249" transform="translate(0 0)" opacity="0.603" clip-path="url(#clip-path)">
      <g id="Grupo_154672" data-name="Grupo 154672" transform="translate(-228.617 26.181)">
        <path id="Trazado_174289" data-name="Trazado 174289" d="M301.361,383.022c-120,0-217.283,102.7-217.283,229.388S181.359,841.8,301.361,841.8,518.645,739.1,518.645,612.41,421.364,383.022,301.361,383.022Zm0,412.925c-96.015,0-173.851-82.173-173.851-183.537s77.836-183.537,173.851-183.537S475.213,511.046,475.213,612.41,397.377,795.947,301.361,795.947Z" transform="translate(139.393 25.951)" fill="#e8e8e8" opacity="0.428"/>
        <path id="Trazado_174290" data-name="Trazado 174290" d="M238.081,341.207-88.134,685.6a27.449,27.449,0,0,1-40.308,0h0a31.288,31.288,0,0,1,0-42.554L197.773,298.653a27.451,27.451,0,0,1,40.308,0h0A31.288,31.288,0,0,1,238.081,341.207Z" transform="translate(136.79 -289.84)" fill="none" stroke="#8f9294" stroke-miterlimit="10" stroke-width="2" opacity="0.232"/>
        <path id="Trazado_174291" data-name="Trazado 174291" d="M194.121,427.37l-249,262.867a20.953,20.953,0,0,1-30.766,0h0a23.881,23.881,0,0,1,0-32.482L163.353,394.888a20.955,20.955,0,0,1,30.768,0h0A23.884,23.884,0,0,1,194.121,427.37Z" transform="translate(147.644 -251.376)" fill="none" stroke="#8f9294" stroke-miterlimit="10" stroke-width="2" opacity="0.339"/>
        <g id="Grupo_124668" data-name="Grupo 124668" transform="translate(1436.214 388.07)">
          <line id="Línea_1655" data-name="Línea 1655" x1="20.888" y2="22.052" fill="none" stroke="#d8d9da" stroke-miterlimit="10" stroke-width="0.78"/>
          <line id="Línea_1656" data-name="Línea 1656" x1="20.888" y2="22.052" transform="translate(10.176)" fill="none" stroke="#d8d9da" stroke-miterlimit="10" stroke-width="0.78"/>
          <line id="Línea_1657" data-name="Línea 1657" x1="20.888" y2="22.052" transform="translate(20.353)" fill="none" stroke="#d8d9da" stroke-miterlimit="10" stroke-width="0.78"/>
          <line id="Línea_1658" data-name="Línea 1658" x1="20.888" y2="22.052" transform="translate(30.529)" fill="none" stroke="#d8d9da" stroke-miterlimit="10" stroke-width="0.78"/>
          <line id="Línea_1659" data-name="Línea 1659" x1="20.888" y2="22.052" transform="translate(40.705)" fill="none" stroke="#d8d9da" stroke-miterlimit="10" stroke-width="0.78"/>
          <line id="Línea_1660" data-name="Línea 1660" x1="20.888" y2="22.052" transform="translate(50.882)" fill="none" stroke="#d8d9da" stroke-miterlimit="10" stroke-width="0.78"/>
          <line id="Línea_1661" data-name="Línea 1661" x1="20.888" y2="22.052" transform="translate(61.058)" fill="none" stroke="#d8d9da" stroke-miterlimit="10" stroke-width="0.78"/>
          <line id="Línea_1662" data-name="Línea 1662" x1="20.888" y2="22.052" transform="translate(71.234)" fill="none" stroke="#d8d9da" stroke-miterlimit="10" stroke-width="0.78"/>
          <line id="Línea_1663" data-name="Línea 1663" x1="20.888" y2="22.052" transform="translate(81.411)" fill="none" stroke="#d8d9da" stroke-miterlimit="10" stroke-width="0.78"/>
          <line id="Línea_1664" data-name="Línea 1664" x1="20.888" y2="22.052" transform="translate(91.587)" fill="none" stroke="#d8d9da" stroke-miterlimit="10" stroke-width="0.78"/>
          <line id="Línea_1665" data-name="Línea 1665" x1="20.888" y2="22.052" transform="translate(101.764)" fill="none" stroke="#d8d9da" stroke-miterlimit="10" stroke-width="0.78"/>
          <line id="Línea_1666" data-name="Línea 1666" x1="20.888" y2="22.052" transform="translate(111.94)" fill="none" stroke="#d8d9da" stroke-miterlimit="10" stroke-width="0.78"/>
          <line id="Línea_1667" data-name="Línea 1667" x1="20.888" y2="22.052" transform="translate(122.116)" fill="none" stroke="#d8d9da" stroke-miterlimit="10" stroke-width="0.78"/>
        </g>
        <g id="Grupo_124677" data-name="Grupo 124677" transform="translate(406.05 243.925)">
          <g id="Grupo_124673" data-name="Grupo 124673">
            <line id="Línea_1668" data-name="Línea 1668" y2="17.793" transform="translate(8.427)" fill="none" stroke="#8f9294" stroke-miterlimit="10" stroke-width="0.388"/>
            <line id="Línea_1669" data-name="Línea 1669" x2="16.854" transform="translate(0 8.897)" fill="none" stroke="#8f9294" stroke-miterlimit="10" stroke-width="0.388"/>
          </g>
          <g id="Grupo_124674" data-name="Grupo 124674" transform="translate(45.928)">
            <line id="Línea_1670" data-name="Línea 1670" y2="17.793" transform="translate(8.427)" fill="none" stroke="#8f9294" stroke-miterlimit="10" stroke-width="0.388"/>
            <line id="Línea_1671" data-name="Línea 1671" x2="16.854" transform="translate(0 8.897)" fill="none" stroke="#8f9294" stroke-miterlimit="10" stroke-width="0.388"/>
          </g>
          <g id="Grupo_124675" data-name="Grupo 124675" transform="translate(91.856)">
            <line id="Línea_1672" data-name="Línea 1672" y2="17.793" transform="translate(8.427)" fill="none" stroke="#8f9294" stroke-miterlimit="10" stroke-width="0.388"/>
            <line id="Línea_1673" data-name="Línea 1673" x2="16.854" transform="translate(0 8.897)" fill="none" stroke="#8f9294" stroke-miterlimit="10" stroke-width="0.388"/>
          </g>
          <g id="Grupo_124676" data-name="Grupo 124676" transform="translate(137.783)">
            <line id="Línea_1674" data-name="Línea 1674" y2="17.793" transform="translate(8.427)" fill="none" stroke="#8f9294" stroke-miterlimit="10" stroke-width="0.388"/>
            <line id="Línea_1675" data-name="Línea 1675" x2="16.854" transform="translate(0 8.897)" fill="none" stroke="#8f9294" stroke-miterlimit="10" stroke-width="0.388"/>
          </g>
        </g>
        <g id="Grupo_124682" data-name="Grupo 124682" transform="translate(406.05 273.393)">
          <g id="Grupo_124678" data-name="Grupo 124678">
            <line id="Línea_1676" data-name="Línea 1676" y2="17.793" transform="translate(8.427)" fill="none" stroke="#8f9294" stroke-miterlimit="10" stroke-width="0.388"/>
            <line id="Línea_1677" data-name="Línea 1677" x2="16.854" transform="translate(0 8.897)" fill="none" stroke="#8f9294" stroke-miterlimit="10" stroke-width="0.388"/>
          </g>
          <g id="Grupo_124679" data-name="Grupo 124679" transform="translate(45.928)">
            <line id="Línea_1678" data-name="Línea 1678" y2="17.793" transform="translate(8.427)" fill="none" stroke="#8f9294" stroke-miterlimit="10" stroke-width="0.388"/>
            <line id="Línea_1679" data-name="Línea 1679" x2="16.854" transform="translate(0 8.897)" fill="none" stroke="#8f9294" stroke-miterlimit="10" stroke-width="0.388"/>
          </g>
          <g id="Grupo_124680" data-name="Grupo 124680" transform="translate(91.856)">
            <line id="Línea_1680" data-name="Línea 1680" y2="17.793" transform="translate(8.427)" fill="none" stroke="#8f9294" stroke-miterlimit="10" stroke-width="0.388"/>
            <line id="Línea_1681" data-name="Línea 1681" x2="16.854" transform="translate(0 8.897)" fill="none" stroke="#8f9294" stroke-miterlimit="10" stroke-width="0.388"/>
          </g>
          <g id="Grupo_124681" data-name="Grupo 124681" transform="translate(137.783)">
            <line id="Línea_1682" data-name="Línea 1682" y2="17.793" transform="translate(8.427)" fill="none" stroke="#8f9294" stroke-miterlimit="10" stroke-width="0.388"/>
            <line id="Línea_1683" data-name="Línea 1683" x2="16.854" transform="translate(0 8.897)" fill="none" stroke="#8f9294" stroke-miterlimit="10" stroke-width="0.388"/>
          </g>
        </g>
        <g id="Grupo_124687" data-name="Grupo 124687" transform="translate(406.05 302.862)">
          <g id="Grupo_124683" data-name="Grupo 124683">
            <line id="Línea_1684" data-name="Línea 1684" y2="17.793" transform="translate(8.427)" fill="none" stroke="#8f9294" stroke-miterlimit="10" stroke-width="0.388"/>
            <line id="Línea_1685" data-name="Línea 1685" x2="16.854" transform="translate(0 8.897)" fill="none" stroke="#8f9294" stroke-miterlimit="10" stroke-width="0.388"/>
          </g>
          <g id="Grupo_124684" data-name="Grupo 124684" transform="translate(45.928)">
            <line id="Línea_1686" data-name="Línea 1686" y2="17.793" transform="translate(8.427)" fill="none" stroke="#8f9294" stroke-miterlimit="10" stroke-width="0.388"/>
            <line id="Línea_1687" data-name="Línea 1687" x2="16.854" transform="translate(0 8.897)" fill="none" stroke="#8f9294" stroke-miterlimit="10" stroke-width="0.388"/>
          </g>
          <g id="Grupo_124685" data-name="Grupo 124685" transform="translate(91.856)">
            <line id="Línea_1688" data-name="Línea 1688" y2="17.793" transform="translate(8.427)" fill="none" stroke="#8f9294" stroke-miterlimit="10" stroke-width="0.388"/>
            <line id="Línea_1689" data-name="Línea 1689" x2="16.854" transform="translate(0 8.897)" fill="none" stroke="#8f9294" stroke-miterlimit="10" stroke-width="0.388"/>
          </g>
          <g id="Grupo_124686" data-name="Grupo 124686" transform="translate(137.783)">
            <line id="Línea_1690" data-name="Línea 1690" y2="17.793" transform="translate(8.427)" fill="none" stroke="#8f9294" stroke-miterlimit="10" stroke-width="0.388"/>
            <line id="Línea_1691" data-name="Línea 1691" x2="16.854" transform="translate(0 8.897)" fill="none" stroke="#8f9294" stroke-miterlimit="10" stroke-width="0.388"/>
          </g>
        </g>
        <g id="Grupo_124692" data-name="Grupo 124692" transform="translate(406.05 332.33)">
          <g id="Grupo_124688" data-name="Grupo 124688">
            <line id="Línea_1692" data-name="Línea 1692" y2="17.793" transform="translate(8.427)" fill="none" stroke="#8f9294" stroke-miterlimit="10" stroke-width="0.388"/>
            <line id="Línea_1693" data-name="Línea 1693" x2="16.854" transform="translate(0 8.897)" fill="none" stroke="#8f9294" stroke-miterlimit="10" stroke-width="0.388"/>
          </g>
          <g id="Grupo_124689" data-name="Grupo 124689" transform="translate(45.928)">
            <line id="Línea_1694" data-name="Línea 1694" y2="17.793" transform="translate(8.427)" fill="none" stroke="#8f9294" stroke-miterlimit="10" stroke-width="0.388"/>
            <line id="Línea_1695" data-name="Línea 1695" x2="16.854" transform="translate(0 8.897)" fill="none" stroke="#8f9294" stroke-miterlimit="10" stroke-width="0.388"/>
          </g>
          <g id="Grupo_124690" data-name="Grupo 124690" transform="translate(91.856)">
            <line id="Línea_1696" data-name="Línea 1696" y2="17.793" transform="translate(8.427)" fill="none" stroke="#8f9294" stroke-miterlimit="10" stroke-width="0.388"/>
            <line id="Línea_1697" data-name="Línea 1697" x2="16.854" transform="translate(0 8.897)" fill="none" stroke="#8f9294" stroke-miterlimit="10" stroke-width="0.388"/>
          </g>
          <g id="Grupo_124691" data-name="Grupo 124691" transform="translate(137.783)">
            <line id="Línea_1698" data-name="Línea 1698" y2="17.793" transform="translate(8.427)" fill="none" stroke="#8f9294" stroke-miterlimit="10" stroke-width="0.388"/>
            <line id="Línea_1699" data-name="Línea 1699" x2="16.854" transform="translate(0 8.897)" fill="none" stroke="#8f9294" stroke-miterlimit="10" stroke-width="0.388"/>
          </g>
        </g>
        <rect id="Rectángulo_35685" data-name="Rectángulo 35685" width="186.873" height="16.542" transform="translate(1078.98 165.691)" fill="none" stroke="#8f9294" stroke-linecap="round" stroke-linejoin="round" stroke-width="1"/>
        <path id="Trazado_174309" data-name="Trazado 174309" d="M764.414,275.471c-21.964,0-39.77,18.8-39.77,41.985s17.805,41.987,39.77,41.987,39.771-18.8,39.771-41.987S786.378,275.471,764.414,275.471Zm0,61.619c-10.271,0-18.6-8.79-18.6-19.633s8.327-19.633,18.6-19.633,18.6,8.79,18.6,19.633S774.684,337.09,764.414,337.09Z" transform="translate(592.699 -44.251)" fill="#fff"/>
        <g id="Grupo_124745" data-name="Grupo 124745" transform="translate(1297.206 548.885)" clip-path="url(#clip-path-2)">
          <path id="Trazado_174310" data-name="Trazado 174310" d="M535.869,136.445c-23.441,26.269-48.613,50.717-72.059,77.088" transform="translate(-472.923 -140.642)" fill="none" stroke="#606060" stroke-miterlimit="10" stroke-width="0.655"/>
          <path id="Trazado_174311" data-name="Trazado 174311" d="M546.612,136.393c-26.11,29.541-55.309,58.241-82.84,87.415" transform="translate(-472.944 -140.674)" fill="none" stroke="#606060" stroke-miterlimit="10" stroke-width="0.655"/>
          <path id="Trazado_174312" data-name="Trazado 174312" d="M556.6,136.4c-30.994,32.712-62.206,65.664-92.955,98.15" transform="translate(-473.013 -140.667)" fill="none" stroke="#606060" stroke-miterlimit="10" stroke-width="0.655"/>
          <path id="Trazado_174313" data-name="Trazado 174313" d="M566.4,136.55q-50.663,53.5-102.706,108.41" transform="translate(-472.985 -140.576)" fill="none" stroke="#606060" stroke-miterlimit="10" stroke-width="0.655"/>
          <path id="Trazado_174314" data-name="Trazado 174314" d="M578.411,136.489c-37.77,38.953-76.03,78.282-114.642,118.774" transform="translate(-472.945 -140.614)" fill="none" stroke="#606060" stroke-miterlimit="10" stroke-width="0.655"/>
          <path id="Trazado_174315" data-name="Trazado 174315" d="M586.37,136.579c-39.623,43.059-78.892,83.451-119.166,127.03-1.006,1.064-3.02,1.064-3.553,2.522" transform="translate(-473.009 -140.558)" fill="none" stroke="#606060" stroke-miterlimit="10" stroke-width="0.655"/>
          <path id="Trazado_174316" data-name="Trazado 174316" d="M597.2,136.461c-24.392,27.3-50.57,51.753-76.749,79.389-19.13,21.259-38.261,39.33-56.592,60.548" transform="translate(-472.895 -140.632)" fill="none" stroke="#606060" stroke-miterlimit="10" stroke-width="0.655"/>
          <path id="Trazado_174317" data-name="Trazado 174317" d="M604.047,137.765C557.758,187.4,509.428,235.233,463.77,286.2" transform="translate(-472.945 -139.818)" fill="none" stroke="#606060" stroke-miterlimit="10" stroke-width="0.655"/>
          <path id="Trazado_174318" data-name="Trazado 174318" d="M603.89,144.249c-46.192,48.672-93.514,98.631-140.01,148" transform="translate(-472.886 -135.773)" fill="none" stroke="#606060" stroke-miterlimit="10" stroke-width="0.655"/>
          <path id="Trazado_174319" data-name="Trazado 174319" d="M608.954,147.767C560.708,199.229,511.372,249.188,463.9,300.743" transform="translate(-472.876 -133.578)" fill="none" stroke="#606060" stroke-miterlimit="10" stroke-width="0.655"/>
          <path id="Trazado_174320" data-name="Trazado 174320" d="M619.135,147.736c-52.232,54.7-102.576,111.038-155.519,164.035" transform="translate(-473.028 -133.597)" fill="none" stroke="#606060" stroke-miterlimit="10" stroke-width="0.655"/>
          <path id="Trazado_174321" data-name="Trazado 174321" d="M626.494,147.97,467.2,316.133" transform="translate(-471.096 -133.451)" fill="none" stroke="#606060" stroke-miterlimit="10" stroke-width="0.655"/>
          <path id="Trazado_174322" data-name="Trazado 174322" d="M632.825,147.974c-53.181,55.379-105.538,111.715-159.21,168.252" transform="translate(-467.646 -133.448)" fill="none" stroke="#606060" stroke-miterlimit="10" stroke-width="0.655"/>
          <path id="Trazado_174323" data-name="Trazado 174323" d="M634.624,150.913c-51.4,53.794-101.742,109.068-154.566,163.522" transform="translate(-464.179 -131.615)" fill="none" stroke="#606060" stroke-miterlimit="10" stroke-width="0.655"/>
          <path id="Trazado_174324" data-name="Trazado 174324" d="M631.445,157.09c-48.684,51.2-95,104.352-144.916,153.486" transform="translate(-460.695 -127.761)" fill="none" stroke="#606060" stroke-miterlimit="10" stroke-width="0.655"/>
          <path id="Trazado_174325" data-name="Trazado 174325" d="M627.577,164.17c-45.293,47.148-89.6,94.981-134.548,141.938" transform="translate(-457.197 -123.343)" fill="none" stroke="#606060" stroke-miterlimit="10" stroke-width="0.655"/>
          <path id="Trazado_174326" data-name="Trazado 174326" d="M624.358,170.164c-41.559,43.791-82.84,88.434-124.8,132.112" transform="translate(-453.685 -119.603)" fill="none" stroke="#606060" stroke-miterlimit="10" stroke-width="0.655"/>
          <path id="Trazado_174327" data-name="Trazado 174327" d="M620.808,176.763q-57.642,60.773-114.866,121.525" transform="translate(-450.246 -115.486)" fill="none" stroke="#606060" stroke-miterlimit="10" stroke-width="0.655"/>
          <path id="Trazado_174328" data-name="Trazado 174328" d="M617.391,183.234c-34.516,37.448-69.757,74.65-104.883,110.859" transform="translate(-446.712 -111.449)" fill="none" stroke="#606060" stroke-miterlimit="10" stroke-width="0.655"/>
          <path id="Trazado_174329" data-name="Trazado 174329" d="M613.809,189.833c-31.372,33.109-63.591,67.124-94.877,100.216" transform="translate(-443.255 -107.331)" fill="none" stroke="#606060" stroke-miterlimit="10" stroke-width="0.655"/>
          <path id="Trazado_174330" data-name="Trazado 174330" d="M610.08,196.537q-42.13,44.494-84.711,89.38" transform="translate(-439.79 -103.148)" fill="none" stroke="#606060" stroke-miterlimit="10" stroke-width="0.655"/>
          <path id="Trazado_174331" data-name="Trazado 174331" d="M606.917,202.6q-29.314,30.817-58.474,61.8-8.325,8.869-16.625,17.767" transform="translate(-436.319 -99.365)" fill="none" stroke="#606060" stroke-miterlimit="10" stroke-width="0.655"/>
          <path id="Trazado_174332" data-name="Trazado 174332" d="M603.369,209.851c-21.274,22.923-43.424,46.308-65.093,67.807" transform="translate(-432.844 -94.841)" fill="none" stroke="#606060" stroke-miterlimit="10" stroke-width="0.655"/>
        </g>
        <ellipse id="Elipse_4980" data-name="Elipse 4980" cx="8.25" cy="8.709" rx="8.25" ry="8.709" transform="translate(1396.884 130.335)" fill="none" stroke="#606060" stroke-miterlimit="10" stroke-width="0.655"/>
        <g id="Grupo_124668-2" data-name="Grupo 124668" transform="translate(1466.712 202.286)">
          <line id="Línea_1655-2" data-name="Línea 1655" x1="16.434" y2="17.349" fill="none" stroke="#d8d9da" stroke-miterlimit="10" stroke-width="0.78"/>
          <line id="Línea_1656-2" data-name="Línea 1656" x1="16.434" y2="17.349" transform="translate(8.006)" fill="none" stroke="#d8d9da" stroke-miterlimit="10" stroke-width="0.78"/>
          <line id="Línea_1657-2" data-name="Línea 1657" x1="16.434" y2="17.349" transform="translate(16.012)" fill="none" stroke="#d8d9da" stroke-miterlimit="10" stroke-width="0.78"/>
          <line id="Línea_1658-2" data-name="Línea 1658" x1="16.434" y2="17.349" transform="translate(24.018)" fill="none" stroke="#d8d9da" stroke-miterlimit="10" stroke-width="0.78"/>
          <line id="Línea_1659-2" data-name="Línea 1659" x1="16.434" y2="17.349" transform="translate(32.025)" fill="none" stroke="#d8d9da" stroke-miterlimit="10" stroke-width="0.78"/>
          <line id="Línea_1660-2" data-name="Línea 1660" x1="16.434" y2="17.349" transform="translate(40.031)" fill="none" stroke="#d8d9da" stroke-miterlimit="10" stroke-width="0.78"/>
          <line id="Línea_1661-2" data-name="Línea 1661" x1="16.434" y2="17.349" transform="translate(48.037)" fill="none" stroke="#d8d9da" stroke-miterlimit="10" stroke-width="0.78"/>
          <line id="Línea_1662-2" data-name="Línea 1662" x1="16.434" y2="17.349" transform="translate(56.043)" fill="none" stroke="#d8d9da" stroke-miterlimit="10" stroke-width="0.78"/>
          <line id="Línea_1663-2" data-name="Línea 1663" x1="16.434" y2="17.349" transform="translate(64.049)" fill="none" stroke="#d8d9da" stroke-miterlimit="10" stroke-width="0.78"/>
          <line id="Línea_1664-2" data-name="Línea 1664" x1="16.434" y2="17.349" transform="translate(72.055)" fill="none" stroke="#d8d9da" stroke-miterlimit="10" stroke-width="0.78"/>
          <line id="Línea_1665-2" data-name="Línea 1665" x1="16.434" y2="17.349" transform="translate(80.062)" fill="none" stroke="#d8d9da" stroke-miterlimit="10" stroke-width="0.78"/>
          <line id="Línea_1666-2" data-name="Línea 1666" x1="16.434" y2="17.349" transform="translate(88.068)" fill="none" stroke="#d8d9da" stroke-miterlimit="10" stroke-width="0.78"/>
          <line id="Línea_1667-2" data-name="Línea 1667" x1="16.434" y2="17.349" transform="translate(96.074)" fill="none" stroke="#d8d9da" stroke-miterlimit="10" stroke-width="0.78"/>
        </g>
      </g>
    </g>
  </g>
</svg>
