<svg id="Grupo_172524" data-name="Grupo 172524" xmlns="http://www.w3.org/2000/svg" xmlns:xlink="http://www.w3.org/1999/xlink" width="178.704" height="178.704" viewBox="0 0 178.704 178.704">
  <defs>
    <clipPath id="clip-path">
      <rect id="Rectángulo_52748" data-name="Rectángulo 52748" width="178.704" height="178.704" fill="none"/>
    </clipPath>
    <linearGradient id="linear-gradient" x1="0.5" x2="0.5" y2="1" gradientUnits="objectBoundingBox">
      <stop offset="0" stop-color="#13c7e7"/>
      <stop offset="1" stop-color="#207be9"/>
    </linearGradient>
    <linearGradient id="linear-gradient-4" x1="0.5" x2="0.5" y2="1" gradientUnits="objectBoundingBox">
      <stop offset="0" stop-color="#fdbe41"/>
      <stop offset="1" stop-color="#d09f40"/>
    </linearGradient>
    <linearGradient id="linear-gradient-8" x1="0.5" x2="0.5" y2="1" gradientUnits="objectBoundingBox">
      <stop offset="0" stop-color="#ff5983"/>
      <stop offset="1" stop-color="#7e137c"/>
    </linearGradient>
    <linearGradient id="linear-gradient-14" x1="0.5" x2="0.5" y2="1" gradientUnits="objectBoundingBox">
      <stop offset="0" stop-color="#f5f5f5"/>
      <stop offset="0.25" stop-color="#f5f5f5"/>
      <stop offset="1" stop-color="#a7b3cf"/>
    </linearGradient>
  </defs>
  <g id="Grupo_172523" data-name="Grupo 172523" clip-path="url(#clip-path)">
    <path id="Trazado_212715" data-name="Trazado 212715" d="M68.784,0h5.234c.136.1.262.264.409.288a24.031,24.031,0,0,1,13.685,7.4A3.8,3.8,0,0,0,91.163,8.9q17.7-.05,35.392-.012a22.327,22.327,0,0,1,2.952.185,8.7,8.7,0,0,1,7.276,6.81,23.255,23.255,0,0,1,.3,3.983c.04,3.232.013,6.465.013,9.848h2.281c10,0,19.992-.014,29.987.007a9.07,9.07,0,0,1,8.943,6.218,5.13,5.13,0,0,0,.4.7v4.188c-1.034,2.2-2.082,4.459-4.422,5.537a2.431,2.431,0,0,0-1.549,2.665q.051,52.214.028,104.428a4.758,4.758,0,0,0,.028,1.214,1.484,1.484,0,0,0,.6.919c2.817,1.245,4.292,3.589,5.318,6.323v12.213c-1.315,3.349-3.745,4.584-7.348,4.577q-60.975-.111-121.95-.047-21.547,0-43.093,0a5.852,5.852,0,0,1-6.263-6.171q-.024-4.361,0-8.723a8.232,8.232,0,0,1,4.407-7.6A2.68,2.68,0,0,0,6,153.3q-.038-51.99.008-103.98c0-1.472-.169-2.557-1.757-3.071a4.107,4.107,0,0,1-1.5-1.16,8.657,8.657,0,0,1-2.1-9.617A8.9,8.9,0,0,1,9.2,29.72c10.119-.026,20.237-.009,30.357-.01h2.094c0-3.943-.026-7.6.006-11.264.049-5.67,3.688-9.39,9.337-9.559,1.627-.049,3.261-.082,4.883.012a2.274,2.274,0,0,0,2.538-1.5A12.379,12.379,0,0,1,65.856.961C66.829.632,67.808.32,68.784,0m38.474,82.462c-5.41,5.16-12.382,5.255-17.983-.082a11.654,11.654,0,0,1-8.914,3.975,12.021,12.021,0,0,1-8.891-4.045,11.769,11.769,0,0,1-8.963,4.046,12.016,12.016,0,0,1-8.878-4.015c-.34.323-.545.529-.761.721-3.839,3.422-8.231,4.323-12.925,2.28a11.242,11.242,0,0,1-7.126-10.829c-.046-2.732-.082-5.469.023-8.2a8.3,8.3,0,0,1,.77-3.148c1.614-3.406,3.355-6.752,5.039-10.126.846-1.695,1.674-3.4,2.569-5.219H12.04v107.01h1.941c16.516,0,33.031-.021,49.547.034,1.572.005,2.059-.378,2.052-2.014-.063-15.759.137-31.522-.111-47.277-.124-7.9,5.395-13.627,13.5-13.382,7.03.213,14.072.022,21.108.063a17.594,17.594,0,0,1,4.143.433c5.629,1.413,8.961,6.008,8.97,12.323q.031,23.9-.025,47.8c-.005,1.565.366,2.063,2.01,2.057,16.573-.062,33.147-.037,49.721-.043.607,0,1.215-.067,1.758-.1V47.863H137.511c2.61,5.218,5.156,10.226,7.609,15.28a8.071,8.071,0,0,1,.783,3.146c.1,2.845.075,5.7.01,8.546a11.58,11.58,0,0,1-8.557,11.031c-4.754,1.333-8.794-.058-12.216-3.468-5.054,5.021-12.258,5.52-17.882.063m-.063,72.29v-1.728q0-24.062,0-48.125c0-4.259-2.293-6.55-6.564-6.557q-11.159-.017-22.319,0c-4.524,0-6.758,2.224-6.759,6.71q0,23.888,0,47.776v1.924ZM47.848,44.542h83.058c.029-.619.075-1.132.075-1.645q.006-12.034,0-24.067c0-3.059-.848-3.887-3.961-3.888q-15.958-.008-31.916,0c-.543,0-1.087.056-1.583.084.566,2.231,1.22,4.277,1.595,6.373A14.426,14.426,0,0,1,79.7,38.676c-10.352-.694-20.048-8.925-22.388-19.042-.349-1.507-.55-3.047-.838-4.679-1.694,0-3.314-.005-4.935,0-2.866.011-3.768.884-3.772,3.72q-.016,12.121,0,24.242c0,.511.051,1.021.084,1.624M40.7,62.387h97.329c-1.736-3.484-3.441-6.761-5-10.107a2.569,2.569,0,0,0-2.745-1.7q-40.909.072-81.818.035a4.987,4.987,0,0,0-1.215.026,1.521,1.521,0,0,0-.925.573c-1.87,3.648-3.695,7.32-5.626,11.176m75.376,98.588H62.671v11.641h53.407ZM5.994,172.6H56.458V160.959a2.882,2.882,0,0,0-.463-.1q-23.44-.012-46.881,0a2.9,2.9,0,0,0-3.1,3.052c-.078,2.84-.02,5.685-.02,8.7m166.764.018c0-2.632,0-5.172,0-7.711-.008-3.1-.968-4.069-4.042-4.069q-22.307,0-44.615,0h-1.8v11.782ZM41.567,35.884c-.542-.041-.887-.09-1.231-.09q-15.331-.006-30.661,0a5.938,5.938,0,0,0-1.385.112,2.876,2.876,0,0,0,.2,5.648,8.809,8.809,0,0,0,1.39.054q14.982,0,29.964,0c.558,0,1.117-.058,1.721-.092Zm95.618,5.5c.2.113.251.164.3.164,10.8.019,21.6.05,32.4.033a2.857,2.857,0,0,0,2.844-2.742,2.918,2.918,0,0,0-2.764-3,15.083,15.083,0,0,0-1.566-.043q-14.634,0-29.267,0c-.62,0-1.239.053-1.944.085ZM89.1,25.885c.048-.755.14-1.388.121-2.018-.235-8.234-7.241-16.2-15.387-17.628a9.607,9.607,0,0,0-7.166,1.01,4.325,4.325,0,0,0,1.076.4c5.8.3,10.975,5.687,11.237,11.548A6.152,6.152,0,0,0,84.144,25c1.57.339,3.162.57,4.959.887M62.951,12.852a2.416,2.416,0,0,0-.14.463c-1.149,10.845,9.658,19.378,17.608,19.4a24.757,24.757,0,0,0,4.653-.869l-.1-.527a1.367,1.367,0,0,0-.448-.206A12.528,12.528,0,0,1,72.93,19.3a6.091,6.091,0,0,0-5.017-5.541c-1.63-.367-3.29-.6-4.962-.9M38.77,68.584c0,2.178-.071,4.153.017,6.121a5.871,5.871,0,0,0,5.067,5.577c3.185.354,5.978-1.329,6.492-4.434.388-2.339.077-4.795.077-7.264Zm101.2.051H128.109c0,2.167-.1,4.2.024,6.225a5.923,5.923,0,0,0,11.809,0c.131-2.021.024-4.057.024-6.225M56.61,68.61c0,1.893-.014,3.675.009,5.457a7.872,7.872,0,0,0,.191,1.546,5.724,5.724,0,0,0,5.481,4.7c2.895.084,5.458-1.535,5.905-4.327a47.272,47.272,0,0,0,.079-7.374Zm53.668,0c0,2.074-.036,4.038.008,6a5.8,5.8,0,0,0,5.107,5.674c3.177.312,5.95-1.461,6.449-4.5a62.926,62.926,0,0,0,.385-7.175Zm-24.018.023H74.515c0,1.813-.015,3.487.008,5.161a11.351,11.351,0,0,0,.166,1.905,5.792,5.792,0,0,0,6.091,4.605,5.662,5.662,0,0,0,5.448-4.934c.161-2.189.033-4.4.033-6.738m6.182-.043c0,2.109-.051,4.125.013,6.139a5.786,5.786,0,0,0,4.864,5.539c2.915.4,5.834-1.062,6.444-3.8.565-2.533.426-5.223.6-7.875Z" transform="translate(0)" fill="#1a1818"/>
    <path id="Trazado_212716" data-name="Trazado 212716" d="M240.286,337.668H204.641v-1.924q0-23.888,0-47.776c0-4.486,2.235-6.706,6.759-6.71q11.159-.01,22.318,0c4.271.007,6.563,2.3,6.564,6.557q.008,24.062,0,48.125v1.727m-5.936-28.229h.006c0-1.448.038-2.9-.009-4.343a2.966,2.966,0,1,0-5.925-.033c-.045,2.953-.049,5.908,0,8.86a2.9,2.9,0,0,0,2.953,2.981,2.848,2.848,0,0,0,2.96-2.948c.059-1.5.012-3.011.012-4.517" transform="translate(-133.091 -182.916)" fill="#c9e8ff"/>
    <path id="Trazado_212717" data-name="Trazado 212717" d="M136.685,72.329c-.032-.6-.083-1.113-.084-1.623q-.007-12.121,0-24.242c0-2.837.905-3.709,3.771-3.72,1.621-.006,3.241,0,4.935,0,.288,1.631.489,3.172.837,4.679,2.34,10.116,12.036,18.347,22.388,19.042a14.426,14.426,0,0,0,15.42-17.275c-.375-2.1-1.029-4.142-1.595-6.373.5-.028,1.039-.084,1.583-.084q15.957-.008,31.916,0c3.112,0,3.958.829,3.961,3.888q.011,12.034,0,24.067c0,.513-.045,1.026-.075,1.645Zm65.344-17.7c2.787,0,5.573.015,8.36,0,2.181-.015,3.529-1.161,3.558-2.969s-1.295-3.01-3.48-3.02q-8.447-.044-16.894,0c-2.211.012-3.507,1.2-3.472,3.024.034,1.795,1.4,2.951,3.568,2.965,2.787.019,5.573,0,8.36,0m.008,5.943c-1.046,0-2.095-.05-3.137.012a2.934,2.934,0,0,0-2.857,2.923,2.966,2.966,0,0,0,2.83,2.973c2.089.08,4.185.076,6.275,0a2.952,2.952,0,0,0,.026-5.9c-1.042-.065-2.091-.012-3.137-.013" transform="translate(-88.837 -27.788)" fill="#fff"/>
    <path id="Trazado_212718" data-name="Trazado 212718" d="M116.417,156.466c1.931-3.856,3.756-7.527,5.626-11.176a1.522,1.522,0,0,1,.925-.573,4.969,4.969,0,0,1,1.215-.026q40.91,0,81.819-.035a2.568,2.568,0,0,1,2.744,1.7c1.558,3.346,3.263,6.623,5,10.107Z" transform="translate(-75.714 -94.079)" fill="#98a2af"/>
    <rect id="Rectángulo_52746" data-name="Rectángulo 52746" width="53.407" height="11.641" transform="translate(62.671 160.974)" fill="url(#linear-gradient)"/>
    <path id="Trazado_212719" data-name="Trazado 212719" d="M17.107,471.8c0-3.014-.058-5.858.02-8.7a2.9,2.9,0,0,1,3.1-3.052q23.441-.024,46.881,0a2.924,2.924,0,0,1,.463.1V471.8Z" transform="translate(-11.112 -299.198)" fill="url(#linear-gradient)"/>
    <path id="Trazado_212720" data-name="Trazado 212720" d="M400.256,471.808H349.8V460.027h1.8q22.308,0,44.615,0c3.073,0,4.034.969,4.042,4.069.006,2.54,0,5.079,0,7.711" transform="translate(-227.498 -299.186)" fill="url(#linear-gradient)"/>
    <path id="Trazado_212721" data-name="Trazado 212721" d="M52.82,102.461v5.632c-.6.034-1.163.091-1.721.092q-14.982.008-29.964,0a8.811,8.811,0,0,1-1.39-.055,2.876,2.876,0,0,1-.2-5.648,5.917,5.917,0,0,1,1.385-.112q15.33-.009,30.661,0c.345,0,.689.049,1.231.09" transform="translate(-11.253 -66.576)" fill="url(#linear-gradient-4)"/>
    <path id="Trazado_212722" data-name="Trazado 212722" d="M392.37,107.954v-5.5c.7-.032,1.324-.085,1.944-.085q14.633-.008,29.267,0a15.077,15.077,0,0,1,1.566.043,2.919,2.919,0,0,1,2.765,3,2.858,2.858,0,0,1-2.844,2.742c-10.8.018-21.6-.014-32.4-.033-.049,0-.1-.051-.3-.164" transform="translate(-255.184 -66.574)" fill="url(#linear-gradient-4)"/>
    <path id="Trazado_212723" data-name="Trazado 212723" d="M213.121,37.015c-1.8-.317-3.389-.548-4.959-.887a6.152,6.152,0,0,1-5.161-5.8c-.262-5.861-5.437-11.25-11.237-11.548a4.335,4.335,0,0,1-1.076-.4,9.607,9.607,0,0,1,7.166-1.01C206,18.793,213.007,26.763,213.242,35c.018.63-.073,1.264-.121,2.018" transform="translate(-124.018 -11.13)" fill="url(#linear-gradient-4)"/>
    <path id="Trazado_212724" data-name="Trazado 212724" d="M179.633,36.758c1.672.3,3.332.536,4.962.9a6.091,6.091,0,0,1,5.017,5.541A12.528,12.528,0,0,0,201.2,55.014a1.367,1.367,0,0,1,.448.206q.051.263.1.527a24.767,24.767,0,0,1-4.653.869c-7.95-.017-18.757-8.55-17.608-19.4a2.421,2.421,0,0,1,.14-.462" transform="translate(-116.681 -23.906)" fill="url(#linear-gradient-4)"/>
    <path id="Trazado_212725" data-name="Trazado 212725" d="M110.837,196.159h11.653c0,2.469.311,4.925-.077,7.264-.515,3.1-3.308,4.788-6.493,4.434a5.871,5.871,0,0,1-5.067-5.577c-.087-1.968-.017-3.942-.017-6.121" transform="translate(-72.067 -127.575)" fill="url(#linear-gradient-8)"/>
    <path id="Trazado_212726" data-name="Trazado 212726" d="M378.194,196.3c0,2.168.106,4.2-.024,6.225a5.923,5.923,0,0,1-11.809,0c-.126-2.022-.024-4.057-.024-6.225Z" transform="translate(-238.228 -127.669)" fill="url(#linear-gradient-8)"/>
    <path id="Trazado_212727" data-name="Trazado 212727" d="M161.905,196.234H173.57a47.271,47.271,0,0,1-.079,7.374c-.448,2.792-3.011,4.411-5.905,4.327a5.724,5.724,0,0,1-5.48-4.7,7.847,7.847,0,0,1-.191-1.546c-.023-1.782-.009-3.564-.009-5.457" transform="translate(-105.295 -127.624)" fill="url(#linear-gradient-8)"/>
    <path id="Trazado_212728" data-name="Trazado 212728" d="M315.386,196.245h11.95a62.925,62.925,0,0,1-.385,7.175c-.5,3.037-3.272,4.81-6.449,4.5a5.8,5.8,0,0,1-5.107-5.673c-.044-1.962-.008-3.925-.008-6" transform="translate(-205.108 -127.631)" fill="url(#linear-gradient-8)"/>
    <path id="Trazado_212729" data-name="Trazado 212729" d="M224.859,196.312c0,2.339.128,4.549-.033,6.737a5.662,5.662,0,0,1-5.448,4.934,5.792,5.792,0,0,1-6.091-4.605,11.351,11.351,0,0,1-.166-1.906c-.022-1.673-.008-3.347-.008-5.161Z" transform="translate(-138.599 -127.675)" fill="url(#linear-gradient-8)"/>
    <path id="Trazado_212730" data-name="Trazado 212730" d="M264.36,196.189h11.92c-.173,2.653-.034,5.342-.6,7.876-.611,2.74-3.53,4.2-6.444,3.8a5.786,5.786,0,0,1-4.864-5.539c-.064-2.014-.013-4.03-.013-6.139" transform="translate(-171.918 -127.595)" fill="url(#linear-gradient-8)"/>
    <path id="Trazado_212731" data-name="Trazado 212731" d="M71.856,308.494c-4.649,0-9.3.014-13.948,0-4.388-.016-6.822-2.437-6.826-6.773q-.01-12.814,0-25.629c.015-6.637,4.313-11.824,10.891-12.207a172.567,172.567,0,0,1,20.373.061,11.364,11.364,0,0,1,10.49,11.5c.12,8.948.071,17.9.02,26.849-.022,3.734-2.636,6.166-6.533,6.2-4.823.04-9.647.009-14.471.01m-14.663-18.1H86.8c0-4.666.007-9.241-.006-13.815a12.5,12.5,0,0,0-.149-2.258,5.732,5.732,0,0,0-5.652-4.516q-8.982-.059-17.965,0c-3.144.02-5.638,2.021-5.773,5.127-.223,5.093-.06,10.2-.06,15.465m-.1,11.844H86.681v-5.67H81.04q-11.141,0-22.282.013c-.673,0-1.645-.333-1.658.914-.016,1.554,0,3.108,0,4.743" transform="translate(-33.217 -171.443)" fill="#1a1818"/>
    <path id="Trazado_212732" data-name="Trazado 212732" d="M361.48,308.6c-4.649,0-9.3.011-13.948,0-4.562-.013-6.942-2.425-6.944-7.028q-.007-12.466,0-24.931c.009-7.707,5.037-12.825,12.728-12.835,6.272-.008,12.563-.147,18.811.275a11.323,11.323,0,0,1,10.215,11.2c.116,9.123.075,18.248.018,27.372-.022,3.486-2.688,5.9-6.409,5.942-4.823.048-9.647.012-14.471.012m-14.756-18.15h29.549a7.871,7.871,0,0,0,.095-.811c.006-4.477.051-8.954-.006-13.43-.047-3.675-2.31-6.248-5.612-6.286q-9.243-.108-18.488,0a5.451,5.451,0,0,0-5.5,5.229c-.137,5.051-.038,10.108-.038,15.3m.058,11.92h29.439v-5.6H346.783Z" transform="translate(-221.504 -171.553)" fill="#1a1818"/>
    <path id="Trazado_212733" data-name="Trazado 212733" d="M278.523,347.988c0,1.506.047,3.013-.012,4.517a2.848,2.848,0,0,1-2.96,2.948,2.9,2.9,0,0,1-2.953-2.981c-.052-2.953-.048-5.907,0-8.86a2.966,2.966,0,1,1,5.925.033c.047,1.446.009,2.9.009,4.343h-.006" transform="translate(-177.264 -221.466)" fill="#1a1818"/>
    <path id="Trazado_212734" data-name="Trazado 212734" d="M301.554,65.583c-2.787,0-5.573.014-8.36,0-2.167-.015-3.534-1.171-3.568-2.966-.035-1.828,1.261-3.011,3.472-3.024q8.447-.046,16.894,0c2.186.011,3.509,1.213,3.48,3.02s-1.378,2.954-3.558,2.969c-2.787.019-5.574,0-8.36,0" transform="translate(-188.362 -38.74)" fill="#1a1818"/>
    <path id="Trazado_212735" data-name="Trazado 212735" d="M312.619,93.734c1.046,0,2.1-.053,3.137.012a2.952,2.952,0,0,1-.026,5.9c-2.089.075-4.186.079-6.275,0a2.966,2.966,0,0,1-2.83-2.973,2.934,2.934,0,0,1,2.857-2.923c1.042-.062,2.091-.012,3.137-.011" transform="translate(-199.419 -60.948)" fill="#1a1818"/>
    <path id="Trazado_212736" data-name="Trazado 212736" d="M68.292,363.484c0-1.635-.012-3.189,0-4.743.012-1.247.985-.912,1.658-.914q11.141-.03,22.282-.013h5.64v5.67Z" transform="translate(-44.412 -232.693)" fill="url(#linear-gradient-14)"/>
    <rect id="Rectángulo_52747" data-name="Rectángulo 52747" width="29.439" height="5.598" transform="translate(125.279 125.223)" fill="url(#linear-gradient-14)"/>
  </g>
</svg>
