<svg id="Grupo_172526" data-name="Grupo 172526" xmlns="http://www.w3.org/2000/svg" xmlns:xlink="http://www.w3.org/1999/xlink" width="155.992" height="156.013" viewBox="0 0 155.992 156.013">
  <defs>
    <clipPath id="clip-path">
      <rect id="Rectángulo_52749" data-name="Rectángulo 52749" width="155.992" height="156.012" fill="none"/>
    </clipPath>
    <linearGradient id="linear-gradient" x1="0.5" x2="0.5" y2="1" gradientUnits="objectBoundingBox">
      <stop offset="0" stop-color="#7e7e7e"/>
      <stop offset="1" stop-color="#fff"/>
    </linearGradient>
    <linearGradient id="linear-gradient-2" x1="0.5" x2="0.5" y2="1" gradientUnits="objectBoundingBox">
      <stop offset="0" stop-color="#13c7e7"/>
      <stop offset="1" stop-color="#207be9"/>
    </linearGradient>
    <linearGradient id="linear-gradient-3" x1="0.5" x2="0.5" y2="1" gradientUnits="objectBoundingBox">
      <stop offset="0" stop-color="#f5f5f5"/>
      <stop offset="0.25" stop-color="#f5f5f5"/>
      <stop offset="1" stop-color="#a7b3cf"/>
    </linearGradient>
    <linearGradient id="linear-gradient-4" x1="0.5" x2="0.5" y2="1" gradientUnits="objectBoundingBox">
      <stop offset="0" stop-color="#fdbe41"/>
      <stop offset="1" stop-color="#d09f40"/>
    </linearGradient>
    <linearGradient id="linear-gradient-12" x1="0.5" x2="0.5" y2="1" gradientUnits="objectBoundingBox">
      <stop offset="0" stop-color="#ff5983"/>
      <stop offset="1" stop-color="#7e137c"/>
    </linearGradient>
  </defs>
  <g id="Grupo_172525" data-name="Grupo 172525" clip-path="url(#clip-path)">
    <path id="Trazado_212737" data-name="Trazado 212737" d="M1.867,183.81C.357,182.712-.016,181.238,0,179.4c.083-9.137.013-18.275.045-27.413a30.727,30.727,0,0,1,27.289-30.012c6.782-.665,13.594-.179,20.391-.235,1.405-.012,1.593-.418,1.731-1.729.313-2.97-.7-4.892-3.029-6.886-5.716-4.889-8.345-11.434-8.549-18.933-.068-2.486-.091-4.978.018-7.461.053-1.207-.366-1.394-1.446-1.382a28.611,28.611,0,0,1-5.768-.177,9.227,9.227,0,0,1,1.45-18.3c1.37-.027,2.748-.091,4.11.018,1.266.1,1.718-.179,1.691-1.6a80.1,80.1,0,0,1,.162-9.888c.86-8.207,8.394-15.239,16.627-15.335q9.212-.107,18.427,0c8.648.095,16.43,7.707,16.737,16.354.11,3.093.088,6.193.037,9.288-.016.956.266,1.181,1.19,1.183a26.943,26.943,0,0,1,5.765.18,9.126,9.126,0,0,1,7.4,9.843,9.224,9.224,0,0,1-8.99,8.454,38.552,38.552,0,0,1-3.958-.007c-1.036-.066-1.4.219-1.373,1.321.066,2.84.085,5.688-.041,8.526a25.214,25.214,0,0,1-10.22,19.506,2.43,2.43,0,0,0-1.147,2.4c.163,1.492-.628,3.5.322,4.352.828.741,2.795.23,4.258.234q6.7.017,13.4,0a30.886,30.886,0,0,1,15.548,3.955,1.668,1.668,0,0,0,1.79.077,9.742,9.742,0,0,1,10.835,1.061,1.022,1.022,0,0,0,1.512-.005c6.613-4.776,14.935-1.3,16.232,6.743a8.161,8.161,0,0,1-.378,3.9c-.316.956.01,1.159.873,1.077a10.627,10.627,0,0,1,1.37,0,3.194,3.194,0,0,1,3.476,2.908q3.981,18.92,7.942,37.843c.024.114.175.2.266.3v2.132a5.23,5.23,0,0,1-2.132,2.132H124.315a3.434,3.434,0,0,1-2.185-3.044c.388-2.212,1.36-3.045,3.6-3.047q9.44-.009,18.881,0h4.436a10.356,10.356,0,0,0-.1-1.177q-3.206-15.293-6.415-30.585c-.193-.927-.56-1.283-1.6-1.281q-29.387.058-58.774,0c-1.1,0-1.486.351-1.7,1.36q-3.15,15.15-6.374,30.283c-.22,1.036-.155,1.449,1.133,1.436,7.359-.074,14.719-.039,22.078-.034,2.23,0,3.186.82,3.611,3.045a3.5,3.5,0,0,1-2.182,3.046ZM21.3,153.66c0,7.51.035,15.02-.033,22.528-.012,1.292.347,1.561,1.591,1.557q21.539-.07,43.078.008c1.333.006,1.79-.421,2.028-1.643.9-4.612,1.875-9.208,2.834-13.808.37-1.773.383-1.772-1.488-1.773q-17.2,0-34.4,0a12.683,12.683,0,0,1-1.67-.067,2.9,2.9,0,0,1-2.754-3.053c-.025-.76-.008-1.522-.008-2.283,0-8.626-.022-17.252.025-25.877.006-1.163-.261-1.459-1.449-1.322a33.364,33.364,0,0,0-6.222,1.272,1.827,1.827,0,0,0-1.567,2.086c.08,7.458.039,14.917.039,22.376m61.821-25.847c-1.578,0-2.834.007-4.09,0a1.224,1.224,0,0,0-1.05.442,17.778,17.778,0,0,1-11.858,6.071,18.386,18.386,0,0,1-16.032-5.882,1.848,1.848,0,0,0-1.551-.632c-3.55.01-7.1.048-10.65-.021-1.069-.021-1.344.274-1.338,1.338q.069,11.943-.005,23.886c-.009,1.161.3,1.4,1.42,1.4q16.583-.068,33.167.006c1.114.006,1.49-.37,1.68-1.361.6-3.123,1.253-6.235,1.9-9.349.962-4.654.964-4.671,5.767-5.143.661-.065.757-.262.574-.824-1.157-3.562-.331-6.758,2.068-9.924M64.007,85.363q-9.362,0-18.723,0c-.567,0-1.27-.216-1.231.814.148,3.946-.332,7.915.43,11.837a19.885,19.885,0,0,0,38.7,1.139c1.067-4.1.443-8.276.661-12.414.061-1.166-.3-1.418-1.424-1.408-6.139.058-12.279.027-18.419.027m.042-18.506c6.141,0,12.282-.024,18.422.024,1.048.008,1.4-.246,1.366-1.338-.08-2.636-.013-5.277-.03-7.916A11.438,11.438,0,0,0,72.561,46.165q-8.6-.156-17.2,0a11.322,11.322,0,0,0-11.2,11.148c-.072,2.739.028,5.482-.049,8.22-.031,1.08.312,1.36,1.368,1.351,6.191-.047,12.383-.023,18.574-.023m-.32,12.284q15.063,0,30.126,0a14.441,14.441,0,0,0,1.671-.053,2.926,2.926,0,0,0,2.6-2.556,3.042,3.042,0,0,0-1.918-3.277,6.1,6.1,0,0,0-2.249-.27q-30.278.006-60.556,0a6.01,6.01,0,0,0-2.1.24,3.033,3.033,0,0,0-2.027,3.205,2.916,2.916,0,0,0,2.659,2.664,15.555,15.555,0,0,0,1.671.047q15.063,0,30.126,0M15.177,133.575c-.552.436-.882.657-1.167.927a23.441,23.441,0,0,0-7.795,16.6c-.265,8.567-.068,17.147-.1,25.722,0,.768.263.918.958.906,2.232-.039,4.468-.079,6.7.013,1.122.047,1.455-.229,1.439-1.4-.071-5.225-.031-10.452-.031-15.678V133.575M55.5,118.664c0,1.964.06,3.739-.025,5.508a1.857,1.857,0,0,0,1.016,1.836,13,13,0,0,0,14.073.549c1.273-.68,2.038-1.5,1.816-3.091a16.416,16.416,0,0,1-.012-3.494c.09-1.172-.4-1.239-1.323-.94a23.828,23.828,0,0,1-4,.833,26.5,26.5,0,0,1-11.549-1.2m49.086,19.825a3.856,3.856,0,1,0-4-3.87,3.909,3.909,0,0,0,4,3.87m-13.985,0a3.857,3.857,0,1,0-3.946-3.786A3.846,3.846,0,0,0,90.6,138.49m27.9-7.711a3.855,3.855,0,1,0,3.911,3.837,3.875,3.875,0,0,0-3.911-3.837m13.919,7.714a3.858,3.858,0,1,0-3.854-3.838,3.8,3.8,0,0,0,3.854,3.838" transform="translate(0 -27.797)" fill="#0b0b09"/>
    <path id="Trazado_212738" data-name="Trazado 212738" d="M383.982,41.789c-.511.216-.428.759-.578,1.146a9.764,9.764,0,0,1-8.8,6.414,9.335,9.335,0,0,1-9.172-5.566c-.617-1.294-1-1.044-1.884-.388a48.019,48.019,0,0,1-13.689,7.062c-2.145.71-3.812.151-4.479-1.515-.708-1.767.088-3.243,2.277-4.238a1.92,1.92,0,0,0,.313-.26,9.908,9.908,0,0,1-4.531-8.585,9.722,9.722,0,0,1,9.647-9.547c1.241,0,1.979-.131,2.056-1.574a8.311,8.311,0,0,1,.781-2.144,47.28,47.28,0,0,1-8.755-.615c-6.446-1.116-12.368-3.4-17.321-7.819-2.244-2-2.25-3.712.01-5.737A32.394,32.394,0,0,1,345.991.847C355.7-.945,365.046.059,373.818,4.855c1.233.674,2.389,1.487,3.687,2.3a12.966,12.966,0,0,0,.372-3.556c.052-1.9.752-3.02,2.157-3.45,1.424-.435,2.487.049,3.7,1.668.041.054.165.046.251.067v6.4c-.234.063-.28.241-.3.453A47.992,47.992,0,0,1,376.8,28.912c-.568.929-.283,1.064.575,1.362a9.885,9.885,0,0,1,5.979,5.672c.227.521.094,1.185.627,1.578ZM336.07,11.319c.815.5,1.39.908,2.016,1.218,10.405,5.158,20.912,5.2,31.484.549,1-.439,2.661-.944,2.63-1.738-.039-1.009-1.672-1.36-2.687-1.85a35.158,35.158,0,0,0-20.582-2.954,28.968,28.968,0,0,0-12.862,4.775m17.122,28.409a3.583,3.583,0,0,0,3.681-3.607,3.657,3.657,0,1,0-7.314-.033,3.553,3.553,0,0,0,3.634,3.64m15-12.42a3.51,3.51,0,0,0-3.707-3.561,3.649,3.649,0,0,0-3.6,3.585,3.8,3.8,0,0,0,3.7,3.7,3.674,3.674,0,0,0,3.609-3.726m2.377,12.279a3.68,3.68,0,0,0,3.679,3.633,3.777,3.777,0,0,0,3.639-3.716,3.618,3.618,0,0,0-3.724-3.57,3.531,3.531,0,0,0-3.594,3.653m2.7-16.861a28.352,28.352,0,0,0,2.283-5.9l-5.07,2.678a13.4,13.4,0,0,1,2.786,3.226" transform="translate(-227.99 0)" fill="#090a09"/>
    <path id="Trazado_212739" data-name="Trazado 212739" d="M359.211,497.239h-1.828A3.448,3.448,0,0,1,355.2,494.2c.354-2.01,1.4-3.049,3.08-3.047,1.654,0,2.671,1,3.11,3.044a3.63,3.63,0,0,1-2.178,3.047" transform="translate(-246.776 -341.227)" fill="#0b0b09"/>
    <path id="Trazado_212740" data-name="Trazado 212740" d="M405.088,182.533a9.192,9.192,0,0,1,9.194,9.146,9.173,9.173,0,1,1-18.347-.005,9.113,9.113,0,0,1,9.153-9.141m-2.979,9.16a3.034,3.034,0,0,0,2.958,3.021,3.078,3.078,0,0,0,3.035-2.977,3.01,3.01,0,0,0-3.076-3.046,2.9,2.9,0,0,0-2.917,3" transform="translate(-275.078 -126.816)" fill="#0b0b09"/>
    <path id="Trazado_212741" data-name="Trazado 212741" d="M276.83,418.983h-7.512c-.425-2.226-1.382-3.044-3.611-3.046-7.359-.005-14.72-.04-22.078.034-1.288.013-1.353-.4-1.132-1.436q3.22-15.135,6.374-30.284c.21-1.009.6-1.362,1.7-1.36q29.387.061,58.774,0c1.037,0,1.4.354,1.6,1.281q3.19,15.3,6.415,30.584a10.429,10.429,0,0,1,.1,1.177h-4.436q-9.441,0-18.881,0c-2.239,0-3.211.835-3.6,3.047l-7.517,0c-.438-2.047-1.455-3.043-3.109-3.044-1.677,0-2.726,1.037-3.08,3.047" transform="translate(-168.407 -266.014)" fill="url(#linear-gradient)"/>
    <path id="Trazado_212742" data-name="Trazado 212742" d="M69.679,353.69c0-7.459.041-14.918-.039-22.376a1.827,1.827,0,0,1,1.568-2.086,33.33,33.33,0,0,1,6.222-1.272c1.189-.137,1.456.159,1.45,1.321-.047,8.626-.025,17.252-.025,25.878,0,.761-.016,1.523.009,2.283a2.9,2.9,0,0,0,2.755,3.053,12.62,12.62,0,0,0,1.669.067q17.2.005,34.4,0c1.871,0,1.857,0,1.488,1.773-.958,4.6-1.936,9.2-2.834,13.808-.238,1.222-.695,1.649-2.028,1.643q-21.539-.092-43.078-.008c-1.243,0-1.6-.265-1.59-1.557.068-7.509.033-15.019.033-22.528" transform="translate(-48.382 -227.827)" fill="url(#linear-gradient-2)"/>
    <path id="Trazado_212743" data-name="Trazado 212743" d="M166.3,327.6c-2.4,3.167-3.225,6.362-2.068,9.924.183.562.086.759-.574.824-4.8.473-4.8.489-5.766,5.143-.644,3.114-1.3,6.226-1.9,9.349-.19.992-.566,1.367-1.68,1.361q-16.584-.083-33.167-.006c-1.119,0-1.429-.237-1.42-1.4q.087-11.943.005-23.886c-.006-1.064.269-1.36,1.338-1.339,3.548.07,7.1.031,10.649.022a1.847,1.847,0,0,1,1.551.632A18.385,18.385,0,0,0,149.3,334.1a17.779,17.779,0,0,0,11.858-6.071,1.223,1.223,0,0,1,1.05-.442c1.256.01,2.512,0,4.09,0" transform="translate(-83.178 -227.579)" fill="url(#linear-gradient-3)"/>
    <path id="Trazado_212744" data-name="Trazado 212744" d="M164.236,188.527c6.139,0,12.279.03,18.419-.027,1.121-.011,1.486.242,1.424,1.408-.219,4.138.405,8.316-.661,12.414a19.885,19.885,0,0,1-38.7-1.139c-.762-3.923-.282-7.892-.431-11.837-.038-1.03.664-.813,1.231-.814q9.362-.011,18.723,0m.07,19.578a6.424,6.424,0,0,0,4.765-2.012,2.95,2.95,0,0,0,.172-4.13,2.875,2.875,0,0,0-3.954-.544,1.65,1.65,0,0,1-2.26-.046,2.873,2.873,0,0,0-4.03.779,2.974,2.974,0,0,0,.367,3.994,6.6,6.6,0,0,0,4.94,1.959" transform="translate(-100.23 -130.96)" fill="#efbc8e"/>
    <path id="Trazado_212745" data-name="Trazado 212745" d="M164.433,80.689c-6.191,0-12.383-.024-18.574.023-1.056.008-1.4-.272-1.368-1.351.077-2.738-.023-5.482.049-8.22a11.322,11.322,0,0,1,11.2-11.147q8.6-.147,17.2,0a11.439,11.439,0,0,1,11.245,11.462c.018,2.639-.05,5.28.03,7.916.034,1.092-.318,1.346-1.366,1.337-6.14-.048-12.281-.023-18.422-.023" transform="translate(-100.385 -41.629)" fill="url(#linear-gradient-4)"/>
    <path id="Trazado_212746" data-name="Trazado 212746" d="M130.326,154.186q-15.063,0-30.126,0a15.551,15.551,0,0,1-1.671-.047,2.916,2.916,0,0,1-2.659-2.664,3.033,3.033,0,0,1,2.027-3.205,6.011,6.011,0,0,1,2.1-.24q30.278,0,60.556,0a6.1,6.1,0,0,1,2.249.27,3.043,3.043,0,0,1,1.919,3.277,2.926,2.926,0,0,1-2.6,2.556,14.436,14.436,0,0,1-1.671.053q-15.063,0-30.126,0" transform="translate(-66.597 -102.842)" fill="url(#linear-gradient-4)"/>
    <path id="Trazado_212747" data-name="Trazado 212747" d="M29,346.534v27.091c0,5.226-.04,10.452.031,15.678.016,1.173-.317,1.449-1.439,1.4-2.229-.092-4.464-.052-6.7-.013-.7.012-.962-.138-.958-.906.034-8.575-.164-17.156.1-25.723a23.441,23.441,0,0,1,7.795-16.6c.284-.27.614-.491,1.167-.927" transform="translate(-13.825 -240.756)" fill="url(#linear-gradient-3)"/>
    <path id="Trazado_212748" data-name="Trazado 212748" d="M181.755,297.683a26.5,26.5,0,0,0,11.549,1.2,23.831,23.831,0,0,0,4-.833c.919-.3,1.413-.233,1.323.94a16.417,16.417,0,0,0,.012,3.494c.222,1.591-.543,2.411-1.816,3.091a13,13,0,0,1-14.073-.549,1.857,1.857,0,0,1-1.016-1.836c.084-1.769.025-3.544.025-5.508" transform="translate(-126.255 -206.816)" fill="#eeba8d"/>
    <path id="Trazado_212749" data-name="Trazado 212749" d="M333.529,345.083a3.856,3.856,0,1,1,3.872-3.841,3.913,3.913,0,0,1-3.872,3.841" transform="translate(-228.944 -234.391)" fill="url(#linear-gradient-4)"/>
    <path id="Trazado_212750" data-name="Trazado 212750" d="M287.826,345.083a3.856,3.856,0,1,1,3.864-3.851,3.853,3.853,0,0,1-3.864,3.851" transform="translate(-197.226 -234.39)" fill="url(#linear-gradient-4)"/>
    <path id="Trazado_212751" data-name="Trazado 212751" d="M379.264,337.374a3.856,3.856,0,1,1-3.934,3.794,3.889,3.889,0,0,1,3.934-3.794" transform="translate(-260.762 -234.392)" fill="url(#linear-gradient-4)"/>
    <path id="Trazado_212752" data-name="Trazado 212752" d="M425.044,345.081a3.858,3.858,0,1,1,3.882-3.8,3.762,3.762,0,0,1-3.882,3.8" transform="translate(-292.623 -234.385)" fill="url(#linear-gradient-4)"/>
    <path id="Trazado_212753" data-name="Trazado 212753" d="M354.078,25.295A28.967,28.967,0,0,1,366.94,20.52a35.158,35.158,0,0,1,20.581,2.954c1.015.49,2.648.84,2.687,1.85.031.794-1.631,1.3-2.63,1.738-10.572,4.651-21.079,4.609-31.485-.549-.626-.31-1.2-.722-2.016-1.218" transform="translate(-245.997 -13.976)" fill="url(#linear-gradient-4)"/>
    <path id="Trazado_212754" data-name="Trazado 212754" d="M401.9,113.506a3.553,3.553,0,0,1-3.634-3.64,3.657,3.657,0,1,1,7.314.033,3.583,3.583,0,0,1-3.681,3.607" transform="translate(-276.695 -73.778)" fill="#d4d750"/>
    <path id="Trazado_212755" data-name="Trazado 212755" d="M442.674,81.352a3.675,3.675,0,0,1-3.609,3.726,3.8,3.8,0,0,1-3.7-3.7,3.649,3.649,0,0,1,3.6-3.586,3.51,3.51,0,0,1,3.707,3.562" transform="translate(-302.473 -54.045)" fill="url(#linear-gradient-12)"/>
    <path id="Trazado_212756" data-name="Trazado 212756" d="M467.092,121.374a3.531,3.531,0,0,1,3.593-3.653,3.618,3.618,0,0,1,3.725,3.57,3.777,3.777,0,0,1-3.639,3.715,3.68,3.68,0,0,1-3.679-3.633" transform="translate(-324.514 -81.787)" fill="url(#linear-gradient-12)"/>
    <path id="Trazado_212757" data-name="Trazado 212757" d="M416.163,205.709a2.9,2.9,0,0,1,2.917-3,3.01,3.01,0,0,1,3.076,3.046,3.078,3.078,0,0,1-3.035,2.977,3.034,3.034,0,0,1-2.958-3.021" transform="translate(-289.131 -140.831)" fill="url(#linear-gradient-12)"/>
    <path id="Trazado_212758" data-name="Trazado 212758" d="M196.456,236.23a6.6,6.6,0,0,1-4.94-1.959,2.974,2.974,0,0,1-.368-3.994,2.873,2.873,0,0,1,4.03-.779,1.65,1.65,0,0,0,2.26.046,2.875,2.875,0,0,1,3.954.544,2.95,2.95,0,0,1-.172,4.13,6.424,6.424,0,0,1-4.765,2.012" transform="translate(-132.38 -159.086)" fill="#0b0b09"/>
  </g>
</svg>
