<svg xmlns="http://www.w3.org/2000/svg" width="31.93" height="57.821" viewBox="0 0 31.93 57.821">
  <g id="Grupo_155799" data-name="Grupo 155799" transform="translate(0 0)">
    <g id="Grupo_152551" data-name="Grupo 152551" transform="translate(0 57.821) rotate(-90)">
      <rect id="Rectángulo_45220" data-name="Rectángulo 45220" width="48.488" height="22.081" transform="translate(48.488 22.081) rotate(180)" fill="#fff"/>
      <g id="Grupo_152556" data-name="Grupo 152556" transform="translate(14.202 12.231)">
        <rect id="Rectángulo_45221" data-name="Rectángulo 45221" width="3.752" height="3.752" transform="translate(39.866 15.947)" fill="#34a3ed"/>
        <rect id="Rectángulo_45222" data-name="Rectángulo 45222" width="3.752" height="3.752" transform="translate(31.893 15.947)" fill="#34a3ed"/>
        <rect id="Rectángulo_45223" data-name="Rectángulo 45223" width="3.752" height="3.752" transform="translate(23.92 15.947)" fill="#34a3ed"/>
        <rect id="Rectángulo_45224" data-name="Rectángulo 45224" width="3.752" height="3.752" transform="translate(15.947 15.947)" fill="#34a3ed"/>
        <rect id="Rectángulo_45225" data-name="Rectángulo 45225" width="3.752" height="3.752" transform="translate(7.973 15.947)" fill="#34a3ed"/>
        <rect id="Rectángulo_45226" data-name="Rectángulo 45226" width="3.752" height="3.752" transform="translate(0 15.947)" fill="#34a3ed"/>
        <rect id="Rectángulo_45232" data-name="Rectángulo 45232" width="3.752" height="3.752" transform="translate(39.866 7.973)" fill="#34a3ed"/>
        <rect id="Rectángulo_45233" data-name="Rectángulo 45233" width="3.752" height="3.752" transform="translate(31.893 7.973)" fill="#34a3ed"/>
        <rect id="Rectángulo_45234" data-name="Rectángulo 45234" width="3.752" height="3.752" transform="translate(23.92 7.973)" fill="#34a3ed"/>
        <rect id="Rectángulo_45235" data-name="Rectángulo 45235" width="3.752" height="3.752" transform="translate(15.947 7.973)" fill="#34a3ed"/>
        <rect id="Rectángulo_45236" data-name="Rectángulo 45236" width="3.752" height="3.752" transform="translate(7.973 7.973)" fill="#34a3ed"/>
        <rect id="Rectángulo_45237" data-name="Rectángulo 45237" width="3.752" height="3.752" transform="translate(0 7.973)" fill="#34a3ed"/>
        <rect id="Rectángulo_45243" data-name="Rectángulo 45243" width="3.752" height="3.752" transform="translate(39.866)" fill="#34a3ed"/>
        <rect id="Rectángulo_45244" data-name="Rectángulo 45244" width="3.752" height="3.752" transform="translate(31.893)" fill="#34a3ed"/>
        <rect id="Rectángulo_45245" data-name="Rectángulo 45245" width="3.752" height="3.752" transform="translate(23.92)" fill="#34a3ed"/>
        <rect id="Rectángulo_45246" data-name="Rectángulo 45246" width="3.752" height="3.752" transform="translate(15.947)" fill="#34a3ed"/>
        <rect id="Rectángulo_45247" data-name="Rectángulo 45247" width="3.752" height="3.752" transform="translate(7.973)" fill="#34a3ed"/>
        <rect id="Rectángulo_45248" data-name="Rectángulo 45248" width="3.752" height="3.752" fill="#34a3ed"/>
      </g>
    </g>
  </g>
</svg>
