<svg id="Icon" xmlns="http://www.w3.org/2000/svg" xmlns:xlink="http://www.w3.org/1999/xlink" width="76.1" height="76.1" viewBox="0 0 76.1 76.1">
  <defs>
    <clipPath id="clip-path">
      <rect id="Rectángulo_52816" data-name="Rectángulo 52816" width="46.939" height="46.934" fill="#12263f"/>
    </clipPath>
  </defs>
  <ellipse id="Base" cx="38.05" cy="38.05" rx="38.05" ry="38.05" transform="translate(0 0)" fill="#fff"/>
  <g id="Grupo_173671" data-name="Grupo 173671" transform="translate(16.207 15.089)">
    <g id="Grupo_173670" data-name="Grupo 173670" clip-path="url(#clip-path)">
      <path id="Trazado_214801" data-name="Trazado 214801" d="M0,40.153V5.695A4.036,4.036,0,0,1,3.862,2.348,4.137,4.137,0,0,1,8.22,4.621,10.632,10.632,0,0,1,8.7,6.253h.285q13.173,0,26.346-.012a.945.945,0,0,0,.611-.284C37.668,4.12,39.373,2.265,41.089.42c.5-.54.869-.557,1.411-.061Q44.073,1.8,45.628,3.251c.546.51.551.894.042,1.448-.462.5-.927,1-1.413,1.53.33.312.64.6.947.9.571.546.584.9.053,1.478-.9.975-1.8,1.954-2.715,2.918a1.023,1.023,0,0,0-.3.771q.012,9.917.007,19.835c0,.144.013.288.026.547.17-.189.266-.3.368-.409.914-.964,1.835-1.922,2.742-2.893A.923.923,0,0,1,46.434,29c.443.165.5.549.5.977q-.01,7.948,0,15.9a1.062,1.062,0,0,1-.557,1.058H30.249c-.674-.523-.708-.913-.113-1.54q2.033-2.144,4.074-4.281c.109-.115.21-.238.371-.421H23.233c-.855,0-1.711-.01-2.565.01a.579.579,0,0,0-.409.221c-.274.415-.459.9-.767,1.279-1.051,1.309-2.134,2.593-3.22,3.874-.263.31-.581.573-.873.858H14.94Q13.1,45.428,11.27,43.92c-.593-.49-.624-.884-.13-1.477l1.454-1.75h-.586c-3.63,0-7.259-.005-10.889.006A1.168,1.168,0,0,1,0,40.153m8.629-1.094a1.38,1.38,0,0,0,.232.042c1.6,0,3.208.009,4.812-.008a.725.725,0,0,0,.446-.241c.376-.4.7-.85,1.093-1.232a2.215,2.215,0,0,1,2.707-.315,13.832,13.832,0,0,1,1.832,1.511.871.871,0,0,0,.66.293c5.1-.006,10.205,0,15.308-.018a1.093,1.093,0,0,0,.7-.309c1.313-1.344,2.6-2.718,3.9-4.066a1.162,1.162,0,0,0,.357-.886q-.014-11.547-.007-23.094v-.483l-.163-.105a2.285,2.285,0,0,1-.234.379q-2.688,2.914-5.391,5.812a1.924,1.924,0,0,1-.787.51c-1.294.4-2.6.766-3.9,1.14C29.3,18.244,28.811,17.8,29,16.9c.241-1.163.507-2.322.72-3.49a3.085,3.085,0,0,1,.866-1.663c.979-1.008,1.919-2.053,2.874-3.084.225-.243.446-.488.725-.794H8.628ZM7.041,35.913v-.457q0-14.429,0-28.858a2.309,2.309,0,0,0-1.8-2.569,4.823,4.823,0,0,0-1.9,0A2.294,2.294,0,0,0,1.561,6.567q0,14.475,0,28.95v.41c2.329-1,2.932-1,5.481-.013m38.3-4.194L32.371,45.338H45.345ZM31.773,12.8l2.287,2.113,7.956-8.6L39.73,4.206l-7.957,8.6M1.6,39.067H6.983a2.3,2.3,0,0,0-2.4-2.3c-1.851-.053-2.871.72-2.981,2.3m13.088,1.588L12.7,43.046l2.389,1.992,1.989-2.393-2.388-1.99M40.81,3.047l2.282,2.116,1.044-1.147L41.852,1.909,40.81,3.047M18.092,41.429c.2-.24.368-.417.5-.619a.741.741,0,0,0-.1-1.034,16.375,16.375,0,0,0-1.267-1.048.7.7,0,0,0-.961.062,8.134,8.134,0,0,0-.568.655l2.39,1.983M30.764,16.182l1.768-.522-1.377-1.279-.392,1.8M42.322,9.439l1.41-1.525-.537-.5c-.612.554-1.2,1.067-.872,2.027" transform="translate(0.001 0)" fill="#12263f"/>
      <path id="Trazado_214802" data-name="Trazado 214802" d="M145.069,184.5c1.741,0,3.419,0,5.1,0a2.1,2.1,0,0,1,.587.06.763.763,0,0,1-.116,1.49,3.936,3.936,0,0,1-.548.029q-10.518,0-21.036,0a3.936,3.936,0,0,1-.548-.032.763.763,0,0,1-.126-1.479,1.713,1.713,0,0,1,.54-.069c1.543-.005,3.086,0,4.629,0h.541v-.534c0-2.566.007-5.132-.006-7.7a1.477,1.477,0,0,1,.461-1.141c1.436-1.416,2.856-2.847,4.284-4.27.567-.564.942-.561,1.516.011,1.428,1.424,2.848,2.855,4.282,4.273a1.433,1.433,0,0,1,.45,1.1c-.012,2.566-.006,5.132-.006,7.7v.562m-1.624-7.781H135.7v7.759h7.741Zm-1.28-1.606-2.568-2.581-2.583,2.581Z" transform="translate(-116.113 -154.785)" fill="#12263f"/>
      <path id="Trazado_214803" data-name="Trazado 214803" d="M248.4,137.667h-1.6c0-.46-.016-.9.014-1.331.006-.087.18-.223.286-.233a5.518,5.518,0,0,1,1,0c.106.01.28.145.286.233.03.434.013.871.013,1.332" transform="translate(-224.138 -123.585)" fill="#12263f"/>
      <path id="Trazado_214804" data-name="Trazado 214804" d="M248.4,359.53c-.464,0-.9.011-1.338-.01a.311.311,0,0,1-.216-.211c-.021-.436-.01-.874-.01-1.343H248.4Z" transform="translate(-224.166 -325.096)" fill="#12263f"/>
      <path id="Trazado_214805" data-name="Trazado 214805" d="M403.807,407.425c-.855,0-1.711-.005-2.566,0a.835.835,0,0,1-.855-.488.8.8,0,0,1,.242-.95q2.64-2.642,5.283-5.28a.817.817,0,0,1,.947-.271.853.853,0,0,1,.511.889c-.005,1.711,0,3.421,0,5.132,0,.677-.3.962-.991.966-.855,0-1.711,0-2.566,0m1.969-4.18-2.545,2.573h2.545Z" transform="translate(-363.555 -363.612)" fill="#12263f"/>
    </g>
  </g>
</svg>
