<svg xmlns="http://www.w3.org/2000/svg" xmlns:xlink="http://www.w3.org/1999/xlink" width="942.142" height="218.313" viewBox="0 0 942.142 218.313">
  <defs>
    <clipPath id="clip-path">
      <rect id="Rectángulo_52809" data-name="Rectángulo 52809" width="57.67" height="57.684" fill="#12263f"/>
    </clipPath>
    <clipPath id="clip-path-2">
      <rect id="Rectángulo_52810" data-name="Rectángulo 52810" width="62.905" height="63.358" transform="translate(0 0)" fill="#12263f"/>
    </clipPath>
    <clipPath id="clip-path-3">
      <rect id="Rectángulo_52814" data-name="Rectángulo 52814" width="54.151" height="54.148" fill="#12263f"/>
    </clipPath>
    <linearGradient id="linear-gradient" x1="0.5" x2="0.5" y2="1" gradientUnits="objectBoundingBox">
      <stop offset="0" stop-color="#116eb9"/>
      <stop offset="1" stop-color="#1894f6"/>
    </linearGradient>
    <linearGradient id="linear-gradient-2" x1="0.5" x2="0.5" y2="1" gradientUnits="objectBoundingBox">
      <stop offset="0" stop-color="#f5f5f5"/>
      <stop offset="0.25" stop-color="#f5f5f5"/>
      <stop offset="1" stop-color="#a7b3cf"/>
    </linearGradient>
  </defs>
  <g id="Grupo_155303" data-name="Grupo 155303" transform="translate(-4.021 316.777)">
    <g id="Grupo_155300" data-name="Grupo 155300" transform="translate(33.802 -316.777)">
      <line id="Línea_1806" data-name="Línea 1806" x2="727.566" transform="translate(131.784 101.583)" fill="none" stroke="#000" stroke-linecap="round" stroke-linejoin="round" stroke-width="1" stroke-dasharray="0 4"/>
      <rect id="Rectángulo_46415" data-name="Rectángulo 46415" width="31.664" height="2.054" transform="translate(259.535 191.141) rotate(-90)" fill="#d2d2d2"/>
      <rect id="Rectángulo_46416" data-name="Rectángulo 46416" width="31.664" height="2.054" transform="translate(630.121 191.141) rotate(-90)" fill="#d2d2d2"/>
      <g id="Grupo_155272" data-name="Grupo 155272" transform="translate(4.019 68.977)">
        <path id="Trazado_195627" data-name="Trazado 195627" d="M178.471-249.311a69.9,69.9,0,0,1-69.856,67.681A69.9,69.9,0,0,1,38.76-249.311h-2a71.9,71.9,0,0,0,71.855,69.681,71.9,71.9,0,0,0,71.856-69.681Z" transform="translate(-36.76 271.993)" fill="#d2d2d2"/>
        <path id="Trazado_195628" data-name="Trazado 195628" d="M314.707-249.311a69.9,69.9,0,0,1-69.855,67.681A69.9,69.9,0,0,1,175-249.311h-2a71.9,71.9,0,0,0,71.855,69.681,71.9,71.9,0,0,0,71.855-69.681Z" transform="translate(12.094 271.993)" fill="#d2d2d2"/>
        <path id="Trazado_195629" data-name="Trazado 195629" d="M450.946-249.311a69.9,69.9,0,0,1-69.855,67.681,69.9,69.9,0,0,1-69.856-67.681h-2a71.9,71.9,0,0,0,71.856,69.681,71.9,71.9,0,0,0,71.855-69.681Z" transform="translate(60.947 271.993)" fill="#d2d2d2"/>
        <path id="Trazado_195630" data-name="Trazado 195630" d="M587.184-249.311a69.9,69.9,0,0,1-69.856,67.681,69.9,69.9,0,0,1-69.855-67.681h-2a71.9,71.9,0,0,0,71.855,69.681,71.9,71.9,0,0,0,71.855-69.681Z" transform="translate(109.801 271.993)" fill="#d2d2d2"/>
        <path id="Trazado_195631" data-name="Trazado 195631" d="M723.421-249.311a69.9,69.9,0,0,1-69.855,67.681,69.9,69.9,0,0,1-69.856-67.681h-2a71.9,71.9,0,0,0,71.856,69.681,71.9,71.9,0,0,0,71.855-69.681Z" transform="translate(158.655 271.993)" fill="#d2d2d2"/>
        <path id="Trazado_195632" data-name="Trazado 195632" d="M143.065-243.324a20.69,20.69,0,0,1,20.69-20.69,20.691,20.691,0,0,1,20.691,20.69h1.992a22.682,22.682,0,0,0-22.683-22.682,22.682,22.682,0,0,0-22.683,22.682Z" transform="translate(0.646 266.006)" fill="#d2d2d2"/>
        <path id="Trazado_195633" data-name="Trazado 195633" d="M279.3-243.324a20.691,20.691,0,0,1,20.691-20.69,20.69,20.69,0,0,1,20.69,20.69h1.993a22.682,22.682,0,0,0-22.683-22.682,22.682,22.682,0,0,0-22.683,22.682Z" transform="translate(49.499 266.006)" fill="#d2d2d2"/>
        <path id="Trazado_195634" data-name="Trazado 195634" d="M415.54-243.324a20.69,20.69,0,0,1,20.69-20.69,20.691,20.691,0,0,1,20.691,20.69h1.992a22.682,22.682,0,0,0-22.683-22.682,22.682,22.682,0,0,0-22.683,22.682Z" transform="translate(98.353 266.006)" fill="#d2d2d2"/>
        <path id="Trazado_195635" data-name="Trazado 195635" d="M551.777-243.324a20.691,20.691,0,0,1,20.691-20.69,20.69,20.69,0,0,1,20.69,20.69h1.993a22.682,22.682,0,0,0-22.683-22.682,22.682,22.682,0,0,0-22.683,22.682Z" transform="translate(147.207 266.006)" fill="#d2d2d2"/>
      </g>
      <rect id="Rectángulo_46417" data-name="Rectángulo 46417" width="31.664" height="2.054" transform="translate(74.826 191.141) rotate(-90)" fill="#d2d2d2"/>
      <rect id="Rectángulo_46418" data-name="Rectángulo 46418" width="31.664" height="2.054" transform="translate(445.03 191.141) rotate(-90)" fill="#d2d2d2"/>
      <circle id="Elipse_5982" data-name="Elipse 5982" cx="2.387" cy="2.387" r="2.387" transform="translate(2.616 89.272)" fill="#d2d2d2"/>
      <circle id="Elipse_5983" data-name="Elipse 5983" cx="2.387" cy="2.387" r="2.387" transform="translate(873.629 89.272)" fill="#d2d2d2"/>
      <g id="Grupo_155276" data-name="Grupo 155276" transform="translate(1.311 14.865)">
        <circle id="Elipse_5984" data-name="Elipse 5984" cx="63.235" cy="63.235" r="63.235" transform="matrix(0.162, -0.987, 0.987, 0.162, 1.921, 126.721)" fill="#f6f6f4"/>
        <circle id="Elipse_5985" data-name="Elipse 5985" cx="52.724" cy="52.724" r="52.724" transform="translate(0 74.562) rotate(-45)" fill="#e5e5e5"/>
        <g id="Grupo_155275" data-name="Grupo 155275" transform="translate(48.052 47.881)">
          <g id="Grupo_155274" data-name="Grupo 155274">
            <path id="Trazado_195645" data-name="Trazado 195645" d="M110.43-265.41l-6.209,3.1-1.388-2.777,6.209-3.1Z" transform="translate(-58.411 271.454)" fill="#12263f"/>
            <path id="Trazado_195646" data-name="Trazado 195646" d="M109.042-246.31l-6.209-3.1,1.388-2.777,6.207,3.1Z" transform="translate(-58.411 277.19)" fill="#12263f"/>
            <path id="Trazado_195647" data-name="Trazado 195647" d="M104.486-259.167H110.8v3.1h-6.312Z" transform="translate(-57.818 274.689)" fill="#12263f"/>
            <path id="Trazado_195648" data-name="Trazado 195648" d="M72.232-268.186l6.207,3.1-1.388,2.776-6.207-3.1Z" transform="translate(-69.882 271.455)" fill="#12263f"/>
            <path id="Trazado_195649" data-name="Trazado 195649" d="M72.231-246.311l-1.388-2.777,6.209-3.1,1.388,2.777Z" transform="translate(-69.882 277.19)" fill="#12263f"/>
            <path id="Trazado_195650" data-name="Trazado 195650" d="M70.136-259.167h6.312v3.1H70.136Z" transform="translate(-70.136 274.689)" fill="#12263f"/>
            <path id="Trazado_195651" data-name="Trazado 195651" d="M86.206-233.881h9.313v3.1H86.206Z" transform="translate(-64.373 283.756)" fill="#12263f"/>
            <path id="Trazado_195652" data-name="Trazado 195652" d="M111.214-253.519A17.094,17.094,0,0,0,94.14-270.592a17.093,17.093,0,0,0-17.073,17.073,17.079,17.079,0,0,0,9.313,15.186v4.991h-3.1v3.1h3.1v6.415H101.9v-6.415h3.1v-3.1h-3.1v-4.991A17.081,17.081,0,0,0,111.214-253.519ZM98.8-226.925H89.483v-3.311H98.8Zm-6.209-23.489a1.554,1.554,0,0,1,1.553-1.551,1.553,1.553,0,0,1,1.552,1.551,1.554,1.554,0,0,1-1.552,1.553A1.555,1.555,0,0,1,92.588-250.414Zm3.1,17.073v-12.684a4.665,4.665,0,0,0,3.1-4.39,4.661,4.661,0,0,0-4.656-4.656,4.662,4.662,0,0,0-4.657,4.656,4.666,4.666,0,0,0,3.1,4.39v12.684h-3.1v-6.986l-.928-.408a13.981,13.981,0,0,1-8.384-12.784A13.985,13.985,0,0,1,94.14-267.488a13.986,13.986,0,0,1,13.969,13.969,13.983,13.983,0,0,1-8.384,12.784l-.929.408v6.986Z" transform="translate(-67.651 270.592)" fill="#12263f"/>
          </g>
        </g>
        <path id="Trazado_214848" data-name="Trazado 214848" d="M11.591-6.467A7.923,7.923,0,0,1,10.248-1.5,4.687,4.687,0,0,1,6.316.215a4.72,4.72,0,0,1-3.91-1.687A7.691,7.691,0,0,1,1.021-6.306V-9.185a7.819,7.819,0,0,1,1.359-4.974,4.722,4.722,0,0,1,3.916-1.7,4.726,4.726,0,0,1,3.91,1.681,7.668,7.668,0,0,1,1.386,4.829Zm-3.1-3.165a5.727,5.727,0,0,0-.532-2.833,1.8,1.8,0,0,0-1.66-.887,1.765,1.765,0,0,0-1.617.844,5.36,5.36,0,0,0-.553,2.64v3.806a6.012,6.012,0,0,0,.521,2.844,1.773,1.773,0,0,0,1.67.93A1.743,1.743,0,0,0,7.96-3.181a5.868,5.868,0,0,0,.526-2.731ZM21.227,0h-3.1V-11.983l-3.706,1.144v-2.5l6.478-2.32h.333ZM26.6-1.525a1.563,1.563,0,0,1,.5-1.2,1.772,1.772,0,0,1,1.251-.462,1.787,1.787,0,0,1,1.262.462,1.563,1.563,0,0,1,.5,1.2,1.542,1.542,0,0,1-.494,1.187,1.794,1.794,0,0,1-1.268.457,1.78,1.78,0,0,1-1.257-.457A1.542,1.542,0,0,1,26.6-1.525Z" transform="translate(22.388 32.197)" fill="#00334e"/>
      </g>
      <g id="Grupo_155280" data-name="Grupo 155280" transform="translate(188.293 16.756)">
        <g id="Grupo_155277" data-name="Grupo 155277" transform="translate(0 0)">
          <circle id="Elipse_5986" data-name="Elipse 5986" cx="63.235" cy="63.235" r="63.235" transform="matrix(0.163, -0.987, 0.987, 0.163, 0, 124.788)" fill="#f6f6f4"/>
          <circle id="Elipse_5987" data-name="Elipse 5987" cx="52.724" cy="52.724" r="52.724" transform="translate(9.09 111.619) rotate(-76.489)" fill="#e5e5e5"/>
        </g>
        <path id="Trazado_214847" data-name="Trazado 214847" d="M11.591-6.467A7.923,7.923,0,0,1,10.248-1.5,4.687,4.687,0,0,1,6.316.215a4.72,4.72,0,0,1-3.91-1.687A7.691,7.691,0,0,1,1.021-6.306V-9.185a7.819,7.819,0,0,1,1.359-4.974,4.722,4.722,0,0,1,3.916-1.7,4.726,4.726,0,0,1,3.91,1.681,7.668,7.668,0,0,1,1.386,4.829Zm-3.1-3.165a5.727,5.727,0,0,0-.532-2.833,1.8,1.8,0,0,0-1.66-.887,1.765,1.765,0,0,0-1.617.844,5.36,5.36,0,0,0-.553,2.64v3.806a6.012,6.012,0,0,0,.521,2.844,1.773,1.773,0,0,0,1.67.93A1.743,1.743,0,0,0,7.96-3.181a5.868,5.868,0,0,0,.526-2.731ZM24.406,0H13.686V-2.127l5.06-5.393a12.482,12.482,0,0,0,1.542-1.987,3.193,3.193,0,0,0,.5-1.611,2.389,2.389,0,0,0-.526-1.638,1.9,1.9,0,0,0-1.5-.6,2.049,2.049,0,0,0-1.66.725,2.872,2.872,0,0,0-.607,1.907H13.374a5.128,5.128,0,0,1,.682-2.61,4.808,4.808,0,0,1,1.928-1.853,5.861,5.861,0,0,1,2.825-.671,5.549,5.549,0,0,1,3.754,1.16A4.1,4.1,0,0,1,23.9-11.419a5.259,5.259,0,0,1-.6,2.363,13.133,13.133,0,0,1-2.062,2.8L17.682-2.5h6.725ZM26.6-1.525a1.563,1.563,0,0,1,.5-1.2,1.772,1.772,0,0,1,1.251-.462,1.787,1.787,0,0,1,1.262.462,1.563,1.563,0,0,1,.5,1.2,1.542,1.542,0,0,1-.494,1.187,1.794,1.794,0,0,1-1.268.457,1.78,1.78,0,0,1-1.257-.457A1.542,1.542,0,0,1,26.6-1.525Z" transform="translate(15.357 30.307)" fill="#00334e"/>
        <g id="_5IECN8" data-name="5IECN8" transform="translate(533.609 -241.03)">
          <g id="Grupo_155309" data-name="Grupo 155309" transform="translate(-494.198 276.422)">
            <path id="Trazado_195678" data-name="Trazado 195678" d="M-487.559,533.241a5.734,5.734,0,0,1-2.307-3.594,19.683,19.683,0,0,1-.124-3.133,2.106,2.106,0,0,0-.609-1.555,4.293,4.293,0,0,1-.881-2.267,11.564,11.564,0,0,1,.773-5.394c.92-2.421,3.513-3.585,6.313-2.9.81.2,1.622.4,2.441.557a6.9,6.9,0,0,1,5.2,8.88,2.635,2.635,0,0,1-.589,1.178,2.376,2.376,0,0,0-.666,2.2,6.79,6.79,0,0,1-.792,4.1c-.45.695-1.029,1.306-1.608,2.028.272.475.566,1.054.928,1.587a.927.927,0,0,0,.626.318,5.059,5.059,0,0,1,4.987,5.362c0,1.363.01,2.725,0,4.088-.009.853-.28,1.13-1.14,1.132q-9,.012-18,0c-.874,0-1.17-.318-1.176-1.2q-.016-2.083,0-4.167a5,5,0,0,1,4.527-5.143,1.641,1.641,0,0,0,1.524-1.048C-488,533.944-487.785,533.639-487.559,533.241Zm11.8,10.667c0-1.257.025-2.457-.006-3.655a3.17,3.17,0,0,0-2.725-3.084.684.684,0,0,0-.849.453,4.944,4.944,0,0,1-4.695,2.978,4.936,4.936,0,0,1-4.679-3,.677.677,0,0,0-.859-.425,3.093,3.093,0,0,0-2.663,2.631c-.131,1.341-.028,2.705-.028,4.1Zm-12.527-16.978.168.033c0,.5-.014,1,0,1.492a3.968,3.968,0,0,0,4.17,3.962,4.021,4.021,0,0,0,4.048-4.028c.012-.759.025-1.519,0-2.277a5.026,5.026,0,0,0-1.54-3.313.839.839,0,0,0-.739-.167,14.664,14.664,0,0,1-4.888,1.013.813.813,0,0,0-.623.423C-487.929,525.01-488.091,525.974-488.281,526.931Zm9.6-3.468a4.927,4.927,0,0,0-3.473-6.615q-1.289-.305-2.576-.612a3.413,3.413,0,0,0-4.547,2.735,8.585,8.585,0,0,0-.167,4.212c.468-1.26,1.424-1.391,2.587-1.5a20.11,20.11,0,0,0,4.234-.985,1.861,1.861,0,0,1,1.548.047A5.471,5.471,0,0,1-478.685,523.463Zm-5.487,15.455.1-.211a3.546,3.546,0,0,0,.47,0,3.311,3.311,0,0,0,2.531-1.765c.476-.831-.33-1.27-.539-1.89-.008-.024-.03-.044-.038-.068a1.042,1.042,0,0,0-1.5-.73,2.447,2.447,0,0,1-1.4.022c-1.158-.376-1.66.188-2.12,1.137-.535,1.1-.567,1.665.4,2.418A12.579,12.579,0,0,0-484.172,538.918Z" transform="translate(494.198 -476.796)" fill="#12263f"/>
            <path id="Trazado_195679" data-name="Trazado 195679" d="M-216.874,295.448a6.424,6.424,0,0,1-2.481-5.914c.048-.933.162-1.854-.782-2.591a2.379,2.379,0,0,1-.61-1.712,21.219,21.219,0,0,1,.351-4.434c.8-3.558,3.561-5.074,7.077-4.072.624.178,1.263.315,1.9.43a6.905,6.905,0,0,1,5.26,9.14,2.443,2.443,0,0,1-.556,1.022,2.228,2.228,0,0,0-.651,1.978,14.955,14.955,0,0,1-.142,2.658,5.741,5.741,0,0,1-2.293,3.51c.339.591.635,1.172,1,1.705a.911.911,0,0,0,.643.315,5.187,5.187,0,0,1,5.007,5.609c-.07,1.254-.005,2.515-.016,3.773-.008.882-.353,1.23-1.249,1.231q-8.923.008-17.845,0c-.916,0-1.218-.314-1.224-1.233-.009-1.467-.027-2.935,0-4.4a4.9,4.9,0,0,1,4.578-4.9,1.439,1.439,0,0,0,1.36-.922C-217.351,296.244-217.112,295.871-216.874,295.448Zm11.8,10.716c0-1.39.081-2.727-.023-4.049a3.078,3.078,0,0,0-2.374-2.636.947.947,0,0,0-1.3.565,4.82,4.82,0,0,1-4.492,2.79,4.985,4.985,0,0,1-4.558-2.579c-.571-.939-.888-1.062-1.912-.59a2.781,2.781,0,0,0-1.784,2.236c-.126,1.4-.031,2.811-.031,4.264Zm-12.554-17.015.171.034c0,.549-.023,1.1,0,1.648a4.02,4.02,0,0,0,4.179,3.811,3.94,3.94,0,0,0,4.025-3.856c.028-.836.036-1.675.005-2.511a4.785,4.785,0,0,0-1.514-3.243.837.837,0,0,0-.73-.176,13.789,13.789,0,0,1-4.806,1c-.436.016-.693.16-.781.584Q-217.355,287.794-217.63,289.148Zm9.637-3.389a5,5,0,0,0-3.68-6.731c-.817-.153-1.625-.359-2.431-.561a3.355,3.355,0,0,0-3.941,1.341,8.671,8.671,0,0,0-.727,5.629c.434-1.426,1.538-1.351,2.655-1.5a24.463,24.463,0,0,0,4.16-1,1.886,1.886,0,0,1,1.561.042A5.383,5.383,0,0,1-207.993,285.759Zm-5.443,15.383a3.745,3.745,0,0,0,3.045-2.026,1.083,1.083,0,0,0,.036-.793,12.462,12.462,0,0,0-.973-1.7.757.757,0,0,0-.566-.229,8.475,8.475,0,0,1-2.02.073c-1.131-.278-1.6.237-2.044,1.143-.588,1.2-.6,1.708.472,2.518A11.792,11.792,0,0,0-213.436,301.142Z" transform="translate(266.085 -276.422)" fill="#12263f"/>
            <path id="Trazado_195680" data-name="Trazado 195680" d="M-362.154,422.929q0-6.016,0-12.032c0-1.242.242-1.492,1.45-1.493,4.089,0,8.179-.022,12.267.023a2.414,2.414,0,0,1,1.442.587c1.567,1.391,3.088,2.837,4.582,4.307a1.8,1.8,0,0,1,.512,1.144c.031,6.632.024,13.264.02,19.9,0,.919-.313,1.249-1.215,1.25q-8.925.012-17.851,0c-.9,0-1.206-.332-1.207-1.259Q-362.16,429.142-362.154,422.929Zm1.914,11.757h16.418V416.11c-1.307,0-2.56,0-3.812,0-1.019-.005-1.292-.28-1.3-1.311-.008-1.144,0-2.289,0-3.449H-360.24Zm13.259-22.1v1.57h1.7Z" transform="translate(382.93 -388.477)" fill="#12263f"/>
            <path id="Trazado_195681" data-name="Trazado 195681" d="M-448.345,338.651v16.823c.576-.57,1.035-1.012,1.481-1.467s.956-.6,1.447-.128.347,1-.093,1.447q-1.519,1.538-3.059,3.056a.963.963,0,0,1-1.515-.021c-1.021-1.017-2.036-2.04-3.057-3.058a.917.917,0,0,1-.113-1.391.911.911,0,0,1,1.446.065c.452.457.879.938,1.317,1.409l.214-.116v-.823q0-8.06,0-16.121c0-1.348.214-1.566,1.531-1.566h26.579c1.122,0,1.588.285,1.57.954s-.485.937-1.613.937h-26.134Z" transform="translate(459.925 -327.267)" fill="#12263f"/>
            <path id="Trazado_195682" data-name="Trazado 195682" d="M-301.965,518.683c-.432.487-.853.984-1.3,1.458a.905.905,0,0,1-1.442.07.906.906,0,0,1,.106-1.389c1.012-1.027,2.034-2.044,3.055-3.062a.962.962,0,0,1,1.515-.023c1.046,1.03,2.077,2.075,3.111,3.117a.9.9,0,0,1,.052,1.388.9.9,0,0,1-1.389-.076c-.453-.464-.872-.961-1.305-1.443l-.215.111c-.012.271-.034.542-.034.812q0,8.063,0,16.125c0,1.383-.206,1.586-1.591,1.586h-23.834c-.236,0-.534.084-.695-.027-.33-.229-.767-.536-.817-.863-.041-.274.357-.686.656-.913.191-.145.554-.083.84-.083q11.249-.005,22.5,0h1v-16.6Z" transform="translate(353.096 -477.784)" fill="#12263f"/>
            <path id="Trazado_195683" data-name="Trazado 195683" d="M-332.727,491.8c-1.757,0-3.513,0-5.27,0-.861,0-1.268-.313-1.269-.94s.413-.945,1.264-.946q5.27-.005,10.54,0c.855,0,1.266.315,1.268.94s-.415.942-1.263.944C-329.214,491.8-330.971,491.8-332.727,491.8Z" transform="translate(363.642 -456.319)" fill="#12263f"/>
            <path id="Trazado_195684" data-name="Trazado 195684" d="M-332.783,467.635q-2.674,0-5.348,0c-.58,0-1.043-.191-1.14-.835s.34-1.045,1.137-1.048c2.543-.009,5.086,0,7.628,0,1.075,0,2.15.006,3.224,0,.613,0,1.037.248,1.063.892.029.7-.437.985-1.06.992-1.835.019-3.67.007-5.505.007Z" transform="translate(363.657 -435.96)" fill="#12263f"/>
            <path id="Trazado_195685" data-name="Trazado 195685" d="M-332.757,515.949c-1.757,0-3.513-.008-5.27,0-.654,0-1.159-.157-1.2-.913-.036-.628.4-.974,1.236-.976q5.309-.012,10.618-.006c.637,0,1.162.18,1.2.934.036.642-.371.949-1.238.952-1.783.005-3.566,0-5.349,0Z" transform="translate(363.613 -476.67)" fill="#12263f"/>
            <path id="Trazado_195686" data-name="Trazado 195686" d="M-332.7,540.334c-1.756,0-3.511.005-5.267,0-.874,0-1.264-.3-1.267-.933s.386-.938,1.262-.94q5.307-.012,10.614,0c.795,0,1.208.332,1.188.937-.024.763-.54.942-1.184.942Z" transform="translate(363.618 -497.226)" fill="#12263f"/>
            <path id="Trazado_195687" data-name="Trazado 195687" d="M-335.282,441.377c.941,0,1.881,0,2.822,0,.63,0,1.079.229,1.124.92.039.607-.374.957-1.157.961-1.881.01-3.763,0-5.644,0-.614,0-1.093-.2-1.121-.914-.025-.619.368-.95,1.154-.962.941-.014,1.882,0,2.822,0Z" transform="translate(363.637 -415.418)" fill="#12263f"/>
          </g>
        </g>
      </g>
      <g id="Grupo_155283" data-name="Grupo 155283" transform="translate(370.251 13.621)">
        <g id="Grupo_155281" data-name="Grupo 155281" transform="translate(0 0)">
          <circle id="Elipse_5988" data-name="Elipse 5988" cx="63.235" cy="63.235" r="63.235" transform="translate(0 123.248) rotate(-77.04)" fill="#f6f6f4"/>
          <circle id="Elipse_5989" data-name="Elipse 5989" cx="52.724" cy="52.724" r="52.724" transform="translate(12.224 114.753) rotate(-76.489)" fill="#e5e5e5"/>
        </g>
        <path id="Trazado_214846" data-name="Trazado 214846" d="M12.118-6.761a8.284,8.284,0,0,1-1.4,5.188A4.9,4.9,0,0,1,6.6.225,4.934,4.934,0,0,1,2.516-1.539,8.041,8.041,0,0,1,1.067-6.592V-9.6a8.175,8.175,0,0,1,1.421-5.2,4.937,4.937,0,0,1,4.094-1.774,4.941,4.941,0,0,1,4.088,1.758,8.016,8.016,0,0,1,1.449,5.048ZM8.872-10.07a5.988,5.988,0,0,0-.556-2.962,1.879,1.879,0,0,0-1.735-.927,1.845,1.845,0,0,0-1.69.882,5.6,5.6,0,0,0-.578,2.76v3.979a6.285,6.285,0,0,0,.545,2.973A1.854,1.854,0,0,0,6.6-2.392a1.823,1.823,0,0,0,1.718-.933,6.135,6.135,0,0,0,.55-2.855Zm8.737.457h1.729a2.437,2.437,0,0,0,1.831-.618,2.263,2.263,0,0,0,.6-1.64,2,2,0,0,0-.59-1.539,2.285,2.285,0,0,0-1.623-.55,2.4,2.4,0,0,0-1.561.511,1.634,1.634,0,0,0-.629,1.331H14.117a3.991,3.991,0,0,1,.691-2.3A4.6,4.6,0,0,1,16.739-16a6.447,6.447,0,0,1,2.735-.573,6.114,6.114,0,0,1,4.065,1.241,4.234,4.234,0,0,1,1.471,3.42,3.441,3.441,0,0,1-.685,2.066,4.451,4.451,0,0,1-1.8,1.449,4.063,4.063,0,0,1,2.061,1.482,4.021,4.021,0,0,1,.679,2.336,4.3,4.3,0,0,1-1.589,3.493A6.389,6.389,0,0,1,19.474.225a6.058,6.058,0,0,1-4-1.292,4.218,4.218,0,0,1-1.555-3.414H17.16a1.88,1.88,0,0,0,.691,1.5,2.545,2.545,0,0,0,1.7.584A2.557,2.557,0,0,0,21.366-3a2.113,2.113,0,0,0,.657-1.623q0-2.448-2.7-2.448H17.609Zm10.2,8.019a1.634,1.634,0,0,1,.522-1.258,1.853,1.853,0,0,1,1.308-.483,1.868,1.868,0,0,1,1.32.483,1.634,1.634,0,0,1,.522,1.258,1.612,1.612,0,0,1-.517,1.241,1.876,1.876,0,0,1-1.325.477,1.861,1.861,0,0,1-1.314-.477A1.612,1.612,0,0,1,27.807-1.595Z" transform="translate(19.241 34.441)" fill="#00334e"/>
        <g id="Grupo_173663" data-name="Grupo 173663" transform="translate(47.203 48.416)">
          <g id="Grupo_173662" data-name="Grupo 173662" clip-path="url(#clip-path)">
            <path id="Trazado_214755" data-name="Trazado 214755" d="M26.814,0H30.87c.907.124,1.818.219,2.719.376A28.068,28.068,0,0,1,48.806,8.067a28.243,28.243,0,0,1,8.6,24.752A27.681,27.681,0,0,1,52,46.044,16.771,16.771,0,0,0,49.424,49.7a2.763,2.763,0,0,1-.468.631c-.538.675-1.066,1.359-1.622,2.018a3.305,3.305,0,0,0-.814,2.326c.03.988.007,1.977.007,3.008h-.507c-5.97,0-11.94.011-17.91-.013a23.311,23.311,0,0,1-3.251-.251A28.405,28.405,0,0,1,8.535,49.3,28.266,28.266,0,0,1,.45,33.921C.269,32.91.149,31.887,0,30.87V26.814a1.962,1.962,0,0,0,.1-.369,28.7,28.7,0,0,1,3.411-11.43,1.771,1.771,0,0,0,.2-.793c.016-1.932,0-3.864.01-5.8a4.627,4.627,0,0,1,4.7-4.7c1.876-.008,3.752.013,5.628-.014a2.539,2.539,0,0,0,1.109-.276A28.863,28.863,0,0,1,24.548.325L26.814,0m6.533,43.2c.083-.11.119-.135.119-.16q.007-7.912-.006-15.824a.567.567,0,0,0-.33-.4,4.747,4.747,0,0,1-3.269-3.557.723.723,0,0,0-.355-.416,5.555,5.555,0,0,1-1.313-9.55,1.822,1.822,0,0,0,.176-.206H5.606v.765c0,8.954.025,17.908-.028,26.862A5.1,5.1,0,0,0,6.67,44.187a1,1,0,0,0,.868.458q9.573-.02,19.147-.009h.577c-.247-1.492-.5-2.911-.713-4.336a38.038,38.038,0,0,1-.488-3.894A2.757,2.757,0,0,1,28.4,33.58a24.272,24.272,0,0,1,2.635-.113c.347-.018.474.086.538.45.5,2.84,1.025,5.675,1.55,8.511.045.243.139.477.227.774m11.288-2.289c0-.411,0-.746,0-1.081,0-2.384,0-4.768,0-7.152,0-.654-.366-1.041-.927-1.028s-.895.409-.9,1.071q-.007,3.773,0,7.546v.638H40.915v-.639q0-3.154,0-6.307c0-1.089.009-2.178-.008-3.266a.883.883,0,0,0-.882-.906.921.921,0,0,0-.932.867c-.014.149,0,.3,0,.45q0,4.59,0,9.179V40.9H37.195v-.7q0-8.222,0-16.444c0-.188.009-.376-.007-.563a.907.907,0,0,0-.888-.849.924.924,0,0,0-.921.82,4.815,4.815,0,0,0-.009.563q0,10.587,0,21.174v.646a3.3,3.3,0,0,1-4.084-2.7c-.233-1.137-.423-2.283-.631-3.425-.245-1.339-.488-2.677-.738-4.046-.31,0-.571-.006-.831,0a1.071,1.071,0,0,0-1.152,1.163,5.048,5.048,0,0,0,.034.9c.478,2.92,1,5.834,1.437,8.76a5.808,5.808,0,0,0,1.485,3.257c.523.561.963,1.2,1.453,1.793A4.844,4.844,0,0,1,33.5,54.506c-.007.408,0,.817,0,1.241H44.635c0-.311.011-.574,0-.835a5.279,5.279,0,0,1,1.345-3.881c.543-.621,1.017-1.3,1.555-1.927a3.4,3.4,0,0,0,.833-2.374c-.029-2.515-.01-5.031-.01-7.546,0-1.558,0-3.116,0-4.674a.87.87,0,0,0-.687-.96c-.641-.16-1.138.275-1.141,1.016-.008,1.915,0,3.829,0,5.744v.6Zm1.837-9.136a2.9,2.9,0,0,1,3.8,2.981c-.1,3.245-.027,6.5-.027,9.743v.682A26.881,26.881,0,0,0,19.3,3.72h.689c3.267,0,6.534-.007,9.8,0a4.587,4.587,0,0,1,4.465,3.446c.1.375.153.763.232,1.172a4.985,4.985,0,0,1,3.691,1.9,2.049,2.049,0,0,1,.159-.246,4.485,4.485,0,0,1,4.624-1.483,4.556,4.556,0,0,1,3.47,3.544.982.982,0,0,0,.5.509,5.437,5.437,0,0,1,3.294,5.145,5.347,5.347,0,0,1-3.317,5.059.825.825,0,0,0-.535.624A4.614,4.614,0,0,1,39.5,26.326c-.117-.067-.241-.122-.372-.187v1.894a2.555,2.555,0,0,1,2.207.24,15.261,15.261,0,0,1,1.589,1.615c1.6-.388,2.48.048,3.549,1.889M5.622,11.124c.126.015.2.03.27.03q11.963,0,23.926-.011a.7.7,0,0,0,.5-.308,4.325,4.325,0,0,1,1.8-1.813c.479-.229.487-.549.431-.948a2.788,2.788,0,0,0-2.98-2.467Q19.091,5.6,8.62,5.606c-.187,0-.376,0-.563.017A2.7,2.7,0,0,0,5.632,8.038c-.049,1.01-.01,2.024-.01,3.087m40.724,9.8a3.617,3.617,0,0,0,1.989-3.754,3.735,3.735,0,0,0-2.806-3.1c-.9-.217-.9-.217-.895-1.009a2.771,2.771,0,1,0-5.542-.051q-.019,4.672,0,9.345a2.771,2.771,0,0,0,5.535.178,2.728,2.728,0,0,0-2.575-2.965c-.368-.026-.737-.036-1.105-.053V17.745c2.393-.371,3.938.547,5.4,3.182m-18.7,25.651H8.626l-.109.176c1.409,1.232,2.767,2.527,4.238,3.68,2.152,1.688,2.187,1.644,4.9,1.644H28.582a2.415,2.415,0,0,0,1.661-.445c-1.21-1.529-2.661-2.907-2.6-5.056m9.5-26a.917.917,0,0,0,.044-.185c0-2.534.025-5.069-.012-7.6a2.731,2.731,0,0,0-2.617-2.542,2.767,2.767,0,0,0-2.9,2.944c.007.451,0,.732-.59.828a3.645,3.645,0,0,0-1.09,6.88,4.717,4.717,0,0,1,3.291-3.083l.443,1.786a2.875,2.875,0,0,0-2.06,2.969,2.589,2.589,0,0,0,1.811,2.277c.058-1.129-.2-2.316.606-3.3a2.845,2.845,0,0,1,3.074-.97M3.707,19.262c-2.36,4.637-2.331,15.805,0,19.057ZM31.5,53.124a6.137,6.137,0,0,1-3.854.845c-2.589-.017-5.178-.006-7.766,0-.169,0-.338.018-.507.028a27.587,27.587,0,0,0,12.3,1.751L31.5,53.124" fill="#12263f"/>
            <path id="Trazado_214756" data-name="Trazado 214756" d="M66.056,134.1v-1.89H82.81c0,.535.013,1.073-.013,1.609,0,.1-.158.219-.269.266a1.075,1.075,0,0,1-.39.015H66.056Z" transform="translate(-58.599 -117.286)" fill="#12263f"/>
            <path id="Trazado_214757" data-name="Trazado 214757" d="M82.946,164.764c0,.558.02,1.081-.015,1.6-.008.118-.195.247-.327.323-.085.049-.22.012-.333.012H66.207v-1.934Z" transform="translate(-58.733 -146.165)" fill="#12263f"/>
            <path id="Trazado_214758" data-name="Trazado 214758" d="M79.275,199.155H66.216v-1.881c.2-.011.383-.03.565-.03,3.959,0,7.918.008,11.877-.013.5,0,.672.14.625.635-.039.406-.008.819-.008,1.289" transform="translate(-58.741 -174.966)" fill="#12263f"/>
            <path id="Trazado_214759" data-name="Trazado 214759" d="M66.056,277.153v-1.89H82.81c0,.535.013,1.073-.013,1.609,0,.1-.158.219-.269.266a1.075,1.075,0,0,1-.39.015H66.056Z" transform="translate(-58.599 -244.19)" fill="#12263f"/>
            <path id="Trazado_214760" data-name="Trazado 214760" d="M82.946,307.817c0,.558.02,1.081-.015,1.6-.008.118-.195.247-.327.323-.085.049-.22.012-.333.012H66.207v-1.934Z" transform="translate(-58.733 -273.069)" fill="#12263f"/>
            <path id="Trazado_214761" data-name="Trazado 214761" d="M79.275,342.207H66.216v-1.881c.2-.011.383-.03.565-.03,3.959,0,7.918.008,11.877-.013.5,0,.672.14.625.635-.039.406-.008.819-.008,1.289" transform="translate(-58.741 -301.871)" fill="#12263f"/>
            <path id="Trazado_214762" data-name="Trazado 214762" d="M199.284,197.332v1.885h-1.913c0-.542-.013-1.093.014-1.643,0-.085.186-.227.292-.232.517-.024,1.036-.011,1.607-.011" transform="translate(-175.088 -175.053)" fill="#12263f"/>
            <rect id="Rectángulo_52805" data-name="Rectángulo 52805" width="6.461" height="1.799" transform="translate(15.826 7.488)" fill="#12263f"/>
            <rect id="Rectángulo_52806" data-name="Rectángulo 52806" width="1.8" height="1.819" transform="translate(12.121 7.462)" fill="#12263f"/>
            <rect id="Rectángulo_52807" data-name="Rectángulo 52807" width="1.775" height="1.824" transform="translate(24.227 7.474)" fill="#12263f"/>
            <rect id="Rectángulo_52808" data-name="Rectángulo 52808" width="6.458" height="1.803" transform="translate(15.82 48.397)" fill="#12263f"/>
          </g>
        </g>
      </g>
      <g id="Grupo_155287" data-name="Grupo 155287" transform="translate(541.72 0)">
        <g id="Grupo_155284" data-name="Grupo 155284" transform="translate(0)">
          <circle id="Elipse_5990" data-name="Elipse 5990" cx="63.235" cy="63.235" r="63.235" transform="translate(0 89.427) rotate(-45)" fill="#f6f6f4"/>
          <circle id="Elipse_5991" data-name="Elipse 5991" cx="52.724" cy="52.724" r="52.724" transform="translate(14.865 89.427) rotate(-45)" fill="#e5e5e5"/>
        </g>
        <path id="Trazado_214844" data-name="Trazado 214844" d="M11.591-6.467A7.923,7.923,0,0,1,10.248-1.5,4.687,4.687,0,0,1,6.316.215a4.72,4.72,0,0,1-3.91-1.687A7.691,7.691,0,0,1,1.021-6.306V-9.185a7.819,7.819,0,0,1,1.359-4.974,4.722,4.722,0,0,1,3.916-1.7,4.726,4.726,0,0,1,3.91,1.681,7.668,7.668,0,0,1,1.386,4.829Zm-3.1-3.165a5.727,5.727,0,0,0-.532-2.833,1.8,1.8,0,0,0-1.66-.887,1.765,1.765,0,0,0-1.617.844,5.36,5.36,0,0,0-.553,2.64v3.806a6.012,6.012,0,0,0,.521,2.844,1.773,1.773,0,0,0,1.67.93A1.743,1.743,0,0,0,7.96-3.181a5.868,5.868,0,0,0,.526-2.731ZM22.87-5.887h1.772v2.5H22.87V0h-3.1V-3.384H13.353l-.14-1.955,6.521-10.3H22.87Zm-6.563,0h3.459v-5.521l-.2.354ZM26.6-1.525a1.563,1.563,0,0,1,.5-1.2,1.772,1.772,0,0,1,1.251-.462,1.787,1.787,0,0,1,1.262.462,1.563,1.563,0,0,1,.5,1.2,1.542,1.542,0,0,1-.494,1.187,1.794,1.794,0,0,1-1.268.457,1.78,1.78,0,0,1-1.257-.457A1.542,1.542,0,0,1,26.6-1.525Z" transform="translate(29.031 47.062)" fill="#00334e"/>
        <g id="Grupo_173665" data-name="Grupo 173665" transform="translate(59.95 59.425)">
          <g id="Grupo_173664" data-name="Grupo 173664" transform="translate(0 0.002)" clip-path="url(#clip-path-2)">
            <path id="Trazado_214763" data-name="Trazado 214763" d="M38.3,9.761a10.925,10.925,0,0,1,1.215,9.728H49.739a1.243,1.243,0,0,1,1.39,1.379q0,14.377,0,28.754a2.331,2.331,0,0,1-.1.756,1.157,1.157,0,0,1-1.166.766H25.071c-5.464,0-10.928-.008-16.393.01A1.319,1.319,0,0,1,7.294,49.78Q7.316,39.7,7.3,29.62q0-4.382,0-8.764a1.237,1.237,0,0,1,1.378-1.368H18.833c-.106-.392-.219-.758-.3-1.13A10.783,10.783,0,0,1,20,9.883c.189-.3.418-.57.613-.865a.319.319,0,0,0,.029-.266c-.907-1.837-1.826-3.668-2.735-5.5a1.314,1.314,0,0,0-1.29-.791c-2.752.008-5.5,0-8.257,0-1.111,0-2.222.027-3.331-.007a2.5,2.5,0,0,0-2.6,2.588c.02,2.511.005,5.022.006,7.533q0,11.721,0,23.443,0,7.509,0,15.017a2.439,2.439,0,0,0,1.985,2.494,6.219,6.219,0,0,0,1.059.046q15.4,0,30.805,0h3.983a1.223,1.223,0,1,1,.03,2.444c-1.36.009-2.72,0-4.08,0H5A4.861,4.861,0,0,1,.079,52,4.448,4.448,0,0,1,0,51.14Q0,28.023,0,4.906A4.81,4.81,0,0,1,3.328.275,5.358,5.358,0,0,1,4.936.019q5.891-.031,11.781,0A3.556,3.556,0,0,1,20.074,2.13Q21.293,4.564,22.51,7c.014.028.034.054.064.1.132-.094.259-.186.388-.275a10.979,10.979,0,0,1,12.928.341.9.9,0,0,0,.508.146q5.178.012,10.357.006,3.416,0,6.832,0a4.863,4.863,0,0,1,4.842,4.811c.007,2.213,0,4.426,0,6.639q0,16.188,0,32.376A4.819,4.819,0,0,1,54.1,55.969c-.846.082-1.7.041-2.556.051-.475.006-.95,0-1.424,0a1.227,1.227,0,1,1,.018-2.449c1.127,0,2.253.007,3.38,0a2.406,2.406,0,0,0,2.416-1.924,2.732,2.732,0,0,0,.063-.622Q56,45.145,56,39.266q0-8.969,0-17.938c0-3.018.005-6.036,0-9.053a2.44,2.44,0,0,0-2.539-2.513H38.3ZM9.756,48.683H48.671V21.941c-.09,0-.168-.011-.247-.011q-4.936,0-9.873-.005a.441.441,0,0,0-.408.22,10.911,10.911,0,0,1-11.575,4.335,10.79,10.79,0,0,1-6.332-4.325.418.418,0,0,0-.376-.231q-4.936.013-9.873.006H9.756ZM29.21,7.333A8.517,8.517,0,1,0,37.7,16.062,8.538,8.538,0,0,0,29.21,7.333" transform="translate(-0.001 -0.002)" fill="#12263f"/>
            <path id="Trazado_214764" data-name="Trazado 214764" d="M304.9,102.318a1.222,1.222,0,1,1-1.2-1.23,1.236,1.236,0,0,1,1.2,1.23" transform="translate(-287.848 -96.207)" fill="#12263f"/>
            <path id="Trazado_214765" data-name="Trazado 214765" d="M912.79,1110.713a1.227,1.227,0,0,1-1.2,1.223,1.225,1.225,0,1,1-.02-2.449,1.221,1.221,0,0,1,1.22,1.226" transform="translate(-866.389 -1055.919)" fill="#12263f"/>
            <path id="Trazado_214766" data-name="Trazado 214766" d="M204.215,102.345A1.23,1.23,0,0,1,203,103.562a1.223,1.223,0,1,1,1.214-1.216" transform="translate(-192.041 -96.235)" fill="#12263f"/>
            <path id="Trazado_214767" data-name="Trazado 214767" d="M103.3,102.31a1.215,1.215,0,1,1-1.228-1.211,1.208,1.208,0,0,1,1.228,1.211" transform="translate(-95.996 -96.218)" fill="#12263f"/>
            <path id="Trazado_214768" data-name="Trazado 214768" d="M1178.425,1290.055a.93.93,0,0,0-.212.15.727.727,0,0,0-.072.208l-.06-.005-.028-.275-.054-.015-.159.349-.13-.448.181-.108-.139-.118.3-.424.023.325.059.013.136-.344.156.437c-.19.041-.272.126,0,.257" transform="translate(-1120.849 -1227.108)" fill="#12263f"/>
            <path id="Trazado_214769" data-name="Trazado 214769" d="M1241.5,1291.174l.454-.281c-.447-.011-.616-.21-.5-.493a.3.3,0,0,1,.458-.123.533.533,0,0,1,.141.55.4.4,0,0,1-.315.376.952.952,0,0,1-.242-.029m.469-.608-.229-.206c-.049.061-.141.125-.136.182s.09.135.14.2l.225-.178" transform="translate(-1181.483 -1227.917)" fill="#12263f"/>
            <path id="Trazado_214770" data-name="Trazado 214770" d="M1273.947,1291.085l.315-.183a1.5,1.5,0,0,1-.4-.219.4.4,0,0,1-.02-.314.28.28,0,0,1,.445-.142.516.516,0,0,1,.153.545.408.408,0,0,1-.329.391.676.676,0,0,1-.179-.016l.013-.062m.151-.36.088-.005c.03-.077.093-.159.082-.23s-.1-.116-.155-.174c-.046.072-.122.142-.129.218-.006.06.073.127.114.192" transform="translate(-1212.319 -1227.874)" fill="#12263f"/>
            <path id="Trazado_214771" data-name="Trazado 214771" d="M1257.979,1291.167c.02-.2.035-.365.051-.525h.53c-.016.272-.434-.039-.393.308.235-.006.413.061.41.343a.294.294,0,0,1-.251.33c-.194.033-.322-.06-.4-.312a1.711,1.711,0,0,0,.2.1c.073.023.187.071.216.041a.262.262,0,0,0,.06-.229c-.022-.055-.131-.088-.207-.106-.047-.011-.1.024-.215.055" transform="translate(-1197.192 -1228.327)" fill="#12263f"/>
            <path id="Trazado_214772" data-name="Trazado 214772" d="M1193.5,1291.542c.18-.071.307.324.451.044.127-.246-.211-.151-.278-.289.09-.1.388-.044.271-.266-.128-.244-.248.055-.441.072.048-.1.065-.2.115-.223a.546.546,0,0,1,.335-.032.284.284,0,0,1,.153.231.841.841,0,0,0,.03.419c.045.159-.081.277-.239.3a.306.306,0,0,1-.4-.26" transform="translate(-1135.879 -1228.509)" fill="#12263f"/>
            <path id="Trazado_214773" data-name="Trazado 214773" d="M1209.243,1291.862l.388-.865-.5-.04.008-.088h.643a1.517,1.517,0,0,1-.54.993" transform="translate(-1150.752 -1228.543)" fill="#12263f"/>
            <path id="Trazado_214774" data-name="Trazado 214774" d="M1225.8,1290.806a6.636,6.636,0,0,1-.46,1l-.114-.052.365-.821-.5-.044.01-.087Z" transform="translate(-1165.945 -1228.483)" fill="#12263f"/>
            <path id="Trazado_214775" data-name="Trazado 214775" d="M1289.627,1291.072l-.5-.047.006-.08h.657c-.015.3-.338.932-.533.96.066-.152.124-.286.182-.421s.116-.259.184-.412" transform="translate(-1226.888 -1228.615)" fill="#12263f"/>
            <path id="Trazado_214776" data-name="Trazado 214776" d="M1245.571,1293.486l-.225.178c-.05-.067-.135-.132-.141-.2s.087-.121.136-.182l.229.206" transform="translate(-1185.084 -1230.838)" fill="#12263f"/>
            <path id="Trazado_214777" data-name="Trazado 214777" d="M1277.272,1293.674c-.041-.064-.12-.132-.114-.192.008-.076.083-.145.129-.218.055.057.145.109.155.174s-.051.153-.082.23l-.088.005" transform="translate(-1215.494 -1230.823)" fill="#12263f"/>
            <path id="Trazado_214778" data-name="Trazado 214778" d="M317.082,605.27h13.326a1.221,1.221,0,0,1,.415,2.381,1.688,1.688,0,0,1-.475.067q-13.29,0-26.58,0a1.22,1.22,0,0,1-1.227-.765,1.2,1.2,0,0,1,.254-1.316,1.231,1.231,0,0,1,.912-.37h13.375Z" transform="translate(-287.843 -576.046)" fill="#12263f"/>
            <path id="Trazado_214779" data-name="Trazado 214779" d="M317.1,807.134h13.324a1.205,1.205,0,0,1,1.135,1.743,1.148,1.148,0,0,1-.983.681c-.064.006-.129,0-.193,0h-26.6a1.217,1.217,0,1,1-.176-2.427c.112,0,.225,0,.338,0H317.1" transform="translate(-287.862 -768.163)" fill="#12263f"/>
            <path id="Trazado_214780" data-name="Trazado 214780" d="M612.273,706.212q3.029,0,6.057,0a1.223,1.223,0,0,1,1.207.951,1.2,1.2,0,0,1-.711,1.381,1.565,1.565,0,0,1-.586.105q-5.96.008-11.921,0a1.244,1.244,0,0,1-1.311-.85,1.217,1.217,0,0,1,1.183-1.589q3.041,0,6.081,0" transform="translate(-575.74 -672.114)" fill="#12263f"/>
            <path id="Trazado_214781" data-name="Trazado 214781" d="M306.732,907.913c1.021,0,2.042-.007,3.063,0a1.211,1.211,0,0,1,.577,2.26,1.3,1.3,0,0,1-.593.16c-2.042.011-4.084.01-6.126.005a1.211,1.211,0,0,1-1.2-1.2,1.2,1.2,0,0,1,1.168-1.226c1.037-.016,2.074,0,3.111,0Z" transform="translate(-287.849 -864.074)" fill="#12263f"/>
            <path id="Trazado_214782" data-name="Trazado 214782" d="M306.075,706.218q1.194,0,2.388,0a1.218,1.218,0,1,1,.038,2.435q-2.412.016-4.824,0a1.211,1.211,0,0,1-1.253-1.223,1.228,1.228,0,0,1,1.287-1.213h2.364" transform="translate(-287.822 -672.12)" fill="#12263f"/>
            <path id="Trazado_214783" data-name="Trazado 214783" d="M633.857,907.906c.8,0,1.608-.005,2.412,0a1.21,1.21,0,0,1,.579,2.273,1.3,1.3,0,0,1-.572.148c-1.632.011-3.264.009-4.9.005a1.214,1.214,0,0,1-.007-2.427c.828-.01,1.656,0,2.484,0Z" transform="translate(-599.741 -864.066)" fill="#12263f"/>
            <path id="Trazado_214784" data-name="Trazado 214784" d="M530.467,910.442a1.215,1.215,0,1,1,.019-2.43,1.214,1.214,0,0,1,1.209,1.21,1.226,1.226,0,0,1-1.228,1.22" transform="translate(-503.691 -864.171)" fill="#12263f"/>
            <path id="Trazado_214785" data-name="Trazado 214785" d="M505.325,706.224a1.22,1.22,0,1,1-1.209,1.22,1.225,1.225,0,0,1,1.209-1.22" transform="translate(-479.776 -672.126)" fill="#12263f"/>
            <path id="Trazado_214786" data-name="Trazado 214786" d="M510.14,206.808v.327c0,1.874,0,3.748,0,5.623a1.243,1.243,0,0,1-.441,1.048,1.171,1.171,0,0,1-1.289.169,1.141,1.141,0,0,1-.7-1.089c-.009-.877,0-1.753,0-2.63q0-1.557,0-3.113c0-.086,0-.172,0-.318-.082.094-.129.14-.169.193-.43.572-.847,1.154-1.292,1.714a1.21,1.21,0,0,1-1.98-.04,1.169,1.169,0,0,1,.007-1.377c.85-1.151,1.711-2.294,2.568-3.439.342-.457.688-.911,1.025-1.371a1.232,1.232,0,0,1,2.09-.028q1.785,2.368,3.56,4.745a1.221,1.221,0,1,1-1.95,1.465c-.413-.544-.821-1.091-1.232-1.637-.046-.061-.1-.119-.19-.239" transform="translate(-479.706 -192.16)" fill="#12263f"/>
          </g>
        </g>
      </g>
      <g id="Grupo_155291" data-name="Grupo 155291" transform="translate(741.677 14.865)">
        <g id="Grupo_155288" data-name="Grupo 155288" transform="translate(0 0)">
          <circle id="Elipse_5992" data-name="Elipse 5992" cx="63.235" cy="63.235" r="63.235" transform="matrix(0.163, -0.987, 0.987, 0.163, 1.891, 126.678)" fill="#f6f6f4"/>
          <circle id="Elipse_5993" data-name="Elipse 5993" cx="52.724" cy="52.724" r="52.724" transform="translate(0 74.562) rotate(-45)" fill="#e5e5e5"/>
        </g>
        <path id="Trazado_214845" data-name="Trazado 214845" d="M11.591-6.467A7.923,7.923,0,0,1,10.248-1.5,4.687,4.687,0,0,1,6.316.215a4.72,4.72,0,0,1-3.91-1.687A7.691,7.691,0,0,1,1.021-6.306V-9.185a7.819,7.819,0,0,1,1.359-4.974,4.722,4.722,0,0,1,3.916-1.7,4.726,4.726,0,0,1,3.91,1.681,7.668,7.668,0,0,1,1.386,4.829Zm-3.1-3.165a5.727,5.727,0,0,0-.532-2.833,1.8,1.8,0,0,0-1.66-.887,1.765,1.765,0,0,0-1.617.844,5.36,5.36,0,0,0-.553,2.64v3.806a6.012,6.012,0,0,0,.521,2.844,1.773,1.773,0,0,0,1.67.93A1.743,1.743,0,0,0,7.96-3.181a5.868,5.868,0,0,0,.526-2.731Zm5.661,1.941.9-7.949h8.766v2.589H17.6l-.387,3.362a4.922,4.922,0,0,1,2.353-.591,4.508,4.508,0,0,1,3.5,1.386,5.535,5.535,0,0,1,1.268,3.878A5.671,5.671,0,0,1,23.692-2.3,4.511,4.511,0,0,1,21.86-.446a5.718,5.718,0,0,1-2.814.661A6.072,6.072,0,0,1,16.414-.36,4.668,4.668,0,0,1,14.5-1.977a4.406,4.406,0,0,1-.747-2.374h3.072a2.3,2.3,0,0,0,.682,1.52,2.163,2.163,0,0,0,1.531.542,1.909,1.909,0,0,0,1.622-.757,3.508,3.508,0,0,0,.569-2.143,2.9,2.9,0,0,0-.655-2.041,2.4,2.4,0,0,0-1.858-.709,2.687,2.687,0,0,0-1.794.58l-.3.279ZM26.6-1.525a1.563,1.563,0,0,1,.5-1.2,1.772,1.772,0,0,1,1.251-.462,1.787,1.787,0,0,1,1.262.462,1.563,1.563,0,0,1,.5,1.2,1.542,1.542,0,0,1-.494,1.187,1.794,1.794,0,0,1-1.268.457,1.78,1.78,0,0,1-1.257-.457A1.542,1.542,0,0,1,26.6-1.525Z" transform="translate(14.261 32.197)" fill="#00334e"/>
        <g id="Grupo_173667" data-name="Grupo 173667" transform="translate(47.261 46.489)">
          <g id="Grupo_173666" data-name="Grupo 173666" clip-path="url(#clip-path-3)">
            <path id="Trazado_214787" data-name="Trazado 214787" d="M65.5,0a2.712,2.712,0,0,1,2.086,2.381c.081.978.016,1.968.016,3.022H64.909v.742q0,11.473,0,22.946c0,.713,0,.713-.708.714H63.087V5.445H21.607V29.8c-.566,0-1.088.01-1.608-.01-.078,0-.2-.136-.216-.226a2.521,2.521,0,0,1-.016-.526q0-11.447,0-22.893V5.424H17.1a30.207,30.207,0,0,1,.024-3.25A2.655,2.655,0,0,1,19.176,0Zm.272,3.576c.13-1.526-.1-1.774-1.549-1.774H20.352c-.176,0-.353-.007-.528,0a.886.886,0,0,0-.947.919c-.019.275,0,.552,0,.852Z" transform="translate(-15.261)" fill="#12263f"/>
            <path id="Trazado_214788" data-name="Trazado 214788" d="M389.082,308.718c-.051.145-.111.287-.153.434a4.435,4.435,0,0,1-4.027,3.271c-.086.006-.17.025-.289.043v4.5a3.105,3.105,0,0,1,3.074,1.093,3.384,3.384,0,0,1,.467,2.461H386.4c-.158-.533.207-1.238-.394-1.564a4.848,4.848,0,0,0-1.413-.269v1.835h-1.827v-1.69c-1.426-.26-1.656-.045-1.85,1.727H379.18a3.259,3.259,0,0,1,.742-2.83,3.363,3.363,0,0,1,2.825-.766V312.44h-.6c-1.638,0-3.277.015-4.915-.014a2.564,2.564,0,0,1-2.458-1.819,2.721,2.721,0,0,1,.823-2.967,2.578,2.578,0,0,1,1.7-.613q2.563,0,5.126,0c.979,0,1.241-.267,1.244-1.264,0-1.744-.014-3.488.018-5.232a2.563,2.563,0,0,1,1.921-2.434,2.734,2.734,0,0,1,3.025,1.078,9.479,9.479,0,0,1,.45.87Zm-8.024,1.909c1.127,0,2.255,0,3.382,0a2.669,2.669,0,0,0,2.836-2.8c.016-2.307.007-4.615,0-6.922,0-.736-.32-1.091-.931-1.077-.583.013-.864.357-.865,1.079,0,1.691,0,3.382,0,5.073a2.656,2.656,0,0,1-2.828,2.848c-1.708.008-3.417,0-5.125,0-.711,0-1.049.3-1.051.9s.33.9,1.042.9c1.18,0,2.36,0,3.54,0" transform="translate(-334.931 -266.413)" fill="#12263f"/>
            <path id="Trazado_214789" data-name="Trazado 214789" d="M114.568,304.329H98.384v10.827c.536,0,1.059,0,1.582,0a2.643,2.643,0,0,1,2.871,2.859c.01.827,0,1.653,0,2.516H88.447a31.532,31.532,0,0,1,.024-3.269,2.487,2.487,0,0,1,2.392-2.087c.647-.03,1.3-.005,1.985-.005V304.353H76.666c0-.775,0-1.49,0-2.206,0-.546-.01-1.093.015-1.639a2.585,2.585,0,0,1,2.37-2.476c.228-.023.457-.032.686-.032q15.888,0,31.776,0c1.617,0,2.7.719,2.974,2.057a9.322,9.322,0,0,1,.078,1.737c.011.826,0,1.652,0,2.535m-36.086-1.867h34.273c0-.476,0-.914,0-1.352,0-1.072-.212-1.28-1.3-1.28H79.783c-.159,0-.318-.005-.476,0a.787.787,0,0,0-.817.8c-.033.6-.008,1.193-.008,1.829m11.775,16.269H101c.009-.123.019-.21.021-.3.027-1.283-.152-1.466-1.437-1.466H91.757c-1.431,0-1.61.189-1.535,1.625a.89.89,0,0,0,.035.137m4.514-3.618h1.683V304.361H94.771Z" transform="translate(-68.541 -266.421)" fill="#12263f"/>
            <path id="Trazado_214790" data-name="Trazado 214790" d="M6.36,312.508v4.526a3.154,3.154,0,0,1,3.039,1.04,3.492,3.492,0,0,1,.516,2.513H8.289a4.7,4.7,0,0,0-.576-1.553c-.227-.263-.84-.192-1.357-.284V320.6H4.512v-1.9c-.592.156-1.222.144-1.525.453s-.25.929-.364,1.458c-.047,0-.148.019-.25.02-.473,0-.947,0-1.455,0a3.307,3.307,0,0,1,.752-2.827,3.323,3.323,0,0,1,2.79-.772v-4.512a4.467,4.467,0,0,1-3.193-1.36,4.28,4.28,0,0,1-1.26-3.044q-.015-3.675,0-7.35a2.63,2.63,0,0,1,2.661-2.7A2.608,2.608,0,0,1,5.4,300.681c.034,1.727.01,3.454.015,5.182,0,.959.273,1.231,1.223,1.232,1.674,0,3.349,0,5.023,0a2.7,2.7,0,1,1,.043,5.4c-1.568.022-3.137.006-4.706.006H6.36m1.678-1.813c1.215,0,2.431.01,3.646,0a.869.869,0,0,0,.9-1.169c-.147-.517-.564-.626-1.037-.626-1.709,0-3.417.006-5.126,0A2.648,2.648,0,0,1,3.6,306.086c-.005-1.709,0-3.417,0-5.126,0-.718-.288-1.059-.878-1.066s-.915.339-.917,1.037c-.007,2.343-.02,4.685,0,7.028A2.652,2.652,0,0,0,4.6,310.694c1.145.006,2.29,0,3.435,0" transform="translate(0 -266.482)" fill="#12263f"/>
            <path id="Trazado_214791" data-name="Trazado 214791" d="M94.08,85v7.158h7.126a8.049,8.049,0,0,1-3.9,7.952A8.144,8.144,0,1,1,94.08,85m-1.833,9.018V86.98c-2.422-.137-5.167,2.76-5.342,5.563a6.258,6.258,0,0,0,12.425,1.479Z" transform="translate(-76.016 -75.956)" fill="#12263f"/>
            <path id="Trazado_214792" data-name="Trazado 214792" d="M281.04,136v1.807H263.879c0-.522-.01-1.059.011-1.6,0-.072.148-.174.245-.2a1.661,1.661,0,0,1,.42-.012H281.04Z" transform="translate(-235.914 -121.584)" fill="#12263f"/>
            <rect id="Rectángulo_52811" data-name="Rectángulo 52811" width="17.112" height="1.759" transform="translate(27.996 9.961)" fill="#12263f"/>
            <rect id="Rectángulo_52812" data-name="Rectángulo 52812" width="17.118" height="1.738" transform="translate(27.999 18.973)" fill="#12263f"/>
            <rect id="Rectángulo_52813" data-name="Rectángulo 52813" width="17.121" height="1.736" transform="translate(27.992 23.493)" fill="#12263f"/>
            <path id="Trazado_214793" data-name="Trazado 214793" d="M187.618,82.864V76.6a5.442,5.442,0,0,1,6.234,4.561,9.712,9.712,0,0,1,.063,1.368.469.469,0,0,1-.324.325c-1.967.02-3.935.015-5.972.015m1.822-1.9h2.541a3.811,3.811,0,0,0-2.541-2.507Z" transform="translate(-167.737 -68.402)" fill="#12263f"/>
          </g>
        </g>
      </g>
      <g id="Grupo_155296" data-name="Grupo 155296" transform="translate(0 191.141)">
        <path id="Trazado_195676" data-name="Trazado 195676" d="M232.007-176.086v27.172H49.79C40.965-148.914,33.8-155,33.8-162.5a12.614,12.614,0,0,1,4.685-9.605,17.458,17.458,0,0,1,11.3-3.981Z" transform="translate(-63.583 176.086)" fill="url(#linear-gradient)"/>
        <path id="Trazado_214849" data-name="Trazado 214849" d="M8.606-9.514H5.178V0h-1.4V-9.514H.359v-1.15H8.606ZM12.539.146A3.463,3.463,0,0,1,9.917-.912,3.928,3.928,0,0,1,8.906-3.743v-.249A4.756,4.756,0,0,1,9.357-6.1a3.514,3.514,0,0,1,1.26-1.45,3.167,3.167,0,0,1,1.754-.524,2.968,2.968,0,0,1,2.4,1.018,4.408,4.408,0,0,1,.857,2.915v.564H10.261a2.817,2.817,0,0,0,.685,1.893,2.153,2.153,0,0,0,1.666.721,2.36,2.36,0,0,0,1.216-.293,3.055,3.055,0,0,0,.872-.776l.828.645A3.328,3.328,0,0,1,12.539.146Zm-.168-7.1a1.807,1.807,0,0,0-1.377.6,2.9,2.9,0,0,0-.688,1.674h3.97v-.1a2.581,2.581,0,0,0-.557-1.6A1.7,1.7,0,0,0,12.371-6.958Zm8.005,6A1.952,1.952,0,0,0,21.643-1.4a1.546,1.546,0,0,0,.6-1.1h1.282a2.457,2.457,0,0,1-.469,1.3A3.087,3.087,0,0,1,21.9-.22a3.329,3.329,0,0,1-1.527.366A3.265,3.265,0,0,1,17.8-.934a4.3,4.3,0,0,1-.956-2.955v-.227a4.771,4.771,0,0,1,.425-2.058,3.236,3.236,0,0,1,1.219-1.4,3.464,3.464,0,0,1,1.879-.5,3.178,3.178,0,0,1,2.216.8A2.853,2.853,0,0,1,23.525-5.2H22.244a1.867,1.867,0,0,0-.582-1.263,1.811,1.811,0,0,0-1.293-.494,1.9,1.9,0,0,0-1.6.743,3.491,3.491,0,0,0-.568,2.15v.256A3.422,3.422,0,0,0,18.765-1.7,1.906,1.906,0,0,0,20.376-.959Zm5.955-6.965.044,1a2.888,2.888,0,0,1,2.373-1.143q2.512,0,2.534,2.834V0H29.927V-5.244a1.824,1.824,0,0,0-.392-1.267,1.57,1.57,0,0,0-1.2-.41,1.956,1.956,0,0,0-1.157.352,2.387,2.387,0,0,0-.776.923V0H25.049V-7.925Zm6.636,3.889a4.681,4.681,0,0,1,.458-2.095A3.415,3.415,0,0,1,34.7-7.566a3.469,3.469,0,0,1,1.864-.505,3.342,3.342,0,0,1,2.618,1.121,4.311,4.311,0,0,1,1,2.981v.1A4.722,4.722,0,0,1,39.738-1.8,3.365,3.365,0,0,1,38.47-.366a3.509,3.509,0,0,1-1.893.513A3.334,3.334,0,0,1,33.966-.974a4.29,4.29,0,0,1-1-2.966Zm1.362.161a3.39,3.39,0,0,0,.612,2.117,1.957,1.957,0,0,0,1.637.8,1.945,1.945,0,0,0,1.641-.809,3.707,3.707,0,0,0,.608-2.267,3.384,3.384,0,0,0-.619-2.113,1.968,1.968,0,0,0-1.644-.809,1.946,1.946,0,0,0-1.619.8A3.68,3.68,0,0,0,34.329-3.875ZM43.352,0H42V-11.25h1.355Zm1.809-4.036a4.681,4.681,0,0,1,.458-2.095,3.415,3.415,0,0,1,1.274-1.436,3.469,3.469,0,0,1,1.864-.505,3.342,3.342,0,0,1,2.618,1.121,4.311,4.311,0,0,1,1,2.981v.1A4.722,4.722,0,0,1,51.932-1.8,3.365,3.365,0,0,1,50.665-.366a3.509,3.509,0,0,1-1.893.513A3.334,3.334,0,0,1,46.161-.974a4.29,4.29,0,0,1-1-2.966Zm1.362.161a3.39,3.39,0,0,0,.612,2.117,1.957,1.957,0,0,0,1.637.8,1.945,1.945,0,0,0,1.641-.809,3.707,3.707,0,0,0,.608-2.267A3.384,3.384,0,0,0,50.4-6.149a1.968,1.968,0,0,0-1.644-.809,1.946,1.946,0,0,0-1.619.8A3.68,3.68,0,0,0,46.523-3.875Zm7.229-.154a4.658,4.658,0,0,1,.857-2.948A2.741,2.741,0,0,1,56.88-8.071a2.726,2.726,0,0,1,2.263,1.025l.066-.879h1.238V-.19a3.224,3.224,0,0,1-.912,2.424,3.365,3.365,0,0,1-2.45.886,4.076,4.076,0,0,1-1.677-.366,2.887,2.887,0,0,1-1.252-1l.7-.813A2.65,2.65,0,0,0,56.99,2.014a2.076,2.076,0,0,0,1.542-.557A2.128,2.128,0,0,0,59.084-.11V-.791a2.785,2.785,0,0,1-2.219.938A2.707,2.707,0,0,1,54.613-.974,4.9,4.9,0,0,1,53.752-4.028Zm1.362.154a3.553,3.553,0,0,0,.549,2.106A1.785,1.785,0,0,0,57.2-1a1.985,1.985,0,0,0,1.882-1.165V-5.786a2.008,2.008,0,0,0-1.868-1.135,1.8,1.8,0,0,0-1.545.769A3.87,3.87,0,0,0,55.115-3.875ZM63.962,0H62.6V-7.925h1.362Zm.015-11.228h1.641L63.655-9.075l-1.091,0ZM71.089,0a2.846,2.846,0,0,1-.19-.835,3.023,3.023,0,0,1-2.256.981A2.8,2.8,0,0,1,66.72-.516,2.145,2.145,0,0,1,65.969-2.2,2.24,2.24,0,0,1,66.91-4.12,4.437,4.437,0,0,1,69.558-4.8h1.318v-.623a1.522,1.522,0,0,0-.425-1.132A1.707,1.707,0,0,0,69.2-6.98a1.976,1.976,0,0,0-1.216.366,1.079,1.079,0,0,0-.491.886H66.13a1.87,1.87,0,0,1,.421-1.146,2.874,2.874,0,0,1,1.143-.875,3.844,3.844,0,0,1,1.586-.322,3.133,3.133,0,0,1,2.146.685A2.47,2.47,0,0,1,72.231-5.5v3.647A4.459,4.459,0,0,0,72.51-.117V0ZM68.84-1.033a2.381,2.381,0,0,0,1.208-.33,1.994,1.994,0,0,0,.828-.857V-3.845H69.814q-2.49,0-2.49,1.458a1.234,1.234,0,0,0,.425,1A1.633,1.633,0,0,0,68.84-1.033ZM78.97-2.1a1,1,0,0,0-.414-.853,3.983,3.983,0,0,0-1.443-.524,6.822,6.822,0,0,1-1.633-.527,2.324,2.324,0,0,1-.894-.732A1.752,1.752,0,0,1,74.3-5.75,2.056,2.056,0,0,1,75.121-7.4a3.218,3.218,0,0,1,2.106-.674,3.311,3.311,0,0,1,2.186.7,2.21,2.21,0,0,1,.839,1.78H78.889a1.223,1.223,0,0,0-.472-.959,1.77,1.77,0,0,0-1.19-.4,1.852,1.852,0,0,0-1.157.322,1.014,1.014,0,0,0-.417.842.822.822,0,0,0,.388.74,4.776,4.776,0,0,0,1.4.476,7.308,7.308,0,0,1,1.644.542,2.4,2.4,0,0,1,.934.758,1.864,1.864,0,0,1,.3,1.08,2.028,2.028,0,0,1-.85,1.7,3.564,3.564,0,0,1-2.2.641A3.991,3.991,0,0,1,75.586-.19a2.74,2.74,0,0,1-1.146-.941,2.268,2.268,0,0,1-.414-1.307h1.355a1.4,1.4,0,0,0,.546,1.08,2.117,2.117,0,0,0,1.344.4A2.185,2.185,0,0,0,78.5-1.271.956.956,0,0,0,78.97-2.1ZM90.7-.784a2.878,2.878,0,0,1-2.322.93,2.464,2.464,0,0,1-1.93-.736,3.186,3.186,0,0,1-.67-2.179V-7.925h1.355v5.12q0,1.8,1.465,1.8a2.028,2.028,0,0,0,2.065-1.157V-7.925h1.355V0H90.725Zm5.215-9.06v1.919H97.39v1.047H95.911v4.921a1.1,1.1,0,0,0,.2.715A.832.832,0,0,0,96.782-1a3.281,3.281,0,0,0,.645-.088V0a3.951,3.951,0,0,1-1.04.146A1.687,1.687,0,0,1,95.017-.4a2.36,2.36,0,0,1-.461-1.56V-6.877H93.113V-7.925h1.443V-9.844ZM100.444,0H99.089V-7.925h1.355ZM98.979-10.027a.809.809,0,0,1,.2-.557.756.756,0,0,1,.6-.227.768.768,0,0,1,.6.227.8.8,0,0,1,.205.557.774.774,0,0,1-.205.549.782.782,0,0,1-.6.22.77.77,0,0,1-.6-.22A.782.782,0,0,1,98.979-10.027ZM104.084,0h-1.355V-11.25h1.355Zm3.64,0H106.37V-7.925h1.355ZM106.26-10.027a.809.809,0,0,1,.2-.557.756.756,0,0,1,.6-.227.768.768,0,0,1,.6.227.8.8,0,0,1,.205.557.774.774,0,0,1-.205.549.782.782,0,0,1-.6.22.77.77,0,0,1-.6-.22A.782.782,0,0,1,106.26-10.027Zm4.907,8.921H115.8V0h-6.292V-1L113.884-6.8h-4.307V-7.925h6.006v.959ZM122.219,0a2.846,2.846,0,0,1-.19-.835,3.023,3.023,0,0,1-2.256.981,2.8,2.8,0,0,1-1.923-.663A2.145,2.145,0,0,1,117.1-2.2a2.24,2.24,0,0,1,.941-1.923,4.437,4.437,0,0,1,2.648-.685h1.318v-.623a1.522,1.522,0,0,0-.425-1.132,1.707,1.707,0,0,0-1.252-.421,1.976,1.976,0,0,0-1.216.366,1.079,1.079,0,0,0-.491.886h-1.362a1.87,1.87,0,0,1,.421-1.146,2.874,2.874,0,0,1,1.143-.875,3.844,3.844,0,0,1,1.586-.322,3.133,3.133,0,0,1,2.146.685,2.47,2.47,0,0,1,.806,1.886v3.647a4.459,4.459,0,0,0,.278,1.736V0Zm-2.249-1.033a2.381,2.381,0,0,0,1.208-.33,1.994,1.994,0,0,0,.828-.857V-3.845h-1.062q-2.49,0-2.49,1.458a1.234,1.234,0,0,0,.425,1A1.633,1.633,0,0,0,119.971-1.033Zm5.186-3a4.642,4.642,0,0,1,.864-2.933,2.733,2.733,0,0,1,2.263-1.11,2.748,2.748,0,0,1,2.2.952V-11.25h1.355V0H130.6l-.066-.85a2.759,2.759,0,0,1-2.263,1,2.707,2.707,0,0,1-2.245-1.128,4.7,4.7,0,0,1-.868-2.944Zm1.355.154a3.515,3.515,0,0,0,.557,2.109A1.8,1.8,0,0,0,128.606-1a1.977,1.977,0,0,0,1.882-1.157V-5.8a1.992,1.992,0,0,0-1.868-1.121,1.808,1.808,0,0,0-1.553.769A3.87,3.87,0,0,0,126.511-3.875ZM138.838,0a2.846,2.846,0,0,1-.19-.835,3.023,3.023,0,0,1-2.256.981,2.8,2.8,0,0,1-1.923-.663,2.145,2.145,0,0,1-.751-1.681,2.24,2.24,0,0,1,.941-1.923,4.437,4.437,0,0,1,2.648-.685h1.318v-.623a1.522,1.522,0,0,0-.425-1.132,1.707,1.707,0,0,0-1.252-.421,1.976,1.976,0,0,0-1.216.366,1.079,1.079,0,0,0-.491.886h-1.362a1.87,1.87,0,0,1,.421-1.146,2.874,2.874,0,0,1,1.143-.875,3.844,3.844,0,0,1,1.586-.322,3.133,3.133,0,0,1,2.146.685A2.47,2.47,0,0,1,139.98-5.5v3.647a4.459,4.459,0,0,0,.278,1.736V0Zm-2.249-1.033a2.381,2.381,0,0,0,1.208-.33,1.994,1.994,0,0,0,.828-.857V-3.845h-1.062q-2.49,0-2.49,1.458a1.234,1.234,0,0,0,.425,1A1.633,1.633,0,0,0,136.589-1.033ZM146.719-2.1a1,1,0,0,0-.414-.853,3.983,3.983,0,0,0-1.443-.524,6.822,6.822,0,0,1-1.633-.527,2.324,2.324,0,0,1-.894-.732,1.752,1.752,0,0,1-.289-1.011A2.056,2.056,0,0,1,142.87-7.4a3.218,3.218,0,0,1,2.106-.674,3.311,3.311,0,0,1,2.186.7A2.21,2.21,0,0,1,148-5.6h-1.362a1.223,1.223,0,0,0-.472-.959,1.77,1.77,0,0,0-1.19-.4,1.852,1.852,0,0,0-1.157.322,1.014,1.014,0,0,0-.417.842.822.822,0,0,0,.388.74,4.776,4.776,0,0,0,1.4.476,7.308,7.308,0,0,1,1.644.542,2.4,2.4,0,0,1,.934.758,1.864,1.864,0,0,1,.3,1.08,2.028,2.028,0,0,1-.85,1.7,3.564,3.564,0,0,1-2.2.641,3.991,3.991,0,0,1-1.685-.337,2.74,2.74,0,0,1-1.146-.941,2.268,2.268,0,0,1-.414-1.307h1.355a1.4,1.4,0,0,0,.546,1.08,2.117,2.117,0,0,0,1.344.4,2.185,2.185,0,0,0,1.234-.311A.956.956,0,0,0,146.719-2.1Z" transform="translate(-4.401 17.91)" fill="#fff"/>
      </g>
      <g id="Grupo_155297" data-name="Grupo 155297" transform="translate(168.425 191.141)">
        <rect id="Rectángulo_46420" data-name="Rectángulo 46420" width="185.081" height="27.172" fill="url(#linear-gradient-2)"/>
        <path id="Trazado_214850" data-name="Trazado 214850" d="M7.119-4.709H2.644V0H1.238V-10.664H7.844v1.15h-5.2v3.655H7.119ZM14.048-.784a2.878,2.878,0,0,1-2.322.93A2.464,2.464,0,0,1,9.8-.59a3.186,3.186,0,0,1-.67-2.179V-7.925h1.355v5.12q0,1.8,1.465,1.8a2.028,2.028,0,0,0,2.065-1.157V-7.925h1.355V0H14.077Zm6.665.93A3.463,3.463,0,0,1,18.091-.912,3.928,3.928,0,0,1,17.08-3.743v-.249a4.756,4.756,0,0,1,.45-2.106,3.514,3.514,0,0,1,1.26-1.45,3.167,3.167,0,0,1,1.754-.524,2.968,2.968,0,0,1,2.4,1.018A4.408,4.408,0,0,1,23.8-4.138v.564H18.435a2.817,2.817,0,0,0,.685,1.893,2.153,2.153,0,0,0,1.666.721A2.36,2.36,0,0,0,22-1.252a3.055,3.055,0,0,0,.872-.776l.828.645A3.328,3.328,0,0,1,20.713.146Zm-.168-7.1a1.807,1.807,0,0,0-1.377.6,2.9,2.9,0,0,0-.688,1.674h3.97v-.1a2.581,2.581,0,0,0-.557-1.6A1.7,1.7,0,0,0,20.544-6.958Zm6.108-.967.044,1A2.888,2.888,0,0,1,29.07-8.071q2.512,0,2.534,2.834V0H30.249V-5.244a1.824,1.824,0,0,0-.392-1.267,1.57,1.57,0,0,0-1.2-.41A1.956,1.956,0,0,0,27.5-6.57a2.387,2.387,0,0,0-.776.923V0H25.371V-7.925Zm8.833-1.919v1.919h1.479v1.047H35.486v4.921a1.1,1.1,0,0,0,.2.715A.832.832,0,0,0,36.357-1,3.281,3.281,0,0,0,37-1.091V0a3.951,3.951,0,0,1-1.04.146A1.687,1.687,0,0,1,34.592-.4a2.36,2.36,0,0,1-.461-1.56V-6.877H32.688V-7.925h1.443V-9.844Zm6.35,9.99A3.463,3.463,0,0,1,39.214-.912,3.928,3.928,0,0,1,38.2-3.743v-.249a4.756,4.756,0,0,1,.45-2.106,3.514,3.514,0,0,1,1.26-1.45,3.167,3.167,0,0,1,1.754-.524,2.968,2.968,0,0,1,2.4,1.018,4.408,4.408,0,0,1,.857,2.915v.564H39.558a2.817,2.817,0,0,0,.685,1.893,2.153,2.153,0,0,0,1.666.721,2.36,2.36,0,0,0,1.216-.293A3.055,3.055,0,0,0,44-2.029l.828.645A3.328,3.328,0,0,1,41.836.146Zm-.168-7.1a1.807,1.807,0,0,0-1.377.6A2.9,2.9,0,0,0,39.6-4.687h3.97v-.1a2.581,2.581,0,0,0-.557-1.6A1.7,1.7,0,0,0,41.667-6.958Zm8.21,2.93a4.642,4.642,0,0,1,.864-2.933,2.733,2.733,0,0,1,2.263-1.11,2.748,2.748,0,0,1,2.2.952V-11.25h1.355V0H55.32l-.066-.85a2.759,2.759,0,0,1-2.263,1A2.707,2.707,0,0,1,50.746-.981a4.7,4.7,0,0,1-.868-2.944Zm1.355.154a3.515,3.515,0,0,0,.557,2.109A1.8,1.8,0,0,0,53.328-1,1.977,1.977,0,0,0,55.21-2.161V-5.8a1.992,1.992,0,0,0-1.868-1.121,1.808,1.808,0,0,0-1.553.769A3.87,3.87,0,0,0,51.233-3.875ZM61.956.146A3.463,3.463,0,0,1,59.333-.912a3.928,3.928,0,0,1-1.011-2.831v-.249a4.756,4.756,0,0,1,.45-2.106,3.514,3.514,0,0,1,1.26-1.45,3.167,3.167,0,0,1,1.754-.524,2.968,2.968,0,0,1,2.4,1.018,4.408,4.408,0,0,1,.857,2.915v.564H59.678a2.817,2.817,0,0,0,.685,1.893,2.153,2.153,0,0,0,1.666.721,2.36,2.36,0,0,0,1.216-.293,3.055,3.055,0,0,0,.872-.776l.828.645A3.328,3.328,0,0,1,61.956.146Zm-.168-7.1a1.807,1.807,0,0,0-1.377.6,2.9,2.9,0,0,0-.688,1.674h3.97v-.1a2.581,2.581,0,0,0-.557-1.6A1.7,1.7,0,0,0,61.787-6.958ZM70-4.028a4.642,4.642,0,0,1,.864-2.933,2.733,2.733,0,0,1,2.263-1.11,2.748,2.748,0,0,1,2.2.952V-11.25h1.355V0H75.439l-.066-.85a2.759,2.759,0,0,1-2.263,1A2.707,2.707,0,0,1,70.865-.981,4.7,4.7,0,0,1,70-3.926Zm1.355.154a3.515,3.515,0,0,0,.557,2.109A1.8,1.8,0,0,0,73.447-1,1.977,1.977,0,0,0,75.33-2.161V-5.8a1.992,1.992,0,0,0-1.868-1.121,1.808,1.808,0,0,0-1.553.769A3.87,3.87,0,0,0,71.353-3.875ZM83.679,0a2.846,2.846,0,0,1-.19-.835,3.023,3.023,0,0,1-2.256.981A2.8,2.8,0,0,1,79.31-.516,2.145,2.145,0,0,1,78.56-2.2,2.24,2.24,0,0,1,79.5-4.12,4.437,4.437,0,0,1,82.148-4.8h1.318v-.623a1.522,1.522,0,0,0-.425-1.132A1.707,1.707,0,0,0,81.79-6.98a1.976,1.976,0,0,0-1.216.366,1.079,1.079,0,0,0-.491.886H78.721a1.87,1.87,0,0,1,.421-1.146,2.874,2.874,0,0,1,1.143-.875,3.844,3.844,0,0,1,1.586-.322,3.133,3.133,0,0,1,2.146.685A2.47,2.47,0,0,1,84.822-5.5v3.647A4.459,4.459,0,0,0,85.1-.117V0ZM81.431-1.033a2.381,2.381,0,0,0,1.208-.33,1.994,1.994,0,0,0,.828-.857V-3.845H82.4q-2.49,0-2.49,1.458a1.234,1.234,0,0,0,.425,1A1.633,1.633,0,0,0,81.431-1.033Zm7.354-8.811v1.919h1.479v1.047H88.784v4.921a1.1,1.1,0,0,0,.2.715A.832.832,0,0,0,89.656-1a3.281,3.281,0,0,0,.645-.088V0a3.951,3.951,0,0,1-1.04.146A1.687,1.687,0,0,1,87.891-.4a2.36,2.36,0,0,1-.461-1.56V-6.877H85.986V-7.925h1.443V-9.844ZM91.34-4.036A4.681,4.681,0,0,1,91.8-6.13a3.415,3.415,0,0,1,1.274-1.436,3.469,3.469,0,0,1,1.864-.505,3.342,3.342,0,0,1,2.618,1.121,4.311,4.311,0,0,1,1,2.981v.1A4.722,4.722,0,0,1,98.112-1.8,3.365,3.365,0,0,1,96.844-.366a3.509,3.509,0,0,1-1.893.513A3.334,3.334,0,0,1,92.34-.974a4.29,4.29,0,0,1-1-2.966Zm1.362.161a3.39,3.39,0,0,0,.612,2.117,1.957,1.957,0,0,0,1.637.8,1.945,1.945,0,0,0,1.641-.809A3.707,3.707,0,0,0,97.2-4.036a3.384,3.384,0,0,0-.619-2.113,1.968,1.968,0,0,0-1.644-.809,1.946,1.946,0,0,0-1.619.8A3.68,3.68,0,0,0,92.7-3.875ZM104.868-2.1a1,1,0,0,0-.414-.853,3.983,3.983,0,0,0-1.443-.524,6.822,6.822,0,0,1-1.633-.527,2.324,2.324,0,0,1-.894-.732A1.752,1.752,0,0,1,100.2-5.75a2.056,2.056,0,0,1,.824-1.648,3.218,3.218,0,0,1,2.106-.674,3.311,3.311,0,0,1,2.186.7,2.21,2.21,0,0,1,.839,1.78h-1.362a1.223,1.223,0,0,0-.472-.959,1.77,1.77,0,0,0-1.19-.4,1.852,1.852,0,0,0-1.157.322,1.014,1.014,0,0,0-.417.842.822.822,0,0,0,.388.74,4.776,4.776,0,0,0,1.4.476,7.308,7.308,0,0,1,1.644.542,2.4,2.4,0,0,1,.934.758,1.864,1.864,0,0,1,.3,1.08,2.028,2.028,0,0,1-.85,1.7,3.564,3.564,0,0,1-2.2.641,3.991,3.991,0,0,1-1.685-.337,2.74,2.74,0,0,1-1.146-.941,2.268,2.268,0,0,1-.414-1.307h1.355a1.4,1.4,0,0,0,.546,1.08,2.117,2.117,0,0,0,1.344.4,2.185,2.185,0,0,0,1.234-.311A.956.956,0,0,0,104.868-2.1Z" transform="translate(39.54 18.586)" fill="#12263f"/>
      </g>
      <g id="Grupo_155298" data-name="Grupo 155298" transform="translate(353.506 191.141)">
        <rect id="Rectángulo_46422" data-name="Rectángulo 46422" width="185.095" height="27.172" fill="url(#linear-gradient)"/>
      </g>
      <g id="Grupo_155299" data-name="Grupo 155299" transform="translate(538.6 191.141)">
        <rect id="Rectángulo_46424" data-name="Rectángulo 46424" width="185.095" height="27.172" fill="url(#linear-gradient-2)"/>
        <path id="Trazado_214851" data-name="Trazado 214851" d="M4.768-1.868l3.047-8.8H9.353L5.4,0H4.153L.205-10.664H1.736Zm5.1-2.168a4.681,4.681,0,0,1,.458-2.095,3.415,3.415,0,0,1,1.274-1.436,3.469,3.469,0,0,1,1.864-.505,3.342,3.342,0,0,1,2.618,1.121,4.311,4.311,0,0,1,1,2.981v.1A4.722,4.722,0,0,1,16.644-1.8,3.365,3.365,0,0,1,15.377-.366a3.509,3.509,0,0,1-1.893.513A3.334,3.334,0,0,1,10.873-.974a4.29,4.29,0,0,1-1-2.966Zm1.362.161a3.39,3.39,0,0,0,.612,2.117,1.957,1.957,0,0,0,1.637.8,1.945,1.945,0,0,0,1.641-.809,3.707,3.707,0,0,0,.608-2.267,3.384,3.384,0,0,0-.619-2.113,1.968,1.968,0,0,0-1.644-.809,1.946,1.946,0,0,0-1.619.8A3.68,3.68,0,0,0,11.235-3.875ZM20.259,0H18.9V-11.25h1.355Zm7.061-.784A2.878,2.878,0,0,1,25,.146a2.464,2.464,0,0,1-1.93-.736,3.186,3.186,0,0,1-.67-2.179V-7.925h1.355v5.12q0,1.8,1.465,1.8a2.028,2.028,0,0,0,2.065-1.157V-7.925h1.355V0H27.349ZM31.97-7.925l.037.879a2.927,2.927,0,0,1,2.351-1.025A2.266,2.266,0,0,1,36.621-6.8,3,3,0,0,1,37.65-7.72a3.039,3.039,0,0,1,1.5-.352q2.607,0,2.651,2.761V0H40.444V-5.229A1.82,1.82,0,0,0,40.056-6.5a1.71,1.71,0,0,0-1.3-.421,1.8,1.8,0,0,0-1.252.45,1.827,1.827,0,0,0-.579,1.212V0H35.559V-5.193a1.512,1.512,0,0,0-1.692-1.729,1.813,1.813,0,0,0-1.824,1.135V0H30.688V-7.925ZM47.131.146A3.463,3.463,0,0,1,44.509-.912,3.928,3.928,0,0,1,43.5-3.743v-.249a4.756,4.756,0,0,1,.45-2.106,3.514,3.514,0,0,1,1.26-1.45,3.167,3.167,0,0,1,1.754-.524,2.968,2.968,0,0,1,2.4,1.018,4.408,4.408,0,0,1,.857,2.915v.564H44.854a2.817,2.817,0,0,0,.685,1.893A2.153,2.153,0,0,0,47.2-.959a2.36,2.36,0,0,0,1.216-.293,3.055,3.055,0,0,0,.872-.776l.828.645A3.328,3.328,0,0,1,47.131.146Zm-.168-7.1a1.807,1.807,0,0,0-1.377.6A2.9,2.9,0,0,0,44.9-4.687h3.97v-.1a2.581,2.581,0,0,0-.557-1.6A1.7,1.7,0,0,0,46.963-6.958Zm6.108-.967.044,1a2.888,2.888,0,0,1,2.373-1.143q2.512,0,2.534,2.834V0H56.667V-5.244a1.824,1.824,0,0,0-.392-1.267,1.57,1.57,0,0,0-1.2-.41,1.956,1.956,0,0,0-1.157.352,2.387,2.387,0,0,0-.776.923V0H51.79V-7.925Zm10.378,3.9a4.642,4.642,0,0,1,.864-2.933,2.733,2.733,0,0,1,2.263-1.11,2.748,2.748,0,0,1,2.2.952V-11.25h1.355V0H68.892l-.066-.85a2.759,2.759,0,0,1-2.263,1A2.707,2.707,0,0,1,64.318-.981a4.7,4.7,0,0,1-.868-2.944Zm1.355.154a3.515,3.515,0,0,0,.557,2.109A1.8,1.8,0,0,0,66.9-1a1.977,1.977,0,0,0,1.882-1.157V-5.8a1.992,1.992,0,0,0-1.868-1.121,1.808,1.808,0,0,0-1.553.769A3.87,3.87,0,0,0,64.8-3.875ZM75.527.146A3.463,3.463,0,0,1,72.905-.912a3.928,3.928,0,0,1-1.011-2.831v-.249a4.756,4.756,0,0,1,.45-2.106,3.514,3.514,0,0,1,1.26-1.45,3.167,3.167,0,0,1,1.754-.524,2.968,2.968,0,0,1,2.4,1.018,4.408,4.408,0,0,1,.857,2.915v.564H73.25a2.817,2.817,0,0,0,.685,1.893A2.153,2.153,0,0,0,75.6-.959a2.36,2.36,0,0,0,1.216-.293,3.055,3.055,0,0,0,.872-.776l.828.645A3.328,3.328,0,0,1,75.527.146Zm-.168-7.1a1.807,1.807,0,0,0-1.377.6,2.9,2.9,0,0,0-.688,1.674h3.97v-.1a2.581,2.581,0,0,0-.557-1.6A1.7,1.7,0,0,0,75.359-6.958ZM85.371,0H84.016V-7.925h1.355ZM83.906-10.027a.809.809,0,0,1,.2-.557.756.756,0,0,1,.6-.227.768.768,0,0,1,.6.227.8.8,0,0,1,.205.557.774.774,0,0,1-.205.549.782.782,0,0,1-.6.22.77.77,0,0,1-.6-.22A.782.782,0,0,1,83.906-10.027Zm4.915,2.1.044,1a2.888,2.888,0,0,1,2.373-1.143q2.512,0,2.534,2.834V0H92.417V-5.244a1.824,1.824,0,0,0-.392-1.267,1.57,1.57,0,0,0-1.2-.41,1.956,1.956,0,0,0-1.157.352,2.387,2.387,0,0,0-.776.923V0H87.539V-7.925ZM96.482,0V-6.877H95.229V-7.925h1.252v-.813a2.7,2.7,0,0,1,.681-1.97,2.573,2.573,0,0,1,1.926-.7,3.578,3.578,0,0,1,.93.124l-.073,1.092a3.892,3.892,0,0,0-.732-.066,1.322,1.322,0,0,0-1.018.386,1.564,1.564,0,0,0-.359,1.106v.838h1.692v1.047H97.837V0Zm4.182-4.036a4.681,4.681,0,0,1,.458-2.095A3.415,3.415,0,0,1,102.4-7.566a3.469,3.469,0,0,1,1.864-.505,3.342,3.342,0,0,1,2.618,1.121,4.311,4.311,0,0,1,1,2.981v.1a4.722,4.722,0,0,1-.443,2.076,3.365,3.365,0,0,1-1.267,1.432,3.509,3.509,0,0,1-1.893.513,3.334,3.334,0,0,1-2.611-1.121,4.29,4.29,0,0,1-1-2.966Zm1.362.161a3.39,3.39,0,0,0,.612,2.117,1.957,1.957,0,0,0,1.637.8,1.945,1.945,0,0,0,1.641-.809,3.707,3.707,0,0,0,.608-2.267,3.384,3.384,0,0,0-.619-2.113,1.968,1.968,0,0,0-1.644-.809,1.946,1.946,0,0,0-1.619.8A3.68,3.68,0,0,0,102.026-3.875Zm11.382-2.834a4.061,4.061,0,0,0-.667-.051,1.786,1.786,0,0,0-1.809,1.135V0h-1.355V-7.925H110.9l.022.916a2.11,2.11,0,0,1,1.89-1.062,1.384,1.384,0,0,1,.6.1Zm2.52-1.216.037.879a2.927,2.927,0,0,1,2.351-1.025A2.266,2.266,0,0,1,120.579-6.8a3,3,0,0,1,1.029-.923,3.039,3.039,0,0,1,1.5-.352q2.607,0,2.651,2.761V0H124.4V-5.229a1.82,1.82,0,0,0-.388-1.271,1.71,1.71,0,0,0-1.3-.421,1.8,1.8,0,0,0-1.252.45,1.827,1.827,0,0,0-.579,1.212V0h-1.362V-5.193a1.512,1.512,0,0,0-1.692-1.729A1.813,1.813,0,0,0,116-5.786V0h-1.355V-7.925ZM132.693,0a2.846,2.846,0,0,1-.19-.835,3.023,3.023,0,0,1-2.256.981,2.8,2.8,0,0,1-1.923-.663,2.145,2.145,0,0,1-.751-1.681,2.24,2.24,0,0,1,.941-1.923,4.437,4.437,0,0,1,2.648-.685h1.318v-.623a1.522,1.522,0,0,0-.425-1.132A1.707,1.707,0,0,0,130.8-6.98a1.976,1.976,0,0,0-1.216.366,1.079,1.079,0,0,0-.491.886h-1.362a1.87,1.87,0,0,1,.421-1.146,2.874,2.874,0,0,1,1.143-.875,3.844,3.844,0,0,1,1.586-.322,3.133,3.133,0,0,1,2.146.685,2.47,2.47,0,0,1,.806,1.886v3.647a4.459,4.459,0,0,0,.278,1.736V0Zm-2.249-1.033a2.381,2.381,0,0,0,1.208-.33,1.994,1.994,0,0,0,.828-.857V-3.845h-1.062q-2.49,0-2.49,1.458a1.234,1.234,0,0,0,.425,1A1.633,1.633,0,0,0,130.444-1.033Zm8.694.073a1.952,1.952,0,0,0,1.267-.439,1.546,1.546,0,0,0,.6-1.1h1.282a2.457,2.457,0,0,1-.469,1.3,3.087,3.087,0,0,1-1.154.981,3.329,3.329,0,0,1-1.527.366,3.265,3.265,0,0,1-2.574-1.08,4.3,4.3,0,0,1-.956-2.955v-.227a4.771,4.771,0,0,1,.425-2.058,3.236,3.236,0,0,1,1.219-1.4,3.464,3.464,0,0,1,1.879-.5,3.178,3.178,0,0,1,2.216.8,2.853,2.853,0,0,1,.941,2.073h-1.282a1.867,1.867,0,0,0-.582-1.263,1.811,1.811,0,0,0-1.293-.494,1.9,1.9,0,0,0-1.6.743,3.491,3.491,0,0,0-.568,2.15v.256a3.422,3.422,0,0,0,.564,2.109A1.906,1.906,0,0,0,139.138-.959ZM145.283,0h-1.355V-7.925h1.355Zm-1.465-10.027a.809.809,0,0,1,.2-.557.756.756,0,0,1,.6-.227.768.768,0,0,1,.6.227.8.8,0,0,1,.205.557.774.774,0,0,1-.205.549.782.782,0,0,1-.6.22.77.77,0,0,1-.6-.22A.782.782,0,0,1,143.818-10.027Zm3.274,5.991a4.681,4.681,0,0,1,.458-2.095,3.415,3.415,0,0,1,1.274-1.436,3.469,3.469,0,0,1,1.864-.505,3.342,3.342,0,0,1,2.618,1.121,4.311,4.311,0,0,1,1,2.981v.1a4.722,4.722,0,0,1-.443,2.076A3.365,3.365,0,0,1,152.6-.366,3.509,3.509,0,0,1,150.7.146a3.334,3.334,0,0,1-2.611-1.121,4.29,4.29,0,0,1-1-2.966Zm1.362.161a3.39,3.39,0,0,0,.612,2.117,1.957,1.957,0,0,0,1.637.8,1.945,1.945,0,0,0,1.641-.809,3.707,3.707,0,0,0,.608-2.267,3.384,3.384,0,0,0-.619-2.113,1.968,1.968,0,0,0-1.644-.809,1.946,1.946,0,0,0-1.619.8A3.68,3.68,0,0,0,148.455-3.875Zm2.849-7.361h1.641l-1.963,2.153-1.091,0Zm5.984,3.311.044,1A2.888,2.888,0,0,1,159.7-8.071q2.512,0,2.534,2.834V0h-1.355V-5.244a1.824,1.824,0,0,0-.392-1.267,1.57,1.57,0,0,0-1.2-.41,1.956,1.956,0,0,0-1.157.352,2.387,2.387,0,0,0-.776.923V0h-1.355V-7.925Z" transform="translate(6.365 18.586)" fill="#12263f"/>
      </g>
      <path id="Trazado_214853" data-name="Trazado 214853" d="M7.126-2.791H2.659L1.655,0H.205L4.277-10.664h1.23L9.587,0H8.145ZM3.083-3.94H6.709L4.893-8.928ZM13.989-.959A1.952,1.952,0,0,0,15.256-1.4a1.546,1.546,0,0,0,.6-1.1h1.282a2.457,2.457,0,0,1-.469,1.3,3.087,3.087,0,0,1-1.154.981,3.329,3.329,0,0,1-1.527.366,3.265,3.265,0,0,1-2.574-1.08,4.3,4.3,0,0,1-.956-2.955v-.227a4.771,4.771,0,0,1,.425-2.058,3.236,3.236,0,0,1,1.219-1.4,3.464,3.464,0,0,1,1.879-.5,3.178,3.178,0,0,1,2.216.8A2.853,2.853,0,0,1,17.139-5.2H15.857a1.867,1.867,0,0,0-.582-1.263,1.811,1.811,0,0,0-1.293-.494,1.9,1.9,0,0,0-1.6.743,3.491,3.491,0,0,0-.568,2.15v.256A3.422,3.422,0,0,0,12.378-1.7,1.906,1.906,0,0,0,13.989-.959Zm7.852,0A1.952,1.952,0,0,0,23.108-1.4a1.546,1.546,0,0,0,.6-1.1H24.99a2.457,2.457,0,0,1-.469,1.3,3.087,3.087,0,0,1-1.154.981,3.329,3.329,0,0,1-1.527.366,3.265,3.265,0,0,1-2.574-1.08,4.3,4.3,0,0,1-.956-2.955v-.227a4.771,4.771,0,0,1,.425-2.058,3.236,3.236,0,0,1,1.219-1.4,3.464,3.464,0,0,1,1.879-.5,3.178,3.178,0,0,1,2.216.8A2.853,2.853,0,0,1,24.99-5.2H23.708a1.867,1.867,0,0,0-.582-1.263,1.811,1.811,0,0,0-1.293-.494,1.9,1.9,0,0,0-1.6.743,3.491,3.491,0,0,0-.568,2.15v.256A3.422,3.422,0,0,0,20.229-1.7,1.906,1.906,0,0,0,21.841-.959ZM29.8.146A3.463,3.463,0,0,1,27.18-.912a3.928,3.928,0,0,1-1.011-2.831v-.249A4.756,4.756,0,0,1,26.62-6.1a3.514,3.514,0,0,1,1.26-1.45,3.167,3.167,0,0,1,1.754-.524,2.968,2.968,0,0,1,2.4,1.018,4.408,4.408,0,0,1,.857,2.915v.564H27.524a2.817,2.817,0,0,0,.685,1.893,2.153,2.153,0,0,0,1.666.721,2.36,2.36,0,0,0,1.216-.293,3.055,3.055,0,0,0,.872-.776l.828.645A3.328,3.328,0,0,1,29.8.146Zm-.168-7.1a1.807,1.807,0,0,0-1.377.6,2.9,2.9,0,0,0-.688,1.674h3.97v-.1a2.581,2.581,0,0,0-.557-1.6A1.7,1.7,0,0,0,29.634-6.958ZM39.075-2.1a1,1,0,0,0-.414-.853,3.983,3.983,0,0,0-1.443-.524,6.822,6.822,0,0,1-1.633-.527,2.324,2.324,0,0,1-.894-.732A1.752,1.752,0,0,1,34.4-5.75,2.056,2.056,0,0,1,35.226-7.4a3.218,3.218,0,0,1,2.106-.674,3.311,3.311,0,0,1,2.186.7,2.21,2.21,0,0,1,.839,1.78H38.994a1.223,1.223,0,0,0-.472-.959,1.77,1.77,0,0,0-1.19-.4,1.852,1.852,0,0,0-1.157.322,1.014,1.014,0,0,0-.417.842.822.822,0,0,0,.388.74,4.776,4.776,0,0,0,1.4.476,7.308,7.308,0,0,1,1.644.542,2.4,2.4,0,0,1,.934.758,1.864,1.864,0,0,1,.3,1.08,2.028,2.028,0,0,1-.85,1.7,3.564,3.564,0,0,1-2.2.641A3.991,3.991,0,0,1,35.691-.19a2.74,2.74,0,0,1-1.146-.941,2.268,2.268,0,0,1-.414-1.307h1.355a1.4,1.4,0,0,0,.546,1.08,2.117,2.117,0,0,0,1.344.4,2.185,2.185,0,0,0,1.234-.311A.956.956,0,0,0,39.075-2.1Zm2.761-1.934a4.681,4.681,0,0,1,.458-2.095,3.415,3.415,0,0,1,1.274-1.436,3.469,3.469,0,0,1,1.864-.505,3.342,3.342,0,0,1,2.618,1.121,4.311,4.311,0,0,1,1,2.981v.1A4.722,4.722,0,0,1,48.607-1.8,3.365,3.365,0,0,1,47.34-.366a3.509,3.509,0,0,1-1.893.513A3.334,3.334,0,0,1,42.836-.974a4.29,4.29,0,0,1-1-2.966Zm1.362.161a3.39,3.39,0,0,0,.612,2.117,1.957,1.957,0,0,0,1.637.8,1.945,1.945,0,0,0,1.641-.809A3.707,3.707,0,0,0,47.7-4.036a3.384,3.384,0,0,0-.619-2.113,1.968,1.968,0,0,0-1.644-.809,1.946,1.946,0,0,0-1.619.8A3.68,3.68,0,0,0,43.2-3.875ZM59.355,0a2.846,2.846,0,0,1-.19-.835,3.023,3.023,0,0,1-2.256.981,2.8,2.8,0,0,1-1.923-.663A2.145,2.145,0,0,1,54.236-2.2a2.24,2.24,0,0,1,.941-1.923A4.437,4.437,0,0,1,57.825-4.8h1.318v-.623a1.522,1.522,0,0,0-.425-1.132,1.707,1.707,0,0,0-1.252-.421,1.976,1.976,0,0,0-1.216.366,1.079,1.079,0,0,0-.491.886H54.4a1.87,1.87,0,0,1,.421-1.146,2.874,2.874,0,0,1,1.143-.875,3.844,3.844,0,0,1,1.586-.322,3.133,3.133,0,0,1,2.146.685A2.47,2.47,0,0,1,60.5-5.5v3.647a4.459,4.459,0,0,0,.278,1.736V0ZM57.107-1.033a2.381,2.381,0,0,0,1.208-.33,1.994,1.994,0,0,0,.828-.857V-3.845H58.081q-2.49,0-2.49,1.458a1.234,1.234,0,0,0,.425,1A1.633,1.633,0,0,0,57.107-1.033ZM67.808,0H66.453V-11.25h1.355Zm7.061,0a2.846,2.846,0,0,1-.19-.835,3.023,3.023,0,0,1-2.256.981A2.8,2.8,0,0,1,70.5-.516,2.145,2.145,0,0,1,69.749-2.2,2.24,2.24,0,0,1,70.69-4.12,4.437,4.437,0,0,1,73.337-4.8h1.318v-.623a1.522,1.522,0,0,0-.425-1.132,1.707,1.707,0,0,0-1.252-.421,1.976,1.976,0,0,0-1.216.366,1.079,1.079,0,0,0-.491.886H69.91a1.87,1.87,0,0,1,.421-1.146,2.874,2.874,0,0,1,1.143-.875,3.844,3.844,0,0,1,1.586-.322,3.133,3.133,0,0,1,2.146.685A2.47,2.47,0,0,1,76.011-5.5v3.647a4.459,4.459,0,0,0,.278,1.736V0ZM72.62-1.033a2.381,2.381,0,0,0,1.208-.33,1.994,1.994,0,0,0,.828-.857V-3.845H73.594q-2.49,0-2.49,1.458a1.234,1.234,0,0,0,.425,1A1.633,1.633,0,0,0,72.62-1.033ZM83.32,0H81.965V-7.925H83.32ZM81.855-10.027a.809.809,0,0,1,.2-.557.756.756,0,0,1,.6-.227.768.768,0,0,1,.6.227.8.8,0,0,1,.205.557.774.774,0,0,1-.205.549.782.782,0,0,1-.6.22.77.77,0,0,1-.6-.22A.782.782,0,0,1,81.855-10.027Zm4.915,2.1.044,1a2.888,2.888,0,0,1,2.373-1.143q2.512,0,2.534,2.834V0H90.366V-5.244a1.824,1.824,0,0,0-.392-1.267,1.57,1.57,0,0,0-1.2-.41,1.956,1.956,0,0,0-1.157.352,2.387,2.387,0,0,0-.776.923V0H85.488V-7.925ZM94.431,0V-6.877H93.179V-7.925h1.252v-.813a2.7,2.7,0,0,1,.681-1.97,2.573,2.573,0,0,1,1.926-.7,3.578,3.578,0,0,1,.93.124L97.9-10.188a3.892,3.892,0,0,0-.732-.066,1.322,1.322,0,0,0-1.018.386,1.564,1.564,0,0,0-.359,1.106v.838h1.692v1.047H95.786V0Zm4.182-4.036a4.681,4.681,0,0,1,.458-2.095,3.415,3.415,0,0,1,1.274-1.436,3.469,3.469,0,0,1,1.864-.505,3.342,3.342,0,0,1,2.618,1.121,4.311,4.311,0,0,1,1,2.981v.1a4.722,4.722,0,0,1-.443,2.076,3.365,3.365,0,0,1-1.267,1.432,3.509,3.509,0,0,1-1.893.513A3.334,3.334,0,0,1,99.613-.974a4.29,4.29,0,0,1-1-2.966Zm1.362.161a3.39,3.39,0,0,0,.612,2.117,1.957,1.957,0,0,0,1.637.8,1.945,1.945,0,0,0,1.641-.809,3.707,3.707,0,0,0,.608-2.267,3.384,3.384,0,0,0-.619-2.113,1.968,1.968,0,0,0-1.644-.809,1.946,1.946,0,0,0-1.619.8A3.68,3.68,0,0,0,99.976-3.875Zm11.382-2.834a4.061,4.061,0,0,0-.667-.051,1.786,1.786,0,0,0-1.809,1.135V0h-1.355V-7.925h1.318l.022.916a2.11,2.11,0,0,1,1.89-1.062,1.384,1.384,0,0,1,.6.1Zm2.52-1.216.037.879a2.927,2.927,0,0,1,2.351-1.025A2.266,2.266,0,0,1,118.528-6.8a3,3,0,0,1,1.029-.923,3.039,3.039,0,0,1,1.5-.352q2.607,0,2.651,2.761V0h-1.355V-5.229a1.82,1.82,0,0,0-.388-1.271,1.71,1.71,0,0,0-1.3-.421,1.8,1.8,0,0,0-1.252.45,1.827,1.827,0,0,0-.579,1.212V0h-1.362V-5.193a1.512,1.512,0,0,0-1.692-1.729,1.813,1.813,0,0,0-1.824,1.135V0H112.6V-7.925ZM130.642,0a2.846,2.846,0,0,1-.19-.835A3.023,3.023,0,0,1,128.2.146a2.8,2.8,0,0,1-1.923-.663,2.145,2.145,0,0,1-.751-1.681,2.24,2.24,0,0,1,.941-1.923,4.437,4.437,0,0,1,2.648-.685h1.318v-.623A1.522,1.522,0,0,0,130-6.559a1.707,1.707,0,0,0-1.252-.421,1.976,1.976,0,0,0-1.216.366,1.079,1.079,0,0,0-.491.886h-1.362a1.87,1.87,0,0,1,.421-1.146,2.874,2.874,0,0,1,1.143-.875,3.844,3.844,0,0,1,1.586-.322,3.133,3.133,0,0,1,2.146.685,2.47,2.47,0,0,1,.806,1.886v3.647a4.459,4.459,0,0,0,.278,1.736V0Zm-2.249-1.033a2.381,2.381,0,0,0,1.208-.33,1.994,1.994,0,0,0,.828-.857V-3.845h-1.062q-2.49,0-2.49,1.458a1.234,1.234,0,0,0,.425,1A1.633,1.633,0,0,0,128.394-1.033Zm8.694.073a1.952,1.952,0,0,0,1.267-.439,1.546,1.546,0,0,0,.6-1.1h1.282a2.457,2.457,0,0,1-.469,1.3,3.087,3.087,0,0,1-1.154.981,3.329,3.329,0,0,1-1.527.366,3.265,3.265,0,0,1-2.574-1.08,4.3,4.3,0,0,1-.956-2.955v-.227a4.771,4.771,0,0,1,.425-2.058,3.236,3.236,0,0,1,1.219-1.4,3.464,3.464,0,0,1,1.879-.5,3.178,3.178,0,0,1,2.216.8,2.853,2.853,0,0,1,.941,2.073h-1.282a1.867,1.867,0,0,0-.582-1.263,1.811,1.811,0,0,0-1.293-.494,1.9,1.9,0,0,0-1.6.743,3.491,3.491,0,0,0-.568,2.15v.256a3.422,3.422,0,0,0,.564,2.109A1.906,1.906,0,0,0,137.087-.959ZM143.232,0h-1.355V-7.925h1.355Zm-1.465-10.027a.809.809,0,0,1,.2-.557.756.756,0,0,1,.6-.227.768.768,0,0,1,.6.227.8.8,0,0,1,.205.557.774.774,0,0,1-.205.549.782.782,0,0,1-.6.22.77.77,0,0,1-.6-.22A.782.782,0,0,1,141.768-10.027Zm3.274,5.991A4.681,4.681,0,0,1,145.5-6.13a3.415,3.415,0,0,1,1.274-1.436,3.469,3.469,0,0,1,1.864-.505,3.342,3.342,0,0,1,2.618,1.121,4.311,4.311,0,0,1,1,2.981v.1a4.722,4.722,0,0,1-.443,2.076,3.365,3.365,0,0,1-1.267,1.432,3.509,3.509,0,0,1-1.893.513,3.334,3.334,0,0,1-2.611-1.121,4.29,4.29,0,0,1-1-2.966Zm1.362.161a3.39,3.39,0,0,0,.612,2.117,1.957,1.957,0,0,0,1.637.8,1.945,1.945,0,0,0,1.641-.809,3.707,3.707,0,0,0,.608-2.267,3.384,3.384,0,0,0-.619-2.113,1.968,1.968,0,0,0-1.644-.809,1.946,1.946,0,0,0-1.619.8A3.68,3.68,0,0,0,146.4-3.875Zm2.849-7.361h1.641l-1.963,2.153-1.091,0Zm5.984,3.311.044,1a2.888,2.888,0,0,1,2.373-1.143q2.512,0,2.534,2.834V0h-1.355V-5.244a1.824,1.824,0,0,0-.392-1.267,1.57,1.57,0,0,0-1.2-.41,1.956,1.956,0,0,0-1.157.352,2.387,2.387,0,0,0-.776.923V0h-1.355V-7.925Z" transform="translate(367.6 209.051)" fill="#fff"/>
      <circle id="Elipse_6138" data-name="Elipse 6138" cx="2.387" cy="2.387" r="2.387" transform="translate(884.322 89.272)" fill="#d2d2d2"/>
    </g>
    <rect id="Rectángulo_46426" data-name="Rectángulo 46426" width="31.664" height="2.054" transform="translate(848.405 -125.635) rotate(-90)" fill="#d2d2d2"/>
    <g id="Grupo_157292" data-name="Grupo 157292" transform="translate(756.884 -125.636)">
      <path id="Trazado_195677" data-name="Trazado 195677" d="M891.55-162.5a13.543,13.543,0,0,1-3.981,9.605,13.543,13.543,0,0,1-9.605,3.981H702.271v-27.172H877.964A13.591,13.591,0,0,1,891.55-162.5Z" transform="translate(-702.271 176.086)" fill="url(#linear-gradient)"/>
      <path id="Trazado_214852" data-name="Trazado 214852" d="M2.747,0H1.34V-10.664H2.747Zm3.64-7.925.044,1A2.888,2.888,0,0,1,8.8-8.071q2.512,0,2.534,2.834V0H9.983V-5.244a1.824,1.824,0,0,0-.392-1.267,1.57,1.57,0,0,0-1.2-.41,1.956,1.956,0,0,0-1.157.352,2.387,2.387,0,0,0-.776.923V0H5.1V-7.925ZM18-2.1a1,1,0,0,0-.414-.853,3.983,3.983,0,0,0-1.443-.524,6.822,6.822,0,0,1-1.633-.527,2.324,2.324,0,0,1-.894-.732,1.752,1.752,0,0,1-.289-1.011A2.056,2.056,0,0,1,14.147-7.4a3.218,3.218,0,0,1,2.106-.674,3.311,3.311,0,0,1,2.186.7,2.21,2.21,0,0,1,.839,1.78H17.915a1.223,1.223,0,0,0-.472-.959,1.77,1.77,0,0,0-1.19-.4,1.852,1.852,0,0,0-1.157.322,1.014,1.014,0,0,0-.417.842.822.822,0,0,0,.388.74,4.776,4.776,0,0,0,1.4.476,7.308,7.308,0,0,1,1.644.542,2.4,2.4,0,0,1,.934.758,1.864,1.864,0,0,1,.3,1.08,2.028,2.028,0,0,1-.85,1.7,3.564,3.564,0,0,1-2.2.641A3.991,3.991,0,0,1,14.612-.19a2.74,2.74,0,0,1-1.146-.941,2.268,2.268,0,0,1-.414-1.307h1.355a1.4,1.4,0,0,0,.546,1.08,2.117,2.117,0,0,0,1.344.4,2.185,2.185,0,0,0,1.234-.311A.956.956,0,0,0,18-2.1Zm4.958-7.742v1.919h1.479v1.047H22.954v4.921a1.1,1.1,0,0,0,.2.715A.832.832,0,0,0,23.826-1a3.281,3.281,0,0,0,.645-.088V0a3.951,3.951,0,0,1-1.04.146A1.687,1.687,0,0,1,22.061-.4a2.36,2.36,0,0,1-.461-1.56V-6.877H20.156V-7.925H21.6V-9.844ZM30.908,0a2.846,2.846,0,0,1-.19-.835,3.023,3.023,0,0,1-2.256.981,2.8,2.8,0,0,1-1.923-.663A2.145,2.145,0,0,1,25.789-2.2,2.24,2.24,0,0,1,26.73-4.12,4.437,4.437,0,0,1,29.377-4.8H30.7v-.623a1.522,1.522,0,0,0-.425-1.132,1.707,1.707,0,0,0-1.252-.421,1.976,1.976,0,0,0-1.216.366,1.079,1.079,0,0,0-.491.886H25.95a1.87,1.87,0,0,1,.421-1.146,2.874,2.874,0,0,1,1.143-.875A3.844,3.844,0,0,1,29.1-8.071a3.133,3.133,0,0,1,2.146.685A2.47,2.47,0,0,1,32.051-5.5v3.647a4.459,4.459,0,0,0,.278,1.736V0ZM28.66-1.033a2.381,2.381,0,0,0,1.208-.33,1.994,1.994,0,0,0,.828-.857V-3.845H29.634q-2.49,0-2.49,1.458a1.234,1.234,0,0,0,.425,1A1.633,1.633,0,0,0,28.66-1.033ZM35.647,0H34.292V-11.25h1.355Zm7.061,0a2.846,2.846,0,0,1-.19-.835,3.023,3.023,0,0,1-2.256.981,2.8,2.8,0,0,1-1.923-.663A2.145,2.145,0,0,1,37.588-2.2a2.24,2.24,0,0,1,.941-1.923A4.437,4.437,0,0,1,41.177-4.8H42.5v-.623a1.522,1.522,0,0,0-.425-1.132,1.707,1.707,0,0,0-1.252-.421,1.976,1.976,0,0,0-1.216.366,1.079,1.079,0,0,0-.491.886H37.749a1.87,1.87,0,0,1,.421-1.146,2.874,2.874,0,0,1,1.143-.875A3.844,3.844,0,0,1,40.9-8.071a3.133,3.133,0,0,1,2.146.685A2.47,2.47,0,0,1,43.85-5.5v3.647a4.459,4.459,0,0,0,.278,1.736V0ZM40.459-1.033a2.381,2.381,0,0,0,1.208-.33,1.994,1.994,0,0,0,.828-.857V-3.845H41.433q-2.49,0-2.49,1.458a1.234,1.234,0,0,0,.425,1A1.633,1.633,0,0,0,40.459-1.033Zm8.694.073A1.952,1.952,0,0,0,50.42-1.4a1.546,1.546,0,0,0,.6-1.1H52.3a2.457,2.457,0,0,1-.469,1.3A3.087,3.087,0,0,1,50.68-.22a3.329,3.329,0,0,1-1.527.366,3.265,3.265,0,0,1-2.574-1.08,4.3,4.3,0,0,1-.956-2.955v-.227a4.771,4.771,0,0,1,.425-2.058,3.236,3.236,0,0,1,1.219-1.4,3.464,3.464,0,0,1,1.879-.5,3.178,3.178,0,0,1,2.216.8A2.853,2.853,0,0,1,52.3-5.2H51.021a1.867,1.867,0,0,0-.582-1.263,1.811,1.811,0,0,0-1.293-.494,1.9,1.9,0,0,0-1.6.743,3.491,3.491,0,0,0-.568,2.15v.256A3.422,3.422,0,0,0,47.542-1.7,1.906,1.906,0,0,0,49.153-.959ZM55.3,0H53.943V-7.925H55.3ZM53.833-10.027a.809.809,0,0,1,.2-.557.756.756,0,0,1,.6-.227.768.768,0,0,1,.6.227.8.8,0,0,1,.205.557.774.774,0,0,1-.205.549.782.782,0,0,1-.6.22.77.77,0,0,1-.6-.22A.782.782,0,0,1,53.833-10.027Zm3.274,5.991a4.681,4.681,0,0,1,.458-2.095,3.415,3.415,0,0,1,1.274-1.436A3.469,3.469,0,0,1,60.7-8.071a3.342,3.342,0,0,1,2.618,1.121,4.311,4.311,0,0,1,1,2.981v.1A4.722,4.722,0,0,1,63.878-1.8,3.365,3.365,0,0,1,62.611-.366a3.509,3.509,0,0,1-1.893.513A3.334,3.334,0,0,1,58.107-.974a4.29,4.29,0,0,1-1-2.966Zm1.362.161a3.39,3.39,0,0,0,.612,2.117,1.957,1.957,0,0,0,1.637.8,1.945,1.945,0,0,0,1.641-.809,3.707,3.707,0,0,0,.608-2.267,3.384,3.384,0,0,0-.619-2.113A1.968,1.968,0,0,0,60.7-6.958a1.946,1.946,0,0,0-1.619.8A3.68,3.68,0,0,0,58.469-3.875ZM67.3-7.925l.044,1a2.888,2.888,0,0,1,2.373-1.143q2.512,0,2.534,2.834V0H70.9V-5.244a1.824,1.824,0,0,0-.392-1.267,1.57,1.57,0,0,0-1.2-.41,1.956,1.956,0,0,0-1.157.352,2.387,2.387,0,0,0-.776.923V0H66.021V-7.925ZM77.585.146A3.463,3.463,0,0,1,74.963-.912a3.928,3.928,0,0,1-1.011-2.831v-.249A4.756,4.756,0,0,1,74.4-6.1a3.514,3.514,0,0,1,1.26-1.45,3.167,3.167,0,0,1,1.754-.524,2.968,2.968,0,0,1,2.4,1.018,4.408,4.408,0,0,1,.857,2.915v.564H75.308a2.817,2.817,0,0,0,.685,1.893,2.153,2.153,0,0,0,1.666.721,2.36,2.36,0,0,0,1.216-.293,3.055,3.055,0,0,0,.872-.776l.828.645A3.328,3.328,0,0,1,77.585.146Zm-.168-7.1a1.807,1.807,0,0,0-1.377.6,2.9,2.9,0,0,0-.688,1.674h3.97v-.1a2.581,2.581,0,0,0-.557-1.6A1.7,1.7,0,0,0,77.417-6.958ZM86.858-2.1a1,1,0,0,0-.414-.853A3.983,3.983,0,0,0,85-3.479a6.822,6.822,0,0,1-1.633-.527,2.324,2.324,0,0,1-.894-.732,1.752,1.752,0,0,1-.289-1.011A2.056,2.056,0,0,1,83.009-7.4a3.218,3.218,0,0,1,2.106-.674,3.311,3.311,0,0,1,2.186.7A2.21,2.21,0,0,1,88.14-5.6H86.777a1.223,1.223,0,0,0-.472-.959,1.77,1.77,0,0,0-1.19-.4,1.852,1.852,0,0,0-1.157.322,1.014,1.014,0,0,0-.417.842.822.822,0,0,0,.388.74,4.776,4.776,0,0,0,1.4.476,7.308,7.308,0,0,1,1.644.542,2.4,2.4,0,0,1,.934.758,1.864,1.864,0,0,1,.3,1.08,2.028,2.028,0,0,1-.85,1.7,3.564,3.564,0,0,1-2.2.641A3.991,3.991,0,0,1,83.474-.19a2.74,2.74,0,0,1-1.146-.941,2.268,2.268,0,0,1-.414-1.307h1.355a1.4,1.4,0,0,0,.546,1.08,2.117,2.117,0,0,0,1.344.4,2.185,2.185,0,0,0,1.234-.311A.956.956,0,0,0,86.858-2.1Z" transform="translate(43.788 18.586)" fill="#fff"/>
    </g>
  </g>
</svg>
