<svg xmlns="http://www.w3.org/2000/svg" xmlns:xlink="http://www.w3.org/1999/xlink" width="179" height="230" viewBox="0 0 179 230">
  <defs>
    <filter id="Rect치ngulo_36007" x="0" y="0" width="179" height="230" filterUnits="userSpaceOnUse">
      <feOffset dy="3" input="SourceAlpha"/>
      <feGaussianBlur stdDeviation="3" result="blur"/>
      <feFlood flood-opacity="0.161"/>
      <feComposite operator="in" in2="blur"/>
      <feComposite in="SourceGraphic"/>
    </filter>
    <linearGradient id="linear-gradient" x1="0.5" x2="0.5" y2="1" gradientUnits="objectBoundingBox">
      <stop offset="0" stop-color="#ff5983"/>
      <stop offset="1" stop-color="#7e137c"/>
    </linearGradient>
  </defs>
  <g id="Grupo_173800" data-name="Grupo 173800" transform="translate(-177 -565)">
    <g transform="matrix(1, 0, 0, 1, 177, 565)" filter="url(#Rect치ngulo_36007)">
      <rect id="Rect치ngulo_36007-2" data-name="Rect치ngulo 36007" width="161" height="212" rx="10" transform="translate(9 6)" fill="#fff"/>
    </g>
    <g id="Grupo_142438" data-name="Grupo 142438" transform="translate(228.08 589.9)">
      <ellipse id="Elipse_4775" data-name="Elipse 4775" cx="35" cy="35.5" rx="35" ry="35.5" transform="translate(-0.08 -0.9)" fill="url(#linear-gradient)"/>
      <g id="bPkKrn.tif" transform="translate(12.118 11.087)">
        <g id="Grupo_154922" data-name="Grupo 154922" transform="translate(0 0)">
          <path id="Trazado_195259" data-name="Trazado 195259" d="M-1581.479-607.9v23.97a2.433,2.433,0,0,1-2.659,1.727c-3.257-.049-6.516-.016-9.775-.016h-.545c0,1.323-.007,2.582.005,3.842,0,.256-.064.368-.33.42-.46.089-.91.231-1.391.357l.859,1.451-3.879,3.893-1.449-.859c-.042.122-.081.218-.11.316-.131.456-.124,1.094-.426,1.32s-.921.07-1.4.073c-.773,0-1.547,0-2.372,0,.63,2.167.317,4.315.407,6.459h-21.633c0-1.213-.014-2.4,0-3.58a10.5,10.5,0,0,1,4.63-8.842,27.267,27.267,0,0,1,2.839-1.57c-.016-.014-.079-.074-.147-.128a5.76,5.76,0,0,1-.375-8.9.992.992,0,0,0,.248-.657q.02-9.3.013-18.6a3.37,3.37,0,0,1,.067-.757,2.282,2.282,0,0,1,1.641-1.63h34.063A2.506,2.506,0,0,1-1581.479-607.9Zm-4.356,21.359v-18.711h-28.807c0,5.216,0,10.4-.005,15.577,0,.267.124.308.346.351a5.588,5.588,0,0,1,3.672,2.388.8.8,0,0,0,.754.4q11.759-.016,23.517-.008Zm-30.246-20.153h31.694V-585.1h-25.356c.066.5.126.956.191,1.442h25.592c.812,0,1.041-.231,1.041-1.046q0-11.218,0-22.436c0-.805-.233-1.033-1.054-1.033h-32.482c-.849,0-1.07.219-1.07,1.061q0,8.785,0,17.57v.5a4.62,4.62,0,0,1,.974-.257c.454-.015.477-.251.477-.608q-.012-8.109-.005-16.219Zm5.043,23.039a4.362,4.362,0,0,0-4.331-4.329,4.363,4.363,0,0,0-4.318,4.3,4.364,4.364,0,0,0,4.308,4.352A4.364,4.364,0,0,0-1611.038-583.659Zm12.079,1.452a4.979,4.979,0,0,1-1.953,5.53,4.675,4.675,0,0,1-5.264.347c-2.306-1.272-3.049-3.323-2.53-5.893a4.635,4.635,0,0,1-.567,0c-.367-.048-.541.08-.661.457a5.48,5.48,0,0,1-1.868,2.643c-.1.079-.191.168-.309.272a10.967,10.967,0,0,1,6.551,5.754c.05.1.175.239.267.241,1.018.017,2.036.011,3.049.011.138-.536.259-1.03.4-1.52a.482.482,0,0,1,.173-.284c.409-.218.816-.437,1.267-.039a7.435,7.435,0,0,0,.764.472.347.347,0,0,0,.535-.063c.354-.387.742-.743,1.109-1.12.291-.3.763-.588.8-.922s-.355-.723-.568-1.083a.91.91,0,0,1,.63-1.473c.4-.1.807-.2,1.206-.3v-3.025Zm-22.155,10.1v5.712h4.633l-4.217-9.808a9.488,9.488,0,0,0-3.384,4.268,13.165,13.165,0,0,0-.63,5.553h2.152v-5.742c.406,0,.765,0,1.122,0C-1621.351-572.126-1621.264-572.118-1621.114-572.11Zm15.071,5.732c.374-3.982-.61-7.367-3.982-9.831l-4.222,9.821h4.669V-572.1h1.431v5.726Zm2.214-15.846c-.991,0-1.982.011-2.973-.007-.264,0-.414.089-.435.328a7.763,7.763,0,0,0-.1,1.771,3.55,3.55,0,0,0,4.4,2.834,3.608,3.608,0,0,0,2.525-4.611.4.4,0,0,0-.446-.322C-1601.848-582.213-1602.839-582.223-1603.83-582.223Zm-7.972,5.048a3.665,3.665,0,0,1-3.456,2.881c-1.777.02-3-.934-3.669-2.878l-.5.236,4.065,9.447,4.061-9.447Zm-5.631-.413a2.072,2.072,0,0,0,2.1,1.854,2.05,2.05,0,0,0,2.034-1.863A7.27,7.27,0,0,0-1617.433-577.588Z" transform="translate(1626.18 609.616)" fill="#fff"/>
          <path id="Trazado_195260" data-name="Trazado 195260" d="M-1249.963-272.627h-8.583v-1.4h8.583Z" transform="translate(1291.742 304.33)" fill="#fff"/>
          <path id="Trazado_195261" data-name="Trazado 195261" d="M-1258.624-240.7v-1.385h8.589v1.385Z" transform="translate(1291.813 275.273)" fill="#fff"/>
          <path id="Trazado_195262" data-name="Trazado 195262" d="M-1242.572-210.3h1.372v1.4h-1.372Z" transform="translate(1277.21 246.357)" fill="#fff"/>
          <path id="Trazado_195263" data-name="Trazado 195263" d="M-1209.212-208.669h-1.366v-1.4h1.366Z" transform="translate(1248.105 246.145)" fill="#fff"/>
          <path id="Trazado_195264" data-name="Trazado 195264" d="M-1177.288-209.986v1.367h-1.4v-1.367Z" transform="translate(1219.093 246.071)" fill="#fff"/>
          <path id="Trazado_195265" data-name="Trazado 195265" d="M-1470.57-541.13v2.817h-11.5v-7.145h11.482v2.831h2.891v-2.821h11.517v7.161h-4.985v1.449h4.991v7.18h-11.483v-7.151h4.99v-1.449h-4.993v-2.871Zm12.945,1.394v-4.273h-8.6v4.273Zm-8.613,8.643h8.614v-4.266h-8.614Zm-5.793-12.92h-8.6v4.272h8.6Z" transform="translate(1495.085 551.252)" fill="#fff"/>
          <path id="Trazado_195266" data-name="Trazado 195266" d="M-1471.989-416.248H-1482v-1.4h10.015Z" transform="translate(1495.023 434.983)" fill="#fff"/>
          <path id="Trazado_195267" data-name="Trazado 195267" d="M-1442.236-385.86h6.431v1.4h-6.431Z" transform="translate(1458.845 406.064)" fill="#fff"/>
          <path id="Trazado_195268" data-name="Trazado 195268" d="M-1448.737-448.218h-1.382v-1.39h1.382Z" transform="translate(1466.016 464.056)" fill="#fff"/>
          <path id="Trazado_195269" data-name="Trazado 195269" d="M-1416.805-448.222h-1.383v-1.391h1.383Z" transform="translate(1436.969 464.061)" fill="#fff"/>
          <path id="Trazado_195270" data-name="Trazado 195270" d="M-1386.2-449.741h1.375v1.4h-1.375Z" transform="translate(1407.874 464.177)" fill="#fff"/>
          <path id="Trazado_195271" data-name="Trazado 195271" d="M-1258.441-513.693h2.807v1.4h-2.807Z" transform="translate(1291.646 522.354)" fill="#fff"/>
          <path id="Trazado_195272" data-name="Trazado 195272" d="M-1289.059-512.089h-1.382v-1.39h1.382Z" transform="translate(1320.757 522.16)" fill="#fff"/>
          <path id="Trazado_195273" data-name="Trazado 195273" d="M-1284.689-417.649v1.386h-5.706v-1.386Z" transform="translate(1320.715 434.983)" fill="#fff"/>
          <path id="Trazado_195274" data-name="Trazado 195274" d="M-1450.24-512.152v-1.385h6.427v1.385Z" transform="translate(1466.127 522.213)" fill="#fff"/>
        </g>
      </g>
    </g>
    <path id="Trazado_214862" data-name="Trazado 214862" d="M19.313,11.2a1.128,1.128,0,0,0-.439-.956,5.764,5.764,0,0,0-1.582-.7,11.215,11.215,0,0,1-1.809-.729A2.956,2.956,0,0,1,13.666,6.17a2.575,2.575,0,0,1,.487-1.542,3.177,3.177,0,0,1,1.4-1.058A5.265,5.265,0,0,1,17.6,3.189a4.793,4.793,0,0,1,2.036.414,3.242,3.242,0,0,1,1.388,1.168,3.057,3.057,0,0,1,.494,1.714h-2.2a1.438,1.438,0,0,0-.461-1.139,1.9,1.9,0,0,0-1.3-.406,2.026,2.026,0,0,0-1.252.341,1.074,1.074,0,0,0-.447.9,1.029,1.029,0,0,0,.524.872,5.916,5.916,0,0,0,1.542.659,6.661,6.661,0,0,1,2.732,1.4,2.786,2.786,0,0,1,.857,2.08,2.566,2.566,0,0,1-1.047,2.172,4.585,4.585,0,0,1-2.82.787,5.445,5.445,0,0,1-2.241-.45,3.546,3.546,0,0,1-1.542-1.234,3.161,3.161,0,0,1-.531-1.816h2.2q0,1.765,2.109,1.765a2.052,2.052,0,0,0,1.223-.319A1.037,1.037,0,0,0,19.313,11.2Zm7.2,2.944a3.89,3.89,0,0,1-2.838-1.069,3.8,3.8,0,0,1-1.095-2.849v-.205a4.787,4.787,0,0,1,.461-2.135,3.386,3.386,0,0,1,1.307-1.45,3.669,3.669,0,0,1,1.93-.509,3.289,3.289,0,0,1,2.56,1.025,4.167,4.167,0,0,1,.934,2.908v.864H24.726a1.966,1.966,0,0,0,.619,1.245,1.871,1.871,0,0,0,1.307.469,2.285,2.285,0,0,0,1.912-.886l1.04,1.165a3.178,3.178,0,0,1-1.289,1.051A4.229,4.229,0,0,1,26.513,14.146Zm-.242-6.511a1.323,1.323,0,0,0-1.022.427,2.209,2.209,0,0,0-.5,1.221h2.944V9.114a1.576,1.576,0,0,0-.381-1.092A1.365,1.365,0,0,0,26.271,7.635ZM33.207,14H31.083V2.75h2.124Zm5.391.146a3.89,3.89,0,0,1-2.838-1.069,3.8,3.8,0,0,1-1.095-2.849v-.205a4.787,4.787,0,0,1,.461-2.135,3.386,3.386,0,0,1,1.307-1.45,3.669,3.669,0,0,1,1.93-.509,3.289,3.289,0,0,1,2.56,1.025,4.167,4.167,0,0,1,.934,2.908v.864H36.811a1.966,1.966,0,0,0,.619,1.245,1.871,1.871,0,0,0,1.307.469,2.285,2.285,0,0,0,1.912-.886l1.04,1.165A3.178,3.178,0,0,1,40.4,13.769,4.229,4.229,0,0,1,38.6,14.146Zm-.242-6.511a1.323,1.323,0,0,0-1.022.427,2.209,2.209,0,0,0-.5,1.221h2.944V9.114A1.576,1.576,0,0,0,39.4,8.021,1.365,1.365,0,0,0,38.356,7.635Zm8,4.8a1.388,1.388,0,0,0,.952-.322,1.129,1.129,0,0,0,.381-.857h1.985a2.715,2.715,0,0,1-.439,1.476,2.9,2.9,0,0,1-1.183,1.04,3.7,3.7,0,0,1-1.659.37,3.44,3.44,0,0,1-2.681-1.08,4.275,4.275,0,0,1-.981-2.985V9.942A4.226,4.226,0,0,1,43.7,7.02a3.4,3.4,0,0,1,2.673-1.091,3.333,3.333,0,0,1,2.384.846,3,3,0,0,1,.912,2.252H47.687a1.455,1.455,0,0,0-.381-1.005,1.416,1.416,0,0,0-2.084.153,3.125,3.125,0,0,0-.377,1.749v.22a3.164,3.164,0,0,0,.374,1.761A1.291,1.291,0,0,0,46.354,12.44Zm7.822,0a1.388,1.388,0,0,0,.952-.322,1.129,1.129,0,0,0,.381-.857h1.985a2.715,2.715,0,0,1-.439,1.476,2.9,2.9,0,0,1-1.183,1.04,3.7,3.7,0,0,1-1.659.37,3.44,3.44,0,0,1-2.681-1.08,4.275,4.275,0,0,1-.981-2.985V9.942a4.226,4.226,0,0,1,.974-2.922A3.4,3.4,0,0,1,54.2,5.929a3.333,3.333,0,0,1,2.384.846,3,3,0,0,1,.912,2.252H55.51a1.455,1.455,0,0,0-.381-1.005,1.416,1.416,0,0,0-2.084.153,3.125,3.125,0,0,0-.377,1.749v.22a3.164,3.164,0,0,0,.374,1.761A1.291,1.291,0,0,0,54.177,12.44ZM60.937,14H58.813V6.075h2.124ZM58.688,4.024a1.042,1.042,0,0,1,.319-.784,1.373,1.373,0,0,1,1.732,0,1.036,1.036,0,0,1,.322.784,1.039,1.039,0,0,1-.326.791,1.358,1.358,0,0,1-1.721,0A1.039,1.039,0,0,1,58.688,4.024Zm3.662,5.94a4.7,4.7,0,0,1,.454-2.1,3.324,3.324,0,0,1,1.307-1.428,3.814,3.814,0,0,1,1.981-.505,3.609,3.609,0,0,1,2.618.981,3.939,3.939,0,0,1,1.132,2.666l.015.542a4.142,4.142,0,0,1-1.018,2.926,3.946,3.946,0,0,1-5.468,0A4.215,4.215,0,0,1,62.35,10.06Zm2.117.15a2.962,2.962,0,0,0,.425,1.727,1.526,1.526,0,0,0,2.417.007,3.241,3.241,0,0,0,.432-1.889,2.933,2.933,0,0,0-.432-1.716,1.4,1.4,0,0,0-1.216-.609,1.382,1.382,0,0,0-1.2.605A3.3,3.3,0,0,0,64.467,10.115ZM73.11,6.075l.066.916a2.767,2.767,0,0,1,2.278-1.062,2.3,2.3,0,0,1,1.875.74,3.451,3.451,0,0,1,.63,2.212V14H75.842V8.92a1.379,1.379,0,0,0-.293-.98,1.31,1.31,0,0,0-.974-.3,1.456,1.456,0,0,0-1.34.763V14H71.117V6.075ZM84.155,14a2.351,2.351,0,0,1-.212-.71,2.561,2.561,0,0,1-2,.857,2.814,2.814,0,0,1-1.93-.674,2.167,2.167,0,0,1-.765-1.7,2.24,2.24,0,0,1,.934-1.934,4.608,4.608,0,0,1,2.7-.681h.974V8.7a1.306,1.306,0,0,0-.282-.879,1.109,1.109,0,0,0-.89-.33,1.261,1.261,0,0,0-.839.256.871.871,0,0,0-.3.7H79.423a2.126,2.126,0,0,1,.425-1.274,2.808,2.808,0,0,1,1.2-.919,4.378,4.378,0,0,1,1.743-.333,3.459,3.459,0,0,1,2.325.736,2.575,2.575,0,0,1,.861,2.069v3.435a3.789,3.789,0,0,0,.315,1.707V14ZM82.4,12.528a1.823,1.823,0,0,0,.864-.209,1.371,1.371,0,0,0,.586-.56V10.4h-.791q-1.589,0-1.692,1.1l-.007.125a.847.847,0,0,0,.278.652A1.081,1.081,0,0,0,82.4,12.528ZM92.057,8.06A5.751,5.751,0,0,0,91.3,8a1.55,1.55,0,0,0-1.575.813V14H87.6V6.075h2l.059.945a1.961,1.961,0,0,1,1.765-1.091,2.218,2.218,0,0,1,.659.1ZM99.045,14H96.921V2.75h2.124Zm1.414-4.036a4.7,4.7,0,0,1,.454-2.1,3.324,3.324,0,0,1,1.307-1.428,3.814,3.814,0,0,1,1.981-.505,3.609,3.609,0,0,1,2.618.981,3.939,3.939,0,0,1,1.132,2.666l.015.542a4.142,4.142,0,0,1-1.018,2.926,3.946,3.946,0,0,1-5.468,0,4.215,4.215,0,0,1-1.022-2.988Zm2.117.15A2.962,2.962,0,0,0,103,11.842a1.526,1.526,0,0,0,2.417.007,3.241,3.241,0,0,0,.432-1.889,2.933,2.933,0,0,0-.432-1.716,1.4,1.4,0,0,0-1.216-.609,1.382,1.382,0,0,0-1.2.605A3.3,3.3,0,0,0,102.575,10.115Zm10.986,1.7a.682.682,0,0,0-.385-.612,4.368,4.368,0,0,0-1.234-.4q-2.827-.593-2.827-2.4a2.178,2.178,0,0,1,.875-1.761,3.531,3.531,0,0,1,2.289-.707,3.8,3.8,0,0,1,2.413.71,2.239,2.239,0,0,1,.9,1.846h-2.117a1.024,1.024,0,0,0-.293-.751,1.24,1.24,0,0,0-.916-.3,1.267,1.267,0,0,0-.828.242.763.763,0,0,0-.293.615.652.652,0,0,0,.333.568,3.428,3.428,0,0,0,1.124.374,9.183,9.183,0,0,1,1.333.355,2.19,2.19,0,0,1,1.677,2.131,2.067,2.067,0,0,1-.93,1.754,4.013,4.013,0,0,1-2.4.67,4.191,4.191,0,0,1-1.769-.355,2.968,2.968,0,0,1-1.212-.974,2.263,2.263,0,0,1-.439-1.337h2.007a1.105,1.105,0,0,0,.417.864,1.656,1.656,0,0,0,1.04.3,1.533,1.533,0,0,0,.919-.231A.718.718,0,0,0,113.561,11.81ZM46.215,27.979a4.776,4.776,0,0,1,.831-2.952,2.7,2.7,0,0,1,2.274-1.1,2.427,2.427,0,0,1,1.912.864V20.75h2.124V32H51.445l-.1-.842a2.491,2.491,0,0,1-2.036.989,2.69,2.69,0,0,1-2.245-1.1A4.93,4.93,0,0,1,46.215,27.979Zm2.117.151a3.146,3.146,0,0,0,.388,1.714,1.263,1.263,0,0,0,1.128.6,1.416,1.416,0,0,0,1.384-.831V26.467a1.4,1.4,0,0,0-1.37-.831Q48.332,25.635,48.332,28.13ZM59.589,32a2.351,2.351,0,0,1-.212-.71,2.561,2.561,0,0,1-2,.857,2.814,2.814,0,0,1-1.93-.674,2.167,2.167,0,0,1-.765-1.7,2.24,2.24,0,0,1,.934-1.934,4.608,4.608,0,0,1,2.7-.681h.974V26.7a1.306,1.306,0,0,0-.282-.879,1.109,1.109,0,0,0-.89-.33,1.261,1.261,0,0,0-.839.256.871.871,0,0,0-.3.7H54.858a2.126,2.126,0,0,1,.425-1.274,2.808,2.808,0,0,1,1.2-.919,4.378,4.378,0,0,1,1.743-.333,3.459,3.459,0,0,1,2.325.736,2.575,2.575,0,0,1,.861,2.069v3.435a3.789,3.789,0,0,0,.315,1.707V32Zm-1.75-1.472a1.823,1.823,0,0,0,.864-.209,1.371,1.371,0,0,0,.586-.56V28.4H58.5q-1.589,0-1.692,1.1l-.007.125a.847.847,0,0,0,.278.652A1.081,1.081,0,0,0,57.839,30.528Zm7.734-8.4v1.948h1.355v1.553H65.573v3.955a.944.944,0,0,0,.168.63.846.846,0,0,0,.645.19,3.376,3.376,0,0,0,.623-.051v1.6a4.358,4.358,0,0,1-1.282.19A2.021,2.021,0,0,1,63.456,29.9v-4.27H62.3V24.075h1.157V22.127Zm1.985,5.837a4.7,4.7,0,0,1,.454-2.1,3.324,3.324,0,0,1,1.307-1.428,3.814,3.814,0,0,1,1.981-.505,3.609,3.609,0,0,1,2.618.981,3.939,3.939,0,0,1,1.132,2.666l.015.542a4.142,4.142,0,0,1-1.018,2.926,3.946,3.946,0,0,1-5.468,0,4.215,4.215,0,0,1-1.022-2.988Zm2.117.15a2.962,2.962,0,0,0,.425,1.727,1.526,1.526,0,0,0,2.417.007,3.241,3.241,0,0,0,.432-1.889,2.933,2.933,0,0,0-.432-1.716,1.4,1.4,0,0,0-1.216-.609,1.382,1.382,0,0,0-1.2.605A3.3,3.3,0,0,0,69.675,28.115Zm10.986,1.7a.682.682,0,0,0-.385-.612,4.368,4.368,0,0,0-1.234-.4q-2.827-.593-2.827-2.4a2.178,2.178,0,0,1,.875-1.761,3.531,3.531,0,0,1,2.289-.707,3.8,3.8,0,0,1,2.413.71,2.239,2.239,0,0,1,.9,1.846H80.58a1.024,1.024,0,0,0-.293-.751,1.24,1.24,0,0,0-.916-.3,1.267,1.267,0,0,0-.828.242.763.763,0,0,0-.293.615.652.652,0,0,0,.333.568,3.428,3.428,0,0,0,1.124.374,9.183,9.183,0,0,1,1.333.355,2.19,2.19,0,0,1,1.677,2.131,2.067,2.067,0,0,1-.93,1.754,4.013,4.013,0,0,1-2.4.67,4.191,4.191,0,0,1-1.769-.355,2.968,2.968,0,0,1-1.212-.974,2.263,2.263,0,0,1-.439-1.337h2.007a1.105,1.105,0,0,0,.417.864,1.656,1.656,0,0,0,1.04.3,1.533,1.533,0,0,0,.919-.231A.718.718,0,0,0,80.661,29.81Z" transform="translate(198 674)" fill="#12263f"/>
  </g>
</svg>
