<svg xmlns="http://www.w3.org/2000/svg" xmlns:xlink="http://www.w3.org/1999/xlink" width="179" height="230" viewBox="0 0 179 230">
  <defs>
    <filter id="Rect치ngulo_37253" x="0" y="0" width="179" height="230" filterUnits="userSpaceOnUse">
      <feOffset dy="3" input="SourceAlpha"/>
      <feGaussianBlur stdDeviation="3" result="blur"/>
      <feFlood flood-opacity="0.161"/>
      <feComposite operator="in" in2="blur"/>
      <feComposite in="SourceGraphic"/>
    </filter>
    <linearGradient id="linear-gradient" x1="0.5" x2="0.5" y2="1" gradientUnits="objectBoundingBox">
      <stop offset="0" stop-color="#067eff"/>
      <stop offset="1" stop-color="#276499"/>
    </linearGradient>
  </defs>
  <g id="Grupo_173801" data-name="Grupo 173801" transform="translate(-349 -565)">
    <g transform="matrix(1, 0, 0, 1, 349, 565)" filter="url(#Rect치ngulo_37253)">
      <rect id="Rect치ngulo_37253-2" data-name="Rect치ngulo 37253" width="161" height="212" rx="10" transform="translate(9 6)" fill="#fff"/>
    </g>
    <g id="Grupo_171304" data-name="Grupo 171304" transform="translate(401.08 589.9)">
      <ellipse id="Elipse_4775" data-name="Elipse 4775" cx="35" cy="35.5" rx="35" ry="35.5" transform="translate(-0.08 -0.9)" fill="url(#linear-gradient)"/>
      <g id="XVCVLu.tif" transform="translate(1606.852 740.12)">
        <g id="Grupo_155562" data-name="Grupo 155562" transform="translate(-1595.63 -729.189)">
          <path id="Trazado_197582" data-name="Trazado 197582" d="M-1548.677-681.477h-16.934v-7.707h1.5a2.924,2.924,0,0,0-.566-2.446,4.578,4.578,0,0,1-3.385.925c-1.571-.034-3.143-.008-4.714-.008h-.494v1.543h.663a3.069,3.069,0,0,1,3.1,2.488,1.611,1.611,0,0,1-1.693,2.125h-.914q-7.841,0-15.682,0a1.533,1.533,0,0,1-1.671-1.715,3.079,3.079,0,0,1,2.875-2.894c.314-.01.629,0,.935,0v-1.545h-5.518c-2.5,0-3.6-.778-4.418-3.14,0-.013-.023-.022-.035-.032v-16.737a.449.449,0,0,0,.079-.115,3.826,3.826,0,0,1,4.032-3.057c2.98,0,5.96,0,8.94-.009a.8.8,0,0,0,.573-.216,7.333,7.333,0,0,1,3.033-2.362.474.474,0,0,0,.266-.32c.017-1.345.021-2.691,0-4.036a.7.7,0,0,0-.691-.735c-.793-.038-1.589-.011-2.389-.011-.034.139-.064.23-.079.323a6.965,6.965,0,0,1-6.27,5.816,6.972,6.972,0,0,1-7.271-5.124c-.082-.307-.149-.617-.223-.926v-1.731a2.764,2.764,0,0,0,.1-.316,6.914,6.914,0,0,1,6.97-5.742,6.908,6.908,0,0,1,6.686,5.785c.052.31.181.385.471.377.625-.019,1.25-.008,1.875-.005a2.281,2.281,0,0,1,2.372,2.352c0,1.122,0,2.244,0,3.366,0,.139.016.278.024.412h1.518c0-.528,0-1.023,0-1.518a2.255,2.255,0,0,1,1.71-2.22,3.021,3.021,0,0,1,.758-.08c1.47-.007,2.941,0,4.459,0,0-.361.02-.679-.006-.993s.088-.42.381-.48c.469-.1.929-.236,1.388-.373a.543.543,0,0,0,.332-.825c-.24-.434-.481-.869-.743-1.29a.365.365,0,0,1,.07-.536q1.289-1.262,2.55-2.55a.365.365,0,0,1,.538-.06c.408.253.828.485,1.248.719a.55.55,0,0,0,.875-.367c.136-.476.244-.961.4-1.429a.479.479,0,0,1,.349-.267q1.851-.029,3.7,0a.479.479,0,0,1,.346.27c.159.468.267.953.4,1.429a.549.549,0,0,0,.876.361c.42-.234.84-.466,1.249-.717a.366.366,0,0,1,.538.061q1.26,1.29,2.55,2.551a.365.365,0,0,1,.065.537c-.253.408-.484.829-.718,1.248a.549.549,0,0,0,.359.877c.476.136.961.245,1.43.4a.479.479,0,0,1,.272.345q.03,1.851,0,3.7a.526.526,0,0,1-.312.358c-.452.158-.922.262-1.382.395a.55.55,0,0,0-.368.874c.241.433.506.855.725,1.3a.485.485,0,0,1-.043.44q-1.287,1.33-2.618,2.618a.485.485,0,0,1-.439.055c-.431-.208-.831-.484-1.264-.687a1,1,0,0,0-.6-.036c-.517.114-.66.45-.629.98.054.9.015,1.808.015,2.75a2.416,2.416,0,0,1,2.318.453,2.312,2.312,0,0,1,2.18-.483,2.466,2.466,0,0,1,1.6,1.569,2.425,2.425,0,0,1,3.166,2.518c-.09,3.2-.016,6.41-.038,9.615a7.062,7.062,0,0,1-.235,1.653,6.372,6.372,0,0,1-1.574,2.61,2.313,2.313,0,0,0-.46,1.958h1.511Zm-14.469-16.944c-.029-.114-.051-.188-.066-.263-.317-1.567-.627-3.135-.953-4.7a3.387,3.387,0,0,0-2.985-2.711c-.228-.013-.568.046-.665.195s.035.474.158.663a7.12,7.12,0,0,1,1.346,2.733c.161,1.043.244,2.1.414,3.141a12.375,12.375,0,0,0,.59,2.7c.624,1.521,1.382,2.991,2.15,4.448a4.5,4.5,0,0,1,.625,2.7,1.549,1.549,0,0,0,.026.317h10.751a3.409,3.409,0,0,0,0-.461,2.684,2.684,0,0,1,.8-2.391,8.84,8.84,0,0,0,.78-1.035,3.782,3.782,0,0,0,.729-2.246q.015-4.9,0-9.809c0-.589-.322-.964-.788-.951-.449.013-.744.376-.752.939-.006.443,0,.886,0,1.327h-1.536v-.514c0-.785,0-1.571,0-2.356,0-.561-.306-.925-.755-.935-.466-.011-.777.364-.785.954-.005.385,0,.769,0,1.154v1.708h-1.537c0-1.014.011-2,0-2.993a.787.787,0,0,0-.766-.824.789.789,0,0,0-.765.825c-.017.7-.005,1.41-.006,2.115v.871h-1.536v-11.8c0-.112,0-.224,0-.336-.017-.553-.332-.917-.784-.908a.815.815,0,0,0-.757.886c0,.128,0,.256,0,.385,0,4.456-.033,8.911.021,13.366a6.616,6.616,0,0,1-.962,3.551.527.527,0,0,1-.343.25C-1562.05-698.406-1562.593-698.421-1563.146-698.421Zm-4.772,3.077c0-1.813-.071-3.577.022-5.333a5.5,5.5,0,0,0-1.134-3.838,1.905,1.905,0,0,1,.851-3.044c.1-.048.243-.15.247-.233.024-.456.012-.914.012-1.39-.454,0-.839.018-1.221-.006-.3-.019-.375.113-.419.379a7,7,0,0,1-6.4,5.79,6.992,6.992,0,0,1-7.165-5.332c-.062-.273-.124-.547-.182-.8h-7.672v13.806Zm-15.034-16.916h-.492q-4.04,0-8.08,0a2.352,2.352,0,0,0-2.568,2.57q0,7.429,0,14.857a2.36,2.36,0,0,0,2.6,2.583q4.665,0,9.33,0,7.382,0,14.765,0a2.364,2.364,0,0,0,1.789-.671.551.551,0,0,0,.11-.482c-.247-.582-.541-1.145-.846-1.771a1.641,1.641,0,0,1-1.632,1.378q-11.494,0-22.988,0a1.505,1.505,0,0,1-1.589-1.6q0-6.852,0-13.7a1.518,1.518,0,0,1,1.624-1.617q3.535,0,7.07,0h.538Zm15.811-6.756a6.311,6.311,0,0,0,.767.213c.635.094,1.093.344,1.2,1.055a1.957,1.957,0,0,0,.316.7.591.591,0,0,1-.027.7c-.236.374-.44.769-.624,1.1l1.289,1.363a22.6,22.6,0,0,1,2.463-.447c0-.323-.024-.645.006-.962a.968.968,0,0,0-.469-.982,4.554,4.554,0,0,1-1.394-5.67,4.576,4.576,0,0,1,5.3-2.48,4.42,4.42,0,0,1,3.416,3.747,4.453,4.453,0,0,1-1.874,4.5c-.149.114-.336.285-.352.445-.047.472-.017.951-.017,1.479a1.865,1.865,0,0,0,.387-.172.829.829,0,0,1,1.125.036,8.417,8.417,0,0,0,.9.51l1.366-1.329a7.368,7.368,0,0,0-.45-.784,1.053,1.053,0,0,1-.067-1.386,2.29,2.29,0,0,0,.3-.754.627.627,0,0,1,.528-.524c.433-.091.857-.231,1.289-.351v-1.853c-.052-.024-.092-.046-.135-.061a1.411,1.411,0,0,0-.275-.083c-.853-.1-1.505-.428-1.645-1.387-.026-.181-.194-.339-.234-.522a.952.952,0,0,1,.017-.563c.2-.417.446-.809.725-1.3a12.455,12.455,0,0,1-.989-.908c-.273-.306-.508-.37-.839-.111a1.5,1.5,0,0,1-2.02.161c-.17-.129-.428-.136-.621-.244a.725.725,0,0,1-.321-.347c-.16-.462-.28-.939-.418-1.419h-1.865a4.426,4.426,0,0,0-.158.58,1.442,1.442,0,0,1-1.281,1.455,1.408,1.408,0,0,0-.517.246.591.591,0,0,1-.705-.01c-.378-.232-.812-.623-1.168-.571s-.636.586-.985.862a.512.512,0,0,0-.09.838,1.5,1.5,0,0,1,.143,2.021,1.346,1.346,0,0,0-.181.492.581.581,0,0,1-.5.489c-.445.093-.88.239-1.308.359Zm16.9,31.415h-13.8v4.561h13.8Zm-34.023-31.727a5.235,5.235,0,0,0-.714-6.8,5.345,5.345,0,0,0-7.494.035,5.223,5.223,0,0,0-.679,6.763l2.054-1.739c-1.008-1.584-.909-3.114.3-4.228a3.077,3.077,0,0,1,3.967-.182,2.993,2.993,0,0,1,1.135,1.783,3.042,3.042,0,0,1-.621,2.618Zm12.313,12.309a5.237,5.237,0,0,0-.846-6.922,5.359,5.359,0,0,0-7.713.542c-1.79,2.091-1.483,5.13-.31,6.364l2.034-1.719c-1.007-1.644-.9-3.15.328-4.256a3.083,3.083,0,0,1,3.97-.132c1.333,1.033,1.488,2.518.5,4.393Zm3.233-12.161c-1.558,0-3.093-.014-4.628.009-.458.007-.722.35-.735.85-.013.481.017.963-.01,1.442a.494.494,0,0,0,.381.559,6.987,6.987,0,0,1,2.864,2.2.923.923,0,0,0,.619.312c1.277.029,2.555.014,3.925.014-.335-.312-.642-.612-.966-.893a.354.354,0,0,1-.071-.536,11.858,11.858,0,0,0,.707-1.253c.08-.172.11-.514.013-.591a3.006,3.006,0,0,0-.87-.409c-.374-.134-.9-.125-1.1-.381s-.082-.757-.1-1.152C-1568.693-719.043-1568.7-719.074-1568.713-719.18Zm11.117,1.638a3.013,3.013,0,0,0,1.014-3.5,3.112,3.112,0,0,0-3.045-1.985,3.116,3.116,0,0,0-2.8,2.314,2.908,2.908,0,0,0,1.151,3.147A2.382,2.382,0,0,1-1557.6-717.542Zm-13.426,31.435a1.54,1.54,0,0,0-1.709-1.527q-5.529,0-11.058,0c-.849,0-1.7-.011-2.548,0a1.468,1.468,0,0,0-1.541,1.525Zm7.016-26.068a4.175,4.175,0,0,1,.71,2.515c-.028,1.121.006,2.243-.012,3.364a2.949,2.949,0,0,0,.337,1.608,3.623,3.623,0,0,1,.336,1.043c.218,1,.411,2,.615,2.995h.122a5.307,5.307,0,0,0,.131-.832q.014-5.359.005-10.717c0-.351-.73-.817-1.047-.657C-1563.205-712.654-1563.583-712.417-1564.007-712.174Zm-20.057,22.97h9.179v-1.482h-9.179ZM-1592-718.058a5.177,5.177,0,0,0,6.583-.036,3.719,3.719,0,0,0-3.364-1.847A3.71,3.71,0,0,0-1592-718.058Zm18.918,12.312a3.722,3.722,0,0,0-3.412-1.881,3.68,3.68,0,0,0-3.182,1.872A5.256,5.256,0,0,0-1573.086-705.745Zm8.246-1.207c0-.919,0-1.814,0-2.708a4.282,4.282,0,0,0-.013-.48,2.209,2.209,0,0,0-1.956-2.06,29.467,29.467,0,0,0-3-.022c.09.424.156.835.276,1.229a.479.479,0,0,0,.347.264c.43.033.865.006,1.3.015a1.508,1.508,0,0,1,1.5,1.5c.01.465-.013.93.013,1.394a.478.478,0,0,0,.221.347C-1565.749-707.29-1565.328-707.143-1564.839-706.952Zm-22.325-16.091a1.578,1.578,0,0,0-1.55-1.526,1.581,1.581,0,0,0-1.526,1.549,1.579,1.579,0,0,0,1.549,1.527A1.58,1.58,0,0,0-1587.164-723.044Zm12.315,12.3a1.578,1.578,0,0,0-1.562-1.514,1.584,1.584,0,0,0-1.514,1.561,1.578,1.578,0,0,0,1.561,1.515A1.58,1.58,0,0,0-1574.849-710.743Z" transform="translate(1595.63 729.189)" fill="#fff"/>
          <path id="Trazado_197583" data-name="Trazado 197583" d="M-1525.243-502.247h1.53v6.112h1.549v-3.008h1.547v3.017h1.532v-1.486h1.53v1.478h1.549v-3.008h1.547v3.03h1.512v1.52h-18.4v-10.715h1.477v9.174h1.549v-7.626h1.547v7.634h1.532Z" transform="translate(1537.543 526.886)" fill="#fff"/>
        </g>
      </g>
    </g>
    <path id="Trazado_214863" data-name="Trazado 214863" d="M11.725,10.448a3.774,3.774,0,0,1-1.271,2.71,4.463,4.463,0,0,1-3.021.989,4.013,4.013,0,0,1-3.226-1.381,5.661,5.661,0,0,1-1.176-3.79V8.324a6.393,6.393,0,0,1,.542-2.71,4.062,4.062,0,0,1,1.549-1.8,4.339,4.339,0,0,1,2.34-.626,4.348,4.348,0,0,1,2.974.989,4.055,4.055,0,0,1,1.3,2.776h-2.2a2.227,2.227,0,0,0-.575-1.5,2.129,2.129,0,0,0-1.505-.465,1.867,1.867,0,0,0-1.644.787,4.413,4.413,0,0,0-.56,2.443v.806a4.723,4.723,0,0,0,.524,2.527,1.832,1.832,0,0,0,1.652.8,2.169,2.169,0,0,0,1.52-.465,2.1,2.1,0,0,0,.575-1.439ZM17.482,8.06A5.751,5.751,0,0,0,16.72,8a1.55,1.55,0,0,0-1.575.813V14H13.029V6.075h2l.059.945a1.961,1.961,0,0,1,1.765-1.091,2.218,2.218,0,0,1,.659.1Zm4.526,6.086a3.89,3.89,0,0,1-2.838-1.069,3.8,3.8,0,0,1-1.095-2.849v-.205a4.787,4.787,0,0,1,.461-2.135,3.386,3.386,0,0,1,1.307-1.45,3.669,3.669,0,0,1,1.93-.509,3.289,3.289,0,0,1,2.56,1.025,4.167,4.167,0,0,1,.934,2.908v.864H20.221a1.966,1.966,0,0,0,.619,1.245,1.871,1.871,0,0,0,1.307.469,2.285,2.285,0,0,0,1.912-.886l1.04,1.165a3.178,3.178,0,0,1-1.289,1.051A4.229,4.229,0,0,1,22.009,14.146Zm-.242-6.511a1.323,1.323,0,0,0-1.022.427,2.209,2.209,0,0,0-.5,1.221h2.944V9.114a1.576,1.576,0,0,0-.381-1.092A1.365,1.365,0,0,0,21.767,7.635ZM31.061,14a2.351,2.351,0,0,1-.212-.71,2.561,2.561,0,0,1-2,.857,2.814,2.814,0,0,1-1.93-.674,2.167,2.167,0,0,1-.765-1.7,2.24,2.24,0,0,1,.934-1.934,4.608,4.608,0,0,1,2.7-.681h.974V8.7a1.306,1.306,0,0,0-.282-.879,1.109,1.109,0,0,0-.89-.33,1.261,1.261,0,0,0-.839.256.871.871,0,0,0-.3.7H26.33a2.126,2.126,0,0,1,.425-1.274,2.808,2.808,0,0,1,1.2-.919A4.378,4.378,0,0,1,29.7,5.929a3.459,3.459,0,0,1,2.325.736,2.575,2.575,0,0,1,.861,2.069v3.435a3.789,3.789,0,0,0,.315,1.707V14Zm-1.75-1.472a1.823,1.823,0,0,0,.864-.209,1.371,1.371,0,0,0,.586-.56V10.4H29.97q-1.589,0-1.692,1.1l-.007.125a.847.847,0,0,0,.278.652A1.081,1.081,0,0,0,29.311,12.528ZM38.964,8.06A5.751,5.751,0,0,0,38.2,8a1.55,1.55,0,0,0-1.575.813V14H34.511V6.075h2l.059.945a1.961,1.961,0,0,1,1.765-1.091,2.218,2.218,0,0,1,.659.1ZM45.951,14H43.827V2.75h2.124Zm6.335,0a2.351,2.351,0,0,1-.212-.71,2.561,2.561,0,0,1-2,.857,2.814,2.814,0,0,1-1.93-.674,2.167,2.167,0,0,1-.765-1.7,2.24,2.24,0,0,1,.934-1.934,4.608,4.608,0,0,1,2.7-.681h.974V8.7a1.306,1.306,0,0,0-.282-.879,1.109,1.109,0,0,0-.89-.33,1.261,1.261,0,0,0-.839.256.871.871,0,0,0-.3.7H47.555a2.126,2.126,0,0,1,.425-1.274,2.808,2.808,0,0,1,1.2-.919,4.378,4.378,0,0,1,1.743-.333,3.459,3.459,0,0,1,2.325.736,2.575,2.575,0,0,1,.861,2.069v3.435a3.789,3.789,0,0,0,.315,1.707V14Zm-1.75-1.472a1.823,1.823,0,0,0,.864-.209,1.371,1.371,0,0,0,.586-.56V10.4H51.2q-1.589,0-1.692,1.1l-.007.125a.847.847,0,0,0,.278.652A1.081,1.081,0,0,0,50.536,12.528Zm12.583,1.619a3.89,3.89,0,0,1-2.838-1.069,3.8,3.8,0,0,1-1.095-2.849v-.205a4.787,4.787,0,0,1,.461-2.135,3.386,3.386,0,0,1,1.307-1.45,3.669,3.669,0,0,1,1.93-.509,3.289,3.289,0,0,1,2.56,1.025,4.167,4.167,0,0,1,.934,2.908v.864H61.332a1.966,1.966,0,0,0,.619,1.245,1.871,1.871,0,0,0,1.307.469,2.285,2.285,0,0,0,1.912-.886l1.04,1.165a3.178,3.178,0,0,1-1.289,1.051A4.229,4.229,0,0,1,63.119,14.146Zm-.242-6.511a1.323,1.323,0,0,0-1.022.427,2.209,2.209,0,0,0-.5,1.221H64.3V9.114a1.576,1.576,0,0,0-.381-1.092A1.365,1.365,0,0,0,62.878,7.635Zm8.994,4.175a.682.682,0,0,0-.385-.612,4.368,4.368,0,0,0-1.234-.4q-2.827-.593-2.827-2.4A2.178,2.178,0,0,1,68.3,6.635a3.531,3.531,0,0,1,2.289-.707A3.8,3.8,0,0,1,73,6.639a2.239,2.239,0,0,1,.9,1.846H71.791a1.024,1.024,0,0,0-.293-.751,1.24,1.24,0,0,0-.916-.3,1.267,1.267,0,0,0-.828.242.763.763,0,0,0-.293.615.652.652,0,0,0,.333.568,3.428,3.428,0,0,0,1.124.374,9.183,9.183,0,0,1,1.333.355,2.19,2.19,0,0,1,1.677,2.131A2.067,2.067,0,0,1,73,13.476a4.013,4.013,0,0,1-2.4.67,4.191,4.191,0,0,1-1.769-.355,2.968,2.968,0,0,1-1.212-.974,2.263,2.263,0,0,1-.439-1.337h2.007a1.105,1.105,0,0,0,.417.864,1.656,1.656,0,0,0,1.04.3,1.533,1.533,0,0,0,.919-.231A.718.718,0,0,0,71.872,11.81Zm5.955-7.683V6.075h1.355V7.628H77.826v3.955a.944.944,0,0,0,.168.63.846.846,0,0,0,.645.19,3.376,3.376,0,0,0,.623-.051v1.6a4.358,4.358,0,0,1-1.282.19A2.021,2.021,0,0,1,75.71,11.9V7.628H74.552V6.075H75.71V4.127ZM84.814,8.06A5.751,5.751,0,0,0,84.052,8a1.55,1.55,0,0,0-1.575.813V14H80.361V6.075h2l.059.945a1.961,1.961,0,0,1,1.765-1.091,2.218,2.218,0,0,1,.659.1ZM90.2,14a2.351,2.351,0,0,1-.212-.71,2.561,2.561,0,0,1-2,.857,2.814,2.814,0,0,1-1.93-.674,2.167,2.167,0,0,1-.765-1.7,2.24,2.24,0,0,1,.934-1.934,4.608,4.608,0,0,1,2.7-.681H89.9V8.7a1.306,1.306,0,0,0-.282-.879,1.109,1.109,0,0,0-.89-.33,1.261,1.261,0,0,0-.839.256.871.871,0,0,0-.3.7H85.473A2.126,2.126,0,0,1,85.9,7.181a2.808,2.808,0,0,1,1.2-.919,4.378,4.378,0,0,1,1.743-.333,3.459,3.459,0,0,1,2.325.736,2.575,2.575,0,0,1,.861,2.069v3.435a3.789,3.789,0,0,0,.315,1.707V14Zm-1.75-1.472a1.823,1.823,0,0,0,.864-.209,1.371,1.371,0,0,0,.586-.56V10.4h-.791q-1.589,0-1.692,1.1l-.007.125a.847.847,0,0,0,.278.652A1.081,1.081,0,0,0,88.454,12.528Zm7.734-8.4V6.075h1.355V7.628H96.188v3.955a.944.944,0,0,0,.168.63A.846.846,0,0,0,97,12.4a3.376,3.376,0,0,0,.623-.051v1.6a4.358,4.358,0,0,1-1.282.19A2.021,2.021,0,0,1,94.072,11.9V7.628H92.914V6.075h1.157V4.127Zm6.182,10.02a3.89,3.89,0,0,1-2.838-1.069,3.8,3.8,0,0,1-1.095-2.849v-.205A4.787,4.787,0,0,1,98.9,7.888a3.386,3.386,0,0,1,1.307-1.45,3.669,3.669,0,0,1,1.93-.509,3.289,3.289,0,0,1,2.56,1.025,4.167,4.167,0,0,1,.934,2.908v.864h-5.046a1.966,1.966,0,0,0,.619,1.245,1.871,1.871,0,0,0,1.307.469,2.285,2.285,0,0,0,1.912-.886l1.04,1.165a3.178,3.178,0,0,1-1.289,1.051A4.229,4.229,0,0,1,102.37,14.146Zm-.242-6.511a1.323,1.323,0,0,0-1.022.427,2.209,2.209,0,0,0-.5,1.221h2.944V9.114a1.576,1.576,0,0,0-.381-1.092A1.365,1.365,0,0,0,102.128,7.635Zm4.395,2.344a4.644,4.644,0,0,1,.868-2.937,2.812,2.812,0,0,1,2.34-1.113,2.466,2.466,0,0,1,2.029.894l.088-.747h1.919v7.661a3.387,3.387,0,0,1-.472,1.809,3.034,3.034,0,0,1-1.329,1.172,4.673,4.673,0,0,1-2.007.4,4.346,4.346,0,0,1-1.7-.348,3.016,3.016,0,0,1-1.252-.9l.938-1.289a2.48,2.48,0,0,0,1.919.886,1.815,1.815,0,0,0,1.311-.45,1.69,1.69,0,0,0,.469-1.278v-.425a2.448,2.448,0,0,1-1.926.828,2.8,2.8,0,0,1-2.311-1.117,4.643,4.643,0,0,1-.883-2.963Zm2.117.151a2.907,2.907,0,0,0,.432,1.7,1.373,1.373,0,0,0,1.187.614,1.469,1.469,0,0,0,1.384-.728V8.364a1.465,1.465,0,0,0-1.37-.728,1.382,1.382,0,0,0-1.2.625A3.278,3.278,0,0,0,108.639,10.13ZM117.626,14H115.5V6.075h2.124Zm-2.249-9.976a1.042,1.042,0,0,1,.319-.784,1.373,1.373,0,0,1,1.732,0,1.036,1.036,0,0,1,.322.784,1.039,1.039,0,0,1-.326.791,1.358,1.358,0,0,1-1.721,0A1.039,1.039,0,0,1,115.378,4.024ZM123.962,14a2.351,2.351,0,0,1-.212-.71,2.561,2.561,0,0,1-2,.857,2.814,2.814,0,0,1-1.93-.674,2.167,2.167,0,0,1-.765-1.7,2.24,2.24,0,0,1,.934-1.934,4.608,4.608,0,0,1,2.7-.681h.974V8.7a1.306,1.306,0,0,0-.282-.879,1.109,1.109,0,0,0-.89-.33,1.261,1.261,0,0,0-.839.256.871.871,0,0,0-.3.7H119.23a2.126,2.126,0,0,1,.425-1.274,2.808,2.808,0,0,1,1.2-.919,4.378,4.378,0,0,1,1.743-.333,3.459,3.459,0,0,1,2.325.736,2.575,2.575,0,0,1,.861,2.069v3.435a3.789,3.789,0,0,0,.315,1.707V14Zm-1.75-1.472a1.823,1.823,0,0,0,.864-.209,1.371,1.371,0,0,0,.586-.56V10.4h-.791q-1.589,0-1.692,1.1l-.007.125a.847.847,0,0,0,.278.652A1.081,1.081,0,0,0,122.211,12.528ZM16.116,27.979a4.776,4.776,0,0,1,.831-2.952,2.7,2.7,0,0,1,2.274-1.1,2.427,2.427,0,0,1,1.912.864V20.75h2.124V32H21.346l-.1-.842a2.491,2.491,0,0,1-2.036.989,2.69,2.69,0,0,1-2.245-1.1A4.93,4.93,0,0,1,16.116,27.979Zm2.117.151a3.146,3.146,0,0,0,.388,1.714,1.263,1.263,0,0,0,1.128.6,1.416,1.416,0,0,0,1.384-.831V26.467a1.4,1.4,0,0,0-1.37-.831Q18.233,25.635,18.233,28.13Zm10.313,4.017a3.89,3.89,0,0,1-2.838-1.069,3.8,3.8,0,0,1-1.095-2.849v-.205a4.787,4.787,0,0,1,.461-2.135,3.386,3.386,0,0,1,1.307-1.45,3.669,3.669,0,0,1,1.93-.509,3.289,3.289,0,0,1,2.56,1.025,4.167,4.167,0,0,1,.934,2.908v.864H26.758a1.966,1.966,0,0,0,.619,1.245,1.871,1.871,0,0,0,1.307.469,2.285,2.285,0,0,0,1.912-.886l1.04,1.165a3.178,3.178,0,0,1-1.289,1.051A4.229,4.229,0,0,1,28.545,32.146ZM28.3,25.635a1.323,1.323,0,0,0-1.022.427,2.209,2.209,0,0,0-.5,1.221h2.944v-.169a1.576,1.576,0,0,0-.381-1.092A1.365,1.365,0,0,0,28.3,25.635ZM38.975,32H36.851V20.75h2.124Zm3.977,0H40.828V24.075h2.124ZM40.7,22.024a1.042,1.042,0,0,1,.319-.784,1.373,1.373,0,0,1,1.732,0,1.118,1.118,0,0,1,0,1.575,1.358,1.358,0,0,1-1.721,0A1.039,1.039,0,0,1,40.7,22.024Zm5.977,2.051.066.886a2.785,2.785,0,0,1,2.278-1.033,2.114,2.114,0,0,1,2.1,1.208,2.721,2.721,0,0,1,2.38-1.208,2.364,2.364,0,0,1,1.919.751,3.451,3.451,0,0,1,.63,2.26V32H53.931V26.935a1.515,1.515,0,0,0-.264-.987,1.167,1.167,0,0,0-.93-.312,1.321,1.321,0,0,0-1.318.91L51.426,32H49.31V26.942a1.5,1.5,0,0,0-.271-1,1.178,1.178,0,0,0-.923-.308,1.371,1.371,0,0,0-1.3.749V32H44.7V24.075Zm18.135,4.036a4.753,4.753,0,0,1-.831,2.933,2.665,2.665,0,0,1-2.245,1.1,2.469,2.469,0,0,1-1.941-.835v3.735H57.681V24.075h1.963l.073.776a2.488,2.488,0,0,1,2.007-.923A2.683,2.683,0,0,1,64,25.013,4.882,4.882,0,0,1,64.815,28ZM62.7,27.949a3.136,3.136,0,0,0-.392-1.712,1.275,1.275,0,0,0-1.139-.6,1.385,1.385,0,0,0-1.37.764v3.255a1.409,1.409,0,0,0,1.384.786Q62.7,30.44,62.7,27.949ZM68.36,32H66.236V24.075H68.36Zm-2.249-9.976a1.042,1.042,0,0,1,.319-.784,1.373,1.373,0,0,1,1.732,0,1.118,1.118,0,0,1,0,1.575,1.358,1.358,0,0,1-1.721,0A1.039,1.039,0,0,1,66.111,22.024ZM73.75,32.146a3.89,3.89,0,0,1-2.838-1.069,3.8,3.8,0,0,1-1.095-2.849v-.205a4.787,4.787,0,0,1,.461-2.135,3.386,3.386,0,0,1,1.307-1.45,3.669,3.669,0,0,1,1.93-.509,3.289,3.289,0,0,1,2.56,1.025,4.167,4.167,0,0,1,.934,2.908v.864H71.963a1.966,1.966,0,0,0,.619,1.245,1.871,1.871,0,0,0,1.307.469,2.285,2.285,0,0,0,1.912-.886l1.04,1.165a3.178,3.178,0,0,1-1.289,1.051A4.229,4.229,0,0,1,73.75,32.146Zm-.242-6.511a1.323,1.323,0,0,0-1.022.427,2.209,2.209,0,0,0-.5,1.221H74.93v-.169a1.576,1.576,0,0,0-.381-1.092A1.365,1.365,0,0,0,73.509,25.635Zm7.134,4.658h3.875V32H77.94V30.711l3.728-4.929H78.05V24.075H84.4v1.247ZM90.435,32a2.351,2.351,0,0,1-.212-.71,2.561,2.561,0,0,1-2,.857,2.814,2.814,0,0,1-1.93-.674,2.167,2.167,0,0,1-.765-1.7,2.24,2.24,0,0,1,.934-1.934,4.608,4.608,0,0,1,2.7-.681h.974V26.7a1.306,1.306,0,0,0-.282-.879,1.109,1.109,0,0,0-.89-.33,1.261,1.261,0,0,0-.839.256.871.871,0,0,0-.3.7H85.7a2.126,2.126,0,0,1,.425-1.274,2.808,2.808,0,0,1,1.2-.919,4.378,4.378,0,0,1,1.743-.333,3.459,3.459,0,0,1,2.325.736,2.575,2.575,0,0,1,.861,2.069v3.435a3.789,3.789,0,0,0,.315,1.707V32Zm-1.75-1.472a1.823,1.823,0,0,0,.864-.209,1.371,1.371,0,0,0,.586-.56V28.4h-.791q-1.589,0-1.692,1.1l-.007.125a.847.847,0,0,0,.278.652A1.081,1.081,0,0,0,88.685,30.528Zm8.606-2.549a4.776,4.776,0,0,1,.831-2.952,2.7,2.7,0,0,1,2.274-1.1,2.427,2.427,0,0,1,1.912.864V20.75h2.124V32H102.52l-.1-.842a2.491,2.491,0,0,1-2.036.989,2.69,2.69,0,0,1-2.245-1.1A4.93,4.93,0,0,1,97.291,27.979Zm2.117.151a3.146,3.146,0,0,0,.388,1.714,1.263,1.263,0,0,0,1.128.6,1.416,1.416,0,0,0,1.384-.831V26.467a1.4,1.4,0,0,0-1.37-.831Q99.407,25.635,99.407,28.13Zm10.313,4.017a3.89,3.89,0,0,1-2.838-1.069,3.8,3.8,0,0,1-1.095-2.849v-.205a4.787,4.787,0,0,1,.461-2.135,3.386,3.386,0,0,1,1.307-1.45,3.669,3.669,0,0,1,1.93-.509,3.289,3.289,0,0,1,2.56,1.025,4.167,4.167,0,0,1,.934,2.908v.864h-5.046a1.966,1.966,0,0,0,.619,1.245,1.871,1.871,0,0,0,1.307.469,2.285,2.285,0,0,0,1.912-.886l1.04,1.165a3.178,3.178,0,0,1-1.289,1.051A4.229,4.229,0,0,1,109.72,32.146Zm-.242-6.511a1.323,1.323,0,0,0-1.022.427,2.209,2.209,0,0,0-.5,1.221H110.9v-.169a1.576,1.576,0,0,0-.381-1.092A1.365,1.365,0,0,0,109.478,25.635ZM46.215,45.979a4.776,4.776,0,0,1,.831-2.952,2.7,2.7,0,0,1,2.274-1.1,2.427,2.427,0,0,1,1.912.864V38.75h2.124V50H51.445l-.1-.842a2.491,2.491,0,0,1-2.036.989,2.69,2.69,0,0,1-2.245-1.1A4.93,4.93,0,0,1,46.215,45.979Zm2.117.151a3.146,3.146,0,0,0,.388,1.714,1.263,1.263,0,0,0,1.128.6,1.416,1.416,0,0,0,1.384-.831V44.467a1.4,1.4,0,0,0-1.37-.831Q48.332,43.635,48.332,46.13ZM59.589,50a2.351,2.351,0,0,1-.212-.71,2.561,2.561,0,0,1-2,.857,2.814,2.814,0,0,1-1.93-.674,2.167,2.167,0,0,1-.765-1.7,2.24,2.24,0,0,1,.934-1.934,4.608,4.608,0,0,1,2.7-.681h.974V44.7a1.306,1.306,0,0,0-.282-.879,1.109,1.109,0,0,0-.89-.33,1.261,1.261,0,0,0-.839.256.871.871,0,0,0-.3.7H54.858a2.126,2.126,0,0,1,.425-1.274,2.808,2.808,0,0,1,1.2-.919,4.378,4.378,0,0,1,1.743-.333,3.459,3.459,0,0,1,2.325.736,2.575,2.575,0,0,1,.861,2.069v3.435a3.789,3.789,0,0,0,.315,1.707V50Zm-1.75-1.472a1.823,1.823,0,0,0,.864-.209,1.371,1.371,0,0,0,.586-.56V46.4H58.5q-1.589,0-1.692,1.1l-.007.125a.847.847,0,0,0,.278.652A1.081,1.081,0,0,0,57.839,48.528Zm7.734-8.4v1.948h1.355v1.553H65.573v3.955a.944.944,0,0,0,.168.63.846.846,0,0,0,.645.19,3.376,3.376,0,0,0,.623-.051v1.6a4.358,4.358,0,0,1-1.282.19A2.021,2.021,0,0,1,63.456,47.9v-4.27H62.3V42.075h1.157V40.127Zm1.985,5.837a4.7,4.7,0,0,1,.454-2.1,3.324,3.324,0,0,1,1.307-1.428,3.814,3.814,0,0,1,1.981-.505,3.609,3.609,0,0,1,2.618.981,3.939,3.939,0,0,1,1.132,2.666l.015.542a4.142,4.142,0,0,1-1.018,2.926,3.946,3.946,0,0,1-5.468,0,4.215,4.215,0,0,1-1.022-2.988Zm2.117.15a2.962,2.962,0,0,0,.425,1.727,1.526,1.526,0,0,0,2.417.007,3.241,3.241,0,0,0,.432-1.889,2.933,2.933,0,0,0-.432-1.716,1.4,1.4,0,0,0-1.216-.609,1.382,1.382,0,0,0-1.2.605A3.3,3.3,0,0,0,69.675,46.115Zm10.986,1.7a.682.682,0,0,0-.385-.612,4.368,4.368,0,0,0-1.234-.4q-2.827-.593-2.827-2.4a2.178,2.178,0,0,1,.875-1.761,3.531,3.531,0,0,1,2.289-.707,3.8,3.8,0,0,1,2.413.71,2.239,2.239,0,0,1,.9,1.846H80.58a1.024,1.024,0,0,0-.293-.751,1.24,1.24,0,0,0-.916-.3,1.267,1.267,0,0,0-.828.242.763.763,0,0,0-.293.615.652.652,0,0,0,.333.568,3.428,3.428,0,0,0,1.124.374,9.183,9.183,0,0,1,1.333.355,2.19,2.19,0,0,1,1.677,2.131,2.067,2.067,0,0,1-.93,1.754,4.013,4.013,0,0,1-2.4.67,4.191,4.191,0,0,1-1.769-.355,2.968,2.968,0,0,1-1.212-.974,2.263,2.263,0,0,1-.439-1.337h2.007a1.105,1.105,0,0,0,.417.864,1.656,1.656,0,0,0,1.04.3,1.533,1.533,0,0,0,.919-.231A.718.718,0,0,0,80.661,47.81Z" transform="translate(371 674)" fill="#12263f"/>
  </g>
</svg>
