<svg xmlns="http://www.w3.org/2000/svg" xmlns:xlink="http://www.w3.org/1999/xlink" width="179" height="230" viewBox="0 0 179 230">
  <defs>
    <filter id="Rect치ngulo_37254" x="0" y="0" width="179" height="230" filterUnits="userSpaceOnUse">
      <feOffset dy="3" input="SourceAlpha"/>
      <feGaussianBlur stdDeviation="3" result="blur"/>
      <feFlood flood-opacity="0.161"/>
      <feComposite operator="in" in2="blur"/>
      <feComposite in="SourceGraphic"/>
    </filter>
    <linearGradient id="linear-gradient" x1="0.5" x2="0.5" y2="1" gradientUnits="objectBoundingBox">
      <stop offset="0" stop-color="#ff5983"/>
      <stop offset="1" stop-color="#7e137c"/>
    </linearGradient>
  </defs>
  <g id="Grupo_173802" data-name="Grupo 173802" transform="translate(-522 -565)">
    <g transform="matrix(1, 0, 0, 1, 522, 565)" filter="url(#Rect치ngulo_37254)">
      <rect id="Rect치ngulo_37254-2" data-name="Rect치ngulo 37254" width="161" height="212" rx="10" transform="translate(9 6)" fill="#fff"/>
    </g>
    <path id="Trazado_214864" data-name="Trazado 214864" d="M26.674,10.448a3.774,3.774,0,0,1-1.271,2.71,4.463,4.463,0,0,1-3.021.989,4.013,4.013,0,0,1-3.226-1.381,5.661,5.661,0,0,1-1.176-3.79V8.324a6.393,6.393,0,0,1,.542-2.71,4.062,4.062,0,0,1,1.549-1.8,4.339,4.339,0,0,1,2.34-.626,4.348,4.348,0,0,1,2.974.989,4.055,4.055,0,0,1,1.3,2.776h-2.2a2.227,2.227,0,0,0-.575-1.5,2.129,2.129,0,0,0-1.505-.465,1.867,1.867,0,0,0-1.644.787,4.413,4.413,0,0,0-.56,2.443v.806a4.723,4.723,0,0,0,.524,2.527,1.832,1.832,0,0,0,1.652.8,2.169,2.169,0,0,0,1.52-.465,2.1,2.1,0,0,0,.575-1.439Zm.974-.483a4.7,4.7,0,0,1,.454-2.1A3.324,3.324,0,0,1,29.41,6.434a3.814,3.814,0,0,1,1.981-.505,3.609,3.609,0,0,1,2.618.981,3.939,3.939,0,0,1,1.132,2.666l.015.542a4.142,4.142,0,0,1-1.018,2.926,3.539,3.539,0,0,1-2.732,1.1,3.556,3.556,0,0,1-2.736-1.1,4.215,4.215,0,0,1-1.022-2.988Zm2.117.15a2.962,2.962,0,0,0,.425,1.727,1.526,1.526,0,0,0,2.417.007,3.241,3.241,0,0,0,.432-1.889,2.933,2.933,0,0,0-.432-1.716,1.4,1.4,0,0,0-1.216-.609,1.382,1.382,0,0,0-1.2.605A3.3,3.3,0,0,0,29.765,10.115Zm8.679-4.039.066.886a2.785,2.785,0,0,1,2.278-1.033,2.114,2.114,0,0,1,2.1,1.208,2.721,2.721,0,0,1,2.38-1.208,2.364,2.364,0,0,1,1.919.751,3.451,3.451,0,0,1,.63,2.26V14H45.7V8.935a1.515,1.515,0,0,0-.264-.987,1.167,1.167,0,0,0-.93-.312,1.321,1.321,0,0,0-1.318.91L43.19,14H41.073V8.942a1.5,1.5,0,0,0-.271-1,1.178,1.178,0,0,0-.923-.308,1.371,1.371,0,0,0-1.3.749V14H36.459V6.075Zm18.135,4.036a4.753,4.753,0,0,1-.831,2.933,2.665,2.665,0,0,1-2.245,1.1,2.469,2.469,0,0,1-1.941-.835v3.735H49.445V6.075h1.963l.073.776a2.488,2.488,0,0,1,2.007-.923,2.683,2.683,0,0,1,2.278,1.084A4.882,4.882,0,0,1,56.579,10Zm-2.117-.161a3.136,3.136,0,0,0-.392-1.712,1.275,1.275,0,0,0-1.139-.6,1.385,1.385,0,0,0-1.37.764v3.255a1.409,1.409,0,0,0,1.384.786Q54.462,12.44,54.462,9.949ZM60.124,14H58V2.75h2.124Zm5.391.146a3.89,3.89,0,0,1-2.838-1.069,3.8,3.8,0,0,1-1.095-2.849v-.205a4.787,4.787,0,0,1,.461-2.135,3.386,3.386,0,0,1,1.307-1.45,3.669,3.669,0,0,1,1.93-.509,3.289,3.289,0,0,1,2.56,1.025,4.167,4.167,0,0,1,.934,2.908v.864H63.727a1.966,1.966,0,0,0,.619,1.245,1.871,1.871,0,0,0,1.307.469,2.285,2.285,0,0,0,1.912-.886l1.04,1.165a3.178,3.178,0,0,1-1.289,1.051A4.229,4.229,0,0,1,65.514,14.146Zm-.242-6.511a1.323,1.323,0,0,0-1.022.427,2.209,2.209,0,0,0-.5,1.221h2.944V9.114a1.576,1.576,0,0,0-.381-1.092A1.365,1.365,0,0,0,65.273,7.635Zm7.236-3.508V6.075h1.355V7.628H72.509v3.955a.944.944,0,0,0,.168.63.846.846,0,0,0,.645.19,3.376,3.376,0,0,0,.623-.051v1.6a4.358,4.358,0,0,1-1.282.19A2.021,2.021,0,0,1,70.392,11.9V7.628H69.235V6.075h1.157V4.127ZM79.635,14a2.351,2.351,0,0,1-.212-.71,2.561,2.561,0,0,1-2,.857,2.814,2.814,0,0,1-1.93-.674,2.167,2.167,0,0,1-.765-1.7,2.24,2.24,0,0,1,.934-1.934,4.608,4.608,0,0,1,2.7-.681h.974V8.7a1.306,1.306,0,0,0-.282-.879,1.109,1.109,0,0,0-.89-.33,1.261,1.261,0,0,0-.839.256.871.871,0,0,0-.3.7H74.9a2.126,2.126,0,0,1,.425-1.274,2.808,2.808,0,0,1,1.2-.919,4.378,4.378,0,0,1,1.743-.333,3.459,3.459,0,0,1,2.325.736,2.575,2.575,0,0,1,.861,2.069v3.435a3.789,3.789,0,0,0,.315,1.707V14Zm-1.75-1.472a1.823,1.823,0,0,0,.864-.209,1.371,1.371,0,0,0,.586-.56V10.4h-.791q-1.589,0-1.692,1.1l-.007.125a.847.847,0,0,0,.278.652A1.081,1.081,0,0,0,77.885,12.528ZM87.538,8.06A5.751,5.751,0,0,0,86.777,8a1.55,1.55,0,0,0-1.575.813V14H83.085V6.075h2l.059.945a1.961,1.961,0,0,1,1.765-1.091,2.218,2.218,0,0,1,.659.1ZM94.526,14H92.4V2.75h2.124Zm1.414-4.036a4.7,4.7,0,0,1,.454-2.1A3.324,3.324,0,0,1,97.7,6.434a3.814,3.814,0,0,1,1.981-.505,3.609,3.609,0,0,1,2.618.981,3.939,3.939,0,0,1,1.132,2.666l.015.542a4.142,4.142,0,0,1-1.018,2.926,3.946,3.946,0,0,1-5.468,0,4.215,4.215,0,0,1-1.022-2.988Zm2.117.15a2.962,2.962,0,0,0,.425,1.727,1.526,1.526,0,0,0,2.417.007,3.241,3.241,0,0,0,.432-1.889,2.933,2.933,0,0,0-.432-1.716,1.4,1.4,0,0,0-1.216-.609,1.382,1.382,0,0,0-1.2.605A3.3,3.3,0,0,0,98.056,10.115Zm10.986,1.7a.682.682,0,0,0-.385-.612,4.368,4.368,0,0,0-1.234-.4q-2.827-.593-2.827-2.4a2.178,2.178,0,0,1,.875-1.761,3.531,3.531,0,0,1,2.289-.707,3.8,3.8,0,0,1,2.413.71,2.239,2.239,0,0,1,.9,1.846h-2.117a1.024,1.024,0,0,0-.293-.751,1.24,1.24,0,0,0-.916-.3,1.267,1.267,0,0,0-.828.242.763.763,0,0,0-.293.615.652.652,0,0,0,.333.568,3.428,3.428,0,0,0,1.124.374,9.183,9.183,0,0,1,1.333.355,2.19,2.19,0,0,1,1.677,2.131,2.067,2.067,0,0,1-.93,1.754,4.013,4.013,0,0,1-2.4.67A4.191,4.191,0,0,1,106,13.791a2.968,2.968,0,0,1-1.212-.974,2.263,2.263,0,0,1-.439-1.337h2.007a1.105,1.105,0,0,0,.417.864,1.656,1.656,0,0,0,1.04.3,1.533,1.533,0,0,0,.919-.231A.718.718,0,0,0,109.042,11.81ZM46.215,27.979a4.776,4.776,0,0,1,.831-2.952,2.7,2.7,0,0,1,2.274-1.1,2.427,2.427,0,0,1,1.912.864V20.75h2.124V32H51.445l-.1-.842a2.491,2.491,0,0,1-2.036.989,2.69,2.69,0,0,1-2.245-1.1A4.93,4.93,0,0,1,46.215,27.979Zm2.117.151a3.146,3.146,0,0,0,.388,1.714,1.263,1.263,0,0,0,1.128.6,1.416,1.416,0,0,0,1.384-.831V26.467a1.4,1.4,0,0,0-1.37-.831Q48.332,25.635,48.332,28.13ZM59.589,32a2.351,2.351,0,0,1-.212-.71,2.561,2.561,0,0,1-2,.857,2.814,2.814,0,0,1-1.93-.674,2.167,2.167,0,0,1-.765-1.7,2.24,2.24,0,0,1,.934-1.934,4.608,4.608,0,0,1,2.7-.681h.974V26.7a1.306,1.306,0,0,0-.282-.879,1.109,1.109,0,0,0-.89-.33,1.261,1.261,0,0,0-.839.256.871.871,0,0,0-.3.7H54.858a2.126,2.126,0,0,1,.425-1.274,2.808,2.808,0,0,1,1.2-.919,4.378,4.378,0,0,1,1.743-.333,3.459,3.459,0,0,1,2.325.736,2.575,2.575,0,0,1,.861,2.069v3.435a3.789,3.789,0,0,0,.315,1.707V32Zm-1.75-1.472a1.823,1.823,0,0,0,.864-.209,1.371,1.371,0,0,0,.586-.56V28.4H58.5q-1.589,0-1.692,1.1l-.007.125a.847.847,0,0,0,.278.652A1.081,1.081,0,0,0,57.839,30.528Zm7.734-8.4v1.948h1.355v1.553H65.573v3.955a.944.944,0,0,0,.168.63.846.846,0,0,0,.645.19,3.376,3.376,0,0,0,.623-.051v1.6a4.358,4.358,0,0,1-1.282.19A2.021,2.021,0,0,1,63.456,29.9v-4.27H62.3V24.075h1.157V22.127Zm1.985,5.837a4.7,4.7,0,0,1,.454-2.1,3.324,3.324,0,0,1,1.307-1.428,3.814,3.814,0,0,1,1.981-.505,3.609,3.609,0,0,1,2.618.981,3.939,3.939,0,0,1,1.132,2.666l.015.542a4.142,4.142,0,0,1-1.018,2.926,3.946,3.946,0,0,1-5.468,0,4.215,4.215,0,0,1-1.022-2.988Zm2.117.15a2.962,2.962,0,0,0,.425,1.727,1.526,1.526,0,0,0,2.417.007,3.241,3.241,0,0,0,.432-1.889,2.933,2.933,0,0,0-.432-1.716,1.4,1.4,0,0,0-1.216-.609,1.382,1.382,0,0,0-1.2.605A3.3,3.3,0,0,0,69.675,28.115Zm10.986,1.7a.682.682,0,0,0-.385-.612,4.368,4.368,0,0,0-1.234-.4q-2.827-.593-2.827-2.4a2.178,2.178,0,0,1,.875-1.761,3.531,3.531,0,0,1,2.289-.707,3.8,3.8,0,0,1,2.413.71,2.239,2.239,0,0,1,.9,1.846H80.58a1.024,1.024,0,0,0-.293-.751,1.24,1.24,0,0,0-.916-.3,1.267,1.267,0,0,0-.828.242.763.763,0,0,0-.293.615.652.652,0,0,0,.333.568,3.428,3.428,0,0,0,1.124.374,9.183,9.183,0,0,1,1.333.355,2.19,2.19,0,0,1,1.677,2.131,2.067,2.067,0,0,1-.93,1.754,4.013,4.013,0,0,1-2.4.67,4.191,4.191,0,0,1-1.769-.355,2.968,2.968,0,0,1-1.212-.974,2.263,2.263,0,0,1-.439-1.337h2.007a1.105,1.105,0,0,0,.417.864,1.656,1.656,0,0,0,1.04.3,1.533,1.533,0,0,0,.919-.231A.718.718,0,0,0,80.661,29.81Z" transform="translate(543 674)" fill="#12263f"/>
    <g id="Grupo_171305" data-name="Grupo 171305" transform="translate(573.08 589.9)">
      <ellipse id="Elipse_4775" data-name="Elipse 4775" cx="35" cy="35.5" rx="35" ry="35.5" transform="translate(-0.08 -0.9)" fill="url(#linear-gradient)"/>
      <g id="hHEMdN.tif" transform="translate(1618.733 3132.816)">
        <g id="Grupo_155564" data-name="Grupo 155564" transform="translate(-1603.63 -3119.355)">
          <path id="Trazado_197591" data-name="Trazado 197591" d="M-1603.63-3119.354h33.984v14.127h-1.393V-3117.9h-31.1v28.231h4.193v-5.606h14.867v12.707h-9.126v2.788h14.406c-.476-.555-.983-1.076-1.408-1.656a8.7,8.7,0,0,1-1.732-5.158c-.03-3.735-.011-7.471-.011-11.207,0-.1.01-.2.018-.341.89,0,1.758,0,2.626,0a8.322,8.322,0,0,0,5.476-1.9,20.175,20.175,0,0,0,2.02-2.2,7.184,7.184,0,0,0,.485-.707c.187.275.345.508.5.742a8.762,8.762,0,0,0,7.6,4.066c.815.007,1.63,0,2.493,0,.01.169.027.319.027.469,0,3.55.019,7.1,0,10.649a9.162,9.162,0,0,1-4.9,8.374c-1.758,1.012-3.522,2.013-5.282,3.022-.12.068-.227.16-.34.24h-.172c-1.557-.9-3.109-1.809-4.675-2.691a1.792,1.792,0,0,0-.839-.225q-8.455-.02-16.911,0a.952.952,0,0,1-.749-.3c-1.832-1.851-3.678-3.687-5.518-5.53q-2.274-2.277-4.544-4.558Zm24.123,22.64v.463c0,3.12-.016,6.24,0,9.36a7.613,7.613,0,0,0,3.983,6.891c1.624.959,3.275,1.872,4.9,2.822a.534.534,0,0,0,.619-.019c1.584-.916,3.176-1.817,4.76-2.731a7.752,7.752,0,0,0,4.107-7.089c.022-3.063,0-6.125,0-9.188v-.508a10.594,10.594,0,0,1-9.2-3.737A10.59,10.59,0,0,1-1579.506-3096.715Zm-12.732,12.7h7.728v-9.832h-11.958v4.224h4.23Zm-1.456,3.111v-7.27h-7.269Z" transform="translate(1603.63 3119.354)" fill="#fff"/>
          <path id="Trazado_197592" data-name="Trazado 197592" d="M-1527.994-3086.074v4.188h-25.455v-4.188Zm-24.015,2.768h22.559v-1.344h-22.559Z" transform="translate(1557.767 3088.938)" fill="#fff"/>
          <path id="Trazado_197593" data-name="Trazado 197593" d="M-1553.445-3002.77v-1.386h22.6v1.386Z" transform="translate(1557.763 3014.069)" fill="#fff"/>
          <path id="Trazado_197594" data-name="Trazado 197594" d="M-1553.5-2969.828v-1.379h22.6v1.379Z" transform="translate(1557.817 2983.955)" fill="#fff"/>
          <path id="Trazado_197595" data-name="Trazado 197595" d="M-1553.278-2938.362h22.591v1.389h-22.591Z" transform="translate(1557.611 2953.937)" fill="#fff"/>
          <path id="Trazado_197596" data-name="Trazado 197596" d="M-1553.506-2903.951v-1.373h13.411v1.373Z" transform="translate(1557.819 2923.742)" fill="#fff"/>
          <path id="Trazado_197597" data-name="Trazado 197597" d="M-1539.9-2872.4v1.371h-13.407v-1.371Z" transform="translate(1557.637 2893.654)" fill="#fff"/>
          <path id="Trazado_197598" data-name="Trazado 197598" d="M-1272.512-3004.1v1.385h-1.393v-1.385Z" transform="translate(1302.278 3014.02)" fill="#fff"/>
          <path id="Trazado_197599" data-name="Trazado 197599" d="M-1272.431-2969.868h-1.365v-1.4h1.365Z" transform="translate(1302.179 2984.008)" fill="#fff"/>
          <path id="Trazado_197600" data-name="Trazado 197600" d="M-1273.821-2938.388h1.37V-2937h-1.37Z" transform="translate(1302.201 2953.961)" fill="#fff"/>
          <path id="Trazado_197601" data-name="Trazado 197601" d="M-1380.887-2903.972v-1.378h1.39v1.378Z" transform="translate(1400.054 2923.765)" fill="#fff"/>
          <path id="Trazado_197602" data-name="Trazado 197602" d="M-1380.7-2872.611h1.375v1.391h-1.375Z" transform="translate(1399.888 2893.844)" fill="#fff"/>
          <path id="Trazado_197603" data-name="Trazado 197603" d="M-1295.966-2829.262l.93-.92,2.307,2.319,9.438-9.439.958.953-10.368,10.368Z" transform="translate(1322.441 2861.574)" fill="#fff"/>
          <path id="Trazado_197604" data-name="Trazado 197604" d="M-1169.015-2790.865a.906.906,0,0,1,.141-.048c1.289-.088,1.3-.087,1.286,1.189s.05,2.554-.074,3.817a6.2,6.2,0,0,1-3.144,4.815l-.7-1.215c.084-.067.156-.131.235-.186a4.935,4.935,0,0,0,2.251-4.205C-1169-2788.085-1169.015-2789.473-1169.015-2790.865Z" transform="translate(1208.691 2819.206)" fill="#fff"/>
          <path id="Trazado_197605" data-name="Trazado 197605" d="M-1495.469-2806.628v1.379c-.133.01-.268.028-.4.028-2.786,0-5.572,0-8.357.009-.356,0-.486-.1-.454-.456.028-.309.005-.623.005-.96Z" transform="translate(1513.203 2833.539)" fill="#fff"/>
          <path id="Trazado_197606" data-name="Trazado 197606" d="M-1454.7-2772.211v-1.393h4.942c0,.4.01.791-.01,1.185a.29.29,0,0,1-.2.2C-1451.536-2772.209-1453.1-2772.211-1454.7-2772.211Z" transform="translate(1467.514 2803.357)" fill="#fff"/>
          <path id="Trazado_197607" data-name="Trazado 197607" d="M-1449.854-2740.787v1.366h-4.929v-1.366Z" transform="translate(1467.591 2773.364)" fill="#fff"/>
        </g>
      </g>
    </g>
  </g>
</svg>
