<svg id="Grupo_145936" data-name="Grupo 145936" xmlns="http://www.w3.org/2000/svg" xmlns:xlink="http://www.w3.org/1999/xlink" width="384.639" height="383.588" viewBox="0 0 384.639 383.588">
  <defs>
    <linearGradient id="linear-gradient" x1="0.5" x2="0.5" y2="1" gradientUnits="objectBoundingBox">
      <stop offset="0" stop-color="#fff"/>
      <stop offset="1" stop-color="#d2e6ee"/>
    </linearGradient>
    <linearGradient id="linear-gradient-2" x1="0.167" y1="-0.077" x2="0.833" y2="1.077" gradientUnits="objectBoundingBox">
      <stop offset="0" stop-color="#b1b2f3"/>
      <stop offset="1" stop-color="#9d9ef0"/>
    </linearGradient>
    <linearGradient id="linear-gradient-5" x1="0.5" x2="0.5" y2="1" gradientUnits="objectBoundingBox">
      <stop offset="0" stop-color="#ff5983"/>
      <stop offset="1" stop-color="#7e137c"/>
    </linearGradient>
    <linearGradient id="linear-gradient-6" x1="0.314" y1="-0.604" x2="0.686" y2="1.604" xlink:href="#linear-gradient-2"/>
    <linearGradient id="linear-gradient-7" x1="0.5" x2="0.5" y2="1" gradientUnits="objectBoundingBox">
      <stop offset="0" stop-color="#116eb9"/>
      <stop offset="1" stop-color="#1894f6"/>
    </linearGradient>
    <linearGradient id="linear-gradient-10" x1="0.5" x2="0.5" y2="1" gradientUnits="objectBoundingBox">
      <stop offset="0" stop-color="#fdbe41"/>
      <stop offset="1" stop-color="#d09f40"/>
    </linearGradient>
  </defs>
  <g id="Grupo_29020" data-name="Grupo 29020" transform="translate(189.088 13.978)">
    <path id="Trazado_68871" data-name="Trazado 68871" d="M543.705,126.019Z" transform="translate(-506.914 -115.898)" fill="#cbd9e4"/>
    <path id="Trazado_68872" data-name="Trazado 68872" d="M548.906,132.629l-2.28.446A17.308,17.308,0,0,0,544.778,128l2.03-1.125a19.6,19.6,0,0,0-6.169-6.752l-1.3,1.921a17.3,17.3,0,0,0-4.894-2.292l.642-2.224-.1-.029a19.554,19.554,0,0,0-9.037-.393l.439,2.28a17.337,17.337,0,0,0-5.083,1.835l-1.118-2.034a19.61,19.61,0,0,0-6.768,6.152l1.917,1.3a17.321,17.321,0,0,0-2.3,4.89l-2.222-.648-.044.153a19.561,19.561,0,0,0-.405,8.984l2.282-.432a17.332,17.332,0,0,0,1.822,5.088l-2.036,1.113h0a19.625,19.625,0,0,0,6.132,6.785l1.308-1.912a17.316,17.316,0,0,0,4.884,2.314L524.1,155.2h0l.2.06a19.57,19.57,0,0,0,9.142.373l-.452-2.279a17.336,17.336,0,0,0,5.073-1.863l1.131,2.028a19.615,19.615,0,0,0,6.734-6.187l-1.925-1.3a17.329,17.329,0,0,0,2.282-4.9l2.224.636.014-.051a19.528,19.528,0,0,0,.383-9.09Zm-19.255,15.428a11.7,11.7,0,1,1,11.228-8.5A11.658,11.658,0,0,1,529.651,148.058Z" transform="translate(-510.018 -116.752)" fill="#cbd9e4"/>
  </g>
  <g id="Grupo_29021" data-name="Grupo 29021" transform="translate(42.739 75.804)">
    <path id="Trazado_68873" data-name="Trazado 68873" d="M662.111,463.461a68.359,68.359,0,1,0-120.128,0Z" transform="translate(-361.488 -155.942)" fill="#fff"/>
    <ellipse id="Elipse_3363" data-name="Elipse 3363" cx="91.022" cy="91.022" rx="91.022" ry="91.022" transform="translate(0 58.123)" fill="#fff"/>
    <ellipse id="Elipse_3364" data-name="Elipse 3364" cx="68.358" cy="68.358" rx="68.358" ry="68.358" transform="translate(41.855)" fill="#fff"/>
    <circle id="Elipse_3365" data-name="Elipse 3365" cx="68.358" cy="68.358" r="68.358" transform="translate(114.13 135.814) rotate(-79.905)" fill="#fff"/>
    <circle id="Elipse_3366" data-name="Elipse 3366" cx="53.688" cy="53.688" r="53.688" transform="translate(165.757 121.06)" fill="#fff"/>
    <path id="Trazado_68874" data-name="Trazado 68874" d="M402.537,389.389a68.356,68.356,0,0,0,19.5,75.854H571.81a68.347,68.347,0,0,0-75.545-113.435,68.379,68.379,0,0,0-80.819,16.2,12.49,12.49,0,1,0-12.909,21.382Z" transform="translate(-374.146 -157.724)" fill="#fff"/>
  </g>
  <g id="Grupo_29048" data-name="Grupo 29048" transform="translate(115.538 60.094)">
    <g id="Grupo_29044" data-name="Grupo 29044">
      <g id="Grupo_29043" data-name="Grupo 29043">
        <g id="Grupo_29042" data-name="Grupo 29042">
          <path id="Rectángulo_26499" data-name="Rectángulo 26499" d="M8.851,0H160.422a8.85,8.85,0,0,1,8.85,8.85V312.459a8.851,8.851,0,0,1-8.851,8.851H8.85A8.85,8.85,0,0,1,0,312.46V8.851A8.851,8.851,0,0,1,8.851,0Z" transform="translate(1.092 1.092)" fill="#afafaf"/>
          <path id="Trazado_68906" data-name="Trazado 68906" d="M603.369,161.162a8.572,8.572,0,0,1,8.573,8.573V471.714a8.573,8.573,0,0,1-8.573,8.573H453.429a8.574,8.574,0,0,1-8.573-8.573V169.735a8.573,8.573,0,0,1,8.573-8.573h149.94m0-2.184H453.429a10.77,10.77,0,0,0-10.758,10.757V471.714a10.77,10.77,0,0,0,10.758,10.757h149.94a10.769,10.769,0,0,0,10.757-10.757V169.735a10.769,10.769,0,0,0-10.757-10.757Z" transform="translate(-442.672 -158.978)" fill="#b4b7c6"/>
        </g>
      </g>
    </g>
    <g id="Grupo_29045" data-name="Grupo 29045" transform="translate(2.184 18.648)">
      <path id="Trazado_68907" data-name="Trazado 68907" d="M611.76,185.96V452.342a9.907,9.907,0,0,1-9.907,9.908H454.579a9.907,9.907,0,0,1-9.907-9.908V185.96a9.906,9.906,0,0,1,9.907-9.907H601.854A9.906,9.906,0,0,1,611.76,185.96Z" transform="translate(-444.672 -176.053)" fill="url(#linear-gradient)"/>
    </g>
    <g id="Grupo_29046" data-name="Grupo 29046" transform="translate(73.602 8.748)">
      <path id="Trazado_68908" data-name="Trazado 68908" d="M532.4,170.813H511.977a1.912,1.912,0,0,1-1.912-1.912h0a1.912,1.912,0,0,1,1.912-1.912H532.4a1.912,1.912,0,0,1,1.912,1.912h0A1.912,1.912,0,0,1,532.4,170.813Z" transform="translate(-510.065 -166.988)" fill="#161c59"/>
    </g>
    <g id="Grupo_29047" data-name="Grupo 29047" transform="translate(65.715 8.748)">
      <path id="Trazado_68909" data-name="Trazado 68909" d="M506.668,168.9a1.912,1.912,0,1,1-1.912-1.912A1.912,1.912,0,0,1,506.668,168.9Z" transform="translate(-502.843 -166.988)" fill="#161c59"/>
    </g>
  </g>
  <path id="Rectángulo_26500" data-name="Rectángulo 26500" d="M2.949,0H130.722a2.949,2.949,0,0,1,2.949,2.949V12.77a2.948,2.948,0,0,1-2.948,2.948H2.948A2.948,2.948,0,0,1,0,12.77V2.949A2.949,2.949,0,0,1,2.949,0Z" transform="translate(134.43 187.376)" fill="#e6e7e8" style="mix-blend-mode: multiply;isolation: isolate"/>
  <rect id="Rectángulo_26501" data-name="Rectángulo 26501" width="39.383" height="18.556" rx="2.106" transform="translate(133.744 93.617)" fill="#e6e7e8" style="mix-blend-mode: multiply;isolation: isolate"/>
  <rect id="Rectángulo_26502" data-name="Rectángulo 26502" width="39.383" height="18.556" rx="2.106" transform="translate(181.575 93.617)" fill="#e6e7e8" style="mix-blend-mode: multiply;isolation: isolate"/>
  <rect id="Rectángulo_26503" data-name="Rectángulo 26503" width="39.383" height="18.556" rx="2.106" transform="translate(229.403 93.617)" fill="#e6e7e8" style="mix-blend-mode: multiply;isolation: isolate"/>
  <rect id="Rectángulo_26504" data-name="Rectángulo 26504" width="58.9" height="58.9" rx="2.455" transform="translate(139.349 250.331)" stroke="#707070" stroke-miterlimit="10" stroke-width="8" opacity="0.4" fill="url(#linear-gradient-2)" style="mix-blend-mode: multiply;isolation: isolate"/>
  <rect id="Rectángulo_26505" data-name="Rectángulo 26505" width="58.9" height="58.9" rx="2.455" transform="translate(215.765 250.331)" stroke="#707070" stroke-miterlimit="10" stroke-width="8" opacity="0.4" fill="url(#linear-gradient-2)" style="mix-blend-mode: multiply;isolation: isolate"/>
  <rect id="Rectángulo_26506" data-name="Rectángulo 26506" width="58.9" height="58.9" rx="2.455" transform="translate(292.18 250.331)" stroke="#707070" stroke-miterlimit="10" stroke-width="8" opacity="0.4" fill="url(#linear-gradient-2)" style="mix-blend-mode: multiply;isolation: isolate"/>
  <rect id="Rectángulo_26507" data-name="Rectángulo 26507" width="58.9" height="58.9" rx="2.455" transform="translate(135.146 246.127)" fill="#fff"/>
  <rect id="Rectángulo_26508" data-name="Rectángulo 26508" width="58.9" height="58.9" rx="2.455" transform="translate(211.561 246.127)" fill="#fff"/>
  <rect id="Rectángulo_26509" data-name="Rectángulo 26509" width="58.9" height="28.302" rx="1.702" transform="translate(211.561 316.454)" fill="#e6e7e8" style="mix-blend-mode: multiply;isolation: isolate"/>
  <rect id="Rectángulo_26510" data-name="Rectángulo 26510" width="58.9" height="28.302" rx="1.702" transform="translate(134.55 316.454)" fill="#e6e7e8" style="mix-blend-mode: multiply;isolation: isolate"/>
  <rect id="Rectángulo_26511" data-name="Rectángulo 26511" width="58.9" height="58.9" rx="2.455" transform="translate(287.977 246.127)" fill="#fff"/>
  <g id="Grupo_29049" data-name="Grupo 29049" transform="translate(133.744 117.111)">
    <rect id="Rectángulo_26512" data-name="Rectángulo 26512" width="39.383" height="4.387" rx="1.646" fill="#707070"/>
    <rect id="Rectángulo_26513" data-name="Rectángulo 26513" width="39.383" height="4.387" rx="1.646" transform="translate(47.829)" fill="#707070"/>
    <rect id="Rectángulo_26514" data-name="Rectángulo 26514" width="39.383" height="4.387" rx="1.646" transform="translate(95.658)" fill="#707070"/>
  </g>
  <g id="Grupo_29050" data-name="Grupo 29050" transform="translate(133.744 126.389)" style="mix-blend-mode: multiply;isolation: isolate">
    <rect id="Rectángulo_26515" data-name="Rectángulo 26515" width="39.383" height="4.387" rx="1.646" fill="#e6e7e8"/>
    <rect id="Rectángulo_26516" data-name="Rectángulo 26516" width="39.383" height="4.387" rx="1.646" transform="translate(47.829)" fill="#e6e7e8"/>
    <rect id="Rectángulo_26517" data-name="Rectángulo 26517" width="39.383" height="4.387" rx="1.646" transform="translate(95.658)" fill="#e6e7e8"/>
  </g>
  <g id="Grupo_29053" data-name="Grupo 29053" transform="translate(324.945 254.359)">
    <path id="Trazado_68910" data-name="Trazado 68910" d="M670.237,424.078c-2.953-.248-3.164-16.777-2.708-23.794s2.125-12.459,5.73-12.156,4.344,5.948,3.622,12.943S673.191,424.327,670.237,424.078Z" transform="translate(-631.381 -332.132)" fill="#ffc8af"/>
    <path id="Trazado_68911" data-name="Trazado 68911" d="M684.22,452.076c-2.438.984-11.392-20.414-13.347-25.252s-3.643-10.1-.912-11.2,5.169,3.853,7.124,8.691S686.657,451.092,684.22,452.076Z" transform="translate(-631.271 -329.612)" fill="#ffc8af"/>
    <path id="Trazado_68912" data-name="Trazado 68912" d="M685,453.417c-1.6,1.1-4.9,1.806-5.2,1.248s.214-2.128.67-3.259l.007-.011c.137-.335.266-.632.366-.852.118-.277.2-.439.2-.439s-5.293-20.916-4.314-21.182c1.063-.287,8.146,20.47,8.146,20.47s.035.131.094.317l.081.268.539,1.8C685.648,452,686.169,452.626,685,453.417Z" transform="translate(-630.528 -328.372)" fill="#ffc8af"/>
    <path id="Trazado_68913" data-name="Trazado 68913" d="M684.735,451.64c-1.6,1.1-4.9,1.806-5.2,1.248s.214-2.127.67-3.259l.007-.011c.137-.335.266-.632.365-.852.1.209.254.519.372.793.209.478.482.484,1.457-.156a18.929,18.929,0,0,1,2.376-1.2s.631,1.324.8,1.78C685.665,450.193,685.907,450.85,684.735,451.64Z" transform="translate(-630.266 -326.596)" fill="#262b7f"/>
    <g id="Grupo_29052" data-name="Grupo 29052" transform="translate(37.877 21.504)">
      <path id="Trazado_68914" data-name="Trazado 68914" d="M683.971,381.829c-1.972.82-7.8-10.192-9.922-15.05s-2.931-9.064-.524-10.065,4.822,2.537,6.768,7.468S685.943,381.009,683.971,381.829Z" transform="translate(-668.824 -356.544)" fill="#ffc8af"/>
      <g id="Grupo_29051" data-name="Grupo 29051" transform="translate(0 21.89)">
        <path id="Trazado_68915" data-name="Trazado 68915" d="M672.8,400.319c-1.721-.79,3.611-13.673,5.25-17.25s3.633-7.232,5.563-6.347.464,4.78-1.175,8.358S674.523,401.107,672.8,400.319Z" transform="translate(-668.785 -376.587)" fill="#ffc8af"/>
        <path id="Trazado_68916" data-name="Trazado 68916" d="M674.53,395.3c2.1.779.3,4.322-.353,5.508-1.068,1.932-4.053,2.888-4.809,2.484s1.992-4.595,1.9-4.835-1.347,2.149-2.017,1.7,1-3.284,2.084-4.151A2.857,2.857,0,0,1,674.53,395.3Z" transform="translate(-669.096 -374.885)" fill="#ffc8af"/>
      </g>
    </g>
    <path id="Trazado_68917" data-name="Trazado 68917" d="M669.716,451.478c.178.71.54,1.505.152,2.207a1.946,1.946,0,0,1-1.38.815,15.653,15.653,0,0,1-2.3.328,8.431,8.431,0,0,1-.936.075c-.26,0-.516-.048-.773-.063-.507-.031-1.016-.01-1.522-.054-.049,0-.391.007-.438-.06s.042-.161.083-.2c.218-.191.505-.277.73-.459.253-.2.484-.433.74-.635a7.062,7.062,0,0,1,1.656-1c.115-.048-3.388-22-2.342-22.224C664.339,430,669.714,451.469,669.716,451.478Z" transform="translate(-631.826 -328.254)" fill="#ffc8af"/>
    <path id="Trazado_68918" data-name="Trazado 68918" d="M657.218,424.829c-2.9-.632-.947-17.047.421-23.945s3.735-12.075,7.27-11.3,3.53,6.464,1.9,13.3S660.113,425.46,657.218,424.829Z" transform="translate(-632.452 -332.004)" fill="#ffc8af"/>
    <path id="Trazado_68919" data-name="Trazado 68919" d="M669.1,453.654c-2.508.786-10.143-21.149-11.7-26.128s-2.825-10.357-.014-11.238,4.844,4.254,6.406,9.233S671.61,452.867,669.1,453.654Z" transform="translate(-632.452 -329.545)" fill="#ffc8af"/>
    <path id="Trazado_68920" data-name="Trazado 68920" d="M670.258,450.987l0,2.467a.45.45,0,0,1-.449.45l-7.939,0a.719.719,0,0,1-.435-1.3,30.059,30.059,0,0,1,4.373-2.378c.324.286.814,1.171,1.385,1.277A15.942,15.942,0,0,0,670.258,450.987Z" transform="translate(-631.952 -326.409)" fill="#262b7f"/>
    <path id="Trazado_68921" data-name="Trazado 68921" d="M638.079,365.256c1.237-1.411,11.965,7.313,14.9,9.886s5.84,5.5,4.451,7.087-4.673-.916-7.607-3.488S636.84,366.668,638.079,365.256Z" transform="translate(-634.086 -334.252)" fill="#ffc8af"/>
    <path id="Trazado_68922" data-name="Trazado 68922" d="M677.762,397.8l-18.387-.764-.806-31.457,1.27-7.9,8.492-3.122L673.8,355.6a6.416,6.416,0,0,1,5.209,6.528l-1.993,22.263Z" transform="translate(-632.189 -335.223)" fill="#ffc8af"/>
    <path id="Trazado_68923" data-name="Trazado 68923" d="M669.935,351.011v6.321a9.386,9.386,0,0,1-4.461.8c-1.685,0-2.063-.8-2.063-.8V355Z" transform="translate(-631.743 -335.55)" fill="#ffc8af"/>
    <path id="Trazado_68924" data-name="Trazado 68924" d="M671.156,347.474c-.014.229-.022.443-.037.65,0,.074.007.148.007.229.155,3.753-2.253,7.771-5.879,8.317,0,0-.03.008-.082.015-.029,0-.073.007-.125.007-.775.1-3.582.325-4.609-.8a9.553,9.553,0,0,1-2.275-5.431,21.28,21.28,0,0,1,.3-2.731c0-.524-.282-2.166-.287-2.878-.024-3.348,2.229-6.672,6.233-6.672C670.409,338.175,671.326,343.441,671.156,347.474Z" transform="translate(-632.227 -336.733)" fill="#ffc8af"/>
    <path id="Trazado_68925" data-name="Trazado 68925" d="M663.414,356.6" transform="translate(-631.743 -335.035)" fill="#6ebaad"/>
    <path id="Trazado_68926" data-name="Trazado 68926" d="M659.443,357.418c-1.278,1.185-2.271,3.259-2.512,7.5a15.655,15.655,0,0,0,.644,8.407c2.8,6.991,1.085,15.664,1.085,15.664l19.05.7s.4-12.773,1.053-16.846c1.965-12.294-.015-16.251-3.44-17.212C670.192,354.2,660.721,356.232,659.443,357.418Z" transform="translate(-632.368 -335.169)" fill="url(#linear-gradient-5)"/>
    <path id="Trazado_68927" data-name="Trazado 68927" d="M654.966,383.415c-2.051-.53-.082-12.724,1.137-17.839s3.1-8.925,5.6-8.279,2.3,4.888.9,9.955S657.016,383.944,654.966,383.415Z" transform="translate(-632.603 -334.978)" fill="#ffc8af"/>
    <path id="Trazado_68928" data-name="Trazado 68928" d="M634.6,361.343c.493-.549,3.172,2.084,4.034,2.763.13.1.222.164.254.16s.032-.05.01-.118c-.14-.42-1.2-1.894-.684-2.359.565-.51,2.673,1.491,3.387,2.77.04.07.093.147.123.213a2.835,2.835,0,0,1-.076,3.245c-1.244,1.837-4.235-.724-5.224-1.634a6.942,6.942,0,0,1-1.755-2.939A2.657,2.657,0,0,1,634.6,361.343Z" transform="translate(-634.414 -334.605)" fill="#ffc8af"/>
    <path id="Trazado_68929" data-name="Trazado 68929" d="M657.14,342.895a5.659,5.659,0,0,0,.116.606c.413,1.677,1.727,2.654,1.594,4.484a7.652,7.652,0,0,0,1.033,4.741c2.025,3.431-.773,2.67-.21,7.938.276,2.587,2.732,3.652,7.582,3.582s10.189-.141,10.049-3.794a6.709,6.709,0,0,0-1.335-3.629c-.932-1.411-1.73-2.594-1.222-4.332a10.085,10.085,0,0,0,.556-2.181c.11-1.835-1.2-2.426-2.226-3.615-1.1-1.278-.454-3.437-.821-4.976-1.195-5-6.38-5.591-10.592-4.235C659.085,338.313,656.742,339.939,657.14,342.895Z" transform="translate(-632.325 -336.854)" fill="#00223d"/>
    <path id="Trazado_68930" data-name="Trazado 68930" d="M676.953,382.215c-.159,4,2.856,9.24,3.322,13.22.935,7.977-4.583,22.917-4.583,23.883s5.163,13.925,7.165,21.827c0,0-1.124,1.615-6.533,2.6,0,0-8.3-18.053-9.065-22.127s.175-38.657.175-38.657Z" transform="translate(-631.416 -332.675)" fill="#00223d"/>
    <path id="Trazado_68931" data-name="Trazado 68931" d="M669.742,382.816H659.31a195.6,195.6,0,0,0-3.946,22.239c-1.545,12.784-1.053,16.577-.772,18.615s7.328,21.283,7.328,21.283a12.286,12.286,0,0,0,7.266-1.685s-2.372-10.958-4.409-16.015a50.322,50.322,0,0,1-2.26-6.182s5.865-12.5,7.328-21.424A52.769,52.769,0,0,0,669.742,382.816Z" transform="translate(-632.583 -332.62)" fill="#00223d"/>
  </g>
  <rect id="Rectángulo_26518" data-name="Rectángulo 26518" width="190.635" height="55.717" rx="1.881" transform="translate(63.453 143.169)" stroke="#707070" stroke-miterlimit="10" stroke-width="8" opacity="0.3" fill="url(#linear-gradient-6)" style="mix-blend-mode: multiply;isolation: isolate"/>
  <g id="Grupo_29065" data-name="Grupo 29065" transform="translate(54.595 136.162)">
    <g id="Grupo_29054" data-name="Grupo 29054" transform="translate(0 171.363)">
      <path id="Trazado_68932" data-name="Trazado 68932" d="M411.515,385.535V400.41h-5.255v11.764h5.255v.046H400.833v11.764h10.681v.046H396.547v11.764h14.967v.046H391.121V447.6h20.393v.046H386.871v11.764h61.357V385.535Z" transform="translate(-386.871 -385.535)" fill="#00223d"/>
    </g>
    <path id="Trazado_68933" data-name="Trazado 68933" d="M432.386,385.535V400.41h-5.255v11.764h5.255v.046H421.7v11.764h10.681v.046H417.419v11.764h14.967v.046H411.992V447.6h20.393v.046H407.742v11.764H446.3V385.535Z" transform="translate(-384.948 -214.173)" fill="#8998a5"/>
    <g id="Grupo_29064" data-name="Grupo 29064" transform="translate(10.259)">
      <path id="Trazado_68934" data-name="Trazado 68934" d="M430.441,354.342c3.121-.262,3.344-17.731,2.864-25.146s-2.246-13.167-6.057-12.847-4.59,6.285-3.827,13.678S427.32,354.6,430.441,354.342Z" transform="translate(-393.786 -220.548)" fill="#ffc8af"/>
      <path id="Trazado_68935" data-name="Trazado 68935" d="M416.233,383.931c2.575,1.04,12.04-21.574,14.1-26.687s3.851-10.671.963-11.837-5.463,4.073-7.528,9.186S413.658,382.89,416.233,383.931Z" transform="translate(-394.471 -217.885)" fill="#ffc8af"/>
      <path id="Trazado_68936" data-name="Trazado 68936" d="M414.786,385.346c1.688,1.161,5.182,1.91,5.5,1.319s-.226-2.248-.709-3.444l-.006-.011c-.145-.354-.282-.669-.387-.9-.124-.294-.207-.464-.207-.464s5.594-22.1,4.559-22.384c-1.123-.3-8.608,21.633-8.608,21.633s-.037.137-.1.334l-.086.283-.569,1.9C414.1,383.844,413.549,384.512,414.786,385.346Z" transform="translate(-394.631 -216.575)" fill="#ffc8af"/>
      <path id="Trazado_68937" data-name="Trazado 68937" d="M414.8,383.469c1.688,1.161,5.182,1.91,5.5,1.319s-.226-2.248-.709-3.443l-.006-.011c-.145-.354-.282-.669-.387-.9-.106.222-.268.548-.393.839-.219.506-.509.511-1.539-.166a19.94,19.94,0,0,0-2.511-1.271s-.666,1.4-.85,1.881C413.821,381.941,413.564,382.634,414.8,383.469Z" transform="translate(-394.647 -214.698)" fill="#00223d"/>
      <path id="Trazado_68938" data-name="Trazado 68938" d="M434.893,330.387s.129,15.959-.584,19.3-14.616,35.289-14.616,35.289a19.76,19.76,0,0,1-5.323-1.514s5.2-18.261,7.349-24.794,4.082-9.576,3.934-11.951-2.524-22.2-2.524-22.2l11.774-.5Z" transform="translate(-394.596 -219.84)" fill="#00223d"/>
      <g id="Grupo_29057" data-name="Grupo 29057" transform="translate(29.504 34.753)">
        <g id="Grupo_29055" data-name="Grupo 29055" transform="translate(22.326)">
          <path id="Trazado_68939" data-name="Trazado 68939" d="M465.609,265.121c-1.237-1.573-13.151,7.1-16.419,9.671s-6.527,5.526-5.141,7.29,5.027-.71,8.295-3.281S466.847,266.694,465.609,265.121Z" transform="translate(-443.722 -260.037)" fill="#ffc8af"/>
          <path id="Trazado_68940" data-name="Trazado 68940" d="M461.014,267.814c1.321,1.961,4.515-.76,5.57-1.728,1.72-1.577,1.962-4.881,1.36-5.557s-4.226,3.187-4.5,3.15,1.874-1.917,1.242-2.493-3.127,1.836-3.748,3.17S460.186,266.584,461.014,267.814Z" transform="translate(-442.182 -260.45)" fill="#ffc8af"/>
        </g>
        <g id="Grupo_29056" data-name="Grupo 29056" transform="translate(0 18.745)">
          <path id="Trazado_68941" data-name="Trazado 68941" d="M451.318,278.416c-.666-2.156-13.55.549-18.933,2.1s-9.346,3.741-8.534,6.373,5.319,2.206,10.642.457S451.983,280.573,451.318,278.416Z" transform="translate(-423.237 -277.614)" fill="#ffc8af"/>
          <path id="Trazado_68942" data-name="Trazado 68942" d="M423.785,287.7c-1.3-2.341-.088-4.878,3.523-6.3,4.181-1.647,12.829-3.4,12.829-3.4.1.2.181.407.262.605,2.138,5,1.175,6.585,1.175,6.585-6.183,2.485-13.429,4.446-15.859,3.617A7.083,7.083,0,0,1,423.785,287.7Z" transform="translate(-423.279 -277.578)" fill="#ffe3a1"/>
        </g>
      </g>
      <g id="Grupo_29060" data-name="Grupo 29060">
        <rect id="Rectángulo_26519" data-name="Rectángulo 26519" width="190.635" height="55.717" rx="1.47" fill="#727997"/>
        <g id="Grupo_29058" data-name="Grupo 29058" transform="translate(8.634 8.116)">
          <rect id="Rectángulo_26520" data-name="Rectángulo 26520" width="39.485" height="39.485" rx="0.634" fill="#eef0f2"/>
        </g>
        <g id="Grupo_29059" data-name="Grupo 29059" transform="translate(60.734 10.369)">
          <rect id="Rectángulo_26521" data-name="Rectángulo 26521" width="111.07" height="4.951" rx="1.857" fill="#eef0f2"/>
          <rect id="Rectángulo_26522" data-name="Rectángulo 26522" width="111.07" height="4.951" rx="1.857" transform="translate(0 15.014)" fill="#eef0f2"/>
          <rect id="Rectángulo_26523" data-name="Rectángulo 26523" width="85.993" height="4.951" rx="1.857" transform="translate(0 30.028)" fill="#eef0f2"/>
        </g>
      </g>
      <path id="Trazado_68944" data-name="Trazado 68944" d="M430.8,383.3c-.152.6-.687,1.865-.2,2.419.3.342,1.039.366,1.45.383a4.559,4.559,0,0,0,1.532-.13c.654-.186,1.04-.331,1.21-1.02.388-1.572.546-3.2.775-4.8.346-2.421.689-4.844,1.011-7.268.328-2.461.642-4.924.881-7.395.089-.921.17-1.845.21-2.768a5.222,5.222,0,0,0-.044-1.629c-.024-.081-.04-.245-.145-.268C436.479,360.6,430.8,383.29,430.8,383.3Z" transform="translate(-393.119 -216.45)" fill="#ffc8af"/>
      <path id="Trazado_68945" data-name="Trazado 68945" d="M444.412,355.135c3.06-.668,1-18.016-.446-25.3s-3.947-12.762-7.682-11.946-3.731,6.831-2.008,14.06S441.352,355.8,444.412,355.135Z" transform="translate(-392.865 -220.413)" fill="#ffc8af"/>
      <path id="Trazado_68946" data-name="Trazado 68946" d="M432.015,385.6c2.649.831,10.718-22.349,12.368-27.612s2.986-10.944.015-11.876-5.12,4.5-6.77,9.757S429.365,384.766,432.015,385.6Z" transform="translate(-393.028 -217.815)" fill="#ffc8af"/>
      <path id="Trazado_68947" data-name="Trazado 68947" d="M430.245,382.781l0,2.608a.475.475,0,0,0,.476.474l8.39-.007a.761.761,0,0,0,.459-1.371,31.848,31.848,0,0,0-4.622-2.511c-.343.3-.86,1.237-1.462,1.35A16.834,16.834,0,0,1,430.245,382.781Z" transform="translate(-393.134 -214.501)" fill="#00223d"/>
      <path id="Trazado_68948" data-name="Trazado 68948" d="M423.441,326.574h20.67l.851-33.243-1.539-9.379-10.016-3.078-5.781,1.1a6.782,6.782,0,0,0-5.506,6.9l2.107,23.528Z" transform="translate(-393.883 -223.815)" fill="#ffc8af"/>
      <path id="Trazado_68949" data-name="Trazado 68949" d="M430.47,276.8v6.679a9.923,9.923,0,0,0,4.715.843c1.781,0,2.181-.843,2.181-.843v-2.469Z" transform="translate(-393.113 -224.19)" fill="#ffc8af"/>
      <path id="Trazado_68950" data-name="Trazado 68950" d="M429.76,273.066c.015.242.023.468.038.687,0,.079-.008.156-.008.242-.164,3.966,2.381,8.212,6.213,8.79,0,0,.032.008.086.015.032,0,.078.008.132.008.82.1,3.786.343,4.871-.851a10.1,10.1,0,0,0,2.4-5.74,22.543,22.543,0,0,0-.32-2.887c0-.554.3-2.289.3-3.042.026-3.539-2.356-7.05-6.587-7.05C430.548,263.239,429.579,268.8,429.76,273.066Z" transform="translate(-393.18 -225.44)" fill="#ffc8af"/>
      <path id="Trazado_68951" data-name="Trazado 68951" d="M436.781,283.034" transform="translate(-392.531 -223.616)" fill="#6ebaad"/>
      <g id="Grupo_29062" data-name="Grupo 29062" transform="translate(66.813 53.208)">
        <path id="Trazado_68952" data-name="Trazado 68952" d="M479.3,281.136c-1.211-1.572-13.11,6.912-16.375,9.429s-6.527,5.415-5.168,7.177,4.991-.654,8.256-3.171S480.512,282.708,479.3,281.136Z" transform="translate(-457.441 -277.017)" fill="#ffc8af"/>
        <g id="Grupo_29061" data-name="Grupo 29061" transform="translate(17.806)">
          <path id="Trazado_68953" data-name="Trazado 68953" d="M477.665,279.868a.724.724,0,0,1-.28.151c-.036-.008-.029-.056,0-.125.176-.434,1.388-1.918.878-2.442-.56-.575-2.918,1.395-3.757,2.694-.047.072-.108.151-.144.217-.7,1.283-.881,2.16-.137,3.427,1.188,2.02,4.515-.481,5.618-1.375a5.924,5.924,0,0,0,1.9-2.637C480.4,279.868,479.185,279.79,477.665,279.868Z" transform="translate(-473.746 -277.348)" fill="#ffc8af"/>
        </g>
      </g>
      <path id="Trazado_68954" data-name="Trazado 68954" d="M443.86,326.431c3.021,8.83,3.541,21.227,3.206,26.683s-11.2,33.846-11.2,33.846a8.157,8.157,0,0,1-5.455-1.236s7.968-33.5,7.524-36.174-6.45-24.287-6.45-24.287Z" transform="translate(-393.118 -219.726)" fill="#00223d"/>
      <path id="Trazado_68955" data-name="Trazado 68955" d="M438.272,281.92a21.078,21.078,0,0,1,5.471,1.852,24.2,24.2,0,0,1,1.95,8.073c.072,1.253.066,4.849.021,9.365-.124,11.59-.5,29.276-.5,29.276H421.57s1.738-25.958,1.05-30.263c-2.075-12.992.016-17.174,3.637-18.19C431.679,280.513,434.738,281.627,438.272,281.92Z" transform="translate(-393.933 -223.781)" fill="url(#linear-gradient-7)"/>
      <path id="Trazado_68956" data-name="Trazado 68956" d="M441.937,272.757s-.074,2.6-.446,2.784-.447-.709-.52-1.393c-.083-.774-.149-2.1-1.336-1.948s-.8,2.775-.543,3.665-1.333,4.464-2.362,4.575-5.149.445-5.706-.408a17.519,17.519,0,0,1-1.93-7.275c-.111-3.229-.743-7.646,2.264-8.61,0,0,.439-2.323,4.791-1.766s4.633,1.135,6.38,1.172a6.109,6.109,0,0,0,2.059-.446s.8,3.7-1.574,4.371c0,0,.555,2.5-.3,2.9S441.982,271.9,441.937,272.757Z" transform="translate(-393.252 -225.527)" fill="#00223d"/>
      <g id="Grupo_29063" data-name="Grupo 29063" transform="translate(44.183 59.406)">
        <path id="Trazado_68957" data-name="Trazado 68957" d="M462.469,297.626c1.009-2-10.051-8.934-14.963-11.529s-9.247-3.762-10.479-1.324,2.28,5.236,7.283,7.649S461.46,299.624,462.469,297.626Z" transform="translate(-436.714 -282.986)" fill="#ffc8af"/>
        <path id="Trazado_68958" data-name="Trazado 68958" d="M437.842,283.593c-2.08,1.686-1.187,4.732,2.009,6.936,3.7,2.548,11.732,6.208,11.732,6.208.137-.178.268-.356.391-.531,3.212-4.388,2.631-6.15,2.631-6.15C449.143,286.24,440.62,281.341,437.842,283.593Z" transform="translate(-436.72 -283.024)" fill="#2194e5"/>
      </g>
      <path id="Trazado_68959" data-name="Trazado 68959" d="M469.242,288.045c-.52-.581-3.351,2.2-4.262,2.919,1.539-.242,2.972-.48,4.188-.7C469.483,289.257,469.532,288.367,469.242,288.045Z" transform="translate(-389.933 -223.162)" fill="#ffc8af"/>
    </g>
  </g>
  <path id="Trazado_68960" data-name="Trazado 68960" d="M389.135,230.379a26.134,26.134,0,1,0-14.142,23.214c4.265,1.384,12.133,3.9,12.133,3.9l-3.31-11.319A26.011,26.011,0,0,0,389.135,230.379Z" transform="translate(-336.881 -94.712)" fill="#cbd9e4"/>
  <g id="Grupo_29066" data-name="Grupo 29066" transform="translate(59.18 75.258)">
    <path id="Trazado_68961" data-name="Trazado 68961" d="M405.74,173.025a8.556,8.556,0,1,0,6.7,6.7A8.561,8.561,0,0,0,405.74,173.025Zm3.046,16.938a9.724,9.724,0,0,1-9.474,0,12.982,12.982,0,0,0-8.242,12.091v.283a19.938,19.938,0,0,0,25.969,0v-.283A12.991,12.991,0,0,0,408.785,189.963Z" transform="translate(-391.069 -172.862)" fill="#cbd9e4"/>
  </g>
  <g id="Grupo_29067" data-name="Grupo 29067" transform="translate(229.884 268.274)">
    <path id="Trazado_68962" data-name="Trazado 68962" d="M547.372,358.451V356.2l6.267-2.928v1.815l-4.894,2.241,4.894,2.241v1.814Z" transform="translate(-547.372 -349.258)" fill="#00223d"/>
    <path id="Trazado_68963" data-name="Trazado 68963" d="M559.856,349.6h2.1l-5.87,14.605H554Z" transform="translate(-546.761 -349.596)" fill="#00223d"/>
    <path id="Trazado_68964" data-name="Trazado 68964" d="M562.012,361.378v-1.814l4.879-2.241-4.879-2.241v-1.815l6.267,2.928v2.256Z" transform="translate(-546.023 -349.258)" fill="#00223d"/>
  </g>
  <path id="Rectángulo_26524" data-name="Rectángulo 26524" d="M2.949,0H130.722a2.949,2.949,0,0,1,2.949,2.949V12.77a2.949,2.949,0,0,1-2.949,2.949H2.948A2.948,2.948,0,0,1,0,12.77V2.949A2.949,2.949,0,0,1,2.949,0Z" transform="translate(134.43 210.692)" fill="url(#linear-gradient-5)"/>
  <path id="Trazado_68965" data-name="Trazado 68965" d="M493.813,357.221a6.189,6.189,0,0,0-.772-2.639l.764-.426a7.066,7.066,0,0,0-1.478-1.844l-.583.656a6.167,6.167,0,0,0-2.409-1.326l.239-.839-.011,0a7.065,7.065,0,0,0-1.925-.268c-.138,0-.276,0-.414.012l.052.875a6.178,6.178,0,0,0-2.64.77l-.426-.766a7.091,7.091,0,0,0-1.845,1.477l.655.584a6.163,6.163,0,0,0-1.326,2.408l-.84-.24,0,.017a7.064,7.064,0,0,0-.269,1.924c0,.137,0,.272.012.407l.875-.05a6.167,6.167,0,0,0,.769,2.64l-.767.426a7.088,7.088,0,0,0,1.476,1.845l.584-.654a6.147,6.147,0,0,0,2.407,1.328l-.24.84.022.005a7.075,7.075,0,0,0,1.925.268c.142,0,.284,0,.425-.013l-.054-.875a6.177,6.177,0,0,0,2.639-.774l.427.764a7.043,7.043,0,0,0,1.841-1.48l-.655-.582a6.153,6.153,0,0,0,1.323-2.41l.84.238v-.005a7.074,7.074,0,0,0,.269-1.924q0-.211-.013-.419Zm-7.7,5.787h0l.044-.153Zm5.131-4.4a3.732,3.732,0,1,1,.143-1.02A3.741,3.741,0,0,1,491.24,358.609Z" transform="translate(-323.642 -81.235)" fill="#00223d"/>
  <path id="Trazado_68966" data-name="Trazado 68966" d="M628.895,355.681v-3.541h-1.966v3.541h-3.541v1.965h3.541v3.541h1.966v-3.541h3.541v-1.965Z" transform="translate(-310.485 -81.087)" fill="#00223d"/>
  <g id="Grupo_29070" data-name="Grupo 29070" transform="translate(241.444 14.289)">
    <g id="Grupo_29069" data-name="Grupo 29069" transform="translate(0)">
      <rect id="Rectángulo_26525" data-name="Rectángulo 26525" width="138.477" height="87.979" rx="2.658" fill="url(#linear-gradient)"/>
      <g id="Grupo_29068" data-name="Grupo 29068" transform="translate(12.502 10.162)">
        <rect id="Rectángulo_26526" data-name="Rectángulo 26526" width="23.288" height="1.41" rx="0.443" transform="translate(70.248)" fill="#00223d"/>
        <rect id="Rectángulo_26527" data-name="Rectángulo 26527" width="66.546" height="1.41" rx="0.443" fill="#00223d"/>
        <rect id="Rectángulo_26528" data-name="Rectángulo 26528" width="23.208" height="1.41" rx="0.443" transform="translate(90.267 7.36)" fill="#00223d"/>
        <rect id="Rectángulo_26529" data-name="Rectángulo 26529" width="20.483" height="1.41" rx="0.443" transform="translate(0 7.36)" fill="#00223d"/>
        <rect id="Rectángulo_26530" data-name="Rectángulo 26530" width="62.571" height="1.41" rx="0.443" transform="translate(24.362 7.36)" fill="#00223d"/>
        <rect id="Rectángulo_26531" data-name="Rectángulo 26531" width="39.363" height="1.41" rx="0.443" transform="translate(65.777 14.721)" fill="#00223d"/>
        <rect id="Rectángulo_26532" data-name="Rectángulo 26532" width="61.866" height="1.41" rx="0.443" transform="translate(0 14.721)" fill="#00223d"/>
        <rect id="Rectángulo_26533" data-name="Rectángulo 26533" width="29.352" height="1.41" rx="0.443" transform="translate(0 22.081)" fill="#00223d"/>
        <rect id="Rectángulo_26534" data-name="Rectángulo 26534" width="80.613" height="1.41" rx="0.443" transform="translate(32.862 22.081)" fill="#00223d"/>
        <rect id="Rectángulo_26535" data-name="Rectángulo 26535" width="95.78" height="1.41" rx="0.443" transform="translate(0 29.442)" fill="#00223d"/>
        <rect id="Rectángulo_26536" data-name="Rectángulo 26536" width="16.476" height="1.41" rx="0.443" transform="translate(0 36.802)" fill="#00223d"/>
        <rect id="Rectángulo_26537" data-name="Rectángulo 26537" width="62.956" height="1.41" rx="0.443" transform="translate(20.836 36.802)" fill="#00223d"/>
        <rect id="Rectángulo_26538" data-name="Rectángulo 26538" width="18.977" height="1.41" rx="0.443" transform="translate(88.408 36.802)" fill="#00223d"/>
        <rect id="Rectángulo_26539" data-name="Rectángulo 26539" width="64.879" height="1.41" rx="0.443" transform="translate(0 44.162)" fill="#00223d"/>
        <rect id="Rectángulo_26540" data-name="Rectángulo 26540" width="44.3" height="1.41" rx="0.443" transform="translate(69.175 44.162)" fill="#00223d"/>
        <rect id="Rectángulo_26541" data-name="Rectángulo 26541" width="10.418" height="1.41" rx="0.443" transform="translate(98.344 51.523)" fill="#00223d"/>
        <rect id="Rectángulo_26542" data-name="Rectángulo 26542" width="27.936" height="1.41" rx="0.443" transform="translate(0 51.523)" fill="#00223d"/>
        <rect id="Rectángulo_26543" data-name="Rectángulo 26543" width="62.074" height="1.41" rx="0.443" transform="translate(31.975 51.523)" fill="#00223d"/>
        <rect id="Rectángulo_26544" data-name="Rectángulo 26544" width="51.288" height="1.41" rx="0.443" transform="translate(62.187 58.883)" fill="#00223d"/>
        <rect id="Rectángulo_26545" data-name="Rectángulo 26545" width="58.34" height="1.41" rx="0.443" transform="translate(0 58.883)" fill="#00223d"/>
        <rect id="Rectángulo_26546" data-name="Rectángulo 26546" width="68.469" height="1.41" rx="0.443" transform="translate(12.501 66.243)" fill="#00223d"/>
        <rect id="Rectángulo_26547" data-name="Rectángulo 26547" width="8.014" height="1.41" rx="0.443" transform="translate(0 66.243)" fill="#00223d"/>
      </g>
    </g>
  </g>
  <rect id="Rectángulo_26549" data-name="Rectángulo 26549" width="146.007" height="31.276" rx="3.608" transform="translate(26.392 21.383)" fill="url(#linear-gradient-10)"/>
  <g id="Grupo_29071" data-name="Grupo 29071" transform="translate(61.819 29.542)">
    <rect id="Rectángulo_26550" data-name="Rectángulo 26550" width="98.209" height="2.117" rx="0.794" fill="#e6eef3"/>
    <rect id="Rectángulo_26551" data-name="Rectángulo 26551" width="98.209" height="2.117" rx="0.794" transform="translate(0 6.421)" fill="#e6eef3"/>
    <rect id="Rectángulo_26552" data-name="Rectángulo 26552" width="76.036" height="2.117" rx="0.794" transform="translate(0 12.841)" fill="#e6eef3"/>
  </g>
  <circle id="Elipse_3367" data-name="Elipse 3367" cx="11.256" cy="11.256" r="11.256" transform="translate(28 37.021) rotate(-45)" fill="#e6eef3"/>
  <g id="Grupo_29072" data-name="Grupo 29072" transform="translate(38.753 30.201)">
    <path id="Trazado_68967" data-name="Trazado 68967" d="M378.2,131.671a3.4,3.4,0,1,0,2.668,2.667A3.406,3.406,0,0,0,378.2,131.671Zm1.212,6.74a3.874,3.874,0,0,1-3.769,0,5.164,5.164,0,0,0-3.28,4.81v.112a7.931,7.931,0,0,0,10.333,0v-.112A5.168,5.168,0,0,0,379.414,138.411Z" transform="translate(-372.365 -131.607)" fill="#cbd9e4"/>
  </g>
  <g id="Grupo_29077" data-name="Grupo 29077" transform="translate(2.058 221.528)">
    <rect id="Rectángulo_26553" data-name="Rectángulo 26553" width="73.626" height="45.914" rx="2.294" fill="#cbd9e4"/>
    <g id="Grupo_29075" data-name="Grupo 29075" transform="translate(6.396 9.953)">
      <g id="Grupo_29073" data-name="Grupo 29073">
        <rect id="Rectángulo_26554" data-name="Rectángulo 26554" width="4.461" height="26.007" fill="#f6c343"/>
        <rect id="Rectángulo_26555" data-name="Rectángulo 26555" width="4.461" height="26.007" transform="translate(9.557)" fill="#f6c343"/>
        <rect id="Rectángulo_26556" data-name="Rectángulo 26556" width="4.461" height="26.007" transform="translate(19.114)" fill="#f6c343"/>
        <rect id="Rectángulo_26557" data-name="Rectángulo 26557" width="4.461" height="26.007" transform="translate(28.671)" fill="#f6c343"/>
        <rect id="Rectángulo_26558" data-name="Rectángulo 26558" width="4.461" height="26.007" transform="translate(38.228)" fill="#f6c343"/>
      </g>
      <g id="Grupo_29074" data-name="Grupo 29074">
        <rect id="Rectángulo_26559" data-name="Rectángulo 26559" width="4.461" height="6.495" fill="#f1f1f1"/>
        <rect id="Rectángulo_26560" data-name="Rectángulo 26560" width="4.461" height="15.157" transform="translate(9.557)" fill="#f1f1f1"/>
        <rect id="Rectángulo_26561" data-name="Rectángulo 26561" width="4.461" height="11.059" transform="translate(19.114)" fill="#f1f1f1"/>
        <rect id="Rectángulo_26562" data-name="Rectángulo 26562" width="4.461" height="18.762" transform="translate(28.671)" fill="#f1f1f1"/>
        <rect id="Rectángulo_26563" data-name="Rectángulo 26563" width="4.461" height="22.118" transform="translate(38.228)" fill="#f1f1f1"/>
      </g>
    </g>
    <g id="Grupo_29076" data-name="Grupo 29076" transform="translate(53.897 9.953)" style="mix-blend-mode: multiply;isolation: isolate">
      <rect id="Rectángulo_26564" data-name="Rectángulo 26564" width="13.522" height="2.169" fill="#dce8ef"/>
      <rect id="Rectángulo_26565" data-name="Rectángulo 26565" width="13.522" height="2.169" transform="translate(0 4.768)" fill="#dce8ef"/>
      <rect id="Rectángulo_26566" data-name="Rectángulo 26566" width="13.522" height="2.169" transform="translate(0 9.535)" fill="#dce8ef"/>
      <rect id="Rectángulo_26567" data-name="Rectángulo 26567" width="13.522" height="2.169" transform="translate(0 14.303)" fill="#dce8ef"/>
      <rect id="Rectángulo_26568" data-name="Rectángulo 26568" width="13.522" height="2.169" transform="translate(0 19.07)" fill="#dce8ef"/>
      <rect id="Rectángulo_26569" data-name="Rectángulo 26569" width="13.522" height="2.169" transform="translate(0 23.838)" fill="#dce8ef"/>
    </g>
  </g>
  <g id="Grupo_29082" data-name="Grupo 29082" transform="translate(295.908 114.753)">
    <rect id="Rectángulo_26570" data-name="Rectángulo 26570" width="73.626" height="45.914" rx="2.294" transform="translate(0)" fill="url(#linear-gradient)"/>
    <g id="Grupo_29078" data-name="Grupo 29078" transform="translate(8.332 4.368)" style="mix-blend-mode: multiply;isolation: isolate">
      <line id="Línea_260" data-name="Línea 260" y2="37.179" transform="translate(56.963)" fill="none" stroke="#dce8ef" stroke-miterlimit="10" stroke-width="0.5"/>
      <line id="Línea_261" data-name="Línea 261" y2="37.179" transform="translate(47.469)" fill="none" stroke="#dce8ef" stroke-miterlimit="10" stroke-width="0.5"/>
      <line id="Línea_262" data-name="Línea 262" y2="37.179" transform="translate(37.975)" fill="none" stroke="#dce8ef" stroke-miterlimit="10" stroke-width="0.5"/>
      <line id="Línea_263" data-name="Línea 263" y2="37.179" transform="translate(28.481)" fill="none" stroke="#dce8ef" stroke-miterlimit="10" stroke-width="0.5"/>
      <line id="Línea_264" data-name="Línea 264" y2="37.179" transform="translate(18.988)" fill="none" stroke="#dce8ef" stroke-miterlimit="10" stroke-width="0.5"/>
      <line id="Línea_265" data-name="Línea 265" y2="37.179" fill="none" stroke="#dce8ef" stroke-miterlimit="10" stroke-width="0.5"/>
      <line id="Línea_266" data-name="Línea 266" y2="37.179" transform="translate(9.494)" fill="none" stroke="#dce8ef" stroke-miterlimit="10" stroke-width="0.5"/>
    </g>
    <g id="Grupo_29081" data-name="Grupo 29081" transform="translate(6.44 4.963)">
      <g id="Grupo_29080" data-name="Grupo 29080">
        <path id="Trazado_68968" data-name="Trazado 68968" d="M615.456,242.491l9.494-9.194,9.494-2.386,9.494-9.4,9.494,3.784,9.494-4.793,9.494-5.2" transform="translate(-613.564 -213.41)" fill="none" stroke="#f6c343" stroke-linecap="round" stroke-miterlimit="10" stroke-width="1"/>
        <g id="Grupo_29079" data-name="Grupo 29079">
          <rect id="Rectángulo_26571" data-name="Rectángulo 26571" width="3.784" height="3.784" transform="translate(0 27.188)" fill="#002b45"/>
          <rect id="Rectángulo_26572" data-name="Rectángulo 26572" width="3.784" height="3.784" transform="translate(9.494 17.994)" fill="#00223d"/>
          <rect id="Rectángulo_26573" data-name="Rectángulo 26573" width="3.784" height="3.784" transform="translate(18.988 15.608)" fill="#00223d"/>
          <rect id="Rectángulo_26574" data-name="Rectángulo 26574" width="3.784" height="3.784" transform="translate(28.481 6.21)" fill="#00223d"/>
          <rect id="Rectángulo_26575" data-name="Rectángulo 26575" width="3.784" height="3.784" transform="translate(37.975 9.994)" fill="#00223d"/>
          <rect id="Rectángulo_26576" data-name="Rectángulo 26576" width="3.784" height="3.784" transform="translate(47.469 5.201)" fill="#00223d"/>
          <rect id="Rectángulo_26577" data-name="Rectángulo 26577" width="3.784" height="3.784" transform="translate(56.963)" fill="#00223d"/>
        </g>
      </g>
    </g>
  </g>
  <path id="Trazado_68969" data-name="Trazado 68969" d="M379.053,230.476h.406a1.112,1.112,0,0,0,0-2.223h-.405l1.676-3.222h-4.321a15.008,15.008,0,1,0,0,8.669h4.322Zm-17.011,11.672a12.783,12.783,0,1,1,12.026-17.117h-.058l-1.676,3.222h-.476a9.88,9.88,0,1,0,0,2.223h.474l1.679,3.224h.057A12.8,12.8,0,0,1,362.042,242.147Zm3.82-13.9a3.981,3.981,0,1,0,0,2.223h3.755a7.657,7.657,0,1,1,0-2.223Z" transform="translate(-335.945 -93.781)" fill="#12263f"/>
  <path id="Trazado_68970" data-name="Trazado 68970" d="M640.835,317.642h10.4v-3.879h-10.4ZM654.5,302.885c.078-.925.126-1.859.126-2.8a33.187,33.187,0,0,0-7.23-20.728,1.747,1.747,0,0,0-2.726,0,33.187,33.187,0,0,0-7.229,20.728c0,.945.048,1.879.126,2.8-5.185,3.49-8.6,12.13-4.811,18.8a.693.693,0,0,0,1.283-.166c.583-2.51,2.156-7.129,5.974-8.92h12.039c3.82,1.791,5.392,6.411,5.975,8.92a.693.693,0,0,0,1.283.166C663.106,315.016,659.688,306.376,654.5,302.885Zm-8.467-8.424A3.065,3.065,0,1,1,649.1,291.4,3.064,3.064,0,0,1,646.036,294.462Z" transform="translate(-309.77 -87.853)" fill="#c5e5fe"/>
  <g id="Grupo_29083" data-name="Grupo 29083" transform="translate(29.702 61.262)">
    <path id="Trazado_68971" data-name="Trazado 68971" d="M366.374,164.64a2.3,2.3,0,1,0-1.624-.673,2.316,2.316,0,0,0,1.624.673" transform="translate(-364.077 -160.047)" fill="#cbd9e4"/>
    <path id="Trazado_68972" data-name="Trazado 68972" d="M396.958,164.64h.011a2.3,2.3,0,1,0,0-4.593h-.011a2.3,2.3,0,0,0,0,4.593Zm-15.971,0H381a2.3,2.3,0,1,0,0-4.593h-.011a2.3,2.3,0,0,0,0,4.593Z" transform="translate(-362.731 -160.047)" fill="#cbd9e4"/>
    <path id="Trazado_68973" data-name="Trazado 68973" d="M410.245,164.64a2.3,2.3,0,1,0-1.624-.673,2.313,2.313,0,0,0,1.624.673" transform="translate(-360.035 -160.047)" fill="#cbd9e4"/>
  </g>
  <g id="Grupo_29084" data-name="Grupo 29084" transform="translate(310.209 0)">
    <path id="Trazado_68974" data-name="Trazado 68974" d="M623.218,108.545a2.3,2.3,0,1,0-1.624-.673,2.309,2.309,0,0,0,1.624.673" transform="translate(-620.921 -103.953)" fill="#cbd9e4"/>
    <path id="Trazado_68975" data-name="Trazado 68975" d="M653.8,108.545h.012a2.3,2.3,0,1,0,0-4.592H653.8a2.3,2.3,0,1,0,0,4.592Zm-15.971,0h.012a2.3,2.3,0,1,0,0-4.592h-.012a2.3,2.3,0,0,0,0,4.592Z" transform="translate(-619.575 -103.953)" fill="#cbd9e4"/>
    <path id="Trazado_68976" data-name="Trazado 68976" d="M667.09,108.545a2.3,2.3,0,1,0-1.624-.673,2.312,2.312,0,0,0,1.624.673" transform="translate(-616.879 -103.953)" fill="#cbd9e4"/>
  </g>
  <g id="Grupo_29085" data-name="Grupo 29085" transform="translate(30.828 346.399)">
    <path id="Trazado_68977" data-name="Trazado 68977" d="M375.219,431.241H365.108V421.13h10.111Zm-8.389-1.722H373.5v-6.666H366.83Z" transform="translate(-365.108 -421.13)" fill="#dfe1f7"/>
  </g>
  <g id="Grupo_29086" data-name="Grupo 29086" transform="translate(365.962 210.759)">
    <path id="Trazado_68978" data-name="Trazado 68978" d="M682.082,307.044H671.971V296.933h10.111Zm-8.388-1.724h6.665v-6.665h-6.665Z" transform="translate(-671.971 -296.933)" fill="#cbd9e4"/>
  </g>
  <g id="Grupo_29087" data-name="Grupo 29087" transform="translate(365.962 227.404)">
    <path id="Trazado_68979" data-name="Trazado 68979" d="M682.082,322.285H671.971V312.174h10.111Zm-8.388-1.722h6.665V313.9h-6.665Z" transform="translate(-671.971 -312.174)" fill="#cbd9e4"/>
  </g>
  <path id="Trazado_68980" data-name="Trazado 68980" d="M386.03,375.565v-6.022h-3.342v6.022h-6.023v3.342h6.023v6.023h3.342v-6.023h6.021v-3.342Z" transform="translate(-333.216 -79.484)" fill="#002b45"/>
  <path id="Trazado_68981" data-name="Trazado 68981" d="M639.233,438.771a1.98,1.98,0,1,0,1.4.58A1.992,1.992,0,0,0,639.233,438.771Zm10.211,0h-.01a1.979,1.979,0,0,0,0,3.959h.01a1.979,1.979,0,0,0,0-3.959Zm-10.211-10.11a1.98,1.98,0,1,0,1.4.58A2,2,0,0,0,639.233,428.661Zm10.2,3.959h.01a1.979,1.979,0,0,0,0-3.959h-.01a1.979,1.979,0,0,0,0,3.959Z" transform="translate(-309.207 -74.037)" fill="#f9fbfc"/>
  <path id="Trazado_68982" data-name="Trazado 68982" d="M350.185,295.855a2.3,2.3,0,1,0,1.624.673A2.316,2.316,0,0,0,350.185,295.855Zm11.848,0h-.011a2.3,2.3,0,1,0,0,4.594h.011a2.3,2.3,0,0,0,0-4.594Zm-11.848-11.729a2.295,2.295,0,1,0,1.624.672A2.314,2.314,0,0,0,350.185,284.126Zm11.837,4.592h.011a2.3,2.3,0,1,0,0-4.592h-.011a2.3,2.3,0,1,0,0,4.592Z" transform="translate(-335.867 -87.354)" fill="#cbd9e4"/>
  <path id="Trazado_68983" data-name="Trazado 68983" d="M660.8,269.805h-9.49v1.532h9.49Zm-6.158,9.571,1.083,1.083,6.709-6.71-1.083-1.083Zm13.617-9.571v1.532h9.489v-1.532Zm-13.617-8.038,6.709,6.709,1.083-1.083-6.709-6.709Zm19.775,0-1.084-1.083-6.709,6.709,1.083,1.083Zm-7.792,11.983,6.709,6.71,1.084-1.083-6.709-6.71Zm-2.86-6.909H665.3v-9.487h-1.532Zm0,16.948H665.3V274.3h-1.532Z" transform="translate(-307.912 -89.82)" fill="#cbd9e4"/>
  <path id="Trazado_68984" data-name="Trazado 68984" d="M389.091,179.931h-33.74a5.086,5.086,0,0,0-5.087,5.087v18.866" transform="translate(-335.648 -96.953)" fill="none" stroke="#cbd9e4" stroke-miterlimit="10" stroke-width="2"/>
  <path id="Trazado_68985" data-name="Trazado 68985" d="M660,290.711h27.144a3.608,3.608,0,0,1,3.608,3.607v47.65a3.608,3.608,0,0,1-3.608,3.607h-10.1" transform="translate(-307.112 -86.747)" fill="none" stroke="#cbd9e4" stroke-miterlimit="10" stroke-width="2"/>
  <path id="Trazado_68986" data-name="Trazado 68986" d="M372.883,378.71H353.956a4.884,4.884,0,0,1-4.884-4.884V353.538" transform="translate(-335.758 -80.959)" fill="none" stroke="#cbd9e4" stroke-miterlimit="10" stroke-width="2"/>
  <path id="Trazado_68987" data-name="Trazado 68987" d="M413.173,120.479V110.82a4.764,4.764,0,0,1,4.765-4.764h210.3" transform="translate(-329.852 -103.759)" fill="none" stroke="#cbd9e4" stroke-miterlimit="10" stroke-width="2"/>
  <line id="Línea_267" data-name="Línea 267" y2="46.361" transform="translate(51.143 310.148)" fill="none" stroke="#dfe1f7" stroke-miterlimit="10" stroke-width="2"/>
</svg>
