<svg xmlns="http://www.w3.org/2000/svg" xmlns:xlink="http://www.w3.org/1999/xlink" width="391.758" height="287.758" viewBox="0 0 391.758 287.758">
  <defs>
    <linearGradient id="linear-gradient" x1="0.5" x2="0.5" y2="1" gradientUnits="objectBoundingBox">
      <stop offset="0" stop-color="#ff5983"/>
      <stop offset="1" stop-color="#7e137c"/>
    </linearGradient>
    <filter id="Rectángulo_45921" x="289.87" y="0" width="97.553" height="287.758" filterUnits="userSpaceOnUse">
      <feOffset dy="3" input="SourceAlpha"/>
      <feGaussianBlur stdDeviation="3" result="blur"/>
      <feFlood flood-opacity="0.161"/>
      <feComposite operator="in" in2="blur"/>
      <feComposite in="SourceGraphic"/>
    </filter>
    <clipPath id="clip-path">
      <path id="Trazado_26183" data-name="Trazado 26183" d="M467.243,180.067l-13.108.046a3.851,3.851,0,0,1-.483,4.655,3,3,0,0,1-3.143.725c-1.324-.657-1.989-3.016-.731-5.365-.228-.007-.56-.018-.96-.029a30.878,30.878,0,0,0-4.992.05,5.4,5.4,0,0,0-3.173,1.328,4.493,4.493,0,0,0-1.108,1.845,4.564,4.564,0,0,0-.2,1.338c-.007,1.277.05,14.044.051,14.363a3.194,3.194,0,0,0-3.133,1.1,2.985,2.985,0,0,0,3.154,4.8s.1,27.348.1,28.035l27.726-.1Z" transform="translate(-435.557 -180.037)" fill="none"/>
    </clipPath>
    <clipPath id="clip-path-2">
      <path id="Trazado_26197" data-name="Trazado 26197" d="M427.42,157.205l7.811.518a3.293,3.293,0,0,0,1.178,3.664,3,3,0,0,0,3.112.214,3.112,3.112,0,0,0,1.416-3.5l4.772.317a19.948,19.948,0,0,0,.812-4.663,22.6,22.6,0,1,0-36.892,15.97l-.609,9.176-.685,10.32a8.869,8.869,0,0,0,.06,1.782,8.761,8.761,0,0,0,.483,1.9,8.861,8.861,0,0,0,6.587,5.6,6.56,6.56,0,0,0,4.467,3.1c.337-6.107,1.026-19.01,1.033-19.354a2.679,2.679,0,0,1-2.9-.967,2.646,2.646,0,0,1,.4-3.472,2.7,2.7,0,0,1,3.007-.331c.021-.383.774-11.081,1.127-16.047C424.391,158.312,426.109,157.119,427.42,157.205Z" transform="translate(-401.364 -129.655)" fill="none"/>
    </clipPath>
    <linearGradient id="linear-gradient-2" x1="0.5" x2="0.5" y2="1" gradientUnits="objectBoundingBox">
      <stop offset="0" stop-color="#dc296b"/>
      <stop offset="1" stop-color="#ff6df9"/>
    </linearGradient>
    <linearGradient id="linear-gradient-3" x1="0.5" x2="0.5" y2="1" gradientUnits="objectBoundingBox">
      <stop offset="0" stop-color="#4dd0e1"/>
      <stop offset="1" stop-color="#039be5"/>
    </linearGradient>
    <clipPath id="clip-path-3">
      <rect id="Rectángulo_4014" data-name="Rectángulo 4014" width="112.003" height="60.143" rx="1" fill="#1565c0"/>
    </clipPath>
    <linearGradient id="linear-gradient-6" x1="0.5" x2="0.5" y2="1" gradientUnits="objectBoundingBox">
      <stop offset="0" stop-color="#f5f5f5"/>
      <stop offset="0.25" stop-color="#f5f5f5"/>
      <stop offset="1" stop-color="#a7b3cf"/>
    </linearGradient>
    <linearGradient id="linear-gradient-7" x1="0.5" x2="0.5" y2="1" gradientUnits="objectBoundingBox">
      <stop offset="0" stop-color="#fff"/>
      <stop offset="1" stop-color="#d2e6ee"/>
    </linearGradient>
    <clipPath id="clip-path-4">
      <path id="Trazado_26215" data-name="Trazado 26215" d="M323.572,199.453c.488.619,2.416,1.7,2.907,2.979s-1.159,1.617-1.159,1.617c.243,2.025.5,4.459-.761,6.209-.932,1.293-2.694,2.4-4.209,1.378.408,1.316.9,2.716,1.5,4.179a51.541,51.541,0,0,0,2.581,5.407,22.183,22.183,0,0,1-2.458.443,22.43,22.43,0,0,1-6.075-.093c-2.953-1.75-3.6-3.234-3.631-4.285-.046-1.745,1.623-2.511,2.091-4.631.486-2.2-.659-4.334-1.707-5.794a1.81,1.81,0,0,1-1.855.017c-.721-.56-1.427-1.868-.76-2.657a1.907,1.907,0,0,1,2.261-.535c.647-1.032,2.058-2.686,1.347-5.479,2.1-.424,7.537-2.965,8.5-5.248C322.231,193.321,323.084,198.833,323.572,199.453Z" transform="translate(-309.766 -192.958)" fill="#d08b73"/>
    </clipPath>
    <clipPath id="clip-path-5">
      <path id="Trazado_26225" data-name="Trazado 26225" d="M318.62,229.4a25.618,25.618,0,0,1,8.592,10.745q.049-6.372.1-12.745l-3.187-4.632,1.541-5.189,4.843.778,2.457,4.151q-.567,2.553-1.134,5.105c.3,2.948.7,7.1,1.142,12.13.379,4.355.7,8.584-1.287,9.9a5.9,5.9,0,0,1-2.633.867,6.03,6.03,0,0,1-2.146-.355c-1.809-.664-7.747-6.077-15.175-14.036Z" transform="translate(-311.73 -217.579)" fill="#d08b73"/>
    </clipPath>
    <clipPath id="clip-path-6">
      <path id="Trazado_26234" data-name="Trazado 26234" d="M208.708,245.513l-4.572,8.44,7.523,6.126a9.477,9.477,0,0,1-.5-4.529,9.8,9.8,0,0,1,3.174-5.86Z" transform="translate(-204.136 -245.513)" fill="#d08b73"/>
    </clipPath>
    <clipPath id="clip-path-7">
      <path id="Trazado_26238" data-name="Trazado 26238" d="M205.7,261.875c-.648-.959-1.351-1.944-2.115-2.946-1.308-1.718-2.621-3.261-3.895-4.638-5.5.228-8.3,2.165-9.724,3.551-3,2.923-3.766,7.062-3.532,23.773.087,6.24.216,11.412.319,15.044a14.238,14.238,0,0,0,21.484-1.12c-.189-4.772-.429-8.641-.611-11.275-.409-5.907-.56-9.289-.985-13.805C206.3,266.86,205.951,263.9,205.7,261.875Z" transform="translate(-186.392 -254.291)" fill="#00223d"/>
    </clipPath>
    <linearGradient id="linear-gradient-8" x1="0.5" x2="0.5" y2="1" gradientUnits="objectBoundingBox">
      <stop offset="0" stop-color="#fff"/>
      <stop offset="1" stop-color="#d3d3d3"/>
    </linearGradient>
    <radialGradient id="radial-gradient" cx="0.076" cy="0.019" r="1.465" gradientTransform="translate(0.001)" gradientUnits="objectBoundingBox">
      <stop offset="0" stop-color="#f6f6f7"/>
      <stop offset="0.477" stop-color="#f9f9fa"/>
      <stop offset="0.715" stop-color="#fff"/>
    </radialGradient>
    <clipPath id="clip-path-8">
      <path id="Trazado_26257" data-name="Trazado 26257" d="M498.29,294.241s.02,22.5.827,26.51,11.361,24.309,11.361,24.309l2.057,2.975,5.094-2.975a96.873,96.873,0,0,0-3.228-14.137c-2.081-6.234-5.282-8.935-4.76-11.356a81.326,81.326,0,0,0,.836-18.4c-.667-6.245-2.258-13.48-2.258-13.48l-10.728.2Z" transform="translate(-497.492 -287.689)" fill="#12263f"/>
    </clipPath>
    <clipPath id="clip-path-9">
      <path id="Trazado_26265" data-name="Trazado 26265" d="M506.629,217.918c-.223.593-.539,1.51-.67,1.733a26.377,26.377,0,0,0-2.393,2c-.315.535.937.941.937.941-.034-.015-.764,2.614-.784,2.876a3.611,3.611,0,0,0,1.743,3.016,3.709,3.709,0,0,0,3.767,0c-.293,1.069-.6,2.133-.911,3.2l5.273,1.915a24.754,24.754,0,0,1,.778-5.072c.539-1.257,1.741-4.533,1.741-4.533a1.362,1.362,0,0,0,1.085-.345c.571-.462.862-1.955-.064-2.311a1.272,1.272,0,0,0-1.7.637c-.686-.091-1.267-1.729-1.486-2.248-.687-1.63-.274-3.217.061-4.868-.036.178-1.047.525-1.214.661a4.269,4.269,0,0,0-1.116,2.025,10.8,10.8,0,0,0-.277,1.133c-.158.81.044,1.254-.954.951A20.185,20.185,0,0,1,506.629,217.918Z" transform="translate(-503.514 -214.86)" fill="#d08b73"/>
    </clipPath>
  </defs>
  <g id="Grupo_173814" data-name="Grupo 173814" transform="translate(-248.787 -9617.06)">
    <g transform="matrix(1, 0, 0, 1, 248.79, 9617.06)" filter="url(#Rectángulo_45921)">
      <rect id="Rectángulo_45921-2" data-name="Rectángulo 45921" width="79.553" height="269.758" rx="18" transform="translate(298.87 6)" fill="url(#linear-gradient)"/>
    </g>
    <g id="Grupo_155190" data-name="Grupo 155190" transform="translate(291.791 9868.843)">
      <path id="Trazado_84118" data-name="Trazado 84118" d="M1076.286,1977.878h-341.2a3.788,3.788,0,0,0-3.777,3.777h0a3.788,3.788,0,0,0,3.777,3.777h341.2a3.788,3.788,0,0,0,3.777-3.777h0A3.788,3.788,0,0,0,1076.286,1977.878Z" transform="translate(-731.309 -1977.878)" fill="#12263f"/>
    </g>
    <ellipse id="Elipse_5969" data-name="Elipse 5969" cx="116.861" cy="119.137" rx="116.861" ry="119.137" transform="translate(390.753 9623.06)" fill="#f8fbfd"/>
    <ellipse id="Elipse_5971" data-name="Elipse 5971" cx="106.389" cy="106.389" rx="106.389" ry="106.389" transform="translate(284.939 9653.905)" fill="#f8fbfd"/>
    <g id="Grupo_46890" data-name="Grupo 46890" transform="translate(248.787 9644.354)">
      <g id="BACKGROUND" transform="translate(0 0)">
        <g id="Grupo_15917" data-name="Grupo 15917" transform="translate(0)" opacity="0.2">
          <ellipse id="Elipse_1058" data-name="Elipse 1058" cx="10.385" cy="10.385" rx="10.385" ry="10.385" transform="translate(342.825 129.548) rotate(-72.134)" fill="#00223d"/>
          <ellipse id="Elipse_1059" data-name="Elipse 1059" cx="10.385" cy="10.385" rx="10.385" ry="10.385" transform="translate(366.794 78.542) rotate(-13.194)" fill="#00223d"/>
          <ellipse id="Elipse_1060" data-name="Elipse 1060" cx="3.959" cy="3.959" rx="3.959" ry="3.959" transform="translate(345.728 98.119)" fill="#00223d"/>
          <ellipse id="Elipse_1061" data-name="Elipse 1061" cx="9.213" cy="9.213" rx="9.213" ry="9.213" transform="translate(163.224 11.529)" fill="#eef9f9"/>
          <circle id="Elipse_1062" data-name="Elipse 1062" cx="5.8" cy="5.8" r="5.8" transform="matrix(0.722, -0.692, 0.692, 0.722, 135.498, 11.356)" fill="#eef2f5"/>
          <ellipse id="Elipse_1063" data-name="Elipse 1063" cx="5.8" cy="5.8" rx="5.8" ry="5.8" transform="translate(203.251)" fill="#eef2f5"/>
          <ellipse id="Elipse_1064" data-name="Elipse 1064" cx="17.916" cy="17.916" rx="17.916" ry="17.916" transform="translate(0 126.409) rotate(-9.217)" fill="#b0c0d2"/>
          <ellipse id="Elipse_1065" data-name="Elipse 1065" cx="17.916" cy="17.916" rx="17.916" ry="17.916" transform="translate(8.513 25.348)" fill="#aee6e6"/>
          <ellipse id="Elipse_1066" data-name="Elipse 1066" cx="5.114" cy="5.114" rx="5.114" ry="5.114" transform="translate(41.259 104.774)" fill="#fcf3f1"/>
        </g>
        <ellipse id="Elipse_1067" data-name="Elipse 1067" cx="5.408" cy="5.408" rx="5.408" ry="5.408" transform="translate(26.429 171.357)" fill="#fcf3f1" opacity="0.2"/>
      </g>
      <g id="OBJECTS" transform="translate(34.319 30.214)">
        <g id="Grupo_15980" data-name="Grupo 15980" transform="translate(0)">
          <g id="Grupo_15935" data-name="Grupo 15935" transform="translate(125.173)">
            <rect id="Rectángulo_4007" data-name="Rectángulo 4007" width="160.818" height="115.673" rx="3" fill="#12263f"/>
            <rect id="Rectángulo_4008" data-name="Rectángulo 4008" width="153.454" height="110.597" rx="3" transform="translate(3.682 2.538)" fill="#fefefe"/>
            <g id="Grupo_15927" data-name="Grupo 15927" transform="translate(78.897 46.886)">
              <g id="Grupo_15926" data-name="Grupo 15926" clip-path="url(#clip-path)">
                <g id="Grupo_15925" data-name="Grupo 15925" transform="translate(-27.45 -36.547)">
                  <path id="Trazado_26169" data-name="Trazado 26169" d="M439.933,243.762h-1.265a5.931,5.931,0,0,1-5.955-5.909v-.684h13.156v.611A5.959,5.959,0,0,1,439.933,243.762Z" transform="translate(-407.173 -162.253)" fill="#12263f"/>
                  <circle id="Elipse_1068" data-name="Elipse 1068" cx="22.603" cy="22.603" r="22.603" transform="translate(0 31.966) rotate(-45)" fill="#f5ca56"/>
                  <path id="Trazado_26170" data-name="Trazado 26170" d="M449.181,211.8h-26.3V186.29h26.211Z" transform="translate(-403.944 -145.543)" fill="#f5ca56"/>
                  <g id="Grupo_15923" data-name="Grupo 15923" transform="translate(26.305 29.744)">
                    <path id="Trazado_26171" data-name="Trazado 26171" d="M434.764,200.817h-.743V173.243h.646Z" transform="translate(-433.908 -171.002)" fill="#282e5b"/>
                    <path id="Trazado_26172" data-name="Trazado 26172" d="M450.468,200.536h-.743V172.5h.644Z" transform="translate(-439.065 -170.758)" fill="#282e5b"/>
                    <path id="Trazado_26173" data-name="Trazado 26173" d="M437.613,173.376h-.024c-.526-.015-.756-.572-.976-1.111-.207-.5-.441-1.074-.842-1.165a1.026,1.026,0,0,0-.884.332,1.21,1.21,0,0,0-.28.972l-.733.121a1.95,1.95,0,0,1,.474-1.605,1.757,1.757,0,0,1,1.588-.545c.778.177,1.1.97,1.365,1.608a2.264,2.264,0,0,0,.339.657,4.165,4.165,0,0,0,.494-.9c.316-.68.643-1.383,1.263-1.385h0c.593,0,.9.641,1.191,1.261.126.267.361.762.494.808a3.144,3.144,0,0,0,.38-.753c.29-.692.651-1.553,1.478-1.73a1.957,1.957,0,0,1,1.96.925,2.008,2.008,0,0,1,.255,1.295l-.736-.1a1.272,1.272,0,0,0-.154-.811,1.237,1.237,0,0,0-1.17-.586c-.447.1-.713.731-.948,1.291-.258.617-.5,1.2-1.064,1.208h-.009c-.573,0-.87-.625-1.158-1.232-.123-.261-.381-.8-.52-.836-.145,0-.468.7-.59.956C438.505,172.7,438.193,173.374,437.613,173.376Z" transform="translate(-433.852 -169.907)" fill="#282e5b"/>
                  </g>
                  <g id="Grupo_15924" data-name="Grupo 15924" transform="translate(18.912 59.54)">
                    <path id="Trazado_26174" data-name="Trazado 26174" d="M449.186,228l-26.3-3.769v1.839l26.085,3.737A8.887,8.887,0,0,0,449.186,228Z" transform="translate(-422.857 -217.544)" fill="#bec6c4"/>
                    <path id="Trazado_26175" data-name="Trazado 26175" d="M449.18,222.628l-26.315-3.77V220.7l26.315,3.77Z" transform="translate(-422.851 -215.779)" fill="#bec6c4"/>
                    <path id="Trazado_26176" data-name="Trazado 26176" d="M449.146,214.273h-26.3v1.308l26.3,3.77Z" transform="translate(-422.844 -214.273)" fill="#bec6c4"/>
                    <path id="Trazado_26177" data-name="Trazado 26177" d="M448.407,233.262,422.9,229.607v.091a8.938,8.938,0,0,0,.185,1.773l24.316,3.484A8.861,8.861,0,0,0,448.407,233.262Z" transform="translate(-422.862 -219.309)" fill="#bec6c4"/>
                    <path id="Trazado_26178" data-name="Trazado 26178" d="M424.088,235.15a8.838,8.838,0,0,0,8.089,5.179h8.559a8.859,8.859,0,0,0,5.557-2Z" transform="translate(-423.253 -221.129)" fill="#bec6c4"/>
                    <path id="Trazado_26179" data-name="Trazado 26179" d="M449.146,219.992l-26.3-3.77.014,1.771,26.315,3.77Z" transform="translate(-422.844 -214.913)" fill="#eeeff0"/>
                    <path id="Trazado_26180" data-name="Trazado 26180" d="M449.18,226.946v-1.58l-26.315-3.77.013,1.771,26.3,3.769C449.181,227.072,449.18,227.01,449.18,226.946Z" transform="translate(-422.851 -216.678)" fill="#eeeff0"/>
                    <path id="Trazado_26181" data-name="Trazado 26181" d="M448.969,230.708l-26.085-3.737.009,1.77L448.4,232.4A8.825,8.825,0,0,0,448.969,230.708Z" transform="translate(-422.857 -218.443)" fill="#eeeff0"/>
                    <path id="Trazado_26182" data-name="Trazado 26182" d="M447.489,235.867l-24.316-3.484a8.772,8.772,0,0,0,.615,1.858l22.205,3.181A8.918,8.918,0,0,0,447.489,235.867Z" transform="translate(-422.952 -220.221)" fill="#eeeff0"/>
                  </g>
                </g>
              </g>
            </g>
            <g id="Grupo_15930" data-name="Grupo 15930" transform="translate(55.933 13.05)">
              <g id="Grupo_15929" data-name="Grupo 15929" clip-path="url(#clip-path-2)">
                <g id="Grupo_15928" data-name="Grupo 15928" transform="translate(0 0.001)">
                  <path id="Trazado_26184" data-name="Trazado 26184" d="M423.48,232.311a9,9,0,0,1-1.12-.151,6.574,6.574,0,0,0,10.81.712,8.993,8.993,0,0,1-1.15.006Z" transform="translate(-408.259 -163.319)" fill="#12263f"/>
                  <path id="Trazado_26185" data-name="Trazado 26185" d="M446.521,153.757a22.6,22.6,0,1,0-36.892,15.97l-.609,9.176,7.489.5,1.8-27.177a1.927,1.927,0,0,1,.587-1.528,1.756,1.756,0,0,1,1.622-.433c.763.23,1.033,1.045,1.249,1.7a2.256,2.256,0,0,0,.293.68,4.21,4.21,0,0,0,.555-.866c.363-.656.739-1.335,1.357-1.294h0c.592.04.851.7,1.1,1.34.107.275.307.785.436.841a3.159,3.159,0,0,0,.431-.725c.338-.67.758-1.5,1.6-1.623a1.958,1.958,0,0,1,1.89,1.06,1.981,1.981,0,0,1,.172,1.263l-1.827,27.512,7.49.5.609-9.176A22.569,22.569,0,0,0,446.521,153.757Z" transform="translate(-401.364 -129.656)" fill="#f5ca56"/>
                  <path id="Trazado_26186" data-name="Trazado 26186" d="M436.656,162.564a1.136,1.136,0,0,0-.119-.438,1.239,1.239,0,0,0-1.126-.666c-.453.064-.762.68-1.036,1.222-.3.6-.584,1.16-1.146,1.13h-.008c-.572-.038-.825-.684-1.069-1.309-.1-.269-.324-.828-.461-.871-.144-.009-.515.661-.655.913-.346.628-.7,1.277-1.283,1.238l-.023,0c-.525-.043-.715-.624-.9-1.177-.171-.516-.365-1.1-.759-1.222a1.027,1.027,0,0,0-.9.271,1.111,1.111,0,0,0-.338.692h.013l-1.827,27.514,9.782.649Z" transform="translate(-409.132 -140.067)" fill="#f5ca56"/>
                  <path id="Trazado_26187" data-name="Trazado 26187" d="M426.482,161.983h-.013a1.112,1.112,0,0,1,.339-.692,1.027,1.027,0,0,1,.9-.271c.394.119.588.705.759,1.222.183.553.372,1.134.9,1.177l.023,0c.579.038.937-.61,1.283-1.238.14-.252.51-.921.655-.913.137.043.356.6.461.871.244.625.5,1.271,1.069,1.309h.008c.561.03.845-.533,1.146-1.13.273-.543.583-1.158,1.036-1.222a1.239,1.239,0,0,1,1.126.666,1.136,1.136,0,0,1,.119.438l-1.856,27.945.741.05,1.827-27.512a1.98,1.98,0,0,0-.172-1.263,1.958,1.958,0,0,0-1.89-1.06c-.837.119-1.257.953-1.6,1.623a3.156,3.156,0,0,1-.431.725c-.129-.056-.329-.566-.436-.841-.25-.639-.509-1.3-1.1-1.34h0c-.618-.041-.994.638-1.357,1.294a4.209,4.209,0,0,1-.555.866,2.251,2.251,0,0,1-.293-.68c-.216-.654-.486-1.469-1.249-1.7a1.756,1.756,0,0,0-1.622.433,1.927,1.927,0,0,0-.587,1.528l-1.8,27.177.741.049Z" transform="translate(-408.77 -139.703)" fill="#12263f"/>
                  <path id="Trazado_26188" data-name="Trazado 26188" d="M412.048,212.854l-.122,1.835,25.757,5.547a8.88,8.88,0,0,0,.343-1.787Z" transform="translate(-404.833 -156.979)" fill="#bec6c4"/>
                  <path id="Trazado_26189" data-name="Trazado 26189" d="M412.4,207.491l-.122,1.835,25.988,5.6.122-1.835Z" transform="translate(-404.95 -155.218)" fill="#bec6c4"/>
                  <path id="Trazado_26190" data-name="Trazado 26190" d="M430.735,204.181l-18.013-1.2-.084,1.259,25.988,5.6.339-5.114Z" transform="translate(-405.067 -153.738)" fill="#bec6c4"/>
                  <path id="Trazado_26191" data-name="Trazado 26191" d="M411.733,218.308a8.869,8.869,0,0,0,.061,1.782l24.013,5.171a8.886,8.886,0,0,0,1.124-1.619l-25.191-5.425Z" transform="translate(-404.763 -158.74)" fill="#bec6c4"/>
                  <path id="Trazado_26192" data-name="Trazado 26192" d="M412.552,223.828a8.86,8.86,0,0,0,6.587,5.6,9.015,9.015,0,0,0,1.12.151l8.54.567a8.994,8.994,0,0,0,1.15-.006,8.843,8.843,0,0,0,4.533-1.585Z" transform="translate(-405.038 -160.583)" fill="#bec6c4"/>
                  <path id="Trazado_26193" data-name="Trazado 26193" d="M412.581,204.86l-.117,1.767,25.988,5.6.117-1.767Z" transform="translate(-405.009 -154.354)" fill="#eeeff0"/>
                  <path id="Trazado_26194" data-name="Trazado 26194" d="M412.225,210.223l-.117,1.767,25.978,5.594c.005-.063.017-.125.022-.189l.1-1.576Z" transform="translate(-404.892 -156.115)" fill="#eeeff0"/>
                  <path id="Trazado_26195" data-name="Trazado 26195" d="M411.752,217.353l25.191,5.425a8.78,8.78,0,0,0,.683-1.645l-25.757-5.547Z" transform="translate(-404.775 -157.876)" fill="#eeeff0"/>
                  <path id="Trazado_26196" data-name="Trazado 26196" d="M412.316,222.9l21.929,4.723a8.906,8.906,0,0,0,1.6-1.447l-24.013-5.171A8.758,8.758,0,0,0,412.316,222.9Z" transform="translate(-404.802 -159.656)" fill="#eeeff0"/>
                </g>
              </g>
            </g>
            <path id="Trazado_26198" data-name="Trazado 26198" d="M491.2,142.877a16.7,16.7,0,1,1,0,33.392" transform="translate(-374.935 -120.947)" fill="none" stroke="#12263f" stroke-linecap="round" stroke-linejoin="round" stroke-width="1.772"/>
            <g id="Grupo_15931" data-name="Grupo 15931" transform="translate(14.93 17.518)">
              <line id="Línea_467" data-name="Línea 467" x2="30.394" fill="none" stroke="#baccc6" stroke-linecap="round" stroke-linejoin="round" stroke-width="1"/>
              <line id="Línea_468" data-name="Línea 468" x2="30.394" transform="translate(0 4.412)" fill="none" stroke="#baccc6" stroke-linecap="round" stroke-linejoin="round" stroke-width="1"/>
              <line id="Línea_469" data-name="Línea 469" x2="30.394" transform="translate(0 8.824)" fill="none" stroke="#baccc6" stroke-linecap="round" stroke-linejoin="round" stroke-width="1"/>
              <line id="Línea_470" data-name="Línea 470" x2="30.394" transform="translate(0 13.236)" fill="none" stroke="#baccc6" stroke-linecap="round" stroke-linejoin="round" stroke-width="1"/>
              <line id="Línea_471" data-name="Línea 471" x2="11.788" transform="translate(0 17.648)" fill="none" stroke="#baccc6" stroke-linecap="round" stroke-linejoin="round" stroke-width="1"/>
            </g>
            <g id="Grupo_15932" data-name="Grupo 15932" transform="translate(43.141 77.203)">
              <path id="Trazado_26199" data-name="Trazado 26199" d="M388.734,235.439h4.06a5.544,5.544,0,0,0,.131-1.189v-9.07h-10.61v14.631h5.048a5.552,5.552,0,0,0,1.371-.177Z" transform="translate(-382.315 -225.18)" fill="#c9e8ff"/>
              <path id="Trazado_26200" data-name="Trazado 26200" d="M391.873,244.651a5.562,5.562,0,0,0,4.06-4.195h-4.06Z" transform="translate(-385.454 -230.197)" fill="url(#linear-gradient-2)"/>
            </g>
            <g id="Grupo_15933" data-name="Grupo 15933" transform="translate(48.315 58.985)">
              <path id="Trazado_26201" data-name="Trazado 26201" d="M396.438,208.312h4.06a5.593,5.593,0,0,0,.13-1.189v-9.07H390.02v14.631h5.048a5.554,5.554,0,0,0,1.371-.177Z" transform="translate(-390.02 -198.053)" fill="#aee6e6"/>
              <path id="Trazado_26202" data-name="Trazado 26202" d="M399.577,217.524a5.563,5.563,0,0,0,4.06-4.195h-4.06Z" transform="translate(-393.159 -203.07)" fill="#e8e8e8"/>
            </g>
            <g id="Grupo_15934" data-name="Grupo 15934" transform="translate(55.088 87.463)">
              <path id="Trazado_26203" data-name="Trazado 26203" d="M407.807,252.768h4.872a6.708,6.708,0,0,0,.156-1.427V240.456H400.1v17.559h6.058a6.641,6.641,0,0,0,1.645-.213Z" transform="translate(-400.104 -240.456)" fill="url(#linear-gradient-3)"/>
              <path id="Trazado_26204" data-name="Trazado 26204" d="M411.574,263.823a6.675,6.675,0,0,0,4.872-5.034h-4.872Z" transform="translate(-403.871 -246.477)" fill="#1565c0"/>
            </g>
          </g>
          <g id="Grupo_15940" data-name="Grupo 15940" transform="translate(0 0.825)">
            <g id="Grupo_15938" data-name="Grupo 15938">
              <rect id="Rectángulo_4009" data-name="Rectángulo 4009" width="115.686" height="71.273" rx="3" fill="#00223d"/>
              <g id="Grupo_15937" data-name="Grupo 15937" transform="translate(1.842 2.908)">
                <rect id="Rectángulo_4010" data-name="Rectángulo 4010" width="112.003" height="60.143" rx="3" fill="#fff"/>
                <g id="Grupo_15936" data-name="Grupo 15936" clip-path="url(#clip-path-3)">
                  <rect id="Rectángulo_4011" data-name="Rectángulo 4011" width="31.828" height="10.899" rx="1" transform="translate(11.684 51.037)" fill="url(#linear-gradient)"/>
                  <path id="Trazado_94713" data-name="Trazado 94713" d="M3.263,0H47.68a3.263,3.263,0,0,1,3.263,3.263V7.635A3.263,3.263,0,0,1,47.68,10.9H3.263A3.263,3.263,0,0,1,0,7.635V3.263A3.263,3.263,0,0,1,3.263,0Z" transform="translate(49.376 51.037)" fill="url(#linear-gradient)"/>
                  <path id="Trazado_94712" data-name="Trazado 94712" d="M0,0H131.342V4.846H0Z" transform="translate(-9.669 -0.023)" fill="url(#linear-gradient-6)"/>
                </g>
              </g>
              <path id="Trazado_26205" data-name="Trazado 26205" d="M209.649,113.551c0-.4-.9-.727-2.014-.727s-2.015.325-2.015.727.9.727,2.015.727S209.649,113.952,209.649,113.551Z" transform="translate(-149.791 -111.903)" fill="#282e5b"/>
              <path id="Trazado_26206" data-name="Trazado 26206" d="M209.386,113.641c0-.3-.672-.541-1.5-.541s-1.5.242-1.5.541.671.541,1.5.541S209.386,113.94,209.386,113.641Z" transform="translate(-150.043 -111.994)" fill="#565699"/>
              <path id="Trazado_26207" data-name="Trazado 26207" d="M132.441,173.159V115.41c0-2.186,4.909-3.957,10.965-3.957h-9.95c-6.056,0-10.965,1.771-10.965,3.957v57.749c0,2.185,4.909,3.957,10.965,3.957h9.95C137.351,177.115,132.441,175.344,132.441,173.159Z" transform="translate(-122.491 -111.453)" fill="#034c8a" opacity="0.1"/>
            </g>
            <g id="Grupo_15939" data-name="Grupo 15939" transform="translate(13.525 9.851)">
              <rect id="Rectángulo_4015" data-name="Rectángulo 4015" width="88.636" height="19.712" rx="1" fill="#12263f"/>
              <rect id="Rectángulo_4016" data-name="Rectángulo 4016" width="31.962" height="18.692" rx="1" transform="translate(0 21.568)" fill="#ffa726"/>
              <rect id="Rectángulo_4017" data-name="Rectángulo 4017" width="23.457" height="6.494" rx="1.813" transform="translate(3.402 23.466)" fill="url(#linear-gradient-7)"/>
              <line id="Línea_472" data-name="Línea 472" x2="21.487" transform="translate(4.835 31.682)" fill="none" stroke="#fefefe" stroke-linecap="round" stroke-linejoin="round" stroke-width="0.5"/>
              <line id="Línea_473" data-name="Línea 473" x2="21.487" transform="translate(36.663 21.568)" fill="none" stroke="#f6c343" stroke-linecap="round" stroke-linejoin="round" stroke-width="0.5"/>
              <line id="Línea_474" data-name="Línea 474" x2="21.487" transform="translate(67.148 30.712)" fill="none" stroke="#baccc6" stroke-linecap="round" stroke-linejoin="round" stroke-width="0.5"/>
              <line id="Línea_475" data-name="Línea 475" x2="21.487" transform="translate(67.148 32.312)" fill="none" stroke="#baccc6" stroke-linecap="round" stroke-linejoin="round" stroke-width="0.5"/>
              <line id="Línea_476" data-name="Línea 476" x2="21.487" transform="translate(67.148 33.912)" fill="none" stroke="#baccc6" stroke-linecap="round" stroke-linejoin="round" stroke-width="0.5"/>
              <line id="Línea_477" data-name="Línea 477" x2="21.487" transform="translate(67.148 35.512)" fill="none" stroke="#baccc6" stroke-linecap="round" stroke-linejoin="round" stroke-width="0.5"/>
              <line id="Línea_478" data-name="Línea 478" x2="21.487" transform="translate(67.148 37.112)" fill="none" stroke="#baccc6" stroke-linecap="round" stroke-linejoin="round" stroke-width="0.5"/>
              <line id="Línea_479" data-name="Línea 479" x2="51.973" transform="translate(36.663 23.425)" fill="none" stroke="#baccc6" stroke-linecap="round" stroke-linejoin="round" stroke-width="0.5"/>
              <line id="Línea_480" data-name="Línea 480" x2="51.973" transform="translate(36.663 25.281)" fill="none" stroke="#baccc6" stroke-linecap="round" stroke-linejoin="round" stroke-width="0.5"/>
              <line id="Línea_481" data-name="Línea 481" x2="51.973" transform="translate(36.663 27.138)" fill="none" stroke="#baccc6" stroke-linecap="round" stroke-linejoin="round" stroke-width="0.5"/>
              <line id="Línea_482" data-name="Línea 482" x2="51.973" transform="translate(36.663 28.994)" fill="none" stroke="#baccc6" stroke-linecap="round" stroke-linejoin="round" stroke-width="0.5"/>
              <line id="Línea_483" data-name="Línea 483" x2="51.973" transform="translate(36.663 38.712)" fill="none" stroke="#baccc6" stroke-linecap="round" stroke-linejoin="round" stroke-width="0.5"/>
              <line id="Línea_484" data-name="Línea 484" x2="51.973" transform="translate(36.663 40.26)" fill="none" stroke="#baccc6" stroke-linecap="round" stroke-linejoin="round" stroke-width="0.5"/>
              <line id="Línea_485" data-name="Línea 485" x2="33.887" transform="translate(36.663 41.808)" fill="none" stroke="#baccc6" stroke-linecap="round" stroke-linejoin="round" stroke-width="0.5"/>
              <line id="Línea_486" data-name="Línea 486" x2="19.742" transform="translate(36.663 31.44)" fill="none" stroke="#1565c0" stroke-linecap="round" stroke-linejoin="round" stroke-width="0.5"/>
              <line id="Línea_487" data-name="Línea 487" x2="19.742" transform="translate(36.663 33.691)" fill="none" stroke="#1565c0" stroke-linecap="round" stroke-linejoin="round" stroke-width="0.5"/>
              <line id="Línea_488" data-name="Línea 488" x2="14.101" transform="translate(36.663 35.942)" fill="none" stroke="#1565c0" stroke-linecap="round" stroke-linejoin="round" stroke-width="0.5"/>
              <line id="Línea_489" data-name="Línea 489" x2="21.487" transform="translate(4.835 33.405)" fill="none" stroke="#fefefe" stroke-linecap="round" stroke-linejoin="round" stroke-width="0.5"/>
              <line id="Línea_490" data-name="Línea 490" x2="21.487" transform="translate(4.835 35.128)" fill="none" stroke="#fefefe" stroke-linecap="round" stroke-linejoin="round" stroke-width="0.5"/>
              <line id="Línea_491" data-name="Línea 491" x2="13.251" transform="translate(4.835 36.85)" fill="none" stroke="#fefefe" stroke-linecap="round" stroke-linejoin="round" stroke-width="0.5"/>
            </g>
          </g>
          <g id="Grupo_15977" data-name="Grupo 15977" transform="translate(31.806 43.179)">
            <g id="Grupo_15949" data-name="Grupo 15949" transform="translate(89.461)">
              <g id="Grupo_15941" data-name="Grupo 15941" transform="translate(10.173 70.186)">
                <path id="Trazado_26208" data-name="Trazado 26208" d="M326.712,386.066l7.271-.981a14.552,14.552,0,0,0,1.8,6.231c3.694,6.447,11.762,7.394,11.5,8.919-.1.6-1.177,1.328-4.97.915-1.23-.134-4.921-.442-6-1.807s-3.231-1.046-3.231-1.046l.19,2.625-5.764-.412C327.4,398.818,326.836,389.126,326.712,386.066Z" transform="translate(-320.999 -317.887)" fill="#aee6e6"/>
                <path id="Trazado_26209" data-name="Trazado 26209" d="M333.8,287.889c.888,16.727.177,27.352-.719,34.136a150.3,150.3,0,0,0-1.4,24.525c.035,1.419.422,6.443.459,7.228-2.535.173-7.331,1.064-9.866,1.237-2.293-7.345-1.046-17.972-1.222-22.249-.165-4.006.183-4.644.01-12.632-.167-7.675-.25-11.512-.963-13.966a32.157,32.157,0,0,1-1.868-8.891,20.842,20.842,0,0,1,.245-4.5,17.743,17.743,0,0,1,3.493-7.748c1.327.167,2.725.392,4.183.692A54.581,54.581,0,0,1,333.8,287.889Z" transform="translate(-318.206 -285.026)" fill="#12263f"/>
              </g>
              <g id="Grupo_15942" data-name="Grupo 15942" transform="translate(3.431 69.325)">
                <path id="Trazado_26210" data-name="Trazado 26210" d="M317.062,386.066l7.271-.981a14.541,14.541,0,0,0,1.8,6.231c3.694,6.447,11.763,7.394,11.5,8.919-.1.6-1.177,1.328-4.969.915-1.23-.134-4.921-.442-6-1.807s-3.23-1.046-3.23-1.046l.19,2.625-5.764-.412C317.746,398.818,317.186,389.126,317.062,386.066Z" transform="translate(-311.088 -317.026)" fill="#aee6e6"/>
                <path id="Trazado_26211" data-name="Trazado 26211" d="M324.86,287.468c.888,16.727.177,27.352-.719,34.136a150.226,150.226,0,0,0-1.4,24.525c.035,1.419.422,6.443.459,7.228-2.534.173-7.33,1.064-9.865,1.237-2.294-7.345-1.046-17.972-1.222-22.249-.165-4.006.183-4.644.01-12.632-.144-6.632-.177-9.949-.964-13.966-.918-4.687-1.725-4.727-2.462-9.08a38.2,38.2,0,0,1-.334-10.15q.277-1.378.555-2.756l3.322-.017a47,47,0,0,0,4.971,1.553A54.6,54.6,0,0,1,324.86,287.468Z" transform="translate(-308.167 -283.745)" fill="#12263f"/>
              </g>
              <g id="Grupo_15946" data-name="Grupo 15946">
                <path id="Trazado_26212" data-name="Trazado 26212" d="M305.694,190.927s-1.155-1.938-.848-3.007a5.587,5.587,0,0,1,4.144-3.2c2.212-.4,7.132.747,8.116-.909s.6-3-.138-2.651c.2-1,3.139-1.033,4.095,1.424a8.345,8.345,0,0,1-.483,7.409c-1.291,2.395-6.364,3.893-8.441,4.339-.017.582-.431,6.1-.431,6.1l.171,6.031a2.918,2.918,0,0,1-2.749,2.187c-2.35.185-5.743-7.629-6.036-12.678S304.431,190.836,305.694,190.927Z" transform="translate(-303.058 -180.519)" fill="#12263f"/>
                <g id="Grupo_15945" data-name="Grupo 15945" transform="translate(4.505 8.354)">
                  <path id="Trazado_26213" data-name="Trazado 26213" d="M323.572,199.453c.488.619,2.416,1.7,2.907,2.979s-1.159,1.617-1.159,1.617c.243,2.025.5,4.459-.761,6.209-.932,1.293-2.694,2.4-4.209,1.378.408,1.316.9,2.716,1.5,4.179a51.541,51.541,0,0,0,2.581,5.407,22.183,22.183,0,0,1-2.458.443,22.43,22.43,0,0,1-6.075-.093c-2.953-1.75-3.6-3.234-3.631-4.285-.046-1.745,1.623-2.511,2.091-4.631.486-2.2-.659-4.334-1.707-5.794a1.81,1.81,0,0,1-1.855.017c-.721-.56-1.427-1.868-.76-2.657a1.907,1.907,0,0,1,2.261-.535c.647-1.032,2.058-2.686,1.347-5.479,2.1-.424,7.537-2.965,8.5-5.248C322.231,193.321,323.084,198.833,323.572,199.453Z" transform="translate(-309.766 -192.958)" fill="#d08b73"/>
                  <g id="Grupo_15944" data-name="Grupo 15944" clip-path="url(#clip-path-4)">
                    <g id="Grupo_15943" data-name="Grupo 15943" transform="translate(4.454 13.525)" opacity="0.5" style="mix-blend-mode: multiply;isolation: isolate">
                      <path id="Trazado_26214" data-name="Trazado 26214" d="M316.41,213.1a3.171,3.171,0,0,0,.644,1.44,12.292,12.292,0,0,0,2.544,2.825,10.089,10.089,0,0,0,3.322,1.868,2.791,2.791,0,0,0,1.571.185,11.16,11.16,0,0,0-1.435-.559,13.105,13.105,0,0,1-3.1-1.929,17.527,17.527,0,0,1-2.576-2.62C316.79,213.57,316.488,213.062,316.41,213.1Z" transform="translate(-316.398 -213.097)" fill="#bc6c56"/>
                    </g>
                  </g>
                </g>
                <path id="Trazado_26216" data-name="Trazado 26216" d="M312.674,211.339c-.014-.079-.158-.116-.342-.191a1.841,1.841,0,0,1-.3-.151c-.118-.077-.156-.122-.156-.165a2.271,2.271,0,0,1-.005-.359.2.2,0,0,1,.1-.161c.146-.1.306-.169.295-.25s-.14-.161-.431-.124a.6.6,0,0,0-.455.38,1.083,1.083,0,0,0-.06.3,1.212,1.212,0,0,0,.007.316.637.637,0,0,0,.21.369.935.935,0,0,0,.272.16,1.129,1.129,0,0,0,.469.079C312.551,211.523,312.689,211.41,312.674,211.339Z" transform="translate(-305.769 -190.177)" fill="#bc6c56"/>
              </g>
              <path id="Trazado_26217" data-name="Trazado 26217" d="M313.048,220.258a53.012,53.012,0,0,0-3.819,8.117c-2.936,7.919-3.261,14.657-3.631,23.821-.147,3.644-.224,8.608.065,14.534a9.764,9.764,0,0,0,2.274.682l3.551.868a11.593,11.593,0,0,1,2.421.592l2.563.627a17.512,17.512,0,0,0,4.518.414,29.948,29.948,0,0,0,9.917-1.805c-.316,0-.618-8.673-.629-9.351-.016-1.087,0-1.418-.02-2.326a64.382,64.382,0,0,0-1.128-10.348c-1.1-6.078-1.651-9.117-3.34-12.629a31.235,31.235,0,0,0-4.655-7.035,5.771,5.771,0,0,1-3.6.217C315.088,225.932,313.278,223.394,313.048,220.258Z" transform="translate(-303.85 -193.57)" fill="#34a3ed"/>
              <path id="Trazado_26218" data-name="Trazado 26218" d="M334.689,267.833v3.8l-9.51-5.02-2.387,1.189h-3.869v-4.118l3.3,1.971,2.635-1.132Z" transform="translate(-308.268 -207.831)" fill="#344966"/>
              <path id="Trazado_26219" data-name="Trazado 26219" d="M322.761,249.367l-3.837,2.878.719,3.238h3.718L324.8,253.8l9.235,3.6c1.185.287,2.925.368,3.937-.959,1.128-1.48.471-4.015-.459-5.637-2.52-4.4-1.491-12.888-6-21.948-.72,1.439-.923,3.038-1.642,4.478,1.959,4.917-.917,12.074,1.042,16.991Z" transform="translate(-308.269 -196.394)" fill="#d08b73"/>
              <path id="Trazado_26220" data-name="Trazado 26220" d="M335.5,262.7a4.963,4.963,0,0,1-2.981.835,6,6,0,0,1-2.235-.352,4.043,4.043,0,0,1-1.645-1.321c-.458-.533-.994-1.024-1.476-1.541l-1.984-2.148c-.567.552-1.248.978-1.821,1.528.3-.289,2.956,1.928,3.261,2.154l2.222,1.642a4.712,4.712,0,0,0,1.956,1.148,6.859,6.859,0,0,0,4.622-.544,4.489,4.489,0,0,0,1.412-2.519,7.458,7.458,0,0,0,.21-3.291,9.632,9.632,0,0,1-.232,2.274,3.948,3.948,0,0,1-1.107,1.968C335.633,262.6,335.566,262.651,335.5,262.7Z" transform="translate(-309.724 -206.022)" fill="#bc6c56"/>
              <path id="Trazado_26221" data-name="Trazado 26221" d="M318.8,253.6s-5.717-3.137-7.414-5.173-2.242-8.091-1.712-8.807,9.834,8.364,9.834,8.364l2.248,3.451Z" transform="translate(-305.166 -199.914)" fill="#344966"/>
              <path id="Trazado_26222" data-name="Trazado 26222" d="M325.648,236.473a48.137,48.137,0,0,1,4.71,4.144,4.6,4.6,0,0,1,.938,2.855c.062,1.094.155,2.175.244,3.267l-6.639-8.453Z" transform="translate(-310.232 -198.895)" fill="#344966"/>
              <g id="Grupo_15948" data-name="Grupo 15948" transform="translate(5.824 24.889)">
                <path id="Trazado_26223" data-name="Trazado 26223" d="M318.62,229.4a25.618,25.618,0,0,1,8.592,10.745q.049-6.372.1-12.745l-3.187-4.632,1.541-5.189,4.843.778,2.457,4.151q-.567,2.553-1.134,5.105c.3,2.948.7,7.1,1.142,12.13.379,4.355.7,8.584-1.287,9.9a5.9,5.9,0,0,1-2.633.867,6.03,6.03,0,0,1-2.146-.355c-1.809-.664-7.747-6.077-15.175-14.036Z" transform="translate(-311.73 -217.579)" fill="#d08b73"/>
                <g id="Grupo_15947" data-name="Grupo 15947" clip-path="url(#clip-path-5)">
                  <path id="Trazado_26224" data-name="Trazado 26224" d="M330.135,246.208l-7.062,7.125,1.049,1.063,6.493-6.568Z" transform="translate(-315.455 -226.981)" fill="#bc6c56"/>
                </g>
              </g>
              <path id="Trazado_26226" data-name="Trazado 26226" d="M318.6,249.676l7.4-7.715c-1.682-3.865-11.825-16.53-15.785-7.76C306.378,242.707,316.844,248.4,318.6,249.676Z" transform="translate(-305.134 -197.153)" fill="#34a3ed"/>
            </g>
            <g id="Grupo_15960" data-name="Grupo 15960" transform="translate(11.11 27.55)">
              <path id="Trazado_26227" data-name="Trazado 26227" d="M248.352,284.045c-.183-.088-.377-.158-.564-.239a13.322,13.322,0,0,0-1.97-.8c-.786-.2-1.539-.464-2.319-.675.339-.067.689-.109,1.024-.191.291-.071.58-.2.871-.292a2.114,2.114,0,0,0,.791-.39.783.783,0,0,0,.292-.768,6.931,6.931,0,0,0-1.358.4c-.481.147-3.418,1.007-4.408,1.281q-2.534.7-4.968,1.295l-.524.054-.138-.383-7.755.041-10.567-1.651a70.131,70.131,0,0,0-5.1-14.244c-3.677-7.545-5.811-8.4-7.094-8.586a6.079,6.079,0,0,0-5.715,2.558c-1.922,3.008.247,7.337,3.494,13.612,4,7.731,6,11.6,9.367,13.467,6.367,3.538,14.187,1.607,19.081.4a39.7,39.7,0,0,0,5.645-1.853l-.119-.33,2.531-.074a12.018,12.018,0,0,1,1.873,1.126c.685.5,1.576,1.275,1.576,1.275a1.264,1.264,0,0,0,1.074.072c.122-.053.41-.207.448-.353s-.095-.306-.23-.451a6.987,6.987,0,0,0-1.017-.89,6.381,6.381,0,0,1-.946-.844,3.5,3.5,0,0,1,1.62-.064,4.337,4.337,0,0,1,1.352.563c.441.261.784.672,1.243.923a2.329,2.329,0,0,0,1.011.3,1.093,1.093,0,0,0,.867-.4,15.938,15.938,0,0,0-3.091-2.065c-.477-.243-.94-.449-1.381-.623-.163-.183-.177-.264-.154-.3.115-.193,1.267.269,1.329.294.181.073.384.173.792.374.563.277,1.106.571,1.657.869a1.185,1.185,0,0,0,1.553-.238c-.07.05-.865-.555-.952-.613a12.944,12.944,0,0,0-1.594-.884,16.526,16.526,0,0,0-2.077-.819c-.064-.118-.078-.207-.044-.266q.162-.275,1.741.285a7.832,7.832,0,0,0,1.841.576,1.68,1.68,0,0,0,1.087-.2C248.617,284.185,248.555,284.142,248.352,284.045Z" transform="translate(-190.244 -233.794)" fill="#718aa7"/>
              <path id="Trazado_26228" data-name="Trazado 26228" d="M224.643,372.855c.8-.287,1.893-.689,1.752-1.806s-2.858-2.435-3.747-3.179c-.068-2.809-.345-5.467-1.972-7.837-.005-.007-.073.036-.075,0-.014-.355-.181-.362-.105-.837a5.663,5.663,0,0,1,1.349-1.808,14.954,14.954,0,0,1,1.551.112c6.631-7.661,12-15.661,12.138-26.077a5.352,5.352,0,0,0-.55-2.968c-1.048-1.886-3.261-3.329-5.013-4.677a48.048,48.048,0,0,0-7.157-4.537c-.274-.142-.632-.307-.854-.427a27.651,27.651,0,0,0-4.722-1.909,47.388,47.388,0,0,0-5.624-1.827c-2.558-.535-11.641-1.8-13.217-1.766s-.637,3.823-.709,4.072c-.682,2.367,0,3.85.242,5.937.02.166-.04.177.047.432.018.055-.109-.3.173.11,1.189,1.742.827,3,3.274,4.7,3.735,2.583,10.432,1.088,15.5,1.823a23.884,23.884,0,0,1,7.378,3.156c-.748,3.853-1.8,4.815-3.527,9.148-.9,2.251-6.073,11.637-6.606,13.715s1.445-.459,1.4.678c-.332.743-.8,1.814-1.253,2.647a15.691,15.691,0,0,0-3.968,5.085c.659.31,2.1.978,2.571,1.207s.055.055.32.185c.042.021,0-.034.014-.028.291.133.545.275.833.414.121-.552.733-.375,1.061-.2a7.294,7.294,0,0,1,2.7,2.349c.66.992.591,2.222,1.455,3a5.242,5.242,0,0,0,2.852,1.375A5.1,5.1,0,0,0,224.643,372.855Z" transform="translate(-190.005 -251.678)" fill="#727997"/>
              <g id="Grupo_15950" data-name="Grupo 15950" transform="translate(0.644 63.711)">
                <path id="Trazado_26229" data-name="Trazado 26229" d="M188.023,327.368s11.134,4.381,17.433,5.22S216,331.8,217.2,332.105s4.779,9.991,8.623,13.784,14.755,11.96,15.988,13.119,3.137,5.983,3.137,5.983l2.7-.958-.558-1.378s9.237-4.1,10.13-5.445,1.827-6.093.454-7.648-2.478,4.031-4.146,4.707-7.715.4-9.472-.166-17.877-26.951-20.022-28.319-16.322-6.332-19.6-6.279-15.841-1.87-15.841-1.87Z" transform="translate(-187.572 -316.81)" fill="#b0c0d2"/>
                <path id="Trazado_26230" data-name="Trazado 26230" d="M207.7,333.434c3.8-.011,6.952.181,9.155.363a76.138,76.138,0,0,0,5.278,9.343c1.067,1.468,15.294,14.847,15.612,14.441l5.285-6.768c-5.945-8.337-11.8-16.745-17.92-24.952a10.2,10.2,0,0,0-2.033-2.228c-1.481-1.085-4.287-1.179-6.109-1.641-2.339-.594-4.684-1.164-7.03-1.731-3.107-.752-6.361-1.3-9.4-2.309-1.551-.515-12.649-1.539-12.727-1.546.246.023-.263,4.089-.3,4.393a12.954,12.954,0,0,0,.438,6.178,11.432,11.432,0,0,0,3.2,4.989C194.419,334.708,198.294,333.461,207.7,333.434Z" transform="translate(-187.351 -316.407)" fill="#12263f"/>
                <path id="Trazado_26231" data-name="Trazado 26231" d="M268.122,374.176c1.081-.731,3.273-4.743,3.273-4.743l8.612-1.146s2.233-4.747,3.133-4.453c1.109.362,1.347.872,1.575,1.982a9.047,9.047,0,0,1,.118,2.854,9.148,9.148,0,0,1-1.563,4.167c-.877,1.255-2.4,1.45-3.682,2.2-1.4.817-2.8,1.666-4.228,2.455-.421.232-1,.69-.506,1.175l-3.617,1.982Z" transform="translate(-213.877 -331.978)" fill="#00223d"/>
              </g>
              <g id="Grupo_15953" data-name="Grupo 15953" transform="translate(11.917 16.1)">
                <path id="Trazado_26232" data-name="Trazado 26232" d="M208.708,245.513l-4.572,8.44,7.523,6.126a9.477,9.477,0,0,1-.5-4.529,9.8,9.8,0,0,1,3.174-5.86Z" transform="translate(-204.136 -245.513)" fill="#d08b73"/>
                <g id="Grupo_15952" data-name="Grupo 15952" clip-path="url(#clip-path-6)">
                  <g id="Grupo_15951" data-name="Grupo 15951" transform="translate(6.185 1.37)" opacity="0.5" style="mix-blend-mode: multiply;isolation: isolate">
                    <path id="Trazado_26233" data-name="Trazado 26233" d="M213.536,247.559c-.4.107-.2,2.051.915,4.13a9.145,9.145,0,0,0,1.8,2.43c.644.57,1.252.62,1.324.426s-.193-.524-.493-1.115-.774-1.511-1.287-2.461C214.766,249.053,213.948,247.44,213.536,247.559Z" transform="translate(-213.345 -247.553)" fill="#ee5f43"/>
                  </g>
                </g>
              </g>
              <g id="Grupo_15955" data-name="Grupo 15955" transform="translate(0 21.995)">
                <path id="Trazado_26235" data-name="Trazado 26235" d="M205.7,261.875c-.648-.959-1.351-1.944-2.115-2.946-1.308-1.718-2.621-3.261-3.895-4.638-5.5.228-8.3,2.165-9.724,3.551-3,2.923-3.766,7.062-3.532,23.773.087,6.24.216,11.412.319,15.044a14.238,14.238,0,0,0,21.484-1.12c-.189-4.772-.429-8.641-.611-11.275-.409-5.907-.56-9.289-.985-13.805C206.3,266.86,205.951,263.9,205.7,261.875Z" transform="translate(-186.392 -254.291)" fill="#b0c0d2"/>
                <g id="Grupo_15954" data-name="Grupo 15954" clip-path="url(#clip-path-7)">
                  <path id="Trazado_26236" data-name="Trazado 26236" d="M192.344,265.344a13.285,13.285,0,0,0-.139,1.393c.01,1.273-.025,2.547-.006,3.82a27.606,27.606,0,0,0,1.092,6.07,19.622,19.622,0,0,0,2.069,5.113,45.587,45.587,0,0,0,2.6,4.14,25.265,25.265,0,0,0,2.4,2.908,17.371,17.371,0,0,0,5.006,3.459,19.968,19.968,0,0,0,6.66,1.326,15.459,15.459,0,0,1,2.865.163" transform="translate(-188.297 -257.921)" fill="#00223d" stroke="#031d31" stroke-miterlimit="10" stroke-width="1.464"/>
                  <path id="Trazado_26237" data-name="Trazado 26237" d="M199.751,261.6a13.692,13.692,0,0,0,2.369,1.912,8.5,8.5,0,0,1,1.562,1.833,52.731,52.731,0,0,1,7.12,15.126c.181.629.351,1.264.538,1.887a12.3,12.3,0,0,0,.434,1.735.981.981,0,0,1,.17.669" transform="translate(-190.779 -256.692)" fill="#00223d" stroke="#031d31" stroke-miterlimit="10" stroke-width="1.772"/>
                </g>
              </g>
              <g id="Grupo_15958" data-name="Grupo 15958" transform="translate(14.273)">
                <g id="Grupo_15956" data-name="Grupo 15956">
                  <path id="Trazado_26239" data-name="Trazado 26239" d="M210.963,239.365c-.392.085-1.122-1.171-1.383-1.429-.892-.887-1.7-1.41-1.891-2.782a13.61,13.61,0,0,1,.258-3.257,21.894,21.894,0,0,1,.555-3.479,9.116,9.116,0,0,1,4.293-5.939c4.013-2.2,12.8-.466,12.375,4.379-.21,2.416-.252,4.751-1.467,7.313,0,0-5.766,4.513-7.292,4.43A33.086,33.086,0,0,0,210.963,239.365Z" transform="translate(-207.645 -221.541)" fill="#12263f"/>
                  <path id="Trazado_26240" data-name="Trazado 26240" d="M225.421,231.74a41.058,41.058,0,0,1-.971,7.025,2.6,2.6,0,0,0-.149,1.879,10.227,10.227,0,0,1,1.015,2.626c-.08.394-1.137.733-1.48.476s-1.228-.862-1.228-.862a56.654,56.654,0,0,1-2.907,5.163,2.605,2.605,0,0,1-3.175-.015c-.771-.668-4.087-3.617-4.607-6.07a9.425,9.425,0,0,1-.242-3.655s-1.429-2.3-.357-3.592a2.19,2.19,0,0,1,2.834-.732c.619.3,1.162,1.547,1.162,1.547s3.2-2.4,3.408-3.58-.075-1.089-.075-1.089a7.233,7.233,0,0,0,3.387,1.3A30.745,30.745,0,0,0,225.421,231.74Z" transform="translate(-208.72 -224.601)" fill="#d08b73"/>
                </g>
                <g id="Grupo_15957" data-name="Grupo 15957" transform="translate(3.103 10.376)" opacity="0.5" style="mix-blend-mode: multiply;isolation: isolate">
                  <path id="Trazado_26241" data-name="Trazado 26241" d="M212.992,239c.029-.076-.232-.17-.283-.4a1.081,1.081,0,0,1,1.511-1.025c.273.184.549.287.573.2s-.084-.207-.345-.5a1.287,1.287,0,0,0-1.582-.032,1.261,1.261,0,0,0-.5,1.514.6.6,0,0,0,.439.3C212.923,239.058,212.984,239.038,212.992,239Z" transform="translate(-212.266 -236.99)" fill="#ee5f43"/>
                </g>
              </g>
              <g id="Grupo_15959" data-name="Grupo 15959" transform="translate(2.32 25.839)">
                <path id="Trazado_26242" data-name="Trazado 26242" d="M242,298.694l5.67-.166a11.958,11.958,0,0,1,1.872,1.126c.686.5,1.577,1.275,1.577,1.275a1.261,1.261,0,0,0,1.073.072c.122-.053.411-.207.449-.353s-.095-.306-.231-.451a6.994,6.994,0,0,0-1.017-.89,6.376,6.376,0,0,1-.946-.844,3.505,3.505,0,0,1,1.62-.064,4.338,4.338,0,0,1,1.352.563c.441.261.783.672,1.243.924a2.329,2.329,0,0,0,1.011.3,1.093,1.093,0,0,0,.867-.4,15.956,15.956,0,0,0-3.091-2.064c-.477-.243-.94-.449-1.381-.623-.163-.183-.177-.264-.154-.3.116-.193,1.267.269,1.329.293.181.073.384.173.792.374.563.277,1.106.571,1.657.869a1.185,1.185,0,0,0,1.553-.238c-.07.05-.865-.555-.952-.612a12.938,12.938,0,0,0-1.594-.885,16.614,16.614,0,0,0-2.077-.819c-.064-.118-.079-.207-.044-.266q.162-.275,1.741.285a7.836,7.836,0,0,0,1.841.576,1.682,1.682,0,0,0,1.087-.2c.2-.148.133-.191-.07-.289-.183-.088-.378-.158-.564-.238a13.321,13.321,0,0,0-1.97-.8c-.786-.2-1.539-.464-2.319-.675.339-.067.689-.109,1.024-.191.291-.071.58-.2.871-.292a2.1,2.1,0,0,0,.791-.39.783.783,0,0,0,.292-.768,6.925,6.925,0,0,0-1.358.4c-.481.147-3.418,1.007-4.408,1.281q-2.534.7-4.968,1.295l-2.657.271Z" transform="translate(-206.944 -270.695)" fill="#d08b73"/>
                <path id="Trazado_26243" data-name="Trazado 26243" d="M190.569,262.626c-1.922,3.008.247,7.337,3.494,13.612,4,7.731,6,11.6,9.367,13.467,6.367,3.538,14.188,1.607,19.082.4a39.633,39.633,0,0,0,5.645-1.853l-1.352-3.743-7.756.042L208.482,282.9a70.125,70.125,0,0,0-5.1-14.244c-3.677-7.545-5.811-8.4-7.094-8.586A6.083,6.083,0,0,0,190.569,262.626Z" transform="translate(-189.846 -260.014)" fill="#b0c0d2"/>
              </g>
            </g>
            <g id="Grupo_15961" data-name="Grupo 15961" transform="translate(0 58.223)">
              <rect id="Rectángulo_4018" data-name="Rectángulo 4018" width="30.564" height="5.838" rx="2.085" transform="translate(10.111 49.996)" fill="#12263f"/>
              <path id="Trazado_26244" data-name="Trazado 26244" d="M173.939,298.716c0-4.968.127-9.872-.062-14.817a53.307,53.307,0,0,1,.377-9.814c.21-1.428,1.166-7.948,4-6.719.547.237.791,1.011.884,1.375l-.377,29.974a2.184,2.184,0,0,1-1.948,2.36h-.923A2.184,2.184,0,0,1,173.939,298.716Z" transform="translate(-171.151 -267.214)" fill="#12263f"/>
              <path id="Trazado_26245" data-name="Trazado 26245" d="M173.812,289.081v31.364a9.526,9.526,0,0,0,9.526,9.526H206.8" transform="translate(-171.151 -274.395)" fill="none" stroke="#00223d" stroke-linecap="round" stroke-linejoin="round" stroke-width="1.5"/>
              <rect id="Rectángulo_4019" data-name="Rectángulo 4019" width="2.377" height="34.063" transform="translate(22.281 55.833)" fill="#00223d" stroke="#00223d" stroke-linecap="round" stroke-linejoin="round" stroke-width="1"/>
              <rect id="Rectángulo_4020" data-name="Rectángulo 4020" width="6.181" height="11.649" transform="translate(20.38 71.398)" fill="#00223d" stroke="#00223d" stroke-linecap="round" stroke-linejoin="round" stroke-width="1"/>
              <path id="Trazado_26246" data-name="Trazado 26246" d="M215.43,398.863a37.533,37.533,0,0,0-41.618,0v-1.93a38.735,38.735,0,0,1,41.618,0Z" transform="translate(-171.151 -307.823)" fill="#00223d" stroke="#00223d" stroke-linecap="round" stroke-linejoin="round" stroke-width="1"/>
              <path id="Trazado_26247" data-name="Trazado 26247" d="M175.172,401.471a2.661,2.661,0,1,0-2.661,2.661A2.661,2.661,0,0,0,175.172,401.471Z" transform="translate(-169.85 -310.431)" fill="#00223d" stroke="#00223d" stroke-linecap="round" stroke-linejoin="round" stroke-width="1"/>
              <ellipse id="Elipse_1069" data-name="Elipse 1069" cx="2.661" cy="2.661" rx="2.661" ry="2.661" transform="translate(41.618 88.378)" fill="#00223d" stroke="#00223d" stroke-linecap="round" stroke-linejoin="round" stroke-width="1"/>
              <ellipse id="Elipse_1070" data-name="Elipse 1070" cx="2.513" cy="2.513" rx="2.513" ry="2.513" transform="translate(20.957 88.526)" fill="#00223d" stroke="#00223d" stroke-linecap="round" stroke-linejoin="round" stroke-width="1"/>
            </g>
            <g id="Grupo_15962" data-name="Grupo 15962" transform="translate(51.475 85.25)">
              <line id="Línea_492" data-name="Línea 492" y1="63.182" x2="43.756" transform="translate(15.011 3.492)" fill="none" stroke="#b0c0d2" stroke-linecap="round" stroke-linejoin="round" stroke-width="2.916"/>
              <line id="Línea_493" data-name="Línea 493" x2="42.405" y2="63.182" transform="translate(15.687 3.492)" fill="none" stroke="#b0c0d2" stroke-linecap="round" stroke-linejoin="round" stroke-width="2.916"/>
              <rect id="Rectángulo_4021" data-name="Rectángulo 4021" width="73.778" height="6.984" rx="2.838" transform="translate(0)" fill="#eff4ef"/>
              <path id="Trazado_26248" data-name="Trazado 26248" d="M317.062,314.068H249.708a3.207,3.207,0,0,1-3.156-2.657,3.236,3.236,0,0,0-.056.556v.559a3.212,3.212,0,0,0,3.212,3.212h67.354a3.212,3.212,0,0,0,3.212-3.212v-.559a3.17,3.17,0,0,0-.056-.556A3.207,3.207,0,0,1,317.062,314.068Z" transform="translate(-246.496 -308.755)" fill="#b0c0d2"/>
            </g>
            <rect id="Rectángulo_4022" data-name="Rectángulo 4022" width="3.464" height="32.415" rx="1.306" transform="translate(84.302 38.762) rotate(8.154)" fill="#12263f"/>
            <rect id="Rectángulo_4023" data-name="Rectángulo 4023" width="2.074" height="28.348" rx="0.916" transform="matrix(0.966, -0.259, 0.259, 0.966, 83.485, 56.937)" fill="#12263f"/>
            <rect id="Rectángulo_4024" data-name="Rectángulo 4024" width="11.258" height="3.342" rx="1.476" transform="translate(85.11 81.759)" fill="#12263f"/>
            <rect id="Rectángulo_4025" data-name="Rectángulo 4025" width="18.788" height="1.671" rx="0.738" transform="translate(56.643 83.43)" fill="#12263f"/>
          </g>
        </g>
      </g>
      <g id="Grupo_142387" data-name="Grupo 142387" transform="translate(234.005 124.775)">
        <path id="Trazado_97725" data-name="Trazado 97725" d="M1956.025,546.929l-2.659,4.606h22.552l-2.659-4.606a4.633,4.633,0,0,0-4.108-2.372h-9.018A4.632,4.632,0,0,0,1956.025,546.929Z" transform="translate(-1928.73 -544.557)" fill-rule="evenodd" fill="url(#linear-gradient-8)"/>
        <rect id="Rectángulo_28316" data-name="Rectángulo 28316" width="71.824" height="100.967" rx="8" transform="translate(0 5.252)" fill="#afafaf"/>
        <rect id="Rectángulo_28317" data-name="Rectángulo 28317" width="59.966" height="89.109" transform="translate(5.929 11.181)" fill="#fdfdfd"/>
        <path id="Trazado_97726" data-name="Trazado 97726" d="M1936.5,601.206v5.972a4.149,4.149,0,0,1-4.137,4.137H1911.4a4.149,4.149,0,0,1-4.137-4.137v-5.972a1.188,1.188,0,0,1,1.186-1.186h26.87A1.188,1.188,0,0,1,1936.5,601.206Z" transform="translate(-1885.968 -595.997)" fill-rule="evenodd" fill="url(#linear-gradient-8)"/>
        <path id="Trazado_97727" data-name="Trazado 97727" d="M1965.974,632a.8.8,0,1,1,0-1.607h19.232a.8.8,0,1,1,0,1.607Z" transform="translate(-1939.678 -624.165)" fill="#dbdada" fill-rule="evenodd"/>
        <path id="Trazado_97728" data-name="Trazado 97728" d="M1965.974,684.333a.8.8,0,1,1,0-1.607h19.232a.8.8,0,1,1,0,1.607Z" transform="translate(-1939.678 -672.703)" fill="#dbdada" fill-rule="evenodd"/>
        <g id="Grupo_47018" data-name="Grupo 47018" transform="translate(17.508 23.782)">
          <g id="Grupo_47014" data-name="Grupo 47014" transform="translate(0 55.701)">
            <path id="Trazado_97729" data-name="Trazado 97729" d="M1855.859,1640.216h35.3a.754.754,0,0,1,0,1.508h-35.3a.754.754,0,0,1,0-1.508Z" transform="translate(-1855.105 -1640.216)" fill="#dbdada" fill-rule="evenodd"/>
            <path id="Trazado_97730" data-name="Trazado 97730" d="M1855.859,1689.287h35.3a.754.754,0,0,1,0,1.508h-35.3a.754.754,0,1,1,0-1.508Z" transform="translate(-1855.105 -1685.727)" fill="#dbdada" fill-rule="evenodd"/>
            <path id="Trazado_97731" data-name="Trazado 97731" d="M1855.859,1738.353h21.263a.754.754,0,0,1,0,1.509h-21.263a.754.754,0,0,1,0-1.509Z" transform="translate(-1855.105 -1731.234)" fill="#dbdada" fill-rule="evenodd"/>
          </g>
          <g id="Grupo_47015" data-name="Grupo 47015" transform="translate(0 33.885)">
            <path id="Trazado_97732" data-name="Trazado 97732" d="M1857.081,1343.669l.69-.69a.229.229,0,0,1,.325,0l1.151,1.15,2.07-2.071a.23.23,0,0,1,.326,0l.69.69a.23.23,0,0,1,0,.325L1859.41,1346a.23.23,0,0,1-.326,0l-2-2a.229.229,0,0,1,0-.325Zm-1.055-4.187a.923.923,0,0,0-.92.92v7.362a.923.923,0,0,0,.92.92h7.362a.923.923,0,0,0,.92-.92V1340.4a.923.923,0,0,0-.92-.92Z" transform="translate(-1855.106 -1339.482)" fill="#1565c0" fill-rule="evenodd"/>
            <rect id="Rectángulo_28318" data-name="Rectángulo 28318" width="23.925" height="2.426" rx="1.213" transform="translate(12.883)" fill="#dbdada"/>
            <path id="Trazado_97733" data-name="Trazado 97733" d="M2033.448,1398.833h22.417a.754.754,0,1,1,0,1.508h-22.417a.754.754,0,1,1,0-1.508Z" transform="translate(-2019.811 -1394.528)" fill="#dbdada" fill-rule="evenodd"/>
            <path id="Trazado_97734" data-name="Trazado 97734" d="M2033.448,1445.536h16.3a.754.754,0,1,1,0,1.508h-16.3a.754.754,0,1,1,0-1.508Z" transform="translate(-2019.811 -1437.842)" fill="#dbdada" fill-rule="evenodd"/>
          </g>
          <g id="Grupo_47016" data-name="Grupo 47016" transform="translate(0 16.942)">
            <path id="Trazado_97735" data-name="Trazado 97735" d="M1857.081,1110.119l.69-.69a.231.231,0,0,1,.325,0l1.151,1.15,2.07-2.071a.231.231,0,0,1,.326,0l.69.69a.23.23,0,0,1,0,.325l-2.923,2.923a.231.231,0,0,1-.326,0l-2-2a.229.229,0,0,1,0-.325Zm-1.055-4.187a.923.923,0,0,0-.92.92v7.361a.923.923,0,0,0,.92.92h7.362a.923.923,0,0,0,.92-.92v-7.361a.923.923,0,0,0-.92-.92Z" transform="translate(-1855.106 -1105.932)" fill="#1565c0" fill-rule="evenodd"/>
            <rect id="Rectángulo_28319" data-name="Rectángulo 28319" width="23.925" height="2.426" rx="1.213" transform="translate(12.883)" fill="#dbdada"/>
            <path id="Trazado_97736" data-name="Trazado 97736" d="M2033.448,1165.285h22.417a.754.754,0,1,1,0,1.508h-22.417a.754.754,0,1,1,0-1.508Z" transform="translate(-2019.811 -1160.979)" fill="#dbdada" fill-rule="evenodd"/>
            <path id="Trazado_97737" data-name="Trazado 97737" d="M2033.448,1211.985h16.3a.754.754,0,1,1,0,1.509h-16.3a.754.754,0,0,1,0-1.509Z" transform="translate(-2019.811 -1204.292)" fill="#dbdada" fill-rule="evenodd"/>
          </g>
          <g id="Grupo_47017" data-name="Grupo 47017" transform="translate(0)">
            <path id="Trazado_97738" data-name="Trazado 97738" d="M1857.081,876.57l.69-.69a.23.23,0,0,1,.325,0l1.151,1.15,2.07-2.07a.23.23,0,0,1,.326,0l.69.69a.23.23,0,0,1,0,.325l-2.923,2.923a.23.23,0,0,1-.326,0l-2-2a.229.229,0,0,1,0-.325Zm-1.055-4.187a.922.922,0,0,0-.92.92v7.361a.923.923,0,0,0,.92.92h7.362a.923.923,0,0,0,.92-.92V873.3a.923.923,0,0,0-.92-.92Z" transform="translate(-1855.106 -872.383)" fill="#1565c0" fill-rule="evenodd"/>
            <rect id="Rectángulo_28320" data-name="Rectángulo 28320" width="23.925" height="2.426" rx="1.213" transform="translate(12.883)" fill="#dbdada"/>
            <path id="Trazado_97739" data-name="Trazado 97739" d="M2033.448,931.734h22.417a.754.754,0,1,1,0,1.509h-22.417a.754.754,0,1,1,0-1.509Z" transform="translate(-2019.811 -927.429)" fill="#dbdada" fill-rule="evenodd"/>
            <path id="Trazado_97740" data-name="Trazado 97740" d="M2033.448,978.436h16.3a.754.754,0,1,1,0,1.508h-16.3a.754.754,0,1,1,0-1.508Z" transform="translate(-2019.811 -970.743)" fill="#dbdada" fill-rule="evenodd"/>
          </g>
        </g>
        <path id="Trazado_97741" data-name="Trazado 97741" d="M1785.7,1924.483H1731.34a.218.218,0,1,1,0-.435H1785.7a.218.218,0,1,1,0,.435Z" transform="translate(-1722.608 -1823.975)" fill="#8673c6"/>
      </g>
      <g id="Grupo_142388" data-name="Grupo 142388" transform="translate(258.653 35.893)">
        <g id="Grupo_18423" data-name="Grupo 18423" transform="translate(0 0)">
          <g id="Grupo_18421" data-name="Grupo 18421">
            <g id="Grupo_18420" data-name="Grupo 18420">
              <g id="Grupo_18419" data-name="Grupo 18419">
                <path id="Trazado_40936" data-name="Trazado 40936" d="M229.534,2163.177a17.455,17.455,0,1,1-17.455-17.455A17.455,17.455,0,0,1,229.534,2163.177Z" transform="translate(-194.623 -2145.721)" fill="#fff"/>
              </g>
            </g>
          </g>
          <path id="Trazado_40937" data-name="Trazado 40937" d="M229.942,2163.622a17.455,17.455,0,1,0-17.455,17.455A17.385,17.385,0,0,0,229.942,2163.622Z" transform="translate(-195.031 -2146.167)" fill="url(#radial-gradient)"/>
          <path id="Trazado_40938" data-name="Trazado 40938" d="M229.6,2167.407a13.324,13.324,0,1,0-13.324,13.323A13.276,13.276,0,0,0,229.6,2167.407Z" transform="translate(-198.763 -2149.894)" fill="none" stroke="#00223d" stroke-miterlimit="10" stroke-width="2"/>
          <g id="Grupo_18422" data-name="Grupo 18422" transform="translate(3.092 9.8)">
            <path id="Trazado_40939" data-name="Trazado 40939" d="M230.6,2164.489a17.458,17.458,0,0,1-30.053,17.383,17.4,17.4,0,0,0,30.053-17.383Z" transform="translate(-200.545 -2164.489)" fill="#eceef0"/>
          </g>
        </g>
        <g id="Grupo_53219" data-name="Grupo 53219" transform="translate(8.986 9.114)">
          <path id="Trazado_100971" data-name="Trazado 100971" d="M-1393.186,959.416h.282q3.2,0,6.39,0a1.164,1.164,0,0,1,1.083.559,1.151,1.151,0,0,1-1.058,1.75c-.742.006-1.484,0-2.226,0h-4.116c-.117,0-.235,0-.352,0a1.085,1.085,0,0,1-.835-.373q-1.057-1.16-2.12-2.315c-.022-.024-.043-.048-.065-.07-.109-.109-.225-.128-.308-.043-.108.11-.062.211.027.308q1.1,1.2,2.2,2.4a1.353,1.353,0,0,0,.972.459c.036,0,.073.01.119.016v3.136h-5.561v-.17q0-3.572,0-7.143a2.633,2.633,0,0,1,2.842-2.7,2.781,2.781,0,0,1,2.725,2.826c.006.39,0,.78.005,1.169Z" transform="translate(1398.758 -949.446)" fill="#12263f"/>
          <path id="Trazado_100972" data-name="Trazado 100972" d="M-1317.839,777.771a2.882,2.882,0,0,1-2.889,2.891,2.89,2.89,0,0,1-2.888-2.88,2.9,2.9,0,0,1,2.877-2.9A2.891,2.891,0,0,1-1317.839,777.771Z" transform="translate(1326.023 -774.886)" fill="#12263f"/>
          <path id="Trazado_100973" data-name="Trazado 100973" d="M-1203.3,1211.724v1.355c-.062,0-.12.008-.177.008h-11.673c-.454,0-.638-.186-.639-.644,0-.075,0-.15,0-.224a.511.511,0,0,1,.481-.49c.058-.006.117-.005.176-.005h11.827Z" transform="translate(1221.647 -1197.728)" fill="#12263f"/>
          <path id="Trazado_100974" data-name="Trazado 100974" d="M-1144.107,965.584q-1.978,0-3.956,0a1.071,1.071,0,0,1-.284-.031.5.5,0,0,1-.361-.539.507.507,0,0,1,.444-.455,1.827,1.827,0,0,1,.224-.008q3.74,0,7.48,0a.224.224,0,0,0,.256-.185q1.044-3.074,2.1-6.144a.53.53,0,0,1,.528-.408.488.488,0,0,1,.473.384.767.767,0,0,1-.032.372c-.331.986-.67,1.968-1.007,2.952q-.612,1.786-1.224,3.571a.588.588,0,0,1-.685.49Z" transform="translate(1156.721 -951.955)" fill="#12263f"/>
        </g>
      </g>
      <g id="Grupo_142389" data-name="Grupo 142389" transform="translate(328.474 35.893)">
        <g id="Grupo_18423-2" data-name="Grupo 18423" transform="translate(0 0)">
          <g id="Grupo_18421-2" data-name="Grupo 18421">
            <g id="Grupo_18420-2" data-name="Grupo 18420">
              <g id="Grupo_18419-2" data-name="Grupo 18419">
                <path id="Trazado_40936-2" data-name="Trazado 40936" d="M229.534,2163.177a17.455,17.455,0,1,1-17.455-17.455A17.455,17.455,0,0,1,229.534,2163.177Z" transform="translate(-194.623 -2145.721)" fill="#fff"/>
              </g>
            </g>
          </g>
          <path id="Trazado_40937-2" data-name="Trazado 40937" d="M229.942,2163.622a17.455,17.455,0,1,0-17.455,17.455A17.385,17.385,0,0,0,229.942,2163.622Z" transform="translate(-195.031 -2146.167)" fill="url(#radial-gradient)"/>
          <path id="Trazado_40938-2" data-name="Trazado 40938" d="M229.6,2167.407a13.324,13.324,0,1,0-13.324,13.323A13.276,13.276,0,0,0,229.6,2167.407Z" transform="translate(-198.763 -2149.894)" fill="none" stroke="#00223d" stroke-miterlimit="10" stroke-width="2"/>
          <g id="Grupo_18422-2" data-name="Grupo 18422" transform="translate(3.092 9.8)">
            <path id="Trazado_40939-2" data-name="Trazado 40939" d="M230.6,2164.489a17.458,17.458,0,0,1-30.053,17.383,17.4,17.4,0,0,0,30.053-17.383Z" transform="translate(-200.545 -2164.489)" fill="#eceef0"/>
          </g>
        </g>
        <g id="Grupo_53221" data-name="Grupo 53221" transform="translate(9.155 9.521)">
          <path id="Trazado_100983" data-name="Trazado 100983" d="M-2667.547,722.883h-1.464a.343.343,0,0,1-.15-.007c-.047-.026-.109-.085-.107-.128s.065-.1.115-.122a.553.553,0,0,1,.189-.007q6.131,0,12.261-.006a.375.375,0,0,1,.394.266h-1.386v.548h-.569c-.267,0-.535,0-.8,0a.7.7,0,0,0-.746.7.692.692,0,0,0,.742.681c.445,0,.891,0,1.355,0,0,.083.009.15.009.217q0,2.42,0,4.839c0,.385-.129.512-.52.512h-8.8c-.4,0-.523-.128-.523-.528v-6.968Zm1.642,3.749a3.281,3.281,0,0,0,3.282,3.285,3.283,3.283,0,0,0,3.276-3.292,3.285,3.285,0,0,0-3.293-3.276A3.283,3.283,0,0,0-2665.9,726.632Z" transform="translate(2670.804 -720.936)" fill="#12263f"/>
          <path id="Trazado_100984" data-name="Trazado 100984" d="M-2409.354,760.738h-1.342v-3.468a.394.394,0,0,0,0-.151,1.058,1.058,0,0,0-.127-.179,1.281,1.281,0,0,0-.141.188.37.37,0,0,0,0,.151v3.456h-.767l-.062-.057a.6.6,0,0,0,.165-.082,1.412,1.412,0,0,0-.485-2.328.241.241,0,0,1-.185-.273q.016-2.954.021-5.909c0-.27-.021-.29-.3-.29h-2.047a.4.4,0,0,1-.414-.276.37.37,0,0,1,.121-.447.483.483,0,0,1,.277-.105c1.364,0,2.729-.034,4.091.025a2.451,2.451,0,0,1,2.3,2.457c.007.644,0,1.288,0,1.932a.416.416,0,0,1-.365.46.408.408,0,0,1-.463-.435c0-.586,0-1.173,0-1.759,0-.116.052-.3-.146-.29-.181.006-.127.178-.127.287q0,3.433,0,6.866Z" transform="translate(2426.333 -748.197)" fill="#12263f"/>
          <path id="Trazado_100985" data-name="Trazado 100985" d="M-2704.172,1026.855h-5.247a2.351,2.351,0,0,1,1.023-1.96,2.605,2.605,0,0,1,2.871-.2A2.429,2.429,0,0,1-2704.172,1026.855Z" transform="translate(2709.419 -1011.137)" fill="#12263f"/>
          <path id="Trazado_100986" data-name="Trazado 100986" d="M-2420.07,1026.841a2.415,2.415,0,0,1,1.249-2.1,2.607,2.607,0,0,1,2.876.075,2.377,2.377,0,0,1,1.123,2.027Z" transform="translate(2431.139 -1011.124)" fill="#12263f"/>
          <path id="Trazado_100987" data-name="Trazado 100987" d="M-2563.855,1027.288a2.523,2.523,0,0,1,2.575-2.474,2.54,2.54,0,0,1,2.644,2.474Z" transform="translate(2569.426 -1011.577)" fill="#12263f"/>
          <path id="Trazado_100988" data-name="Trazado 100988" d="M-2381.331,947.755a1.133,1.133,0,0,1,1.152-1.147,1.146,1.146,0,0,1,1.142,1.144,1.155,1.155,0,0,1-1.14,1.151A1.141,1.141,0,0,1-2381.331,947.755Z" transform="translate(2393.882 -936.363)" fill="#12263f"/>
          <path id="Trazado_100989" data-name="Trazado 100989" d="M-2668.727,947.743a1.145,1.145,0,0,1-1.146,1.159,1.151,1.151,0,0,1-1.148-1.14,1.142,1.142,0,0,1,1.148-1.155A1.137,1.137,0,0,1-2668.727,947.743Z" transform="translate(2672.491 -936.362)" fill="#12263f"/>
          <path id="Trazado_100990" data-name="Trazado 100990" d="M-2524.575,946.6a1.139,1.139,0,0,1,1.147,1.155,1.147,1.147,0,0,1-1.147,1.14,1.153,1.153,0,0,1-1.15-1.14A1.146,1.146,0,0,1-2524.575,946.6Z" transform="translate(2532.752 -936.359)" fill="#12263f"/>
          <path id="Trazado_100991" data-name="Trazado 100991" d="M-2329.575,679.876a1.038,1.038,0,0,1-1.049,1.039,1.048,1.048,0,0,1-1.046-1.046,1.053,1.053,0,0,1,1.063-1.051A1.045,1.045,0,0,1-2329.575,679.876Z" transform="translate(2346.121 -678.817)" fill="#12263f"/>
          <path id="Trazado_100992" data-name="Trazado 100992" d="M-2656.638,702.612v.266h-.215q-6.064,0-12.127,0c-.107,0-.283.063-.289-.121-.006-.2.177-.14.292-.14q6.045,0,12.089,0Z" transform="translate(2670.805 -701.695)" fill="#12263f"/>
          <path id="Trazado_100994" data-name="Trazado 100994" d="M-2571.281,749.745v.219q0,1.367,0,2.735c0,.284.011.295.287.295h2.826a2.961,2.961,0,0,1-3.03,2.741,2.987,2.987,0,0,1-2.946-3.189A2.946,2.946,0,0,1-2571.281,749.745Z" transform="translate(2579.323 -747.032)" fill="#12263f"/>
        </g>
      </g>
      <g id="Grupo_142390" data-name="Grupo 142390" transform="translate(293.564 35.893)">
        <g id="Grupo_18423-3" data-name="Grupo 18423" transform="translate(0 0)">
          <g id="Grupo_18421-3" data-name="Grupo 18421">
            <g id="Grupo_18420-3" data-name="Grupo 18420">
              <g id="Grupo_18419-3" data-name="Grupo 18419">
                <path id="Trazado_40936-3" data-name="Trazado 40936" d="M229.534,2163.177a17.455,17.455,0,1,1-17.455-17.455A17.455,17.455,0,0,1,229.534,2163.177Z" transform="translate(-194.623 -2145.721)" fill="#fff"/>
              </g>
            </g>
          </g>
          <path id="Trazado_40937-3" data-name="Trazado 40937" d="M229.942,2163.622a17.455,17.455,0,1,0-17.455,17.455A17.385,17.385,0,0,0,229.942,2163.622Z" transform="translate(-195.031 -2146.167)" fill="url(#radial-gradient)"/>
          <path id="Trazado_40938-3" data-name="Trazado 40938" d="M229.6,2167.407a13.324,13.324,0,1,0-13.324,13.323A13.276,13.276,0,0,0,229.6,2167.407Z" transform="translate(-198.763 -2149.894)" fill="none" stroke="#00223d" stroke-miterlimit="10" stroke-width="2"/>
          <g id="Grupo_18422-3" data-name="Grupo 18422" transform="translate(3.092 9.8)">
            <path id="Trazado_40939-3" data-name="Trazado 40939" d="M230.6,2164.489a17.458,17.458,0,0,1-30.053,17.383,17.4,17.4,0,0,0,30.053-17.383Z" transform="translate(-200.545 -2164.489)" fill="#eceef0"/>
          </g>
        </g>
        <path id="Trazado_101000" data-name="Trazado 101000" d="M-3766.694,587.936v.037h-2.68c-.178-.857-.353-1.7-.529-2.544h-.019q-.076,1.269-.152,2.535h-8.953c.109-1.354.218-2.7.327-4.045a.082.082,0,0,0-.049.04q-.925,1.54-1.85,3.08a1.641,1.641,0,0,1-1.069.765,1.523,1.523,0,0,1-1.619-.849,1.833,1.833,0,0,1-.081-1.2c.058-.24.152-.472.232-.706q.871-2.554,1.745-5.108c.009-.028.016-.057.031-.1-.042.027-.069.042-.093.058-.266.176-.533.353-.8.528a.419.419,0,0,1-.488.005.416.416,0,0,1,.009-.689c.168-.118.342-.226.51-.343a.107.107,0,0,0,.042-.084.713.713,0,0,1,.039-.447,1.762,1.762,0,0,1,.59-.752,2.1,2.1,0,0,1,1.133-.479.8.8,0,0,1,.574.139.1.1,0,0,0,.086-.007c.158-.1.31-.207.469-.3.066-.04.075-.076.052-.149a2.051,2.051,0,0,1,.82-2.293,1.977,1.977,0,0,1,2.232-.064,1.955,1.955,0,0,1,1,2,1.956,1.956,0,0,1-1.293,1.7,1.989,1.989,0,0,1-2.089-.331c-.075-.059-.142-.128-.216-.194l-.706.467a3.18,3.18,0,0,0,.608.5.092.092,0,0,1,.043.134q-.527,1.388-1.048,2.777a.9.9,0,0,0-.029.088,5.965,5.965,0,0,1,2.131-1.31,6.6,6.6,0,0,1,2.472-.377c0-.12,0-.226,0-.331,0-.065-.021-.088-.081-.109q-.392-.145-.779-.3a2.037,2.037,0,0,1-.237-.135,2.765,2.765,0,0,0,2.005-2.662,2.825,2.825,0,0,0-2.167-2.891,3.9,3.9,0,0,1,.754-.439,4.026,4.026,0,0,1,4.369.759,3.284,3.284,0,0,1,.625,3.92,3.783,3.783,0,0,1-1.2,1.306,5.237,5.237,0,0,1-.8.384c-.027.013-.067.039-.069.06-.006.138,0,.277,0,.417l.049.008c.366.045.737.065,1.1.138a5.3,5.3,0,0,1,3.363,2.142,3.983,3.983,0,0,1,.653,1.288c.288,1.076.563,2.155.845,3.232C-3766.832,587.441-3766.761,587.688-3766.694,587.936Zm-11.791-11.213a1.241,1.241,0,0,0,1.235,1.243,1.243,1.243,0,0,0,1.239-1.239,1.235,1.235,0,0,0-1.231-1.235A1.234,1.234,0,0,0-3778.485,576.723Z" transform="translate(3792.738 -563.815)" fill="#12263f"/>
      </g>
      <g id="Grupo_142391" data-name="Grupo 142391" transform="translate(288.372 96.484)">
        <path id="Trazado_26249" data-name="Trazado 26249" d="M482.908,287.951s-6.277,28.622-7.3,32.878-5.443,26.748-5.443,26.748l6.1,2.016s5.361-11.5,5.942-14.279-.3-9.035,1.212-11.56,8.169-16.562,8.169-16.562l-.449-19.5Z" transform="translate(-450.643 -234.775)" fill="#b0c0d2"/>
        <g id="Grupo_15969" data-name="Grupo 15969" transform="translate(37.873 52.914)">
          <path id="Trazado_26250" data-name="Trazado 26250" d="M498.29,294.241s.02,22.5.827,26.51,11.361,24.309,11.361,24.309l2.057,2.975,5.094-2.975a96.873,96.873,0,0,0-3.228-14.137c-2.081-6.234-5.282-8.935-4.76-11.356a81.326,81.326,0,0,0,.836-18.4c-.667-6.245-2.258-13.48-2.258-13.48l-10.728.2Z" transform="translate(-497.492 -287.689)" fill="#b0c0d2"/>
          <g id="Grupo_15968" data-name="Grupo 15968" clip-path="url(#clip-path-8)">
            <path id="Trazado_26251" data-name="Trazado 26251" d="M520.866,344.13s-2.472-9.357-3.354-11.3-5.3-9.534-5.3-11.123,1.412-8.474,1.412-12-3.23-15.717-3.23-15.717" transform="translate(-501.73 -289.757)" fill="none" stroke="#12263f" stroke-miterlimit="10" stroke-width="0.516"/>
            <g id="Grupo_15963" data-name="Grupo 15963" transform="translate(4.816 4.476)">
              <path id="Trazado_26252" data-name="Trazado 26252" d="M504.771,294.354a1.29,1.29,0,0,0-.076.444,3.779,3.779,0,0,0,.041,1.232c.1.5.15,1.111.321,1.784a7.756,7.756,0,0,0,.837,2.081,5.736,5.736,0,0,0,3.1,2.553,5.058,5.058,0,0,0,1.206.255,1.119,1.119,0,0,0,.451-.011,15.279,15.279,0,0,1-1.585-.441,5.875,5.875,0,0,1-2.921-2.507,8.112,8.112,0,0,1-.827-2c-.179-.641-.256-1.252-.381-1.756a4.517,4.517,0,0,1-.131-1.186A1.36,1.36,0,0,0,504.771,294.354Z" transform="translate(-504.662 -294.354)" fill="#12263f"/>
            </g>
            <g id="Grupo_15964" data-name="Grupo 15964" transform="translate(-2.124 4.099)">
              <path id="Trazado_26253" data-name="Trazado 26253" d="M494.332,293.823c-.015-.007.012.222.324.378a3.015,3.015,0,0,0,1.34.143c1.123-.016,2.676-.058,4.39-.124s3.265-.141,4.386-.211a10.988,10.988,0,0,0,1.811-.175,11.075,11.075,0,0,0-1.823-.036c-1.123.015-2.674.058-4.385.124s-3.261.14-4.382.21a3.357,3.357,0,0,1-1.292-.039C494.419,293.994,494.357,293.806,494.332,293.823Z" transform="translate(-494.329 -293.792)" fill="#12263f"/>
            </g>
            <g id="Grupo_15965" data-name="Grupo 15965" transform="translate(-3.684 2.152)">
              <path id="Trazado_26254" data-name="Trazado 26254" d="M492.007,291.413a14.84,14.84,0,0,0,2.059-.012l4.96-.158,4.961-.128a14.824,14.824,0,0,0,2.056-.107,2.027,2.027,0,0,0-.551-.059c-.355-.019-.87-.034-1.506-.044-1.271-.02-3.029-.014-4.968.042s-3.694.151-4.962.245c-.634.047-1.146.092-1.5.132A1.976,1.976,0,0,0,492.007,291.413Z" transform="translate(-492.007 -290.893)" fill="#12263f"/>
            </g>
            <g id="Grupo_15966" data-name="Grupo 15966" transform="translate(6.426 2.025)">
              <path id="Trazado_26255" data-name="Trazado 26255" d="M507.16,290.7a5.115,5.115,0,0,0,.121,2.451,2.612,2.612,0,0,0,.089-1.233C507.335,291.24,507.242,290.695,507.16,290.7Z" transform="translate(-507.06 -290.705)" fill="#12263f"/>
            </g>
            <g id="Grupo_15967" data-name="Grupo 15967" transform="translate(2.898 1.432)">
              <path id="Trazado_26256" data-name="Trazado 26256" d="M501.9,289.821a8.571,8.571,0,0,0,.16,3.177,8.567,8.567,0,0,0-.16-3.177Z" transform="translate(-501.807 -289.821)" fill="#12263f"/>
            </g>
          </g>
        </g>
        <path id="Trazado_26258" data-name="Trazado 26258" d="M520.285,363.655l-9.849,5.623s3.86,10.283,3.792,13.663c-.105,5.3-9.4,5.409-8.6,9.845.117.652,4.207.081,7.281.353s5.416-1.055,5.7-2.869,2.719-2.78,2.719-2.78l.856,3.443,3.157-1.637Z" transform="translate(-462.274 -259.723)" fill="#12263f"/>
        <path id="Trazado_26259" data-name="Trazado 26259" d="M469.794,371.966,458.657,368.2s-1.711,13.655-4.353,15.764c-5.737,4.578-13.947,5.549-13.152,8.815.157.643,1.475,1.488,5.959,1.28,1.454-.068,5.823-.172,7.02-1.562s3.779-.919,3.779-.919l-.075,2.79,6.827-.089C464.458,388.261,467.212,380.44,469.794,371.966Z" transform="translate(-441.098 -261.215)" fill="#12263f"/>
        <g id="Grupo_15974" data-name="Grupo 15974" transform="translate(41.918 0.561)">
          <path id="Trazado_26260" data-name="Trazado 26260" d="M512.071,218.737c-1.087-.5-4.762-1.6-4.973-2.855a1.953,1.953,0,0,1,.145-.962c2.229-6.252,11.109-6.233,15.838-3.195a5.963,5.963,0,0,0,4.64,1.082c1.79-.308,3.482-1.087,5.285-1.3a9.8,9.8,0,0,1,9.754,6.081c1.844,4.786-1.586,8.621-1.97,13.28a9.178,9.178,0,0,0,.449,4.349c.406.941.643,1.173-.559,1.447a7.957,7.957,0,0,1-2.477.033,8.226,8.226,0,0,1-3.689-1c-2.028-1.284-1.945-3.373-2.244-5.461-.419-2.923-.723-5.861-1.149-8.784-.214-1.471-1.655-5.37-3.328-5.574-1.968-.2-1.782.3-1.782.3.466,1.244.085,3.841-.173,5.106a11.2,11.2,0,0,1-9.629,8.929c-1.819.208-3.969-1.065-5.7-1.678l2.562-6.668Z" transform="translate(-504.686 -209.734)" fill="#12263f"/>
          <g id="Grupo_15971" data-name="Grupo 15971" transform="translate(0 3.442)">
            <path id="Trazado_26261" data-name="Trazado 26261" d="M506.629,217.918c-.223.593-.539,1.51-.67,1.733a26.377,26.377,0,0,0-2.393,2c-.315.535.937.941.937.941-.034-.015-.764,2.614-.784,2.876a3.611,3.611,0,0,0,1.743,3.016,3.709,3.709,0,0,0,3.767,0c-.293,1.069-.6,2.133-.911,3.2l5.273,1.915a24.754,24.754,0,0,1,.778-5.072c.539-1.257,1.741-4.533,1.741-4.533a1.362,1.362,0,0,0,1.085-.345c.571-.462.862-1.955-.064-2.311a1.272,1.272,0,0,0-1.7.637c-.686-.091-1.267-1.729-1.486-2.248-.687-1.63-.274-3.217.061-4.868-.036.178-1.047.525-1.214.661a4.269,4.269,0,0,0-1.116,2.025,10.8,10.8,0,0,0-.277,1.133c-.158.81.044,1.254-.954.951A20.185,20.185,0,0,1,506.629,217.918Z" transform="translate(-503.514 -214.86)" fill="#d08b73"/>
            <g id="Grupo_15970" data-name="Grupo 15970" clip-path="url(#clip-path-9)">
              <path id="Trazado_26262" data-name="Trazado 26262" d="M515.6,231.334a134.747,134.747,0,0,1-6.069,3.692,10.919,10.919,0,0,0,6.069-3.692Z" transform="translate(-505.489 -220.267)" fill="#bc6c56"/>
              <path id="Trazado_26263" data-name="Trazado 26263" d="M522.285,226.371c-.048,0-.028.217.237.308a.552.552,0,0,0,.46-.058.82.82,0,0,0,.285-.995.4.4,0,0,0-.233-.2.414.414,0,0,0-.235.006c-.218.1-.316.192-.293.232s.161.04.332.018c.1.007.109.024.131.084a.576.576,0,0,1-.013.31.414.414,0,0,1-.386.351C522.416,226.437,522.331,226.35,522.285,226.371Z" transform="translate(-509.672 -218.326)" fill="#bc6c56"/>
              <path id="Trazado_26264" data-name="Trazado 26264" d="M516.8,212.948a5.322,5.322,0,0,0-1.613,1.035,5.453,5.453,0,0,0-.706.68c-.119.133-.247.267-.369.414a3.876,3.876,0,0,0-.3.512c-.177.361-.32.741-.47,1.143-.075.2-.151.4-.229.61a3.917,3.917,0,0,0-.153.671c-.067.441-.181.83-.508.945a1.512,1.512,0,0,1-1.059-.124,6.411,6.411,0,0,1-1.738-1.013,3.487,3.487,0,0,0-1.228-.71c-.337-.084-.529-.019-.524,0,0,.032.187.02.482.136a4,4,0,0,1,1.109.774,6.127,6.127,0,0,0,1.776,1.124,1.8,1.8,0,0,0,1.308.144,1,1,0,0,0,.55-.527,2.741,2.741,0,0,0,.185-.685,3.633,3.633,0,0,1,.14-.623l.219-.6c.142-.392.281-.779.438-1.121a3.673,3.673,0,0,1,.26-.477l.332-.4a5.726,5.726,0,0,1,.648-.684C516.206,213.383,516.827,213,516.8,212.948Z" transform="translate(-504.956 -214.231)" fill="#bc6c56"/>
            </g>
          </g>
          <g id="Grupo_15972" data-name="Grupo 15972" transform="translate(34.911 5.031)">
            <path id="Trazado_26266" data-name="Trazado 26266" d="M562.679,238a5.7,5.7,0,0,0-.838-.448,6.54,6.54,0,0,1-1.917-1.629,7.23,7.23,0,0,1-1.49-3.372,10.508,10.508,0,0,1,.3-4.545c.22-.788.51-1.564.682-2.365a7.668,7.668,0,0,0,.121-2.355,8.186,8.186,0,0,0-1.338-3.705,7.349,7.349,0,0,0-1.841-1.9,2.221,2.221,0,0,0-.855-.452,12.081,12.081,0,0,1,2.335,2.582,8.184,8.184,0,0,1,1.142,3.526,7.388,7.388,0,0,1-.144,2.176c-.167.744-.455,1.5-.686,2.33a10.605,10.605,0,0,0-.265,4.809A7.351,7.351,0,0,0,559.6,236.2a5.945,5.945,0,0,0,2.142,1.564A2.022,2.022,0,0,0,562.679,238Z" transform="translate(-555.497 -217.225)" fill="#282e5b"/>
          </g>
          <g id="Grupo_15973" data-name="Grupo 15973" transform="translate(8.28 12.808)">
            <path id="Trazado_26267" data-name="Trazado 26267" d="M515.844,233.439c.012.056.406.038,1-.178a5.675,5.675,0,0,0,3.316-3.449c.192-.6.195-.995.138-1.005a8.229,8.229,0,0,1-4.452,4.632Z" transform="translate(-515.843 -228.806)" fill="#282e5b"/>
          </g>
        </g>
        <g id="Grupo_15975" data-name="Grupo 15975" transform="translate(12.501)">
          <path id="Trazado_26268" data-name="Trazado 26268" d="M534.161,291.006s-5.715,16.009-5.453,19.281,3.49,5.191,3.621,6.107c.085.592-.992,1.245-1.505,1.062a1.4,1.4,0,0,1-.488-.359c-.71-.7-1.389-1.478-2.148-2.127-.446-.383-.633-.416-.586.171.028.332.214,2.207-.073,2.408-.218.152-.707.545-.746-.044s-.563-5.78-.432-7.089a35,35,0,0,0,0-3.829c-.017-1.694.037-3.378.185-5.07a60.409,60.409,0,0,1,.922-6.464c.388-1.958.7-4.148,1.888-5.809C531.37,286.425,534.161,291.006,534.161,291.006Z" transform="translate(-481.59 -234.985)" fill="#d08b73"/>
          <path id="Trazado_26269" data-name="Trazado 26269" d="M518.389,252.266a77.46,77.46,0,0,1,.552,11.465c-.053,2.04-.185,3.979-.371,5.807a13.782,13.782,0,0,1,4.147,1.687c2.026,1.254,2.674,2.428,4.75,3.364a10.134,10.134,0,0,0,3.223.84,56.122,56.122,0,0,0-2.559-19.207c-2.086-6.494-4.438-9.408-5.709-10.8a23.894,23.894,0,0,0-5.631-4.526q-.086.106-.163.216C514.538,244.083,516.683,249.116,518.389,252.266Z" transform="translate(-478.12 -219.408)" fill="url(#linear-gradient)"/>
          <path id="Trazado_26270" data-name="Trazado 26270" d="M468.777,228.813s-4.812-6.214-5.073-7.784a20.566,20.566,0,0,1-.306-3.708c.044-.458.578-1.788.725-2.748a4.265,4.265,0,0,0-.736-2.377c-.1-.153.077-2.923-.251-3.185s-.981-.349-.829,3.119c-1.722-.3-2.573-.152-2.6,1.091a19.84,19.84,0,0,0,1.178,4.428,23.333,23.333,0,0,0,.5,3.533c.371,1.44,1.905,9.332,5.5,12.42C469.571,232.851,468.777,228.813,468.777,228.813Z" transform="translate(-459.712 -208.899)" fill="#d08b73"/>
          <path id="Trazado_26271" data-name="Trazado 26271" d="M498.64,238.5a16.714,16.714,0,0,0-1.88-.381,29.048,29.048,0,0,0-6.225-.1c-1.739.124-3.33.022-5.066-.017-2.214-.052-4.428-.114-6.638-.237a19.783,19.783,0,0,1-3.917-.4c-2.92-.773-3.376-1.651-4.624-1.4-1.667.341-2.15,2.359-3.946,5.563a37.07,37.07,0,0,1-4.44,6.269,83.979,83.979,0,0,0,13.633,1.957c3.345.277,5.549.2,6.778-.179h0s.331.916.673,2.181a29.485,29.485,0,0,1,.738,4.275c.207,2.4-.754,8.561-4.237,15.9a15.24,15.24,0,0,1,4.337-.649c3.371-.007,4.954,1.08,8.733,1.357a22.581,22.581,0,0,0,4.853-.177c.065-1.013.712-1.711.663-2.626-.052-.973-.36-2.084.137-2.935.2-.342-.34-1.4-.033-2.258a37.778,37.778,0,0,1,4.217-7.915,26.3,26.3,0,0,0,3.1-5.717c1.107-2.709,1.379-5.741-.33-8.271A11.129,11.129,0,0,0,498.64,238.5Z" transform="translate(-460.432 -217.774)" fill="url(#linear-gradient)"/>
        </g>
        <path id="Trazado_26272" data-name="Trazado 26272" d="M492.3,255.382a26.382,26.382,0,0,0,5.052-1.785c-3.474,3.651-3.321,8.123-3.719,10.639C492.989,256.831,492.3,255.382,492.3,255.382Z" transform="translate(-457.912 -223.579)" fill="#dbb348"/>
      </g>
    </g>
  </g>
</svg>
