<svg xmlns="http://www.w3.org/2000/svg" xmlns:xlink="http://www.w3.org/1999/xlink" width="433.742" height="233.075" viewBox="0 0 433.742 233.075">
  <defs>
    <filter id="Rect치ngulo_46824" x="0" y="0" width="433.742" height="233.075" filterUnits="userSpaceOnUse">
      <feOffset dy="3" input="SourceAlpha"/>
      <feGaussianBlur stdDeviation="5" result="blur"/>
      <feFlood flood-opacity="0.161"/>
      <feComposite operator="in" in2="blur"/>
      <feComposite in="SourceGraphic"/>
    </filter>
  </defs>
  <g id="Grupo_173793" data-name="Grupo 173793" transform="translate(-583.334 -957.489)">
    <g transform="matrix(1, 0, 0, 1, 583.33, 957.49)" filter="url(#Rect치ngulo_46824)">
      <path id="Rect치ngulo_46824-2" data-name="Rect치ngulo 46824" d="M0,0H341.742a62,62,0,0,1,62,62V203.075a0,0,0,0,1,0,0H62a62,62,0,0,1-62-62V0A0,0,0,0,1,0,0Z" transform="translate(15 12)" fill="#f6f6f6"/>
    </g>
    <path id="Trazado_214838" data-name="Trazado 214838" d="M88.512-49.383q0,24.773-10.254,37.9T48.234,1.641q-19.523,0-29.859-12.879T7.793-48.152V-70.137q0-25.02,10.377-37.98t29.9-12.961q19.523,0,29.859,12.838T88.512-71.367ZM64.8-73.554q0-14.863-4.061-21.637T48.07-101.965q-8.367,0-12.346,6.446T31.5-75.361v29.067q0,14.616,3.979,21.718t12.756,7.1q8.7,0,12.551-6.815T64.8-45.144ZM186.375,0H104.508V-16.242l38.637-41.18A95.316,95.316,0,0,0,154.916-72.6a24.381,24.381,0,0,0,3.814-12.3q0-7.957-4.02-12.51t-11.484-4.553q-8.039,0-12.674,5.537t-4.635,14.561H102.129a39.156,39.156,0,0,1,5.209-19.934,36.713,36.713,0,0,1,14.725-14.15,44.755,44.755,0,0,1,21.574-5.127q18.457,0,28.67,8.859T182.52-87.2a40.159,40.159,0,0,1-4.594,18.047q-4.594,9.188-15.75,21.41L135.023-19.113h51.352Z" transform="translate(800 1154.076)" fill="#e2e5e8"/>
    <g id="Grupo_157315" data-name="Grupo 157315" transform="translate(418 -1221.924)">
      <path id="Trazado_214835" data-name="Trazado 214835" d="M9.688,11.391a4.185,4.185,0,0,1-1.332,2.785,4.365,4.365,0,0,1-2.98.98,4.008,4.008,0,0,1-3.23-1.445A5.815,5.815,0,0,1,.93,9.844V8.75A6.481,6.481,0,0,1,1.5,5.961,4.231,4.231,0,0,1,3.1,4.113a4.47,4.47,0,0,1,2.406-.645A4.11,4.11,0,0,1,8.414,4.48a4.235,4.235,0,0,1,1.273,2.8H8.18a3.268,3.268,0,0,0-.848-1.975A2.565,2.565,0,0,0,5.508,4.7,2.684,2.684,0,0,0,3.254,5.759a4.882,4.882,0,0,0-.816,3.026v1.1a5.018,5.018,0,0,0,.773,2.948A2.5,2.5,0,0,0,5.375,13.93a2.887,2.887,0,0,0,1.918-.566,3.143,3.143,0,0,0,.887-1.973Zm1.438-.7a4.993,4.993,0,0,1,.488-2.234A3.643,3.643,0,0,1,12.973,6.93a3.7,3.7,0,0,1,1.988-.539,3.565,3.565,0,0,1,2.793,1.2,4.6,4.6,0,0,1,1.066,3.18v.1a5.036,5.036,0,0,1-.473,2.215A3.589,3.589,0,0,1,17,14.609a3.743,3.743,0,0,1-2.02.547,3.556,3.556,0,0,1-2.785-1.2A4.575,4.575,0,0,1,11.125,10.8Zm1.453.172a3.616,3.616,0,0,0,.652,2.258,2.211,2.211,0,0,0,3.5-.012,3.955,3.955,0,0,0,.648-2.418,3.61,3.61,0,0,0-.66-2.254,2.1,2.1,0,0,0-1.754-.863,2.075,2.075,0,0,0-1.727.852A3.925,3.925,0,0,0,12.578,10.867ZM22,6.547l.047,1.063a3.08,3.08,0,0,1,2.531-1.219q2.68,0,2.7,3.023V15H25.836V9.406a1.946,1.946,0,0,0-.418-1.352,1.675,1.675,0,0,0-1.277-.437,2.086,2.086,0,0,0-1.234.375,2.546,2.546,0,0,0-.828.984V15H20.633V6.547ZM29.945,15V7.664H28.609V6.547h1.336V5.828a2.937,2.937,0,0,1,.809-2.2,3.136,3.136,0,0,1,2.285-.789,6.881,6.881,0,0,1,2.211.477l-.242,1.219a5.008,5.008,0,0,0-1.859-.391,1.819,1.819,0,0,0-1.34.418,1.723,1.723,0,0,0-.41,1.254v.734h1.727V7.664H31.4V15Zm6.023,0H34.516V6.547h1.453Zm2.008-4.3a4.968,4.968,0,0,1,.914-3.145,3.151,3.151,0,0,1,4.836-.074l.07-.937h1.32V14.8a3.439,3.439,0,0,1-.973,2.586,3.589,3.589,0,0,1-2.613.945,4.348,4.348,0,0,1-1.789-.391,3.08,3.08,0,0,1-1.336-1.07l.75-.867a2.826,2.826,0,0,0,2.273,1.148,2.214,2.214,0,0,0,1.645-.594,2.269,2.269,0,0,0,.59-1.672v-.727a2.971,2.971,0,0,1-2.367,1,2.887,2.887,0,0,1-2.4-1.2A5.224,5.224,0,0,1,37.977,10.7Zm1.453.164a3.79,3.79,0,0,0,.586,2.246,1.9,1.9,0,0,0,1.641.816,2.117,2.117,0,0,0,2.008-1.242V8.828a2.142,2.142,0,0,0-1.992-1.211,1.921,1.921,0,0,0-1.648.82A4.128,4.128,0,0,0,39.43,10.867Zm13.086,3.3a3.07,3.07,0,0,1-2.477.992,2.628,2.628,0,0,1-2.059-.785,3.4,3.4,0,0,1-.715-2.324v-5.5h1.445v5.461q0,1.922,1.563,1.922a2.163,2.163,0,0,0,2.2-1.234V6.547h1.445V15H52.547ZM60.2,7.844a4.331,4.331,0,0,0-.711-.055A1.9,1.9,0,0,0,57.563,9v6H56.117V6.547h1.406l.023.977a2.251,2.251,0,0,1,2.016-1.133A1.477,1.477,0,0,1,60.2,6.5ZM66.438,15a3.036,3.036,0,0,1-.2-.891,3.225,3.225,0,0,1-2.406,1.047,2.984,2.984,0,0,1-2.051-.707,2.287,2.287,0,0,1-.8-1.793,2.39,2.39,0,0,1,1-2.051,4.733,4.733,0,0,1,2.824-.73h1.406V9.211A1.623,1.623,0,0,0,65.758,8a1.821,1.821,0,0,0-1.336-.449,2.107,2.107,0,0,0-1.3.391,1.151,1.151,0,0,0-.523.945H61.148A2,2,0,0,1,61.6,7.668a3.066,3.066,0,0,1,1.219-.934,4.1,4.1,0,0,1,1.691-.344,3.342,3.342,0,0,1,2.289.73,2.635,2.635,0,0,1,.859,2.012v3.891a4.757,4.757,0,0,0,.3,1.852V15Zm-2.4-1.1a2.54,2.54,0,0,0,1.289-.352,2.127,2.127,0,0,0,.883-.914V10.9H65.078q-2.656,0-2.656,1.555a1.316,1.316,0,0,0,.453,1.063A1.742,1.742,0,0,0,64.039,13.9Zm9.273.078a2.082,2.082,0,0,0,1.352-.469,1.649,1.649,0,0,0,.641-1.172h1.367a2.621,2.621,0,0,1-.5,1.383,3.293,3.293,0,0,1-1.23,1.047,3.55,3.55,0,0,1-1.629.391A3.482,3.482,0,0,1,70.566,14a4.59,4.59,0,0,1-1.02-3.152v-.242A5.089,5.089,0,0,1,70,8.414a3.451,3.451,0,0,1,1.3-1.492,3.7,3.7,0,0,1,2-.531,3.39,3.39,0,0,1,2.363.852,3.043,3.043,0,0,1,1,2.211H75.3a1.992,1.992,0,0,0-.621-1.348A1.932,1.932,0,0,0,73.3,7.578a2.023,2.023,0,0,0-1.707.793,3.724,3.724,0,0,0-.605,2.293v.273a3.65,3.65,0,0,0,.6,2.25A2.033,2.033,0,0,0,73.313,13.977ZM79.867,15H78.422V6.547h1.445ZM78.3,4.3a.863.863,0,0,1,.215-.594.807.807,0,0,1,.637-.242.819.819,0,0,1,.641.242.854.854,0,0,1,.219.594.826.826,0,0,1-.219.586.834.834,0,0,1-.641.234.821.821,0,0,1-.637-.234A.834.834,0,0,1,78.3,4.3ZM81.8,10.7a4.993,4.993,0,0,1,.488-2.234A3.643,3.643,0,0,1,83.645,6.93a3.7,3.7,0,0,1,1.988-.539,3.565,3.565,0,0,1,2.793,1.2,4.6,4.6,0,0,1,1.066,3.18v.1a5.036,5.036,0,0,1-.473,2.215,3.589,3.589,0,0,1-1.352,1.527,3.743,3.743,0,0,1-2.02.547,3.556,3.556,0,0,1-2.785-1.2A4.575,4.575,0,0,1,81.8,10.8Zm1.453.172a3.616,3.616,0,0,0,.652,2.258,2.211,2.211,0,0,0,3.5-.012,3.955,3.955,0,0,0,.648-2.418,3.61,3.61,0,0,0-.66-2.254,2.1,2.1,0,0,0-1.754-.863,2.075,2.075,0,0,0-1.727.852A3.925,3.925,0,0,0,83.25,10.867Zm3.039-7.852h1.75l-2.094,2.3-1.164,0Zm6.383,3.531.047,1.063A3.08,3.08,0,0,1,95.25,6.391q2.68,0,2.7,3.023V15H96.508V9.406a1.946,1.946,0,0,0-.418-1.352,1.675,1.675,0,0,0-1.277-.437,2.086,2.086,0,0,0-1.234.375,2.546,2.546,0,0,0-.828.984V15H91.3V6.547Zm18.148,6.336,1.969-6.336h1.547l-3.4,9.758q-.789,2.109-2.508,2.109l-.273-.023-.539-.1V17.117l.391.031a1.923,1.923,0,0,0,1.145-.3,2.149,2.149,0,0,0,.676-1.086l.32-.859-3.016-8.359h1.578Zm12.273,2.273a3.693,3.693,0,0,1-2.8-1.129,4.19,4.19,0,0,1-1.078-3.02v-.266A5.073,5.073,0,0,1,119.7,8.5a3.748,3.748,0,0,1,1.344-1.547,3.378,3.378,0,0,1,1.871-.559,3.166,3.166,0,0,1,2.563,1.086,4.7,4.7,0,0,1,.914,3.109v.6h-5.727a3,3,0,0,0,.73,2.02,2.3,2.3,0,0,0,1.777.77,2.517,2.517,0,0,0,1.3-.312,3.259,3.259,0,0,0,.93-.828l.883.688A3.55,3.55,0,0,1,123.094,15.156Zm-.18-7.578a1.928,1.928,0,0,0-1.469.637A3.1,3.1,0,0,0,120.711,10h4.234V9.891a2.753,2.753,0,0,0-.594-1.707A1.815,1.815,0,0,0,122.914,7.578Zm6.641-1.031v9.43q0,2.438-2.211,2.438a2.7,2.7,0,0,1-.883-.14V17.125a2.794,2.794,0,0,0,.656.063.982.982,0,0,0,.738-.262,1.3,1.3,0,0,0,.254-.911V6.547ZM127.961,4.3a.867.867,0,0,1,.215-.59.79.79,0,0,1,.629-.246.819.819,0,0,1,.641.242.854.854,0,0,1,.219.594.826.826,0,0,1-.219.586.834.834,0,0,1-.641.234.808.808,0,0,1-.633-.234A.843.843,0,0,1,127.961,4.3Zm7.43,10.852a3.693,3.693,0,0,1-2.8-1.129,4.19,4.19,0,0,1-1.078-3.02v-.266A5.073,5.073,0,0,1,132,8.5a3.748,3.748,0,0,1,1.344-1.547,3.378,3.378,0,0,1,1.871-.559,3.166,3.166,0,0,1,2.563,1.086,4.7,4.7,0,0,1,.914,3.109v.6h-5.727a3,3,0,0,0,.73,2.02,2.3,2.3,0,0,0,1.777.77,2.517,2.517,0,0,0,1.3-.312,3.258,3.258,0,0,0,.93-.828l.883.688A3.55,3.55,0,0,1,135.391,15.156Zm-.18-7.578a1.928,1.928,0,0,0-1.469.637A3.1,3.1,0,0,0,133.008,10h4.234V9.891a2.753,2.753,0,0,0-.594-1.707A1.815,1.815,0,0,0,135.211,7.578Zm8.539,6.4a2.082,2.082,0,0,0,1.352-.469,1.649,1.649,0,0,0,.641-1.172h1.367a2.621,2.621,0,0,1-.5,1.383,3.293,3.293,0,0,1-1.23,1.047,3.55,3.55,0,0,1-1.629.391A3.482,3.482,0,0,1,141,14a4.59,4.59,0,0,1-1.02-3.152v-.242a5.089,5.089,0,0,1,.453-2.2,3.451,3.451,0,0,1,1.3-1.492,3.7,3.7,0,0,1,2-.531,3.39,3.39,0,0,1,2.363.852,3.043,3.043,0,0,1,1,2.211h-1.367a1.992,1.992,0,0,0-.621-1.348,1.932,1.932,0,0,0-1.379-.527,2.023,2.023,0,0,0-1.707.793,3.724,3.724,0,0,0-.605,2.293v.273a3.65,3.65,0,0,0,.6,2.25A2.033,2.033,0,0,0,143.75,13.977Zm10.2.188a3.07,3.07,0,0,1-2.477.992,2.628,2.628,0,0,1-2.059-.785,3.4,3.4,0,0,1-.715-2.324v-5.5h1.445v5.461q0,1.922,1.563,1.922a2.163,2.163,0,0,0,2.2-1.234V6.547h1.445V15h-1.375Zm6.992-.187a2.082,2.082,0,0,0,1.352-.469,1.649,1.649,0,0,0,.641-1.172H164.3a2.621,2.621,0,0,1-.5,1.383,3.293,3.293,0,0,1-1.23,1.047,3.55,3.55,0,0,1-1.629.391A3.482,3.482,0,0,1,158.2,14a4.59,4.59,0,0,1-1.02-3.152v-.242a5.089,5.089,0,0,1,.453-2.2,3.451,3.451,0,0,1,1.3-1.492,3.7,3.7,0,0,1,2-.531,3.39,3.39,0,0,1,2.363.852,3.043,3.043,0,0,1,1,2.211h-1.367a1.992,1.992,0,0,0-.621-1.348,1.932,1.932,0,0,0-1.379-.527,2.023,2.023,0,0,0-1.707.793,3.724,3.724,0,0,0-.605,2.293v.273a3.65,3.65,0,0,0,.6,2.25A2.033,2.033,0,0,0,160.945,13.977ZM167.5,15h-1.445V6.547H167.5ZM165.938,4.3a.863.863,0,0,1,.215-.594.807.807,0,0,1,.637-.242.819.819,0,0,1,.641.242.854.854,0,0,1,.219.594.826.826,0,0,1-.219.586.834.834,0,0,1-.641.234.821.821,0,0,1-.637-.234A.834.834,0,0,1,165.938,4.3ZM169.43,10.7a4.993,4.993,0,0,1,.488-2.234,3.642,3.642,0,0,1,1.359-1.531,3.7,3.7,0,0,1,1.988-.539,3.565,3.565,0,0,1,2.793,1.2,4.6,4.6,0,0,1,1.066,3.18v.1a5.036,5.036,0,0,1-.473,2.215,3.589,3.589,0,0,1-1.352,1.527,3.743,3.743,0,0,1-2.02.547,3.556,3.556,0,0,1-2.785-1.2A4.575,4.575,0,0,1,169.43,10.8Zm1.453.172a3.616,3.616,0,0,0,.652,2.258,2.211,2.211,0,0,0,3.5-.012,3.954,3.954,0,0,0,.648-2.418,3.61,3.61,0,0,0-.66-2.254,2.1,2.1,0,0,0-1.754-.863,2.075,2.075,0,0,0-1.727.852A3.925,3.925,0,0,0,170.883,10.867Zm3.039-7.852h1.75l-2.094,2.3-1.164,0ZM180.3,6.547l.047,1.063a3.08,3.08,0,0,1,2.531-1.219q2.68,0,2.7,3.023V15h-1.445V9.406a1.946,1.946,0,0,0-.418-1.352,1.675,1.675,0,0,0-1.277-.437,2.086,2.086,0,0,0-1.234.375,2.546,2.546,0,0,0-.828.984V15h-1.445V6.547Z" transform="translate(225.257 2324.299)" fill="#12263f"/>
    </g>
    <g id="LwdD94.tif" transform="translate(3203.806 715.521)">
      <g id="Grupo_157288" data-name="Grupo 157288" transform="translate(-2560.549 277.279)">
        <path id="Trazado_197625" data-name="Trazado 197625" d="M-2507.622,379.844h-3.306a2.28,2.28,0,0,0-.442-.208,10.149,10.149,0,0,1-7.206-5.923,1.953,1.953,0,0,0-.881-.861,4.986,4.986,0,0,1-2.933-3.5,4.807,4.807,0,0,1,.889-4.1l-1.257-4.282c-3.194,3.2-6.438,6.467-9.717,9.7a4.876,4.876,0,0,1-1.607,1.042c-4.695,1.836-9.411,3.621-14.111,5.442-2.257.874-4.5,1.793-6.744,2.691h-2.272c-3.481-1.986-4-3.488-2.516-7.344,2.436-6.348,4.859-12.7,7.326-19.038a5.362,5.362,0,0,1,1.166-1.771q6.612-6.682,13.29-13.3a1.266,1.266,0,0,0,.363-1.508,22.463,22.463,0,0,1-1.182-4.882c-.193-2.753-.052-5.529-.052-8.33.031.01-.033-.029-.1-.029q-5.06-.012-10.122-.019a22.134,22.134,0,0,1-2.786-.056,10,10,0,0,1-8.656-8.693,10,10,0,0,1,6.3-10.437c.216-.087.429-.181.487-.206a52.948,52.948,0,0,1,.04-6.463c.944-7.5,8.052-13.708,15.6-13.814a16.388,16.388,0,0,1,14.918,8.145,1.152,1.152,0,0,0,.941.436c5.978-1.124,10.666.842,14.164,5.787a1.68,1.68,0,0,0,.973.57c2.05.414,4.122.727,6.161,1.183a1.548,1.548,0,0,0,1.7-.437c6.112-6.16,12.224-12.321,18.4-18.411a12.694,12.694,0,0,1,13.023-3.384,12.893,12.893,0,0,1,9.356,9.683c.123.461.251.921.377,1.382v3.72c-.059.08-.157.154-.171.242a13.939,13.939,0,0,1-4.268,7.82c-5.527,5.476-10.95,11.058-16.55,16.456-1.507,1.452-2.116,2.683-1.364,4.74a29.834,29.834,0,0,1,.942,5.1h3.226c0,1.063,0,2.023,0,2.984a3.2,3.2,0,0,0,1.939,3.234,3.079,3.079,0,0,0,3.746-.832c.722-.728,1.37-1.53,1.969-2.206l7.221,7.224c-.706.676-1.487,1.4-2.236,2.15a3.041,3.041,0,0,0-.75,3.586,3.162,3.162,0,0,0,3.1,1.994c1.066.018,2.134,0,3.2,0v9.92c-1.067,0-2.135-.018-3.2,0a3.131,3.131,0,0,0-3.1,1.99,3.071,3.071,0,0,0,.751,3.591c.75.751,1.528,1.476,2.153,2.076l-7.128,7.162c-.606-.639-1.286-1.368-1.979-2.084a3.088,3.088,0,0,0-3.653-.866,3.222,3.222,0,0,0-2.035,3.282c.006.987,0,1.973,0,2.954h-9.911v-2.963a3.21,3.21,0,0,0-1.944-3.234,3.065,3.065,0,0,0-3.742.841c-.72.73-1.367,1.532-2.311,2.6l-1.875-2.438a5.214,5.214,0,0,1-3.364,5.018,1.461,1.461,0,0,0-.613.726,8.9,8.9,0,0,1-3.31,4.132A40.933,40.933,0,0,1-2507.622,379.844Zm-36.308-66.192c-.084-.47-.156-.908-.243-1.342a6.551,6.551,0,0,0-7.687-5.049,6.522,6.522,0,0,0-5.21,7.571,6.574,6.574,0,0,0,6.743,5.49q22,.018,44,0c.172,0,.345,0,.517-.009a5.008,5.008,0,0,0,4.736-4.271,4.985,4.985,0,0,0-2.812-5.163,4.777,4.777,0,0,0-5.922,1.437,16.719,16.719,0,0,0-1.376,2.964h-3.062a7.6,7.6,0,0,1,3.377-6.478,3.4,3.4,0,0,0,1.582-3.178,9.926,9.926,0,0,0-.149-1.64,9.87,9.87,0,0,0-9.29-8.446,9.988,9.988,0,0,0-10,7.238c-.247.868-.188,1.292.765,1.693a5.98,5.98,0,0,1,3.689,5.868h-3.125c-.548-2.124-1.627-3.179-3.271-3.242s-2.729.942-3.52,3.222h-3.146a6.4,6.4,0,0,1,4.235-6.083,1.232,1.232,0,0,0,.9-1.08,12.856,12.856,0,0,1,4.867-8.123c.45-.359.921-.692,1.372-1.029-2.97-5.867-10.664-8.375-16.875-5.535-6.755,3.088-8.89,10.6-7.211,15.287,5.581.724,9.743,5.133,9.283,9.893Zm38.016-6.608a3.242,3.242,0,0,0,.32.056,8.311,8.311,0,0,1,7.872,7.5,8.208,8.208,0,0,1-6.781,8.877,19.918,19.918,0,0,1-3.5.142c-2.053.019-4.107.005-6.238.005,0,1.527,0,2.932,0,4.337,0,1.723.563,2.281,2.293,2.283,4.131,0,8.262,0,12.394,0a4.921,4.921,0,0,1,5.146,4.9,4.923,4.923,0,0,1-5.14,5.01q-7.8.01-15.6,0a4.762,4.762,0,0,0-.927.031,1.6,1.6,0,0,0-1.446,1.623,1.606,1.606,0,0,0,1.443,1.628,3.566,3.566,0,0,0,.721.03c.929,0,1.859-.006,2.789,0a4.9,4.9,0,0,1,4.928,4.906c.019,2.743,0,5.487,0,8.329,2.48,0,4.848.017,7.215-.028.226,0,.493-.365.659-.615a58.8,58.8,0,0,1,3.878-5.809c2.207-2.587,4.694-4.936,7.081-7.368a19.781,19.781,0,0,0,5.7-17.767c-1.615-10.2-7.315-17.309-16.879-21.209a55.467,55.467,0,0,0-6.209-1.751C-2506.082,303.961-2506,305.46-2505.914,307.044Zm-5.014,49.63c0-2.791.024-5.473-.012-8.154a1.663,1.663,0,0,0-1.783-1.737c-1-.035-2-.006-3-.01a4.924,4.924,0,0,1-5.122-4.925,4.917,4.917,0,0,1,5.162-4.986q7.748-.008,15.5,0a5.737,5.737,0,0,0,1.03-.036,1.616,1.616,0,0,0,1.245-2.335,1.888,1.888,0,0,0-1.912-.946q-6.249.015-12.5,0a4.917,4.917,0,0,1-5.215-5.245c0-1.536,0-3.073,0-4.673-5.776,0-11.418-.006-17.06.023a.9.9,0,0,0-.68.52c-.926,5.288-.559,10.431,2.593,14.94a54.451,54.451,0,0,0,5.9,6.741c3.215,3.276,6.469,6.491,8.235,10.823Zm42.531,8.412,2.27-2.222a6.41,6.41,0,0,1-1.279-7.135,6.471,6.471,0,0,1,5.988-4.057v-3.206c-6-.454-8.2-5.836-4.7-11.274l-2.214-2.242a6.431,6.431,0,0,1-6.583,1.6,6.606,6.606,0,0,1-4.569-5q-.965,3.5-1.9,6.9a11.6,11.6,0,0,1,11.74,10.651,11.583,11.583,0,0,1-9.1,12.3,11.335,11.335,0,0,1-7.985-1.179,11.747,11.747,0,0,1-5.964-8.6,20,20,0,0,0-4.32,6.634,1.022,1.022,0,0,0,.188.736,5.081,5.081,0,0,1,.7,3.562,1.123,1.123,0,0,0,.215.793c.544.661,1.146,1.274,1.753,1.935,2.237-1.965,4.634-2.572,7.28-1.466a6.5,6.5,0,0,1,4.1,6.094h3.191A6.65,6.65,0,0,1-2468.4,365.087Zm-11.82-79.663,14.111,14.115c5.694-5.082,6.408-11.6,1.642-16.1C-2468.291,279.835-2475.057,278.881-2480.217,285.424Zm-62.249,73.636,11.96-11.985-5.091-5.923-12.382,12.39Zm-7.484-2.468a.231.231,0,0,0-.1.1c-1.312,3.389-2.633,6.775-3.9,10.18a1.131,1.131,0,0,0,.306.924c1.7,1.751,3.457,3.449,5.152,5.206a.969.969,0,0,0,1.257.222c1.558-.63,3.131-1.221,4.7-1.827l5.325-2.061Zm10.278,5.018,5.785,5.783c3.585-3.591,7.26-7.263,10.913-10.957a.85.85,0,0,0,.165-.773,26.574,26.574,0,0,0-4.941-5.985Zm66.76-11.525a8.32,8.32,0,0,0-8.3-8.256,4.157,4.157,0,0,0-3.745,1.7,20.855,20.855,0,0,1-3.222,3.473,3.819,3.819,0,0,0-1.26,3.111,8.35,8.35,0,0,0,8.324,8.241A8.354,8.354,0,0,0-2472.912,350.085Zm-6.61-48.649-7.389,7.368,4.531,6.769,8.5-8.5Zm-2.709-2.519-5.638-5.63-8.39,8.389,6.792,4.553Zm-2.971-8.514,13.985,13.984,2.3-2.126L-2483,288.184Zm-24.1,72.911q3.865,0,7.73,0c1.376,0,2.186-.606,2.208-1.627s-.8-1.683-2.148-1.684q-7.782-.007-15.563,0c-1.287,0-2.082.63-2.1,1.624-.022,1.029.8,1.682,2.147,1.685C-2514.458,363.319-2511.881,363.315-2509.3,363.315Zm.013,6.612c2.68,0,5.359.014,8.04-.006a1.721,1.721,0,0,0,1.885-1.634,1.7,1.7,0,0,0-1.852-1.665c-5.359-.016-10.719-.029-16.078.026a2.2,2.2,0,0,0-1.546.774,1.668,1.668,0,0,0-.066,1.575,2.516,2.516,0,0,0,1.683.89C-2514.584,369.98-2511.937,369.927-2509.292,369.927Zm5.769,3.365h-11.509a6.634,6.634,0,0,0,5.76,3.216A6.611,6.611,0,0,0-2503.523,373.292Zm-48.044,1.568-3.973-3.962c-.5,1.309-1.065,2.67-1.52,4.067a1.43,1.43,0,0,0,.262,1.182,1.246,1.246,0,0,0,1.094.265C-2554.287,375.943-2552.9,375.372-2551.567,374.86Z" transform="translate(2560.549 -277.279)" fill="#12263f"/>
        <path id="Trazado_197626" data-name="Trazado 197626" d="M-2191.181,609.946a4.922,4.922,0,0,1-4.969,4.968,4.919,4.919,0,0,1-4.939-5,4.921,4.921,0,0,1,4.917-4.915A4.917,4.917,0,0,1-2191.181,609.946Zm-3.312,0a1.721,1.721,0,0,0-1.659-1.628,1.72,1.72,0,0,0-1.626,1.66,1.722,1.722,0,0,0,1.658,1.628A1.727,1.727,0,0,0-2194.493,609.942Z" transform="translate(2275.509 -537.154)" fill="#12263f"/>
      </g>
    </g>
  </g>
</svg>
