<svg xmlns="http://www.w3.org/2000/svg" xmlns:xlink="http://www.w3.org/1999/xlink" width="433.742" height="233.075" viewBox="0 0 433.742 233.075">
  <defs>
    <filter id="Rect치ngulo_46825" x="0" y="0" width="433.742" height="233.075" filterUnits="userSpaceOnUse">
      <feOffset dy="3" input="SourceAlpha"/>
      <feGaussianBlur stdDeviation="5" result="blur"/>
      <feFlood flood-opacity="0.161"/>
      <feComposite operator="in" in2="blur"/>
      <feComposite in="SourceGraphic"/>
    </filter>
  </defs>
  <g id="Grupo_173792" data-name="Grupo 173792" transform="translate(-1008.151 -957.489)">
    <g transform="matrix(1, 0, 0, 1, 1008.15, 957.49)" filter="url(#Rect치ngulo_46825)">
      <path id="Rect치ngulo_46825-2" data-name="Rect치ngulo 46825" d="M0,0H341.742a62,62,0,0,1,62,62V203.075a0,0,0,0,1,0,0H62a62,62,0,0,1-62-62V0A0,0,0,0,1,0,0Z" transform="translate(15 12)" fill="#f6f6f6"/>
    </g>
    <path id="Trazado_214839" data-name="Trazado 214839" d="M88.512-49.383q0,24.773-10.254,37.9T48.234,1.641q-19.523,0-29.859-12.879T7.793-48.152V-70.137q0-25.02,10.377-37.98t29.9-12.961q19.523,0,29.859,12.838T88.512-71.367ZM64.8-73.554q0-14.863-4.061-21.637T48.07-101.965q-8.367,0-12.346,6.446T31.5-75.361v29.067q0,14.616,3.979,21.718t12.756,7.1q8.7,0,12.551-6.815T64.8-45.144Zm63.82,3.335h12.633q9.023,0,13.371-4.512t4.348-11.977q0-7.219-4.307-11.238t-11.854-4.02a17.494,17.494,0,0,0-11.4,3.732,11.934,11.934,0,0,0-4.594,9.721H103.113a29.155,29.155,0,0,1,5.045-16.775,33.617,33.617,0,0,1,14.109-11.607,47.089,47.089,0,0,1,19.975-4.184q18.949,0,29.7,9.064t10.746,24.979a25.132,25.132,0,0,1-5,15.094,32.51,32.51,0,0,1-13.125,10.582q10.09,3.609,15.053,10.828a29.372,29.372,0,0,1,4.963,17.063q0,15.914-11.607,25.512t-30.721,9.6q-17.883,0-29.244-9.434T101.637-32.73h23.707a13.735,13.735,0,0,0,5.045,10.992,18.59,18.59,0,0,0,12.428,4.266q8.449,0,13.248-4.471t4.8-11.854q0-17.883-19.687-17.883H128.625Z" transform="translate(1216.488 1154.076)" fill="#e2e5e8"/>
    <g id="Grupo_157316" data-name="Grupo 157316" transform="translate(842.817 -1221.924)">
      <path id="Trazado_214836" data-name="Trazado 214836" d="M1.32,15V3.625H4.531a5.169,5.169,0,0,1,2.625.656A4.438,4.438,0,0,1,8.918,6.148,6.078,6.078,0,0,1,9.547,8.93v.727a6.1,6.1,0,0,1-.621,2.82,4.369,4.369,0,0,1-1.773,1.859A5.5,5.5,0,0,1,4.469,15ZM2.82,4.852v8.922H4.4a3.434,3.434,0,0,0,2.7-1.079,4.458,4.458,0,0,0,.965-3.073V8.957a4.529,4.529,0,0,0-.91-3.014A3.239,3.239,0,0,0,4.57,4.852Zm12.273,10.3a3.693,3.693,0,0,1-2.8-1.129,4.19,4.19,0,0,1-1.078-3.02v-.266A5.073,5.073,0,0,1,11.7,8.5a3.748,3.748,0,0,1,1.344-1.547,3.378,3.378,0,0,1,1.871-.559,3.166,3.166,0,0,1,2.563,1.086,4.7,4.7,0,0,1,.914,3.109v.6H12.664a3,3,0,0,0,.73,2.02,2.3,2.3,0,0,0,1.777.77,2.517,2.517,0,0,0,1.3-.312,3.259,3.259,0,0,0,.93-.828l.883.688A3.55,3.55,0,0,1,15.094,15.156Zm-.18-7.578a1.928,1.928,0,0,0-1.469.637A3.1,3.1,0,0,0,12.711,10h4.234V9.891a2.753,2.753,0,0,0-.594-1.707A1.815,1.815,0,0,0,14.914,7.578Zm10.07,5.18a1.064,1.064,0,0,0-.441-.91A4.249,4.249,0,0,0,23,11.289a7.277,7.277,0,0,1-1.742-.562,2.479,2.479,0,0,1-.953-.781A1.869,1.869,0,0,1,20,8.867a2.193,2.193,0,0,1,.879-1.758,3.432,3.432,0,0,1,2.246-.719,3.532,3.532,0,0,1,2.332.742,2.357,2.357,0,0,1,.895,1.9H24.9a1.3,1.3,0,0,0-.5-1.023,1.888,1.888,0,0,0-1.27-.43,1.976,1.976,0,0,0-1.234.344,1.082,1.082,0,0,0-.445.9.877.877,0,0,0,.414.789,5.1,5.1,0,0,0,1.5.508,7.8,7.8,0,0,1,1.754.578,2.558,2.558,0,0,1,1,.809,1.988,1.988,0,0,1,.324,1.152,2.163,2.163,0,0,1-.906,1.816,3.8,3.8,0,0,1-2.352.684,4.257,4.257,0,0,1-1.8-.359,2.922,2.922,0,0,1-1.223-1,2.42,2.42,0,0,1-.441-1.395h1.445a1.5,1.5,0,0,0,.582,1.152,2.258,2.258,0,0,0,1.434.426,2.331,2.331,0,0,0,1.316-.332A1.02,1.02,0,0,0,24.984,12.758Zm10.469-1.891a5.062,5.062,0,0,1-.883,3.109,2.829,2.829,0,0,1-2.391,1.18,3.1,3.1,0,0,1-2.422-.977v4.07H28.313V6.547h1.32l.07.938a2.977,2.977,0,0,1,2.453-1.094,2.882,2.882,0,0,1,2.41,1.148,5.117,5.117,0,0,1,.887,3.2ZM34.008,10.7A3.735,3.735,0,0,0,33.4,8.445a1.963,1.963,0,0,0-1.672-.828,2.125,2.125,0,0,0-1.969,1.164V12.82a2.129,2.129,0,0,0,1.984,1.156,1.954,1.954,0,0,0,1.652-.824A4.077,4.077,0,0,0,34.008,10.7ZM38.859,15H37.414V3h1.445Zm3.883,0H41.3V6.547h1.445ZM41.18,4.3a.863.863,0,0,1,.215-.594.807.807,0,0,1,.637-.242.819.819,0,0,1,.641.242.854.854,0,0,1,.219.594.826.826,0,0,1-.219.586.834.834,0,0,1-.641.234.821.821,0,0,1-.637-.234A.834.834,0,0,1,41.18,4.3Zm7.383,10.852a3.693,3.693,0,0,1-2.8-1.129,4.19,4.19,0,0,1-1.078-3.02v-.266a5.073,5.073,0,0,1,.48-2.246,3.748,3.748,0,0,1,1.344-1.547,3.378,3.378,0,0,1,1.871-.559,3.166,3.166,0,0,1,2.563,1.086,4.7,4.7,0,0,1,.914,3.109v.6H46.133a3,3,0,0,0,.73,2.02,2.3,2.3,0,0,0,1.777.77,2.517,2.517,0,0,0,1.3-.312,3.259,3.259,0,0,0,.93-.828l.883.688A3.55,3.55,0,0,1,48.563,15.156Zm-.18-7.578a1.928,1.928,0,0,0-1.469.637A3.1,3.1,0,0,0,46.18,10h4.234V9.891a2.753,2.753,0,0,0-.594-1.707A1.815,1.815,0,0,0,48.383,7.578Zm4.8,3.125A4.968,4.968,0,0,1,54.1,7.559a3.151,3.151,0,0,1,4.836-.074l.07-.937h1.32V14.8a3.439,3.439,0,0,1-.973,2.586,3.589,3.589,0,0,1-2.613.945,4.348,4.348,0,0,1-1.789-.391,3.08,3.08,0,0,1-1.336-1.07l.75-.867a2.826,2.826,0,0,0,2.273,1.148,2.214,2.214,0,0,0,1.645-.594,2.269,2.269,0,0,0,.59-1.672v-.727a2.971,2.971,0,0,1-2.367,1,2.887,2.887,0,0,1-2.4-1.2A5.224,5.224,0,0,1,53.188,10.7Zm1.453.164a3.79,3.79,0,0,0,.586,2.246,1.9,1.9,0,0,0,1.641.816,2.117,2.117,0,0,0,2.008-1.242V8.828a2.142,2.142,0,0,0-1.992-1.211,1.921,1.921,0,0,0-1.648.82A4.128,4.128,0,0,0,54.641,10.867Zm13.086,3.3a3.07,3.07,0,0,1-2.477.992,2.628,2.628,0,0,1-2.059-.785,3.4,3.4,0,0,1-.715-2.324v-5.5h1.445v5.461q0,1.922,1.563,1.922a2.163,2.163,0,0,0,2.2-1.234V6.547h1.445V15H67.758Zm7.109.992a3.693,3.693,0,0,1-2.8-1.129,4.19,4.19,0,0,1-1.078-3.02v-.266a5.073,5.073,0,0,1,.48-2.246,3.748,3.748,0,0,1,1.344-1.547,3.378,3.378,0,0,1,1.871-.559,3.166,3.166,0,0,1,2.563,1.086,4.7,4.7,0,0,1,.914,3.109v.6H72.406a3,3,0,0,0,.73,2.02,2.3,2.3,0,0,0,1.777.77,2.517,2.517,0,0,0,1.3-.312,3.259,3.259,0,0,0,.93-.828l.883.688A3.55,3.55,0,0,1,74.836,15.156Zm-.18-7.578a1.928,1.928,0,0,0-1.469.637A3.1,3.1,0,0,0,72.453,10h4.234V9.891a2.753,2.753,0,0,0-.594-1.707A1.815,1.815,0,0,0,74.656,7.578Zm5.1,9.688-.82-.562a3.77,3.77,0,0,0,.766-2.109v-1.3h1.414v1.133A3.559,3.559,0,0,1,80.73,16,3.7,3.7,0,0,1,79.758,17.266Zm6.766-6.57a4.993,4.993,0,0,1,.488-2.234A3.643,3.643,0,0,1,88.371,6.93a3.7,3.7,0,0,1,1.988-.539,3.565,3.565,0,0,1,2.793,1.2,4.6,4.6,0,0,1,1.066,3.18v.1a5.036,5.036,0,0,1-.473,2.215,3.589,3.589,0,0,1-1.352,1.527,3.743,3.743,0,0,1-2.02.547,3.556,3.556,0,0,1-2.785-1.2A4.575,4.575,0,0,1,86.523,10.8Zm1.453.172a3.616,3.616,0,0,0,.652,2.258,2.211,2.211,0,0,0,3.5-.012,3.955,3.955,0,0,0,.648-2.418,3.61,3.61,0,0,0-.66-2.254,2.1,2.1,0,0,0-1.754-.863,2.075,2.075,0,0,0-1.727.852A3.925,3.925,0,0,0,87.977,10.867Zm15.2,0a5.062,5.062,0,0,1-.883,3.109,2.829,2.829,0,0,1-2.391,1.18,3.1,3.1,0,0,1-2.422-.977v4.07H96.031V6.547h1.32l.07.938a2.977,2.977,0,0,1,2.453-1.094,2.882,2.882,0,0,1,2.41,1.148,5.117,5.117,0,0,1,.887,3.2Zm-1.445-.164a3.735,3.735,0,0,0-.609-2.258,1.963,1.963,0,0,0-1.672-.828,2.125,2.125,0,0,0-1.969,1.164V12.82a2.129,2.129,0,0,0,1.984,1.156,1.954,1.954,0,0,0,1.652-.824A4.077,4.077,0,0,0,101.727,10.7Zm6.789,4.453a3.693,3.693,0,0,1-2.8-1.129,4.19,4.19,0,0,1-1.078-3.02v-.266a5.073,5.073,0,0,1,.48-2.246,3.748,3.748,0,0,1,1.344-1.547,3.378,3.378,0,0,1,1.871-.559A3.166,3.166,0,0,1,110.9,7.477a4.7,4.7,0,0,1,.914,3.109v.6h-5.727a3,3,0,0,0,.73,2.02,2.3,2.3,0,0,0,1.777.77,2.517,2.517,0,0,0,1.3-.312,3.259,3.259,0,0,0,.93-.828l.883.688A3.55,3.55,0,0,1,108.516,15.156Zm-.18-7.578a1.928,1.928,0,0,0-1.469.637A3.1,3.1,0,0,0,106.133,10h4.234V9.891a2.753,2.753,0,0,0-.594-1.707A1.815,1.815,0,0,0,108.336,7.578Zm9.234.266a4.331,4.331,0,0,0-.711-.055A1.9,1.9,0,0,0,114.93,9v6h-1.445V6.547h1.406l.023.977a2.251,2.251,0,0,1,2.016-1.133,1.477,1.477,0,0,1,.641.109ZM123.8,15a3.036,3.036,0,0,1-.2-.891,3.225,3.225,0,0,1-2.406,1.047,2.984,2.984,0,0,1-2.051-.707,2.288,2.288,0,0,1-.8-1.793,2.39,2.39,0,0,1,1-2.051,4.733,4.733,0,0,1,2.824-.73h1.406V9.211A1.623,1.623,0,0,0,123.125,8a1.821,1.821,0,0,0-1.336-.449,2.108,2.108,0,0,0-1.3.391,1.151,1.151,0,0,0-.523.945h-1.453a2,2,0,0,1,.449-1.223,3.066,3.066,0,0,1,1.219-.934,4.1,4.1,0,0,1,1.691-.344,3.342,3.342,0,0,1,2.289.73,2.635,2.635,0,0,1,.859,2.012v3.891a4.757,4.757,0,0,0,.3,1.852V15Zm-2.4-1.1a2.54,2.54,0,0,0,1.289-.352,2.127,2.127,0,0,0,.883-.914V10.9h-1.133q-2.656,0-2.656,1.555a1.316,1.316,0,0,0,.453,1.063A1.742,1.742,0,0,0,121.406,13.9Zm9.273.078a2.082,2.082,0,0,0,1.352-.469,1.649,1.649,0,0,0,.641-1.172h1.367a2.621,2.621,0,0,1-.5,1.383,3.293,3.293,0,0,1-1.23,1.047,3.55,3.55,0,0,1-1.629.391A3.482,3.482,0,0,1,127.934,14a4.59,4.59,0,0,1-1.02-3.152v-.242a5.089,5.089,0,0,1,.453-2.2,3.451,3.451,0,0,1,1.3-1.492,3.7,3.7,0,0,1,2-.531,3.39,3.39,0,0,1,2.363.852,3.043,3.043,0,0,1,1,2.211h-1.367a1.992,1.992,0,0,0-.621-1.348,1.932,1.932,0,0,0-1.379-.527,2.023,2.023,0,0,0-1.707.793,3.724,3.724,0,0,0-.605,2.293v.273a3.65,3.65,0,0,0,.6,2.25A2.033,2.033,0,0,0,130.68,13.977ZM137.234,15h-1.445V6.547h1.445ZM135.672,4.3a.863.863,0,0,1,.215-.594.807.807,0,0,1,.637-.242.819.819,0,0,1,.641.242.854.854,0,0,1,.219.594.826.826,0,0,1-.219.586.834.834,0,0,1-.641.234.821.821,0,0,1-.637-.234A.834.834,0,0,1,135.672,4.3Zm3.492,6.391a4.993,4.993,0,0,1,.488-2.234,3.642,3.642,0,0,1,1.359-1.531A3.7,3.7,0,0,1,143,6.391a3.565,3.565,0,0,1,2.793,1.2,4.6,4.6,0,0,1,1.066,3.18v.1a5.036,5.036,0,0,1-.473,2.215,3.589,3.589,0,0,1-1.352,1.527,3.743,3.743,0,0,1-2.02.547,3.556,3.556,0,0,1-2.785-1.2,4.575,4.575,0,0,1-1.066-3.164Zm1.453.172a3.616,3.616,0,0,0,.652,2.258,2.211,2.211,0,0,0,3.5-.012,3.954,3.954,0,0,0,.648-2.418,3.61,3.61,0,0,0-.66-2.254A2.1,2.1,0,0,0,143,7.578a2.075,2.075,0,0,0-1.727.852A3.925,3.925,0,0,0,140.617,10.867Zm3.039-7.852h1.75l-2.094,2.3-1.164,0Zm6.383,3.531.047,1.063a3.08,3.08,0,0,1,2.531-1.219q2.68,0,2.7,3.023V15h-1.445V9.406a1.946,1.946,0,0,0-.418-1.352,1.675,1.675,0,0,0-1.277-.437,2.086,2.086,0,0,0-1.234.375,2.546,2.546,0,0,0-.828.984V15h-1.445V6.547Zm14.188,6.336L166.2,6.547h1.547l-3.4,9.758q-.789,2.109-2.508,2.109l-.273-.023-.539-.1V17.117l.391.031a1.923,1.923,0,0,0,1.145-.3,2.148,2.148,0,0,0,.676-1.086l.32-.859-3.016-8.359h1.578Zm8.383-2.187a4.993,4.993,0,0,1,.488-2.234,3.642,3.642,0,0,1,1.359-1.531,3.7,3.7,0,0,1,1.988-.539,3.565,3.565,0,0,1,2.793,1.2,4.6,4.6,0,0,1,1.066,3.18v.1a5.036,5.036,0,0,1-.473,2.215,3.589,3.589,0,0,1-1.352,1.527,3.743,3.743,0,0,1-2.02.547,3.556,3.556,0,0,1-2.785-1.2,4.575,4.575,0,0,1-1.066-3.164Zm1.453.172a3.616,3.616,0,0,0,.652,2.258,2.211,2.211,0,0,0,3.5-.012,3.954,3.954,0,0,0,.648-2.418,3.61,3.61,0,0,0-.66-2.254,2.1,2.1,0,0,0-1.754-.863,2.075,2.075,0,0,0-1.727.852A3.925,3.925,0,0,0,174.063,10.867Zm15.2,0a5.062,5.062,0,0,1-.883,3.109,2.829,2.829,0,0,1-2.391,1.18,3.1,3.1,0,0,1-2.422-.977v4.07h-1.445V6.547h1.32l.07.938a2.977,2.977,0,0,1,2.453-1.094,2.882,2.882,0,0,1,2.41,1.148,5.117,5.117,0,0,1,.887,3.2Zm-1.445-.164a3.735,3.735,0,0,0-.609-2.258,1.963,1.963,0,0,0-1.672-.828,2.125,2.125,0,0,0-1.969,1.164V12.82a2.129,2.129,0,0,0,1.984,1.156,1.954,1.954,0,0,0,1.652-.824A4.077,4.077,0,0,0,187.813,10.7Zm5.242-6.2V6.547h1.578V7.664h-1.578v5.249a1.173,1.173,0,0,0,.211.763.888.888,0,0,0,.719.254,3.5,3.5,0,0,0,.688-.094V15a4.215,4.215,0,0,1-1.109.155,1.8,1.8,0,0,1-1.461-.586,2.517,2.517,0,0,1-.492-1.664V7.664H190.07V6.547h1.539V4.5ZM197.891,15h-1.445V6.547h1.445ZM196.328,4.3a.863.863,0,0,1,.215-.594.807.807,0,0,1,.637-.242.819.819,0,0,1,.641.242.854.854,0,0,1,.219.594.826.826,0,0,1-.219.586.834.834,0,0,1-.641.234.821.821,0,0,1-.637-.234A.834.834,0,0,1,196.328,4.3Zm5.234,2.242.039.938a3.122,3.122,0,0,1,2.508-1.094,2.417,2.417,0,0,1,2.414,1.359,3.2,3.2,0,0,1,1.1-.984,3.242,3.242,0,0,1,1.6-.375q2.781,0,2.828,2.945V15H210.6V9.422a1.941,1.941,0,0,0-.414-1.355,1.823,1.823,0,0,0-1.391-.449,1.917,1.917,0,0,0-1.336.48,1.949,1.949,0,0,0-.617,1.293V15h-1.453V9.461a1.613,1.613,0,0,0-1.8-1.844,1.934,1.934,0,0,0-1.945,1.211V15H200.2V6.547ZM215.8,15h-1.445V6.547H215.8ZM214.234,4.3a.863.863,0,0,1,.215-.594.807.807,0,0,1,.637-.242.819.819,0,0,1,.641.242.854.854,0,0,1,.219.594.826.826,0,0,1-.219.586.834.834,0,0,1-.641.234.821.821,0,0,1-.637-.234A.834.834,0,0,1,214.234,4.3Zm5.234,9.516h4.945V15H217.7V13.938l4.664-6.2h-4.594v-1.2h6.406V7.57ZM231.258,15a3.036,3.036,0,0,1-.2-.891,3.225,3.225,0,0,1-2.406,1.047,2.984,2.984,0,0,1-2.051-.707,2.287,2.287,0,0,1-.8-1.793,2.39,2.39,0,0,1,1-2.051,4.733,4.733,0,0,1,2.824-.73h1.406V9.211A1.623,1.623,0,0,0,230.578,8a1.821,1.821,0,0,0-1.336-.449,2.107,2.107,0,0,0-1.3.391,1.151,1.151,0,0,0-.523.945h-1.453a2,2,0,0,1,.449-1.223,3.066,3.066,0,0,1,1.219-.934,4.1,4.1,0,0,1,1.691-.344,3.342,3.342,0,0,1,2.289.73,2.635,2.635,0,0,1,.859,2.012v3.891a4.757,4.757,0,0,0,.3,1.852V15Zm-2.4-1.1a2.54,2.54,0,0,0,1.289-.352,2.127,2.127,0,0,0,.883-.914V10.9H229.9q-2.656,0-2.656,1.555a1.316,1.316,0,0,0,.453,1.063A1.742,1.742,0,0,0,228.859,13.9Zm9.273.078a2.082,2.082,0,0,0,1.352-.469,1.649,1.649,0,0,0,.641-1.172h1.367a2.621,2.621,0,0,1-.5,1.383,3.293,3.293,0,0,1-1.23,1.047,3.55,3.55,0,0,1-1.629.391A3.482,3.482,0,0,1,235.387,14a4.59,4.59,0,0,1-1.02-3.152v-.242a5.089,5.089,0,0,1,.453-2.2,3.451,3.451,0,0,1,1.3-1.492,3.7,3.7,0,0,1,2-.531,3.39,3.39,0,0,1,2.363.852,3.043,3.043,0,0,1,1,2.211h-1.367a1.992,1.992,0,0,0-.621-1.348,1.932,1.932,0,0,0-1.379-.527,2.023,2.023,0,0,0-1.707.793,3.724,3.724,0,0,0-.605,2.293v.273a3.65,3.65,0,0,0,.6,2.25A2.033,2.033,0,0,0,238.133,13.977ZM244.688,15h-1.445V6.547h1.445ZM243.125,4.3a.863.863,0,0,1,.215-.594.807.807,0,0,1,.637-.242.819.819,0,0,1,.641.242.854.854,0,0,1,.219.594.826.826,0,0,1-.219.586.834.834,0,0,1-.641.234.821.821,0,0,1-.637-.234A.834.834,0,0,1,243.125,4.3Zm3.492,6.391a4.993,4.993,0,0,1,.488-2.234,3.642,3.642,0,0,1,1.359-1.531,3.7,3.7,0,0,1,1.988-.539,3.565,3.565,0,0,1,2.793,1.2,4.6,4.6,0,0,1,1.066,3.18v.1a5.036,5.036,0,0,1-.473,2.215,3.589,3.589,0,0,1-1.352,1.527,3.743,3.743,0,0,1-2.02.547,3.556,3.556,0,0,1-2.785-1.2,4.575,4.575,0,0,1-1.066-3.164Zm1.453.172a3.616,3.616,0,0,0,.652,2.258,2.211,2.211,0,0,0,3.5-.012,3.954,3.954,0,0,0,.648-2.418,3.61,3.61,0,0,0-.66-2.254,2.1,2.1,0,0,0-1.754-.863,2.075,2.075,0,0,0-1.727.852A3.925,3.925,0,0,0,248.07,10.867Zm3.039-7.852h1.75l-2.094,2.3-1.164,0Zm6.383,3.531.047,1.063a3.08,3.08,0,0,1,2.531-1.219q2.68,0,2.7,3.023V15h-1.445V9.406a1.946,1.946,0,0,0-.418-1.352,1.675,1.675,0,0,0-1.277-.437,2.086,2.086,0,0,0-1.234.375,2.546,2.546,0,0,0-.828.984V15h-1.445V6.547Z" transform="translate(225.257 2324.299)" fill="#12263f"/>
    </g>
    <g id="R2USI0" transform="translate(-4147.419 -3018.922)">
      <g id="Grupo_155275" data-name="Grupo 155275" transform="translate(5222.419 4008.511)">
        <path id="Trazado_197107" data-name="Trazado 197107" d="M5275.357,4060.916c-4.48,0-9.2.04-13.912-.01-6.989-.072-11.461-5.053-10.66-11.983.2-1.727-.447-1.958-1.9-1.958-5.644,0-11.3.111-16.926-.21-5.843-.333-9.625-4.775-9.538-10.611a10.188,10.188,0,0,1,9.9-10.118c1.97-.065,2.547-.561,2.989-2.545a19.171,19.171,0,0,1,31.249-10.313,2.046,2.046,0,0,0,2.769.27,12.018,12.018,0,0,1,17.434,7.6,3.781,3.781,0,0,0,2.8,3.012,12.456,12.456,0,0,1,4.912,3.022c1.075,1.047,1.842.885,3.053.274a11.993,11.993,0,0,1,17.61,10.63c.035,1.675.447,2.1,2.1,2.128,6.262.1,10.554,4.443,10.528,10.465-.025,5.938-4.508,10.277-10.734,10.341-3.7.038-7.4.007-11.146.007,1.148,2.979.48,5.928.584,8.827.026.75-.546,1.182-1.123,1.569-.364.244-.9.178-.9.964.006,3.613-4.114,7.792-7.47,7.553-.742-.053-.873.266-1.026.722-.169.506-.414,1.1-.908,1.117-3.193.114-2.461,2.437-2.471,4.309-.023,4.8.019,9.607-.023,14.411-.014,1.428-.107,2.7,1.9,2.77.813.027,1.259.744,1.359,1.595.63,5.33-2.4,8.746-7.771,8.746q-28.819,0-57.642,0c-5.307,0-8.446-3.689-7.566-8.87.127-.738.475-1.415,1.21-1.417,2.365-.012,2-1.63,2-3.111q-.015-14.538,0-29.074c.006-4.6,2-6.589,6.63-6.592,12.641-.007,25.281.013,37.922-.016C5272.92,4064.41,5276.067,4065.508,5275.357,4060.916Zm-22.466,7.06c-6.743,0-13.489.066-20.23-.038-2.276-.036-3.155.707-3.135,3.049q.13,14.793-.007,29.588c-.018,1.875.462,2.438,2.378,2.4,6.826-.118,13.656-.046,20.484-.046,1.258,0,2.443-.079,3.346,1.224.687.989,6.386,1.1,7.061.11.953-1.4,2.209-1.334,3.557-1.334q10.37,0,20.736,0c1.1,0,2.175.2,2.15-1.57-.077-5.985-.031-11.97-.027-17.955,0-.717-.03-1.419-1-1.392-2.217.063-3.252-3.141-5.819-2.095-.037.015-.132-.092-.189-.151-1.667-1.67-3.921-3.081-4.813-5.094-.738-1.665-1.521-3.386-2.14-5.1-.493-1.364-.891-1.63-2.124-1.623C5266.38,4067.994,5259.636,4067.976,5252.892,4067.976Zm58.677-10.565v-.008c2.105,0,4.216.1,6.315-.021a6.919,6.919,0,0,0,.322-13.754c-1.251-.132-2.521-.089-3.784-.115-2.985-.059-3.369-.521-2.853-3.453a8.582,8.582,0,0,0-3.773-9.169,8.262,8.262,0,0,0-10.083.5c-1.541,1.219-2.559,1.33-4.019-.214-4.564-4.825-10.183-6.513-16.535-4.375-6.522,2.2-10.194,6.92-10.751,13.833-.175,2.158-1.093,3.043-3.191,2.862a16.138,16.138,0,0,0-2.021-.023,6.835,6.835,0,0,0-6.886,7.148,6.665,6.665,0,0,0,6.94,6.77c4.885.057,9.771.007,14.656.025a2.785,2.785,0,0,0,2.269-.815,28.808,28.808,0,0,1,3.973-3.868c1.328-.95,3.1-.477,4.709-1.842,1.656-1.408,4.7-.426,7.13-.4a2.2,2.2,0,0,1,2.149,1.782c.173.5.64.381,1.056.178a2.259,2.259,0,0,1,3.058.979c2.479,3.6,5.921,4.625,10.058,3.989A8.426,8.426,0,0,1,5311.568,4057.411Zm-28.166-35.054c-1.38-6.439-8.357-8.974-13.775-4.963-1.619,1.2-2.6,1.184-4.036-.307-4.679-4.876-10.375-6.486-16.8-4.187s-9.844,7.147-10.486,13.849c-.2,2.091-1,2.862-2.978,2.753a25.87,25.87,0,0,0-3.033.024,6.666,6.666,0,0,0-6.319,5.819c-.675,4.64,2.514,8.138,7.612,8.2,5.729.066,11.461-.022,17.19.038a5.3,5.3,0,0,0,3.874-1.327,8.122,8.122,0,0,1,6.037-2.147c1.753.144,2.231-.568,2.546-2.155a18.8,18.8,0,0,1,5.471-10.021C5272.812,4023.917,5277.849,4022.491,5283.4,4022.357Zm19.566,43.86c.279-1.4-.02-2.351-1.7-2.671a1.716,1.716,0,0,1-1.134-2.9c1.147-1.539.2-2.2-.688-3.124-.873-.9-1.609-1.6-2.97-.658-1.634,1.125-2.831.366-3.1-1.4-.268-1.75-1.368-1.592-2.566-1.6s-2.308-.129-2.576,1.6c-.281,1.8-1.481,2.508-3.1,1.4-1.371-.943-2.129-.257-2.956.678-.734.827-1.9,1.366-.8,2.878,1.037,1.434.629,2.875-1.247,3.228-1.708.321-1.5,1.413-1.531,2.587-.028,1.23-.061,2.33,1.563,2.606,1.851.315,2.228,1.712,1.328,2.988-1.086,1.54-.206,2.192.688,3.126s1.647,1.531,2.986.6c1.643-1.138,2.64-.338,3.122,1.407.249.9.168,2.428,1.582,2.016,1.218-.354,3.152.333,3.5-1.969.295-1.969,1.585-2.546,3.285-1.353,1.285.9,1.983.142,2.762-.69s1.87-1.406.856-2.9c-.949-1.4-.86-2.8,1.179-3.213C5303,4068.537,5303.181,4067.525,5302.969,4066.217Zm-43.891,43.739q14.65,0,29.3,0a7.711,7.711,0,0,0,2.009-.1c1.324-.365,1.473-1.522,1.4-2.642-.081-1.246-1.139-.744-1.767-.747-7.324-.037-14.648-.021-21.974-.028a2.417,2.417,0,0,0-2.15.909c-1.126,1.34-11.778,1.382-13.129.232a.5.5,0,0,1-.162-.19c-.412-1.2-1.424-.942-2.313-.944-7.24,0-14.48-.02-21.721.026-.667,0-1.949-.6-1.851.844.075,1.1.158,2.48,1.8,2.607.671.052,1.347.034,2.02.034Q5244.808,4109.957,5259.078,4109.955Z" transform="translate(-5222.419 -4008.511)" fill="#12263f"/>
        <path id="Trazado_197108" data-name="Trazado 197108" d="M5386.208,4140.566c-.633,4.86-3.868,7.966-8.676,8.1-4.121.111-8.249-.035-12.371.06-1.441.033-1.646-.57-1.62-1.785.024-1.132.045-1.886,1.561-1.846,3.786.1,7.574.038,11.361.031,4.6-.01,6.348-1.755,6.365-6.423.018-5.806,0-11.614.006-17.421,0-2.8.5-3.075,3.374-1.917-.588.529-.431,1.238-.432,1.893q-.013,8.708,0,17.418C5385.777,4139.33,5385.625,4140.036,5386.208,4140.566Z" transform="translate(-5292.107 -4062.934)" fill="#12263f"/>
        <path id="Trazado_197109" data-name="Trazado 197109" d="M5407.885,4141.192c-.584-.531-.432-1.237-.432-1.894q-.012-8.708,0-17.418c0-.656-.156-1.363.432-1.893Z" transform="translate(-5313.784 -4063.56)" fill="#12263f"/>
        <path id="Trazado_197110" data-name="Trazado 197110" d="M5279.8,4160.463c-1.174.154-1.968-.021-1.931-1.517.032-1.256.128-2.059,1.743-2,1.31.046,1.792.423,1.738,1.745C5281.308,4159.8,5281.337,4160.779,5279.8,4160.463Z" transform="translate(-5249.803 -4081.808)" fill="#12263f"/>
        <path id="Trazado_197111" data-name="Trazado 197111" d="M5293.412,4157c1.538-.316,1.754.524,1.789,1.848.037,1.362-.45,1.67-1.729,1.69-1.443.021-1.881-.466-1.857-1.883C5291.638,4157.331,5292.076,4156.777,5293.412,4157Z" transform="translate(-5256.589 -4081.806)" fill="#12263f"/>
        <path id="Trazado_197112" data-name="Trazado 197112" d="M5305.668,4159.053c-.375-1.916.526-2.106,1.815-2.094,1.11.01,1.613.234,1.667,1.507.1,2.256-1.817,1.621-2.8,1.887C5305.2,4160.665,5305.82,4159.312,5305.668,4159.053Z" transform="translate(-5263.487 -4081.818)" fill="#12263f"/>
        <path id="Trazado_197113" data-name="Trazado 197113" d="M5350.536,4122.683a6.7,6.7,0,0,1-7.01-6.7c0-3.644,2.007-6.964,7.77-7.03,3.212-.038,6.031,3.239,6.034,6.853A6.6,6.6,0,0,1,5350.536,4122.683Zm-3.529-6.93a3.6,3.6,0,0,0,3.373,3.673,3.877,3.877,0,0,0,3.656-3.5,3.658,3.658,0,0,0-3.486-3.583A3.384,3.384,0,0,0,5347.007,4115.753Z" transform="translate(-5282.225 -4058.112)" fill="#12263f"/>
      </g>
    </g>
  </g>
</svg>
