<svg xmlns="http://www.w3.org/2000/svg" xmlns:xlink="http://www.w3.org/1999/xlink" width="179" height="165" viewBox="0 0 179 165">
  <defs>
    <filter id="Rect치ngulo_37253" x="0" y="0" width="179" height="165" filterUnits="userSpaceOnUse">
      <feOffset dy="3" input="SourceAlpha"/>
      <feGaussianBlur stdDeviation="3" result="blur"/>
      <feFlood flood-opacity="0.161"/>
      <feComposite operator="in" in2="blur"/>
      <feComposite in="SourceGraphic"/>
    </filter>
  </defs>
  <g id="Grupo_173796" data-name="Grupo 173796" transform="translate(-349 -565)">
    <g transform="matrix(1, 0, 0, 1, 349, 565)" filter="url(#Rect치ngulo_37253)">
      <rect id="Rect치ngulo_37253-2" data-name="Rect치ngulo 37253" width="161" height="147" rx="10" transform="translate(9 6)" fill="#fff"/>
    </g>
    <path id="Trazado_214841" data-name="Trazado 214841" d="M27.9,10.992V15H25.555V3.625h4.438a5.134,5.134,0,0,1,2.254.469,3.454,3.454,0,0,1,1.5,1.332,3.714,3.714,0,0,1,.523,1.965,3.266,3.266,0,0,1-1.145,2.637,4.767,4.767,0,0,1-3.168.965Zm0-1.9h2.094a2.059,2.059,0,0,0,1.418-.437,1.591,1.591,0,0,0,.488-1.25,1.876,1.876,0,0,0-.492-1.352,1.839,1.839,0,0,0-1.359-.531H27.9ZM38.109,15H35.844V3h2.266Zm6.758,0a2.507,2.507,0,0,1-.227-.758,2.732,2.732,0,0,1-2.133.914,3,3,0,0,1-2.059-.719,2.312,2.312,0,0,1-.816-1.812,2.389,2.389,0,0,1,1-2.062,4.915,4.915,0,0,1,2.879-.727h1.039V9.352a1.393,1.393,0,0,0-.3-.937,1.183,1.183,0,0,0-.949-.352,1.345,1.345,0,0,0-.895.273.929.929,0,0,0-.324.75H39.82a2.268,2.268,0,0,1,.453-1.359,3,3,0,0,1,1.281-.98,4.669,4.669,0,0,1,1.859-.355,3.689,3.689,0,0,1,2.48.785,2.747,2.747,0,0,1,.918,2.207v3.664a4.041,4.041,0,0,0,.336,1.82V15ZM43,13.43a1.945,1.945,0,0,0,.922-.223,1.462,1.462,0,0,0,.625-.6V11.156H43.7q-1.7,0-1.8,1.172l-.008.133a.9.9,0,0,0,.3.7A1.153,1.153,0,0,0,43,13.43Zm7.625-6.883.07.977a2.951,2.951,0,0,1,2.43-1.133,2.453,2.453,0,0,1,2,.789A3.682,3.682,0,0,1,55.8,9.539V15H53.539V9.581a1.47,1.47,0,0,0-.312-1.045,1.4,1.4,0,0,0-1.039-.325,1.553,1.553,0,0,0-1.43.814V15H48.5V6.547ZM61.4,15.156a4.15,4.15,0,0,1-3.027-1.141A4.054,4.054,0,0,1,57.2,10.977v-.219A5.106,5.106,0,0,1,57.7,8.48,3.612,3.612,0,0,1,59.09,6.934a3.914,3.914,0,0,1,2.059-.543,3.508,3.508,0,0,1,2.73,1.094,4.444,4.444,0,0,1,1,3.1v.922H59.492a2.1,2.1,0,0,0,.66,1.328,2,2,0,0,0,1.395.5,2.437,2.437,0,0,0,2.039-.945L64.7,13.633a3.389,3.389,0,0,1-1.375,1.121A4.511,4.511,0,0,1,61.4,15.156Zm-.258-6.945a1.411,1.411,0,0,0-1.09.455,2.357,2.357,0,0,0-.535,1.3h3.141V9.788a1.681,1.681,0,0,0-.406-1.165A1.456,1.456,0,0,0,61.141,8.211ZM71.055,15a2.507,2.507,0,0,1-.227-.758,2.732,2.732,0,0,1-2.133.914,3,3,0,0,1-2.059-.719,2.312,2.312,0,0,1-.816-1.812,2.389,2.389,0,0,1,1-2.062A4.915,4.915,0,0,1,69.7,9.836h1.039V9.352a1.393,1.393,0,0,0-.3-.937,1.183,1.183,0,0,0-.949-.352,1.345,1.345,0,0,0-.895.273.929.929,0,0,0-.324.75H66.008a2.268,2.268,0,0,1,.453-1.359,3,3,0,0,1,1.281-.98A4.669,4.669,0,0,1,69.6,6.391a3.689,3.689,0,0,1,2.48.785A2.747,2.747,0,0,1,73,9.383v3.664a4.041,4.041,0,0,0,.336,1.82V15Zm-1.867-1.57a1.945,1.945,0,0,0,.922-.223,1.462,1.462,0,0,0,.625-.6V11.156h-.844q-1.7,0-1.8,1.172l-.008.133a.9.9,0,0,0,.3.7A1.153,1.153,0,0,0,69.188,13.43Zm9.063-.094a1.481,1.481,0,0,0,1.016-.344,1.2,1.2,0,0,0,.406-.914h2.117a2.9,2.9,0,0,1-.469,1.574,3.093,3.093,0,0,1-1.262,1.109,3.949,3.949,0,0,1-1.77.395A3.67,3.67,0,0,1,75.43,14a4.56,4.56,0,0,1-1.047-3.184v-.148a4.508,4.508,0,0,1,1.039-3.117,3.627,3.627,0,0,1,2.852-1.164,3.555,3.555,0,0,1,2.543.9,3.2,3.2,0,0,1,.973,2.4H79.672a1.551,1.551,0,0,0-.406-1.072,1.51,1.51,0,0,0-2.223.163,3.333,3.333,0,0,0-.4,1.866v.235a3.375,3.375,0,0,0,.4,1.878A1.377,1.377,0,0,0,78.25,13.336ZM85.461,15H83.2V6.547h2.266Zm-2.4-10.641a1.112,1.112,0,0,1,.34-.836,1.465,1.465,0,0,1,1.848,0,1.105,1.105,0,0,1,.344.836,1.108,1.108,0,0,1-.348.844,1.448,1.448,0,0,1-1.836,0A1.108,1.108,0,0,1,83.063,4.359ZM86.969,10.7a5.013,5.013,0,0,1,.484-2.242A3.546,3.546,0,0,1,88.848,6.93a4.069,4.069,0,0,1,2.113-.539,3.849,3.849,0,0,1,2.793,1.047,4.2,4.2,0,0,1,1.207,2.844l.016.578a4.418,4.418,0,0,1-1.086,3.121,4.209,4.209,0,0,1-5.832,0,4.5,4.5,0,0,1-1.09-3.187Zm2.258.16A3.16,3.16,0,0,0,89.68,12.7a1.628,1.628,0,0,0,2.578.008,3.457,3.457,0,0,0,.461-2.015,3.128,3.128,0,0,0-.461-1.831,1.5,1.5,0,0,0-1.3-.649,1.474,1.474,0,0,0-1.281.646A3.516,3.516,0,0,0,89.227,10.856ZM91.406,3h2.461L91.7,5.422H89.867Zm7.039,3.547.07.977a2.951,2.951,0,0,1,2.43-1.133,2.453,2.453,0,0,1,2,.789,3.682,3.682,0,0,1,.672,2.359V15h-2.258V9.581a1.47,1.47,0,0,0-.312-1.045,1.4,1.4,0,0,0-1.039-.325,1.553,1.553,0,0,0-1.43.814V15H96.32V6.547Z" transform="translate(371 664)" fill="#12263f"/>
    <g id="Grupo_142439" data-name="Grupo 142439" transform="translate(404.734 594.499)">
      <circle id="Elipse_4868" data-name="Elipse 4868" cx="30.5" cy="30.5" r="30.5" transform="translate(0.266 -0.499)" fill="#2194e5"/>
      <g id="ykLqxA.tif" transform="translate(2579.851 -445.383)">
        <g id="Grupo_154942" data-name="Grupo 154942" transform="translate(-2567.959 453.509)">
          <path id="Trazado_195335" data-name="Trazado 195335" d="M-2536.787,494.532h-30.29a1.7,1.7,0,0,1-.882-.881V461.6a4.351,4.351,0,0,1,.431-.611q3.516-3.534,7.047-7.054a1.39,1.39,0,0,1,1.037-.429q10.733.008,21.466,0a1.184,1.184,0,0,1,1.275,1.271c.005.4,0,.792,0,1.222h3.287c1.1,0,1.521.42,1.521,1.52q0,8.349,0,16.7a.642.642,0,0,0,.283.6c3.635,2.68,5.264,6.278,4.494,10.733a10.386,10.386,0,0,1-7.72,8.567C-2535.471,494.317-2536.137,494.4-2536.787,494.532Zm-7.906-2.416c-.6-.672-1.212-1.3-1.75-1.994a1.084,1.084,0,0,0-.979-.491c-4.794.019-9.588.009-14.382.016a1.226,1.226,0,0,1-1.215-.677,1.2,1.2,0,0,1,1.157-1.726q6.69,0,13.38,0h.451l-.533-2.406h-.46q-6.409,0-12.819,0a1.2,1.2,0,0,1-1.176-.676,1.2,1.2,0,0,1,1.157-1.727q6.45,0,12.9,0h.416c.2-.835.383-1.609.573-2.406h-.48q-6.65,0-13.3-.007a1.847,1.847,0,0,1-.768-.156,1.153,1.153,0,0,1-.593-1.317,1.2,1.2,0,0,1,1.244-.92q7.392,0,14.783.005a.676.676,0,0,0,.624-.309,10.505,10.505,0,0,1,5.35-3.88c.652-.209,1.326-.35,1.988-.522V455.941h-19.21v.46c0,1.8,0,3.6,0,5.407a1.193,1.193,0,0,1-1.312,1.315q-2.725,0-5.448,0h-.431v28.991Zm6.933-16.813a8.451,8.451,0,0,0-8.4,8.414,8.453,8.453,0,0,0,8.405,8.412,8.455,8.455,0,0,0,8.424-8.435A8.452,8.452,0,0,0-2537.76,475.3Zm3.43-1.919V458.459h-2.351c-.008.13-.02.234-.02.338q0,6.883,0,13.767c0,.067-.021.145.007.2.042.08.109.189.183.2C-2535.784,473.115-2535.054,473.248-2534.33,473.384Zm-26.43-15.6-2.917,2.914h2.917Z" transform="translate(2567.959 -453.509)" fill="#fff"/>
          <path id="Trazado_195336" data-name="Trazado 195336" d="M-2472.291,562.954c0-.783,0-1.527,0-2.271a1.207,1.207,0,0,1,1.336-1.334q2.264,0,4.527,0a1.207,1.207,0,0,1,1.344,1.327c0,1.015,0,2.029,0,3.044v.431c1.038,0,2.037.042,3.032-.01,1.345-.07,1.842.446,1.788,1.79-.055,1.359-.011,2.723-.012,4.085a1.206,1.206,0,0,1-1.321,1.351q-7.091,0-14.181,0a1.2,1.2,0,0,1-1.321-1.31q0-2.9,0-5.807a1.2,1.2,0,0,1,1.295-1.3c1.029,0,2.057,0,3.084,0Zm4.777,5.989v-7.16h-2.354v7.16Zm-7.156-3.577v3.57h2.347v-3.57Zm9.6,3.568h2.354v-2.356h-2.354Z" transform="translate(2484.393 -550.852)" fill="#fff"/>
          <path id="Trazado_195337" data-name="Trazado 195337" d="M-2225.413,761.738a3.146,3.146,0,0,1-1.724,2.836.62.62,0,0,0-.387.489,1.145,1.145,0,0,1-1.1.984,1.145,1.145,0,0,1-1.223-.876.571.571,0,0,0-.459-.457,4.809,4.809,0,0,1-.976-.45,1.192,1.192,0,0,1-.443-1.634,1.2,1.2,0,0,1,1.631-.451,2.515,2.515,0,0,0,1.449.359.834.834,0,0,0,.789-.623c.068-.374-.177-.577-.456-.719-.39-.2-.816-.331-1.2-.543a6.436,6.436,0,0,1-1.366-.879,2.721,2.721,0,0,1,.552-4.26.893.893,0,0,0,.48-.613,1.154,1.154,0,0,1,1.148-.875,1.174,1.174,0,0,1,1.146.884.54.54,0,0,0,.356.418,3.534,3.534,0,0,1,.778.479,1.179,1.179,0,0,1,.225,1.645,1.247,1.247,0,0,1-1.679.283,2,2,0,0,0-.888-.249c-.151-.006-.364.195-.445.355-.038.077.135.34.269.408.485.248,1,.434,1.492.67a3.257,3.257,0,0,1,1.932,2.2C-2225.452,761.341-2225.437,761.568-2225.413,761.738Z" transform="translate(2258.859 -729.903)" fill="#fff"/>
        </g>
      </g>
    </g>
  </g>
</svg>
