<svg xmlns="http://www.w3.org/2000/svg" xmlns:xlink="http://www.w3.org/1999/xlink" width="179" height="165" viewBox="0 0 179 165">
  <defs>
    <filter id="Rectángulo_37254" x="0" y="0" width="179" height="165" filterUnits="userSpaceOnUse">
      <feOffset dy="3" input="SourceAlpha"/>
      <feGaussianBlur stdDeviation="3" result="blur"/>
      <feFlood flood-opacity="0.161"/>
      <feComposite operator="in" in2="blur"/>
      <feComposite in="SourceGraphic"/>
    </filter>
    <clipPath id="clip-path">
      <rect id="Rectángulo_37093" data-name="Rectángulo 37093" width="50.024" height="50.024" fill="#fff"/>
    </clipPath>
  </defs>
  <g id="Grupo_173797" data-name="Grupo 173797" transform="translate(-522 -565)">
    <g transform="matrix(1, 0, 0, 1, 522, 565)" filter="url(#Rectángulo_37254)">
      <rect id="Rectángulo_37254-2" data-name="Rectángulo 37254" width="161" height="147" rx="10" transform="translate(9 6)" fill="#fff"/>
    </g>
    <path id="Trazado_214842" data-name="Trazado 214842" d="M37.512,10.055h-4.5v3.063h5.281V15H30.668V3.625h7.609v1.9H33.012V8.234h4.5Zm4.4-3.508v8.914a3.024,3.024,0,0,1-.742,2.176,2.821,2.821,0,0,1-2.141.777,4.591,4.591,0,0,1-1.117-.133V16.492a4.238,4.238,0,0,0,.711.07q1.023,0,1.023-1.086V6.547ZM39.465,4.359a1.112,1.112,0,0,1,.34-.836,1.47,1.47,0,0,1,1.852,0,1.112,1.112,0,0,1,.34.836,1.108,1.108,0,0,1-.348.844,1.448,1.448,0,0,1-1.836,0A1.108,1.108,0,0,1,39.465,4.359Zm8.1,10.8a4.15,4.15,0,0,1-3.027-1.141,4.054,4.054,0,0,1-1.168-3.039v-.219a5.106,5.106,0,0,1,.492-2.277,3.612,3.612,0,0,1,1.395-1.547,3.914,3.914,0,0,1,2.059-.543,3.508,3.508,0,0,1,2.73,1.094,4.444,4.444,0,0,1,1,3.1v.922H45.66a2.1,2.1,0,0,0,.66,1.328,2,2,0,0,0,1.395.5,2.437,2.437,0,0,0,2.039-.945l1.109,1.242a3.389,3.389,0,0,1-1.375,1.121A4.511,4.511,0,0,1,47.566,15.156Zm-.258-6.945a1.411,1.411,0,0,0-1.09.455,2.357,2.357,0,0,0-.535,1.3h3.141V9.788a1.681,1.681,0,0,0-.406-1.165A1.456,1.456,0,0,0,47.309,8.211Zm8.531,5.125a1.481,1.481,0,0,0,1.016-.344,1.2,1.2,0,0,0,.406-.914h2.117a2.9,2.9,0,0,1-.469,1.574,3.093,3.093,0,0,1-1.262,1.109,3.949,3.949,0,0,1-1.77.395A3.67,3.67,0,0,1,53.02,14a4.56,4.56,0,0,1-1.047-3.184v-.148a4.508,4.508,0,0,1,1.039-3.117,3.627,3.627,0,0,1,2.852-1.164,3.555,3.555,0,0,1,2.543.9,3.2,3.2,0,0,1,.973,2.4H57.262a1.551,1.551,0,0,0-.406-1.072,1.51,1.51,0,0,0-2.223.163,3.333,3.333,0,0,0-.4,1.866v.235a3.375,3.375,0,0,0,.4,1.878A1.377,1.377,0,0,0,55.84,13.336Zm9.891.8a2.831,2.831,0,0,1-2.312,1.016,2.67,2.67,0,0,1-2.074-.781,3.335,3.335,0,0,1-.73-2.289V6.547h2.258v5.467q0,1.322,1.2,1.322a1.63,1.63,0,0,0,1.578-.8V6.547h2.266V15H65.793Zm7.406-.8a1.481,1.481,0,0,0,1.016-.344,1.2,1.2,0,0,0,.406-.914h2.117a2.9,2.9,0,0,1-.469,1.574,3.093,3.093,0,0,1-1.262,1.109,3.949,3.949,0,0,1-1.77.395A3.67,3.67,0,0,1,70.316,14,4.56,4.56,0,0,1,69.27,10.82v-.148a4.508,4.508,0,0,1,1.039-3.117A3.627,3.627,0,0,1,73.16,6.391a3.555,3.555,0,0,1,2.543.9,3.2,3.2,0,0,1,.973,2.4H74.559a1.551,1.551,0,0,0-.406-1.072,1.51,1.51,0,0,0-2.223.163,3.333,3.333,0,0,0-.4,1.866v.235a3.375,3.375,0,0,0,.4,1.878A1.377,1.377,0,0,0,73.137,13.336ZM80.348,15H78.082V6.547h2.266Zm-2.4-10.641a1.112,1.112,0,0,1,.34-.836,1.465,1.465,0,0,1,1.848,0,1.105,1.105,0,0,1,.344.836,1.108,1.108,0,0,1-.348.844,1.448,1.448,0,0,1-1.836,0A1.108,1.108,0,0,1,77.949,4.359ZM81.855,10.7a5.013,5.013,0,0,1,.484-2.242A3.546,3.546,0,0,1,83.734,6.93a4.069,4.069,0,0,1,2.113-.539,3.849,3.849,0,0,1,2.793,1.047,4.2,4.2,0,0,1,1.207,2.844l.016.578a4.418,4.418,0,0,1-1.086,3.121,4.209,4.209,0,0,1-5.832,0,4.5,4.5,0,0,1-1.09-3.187Zm2.258.16a3.16,3.16,0,0,0,.453,1.843,1.628,1.628,0,0,0,2.578.008,3.457,3.457,0,0,0,.461-2.015,3.128,3.128,0,0,0-.461-1.831,1.5,1.5,0,0,0-1.3-.649,1.474,1.474,0,0,0-1.281.646A3.516,3.516,0,0,0,84.113,10.856ZM86.293,3h2.461L86.59,5.422H84.754Zm7.039,3.547.07.977a2.951,2.951,0,0,1,2.43-1.133,2.453,2.453,0,0,1,2,.789A3.682,3.682,0,0,1,98.5,9.539V15H96.246V9.581a1.47,1.47,0,0,0-.312-1.045,1.4,1.4,0,0,0-1.039-.325,1.553,1.553,0,0,0-1.43.814V15H91.207V6.547Z" transform="translate(543 664)" fill="#12263f"/>
    <g id="Grupo_142440" data-name="Grupo 142440" transform="translate(577.616 594.499)">
      <ellipse id="Elipse_4869" data-name="Elipse 4869" cx="30" cy="30.5" rx="30" ry="30.5" transform="translate(0.384 -0.499)" fill="#ee296d"/>
      <g id="Grupo_142369" data-name="Grupo 142369" transform="translate(5.29 5.152)">
        <g id="Grupo_141632" data-name="Grupo 141632" clip-path="url(#clip-path)">
          <path id="Trazado_183474" data-name="Trazado 183474" d="M40.661,62.927A22.267,22.267,0,1,1,62.928,40.66,22.292,22.292,0,0,1,40.661,62.927m0-42.967a20.7,20.7,0,1,0,20.7,20.7,20.723,20.723,0,0,0-20.7-20.7" transform="translate(-15.649 -15.648)" fill="#fff"/>
          <path id="Trazado_183475" data-name="Trazado 183475" d="M163.119,194.359a.784.784,0,0,1,0-1.567,14.6,14.6,0,0,0,14.429-12.138.784.784,0,0,1,1.544.266,16.213,16.213,0,0,1-15.973,13.439" transform="translate(-138.106 -153.138)" fill="#fff"/>
          <path id="Trazado_183476" data-name="Trazado 183476" d="M193,77.156a.784.784,0,0,1-.784-.784,14.646,14.646,0,0,0-12.234-14.445.784.784,0,1,1,.256-1.546,16.214,16.214,0,0,1,13.546,15.991.784.784,0,0,1-.784.784" transform="translate(-152.558 -51.36)" fill="#fff"/>
          <path id="Trazado_183477" data-name="Trazado 183477" d="M60.954,73.626a.791.791,0,0,1-.119-.009.783.783,0,0,1-.656-.893A16.213,16.213,0,0,1,76.2,58.981a.784.784,0,0,1,0,1.567A14.646,14.646,0,0,0,61.727,72.961a.784.784,0,0,1-.774.665" transform="translate(-51.189 -50.178)" fill="#fff"/>
          <path id="Trazado_183478" data-name="Trazado 183478" d="M72.837,179.149a.773.773,0,0,1-.12-.009,16.213,16.213,0,0,1-13.737-16.022.784.784,0,0,1,1.567,0A14.646,14.646,0,0,0,72.955,177.59a.784.784,0,0,1-.118,1.558" transform="translate(-50.178 -138.105)" fill="#fff"/>
          <path id="Trazado_183479" data-name="Trazado 183479" d="M163.119,12.475a.784.784,0,0,1-.784-.784V.784a.784.784,0,1,1,1.567,0V11.691a.784.784,0,0,1-.784.784" transform="translate(-138.106)" fill="#fff"/>
          <path id="Trazado_183480" data-name="Trazado 183480" d="M11.69,163.9H.783a.784.784,0,1,1,0-1.567H11.69a.784.784,0,0,1,0,1.567" transform="translate(0.001 -138.105)" fill="#fff"/>
          <path id="Trazado_183481" data-name="Trazado 183481" d="M163.119,264.061a.784.784,0,0,1-.784-.784V252.37a.784.784,0,0,1,1.567,0v10.908a.784.784,0,0,1-.784.784" transform="translate(-138.106 -214.036)" fill="#fff"/>
          <path id="Trazado_183482" data-name="Trazado 183482" d="M254.474,163.9h-2.1a.784.784,0,1,1,0-1.567h2.1a.784.784,0,1,1,0,1.567" transform="translate(-214.036 -138.105)" fill="#fff"/>
          <path id="Trazado_183483" data-name="Trazado 183483" d="M275.274,163.9h-8.8a.784.784,0,0,1,0-1.567h8.8a.784.784,0,0,1,0,1.567" transform="translate(-226.033 -138.105)" fill="#fff"/>
          <path id="Trazado_183484" data-name="Trazado 183484" d="M129.823,188.639a.784.784,0,0,1-.74-.526,6.72,6.72,0,0,0-12.688,0,.784.784,0,0,1-1.48-.516,8.287,8.287,0,0,1,15.647,0,.784.784,0,0,1-.74,1.042" transform="translate(-97.727 -154.873)" fill="#fff"/>
          <path id="Trazado_183485" data-name="Trazado 183485" d="M134.076,108.893a5.878,5.878,0,1,1,5.878-5.878,5.885,5.885,0,0,1-5.878,5.878m0-10.19a4.311,4.311,0,1,0,4.311,4.311,4.316,4.316,0,0,0-4.311-4.311" transform="translate(-109.064 -82.638)" fill="#fff"/>
        </g>
      </g>
    </g>
  </g>
</svg>
