<svg xmlns="http://www.w3.org/2000/svg" xmlns:xlink="http://www.w3.org/1999/xlink" width="222.28" height="85.705" viewBox="0 0 222.28 85.705">
  <defs>
    <linearGradient id="linear-gradient" x1="0.5" x2="0.5" y2="1" gradientUnits="objectBoundingBox">
      <stop offset="0" stop-color="#067eff"/>
      <stop offset="1" stop-color="#276499"/>
    </linearGradient>
  </defs>
  <g id="Grupo_173781" data-name="Grupo 173781" transform="translate(-312.751 -6225.929)">
    <rect id="Rectángulo_52848" data-name="Rectángulo 52848" width="222.28" height="85.705" rx="10" transform="translate(312.751 6225.929)" fill="url(#linear-gradient)"/>
    <g id="Grupo_173779" data-name="Grupo 173779" transform="translate(312.714 6241.384)">
      <path id="Trazado_214831" data-name="Trazado 214831" d="M6.576,0H.075L.267-1.21,4.4-5.182A3.775,3.775,0,0,0,5.674-7.226a1.466,1.466,0,0,0-.219-1.083,1.122,1.122,0,0,0-.923-.461A1.676,1.676,0,0,0,3.254-8.3a2.224,2.224,0,0,0-.629,1.371l-1.613.007a3.363,3.363,0,0,1,.557-1.647A3.327,3.327,0,0,1,2.868-9.7a3.67,3.67,0,0,1,1.753-.386,2.938,2.938,0,0,1,2.054.752A2.314,2.314,0,0,1,7.342-7.4,4.957,4.957,0,0,1,5.667-4.45l-.424.417L2.365-1.326H6.788Z" transform="translate(33.826 30.283)" fill="#fff"/>
      <text id="_" data-name="=" transform="translate(48.754 41.827)" fill="#fff" font-size="25" font-family="Roboto-MediumItalic, Roboto" font-weight="500" font-style="italic"><tspan x="0" y="0">=</tspan></text>
      <path id="Trazado_214833" data-name="Trazado 214833" d="M11.21-7.376,3.339.939H13.521l-.432,2.476H-1.13l.355-2.057L8.074-7.681,2.349-16.694l.317-1.79H16.174l-.432,2.476h-9.7l5.192,8.265Z" transform="translate(90.118 25.382)" fill="#fff"/>
      <path id="Trazado_214836" data-name="Trazado 214836" d="M1.625-7.465a22.432,22.432,0,0,1,2.8-8.246A11.708,11.708,0,0,1,9.7-20.719l.457,1.828Q5.814-15.539,4.52-8.379a29.382,29.382,0,0,0-.482,5.04,13.941,13.941,0,0,0,.609,4.5A6.787,6.787,0,0,0,6.525,4.189L5.814,5.878A8.514,8.514,0,0,1,2.482,1.688a16.263,16.263,0,0,1-1.06-6.627A19.7,19.7,0,0,1,1.6-7.249Zm15.869-4.354,4.8-6.665h3.783l-6.97,9.306L23.144,0H19.665L16.872-6.767,11.946,0H8.15l7.122-9.458-3.948-9.026h3.453Z" transform="translate(121.741 25.382)" fill="#fff"/>
      <path id="Trazado_214839" data-name="Trazado 214839" d="M8.569-11.819l4.8-6.665h3.783l-6.97,9.306L14.219,0H10.74L7.947-6.767,3.021,0h-3.8L6.348-9.458,2.4-18.484H5.853ZM15.184,5.9l-.47-1.752a13.949,13.949,0,0,0,4.215-5.643A25.7,25.7,0,0,0,20.782-9.9l.051-1.574q0-5.345-2.488-7.528l.724-1.7a7.8,7.8,0,0,1,2.495,2.495A11.816,11.816,0,0,1,23.1-14.4,18.44,18.44,0,0,1,23.55-9.89,23.4,23.4,0,0,1,22.3-3.028a18.369,18.369,0,0,1-2.977,5.611A11.212,11.212,0,0,1,15.184,5.9Z" transform="translate(164.87 25.382)" fill="#fff"/>
      <path id="Trazado_214838" data-name="Trazado 214838" d="M6.9-6.36H.659l.427-2.393H7.324Z" transform="translate(154.365 24.382)" fill="#fff"/>
      <path id="Trazado_214841" data-name="Trazado 214841" d="M14.739,0H11.705L5.929-13.241,3.631,0H.5L3.707-18.484H6.741L12.518-5.192l2.311-13.292h3.123Z" transform="translate(126.165 62.732)" fill="#fff"/>
      <path id="Trazado_214832" data-name="Trazado 214832" d="M1.428-10.993a9.52,9.52,0,0,0,.751,2.582A7.227,7.227,0,0,0,3.613-6.293a5.566,5.566,0,0,0,4.3,1.746,4.344,4.344,0,0,0,3.369-1.471A6.163,6.163,0,0,0,12.61-9.87a11.653,11.653,0,0,0-.049-1.685L12.4-12.568A8.042,8.042,0,0,0,10.358-16.8a4.779,4.779,0,0,0-3.668-1.453,4.112,4.112,0,0,0-3.247,1.489L2.258-23.078H-.647Zm2.356-3.5a2.351,2.351,0,0,1,2.234-1.4,2.955,2.955,0,0,1,2.393,1.056,5.579,5.579,0,0,1,1.221,3.033,16.484,16.484,0,0,1,.1,2.173A3.722,3.722,0,0,1,9.113-7.6a1.861,1.861,0,0,1-1.471.7A2.549,2.549,0,0,1,5.469-8.045,7,7,0,0,1,4.3-11.188Z" transform="translate(9.176 27.775) rotate(97)" fill="#fff"/>
      <path id="Trazado_197258" data-name="Trazado 197258" d="M-9613.244-9288.434h125.295" transform="translate(9689.688 9324.388)" fill="#fff" stroke="#fff" stroke-width="3"/>
      <path id="Trazado_214834" data-name="Trazado 214834" d="M7.37,0H5.853L2.964-6.621,1.815,0H.248L1.854-9.242H3.371L6.259-2.6,7.414-9.242H8.976Z" transform="translate(109.577 12)" fill="#fff"/>
      <path id="Trazado_214840" data-name="Trazado 214840" d="M6.576,0H.075L.267-1.21,4.4-5.182A3.775,3.775,0,0,0,5.674-7.226a1.466,1.466,0,0,0-.219-1.083,1.122,1.122,0,0,0-.923-.461A1.676,1.676,0,0,0,3.254-8.3a2.224,2.224,0,0,0-.629,1.371l-1.613.007a3.363,3.363,0,0,1,.557-1.647A3.327,3.327,0,0,1,2.868-9.7a3.67,3.67,0,0,1,1.753-.386,2.938,2.938,0,0,1,2.054.752A2.314,2.314,0,0,1,7.342-7.4,4.957,4.957,0,0,1,5.667-4.45l-.424.417L2.365-1.326H6.788Z" transform="translate(192.338 13)" fill="#fff"/>
      <path id="Trazado_214835" data-name="Trazado 214835" d="M4.382,0H2.769L4.149-7.957l-2.516.834.253-1.47L5.824-9.987H6.07Z" transform="translate(109.577 29.588)" fill="#fff"/>
      <path id="Trazado_214837" data-name="Trazado 214837" d="M1.7,0H.2L1.39-6.868h1.5Zm-.1-8.626a.849.849,0,0,1,.229-.6.837.837,0,0,1,.616-.26.8.8,0,0,1,.613.225.78.78,0,0,1,.244.581.8.8,0,0,1-.238.6.872.872,0,0,1-.606.248.814.814,0,0,1-.609-.219A.755.755,0,0,1,1.606-8.626Z" transform="translate(146.624 28.588)" fill="#fff"/>
      <path id="Trazado_214719" data-name="Trazado 214719" d="M-8958.062-6708h16.6" transform="translate(9125.11 6709.382)" fill="none" stroke="#fff" stroke-width="2"/>
    </g>
  </g>
</svg>
