<svg id="Icon" xmlns="http://www.w3.org/2000/svg" xmlns:xlink="http://www.w3.org/1999/xlink" width="76.1" height="76.1" viewBox="0 0 76.1 76.1">
  <defs>
    <clipPath id="clip-path">
      <rect id="Rectángulo_52831" data-name="Rectángulo 52831" width="38.058" height="38.069" fill="#12263f"/>
    </clipPath>
  </defs>
  <ellipse id="Base" cx="38.05" cy="38.05" rx="38.05" ry="38.05" transform="translate(0 0)" fill="#fff"/>
  <g id="Grupo_173679" data-name="Grupo 173679" transform="translate(19.049 45.434)">
    <g id="Grupo_173678" data-name="Grupo 173678" transform="translate(0 -28)" clip-path="url(#clip-path)">
      <path id="Trazado_214819" data-name="Trazado 214819" d="M38.058,38.069H0V19.652H1.229c0-1.063,0-2.072,0-3.081A7.962,7.962,0,0,1,6.15,9.215c.115-.048.228-.1.354-.158A4.954,4.954,0,0,1,5.585,1.6a4.893,4.893,0,0,1,7.006-.24A4.72,4.72,0,0,1,14.112,4.69a4.944,4.944,0,0,1-2.218,4.365,8.041,8.041,0,0,1,3.278,2.236,10.044,10.044,0,0,1,1.453-.221q7.94-.022,15.881-.008A3.044,3.044,0,0,1,35.6,14.14c.005,1.688,0,3.376,0,5.064v.454h2.457ZM32.517,30.68H16.6V29.456h2.407V27.017c-.837,0-1.653,0-2.468,0a3.073,3.073,0,0,1-2.868-2.048c-.044-.124-.081-.25-.121-.375-.047,1.533-.077,3.055-.035,4.575a1.726,1.726,0,0,1-.92,1.637,5.043,5.043,0,0,1-.854.428,10.1,10.1,0,0,1-6.094.415A11.866,11.866,0,0,1,3.4,30.814a1.629,1.629,0,0,1-.957-1.646c.043-1.495.021-2.992.007-4.488a1.35,1.35,0,0,1,.489-1.115,3.769,3.769,0,0,1,.891-.586,10.261,10.261,0,0,1,8.223-.038,2.533,2.533,0,0,1,1.432,1.286V20.9H1.253V33.131h35.56V20.9H35.6c0,1.043,0,2.064,0,3.084a2.988,2.988,0,0,1-2.422,2.948,11.831,11.831,0,0,1-1.832.082c-.416.01-.833,0-1.238,0v2.475h2.409Zm1.859-8.588v-.407q0-3.664,0-7.327a1.882,1.882,0,0,0-2.065-2.073h-15.5a1.885,1.885,0,0,0-2.083,2.093q0,3.644,0,7.289v.426Zm-20.87-2.447v-.4c0-1.419.016-2.839-.005-4.257a3.77,3.77,0,0,1,.839-2.936c-.217-.163-.411-.289-.583-.44a6.652,6.652,0,0,0-5.331-1.72,6.607,6.607,0,0,0-5.8,5.359,34.655,34.655,0,0,0-.173,4.126,1.966,1.966,0,0,0,.022.251h1.83V14.154H5.54v5.492ZM1.244,36.815H36.8V34.4H1.244ZM34.411,23.361H14.731c0,.2,0,.382,0,.56a1.847,1.847,0,0,0,1.882,1.868q7.94.012,15.879,0a1.808,1.808,0,0,0,1.787-1.3,8.008,8.008,0,0,0,.13-1.123M9.222,1.236a3.715,3.715,0,0,0-3.7,3.678,3.682,3.682,0,0,0,7.364.029A3.715,3.715,0,0,0,9.222,1.236M20.28,29.448H28.82V27.025H20.28Zm-7.971-4.926A8.15,8.15,0,0,0,11.6,24.1a8.494,8.494,0,0,0-3.105-.737,8.707,8.707,0,0,0-4.238.793,4.692,4.692,0,0,0-.6.4c1.936,1.611,6.739,1.612,8.656-.028m-.066,1.6A10.629,10.629,0,0,1,3.7,26.121c-.086,1.01-.052,1.1.845,1.449a9.078,9.078,0,0,0,6.932-.028c.8-.323.88-.493.761-1.415M3.709,28.578c-.1.988-.056,1.092.836,1.446a8.687,8.687,0,0,0,5.213.476,15.065,15.065,0,0,0,2.124-.719.777.777,0,0,0,.38-.464,2.816,2.816,0,0,0,.016-.749,10.649,10.649,0,0,1-8.568.01" transform="translate(0 0)" fill="#12263f"/>
      <path id="Trazado_214820" data-name="Trazado 214820" d="M202.35,5.886a1.932,1.932,0,0,1-1.541.207,1.847,1.847,0,1,1,2.347-1.5.4.4,0,0,0,.191.468c.628.461,1.249.931,1.875,1.4a1.977,1.977,0,0,1,1.669-.189.389.389,0,0,0,.315-.106c.713-.7,1.42-1.4,2.113-2.118a.475.475,0,0,0,.079-.387,1.867,1.867,0,0,1,.7-2.072,1.846,1.846,0,0,1,2.12,0,1.872,1.872,0,0,1,.708,2.07.617.617,0,0,0,.1.418,2.484,2.484,0,0,0,.344.358c.36.384.681.829,1.329.523a.691.691,0,0,1,.524.031c.332.16.526.032.751-.2.628-.656,1.285-1.282,1.914-1.937a.512.512,0,0,0,.1-.415,1.848,1.848,0,1,1,3.561-.984,1.815,1.815,0,0,1-1.387,2.211,4.828,4.828,0,0,1-.98-.029.605.605,0,0,0-.387.092q-1.062,1.027-2.088,2.089a.511.511,0,0,0-.1.416,1.849,1.849,0,0,1-1.3,2.338A1.809,1.809,0,0,1,213.059,7.2a2.2,2.2,0,0,1,.036-.939.421.421,0,0,0-.139-.493,2.874,2.874,0,0,1-.3-.3c-.363-.4-.7-.843-1.358-.543a.625.625,0,0,1-.487-.023c-.387-.208-.6,0-.84.254-.593.618-1.2,1.221-1.816,1.818a.438.438,0,0,0-.148.524,1.78,1.78,0,0,1-.613,1.955,1.843,1.843,0,0,1-2.083.144,1.8,1.8,0,0,1-.877-1.857.4.4,0,0,0-.192-.468c-.608-.446-1.209-.9-1.813-1.352a.474.474,0,0,0-.079-.037m17.387-4.625a.64.64,0,0,0-.591.629.61.61,0,1,0,1.22-.037.641.641,0,0,0-.628-.592M211.16,2.488a.64.64,0,0,0-.609.612.61.61,0,1,0,1.22,0,.64.64,0,0,0-.611-.609m-9.21,1.826a.61.61,0,1,0-1.22.025.61.61,0,1,0,1.22-.025m12.907,3.079a.611.611,0,1,0-.623-.6.641.641,0,0,0,.623.6M206.249,8.62a.61.61,0,1,0-.609-.612.64.64,0,0,0,.609.612" transform="translate(-184.153 -0.022)" fill="#12263f"/>
      <path id="Trazado_214821" data-name="Trazado 214821" d="M230.553,182.178h1.223v1.19H215.859v-1.184h1.2v-4.907h3.674v4.87h1.221v-3.635h3.688v3.627h1.234v-6.089h3.674Zm-1.238-4.892h-1.183v4.866h1.183Zm-9.814,1.22h-1.185v3.647H219.5Zm3.713,3.632h1.2v-2.4h-1.2Z" transform="translate(-199.263 -162.516)" fill="#12263f"/>
    </g>
  </g>
</svg>
