<svg id="Icon" xmlns="http://www.w3.org/2000/svg" xmlns:xlink="http://www.w3.org/1999/xlink" width="76.1" height="76.1" viewBox="0 0 76.1 76.1">
  <defs>
    <clipPath id="clip-path">
      <rect id="Rectángulo_52830" data-name="Rectángulo 52830" width="48.913" height="48.921" fill="#12263f"/>
    </clipPath>
  </defs>
  <ellipse id="Base" cx="38.05" cy="38.05" rx="38.05" ry="38.05" transform="translate(0 0)" fill="#fff"/>
  <g id="Grupo_173677" data-name="Grupo 173677" transform="translate(15.339 9.098)">
    <g id="Grupo_173676" data-name="Grupo 173676" clip-path="url(#clip-path)">
      <path id="Trazado_214815" data-name="Trazado 214815" d="M22.113,0c.327.079.657.15.982.237A7.346,7.346,0,0,1,28.53,7.284c.005,2.259,0,4.517,0,6.776v.617c.316,0,.6,0,.88,0a2.4,2.4,0,0,1,2.374,2.368,13.56,13.56,0,0,1-.1,2.534,3.816,3.816,0,0,1-3,3.108.666.666,0,0,0-.554.536,10.493,10.493,0,0,1-6.485,7.086.834.834,0,0,0-.318,1.257c.606.642,1.239,1.258,1.875,1.87a1.2,1.2,0,0,0,.453.21c2.424.813,4.853,1.614,7.273,2.44.52.177,1.01.443,1.554.686l-.829,1.312-8.063-2.738-.7,11.931h3.169v1.636H25.53q-12.2,0-24.4.008A1.191,1.191,0,0,1,0,48.4V42.087a1.311,1.311,0,0,0,.091-.233A7.116,7.116,0,0,1,4.9,36.1c2.419-.877,4.878-1.643,7.317-2.464a1.315,1.315,0,0,0,.491-.243q.919-.881,1.8-1.8a.836.836,0,0,0-.244-1.276,10.5,10.5,0,0,1-6.544-7.152.588.588,0,0,0-.493-.472,3.833,3.833,0,0,1-3.046-3.122,13.505,13.505,0,0,1-.1-2.534,2.4,2.4,0,0,1,2.377-2.365c.282,0,.564,0,.878,0v-.619c0-2.259,0-4.517,0-6.775A7.347,7.347,0,0,1,12.824.222c.31-.079.622-.148.933-.222ZM8.979,14.7c0,2.089-.005,4.124.005,6.159a5.667,5.667,0,0,0,.114,1.01,8.952,8.952,0,0,0,10.678,7.283,8.822,8.822,0,0,0,7.016-7.686c.16-2.212.077-4.441.1-6.662,0-.028-.028-.057-.066-.128H26.3q-2.673,0-5.346,0a10.294,10.294,0,0,1-6.335-2.137c-.457-.344-.877-.736-1.34-1.129a4.258,4.258,0,0,1-4.3,3.29M26.9,13.127c0-.322,0-.49,0-.658-.006-1.817.065-3.638-.035-5.45a5.416,5.416,0,0,0-4.942-5.276,57.679,57.679,0,0,0-7.682-.059A5.394,5.394,0,0,0,9.068,6.613c-.184,1.731-.079,3.492-.1,5.239,0,.387,0,.773,0,1.155A2.372,2.372,0,0,0,11.4,11.629c.276-.6.5-1.223.747-1.835.416-1.028,1.063-1.126,1.753-.258a8.049,8.049,0,0,0,5.478,3.3c2.47.254,4.971.2,7.525.288M12.288,35.407a2.511,2.511,0,0,0-.272.05c-2.263.754-4.546,1.454-6.782,2.283a5.1,5.1,0,0,0-3.377,3.851,21.586,21.586,0,0,0-.225,3.539c-.028.706-.005,1.413-.005,2.126H12.98l-.692-11.85m1.863,1.52-.12.042.606,10.291c.142.012.226.012.308.027.51.094.727-.087.825-.63.37-2.048.807-4.085,1.2-6.128a.668.668,0,0,0-.113-.5c-.891-1.044-1.8-2.072-2.707-3.1m7.687.038-.114-.042c-.933,1.065-1.87,2.125-2.79,3.2a.586.586,0,0,0-.035.423c.389,1.993.788,3.984,1.183,5.976.163.822.162.822,1.013.754a.7.7,0,0,0,.141-.057l.6-10.255M7.327,16.3h-.49c-.849,0-1.128.276-1.131,1.124,0,.441-.011.883,0,1.324a2.277,2.277,0,0,0,1.618,2.205Zm21.216,4.716A2.164,2.164,0,0,0,30.035,19.4a12.634,12.634,0,0,0,.1-2.376.732.732,0,0,0-.695-.7,6.815,6.815,0,0,0-.9-.008ZM17.9,33.724c.517-.688.975-1.253,1.379-1.854a4.919,4.919,0,0,0,.382-.944H16.275c.062,1.191,1.145,1.76,1.626,2.8m-2.454-.611-1.269,1.224,1.962,2.454c.255-.509.493-.94.683-1.391a.6.6,0,0,0-.04-.493c-.427-.611-.887-1.2-1.337-1.795m6.224,1.257-1.239-1.262c-.458.609-.932,1.224-1.381,1.855a.486.486,0,0,0-.021.407c.206.461.445.908.7,1.418l1.94-2.418M17.313,47.263H18.56l-.571-2.79-.119.014-.557,2.775m.622-10.355-.586,1.169.541.668.659-.615-.614-1.222" fill="#12263f"/>
      <path id="Trazado_214816" data-name="Trazado 214816" d="M277.969,325.869c0-1.88,0-3.68,0-5.479,0-.782.256-1.042,1.028-1.042q3.057,0,6.114,0c.738,0,1,.27,1.006,1.015,0,.727,0,1.455,0,2.245h.576q2.471,0,4.942,0c.718,0,1,.271,1,.966q0,5.553,0,11.107c0,.677-.283.965-.953.965q-9.629,0-19.259,0c-.7,0-.978-.279-.979-.99q0-3.9,0-7.8c0-.714.272-.991.976-.992q2.471,0,4.942,0h.6m6.486-4.854h-4.832V334h4.832Zm1.7,12.965h4.832v-9.723h-4.832Zm-8.222-6.443H273.1V334h4.83Z" transform="translate(-243.727 -286.735)" fill="#12263f"/>
      <path id="Trazado_214817" data-name="Trazado 214817" d="M289.387,218.939a2.444,2.444,0,1,1,.955-4.774A.558.558,0,0,0,291,214q1.319-1.346,2.664-2.665a.548.548,0,0,0,.182-.652,2.385,2.385,0,0,1,.908-2.7,2.461,2.461,0,0,1,2.816-.02,2.4,2.4,0,0,1,.933,2.736.516.516,0,0,0,.162.611q1.362,1.338,2.7,2.7a.517.517,0,0,0,.611.164,2.413,2.413,0,0,1,2.82,1.062,2.452,2.452,0,0,1-3.326,3.387,2.491,2.491,0,0,1-1.12-2.856.681.681,0,0,0-.125-.553q-1.36-1.412-2.772-2.773a.83.83,0,0,0-.512-.128q-.749-.021-1.5.009a.921.921,0,0,0-.556.134c-.93.894-1.829,1.82-2.752,2.722a.521.521,0,0,0-.151.615,2.474,2.474,0,0,1-2.6,3.152m6.783-9.775a.811.811,0,1,0,.816.806.849.849,0,0,0-.816-.806m-5.706,7.327a.812.812,0,1,0-.806.817.852.852,0,0,0,.806-.817m13.044-.018a.811.811,0,1,0-.787.836.848.848,0,0,0,.787-.836" transform="translate(-257.858 -186.334)" fill="#12263f"/>
      <path id="Trazado_214818" data-name="Trazado 214818" d="M139.758,223.437c1.052,0,2.1,0,3.155,0,.633,0,.918.306.918.946a4.078,4.078,0,0,1-8.035.854,3.908,3.908,0,0,1-.084-.4c-.111-.86,0-1.472,1.2-1.413.948.046,1.9.009,2.849.009m-2.215,1.653a2.311,2.311,0,0,0,2.335,1.6,2.214,2.214,0,0,0,2.075-1.6Z" transform="translate(-121.823 -200.609)" fill="#12263f"/>
      <rect id="Rectángulo_52828" data-name="Rectángulo 52828" width="1.563" height="2.378" transform="translate(12.258 16.348)" fill="#12263f"/>
      <rect id="Rectángulo_52829" data-name="Rectángulo 52829" width="1.571" height="2.375" transform="translate(22.037 16.344)" fill="#12263f"/>
    </g>
  </g>
</svg>
