<svg xmlns="http://www.w3.org/2000/svg" xmlns:xlink="http://www.w3.org/1999/xlink" width="108.419" height="108.419" viewBox="0 0 108.419 108.419">
  <defs>
    <linearGradient id="linear-gradient" x1="0.5" x2="0.5" y2="1" gradientUnits="objectBoundingBox">
      <stop offset="0" stop-color="#fdbe41"/>
      <stop offset="1" stop-color="#d09f40"/>
    </linearGradient>
  </defs>
  <g id="Grupo_173790" data-name="Grupo 173790" transform="translate(5211.004 9278.891)">
    <circle id="Elipse_6135" data-name="Elipse 6135" cx="54.209" cy="54.209" r="54.209" transform="translate(-5211.004 -9278.891)" fill="url(#linear-gradient)"/>
    <g id="OeBlg6.tif" transform="translate(-3819.977 -9559.835)">
      <g id="Grupo_157254" data-name="Grupo 157254" transform="translate(-1366.863 301.342)">
        <path id="Trazado_197545" data-name="Trazado 197545" d="M-1366.863,368.987a3.5,3.5,0,0,1,2.494-2.513,4.184,4.184,0,0,1,.951-.1c1.764-.009,3.528,0,5.377,0v-.85q0-9.955-.01-19.91a1.451,1.451,0,0,1,.469-1.138c3.6-3.576,7.182-7.173,10.784-10.747a1.4,1.4,0,0,1,.865-.41q13.572-.032,27.143-.016c.112,0,.225.012.431.024v.81c0,5.672.006,11.344-.01,17.016,0,.512.078.866.606,1.068a9.5,9.5,0,0,1,1.078.605.776.776,0,0,0,1.212-.507c.2-.682.347-1.379.581-2.047a.745.745,0,0,1,.539-.415q2.617-.048,5.235,0a.748.748,0,0,1,.532.424c.229.646.378,1.319.566,1.98a.8.8,0,0,0,1.3.526c.6-.336,1.183-.708,1.8-1a.755.755,0,0,1,.682.083q1.885,1.816,3.7,3.7a.755.755,0,0,1,.072.684c-.308.639-.694,1.239-1.038,1.861a.788.788,0,0,0,.51,1.215c.682.195,1.378.346,2.046.58a.745.745,0,0,1,.416.539q.048,2.617,0,5.235a.748.748,0,0,1-.42.536c-.646.229-1.319.376-1.98.563a.8.8,0,0,0-.531,1.291c.325.58.643,1.165.994,1.729a.559.559,0,0,1-.1.827q-1.829,1.775-3.605,3.6a.56.56,0,0,1-.827.1c-.584-.362-1.186-.7-1.787-1.032a.789.789,0,0,0-1.219.5c-.2.681-.348,1.378-.581,2.047a.746.746,0,0,1-.534.421q-2.617.048-5.235,0a.746.746,0,0,1-.537-.417c-.23-.645-.379-1.319-.566-1.98-.193-.682-.643-.8-1.3-.555-1.323.5-1.667,1.351-1.644,2.762.1,6.015.041,12.032.041,18.049v.9h-.847q-10.334,0-20.668-.01a.973.973,0,0,0-1.013.568,3.072,3.072,0,0,1-2.827,1.645q-9.92.005-19.841,0a3.277,3.277,0,0,1-3.1-2.113c-.068-.168-.141-.334-.212-.5v-3.583a3.843,3.843,0,0,1,1.963-2.336c.377-.18.379-2.591,0-2.771a3.844,3.844,0,0,1-1.964-2.334v-3.583a3.843,3.843,0,0,1,1.963-2.336c.377-.18.379-2.591,0-2.771a3.845,3.845,0,0,1-1.964-2.334Zm22.02-33.457v11.011H-1355.8v19.83h.787q5.615,0,11.23,0a3.263,3.263,0,0,1,3.374,3.391q.005,1.068,0,2.136a2.773,2.773,0,0,1-1.332,2.569,1.589,1.589,0,0,0-.876,1.823,3.863,3.863,0,0,1,0,.757.667.667,0,0,0,.43.745,3.163,3.163,0,0,1,1.778,2.958c0,.712,0,1.424,0,2.136a2.72,2.72,0,0,1-1.249,2.54,1.84,1.84,0,0,0-.958,2.127,2.328,2.328,0,0,1,0,.482.711.711,0,0,0,.453.8,3.147,3.147,0,0,1,1.755,2.971c0,.333,0,.666,0,.986h19.849v-.777q0-7.992,0-15.984a8.227,8.227,0,0,0-.1-3c-.373-.885-1.361-1.511-2.08-2.251a1.12,1.12,0,0,0-.147-.145c-.365-.256-.324-.53-.1-.877.356-.56.674-1.146,1-1.727a.789.789,0,0,0-.53-1.25c-.66-.19-1.334-.339-1.98-.566a.752.752,0,0,1-.444-.515q-.05-2.651,0-5.3a.685.685,0,0,1,.392-.49c.694-.232,1.412-.388,2.114-.6a.778.778,0,0,0,.476-1.182c-.343-.622-.688-1.244-1.063-1.848a.519.519,0,0,1,.1-.769c.65-.615,1.254-1.28,1.912-1.887a1.4,1.4,0,0,0,.468-1.143q-.023-8.13-.01-16.259v-.7Zm31.749,16.526c-.161.6-.335,1.143-.453,1.7a1.043,1.043,0,0,1-.845.923c-.547.14-1.045.466-1.585.646a1.193,1.193,0,0,1-.807-.016c-.613-.287-1.189-.653-1.683-.932l-1.975,1.91a14.22,14.22,0,0,0,.736,1.291,1.287,1.287,0,0,1,.085,1.622,4.941,4.941,0,0,0-.538,1.331.893.893,0,0,1-.741.687c-.618.145-1.227.328-1.823.491v2.7a5.924,5.924,0,0,0,.7.19c1.146.161,2.018.605,2.19,1.9.037.28.3.526.362.809a1.331,1.331,0,0,1-.026.807c-.279.6-.637,1.159-1.032,1.855a14.763,14.763,0,0,1,1.363,1.259c.422.494.8.6,1.309.17a2.086,2.086,0,0,1,2.833-.194,9.051,9.051,0,0,0,.89.349,1.036,1.036,0,0,1,.461.495c.229.663.4,1.345.6,2.035h2.672a6.412,6.412,0,0,0,.225-.828,2.06,2.06,0,0,1,1.831-2.085,2.074,2.074,0,0,0,.741-.353.849.849,0,0,1,1.01.007c.538.338,1.175.915,1.667.826.545-.1.953-.861,1.464-1.281a.667.667,0,0,0,.127-1.089,2.234,2.234,0,0,1-.214-3.018,1.531,1.531,0,0,0,.228-.643c.078-.456.367-.628.783-.724.614-.142,1.218-.329,1.8-.489v-2.7a12.02,12.02,0,0,0-1.545-.424c-.66-.093-.859-.507-1.155-1.043a2.93,2.93,0,0,1,.233-3.668.6.6,0,0,0-.035-.573c-.5-.595-1.046-1.151-1.574-1.719a7.615,7.615,0,0,0-.949.53,1.885,1.885,0,0,1-2.53.157,8.944,8.944,0,0,0-1.019-.394,1.122,1.122,0,0,1-.5-.542c-.229-.642-.39-1.308-.582-1.977Zm-40.467,16.515q-4.851,0-9.7,0c-.974,0-1.382.413-1.4,1.375-.007.482,0,.963,0,1.445,0,1.241.352,1.592,1.595,1.592h14.656c1.491,0,2.982.008,4.473,0a1.173,1.173,0,0,0,1.327-1.306c.012-.527,0-1.055,0-1.583,0-1.148-.376-1.521-1.527-1.522Q-1348.848,368.568-1353.561,368.571Zm-.135,15.439q4.851,0,9.7,0c.965,0,1.373-.42,1.386-1.387.007-.482,0-.963,0-1.445,0-1.232-.356-1.58-1.607-1.58h-15.62c-1.17,0-2.34-.009-3.509,0a1.17,1.17,0,0,0-1.315,1.316c-.011.527,0,1.055,0,1.583,0,1.141.379,1.512,1.537,1.512Q-1358.41,384.012-1353.7,384.009Zm.058,6.61q-4.817,0-9.633,0c-.969,0-1.375.416-1.388,1.383-.006.482,0,.963,0,1.445,0,1.235.354,1.584,1.6,1.584h15.757c1.147,0,2.294.014,3.44-.005a1.148,1.148,0,0,0,1.248-1.243c.018-.55.006-1.1,0-1.651,0-1.142-.379-1.513-1.535-1.514Q-1348.89,390.617-1353.638,390.619Zm-8.788-13.258h17.573v-2.129h-17.573Zm17.583,8.9H-1362.4v2.127h17.557Zm-2.2-48.948-6.983,6.97h6.983Z" transform="translate(1366.863 -328.886)" fill="#12263f"/>
        <path id="Trazado_197546" data-name="Trazado 197546" d="M-1287.789,301.342c.033.03.062.076.1.088,3.117.954,4.444,2.747,4.444,6.012,0,2.545,0,5.089.119,7.691l2.269-3.383,1.853,1.223-5.339,8.013-5.341-8.008,1.843-1.235,2.331,3.474c.03-.275.062-.434.062-.593,0-2.5.008-5.006,0-7.508a3.347,3.347,0,0,0-3.583-3.569q-20.114-.005-40.228,0a3.357,3.357,0,0,0-3.595,3.627c0,1.7,0,3.394,0,5.141h-2.152a55.944,55.944,0,0,1,.049-6.31,5.17,5.17,0,0,1,4.148-4.523,1.958,1.958,0,0,0,.3-.139Z" transform="translate(1339.466 -301.342)" fill="#12263f"/>
        <path id="Trazado_197547" data-name="Trazado 197547" d="M-1334.807,399.676v-2.1h2.135v2.1Z" transform="translate(1339.233 -384.289)" fill="#12263f"/>
        <path id="Trazado_197548" data-name="Trazado 197548" d="M-1332.453,429.4V431.5h-2.119V429.4Z" transform="translate(1339.03 -411.716)" fill="#12263f"/>
        <path id="Trazado_197549" data-name="Trazado 197549" d="M-1143.647,652.435h-15.341V637.092h15.341Zm-2.2-2.2V639.291h-10.943v10.943Z" transform="translate(1187.692 -590.731)" fill="#12263f"/>
        <path id="Trazado_197550" data-name="Trazado 197550" d="M-1190.842,365.452h19.752v8.73h-19.752Zm17.558,2.218h-15.352V372h15.352Z" transform="translate(1215.147 -356.6)" fill="#12263f"/>
        <path id="Trazado_197551" data-name="Trazado 197551" d="M-1270.915,479.509v-2.1h28.588v2.1Z" transform="translate(1284.164 -453.097)" fill="#12263f"/>
        <path id="Trazado_197552" data-name="Trazado 197552" d="M-1270.914,511.445v-2.1h28.587v2.1Z" transform="translate(1284.163 -480.623)" fill="#12263f"/>
        <path id="Trazado_197553" data-name="Trazado 197553" d="M-1238.972,447.58v-2.1h26.381v2.1Z" transform="translate(1256.631 -425.578)" fill="#12263f"/>
        <path id="Trazado_197554" data-name="Trazado 197554" d="M-1270.618,540.96h17.52V543.1h-17.52Z" transform="translate(1283.908 -507.873)" fill="#12263f"/>
        <path id="Trazado_197555" data-name="Trazado 197555" d="M-1159.047,607.133v-2.112h13.159v2.112Z" transform="translate(1187.742 -563.089)" fill="#12263f"/>
        <path id="Trazado_197556" data-name="Trazado 197556" d="M-1268.612,445.323v2.118h-2.13v-2.118Z" transform="translate(1284.014 -425.442)" fill="#12263f"/>
        <path id="Trazado_197557" data-name="Trazado 197557" d="M-1127.09,543.357v-2.11h2.122v2.11Z" transform="translate(1160.198 -508.121)" fill="#12263f"/>
        <path id="Trazado_197558" data-name="Trazado 197558" d="M-1092.935,541.172v2.107h-2.119v-2.107Z" transform="translate(1132.586 -508.056)" fill="#12263f"/>
        <path id="Trazado_197559" data-name="Trazado 197559" d="M-1008.9,500.961a6.593,6.593,0,0,1,6.572,6.633,6.6,6.6,0,0,1-6.684,6.591,6.6,6.6,0,0,1-6.539-6.668A6.6,6.6,0,0,1-1008.9,500.961Zm-.066,2.2a4.461,4.461,0,0,0-4.381,4.4,4.467,4.467,0,0,0,4.435,4.417,4.464,4.464,0,0,0,4.381-4.4A4.46,4.46,0,0,0-1008.966,503.164Z" transform="translate(1064.06 -473.397)" fill="#12263f"/>
      </g>
    </g>
  </g>
</svg>
