<svg id="Grupo_172528" data-name="Grupo 172528" xmlns="http://www.w3.org/2000/svg" xmlns:xlink="http://www.w3.org/1999/xlink" width="127.611" height="127.558" viewBox="0 0 127.611 127.558">
  <defs>
    <clipPath id="clip-path">
      <rect id="Rectángulo_52750" data-name="Rectángulo 52750" width="127.611" height="127.558" fill="none"/>
    </clipPath>
    <linearGradient id="linear-gradient" x1="0.5" x2="0.5" y2="1" gradientUnits="objectBoundingBox">
      <stop offset="0" stop-color="#f5f5f5"/>
      <stop offset="0.25" stop-color="#f5f5f5"/>
      <stop offset="1" stop-color="#a7b3cf"/>
    </linearGradient>
    <linearGradient id="linear-gradient-2" x1="0.5" x2="0.5" y2="1" gradientUnits="objectBoundingBox">
      <stop offset="0" stop-color="#fdbe41"/>
      <stop offset="1" stop-color="#d09f40"/>
    </linearGradient>
    <linearGradient id="linear-gradient-3" x1="0.5" x2="0.5" y2="1" gradientUnits="objectBoundingBox">
      <stop offset="0" stop-color="#13c7e7"/>
      <stop offset="1" stop-color="#207be9"/>
    </linearGradient>
    <linearGradient id="linear-gradient-5" x1="0.5" x2="0.5" y2="1" gradientUnits="objectBoundingBox">
      <stop offset="0" stop-color="#ff5983"/>
      <stop offset="1" stop-color="#7e137c"/>
    </linearGradient>
  </defs>
  <g id="Grupo_172527" data-name="Grupo 172527" clip-path="url(#clip-path)">
    <path id="Trazado_212759" data-name="Trazado 212759" d="M0,118.091c1.148-2.309,3.041-3.038,5.555-2.971,4.688.123,9.382.006,14.073.059.994.011,1.605-.156,1.6-1.27a1.945,1.945,0,0,1,.1-.358c.147-.729.577-1.567.356-2.16-.249-.669-1.224-.17-1.872-.305a4.2,4.2,0,0,1-3.353-3.953c-.031-1.369-.016-2.74-.005-4.11A4.161,4.161,0,0,1,20.624,98.7a17.974,17.974,0,0,1,2.861.019c1,.125,1.247-.382,1.42-1.182,1.023-4.726,2.043-9.453,3.13-14.164.2-.875.04-1.068-.829-1.06-4.027.037-8.056-.072-12.08.039a6.564,6.564,0,0,1-6.96-6.966c.177-7.8.054-15.609.056-23.414,0-4.207,2.483-6.732,6.719-6.742q14.447-.033,28.9.021c1.166.006,1.346-.347,1.444-1.439.2-2.277-.476-3.534-2.629-4.783-9.115-5.287-13.619-13.446-13.894-23.96a6.256,6.256,0,0,1,0-.871c.128-1.118-.022-1.855-1.417-2.155a3.774,3.774,0,0,1-2.664-3.666q-.047-2.179,0-4.359A4.028,4.028,0,0,1,28.729.009q26.84-.017,53.68,0a4.029,4.029,0,0,1,4.016,3.931c.052,1.493.048,2.99,0,4.483a3.937,3.937,0,0,1-3.066,3.758c-.912.2-1.079.6-1.049,1.433a27.79,27.79,0,0,1-5.442,18.063A26.99,26.99,0,0,1,66.825,40.01a1.393,1.393,0,0,0-.989,1.58c.111,1.149-.465,2.654.212,3.373.744.79,2.274.209,3.46.253,1.41.052,2.823-.012,4.234.019a4.179,4.179,0,0,1,4.473,4.529c.005.955.031,1.911-.01,2.864-.026.614.113.914.811.871a22.149,22.149,0,0,1,2.738,0c.752.047.856-.291.659-.881a5.722,5.722,0,0,1-.172-1.85q0-11.708,0-23.415c0-4.229,2.58-6.816,6.819-6.82,10.545-.008,21.091.056,31.635-.03a6.582,6.582,0,0,1,6.914,6.889c-.168,7.926-.05,15.858-.055,23.788a6.087,6.087,0,0,1-6.378,6.424c-2.491.026-4.984.066-7.472-.024a1.731,1.731,0,0,0-1.927,1.249c-.562,1.329-1.271,2.6-1.932,3.883a5.441,5.441,0,0,1-9.829.026q-1.108-2.145-2.14-4.329a1.248,1.248,0,0,0-1.332-.819c-2.7.047-5.4.032-8.1.008-.644-.006-1.288-.133-2.01-.214q0,6.045,0,12.074c0,2.973-1.623,4.591-4.609,4.619-.208,0-.415,0-.623,0-3.025,0-2.989,0-3.014,3.024-.007.873.228,1.1,1.1,1.1,6.061-.039,12.123.023,18.184-.055,1.283-.016,1.574.3,1.425,1.542-.849,7.077-1.629,14.163-2.427,21.246-.51,4.53-1,9.062-1.525,13.591-.059.511.1.656.59.643q1.494-.038,2.989,0a4.19,4.19,0,0,1,4.358,4.4c.007.872-.069,1.751.015,2.614a4.832,4.832,0,0,1-3,5.385H2.99A5.7,5.7,0,0,1,0,124.568ZM104.97,24.675q-7.841,0-15.682,0c-2.224,0-2.848.638-2.849,2.9q0,11.575,0,23.15c0,2.136.662,2.79,2.842,2.795,3.195.006,6.39.046,9.583-.026a1.632,1.632,0,0,1,1.764,1.122c.922,1.986,1.95,3.922,2.915,5.887.285.581.572,1.095,1.327,1.12.818.027,1.151-.521,1.456-1.135,1.011-2.034,2.058-4.052,3.024-6.107a1.311,1.311,0,0,1,1.407-.877c3.319.039,6.638.026,9.957.014,2-.007,2.689-.693,2.691-2.692q.012-11.7,0-23.4c0-2.089-.667-2.745-2.752-2.747q-7.841-.006-15.682,0M45.275,63.7c0-4.4-.017-8.8.015-13.2.006-.809-.126-1.164-1.065-1.157q-9.278.064-18.557,0c-.86-.005-1.009.29-1.007,1.066q.037,13.388,0,26.777c0,.83.241,1.032,1.045,1.028,6.144-.032,12.288-.04,18.432.006.961.007,1.169-.285,1.16-1.193-.045-4.442-.02-8.884-.02-13.326m-.008,35.077c0-5.1-.022-10.206.02-15.308.007-.918-.224-1.212-1.175-1.2-3.525.056-7.052.038-10.578.009-.738-.006-1.047.164-1.225.975Q28.924,98.69,25.43,114.1c-.2.868.017,1.1.932,1.09q8.836-.066,17.673,0c.959.007,1.267-.223,1.256-1.228-.053-5.061-.024-10.122-.024-15.183m4.1-.041q0,7.659,0,15.318c0,.58-.13,1.138.82,1.13q7.285-.055,14.571,0c.717,0,.824-.286.755-.89q-.8-6.978-1.57-13.959c-.633-5.641-1.29-11.28-1.876-16.926-.087-.836-.288-1.143-1.166-1.131q-5.23.068-10.461,0c-.9-.013-1.1.306-1.09,1.144.034,5.106.017,10.212.017,15.318m6.181-61.693c2.118,0,4.236-.031,6.352.013a6.139,6.139,0,0,0,2.868-.649,23.317,23.317,0,0,0,10.2-9.375c1.889-3.208,1.808-3.535-1.178-5.782a2.746,2.746,0,0,0-3.635.088c-.415.344-.8.722-1.194,1.093-3.277,3.1-7.107,3.08-10.381-.052a15.925,15.925,0,0,0-1.3-1.163,2.7,2.7,0,0,0-3.433.011c-.648.516-1.224,1.12-1.841,1.675a6.9,6.9,0,0,1-9.292.03c-.558-.5-1.074-1.042-1.643-1.524a2.791,2.791,0,0,0-3.93,0,19.2,19.2,0,0,1-1.848,1.66c-.771.489-.672.98-.366,1.649A23.756,23.756,0,0,0,41.6,33.425c3,2.432,6.225,4.24,10.332,3.644a25.394,25.394,0,0,1,3.608-.026m-4.1,86.339H96.161c2.536,0,2.47,0,2.563-2.5.044-1.206-.213-1.576-1.522-1.574q-45.215.068-90.43.035c-2.606,0-2.514,0-2.64,2.549-.066,1.344.417,1.522,1.6,1.519q22.857-.057,45.713-.025M49.36,63.7c0,4.483.017,8.967-.016,13.45-.006.778.151,1.083,1.012,1.071,3.445-.05,6.891-.044,10.336,0,.8.009,1.067-.182,1.064-1.025q-.045-13.388,0-26.776c0-.783-.163-1.082-1.019-1.07-3.445.049-6.891.056-10.336,0-.944-.016-1.061.352-1.055,1.156.033,4.4.016,8.8.016,13.2M80.221,115.16h7.591c2.808,0,2.807,0,3.185-2.723.017-.123.054-.244.068-.367.454-4.032.891-8.065,1.372-12.094.11-.926-.154-1.206-1.113-1.193-4.023.054-8.047.043-12.07.006-.8-.007-1.065.208-1.065,1.035,0,1.006.506,2.389-.263,2.926-.7.491-2,.09-3.037.156-.741.047-.886-.264-.9-.936-.015-1.022.483-2.411-.222-2.965-.652-.513-1.98-.189-3.01-.194-2.711-.013-2.711,0-2.516,2.625,0,.041,0,.083.007.124.443,4.075.906,8.147,1.313,12.225.1,1.03.427,1.445,1.572,1.408,3.025-.1,6.055-.033,9.083-.033m0-32.88c-4.358,0-8.715-.01-13.073.017-.377,0-1.1-.369-.993.6q.621,5.5,1.2,11c.067.634.373.79.976.774,1.576-.041,3.155-.054,4.73,0,.747.027,1.026-.15.986-.949-.068-1.366-.019-2.738-.019-4.108,0-3.3,0-3.27,3.325-3.2.73.015.889.25.876.925-.039,2.074.026,4.151-.034,6.224-.024.842.164,1.126,1.069,1.115q6.349-.078,12.7,0c.849.009,1.138-.242,1.215-1.088.307-3.341.6-6.689,1.087-10.006.184-1.251-.191-1.332-1.22-1.321-4.274.048-8.549.02-12.824.02M77.849,19.115a50.678,50.678,0,0,0,.383-5.42c.045-1.136-.313-1.349-1.38-1.346q-20.921.055-41.842.024c-2.108,0-2.1,0-2.109,2.169a20.243,20.243,0,0,0,.445,4.739c.407-.387.672-.644.943-.895a6.772,6.772,0,0,1,9.626.048c2.7,2.748,4.107,2.809,6.872-.023a6.745,6.745,0,0,1,9.621.007c3.142,2.939,3.62,2.942,6.723.034a6.914,6.914,0,0,1,9.745-.023c.262.241.442.605.975.685M20.571,63.765c0-4.436-.021-8.871.018-13.307.008-.86-.22-1.155-1.106-1.115-1.531.071-3.067.007-4.6.023-1.773.018-2.493.718-2.5,2.489q-.016,11.939,0,23.878c0,1.751.737,2.443,2.525,2.461,1.409.013,2.823-.064,4.227.024,1.094.069,1.484-.2,1.462-1.4-.08-4.351-.031-8.7-.031-13.058M55.562,8.223H79.595c2.657,0,2.6,0,2.679-2.719.029-1.062-.2-1.374-1.333-1.371q-24.593.066-49.186.03c-2.915,0-2.873,0-2.929,2.858-.018.958.217,1.232,1.208,1.227,8.509-.043,17.018-.025,25.527-.025m26.683,55.6V60.589c0-3.116,0-3.089-3.156-3.02-.732.016-.895.257-.887.935.032,2.822.013,5.645.013,8.468,0,3.222,0,3.2,3.274,3.017.613-.035.774-.235.766-.808-.026-1.785-.01-3.57-.009-5.355M70,61.742h.871c3.249,0,3.214,0,3.173-3.249-.01-.829-.314-.951-1.022-.926-1.368.047-2.738.014-4.108.014-3.27,0-3.253,0-3.121,3.305.025.627.172.9.845.869,1.118-.046,2.24-.013,3.361-.013m0-8.221h.871c3.249,0,3.214,0,3.173-3.249-.01-.828-.314-.951-1.022-.926-1.368.047-2.738.014-4.108.014-3.27,0-3.253,0-3.121,3.305.025.627.172.9.845.868,1.118-.046,2.24-.012,3.361-.012m-.1,12.3h-1c-3.262,0-3.243,0-3.113,3.321.025.646.2.871.857.852,1.41-.04,2.821-.012,4.232-.012,3.246,0,3.225,0,3.156-3.253-.014-.686-.17-.962-.9-.923-1.076.057-2.157.015-3.236.015m.027,8.221h-1c-3.271,0-3.244,0-3.144,3.294.022.747.291.9.957.88,1.368-.04,2.738-.012,4.108-.012,3.347,0,3.325,0,3.185-3.35-.028-.67-.243-.849-.874-.823-1.077.043-2.157.012-3.236.012M59.759,41.124c-2.176,0-2.176,0-2.176,2.219,0,1.934,0,1.934,1.981,1.934,2.178,0,2.178,0,2.178-2.234,0-1.919,0-1.919-1.983-1.919m-10.4,2.018c0,2.136,0,2.136,2.145,2.136,2.011,0,2.011,0,2.011-2.037,0-2.117,0-2.117-2.156-2.117-2,0-2,0-2,2.018M23.682,102.933c-3.071-.115-3.071-.115-3.065,2.705,0,.165,0,.331,0,.5-.007.421-.046.92.595.784.573-.122,1.418.491,1.688-.468.32-1.137.519-2.307.783-3.517" transform="translate(0 0)" fill="#0a0a0a"/>
    <path id="Trazado_212760" data-name="Trazado 212760" d="M462.776,283.978c-2.086,0-2.086,0-2.086-2.067s0-2.081,2.075-2.081c2.113,0,2.113,0,2.113,2.126,0,2.022,0,2.022-2.1,2.022" transform="translate(-345.543 -209.888)" fill="#100d0a"/>
    <path id="Trazado_212761" data-name="Trazado 212761" d="M431.961,281.918c0,2.06,0,2.06-2.069,2.06-2.124,0-2.124,0-2.124-2.154,0-1.994,0-1.994,2.037-1.994h.124c2.031,0,2.031,0,2.031,2.088" transform="translate(-320.849 -209.888)" fill="#100d0a"/>
    <path id="Trazado_212762" data-name="Trazado 212762" d="M399.049,281.947c0,2.032,0,2.032-2.095,2.032s-2.1,0-2.1-2.058c0-2.087,0-2.087,2.062-2.087,2.133,0,2.133,0,2.133,2.113" transform="translate(-296.162 -209.891)" fill="#0a0a0a"/>
    <path id="Trazado_212763" data-name="Trazado 212763" d="M364.361,98.721q7.841,0,15.682,0c2.086,0,2.751.658,2.752,2.747q.009,11.7,0,23.4c0,2-.691,2.685-2.691,2.692-3.319.012-6.638.025-9.957-.014a1.311,1.311,0,0,0-1.407.877c-.966,2.055-2.013,4.073-3.024,6.107-.305.614-.638,1.162-1.456,1.135-.755-.025-1.042-.539-1.327-1.12-.965-1.966-1.993-3.9-2.915-5.888a1.632,1.632,0,0,0-1.763-1.121c-3.193.072-6.389.032-9.583.026-2.179,0-2.841-.659-2.842-2.795q0-11.575,0-23.15c0-2.257.624-2.894,2.849-2.9q7.841,0,15.682,0m1.8,4.156A12.351,12.351,0,0,0,354.1,113.63a8.3,8.3,0,0,0,8.68,9.759,12.37,12.37,0,0,0,11.683-10.313c.85-5.761-2.867-10.328-8.3-10.2" transform="translate(-259.39 -74.045)" fill="url(#linear-gradient)"/>
    <path id="Trazado_212764" data-name="Trazado 212764" d="M119.274,211.768c0,4.442-.025,8.884.021,13.326.009.908-.2,1.2-1.16,1.193q-9.216-.069-18.432-.006c-.8,0-1.047-.2-1.044-1.028q.045-13.388,0-26.777c0-.776.146-1.071,1.007-1.066q9.278.057,18.557,0c.94-.007,1.071.348,1.065,1.157-.033,4.4-.016,8.8-.016,13.2" transform="translate(-73.999 -148.068)" fill="#bfc5d0"/>
    <path id="Trazado_212765" data-name="Trazado 212765" d="M121.379,345.663c0,5.061-.028,10.123.024,15.183.01,1.005-.3,1.235-1.256,1.228q-8.836-.063-17.672,0c-.914.007-1.127-.222-.932-1.09q3.471-15.416,6.879-30.845c.178-.811.487-.981,1.225-.975,3.526.029,7.053.047,10.578-.009.95-.015,1.182.28,1.174,1.2-.042,5.1-.02,10.205-.02,15.308m-8.183,6.129c0-2.029,0-2.029-1.976-2.029H111.1c-2.094,0-2.094,0-2.094,2.142,0,2,0,2,2.018,2,2.176,0,2.176,0,2.176-2.11" transform="translate(-76.113 -246.886)" fill="#98a2af"/>
    <path id="Trazado_212766" data-name="Trazado 212766" d="M197.443,345.629c0-5.106.017-10.212-.017-15.318-.006-.838.184-1.157,1.089-1.144q5.229.074,10.461,0c.878-.011,1.079.3,1.166,1.131.586,5.646,1.243,11.285,1.876,16.926q.783,6.979,1.57,13.959c.069.6-.039.894-.755.89q-7.285-.041-14.571,0c-.95.007-.82-.551-.82-1.13q0-7.659,0-15.318" transform="translate(-148.08 -246.893)" fill="#98a2af"/>
    <path id="Trazado_212767" data-name="Trazado 212767" d="M159.66,98.855a25.359,25.359,0,0,0-3.608.026c-4.107.6-7.332-1.212-10.332-3.644a23.756,23.756,0,0,1-6.681-8.711c-.306-.669-.4-1.16.366-1.649a19.229,19.229,0,0,0,1.848-1.66,2.791,2.791,0,0,1,3.93,0c.569.483,1.085,1.027,1.643,1.524a6.9,6.9,0,0,0,9.292-.031c.617-.555,1.193-1.159,1.841-1.675a2.7,2.7,0,0,1,3.433-.011,15.834,15.834,0,0,1,1.3,1.163c3.274,3.132,7.1,3.152,10.381.052.392-.371.779-.749,1.194-1.093a2.746,2.746,0,0,1,3.635-.088c2.987,2.247,3.068,2.575,1.178,5.783a23.319,23.319,0,0,1-10.2,9.375,6.139,6.139,0,0,1-2.868.648c-2.117-.044-4.235-.013-6.352-.013m-2.016-6.172a2.091,2.091,0,1,0-2.072,2.031,2.067,2.067,0,0,0,2.072-2.031m8.227.044a2.092,2.092,0,1,0-2.114,1.987,2.057,2.057,0,0,0,2.114-1.987" transform="translate(-104.117 -61.812)" fill="url(#linear-gradient-2)"/>
    <path id="Trazado_212768" data-name="Trazado 212768" d="M63.826,481.4q-22.857,0-45.713.025c-1.183,0-1.666-.176-1.6-1.519.126-2.545.034-2.549,2.64-2.549q45.215,0,90.43-.035c1.308,0,1.567.368,1.522,1.574-.093,2.5-.027,2.5-2.563,2.5H63.826" transform="translate(-12.381 -358.015)" fill="url(#linear-gradient-3)"/>
    <path id="Trazado_212769" data-name="Trazado 212769" d="M197.434,211.759c0-4.4.017-8.8-.016-13.2-.006-.8.11-1.172,1.055-1.156,3.444.059,6.891.052,10.336,0,.856-.012,1.021.287,1.019,1.07q-.036,13.388,0,26.776c0,.843-.268,1.035-1.064,1.025-3.445-.041-6.891-.047-10.336,0-.861.012-1.018-.293-1.012-1.071.033-4.483.016-8.967.016-13.45" transform="translate(-148.074 -148.062)" fill="#bec4cf"/>
    <path id="Trazado_212770" data-name="Trazado 212770" d="M284.8,411.39c-3.028,0-6.058-.065-9.083.033-1.145.037-1.469-.378-1.572-1.408-.407-4.078-.871-8.15-1.313-12.225,0-.041,0-.083-.008-.124-.194-2.629-.194-2.638,2.516-2.625,1.031.005,2.358-.319,3.01.194.7.554.207,1.944.222,2.965.01.672.155.984.9.936,1.033-.066,2.333.335,3.037-.156.769-.536.262-1.92.263-2.926,0-.827.261-1.043,1.065-1.035,4.023.037,8.047.048,12.07-.005.959-.013,1.223.267,1.112,1.193-.481,4.028-.918,8.062-1.372,12.094-.014.123-.051.244-.068.367-.378,2.723-.377,2.723-3.185,2.723Zm4.1-4.049a2.131,2.131,0,0,0,2.118-2.008,2.092,2.092,0,1,0-2.118,2.008m-8.2-4.168a2.2,2.2,0,0,0-2.1,2.067,2.095,2.095,0,1,0,4.19,0,2.183,2.183,0,0,0-2.095-2.062" transform="translate(-204.575 -296.229)" fill="url(#linear-gradient-2)"/>
    <path id="Trazado_212771" data-name="Trazado 212771" d="M278.7,329.038c4.275,0,8.55.027,12.824-.02,1.029-.011,1.4.069,1.22,1.321-.488,3.317-.78,6.664-1.087,10.006-.078.846-.367,1.1-1.215,1.088q-6.349-.064-12.7,0c-.9.011-1.094-.273-1.069-1.115.06-2.073-.005-4.15.034-6.224.013-.676-.146-.91-.876-.925-3.326-.068-3.326-.094-3.326,3.2,0,1.369-.049,2.741.019,4.108.04.8-.238.975-.986.949-1.575-.057-3.154-.045-4.73,0-.6.016-.91-.14-.976-.774q-.58-5.5-1.2-11c-.11-.972.616-.6.993-.6,4.358-.026,8.715-.017,13.073-.017" transform="translate(-198.481 -246.758)" fill="#dcdfe4"/>
    <path id="Trazado_212772" data-name="Trazado 212772" d="M176.578,56.17c-.533-.08-.713-.444-.975-.685a6.914,6.914,0,0,0-9.745.023c-3.1,2.908-3.581,2.906-6.723-.034a6.745,6.745,0,0,0-9.621-.008c-2.765,2.832-4.172,2.771-6.872.023a6.772,6.772,0,0,0-9.626-.048c-.271.251-.536.508-.943.895a20.246,20.246,0,0,1-.445-4.739c.01-2.169,0-2.169,2.109-2.169q20.921,0,41.842-.024c1.068,0,1.425.21,1.38,1.346a50.676,50.676,0,0,1-.383,5.42" transform="translate(-98.729 -37.056)" fill="#dee1e6"/>
    <path id="Trazado_212773" data-name="Trazado 212773" d="M57.722,211.828c0,4.353-.048,8.706.031,13.057.022,1.2-.368,1.466-1.462,1.4-1.4-.089-2.818-.011-4.227-.025-1.788-.017-2.522-.71-2.525-2.461q-.019-11.939,0-23.878c0-1.771.722-2.47,2.5-2.489,1.534-.016,3.07.048,4.6-.023.885-.041,1.113.255,1.106,1.115-.039,4.435-.018,8.871-.018,13.307" transform="translate(-37.15 -148.063)" fill="#bec4cf"/>
    <path id="Trazado_212774" data-name="Trazado 212774" d="M142.063,20.623c-8.509,0-17.018-.018-25.527.025-.992,0-1.227-.269-1.208-1.227.055-2.857.013-2.858,2.929-2.858q24.593,0,49.186-.03c1.133,0,1.362.31,1.333,1.371-.075,2.717-.023,2.719-2.679,2.719H142.063" transform="translate(-86.502 -12.401)" fill="url(#linear-gradient-5)"/>
    <path id="Trazado_212775" data-name="Trazado 212775" d="M316.918,236.529c0,1.785-.017,3.57.009,5.355.008.573-.153.773-.766.808-3.275.185-3.274.2-3.274-3.017,0-2.823.018-5.646-.013-8.468-.008-.678.156-.919.887-.935,3.157-.069,3.156-.1,3.156,3.02q0,1.619,0,3.238" transform="translate(-234.673 -172.702)" fill="url(#linear-gradient-5)"/>
    <path id="Trazado_212776" data-name="Trazado 212776" d="M267.331,234.486c-1.12,0-2.242-.033-3.361.012-.673.028-.82-.241-.845-.869-.132-3.306-.149-3.305,3.121-3.305,1.369,0,2.74.033,4.108-.014.708-.024,1.011.1,1.022.926.04,3.249.075,3.249-3.174,3.249h-.871" transform="translate(-197.327 -172.744)" fill="#b8bec8"/>
    <path id="Trazado_212777" data-name="Trazado 212777" d="M267.331,201.593c-1.12,0-2.242-.033-3.361.013-.673.028-.82-.241-.845-.869-.132-3.306-.149-3.305,3.121-3.305,1.369,0,2.74.033,4.108-.014.708-.025,1.011.1,1.022.926.04,3.249.075,3.249-3.174,3.249h-.871" transform="translate(-197.327 -148.073)" fill="#b8bec8"/>
    <path id="Trazado_212778" data-name="Trazado 212778" d="M267.228,263.275c1.079,0,2.16.043,3.236-.015.73-.039.886.237.9.923.069,3.253.089,3.253-3.156,3.253-1.411,0-2.822-.028-4.232.012-.654.019-.832-.206-.857-.852-.13-3.322-.149-3.321,3.113-3.321h1" transform="translate(-197.323 -197.457)" fill="#b8bec8"/>
    <path id="Trazado_212779" data-name="Trazado 212779" d="M267.28,296.18c1.079,0,2.159.031,3.236-.012.631-.025.846.153.874.823.14,3.351.161,3.35-3.185,3.35-1.369,0-2.74-.028-4.108.012-.666.02-.935-.133-.957-.88-.1-3.294-.127-3.293,3.144-3.293h1" transform="translate(-197.348 -222.14)" fill="#b8bec8"/>
    <path id="Trazado_212780" data-name="Trazado 212780" d="M232.56,164.532c1.983,0,1.983,0,1.983,1.919,0,2.234,0,2.234-2.178,2.234-1.981,0-1.981,0-1.981-1.934,0-2.219,0-2.219,2.176-2.219" transform="translate(-172.801 -123.408)" fill="#8e98a5"/>
    <path id="Trazado_212781" data-name="Trazado 212781" d="M197.462,166.55c0-2.018,0-2.018,2-2.018,2.156,0,2.156,0,2.156,2.117,0,2.036,0,2.036-2.011,2.036-2.145,0-2.145,0-2.145-2.135" transform="translate(-148.107 -123.408)" fill="#8e98a5"/>
    <path id="Trazado_212782" data-name="Trazado 212782" d="M85.544,411.716c-.263,1.21-.462,2.381-.783,3.517-.27.959-1.115.347-1.688.468-.641.136-.6-.362-.595-.784,0-.165,0-.331,0-.5-.006-2.82-.006-2.82,3.065-2.705" transform="translate(-61.862 -308.783)" fill="#bfc5d0"/>
    <path id="Trazado_212783" data-name="Trazado 212783" d="M390.685,115.344c5.432-.13,9.148,4.438,8.3,10.2A12.371,12.371,0,0,1,387.3,135.855a8.3,8.3,0,0,1-8.68-9.759,12.351,12.351,0,0,1,12.065-10.753M386,131.673a8.119,8.119,0,0,0,8.907-8.9l-8.907,8.9m-3.228-3.309,8.845-8.841a8.126,8.126,0,0,0-8.845,8.841" transform="translate(-283.913 -86.512)" fill="#0a0a0a"/>
    <path id="Trazado_212784" data-name="Trazado 212784" d="M135.784,413.626c0,2.109,0,2.109-2.176,2.109-2.018,0-2.018,0-2.018-2,0-2.142,0-2.142,2.094-2.142h.124c1.976,0,1.976,0,1.976,2.029" transform="translate(-98.7 -308.72)" fill="#100d0a"/>
    <path id="Trazado_212785" data-name="Trazado 212785" d="M201.6,117.36a2.078,2.078,0,0,1-2.072,2.032,2.04,2.04,0,1,1,2.072-2.032" transform="translate(-148.077 -86.489)" fill="#100d0a"/>
    <path id="Trazado_212786" data-name="Trazado 212786" d="M234.517,117.411a2.094,2.094,0,1,1-2.011-2.089,2.073,2.073,0,0,1,2.011,2.089" transform="translate(-172.762 -86.497)" fill="#100d0a"/>
    <path id="Trazado_212787" data-name="Trazado 212787" d="M331.143,432.039a2.164,2.164,0,0,1-2.065-2.076,2.092,2.092,0,1,1,4.183.068,2.131,2.131,0,0,1-2.118,2.008" transform="translate(-246.827 -320.929)" fill="#100d0a"/>
    <path id="Trazado_212788" data-name="Trazado 212788" d="M298.247,427.865a2.183,2.183,0,0,1,2.095,2.062,2.095,2.095,0,1,1-4.19,0,2.2,2.2,0,0,1,2.1-2.067" transform="translate(-222.13 -320.922)" fill="#100d0a"/>
    <path id="Trazado_212789" data-name="Trazado 212789" d="M408.446,153.969l8.907-8.9a8.12,8.12,0,0,1-8.907,8.9" transform="translate(-306.357 -108.807)" fill="url(#linear-gradient-2)"/>
    <path id="Trazado_212790" data-name="Trazado 212790" d="M395.394,140.751a8.126,8.126,0,0,1,8.845-8.841l-8.845,8.841" transform="translate(-296.533 -98.899)" fill="url(#linear-gradient-2)"/>
  </g>
</svg>
