<svg id="Icon" xmlns="http://www.w3.org/2000/svg" xmlns:xlink="http://www.w3.org/1999/xlink" width="76.1" height="76.1" viewBox="0 0 76.1 76.1">
  <defs>
    <clipPath id="clip-path">
      <rect id="Rectángulo_52827" data-name="Rectángulo 52827" width="47.211" height="45.488" fill="#12263f"/>
    </clipPath>
  </defs>
  <ellipse id="Base" cx="38.05" cy="38.05" rx="38.05" ry="38.05" transform="translate(0 0)" fill="#fff"/>
  <g id="Grupo_173675" data-name="Grupo 173675" transform="translate(12.294 14.295)">
    <g id="Grupo_173674" data-name="Grupo 173674" clip-path="url(#clip-path)">
      <path id="Trazado_214810" data-name="Trazado 214810" d="M10.935,33.755c-.451.144-.884.29-1.322.422a17,17,0,0,1-5.328.884,5.2,5.2,0,0,1-2.8-.743,3.36,3.36,0,0,1-1.4-3.631,10.875,10.875,0,0,1,2-4.193,27.482,27.482,0,0,1,3.139-3.608c.039-.038.072-.081.124-.139-.448-.47-.9-.923-1.326-1.394A19.226,19.226,0,0,1,.776,16.82,6.01,6.01,0,0,1,.03,13.579,3.155,3.155,0,0,1,2.252,10.8a7.793,7.793,0,0,1,3.6-.289,21.725,21.725,0,0,1,4.867,1.17c.062.021.127.035.217.06.181-.639.343-1.266.536-1.884a15.4,15.4,0,0,1,2.085-4.505A5.043,5.043,0,0,1,15.908,3.4a.4.4,0,0,0,.18-.3c.02-.449,0-.9.01-1.349A1.671,1.671,0,0,1,17.862,0Q29.468,0,41.073,0A1.672,1.672,0,0,1,42.82,1.736q.009,3.306,0,6.612a.488.488,0,0,0,.274.505A2.168,2.168,0,0,1,42,12.872a2.157,2.157,0,0,1-2.075-1.529,2.121,2.121,0,0,1,.906-2.464.557.557,0,0,0,.314-.554q-.016-3.12,0-6.241c0-.323-.089-.411-.413-.41q-11.217.019-22.435.019h-.508c0,.545,0,1.057.007,1.569,0,.051.091.123.154.145a5.172,5.172,0,0,1,2.557,2.206,17.9,17.9,0,0,1,2.2,5.26c.068.249.132.5.2.748a.625.625,0,0,0,.06.108c.446-.142.89-.289,1.339-.424a18.4,18.4,0,0,1,4.558-.859,7.4,7.4,0,0,1,2.567.281,3.326,3.326,0,0,1,2.38,3.959,10.64,10.64,0,0,1-1.974,4.24,25,25,0,0,1-3.156,3.634c-.178.171-.109.257.037.4A22.038,22.038,0,0,1,33,28.466a6.819,6.819,0,0,1,.848,2.748,3.348,3.348,0,0,1-2.815,3.665,10.092,10.092,0,0,1-4.413-.118c-1.148-.256-2.273-.612-3.409-.923l-.269-.074c-.216.737-.411,1.461-.64,2.174a14.883,14.883,0,0,1-1.972,4.19,5.054,5.054,0,0,1-2.352,1.949c-.077.028-.179.127-.181.2-.016.492-.008.984-.008,1.508.152.007.271.017.391.017q11.285,0,22.57,0c.3,0,.4-.065.4-.387q-.024-3.137-.007-6.275a.528.528,0,0,0-.3-.526,2.128,2.128,0,0,1-.916-2.491,2.146,2.146,0,0,1,4.132.1,2.135,2.135,0,0,1-.98,2.411.46.46,0,0,0-.262.477q.009,3.255,0,6.511a1.694,1.694,0,0,1-1.855,1.863q-11.521,0-23.042,0A1.683,1.683,0,0,1,16.1,43.66c0-.427.009-.855-.008-1.282a.371.371,0,0,0-.157-.285,5.865,5.865,0,0,1-2.963-2.87A20.6,20.6,0,0,1,11.008,34c-.019-.074-.043-.147-.073-.25m.581-11.046c0,.888-.011,1.776.01,2.664a.614.614,0,0,0,.228.438q2.471,1.607,4.968,3.175a.478.478,0,0,0,.419.008q2.494-1.57,4.967-3.174a.533.533,0,0,0,.229-.366q.021-2.711,0-5.421a.49.49,0,0,0-.2-.344q-2.488-1.612-4.995-3.195a.442.442,0,0,0-.388-.008q-2.523,1.59-5.025,3.212a.534.534,0,0,0-.2.381c-.018.876-.009,1.753-.01,2.63m15.748-1.145c.316-.326.645-.627.93-.965.839-.993,1.7-1.969,2.479-3.011a7.389,7.389,0,0,0,1.471-3.254A1.585,1.585,0,0,0,31.1,12.422a4.713,4.713,0,0,0-1.443-.285,16.843,16.843,0,0,0-6.172,1.22c-.08.028-.16.226-.146.333.194,1.582.414,3.16.6,4.742a.961.961,0,0,0,.45.793,8.7,8.7,0,0,1,.851.661c.667.547,1.33,1.1,2.027,1.677m.012,2.374c-1.083.873-2.125,1.709-3.159,2.556a.519.519,0,0,0-.134.314c-.222,1.658-.431,3.318-.66,4.975-.034.249.053.332.267.4a21.308,21.308,0,0,0,4.673,1.124,6.257,6.257,0,0,0,2.671-.174,1.625,1.625,0,0,0,1.22-1.879,5.045,5.045,0,0,0-.285-1.14,19.224,19.224,0,0,0-4.593-6.179M6.646,21.5c1.039-.83,2.076-1.653,3.1-2.488a.561.561,0,0,0,.155-.341c.212-1.635.4-3.274.632-4.907.042-.3-.028-.388-.286-.475a20.818,20.818,0,0,0-4.769-1.131,5.706,5.706,0,0,0-2.662.233,1.567,1.567,0,0,0-1.106,1.662,4.611,4.611,0,0,0,.518,1.867,17.073,17.073,0,0,0,3.023,4.229c.439.477.93.905,1.392,1.35M6.628,23.95c-.074.062-.156.121-.226.19a26.082,26.082,0,0,0-3.175,3.7,9.388,9.388,0,0,0-1.4,2.818,1.846,1.846,0,0,0,1.639,2.608,6.442,6.442,0,0,0,1.139.087,18.245,18.245,0,0,0,5.8-1.218c.211-.072.157-.194.137-.342-.191-1.378-.431-2.752-.543-4.137a2.005,2.005,0,0,0-.9-1.716c-.869-.589-1.645-1.315-2.473-1.992m10.48,16.589a4.7,4.7,0,0,0,.8-.346,4.444,4.444,0,0,0,1.378-1.547,19.474,19.474,0,0,0,2.009-5.3c.049-.19-.046-.249-.2-.319-1.311-.613-2.615-1.241-3.929-1.848a.615.615,0,0,0-.458,0c-1.3.6-2.6,1.224-3.9,1.827-.2.093-.266.186-.212.4a22.3,22.3,0,0,0,1.437,4.2,6.875,6.875,0,0,0,1.739,2.453,2.073,2.073,0,0,0,1.335.482m-.146-35.62a4.905,4.905,0,0,0-.611.166A3.685,3.685,0,0,0,14.7,6.671a18.368,18.368,0,0,0-2.119,5.465c-.046.181.022.249.182.323,1.332.62,2.657,1.254,3.989,1.872a.483.483,0,0,0,.361,0c1.332-.619,2.656-1.256,3.989-1.873.188-.087.229-.175.17-.356-.429-1.3-.811-2.612-1.294-3.889a6.872,6.872,0,0,0-1.729-2.661,2.2,2.2,0,0,0-1.292-.632M21.712,14l-2.991,1.388,3.48,2.2L21.712,14m-3,16.09,3,1.382.483-3.582-3.48,2.2M12.164,14l-.488,3.59,3.484-2.2-3-1.39m0,17.474L15.156,30.1l-3.484-2.207.5,3.588M9.752,24.306V21.174L7.895,22.745l1.857,1.562m14.382-3.119V24.3L26,22.743l-1.861-1.556" transform="translate(0 0)" fill="#12263f"/>
      <path id="Trazado_214811" data-name="Trazado 214811" d="M544.724,303.135a11.77,11.77,0,0,0,10.424,0c0,.823.034,1.674-.022,2.519a1.2,1.2,0,0,1-.457.673,5.179,5.179,0,0,1-2.55,1.06,10.808,10.808,0,0,1-5.491-.305,6.608,6.608,0,0,1-1.369-.706,1.145,1.145,0,0,1-.544-1.087c.031-.725.008-1.453.008-2.155" transform="translate(-507.958 -282.68)" fill="#12263f"/>
      <path id="Trazado_214812" data-name="Trazado 214812" d="M550.051,244.17a9.581,9.581,0,0,1-4.225-.823,3.617,3.617,0,0,1-.9-.64.726.726,0,0,1,.046-1.219,4.737,4.737,0,0,1,1.377-.816,10.338,10.338,0,0,1,7.219.088,4.132,4.132,0,0,1,1.18.756.727.727,0,0,1,.029,1.2,4.458,4.458,0,0,1-2.161,1.106,7.012,7.012,0,0,1-1.022.2c-.59.072-1.184.112-1.546.145" transform="translate(-507.871 -223.865)" fill="#12263f"/>
      <path id="Trazado_214813" data-name="Trazado 214813" d="M544.779,371.538a11.745,11.745,0,0,0,10.429.006c0,.721.039,1.471-.022,2.213a1.257,1.257,0,0,1-.463.7,5.1,5.1,0,0,1-2.484,1.053,10.671,10.671,0,0,1-5.46-.268,7.7,7.7,0,0,1-1.616-.871.919.919,0,0,1-.39-.85c.019-.67.005-1.34.005-1.988" transform="translate(-508.013 -346.468)" fill="#12263f"/>
      <path id="Trazado_214814" data-name="Trazado 214814" d="M191.127,282.184l-.439.581-.777-.842c.659-.315.389-.74.176-1.259s-.328-.948-1.025-.715V278.9c.027-.017.047-.04.063-.038.539.085.861-.111.915-.683a.963.963,0,0,1,.13-.308c.25-.5.251-.5-.154-.924-.038-.039-.069-.084-.109-.133l.75-.758.52.5c.474-.18.914-.338,1.346-.517a.338.338,0,0,0,.165-.232,4.525,4.525,0,0,0,.008-.586h1.041c.01.011.038.031.036.044-.105.584.151.887.727.947a.46.46,0,0,1,.123.054c.221.1.456.293.659.265s.351-.289.558-.478l.689.82-.462.368c.205.575.365,1.047.548,1.51.024.062.164.1.254.109.177.017.357,0,.561,0v1.013c-.039.011-.084.041-.122.033-.548-.112-.763.172-.875.663a4.889,4.889,0,0,1-.369.846l.509.533-.766.8c-.35-.7-.811-.505-1.284-.193a.079.079,0,0,1-.031.013c-.557.076-.889.325-.674.979H192.7v-.713l-1.577-.651m2.112-1.025a1.77,1.77,0,1,0-1.779-1.746,1.777,1.777,0,0,0,1.779,1.746" transform="translate(-176.305 -256.646)" fill="#12263f"/>
    </g>
  </g>
</svg>
