<svg id="Grupo_152536" data-name="Grupo 152536" xmlns="http://www.w3.org/2000/svg" xmlns:xlink="http://www.w3.org/1999/xlink" width="106.881" height="106.881" viewBox="0 0 106.881 106.881">
  <defs>
    <radialGradient id="radial-gradient" cx="0.076" cy="0.019" r="1.465" gradientTransform="translate(0.001)" gradientUnits="objectBoundingBox">
      <stop offset="0" stop-color="#f6f6f7"/>
      <stop offset="0.477" stop-color="#f9f9fa"/>
      <stop offset="0.715" stop-color="#fff"/>
    </radialGradient>
  </defs>
  <g id="Grupo_18423" data-name="Grupo 18423" transform="translate(0 0)">
    <g id="Grupo_18421" data-name="Grupo 18421">
      <g id="Grupo_18420" data-name="Grupo 18420">
        <g id="Grupo_18419" data-name="Grupo 18419">
          <path id="Trazado_40936" data-name="Trazado 40936" d="M301.5,2199.16a53.441,53.441,0,1,1-53.44-53.439A53.439,53.439,0,0,1,301.5,2199.16Z" transform="translate(-194.623 -2145.721)" fill="#fff"/>
        </g>
      </g>
    </g>
    <path id="Trazado_40937" data-name="Trazado 40937" d="M300.993,2198.6a53.439,53.439,0,1,0-53.44,53.442A53.229,53.229,0,0,0,300.993,2198.6Z" transform="translate(-194.112 -2145.164)" fill="url(#radial-gradient)"/>
    <path id="Trazado_40938" data-name="Trazado 40938" d="M283.829,2194.109a40.791,40.791,0,1,0-40.791,40.791A40.639,40.639,0,0,0,283.829,2194.109Z" transform="translate(-189.435 -2140.492)" fill="none" stroke="#00223d" stroke-miterlimit="10" stroke-width="4"/>
    <g id="Grupo_18422" data-name="Grupo 18422" transform="translate(9.468 30.003)">
      <path id="Trazado_40939" data-name="Trazado 40939" d="M292.555,2164.488a53.447,53.447,0,0,1-92.01,53.219,53.277,53.277,0,0,0,92.01-53.219Z" transform="translate(-200.545 -2164.488)" fill="#eceef0"/>
    </g>
  </g>
  <g id="_83oj6T" data-name="83oj6T" transform="translate(33.363 32.34)">
    <g id="Grupo_143141" data-name="Grupo 143141">
      <path id="Trazado_184357" data-name="Trazado 184357" d="M2875.463-2070.812c1.176-2.9,2.223-3.6,5.4-3.6,2.055,0,4.11,0,6.166,0,.638,0,1.234.09,1.234.9,0,.785-.58.931-1.221.932-2.316,0-4.632,0-6.949,0a2.588,2.588,0,0,0-2.816,2.793q-.02,13.653,0,27.307a2.757,2.757,0,0,0,2.858,2.948c8.385.024,16.769.01,25.154.008a4.527,4.527,0,0,0,.51-.073v-1.044c0-2.121-.017-4.241,0-6.362a4.477,4.477,0,0,1,4.417-4.441c.88-.015,1.762.014,2.642-.009.653-.016,1.149.219,1.13.9-.019.663-.518.913-1.163.9q-1.223-.023-2.447,0a2.7,2.7,0,0,0-2.783,2.783c-.022,1.921-.005,3.843-.005,5.9a6.567,6.567,0,0,0,.584-.453c3-3,6.012-5.984,8.98-9.012a2.131,2.131,0,0,0,.544-1.35c.036-5.872.013-11.745.047-17.617a1.529,1.529,0,0,1,.53-1.191c.293-.14.824.22,1.251.361v19.976l-12.534,12.534H2879.38a4.979,4.979,0,0,1-3.917-3.917Z" transform="translate(-2875.463 2081.78)" fill="#12263f"/>
      <path id="Trazado_184358" data-name="Trazado 184358" d="M2963.724-2112.042a2.277,2.277,0,0,1,1.381,2.433c-.056,1.528,0,3.06-.018,4.59a1.923,1.923,0,0,1-2.161,2.172q-5.176.022-10.353,0a1.924,1.924,0,0,1-2.16-2.173c-.013-1.53.041-3.062-.018-4.59a2.273,2.273,0,0,1,1.382-2.431Zm-11.47,7.308h10.959v-5.445h-10.959Z" transform="translate(-2935.718 2112.042)" fill="#12263f"/>
      <path id="Trazado_184359" data-name="Trazado 184359" d="M2957.789-2046.6c-1.728,0-3.455.008-5.182,0-1.471-.009-2.136-.681-2.146-2.164-.011-1.63-.014-3.259,0-4.889a1.864,1.864,0,0,1,2.115-2.1q5.231-.019,10.462,0a1.864,1.864,0,0,1,2.1,2.118c.014,1.662.017,3.324,0,4.986a1.842,1.842,0,0,1-2.065,2.045C2961.308-2046.588,2959.549-2046.6,2957.789-2046.6Zm5.5-1.854v-5.426H2952.3v5.426Z" transform="translate(-2935.765 2066.785)" fill="#12263f"/>
      <path id="Trazado_184360" data-name="Trazado 184360" d="M2957.728-1990.232c-1.76,0-3.519.013-5.278,0a1.8,1.8,0,0,1-2-2q-.031-2.541,0-5.082a1.776,1.776,0,0,1,1.969-2.014q5.376-.022,10.751,0a1.761,1.761,0,0,1,1.948,1.936q.037,2.589,0,5.18a1.8,1.8,0,0,1-2.018,1.976C2961.311-1990.221,2959.519-1990.232,2957.728-1990.232Zm-5.427-7.257v5.381h10.953v-5.381Z" transform="translate(-2935.754 2021.412)" fill="#12263f"/>
      <path id="Trazado_184361" data-name="Trazado 184361" d="M3038.028-2080.069a10.459,10.459,0,0,1,1.09.771c.449.406.578.989.054,1.332a1.352,1.352,0,0,1-1.269-.063,34.7,34.7,0,0,1-2.645-2.6.907.907,0,0,1,.027-1.388c.871-.881,1.711-1.8,2.654-2.6.262-.221.84-.07,1.273-.089a3.256,3.256,0,0,1-.046,1.294c-.184.373-.657.6-1,.9l.122.273c1.083,0,2.172.059,3.246-.04a1.146,1.146,0,0,0,.723-.843c.06-2.444.044-4.89.031-7.335,0-.759-.494-.979-1.178-.974-1.663.012-3.326,0-4.988.007-.689,0-1.232-.244-1.1-.99a1.233,1.233,0,0,1,.9-.763c1.921-.069,3.847-.073,5.769-.012a2.465,2.465,0,0,1,2.369,2.418q.07,3.96,0,7.922a2.487,2.487,0,0,1-2.476,2.409c-1.074.034-2.15.026-3.225.04-.018,0-.035.049-.053.074Z" transform="translate(-3003.713 2096.921)" fill="#12263f"/>
      <path id="Trazado_184362" data-name="Trazado 184362" d="M2900.141-2024.223c-.931,0-1.863.005-2.794,0-2.028-.013-3.013-.98-3.02-2.981-.008-2.315-.012-4.63,0-6.944a2.648,2.648,0,0,1,2.848-2.882c1.663-.018,3.326,0,4.988-.007.642,0,1.243.109,1.259.885.018.86-.624.921-1.3.913-1.565-.018-3.13.011-4.694-.012-.882-.013-1.334.313-1.323,1.257q.04,3.374,0,6.748c-.01.873.35,1.256,1.224,1.228.909-.029,1.821-.006,2.982-.006-.441-.458-.744-.765-1.038-1.08-.409-.438-.575-1-.053-1.347a1.35,1.35,0,0,1,1.27.049,34.421,34.421,0,0,1,2.65,2.6.959.959,0,0,1-.066,1.471c-.823.836-1.649,1.669-2.487,2.491-.452.443-.984.593-1.455.078a.884.884,0,0,1,.184-1.369c.318-.276.683-.5,1.027-.744Z" transform="translate(-2890.627 2051.729)" fill="#12263f"/>
      <path id="Trazado_184363" data-name="Trazado 184363" d="M2906.344-1938.508c1.725,0,3.451-.014,5.176,0,1.511.016,2.1.631,2.109,2.153.024,3.1-.186,3.306-3.309,3.306-3,0-5.99,0-8.986,0-1.748,0-2.315-.587-2.327-2.354,0-.293,0-.586,0-.879.021-1.62.615-2.215,2.257-2.226C2902.958-1938.517,2904.65-1938.508,2906.344-1938.508Zm-5.458,3.561h10.89v-1.694h-10.89Z" transform="translate(-2894.395 1972.498)" fill="#12263f"/>
      <path id="Trazado_184364" data-name="Trazado 184364" d="M2986.591-1936.676c-.684,0-1.368.006-2.052,0-.586-.007-1.051-.231-1.073-.879s.423-.913,1.019-.917q2.149-.016,4.3,0c.6,0,1.029.249,1.012.916s-.465.88-1.056.884C2988.024-1936.672,2987.308-1936.676,2986.591-1936.676Z" transform="translate(-2962.313 1972.474)" fill="#12263f"/>
      <path id="Trazado_184365" data-name="Trazado 184365" d="M2984.963-1918.121c-.758,0-1.45-.025-1.454-.886,0-.827.646-.939,1.316-.947s1.325.109,1.346.92C2986.194-1918.18,2985.517-1918.107,2984.963-1918.121Z" transform="translate(-2962.348 1957.574)" fill="#12263f"/>
      <path id="Trazado_184366" data-name="Trazado 184366" d="M3003.622-1918.1c-.657,0-1.312-.065-1.276-.941.035-.853.7-.888,1.347-.89.668,0,1.3.112,1.278.96C3004.948-1918.1,3004.259-1918.11,3003.622-1918.1Z" transform="translate(-2977.495 1957.559)" fill="#12263f"/>
    </g>
  </g>
</svg>
