<svg id="Icon" xmlns="http://www.w3.org/2000/svg" xmlns:xlink="http://www.w3.org/1999/xlink" width="76.1" height="76.1" viewBox="0 0 76.1 76.1">
  <defs>
    <clipPath id="clip-path">
      <rect id="Rectángulo_52826" data-name="Rectángulo 52826" width="46.081" height="46.33" fill="#12263f"/>
    </clipPath>
  </defs>
  <ellipse id="Base" cx="38.05" cy="38.05" rx="38.05" ry="38.05" transform="translate(0 0)" fill="#fff"/>
  <g id="Grupo_173673" data-name="Grupo 173673" transform="translate(15.733 14.856)">
    <g id="Grupo_173672" data-name="Grupo 173672" clip-path="url(#clip-path)">
      <path id="Trazado_214806" data-name="Trazado 214806" d="M0,36.848c.077-.376.145-.754.234-1.128a9.649,9.649,0,0,1,9.528-7.508h.624V25.261h2.986V22.443c0-.757,0-.756.738-.946.328-.084.655-.171,1.03-.269l-.9-1.527,4-4,1.521.9c.128-.491.274-.946.359-1.412.054-.3.18-.366.462-.363,1.377.013,2.754.006,4.131.006h.534V10.4h1.494a9.676,9.676,0,0,1,5.307-7.9A9.335,9.335,0,0,1,38.8,1.756,9.75,9.75,0,0,1,46.035,12a9.758,9.758,0,0,1-10.358,8.786v2.951H32.682c0,1.067-.024,2.084.012,3.1.014.4-.126.542-.487.608-.423.078-.838.2-1.3.317l.883,1.492-4.016,4.006L26.3,32.382c-.109.435-.231.838-.309,1.249-.073.387-.223.547-.664.536-1.484-.037-2.969-.014-4.505-.014v4.441h-1.49c-.1.533-.176,1.033-.292,1.523A9.647,9.647,0,0,1,.09,39.2,2.137,2.137,0,0,0,0,38.891V36.848M26.772,22.231h7.374V11.884H26.772ZM11.9,37.094h7.374V26.748H11.9ZM25.257,23.761c0-.643-.023-1.228.009-1.809a.627.627,0,0,0-.384-.652,3.645,3.645,0,0,0-5.412,3.958H20.8c0,.632.021,1.218-.008,1.8a.594.594,0,0,0,.363.616,3.743,3.743,0,0,0,2.629.448,3.657,3.657,0,0,0,2.832-4.364ZM20.83,29.253v3.4h3.814a.613.613,0,0,0,.05-.1c.1-.419.205-.839.311-1.258a.931.931,0,0,1,1.41-.592c.406.242.813.483,1.253.743.461-.474.894-.915,1.322-1.359.309-.321.816-.622.862-.98s-.368-.773-.593-1.156a.936.936,0,0,1,.6-1.48c.441-.116.885-.221,1.311-.327V23.791H28.214a5.277,5.277,0,0,1-7.384,5.462m.559-12.918c-.139.542-.264,1.051-.4,1.556a.493.493,0,0,1-.18.291c-.422.224-.84.445-1.307.039a4.113,4.113,0,0,0-.874-.521.389.389,0,0,0-.351.014c-.731.709-1.445,1.435-2.176,2.168.286.48.561.926.82,1.381a.988.988,0,0,1-.506,1.195c-.515.141-1.032.271-1.529.4v2.355h2.967a5.263,5.263,0,0,1,7.368-5.47v-3.41ZM5.265,40.51V35.229l-2.884-.974a7.681,7.681,0,0,0,.026,7.218l2.857-.963m38.4-25.779a7.82,7.82,0,0,0,0-7.22l-2.872.972v5.275l2.873.973M6.884,40.227c.95-.044,1.859-.118,2.767-.118s1.843.075,2.827.12l.131-1.627H10.376V35.628c-.619,0-1.191.019-1.762-.005s-1.159-.095-1.733-.144a14.393,14.393,0,0,0,0,4.749M33.569,8.806l-.119,1.575h2.206V13.31l3.546.171a16.607,16.607,0,0,0,.008-4.674Zm5.4-1.6a8.344,8.344,0,0,0-1.6-3.711,1.124,1.124,0,0,0-1.928-.009,8.1,8.1,0,0,0-1.6,3.72,17,17,0,0,0,5.135,0M7.1,41.78A9.674,9.674,0,0,0,8.187,44.8a4.151,4.151,0,0,0,.687.866,1.006,1.006,0,0,0,1.56.007,7.652,7.652,0,0,0,1.793-3.9,17.2,17.2,0,0,0-5.129,0m28.57-22.556a1.5,1.5,0,0,0,1.444-.237,7.556,7.556,0,0,0,1.867-4.017l-3.31-.156ZM10.381,29.772a1.494,1.494,0,0,0-1.6.37,8.149,8.149,0,0,0-1.706,3.874l3.3.162ZM29.088,7.5a7.23,7.23,0,0,0-.778,2.858h3.622L32.073,8.5,29.088,7.5M14.12,38.633l-.136,1.851,3.057,1.037.829-2.888Zm25.2-19.9a8.181,8.181,0,0,0,3.563-2.695l-2.336-.77-1.227,3.465M12.581,45.479a8.2,8.2,0,0,0,3.563-2.69l-2.333-.778-1.23,3.468M6.725,30.268a8.172,8.172,0,0,0-3.562,2.679l2.336.775,1.225-3.455m32.6-26.754,1.233,3.47,2.33-.785a8.193,8.193,0,0,0-3.562-2.685m-5.857.01A8,8,0,0,0,29.913,6.2l2.329.779,1.225-3.457M5.5,42.007l-2.326.788A8.119,8.119,0,0,0,6.728,45.47L5.5,42.007" transform="translate(0 -1.309)" fill="#12263f"/>
      <path id="Trazado_214807" data-name="Trazado 214807" d="M33.439,17.961H31.956v-.5q0-5.247,0-10.494a3.688,3.688,0,0,1,3.861-3.843q4.851,0,9.7,0h.544V0l7.581,7.58H36.422v5.912H34.928v-.5c0-1.718.044-3.438-.017-5.154A1.647,1.647,0,0,1,36.69,6.081c4.3.044,8.6.018,12.906.018h.461L47.575,3.608v1H35.97a2.284,2.284,0,0,0-2.531,2.523q0,5.154,0,10.309Z" transform="translate(-28.983)" fill="#12263f"/>
      <path id="Trazado_214808" data-name="Trazado 214808" d="M234.149,317.38l2.533,2.537V318.87h11.58a2.291,2.291,0,0,0,2.553-2.549q0-5.131,0-10.261v-.534H252.3v.465q0,5.247,0,10.493a3.694,3.694,0,0,1-3.883,3.868q-4.828,0-9.655,0h-.55v3.085l-7.536-7.539h17.16v-5.919h1.493v.438q0,2.67,0,5.34a1.478,1.478,0,0,1-1.647,1.624h-13.53" transform="translate(-209.216 -277.107)" fill="#12263f"/>
      <rect id="Rectángulo_52817" data-name="Rectángulo 52817" width="1.419" height="1.441" transform="translate(5.98 18.005)" fill="#12263f"/>
      <rect id="Rectángulo_52818" data-name="Rectángulo 52818" width="1.425" height="1.426" transform="translate(38.664 26.935)" fill="#12263f"/>
      <rect id="Rectángulo_52819" data-name="Rectángulo 52819" width="1.414" height="1.439" transform="translate(5.982 15.049)" fill="#12263f"/>
      <rect id="Rectángulo_52820" data-name="Rectángulo 52820" width="1.425" height="1.426" transform="translate(38.649 29.899)" fill="#12263f"/>
      <rect id="Rectángulo_52821" data-name="Rectángulo 52821" width="4.411" height="1.425" transform="translate(28.249 18.012)" fill="#12263f"/>
      <rect id="Rectángulo_52822" data-name="Rectángulo 52822" width="4.394" height="1.427" transform="translate(28.25 15.039)" fill="#12263f"/>
      <rect id="Rectángulo_52823" data-name="Rectángulo 52823" width="4.411" height="1.425" transform="translate(28.251 12.076)" fill="#12263f"/>
      <path id="Trazado_214809" data-name="Trazado 214809" d="M143.984,289.491h4.4v4.4h-4.4Zm2.931,1.493h-1.448v1.428h1.448Z" transform="translate(-130.591 -262.563)" fill="#12263f"/>
      <rect id="Rectángulo_52824" data-name="Rectángulo 52824" width="4.394" height="1.425" transform="translate(13.393 32.871)" fill="#12263f"/>
      <rect id="Rectángulo_52825" data-name="Rectángulo 52825" width="1.433" height="1.425" transform="translate(37.171 9.096)" fill="#12263f"/>
    </g>
  </g>
</svg>
