<svg xmlns="http://www.w3.org/2000/svg" xmlns:xlink="http://www.w3.org/1999/xlink" width="175.793" height="248.611" viewBox="0 0 175.793 248.611">
  <defs>
    <linearGradient id="linear-gradient" x1="0.5" x2="0.5" y2="1" gradientUnits="objectBoundingBox">
      <stop offset="0" stop-color="#f5f5f5"/>
      <stop offset="0.25" stop-color="#f5f5f5"/>
      <stop offset="1" stop-color="#a7b3cf"/>
    </linearGradient>
    <radialGradient id="radial-gradient" cx="0.076" cy="0.019" r="1.465" gradientTransform="translate(0.001)" gradientUnits="objectBoundingBox">
      <stop offset="0" stop-color="#f6f6f7"/>
      <stop offset="0.477" stop-color="#f9f9fa"/>
      <stop offset="0.715" stop-color="#fff"/>
    </radialGradient>
    <filter id="Trazado_40937" x="37.93" y="0.788" width="106.248" height="106.141" filterUnits="userSpaceOnUse">
      <feOffset dy="7" input="SourceAlpha"/>
      <feGaussianBlur stdDeviation="2.5" result="blur"/>
      <feFlood flood-opacity="0.102"/>
      <feComposite operator="in" in2="blur"/>
      <feComposite in="SourceGraphic"/>
    </filter>
    <clipPath id="clip-path">
      <rect id="Rect치ngulo_52720" data-name="Rect치ngulo 52720" width="38.493" height="30.015" fill="#12263f"/>
    </clipPath>
  </defs>
  <g id="Grupo_173816" data-name="Grupo 173816" transform="translate(-272.622 -798.533)">
    <g id="Grupo_173690" data-name="Grupo 173690" transform="translate(272.622 847.131)">
      <rect id="Rect치ngulo_42830" data-name="Rect치ngulo 42830" width="175.793" height="200.013" rx="10" transform="translate(0 0)" fill="url(#linear-gradient)"/>
      <path id="Trazado_214887" data-name="Trazado 214887" d="M2.82,10.547V15H1.32V3.625h4.2a4.215,4.215,0,0,1,2.926.953A3.231,3.231,0,0,1,9.5,7.1,3.189,3.189,0,0,1,8.465,9.652a4.4,4.4,0,0,1-2.965.895Zm0-1.227h2.7a2.7,2.7,0,0,0,1.844-.567A2.075,2.075,0,0,0,8,7.113a2.143,2.143,0,0,0-.641-1.628A2.525,2.525,0,0,0,5.6,4.852H2.82ZM10.7,10.7a4.993,4.993,0,0,1,.488-2.234A3.643,3.643,0,0,1,12.551,6.93a3.7,3.7,0,0,1,1.988-.539,3.565,3.565,0,0,1,2.793,1.2,4.6,4.6,0,0,1,1.066,3.18v.1a5.036,5.036,0,0,1-.473,2.215,3.589,3.589,0,0,1-1.352,1.527,3.743,3.743,0,0,1-2.02.547,3.556,3.556,0,0,1-2.785-1.2A4.575,4.575,0,0,1,10.7,10.8Zm1.453.172a3.616,3.616,0,0,0,.652,2.258,2.211,2.211,0,0,0,3.5-.012,3.955,3.955,0,0,0,.648-2.418,3.61,3.61,0,0,0-.66-2.254,2.1,2.1,0,0,0-1.754-.863,2.075,2.075,0,0,0-1.727.852A3.925,3.925,0,0,0,12.156,10.867Zm9.422-4.32.047,1.063a3.08,3.08,0,0,1,2.531-1.219q2.68,0,2.7,3.023V15H25.414V9.406A1.946,1.946,0,0,0,25,8.055a1.675,1.675,0,0,0-1.277-.437,2.086,2.086,0,0,0-1.234.375,2.546,2.546,0,0,0-.828.984V15H20.211V6.547Zm10.969,8.609a3.693,3.693,0,0,1-2.8-1.129,4.19,4.19,0,0,1-1.078-3.02v-.266a5.073,5.073,0,0,1,.48-2.246A3.748,3.748,0,0,1,30.5,6.949a3.378,3.378,0,0,1,1.871-.559A3.166,3.166,0,0,1,34.93,7.477a4.7,4.7,0,0,1,.914,3.109v.6H30.117a3,3,0,0,0,.73,2.02,2.3,2.3,0,0,0,1.777.77,2.517,2.517,0,0,0,1.3-.312,3.259,3.259,0,0,0,.93-.828l.883.688A3.55,3.55,0,0,1,32.547,15.156Zm-.18-7.578a1.928,1.928,0,0,0-1.469.637A3.1,3.1,0,0,0,30.164,10H34.4V9.891A2.753,2.753,0,0,0,33.8,8.184,1.815,1.815,0,0,0,32.367,7.578Zm9.234.266a4.331,4.331,0,0,0-.711-.055A1.9,1.9,0,0,0,38.961,9v6H37.516V6.547h1.406l.023.977a2.251,2.251,0,0,1,2.016-1.133A1.477,1.477,0,0,1,41.6,6.5Zm6.25,4.914a1.064,1.064,0,0,0-.441-.91,4.249,4.249,0,0,0-1.539-.559,7.277,7.277,0,0,1-1.742-.562,2.479,2.479,0,0,1-.953-.781,1.869,1.869,0,0,1-.309-1.078,2.193,2.193,0,0,1,.879-1.758,3.432,3.432,0,0,1,2.246-.719,3.532,3.532,0,0,1,2.332.742,2.357,2.357,0,0,1,.895,1.9H47.766a1.3,1.3,0,0,0-.5-1.023,1.888,1.888,0,0,0-1.27-.43,1.976,1.976,0,0,0-1.234.344,1.082,1.082,0,0,0-.445.9.877.877,0,0,0,.414.789,5.1,5.1,0,0,0,1.5.508,7.8,7.8,0,0,1,1.754.578,2.558,2.558,0,0,1,1,.809,1.988,1.988,0,0,1,.324,1.152,2.163,2.163,0,0,1-.906,1.816,3.8,3.8,0,0,1-2.352.684,4.257,4.257,0,0,1-1.8-.359,2.922,2.922,0,0,1-1.223-1,2.42,2.42,0,0,1-.441-1.395h1.445a1.5,1.5,0,0,0,.582,1.152,2.258,2.258,0,0,0,1.434.426,2.331,2.331,0,0,0,1.316-.332A1.02,1.02,0,0,0,47.852,12.758Zm6.836,2.4a3.693,3.693,0,0,1-2.8-1.129,4.19,4.19,0,0,1-1.078-3.02v-.266a5.073,5.073,0,0,1,.48-2.246,3.748,3.748,0,0,1,1.344-1.547,3.378,3.378,0,0,1,1.871-.559A3.166,3.166,0,0,1,57.07,7.477a4.7,4.7,0,0,1,.914,3.109v.6H52.258a3,3,0,0,0,.73,2.02,2.3,2.3,0,0,0,1.777.77,2.517,2.517,0,0,0,1.3-.312,3.259,3.259,0,0,0,.93-.828l.883.688A3.55,3.55,0,0,1,54.688,15.156Zm-.18-7.578a1.928,1.928,0,0,0-1.469.637A3.1,3.1,0,0,0,52.3,10h4.234V9.891a2.753,2.753,0,0,0-.594-1.707A1.815,1.815,0,0,0,54.508,7.578Zm12.617,7.578a3.693,3.693,0,0,1-2.8-1.129,4.19,4.19,0,0,1-1.078-3.02v-.266A5.073,5.073,0,0,1,63.73,8.5a3.748,3.748,0,0,1,1.344-1.547,3.378,3.378,0,0,1,1.871-.559,3.166,3.166,0,0,1,2.563,1.086,4.7,4.7,0,0,1,.914,3.109v.6H64.7a3,3,0,0,0,.73,2.02,2.3,2.3,0,0,0,1.777.77,2.517,2.517,0,0,0,1.3-.312,3.259,3.259,0,0,0,.93-.828l.883.688A3.55,3.55,0,0,1,67.125,15.156Zm-.18-7.578a1.928,1.928,0,0,0-1.469.637A3.1,3.1,0,0,0,64.742,10h4.234V9.891a2.753,2.753,0,0,0-.594-1.707A1.815,1.815,0,0,0,66.945,7.578Zm6.516-1.031.047,1.063a3.08,3.08,0,0,1,2.531-1.219q2.68,0,2.7,3.023V15H77.3V9.406a1.946,1.946,0,0,0-.418-1.352A1.675,1.675,0,0,0,75.6,7.617a2.086,2.086,0,0,0-1.234.375,2.546,2.546,0,0,0-.828.984V15H72.094V6.547Zm14.93,8.609a3.693,3.693,0,0,1-2.8-1.129,4.19,4.19,0,0,1-1.078-3.02v-.266A5.073,5.073,0,0,1,85,8.5,3.748,3.748,0,0,1,86.34,6.949a3.378,3.378,0,0,1,1.871-.559,3.166,3.166,0,0,1,2.563,1.086,4.7,4.7,0,0,1,.914,3.109v.6H85.961a3,3,0,0,0,.73,2.02,2.3,2.3,0,0,0,1.777.77,2.517,2.517,0,0,0,1.3-.312,3.259,3.259,0,0,0,.93-.828l.883.688A3.55,3.55,0,0,1,88.391,15.156Zm-.18-7.578a1.928,1.928,0,0,0-1.469.637A3.1,3.1,0,0,0,86.008,10h4.234V9.891a2.753,2.753,0,0,0-.594-1.707A1.815,1.815,0,0,0,88.211,7.578ZM94.93,15H93.484V3H94.93Zm7.844,0h-1.445V3h1.445Zm7.531-.836a3.07,3.07,0,0,1-2.477.992,2.628,2.628,0,0,1-2.059-.785,3.4,3.4,0,0,1-.715-2.324v-5.5H106.5v5.461q0,1.922,1.563,1.922a2.163,2.163,0,0,0,2.2-1.234V6.547h1.445V15h-1.375Zm3.258-3.461a4.968,4.968,0,0,1,.914-3.145,3.151,3.151,0,0,1,4.836-.074l.07-.937h1.32V14.8a3.439,3.439,0,0,1-.973,2.586,3.589,3.589,0,0,1-2.613.945,4.348,4.348,0,0,1-1.789-.391,3.08,3.08,0,0,1-1.336-1.07l.75-.867a2.826,2.826,0,0,0,2.273,1.148,2.214,2.214,0,0,0,1.645-.594,2.269,2.269,0,0,0,.59-1.672v-.727a2.971,2.971,0,0,1-2.367,1,2.887,2.887,0,0,1-2.4-1.2A5.224,5.224,0,0,1,113.563,10.7Zm1.453.164a3.79,3.79,0,0,0,.586,2.246,1.9,1.9,0,0,0,1.641.816,2.117,2.117,0,0,0,2.008-1.242V8.828a2.142,2.142,0,0,0-1.992-1.211,1.921,1.921,0,0,0-1.648.82A4.128,4.128,0,0,0,115.016,10.867ZM128.1,15a3.036,3.036,0,0,1-.2-.891,3.225,3.225,0,0,1-2.406,1.047,2.984,2.984,0,0,1-2.051-.707,2.288,2.288,0,0,1-.8-1.793,2.39,2.39,0,0,1,1-2.051,4.733,4.733,0,0,1,2.824-.73h1.406V9.211A1.623,1.623,0,0,0,127.422,8a1.821,1.821,0,0,0-1.336-.449,2.108,2.108,0,0,0-1.3.391,1.151,1.151,0,0,0-.523.945h-1.453a2,2,0,0,1,.449-1.223,3.066,3.066,0,0,1,1.219-.934,4.1,4.1,0,0,1,1.691-.344,3.342,3.342,0,0,1,2.289.73,2.635,2.635,0,0,1,.859,2.012v3.891a4.757,4.757,0,0,0,.3,1.852V15Zm-2.4-1.1a2.54,2.54,0,0,0,1.289-.352,2.127,2.127,0,0,0,.883-.914V10.9h-1.133q-2.656,0-2.656,1.555a1.316,1.316,0,0,0,.453,1.063A1.742,1.742,0,0,0,125.7,13.9Zm9.969-6.055a4.331,4.331,0,0,0-.711-.055A1.9,1.9,0,0,0,133.031,9v6h-1.445V6.547h1.406l.023.977a2.251,2.251,0,0,1,2.016-1.133,1.477,1.477,0,0,1,.641.109ZM.742,30.7a4.952,4.952,0,0,1,.922-3.129,2.915,2.915,0,0,1,2.414-1.184A2.932,2.932,0,0,1,6.43,27.406V23H7.875V35H6.547l-.07-.906a2.943,2.943,0,0,1-2.414,1.063,2.887,2.887,0,0,1-2.395-1.2,5.008,5.008,0,0,1-.926-3.141Zm1.445.164a3.749,3.749,0,0,0,.594,2.25,1.92,1.92,0,0,0,1.641.813A2.108,2.108,0,0,0,6.43,32.7V28.813a2.125,2.125,0,0,0-1.992-1.2,1.929,1.929,0,0,0-1.656.82A4.128,4.128,0,0,0,2.188,30.867Zm11.438,4.289a3.693,3.693,0,0,1-2.8-1.129,4.19,4.19,0,0,1-1.078-3.02v-.266a5.073,5.073,0,0,1,.48-2.246,3.748,3.748,0,0,1,1.344-1.547,3.378,3.378,0,0,1,1.871-.559,3.166,3.166,0,0,1,2.563,1.086,4.7,4.7,0,0,1,.914,3.109v.6H11.2a3,3,0,0,0,.73,2.02,2.3,2.3,0,0,0,1.777.77,2.517,2.517,0,0,0,1.3-.312,3.258,3.258,0,0,0,.93-.828l.883.688A3.55,3.55,0,0,1,13.625,35.156Zm-.18-7.578a1.928,1.928,0,0,0-1.469.637A3.1,3.1,0,0,0,11.242,30h4.234v-.109a2.753,2.753,0,0,0-.594-1.707A1.815,1.815,0,0,0,13.445,27.578ZM20.164,35H18.719V23h1.445Zm5.891-4.3a4.993,4.993,0,0,1,.488-2.234A3.643,3.643,0,0,1,27.9,26.93a3.7,3.7,0,0,1,1.988-.539,3.565,3.565,0,0,1,2.793,1.2,4.6,4.6,0,0,1,1.066,3.18v.1a5.036,5.036,0,0,1-.473,2.215,3.589,3.589,0,0,1-1.352,1.527,3.743,3.743,0,0,1-2.02.547,3.556,3.556,0,0,1-2.785-1.2A4.575,4.575,0,0,1,26.055,30.8Zm1.453.172a3.616,3.616,0,0,0,.652,2.258,2.211,2.211,0,0,0,3.5-.012A3.955,3.955,0,0,0,32.3,30.7a3.61,3.61,0,0,0-.66-2.254,2.1,2.1,0,0,0-1.754-.863,2.075,2.075,0,0,0-1.727.852A3.925,3.925,0,0,0,27.508,30.867ZM37.523,24.5v2.047H39.1v1.117H37.523v5.249a1.173,1.173,0,0,0,.211.763.888.888,0,0,0,.719.254,3.5,3.5,0,0,0,.688-.094V35a4.215,4.215,0,0,1-1.109.155,1.8,1.8,0,0,1-1.461-.586,2.517,2.517,0,0,1-.492-1.664V27.664H34.539V26.547h1.539V24.5Zm7.352,3.344a4.331,4.331,0,0,0-.711-.055A1.9,1.9,0,0,0,42.234,29v6H40.789V26.547H42.2l.023.977a2.251,2.251,0,0,1,2.016-1.133,1.477,1.477,0,0,1,.641.109Zm.789,2.852a4.993,4.993,0,0,1,.488-2.234,3.643,3.643,0,0,1,1.359-1.531,3.7,3.7,0,0,1,1.988-.539,3.565,3.565,0,0,1,2.793,1.2,4.6,4.6,0,0,1,1.066,3.18v.1a5.036,5.036,0,0,1-.473,2.215,3.589,3.589,0,0,1-1.352,1.527,3.743,3.743,0,0,1-2.02.547,3.556,3.556,0,0,1-2.785-1.2A4.575,4.575,0,0,1,45.664,30.8Zm1.453.172a3.616,3.616,0,0,0,.652,2.258,2.211,2.211,0,0,0,3.5-.012,3.955,3.955,0,0,0,.648-2.418,3.61,3.61,0,0,0-.66-2.254,2.1,2.1,0,0,0-1.754-.863,2.075,2.075,0,0,0-1.727.852A3.925,3.925,0,0,0,47.117,30.867ZM55.2,34.242a.905.905,0,0,1,.223-.625.848.848,0,0,1,.668-.25.874.874,0,0,1,.676.25.887.887,0,0,1,.23.625.839.839,0,0,1-.23.6.89.89,0,0,1-.676.242.8.8,0,0,1-.891-.844Z" transform="translate(20.214 98.943)" fill="#12263f"/>
      <path id="Trazado_214886" data-name="Trazado 214886" d="M7.859,10.055h-4.5v3.063H8.641V15H1.016V3.625H8.625v1.9H3.359V8.234h4.5Zm4.125-3.508.07.945a2.971,2.971,0,0,1,2.43-1.1A2.255,2.255,0,0,1,16.727,7.68a2.9,2.9,0,0,1,2.539-1.289,2.521,2.521,0,0,1,2.047.8,3.681,3.681,0,0,1,.672,2.41V15H19.719V9.6a1.616,1.616,0,0,0-.281-1.053,1.245,1.245,0,0,0-.992-.333,1.409,1.409,0,0,0-1.406.971L17.047,15H14.789V9.6A1.6,1.6,0,0,0,14.5,8.54a1.257,1.257,0,0,0-.984-.329,1.463,1.463,0,0,0-1.391.8V15H9.867V6.547Zm19.344,4.3a5.07,5.07,0,0,1-.887,3.129,2.843,2.843,0,0,1-2.395,1.176,2.633,2.633,0,0,1-2.07-.891V18.25H23.719V6.547h2.094l.078.828a2.654,2.654,0,0,1,2.141-.984,2.862,2.862,0,0,1,2.43,1.156,5.207,5.207,0,0,1,.867,3.188Zm-2.258-.172a3.345,3.345,0,0,0-.418-1.826,1.36,1.36,0,0,0-1.215-.643,1.478,1.478,0,0,0-1.461.815V12.5a1.5,1.5,0,0,0,1.477.839Q29.07,13.336,29.07,10.679ZM37.625,15a2.507,2.507,0,0,1-.227-.758,2.732,2.732,0,0,1-2.133.914,3,3,0,0,1-2.059-.719,2.312,2.312,0,0,1-.816-1.812,2.389,2.389,0,0,1,1-2.062,4.915,4.915,0,0,1,2.879-.727H37.3V9.352a1.393,1.393,0,0,0-.3-.937,1.183,1.183,0,0,0-.949-.352,1.345,1.345,0,0,0-.895.273.929.929,0,0,0-.324.75H32.578a2.268,2.268,0,0,1,.453-1.359,3,3,0,0,1,1.281-.98,4.669,4.669,0,0,1,1.859-.355,3.689,3.689,0,0,1,2.48.785,2.747,2.747,0,0,1,.918,2.207v3.664a4.041,4.041,0,0,0,.336,1.82V15Zm-1.867-1.57a1.945,1.945,0,0,0,.922-.223,1.462,1.462,0,0,0,.625-.6V11.156h-.844q-1.7,0-1.8,1.172l-.008.133a.9.9,0,0,0,.3.7A1.153,1.153,0,0,0,35.758,13.43Zm8.25-8.961V6.547h1.445V8.2H44.008v4.219a1.007,1.007,0,0,0,.18.672.9.9,0,0,0,.688.2,3.6,3.6,0,0,0,.664-.055v1.711a4.648,4.648,0,0,1-1.367.2,2.156,2.156,0,0,1-2.422-2.4V8.2H40.516V6.547H41.75V4.469ZM49.094,15H46.828V6.547h2.266ZM46.7,4.359a1.112,1.112,0,0,1,.34-.836,1.465,1.465,0,0,1,1.848,0,1.105,1.105,0,0,1,.344.836,1.108,1.108,0,0,1-.348.844,1.448,1.448,0,0,1-1.836,0A1.108,1.108,0,0,1,46.7,4.359Zm6.852,8.82H57.68V15H50.664V13.625l3.977-5.258H50.781V6.547h6.773v1.33ZM63.992,15a2.507,2.507,0,0,1-.227-.758,2.732,2.732,0,0,1-2.133.914,3,3,0,0,1-2.059-.719,2.312,2.312,0,0,1-.816-1.812,2.389,2.389,0,0,1,1-2.062,4.915,4.915,0,0,1,2.879-.727h1.039V9.352a1.393,1.393,0,0,0-.3-.937,1.183,1.183,0,0,0-.949-.352,1.345,1.345,0,0,0-.895.273.929.929,0,0,0-.324.75H58.945A2.268,2.268,0,0,1,59.4,7.727a3,3,0,0,1,1.281-.98,4.669,4.669,0,0,1,1.859-.355,3.689,3.689,0,0,1,2.48.785,2.747,2.747,0,0,1,.918,2.207v3.664a4.041,4.041,0,0,0,.336,1.82V15Zm-1.867-1.57a1.945,1.945,0,0,0,.922-.223,1.462,1.462,0,0,0,.625-.6V11.156h-.844q-1.7,0-1.8,1.172l-.008.133a.9.9,0,0,0,.3.7A1.153,1.153,0,0,0,62.125,13.43Zm10.3-4.766a6.134,6.134,0,0,0-.812-.062,1.654,1.654,0,0,0-1.68.867V15H67.672V6.547H69.8l.063,1.008A2.092,2.092,0,0,1,71.75,6.391a2.366,2.366,0,0,1,.7.1Z" transform="translate(79.793 64.366)" fill="#12263f"/>
      <path id="Trazado_214885" data-name="Trazado 214885" d="M26.343-14.7q0,7.373-3.052,11.279T14.355.488q-5.811,0-8.887-3.833T2.319-14.331v-6.543q0-7.446,3.088-11.3t8.9-3.857q5.811,0,8.887,3.821T26.343-21.24Zm-7.056-7.194q0-4.424-1.208-6.44a4.084,4.084,0,0,0-3.772-2.016,4.011,4.011,0,0,0-3.674,1.918,12.182,12.182,0,0,0-1.257,6v8.651a13.664,13.664,0,0,0,1.184,6.464,4.03,4.03,0,0,0,3.8,2.114,3.962,3.962,0,0,0,3.735-2.028,13.337,13.337,0,0,0,1.2-6.207ZM48.242,0H41.187V-27.235l-8.423,2.6v-5.688L47.485-35.6h.757Z" transform="translate(17.022 89.175)" fill="#12263f" opacity="0.273"/>
    </g>
    <g id="Grupo_173695" data-name="Grupo 173695" transform="translate(316.872 798.533)">
      <g id="Grupo_18423" data-name="Grupo 18423" transform="translate(0 0)">
        <g id="Grupo_18421" data-name="Grupo 18421">
          <g id="Grupo_18420" data-name="Grupo 18420">
            <g id="Grupo_18419" data-name="Grupo 18419">
              <path id="Trazado_40936" data-name="Trazado 40936" d="M287.052,2191.935a46.214,46.214,0,1,1-46.214-46.213A46.214,46.214,0,0,1,287.052,2191.935Z" transform="translate(-194.623 -2145.722)" fill="#fff"/>
            </g>
          </g>
        </g>
        <g transform="matrix(1, 0, 0, 1, -44.25, 0)" filter="url(#Trazado_40937)">
          <path id="Trazado_40937-2" data-name="Trazado 40937" d="M286.725,2191.579a46.214,46.214,0,1,0-46.214,46.215A46.03,46.03,0,0,0,286.725,2191.579Z" transform="translate(-150.05 -2145.37)" fill="url(#radial-gradient)"/>
        </g>
        <path id="Trazado_40938" data-name="Trazado 40938" d="M272.938,2188.748a35.275,35.275,0,1,0-35.275,35.275A35.145,35.145,0,0,0,272.938,2188.748Z" transform="translate(-191.308 -2142.381)" fill="none" stroke="#12263f" stroke-miterlimit="10" stroke-width="4"/>
        <g id="Grupo_18422" data-name="Grupo 18422" transform="translate(8.187 25.946)">
          <path id="Trazado_40939" data-name="Trazado 40939" d="M280.114,2164.489a46.22,46.22,0,0,1-79.569,46.022,46.073,46.073,0,0,0,79.569-46.022Z" transform="translate(-200.545 -2164.489)" fill="#eceef0"/>
        </g>
      </g>
      <g id="Grupo_172451" data-name="Grupo 172451" transform="translate(26.968 34.081)">
        <g id="Grupo_172450" data-name="Grupo 172450" transform="translate(0 0)" clip-path="url(#clip-path)">
          <path id="Trazado_212409" data-name="Trazado 212409" d="M28.074,2.2A8.209,8.209,0,0,1,33,16.984L19.247,27.267,5.5,16.984A8.209,8.209,0,1,1,16.849,5.319l.671.848L19.247,8.35l1.727-2.183.671-.848A8.153,8.153,0,0,1,28.074,2.2m0-2.2a10.326,10.326,0,0,0-8.157,3.953l-.671.848-.671-.848a10.41,10.41,0,1,0-14.4,14.794l15.07,11.269,15.07-11.269A10.41,10.41,0,0,0,36.952,4.96h0A10.353,10.353,0,0,0,28.074,0" transform="translate(0 0)" fill="#12263f"/>
        </g>
      </g>
    </g>
  </g>
</svg>
