<svg id="Grupo_152535" data-name="Grupo 152535" xmlns="http://www.w3.org/2000/svg" xmlns:xlink="http://www.w3.org/1999/xlink" width="106.881" height="106.881" viewBox="0 0 106.881 106.881">
  <defs>
    <radialGradient id="radial-gradient" cx="0.076" cy="0.019" r="1.465" gradientTransform="translate(0.001)" gradientUnits="objectBoundingBox">
      <stop offset="0" stop-color="#f6f6f7"/>
      <stop offset="0.477" stop-color="#f9f9fa"/>
      <stop offset="0.715" stop-color="#fff"/>
    </radialGradient>
  </defs>
  <g id="Grupo_18423" data-name="Grupo 18423" transform="translate(0 0)">
    <g id="Grupo_18421" data-name="Grupo 18421">
      <g id="Grupo_18420" data-name="Grupo 18420">
        <g id="Grupo_18419" data-name="Grupo 18419">
          <path id="Trazado_40936" data-name="Trazado 40936" d="M301.5,2199.16a53.441,53.441,0,1,1-53.44-53.439A53.439,53.439,0,0,1,301.5,2199.16Z" transform="translate(-194.623 -2145.721)" fill="#fff"/>
        </g>
      </g>
    </g>
    <path id="Trazado_40937" data-name="Trazado 40937" d="M300.993,2198.6a53.439,53.439,0,1,0-53.44,53.442A53.229,53.229,0,0,0,300.993,2198.6Z" transform="translate(-194.112 -2145.164)" fill="url(#radial-gradient)"/>
    <path id="Trazado_40938" data-name="Trazado 40938" d="M283.829,2194.109a40.791,40.791,0,1,0-40.791,40.791A40.639,40.639,0,0,0,283.829,2194.109Z" transform="translate(-189.435 -2140.492)" fill="none" stroke="#00223d" stroke-miterlimit="10" stroke-width="4"/>
    <g id="Grupo_18422" data-name="Grupo 18422" transform="translate(9.468 30.003)">
      <path id="Trazado_40939" data-name="Trazado 40939" d="M292.555,2164.488a53.447,53.447,0,0,1-92.01,53.219,53.277,53.277,0,0,0,92.01-53.219Z" transform="translate(-200.545 -2164.488)" fill="#eceef0"/>
    </g>
  </g>
  <g id="mRGiiG.tif" transform="translate(34.587 28.321)">
    <g id="Grupo_143140" data-name="Grupo 143140" transform="translate(0 0)">
      <path id="Trazado_184343" data-name="Trazado 184343" d="M3457.466-2144.41a3,3,0,0,1-1.774-1.253,2.76,2.76,0,0,1,.373-3.4,2.655,2.655,0,0,1-.376-2.6,2.16,2.16,0,0,1,.541-.833.7.7,0,0,0,.249-.841,22.034,22.034,0,0,0-1.382-3.306c-1.213-2.032-2.659-3.927-3.865-5.963a37.859,37.859,0,0,1-5.143-14.6,17.508,17.508,0,0,1,2.05-11.065,17.97,17.97,0,0,1,6.489-6.648,20.979,20.979,0,0,1,10.7-2.976c.742-.013,1.069.343,1.069,1.18q0,6.612,0,13.223v.68h3.583v-.973c0-1.062-.011-2.125.007-3.186a.583.583,0,0,0-.367-.608,2.606,2.606,0,0,1-1.337-3,2.684,2.684,0,0,1,2.618-2.009,2.683,2.683,0,0,1,2.56,2.08,2.7,2.7,0,0,1-1.316,2.937c-.157.092-.364.281-.366.428-.028,1.431-.017,2.863-.017,4.379.51,0,.98,0,1.45,0,.938,0,1.221.293,1.226,1.247,0,.455,0,.91,0,1.392h2.662c0-.9.013-1.791-.017-2.684,0-.111-.226-.237-.369-.317a2.661,2.661,0,0,1-1.307-2.979,2.683,2.683,0,0,1,2.551-2.026,2.665,2.665,0,0,1,2.6,1.958,2.626,2.626,0,0,1-1.32,3.058.543.543,0,0,0-.347.567c.016,1.009.011,2.018,0,3.027-.005.886-.332,1.208-1.226,1.212-1.057.005-2.114,0-3.2,0v3.546h1.908c1.044,0,2.088-.009,3.132.005a.579.579,0,0,0,.61-.359,2.625,2.625,0,0,1,3.063-1.312,2.646,2.646,0,0,1,1.918,2.778,2.65,2.65,0,0,1-2.291,2.422,2.6,2.6,0,0,1-2.667-1.349.64.64,0,0,0-.688-.4c-1.644.015-3.288.007-5.015.007,0,.516,0,1,0,1.49-.01.869-.317,1.176-1.189,1.179-1.06,0-2.119,0-3.223,0v1.789h2.177c1.067,0,1.322.252,1.325,1.3,0,.142.011.284,0,.425a1.392,1.392,0,0,0,.71,1.55,2.456,2.456,0,0,1,.885,3.055,2.668,2.668,0,0,1-2.629,1.694,2.682,2.682,0,0,1-2.459-2.136,2.672,2.672,0,0,1,1.342-2.874c.449-.251.467-.315.318-1.226-.743,0-1.5,0-2.253,0-.952,0-1.246-.294-1.25-1.229,0-.726,0-1.451-.008-2.177a.669.669,0,0,0-.041-.137h-1.7v16.94h.544c1.841,0,3.688.1,5.52-.024a2.649,2.649,0,0,1,2.579,4.117,10.139,10.139,0,0,1,.636,1.958,2.562,2.562,0,0,1-1.872,2.745c-.117.038-.231.083-.346.125Zm7.12-18.821c-1.191.148-1.541-.569-1.626-1.549,0-.035-.024-.068-.027-.1-.024-.278-.139-.5-.446-.471a1.106,1.106,0,0,0-.565.21,5.749,5.749,0,0,0-.573.624.916.916,0,0,1-1.2.22c-.577-.305-1.172-.586-1.716-.944-1.278-.841-1.628-.764-.973-2.572a.613.613,0,0,0-.145-.526.717.717,0,0,0-.539-.148,5.475,5.475,0,0,0-.8.259.978.978,0,0,1-1.237-.44c-.353-.57-.745-1.121-1.052-1.715-.673-1.305-.943-1.378.447-2.576a.682.682,0,0,0,.186-.569.767.767,0,0,0-.44-.4,5.539,5.539,0,0,0-.825-.185c-.686-.161-.892-.411-.9-1.1-.006-.6,0-1.2,0-1.805,0-1.758,0-1.749,1.727-2.134a.68.68,0,0,0,.439-.4.788.788,0,0,0-.187-.571,4.933,4.933,0,0,0-.62-.577.907.907,0,0,1-.235-1.193c.322-.608.619-1.236,1-1.807.707-1.062.617-1.6,2.458-.91a.674.674,0,0,0,.583-.136.765.765,0,0,0,.132-.579,5.057,5.057,0,0,0-.252-.807.927.927,0,0,1,.4-1.154,17.6,17.6,0,0,1,1.664-1.034c1.3-.653,1.426-1.122,2.7.427a.793.793,0,0,0,.527.166c.434.018.419-.354.479-.632.278-1.3.274-1.3,1.552-1.526.014,0,.026-.021.06-.052v-6.135c-.1,0-.169,0-.236,0a18.69,18.69,0,0,0-7.723,2.075,16.5,16.5,0,0,0-7.132,6.975,16.229,16.229,0,0,0-1.437,10.982,37.5,37.5,0,0,0,6.22,14.845,41.47,41.47,0,0,1,2.609,4.056,39.631,39.631,0,0,1,1.6,3.765h6.1Zm.031-2.891c0-.668-.018-1.337.007-2,.013-.361-.119-.466-.47-.524a8.014,8.014,0,0,1-6.469-9.594,8.06,8.06,0,0,1,6.5-6.211c.152-.026.4-.175.405-.276.035-.741.019-1.485.019-2.228-.4,1.05-1.436.785-2.143,1.111-1.1.507-1.44-.567-2.092-1.074l-1.351.8a1.991,1.991,0,0,1-.408,2.725,2.029,2.029,0,0,1-2.7.39l-.811,1.394a2.012,2.012,0,0,1,1.025,2.556,2.034,2.034,0,0,1-2.166,1.71v1.644a1.955,1.955,0,0,1,2.16,1.667,2.021,2.021,0,0,1-1.02,2.581l.822,1.4a2,2,0,0,1,2.717.4,2,2,0,0,1,.4,2.715l1.348.781c.651-.531,1-1.556,2.071-1.071C3463.165-2166.913,3464.2-2167.176,3464.616-2166.122Zm8-5.994v-8.846h-6.189v8.846Zm-8.035,1.658v-12.173a6.132,6.132,0,0,0-5.3,6.339C3459.363-2173.356,3462.066-2170.372,3464.584-2170.458Zm.9,24.251h2.919c1.521,0,3.043.006,4.565,0a.894.894,0,0,0,1.006-.916c0-.589-.412-.909-1.18-.909q-7.271,0-14.542,0a2.881,2.881,0,0,0-.424.017.865.865,0,0,0-.58,1.4,1.458,1.458,0,0,0,.966.392C3460.635-2146.192,3463.059-2146.206,3465.482-2146.206Zm.035-5.332c-2.44,0-4.881,0-7.321,0a.81.81,0,0,0-.914.755.918.918,0,0,0,.829.941,3.6,3.6,0,0,0,.477.012q6.922,0,13.846,0a3.008,3.008,0,0,0,.581-.029.867.867,0,0,0,.709-1.016c-.075-.446-.385-.663-.992-.664Q3469.124-2151.542,3465.517-2151.538Zm12.45-33.034a.912.912,0,0,0,.909-.858.922.922,0,0,0-.857-.913.914.914,0,0,0-.906.861A.905.905,0,0,0,3477.968-2184.572Zm5.364,10.721a.914.914,0,0,0-.867-.9.9.9,0,0,0-.894.87.9.9,0,0,0,.864.9A.9.9,0,0,0,3483.332-2173.851Zm-11.592-16.073a.9.9,0,0,0-.887-.874.894.894,0,0,0-.862.9.889.889,0,0,0,.885.873A.894.894,0,0,0,3471.739-2189.924Zm.9,25.873a.885.885,0,0,0-.86.894.887.887,0,0,0,.882.873.887.887,0,0,0,.859-.9A.88.88,0,0,0,3472.635-2164.051Z" transform="translate(-3445.923 2197.9)" fill="#12263f"/>
      <path id="Trazado_184344" data-name="Trazado 184344" d="M3783.026-2097.981l1.6-.781.747,1.755-1.683.605Z" transform="translate(-3747.16 2109.31)" fill="#12263f"/>
      <path id="Trazado_184345" data-name="Trazado 184345" d="M3798.814-2026.992l-1.785-.15c.025-.558.049-1.108.075-1.7h1.709Z" transform="translate(-3759.673 2046.832)" fill="#12263f"/>
      <path id="Trazado_184346" data-name="Trazado 184346" d="M3740.5-1872.262l1.51.943-1.028,1.541-1.462-1.011Z" transform="translate(-3708.287 1906.908)" fill="#12263f"/>
      <path id="Trazado_184347" data-name="Trazado 184347" d="M3686.834-2188.538l1.772.658-.688,1.635-1.619-.593Z" transform="translate(-3660.724 2189.534)" fill="#12263f"/>
      <path id="Trazado_184348" data-name="Trazado 184348" d="M3795.873-2063.01l-1.761.21-.3-1.676,1.726-.412C3795.651-2064.254,3795.757-2063.661,3795.873-2063.01Z" transform="translate(-3756.797 2079.04)" fill="#12263f"/>
      <path id="Trazado_184349" data-name="Trazado 184349" d="M3758.559-1899.06l-1.565-.845.8-1.578,1.6.764Z" transform="translate(-3723.897 1933.021)" fill="#12263f"/>
      <path id="Trazado_184350" data-name="Trazado 184350" d="M3717.05-2174.615l1.624.981-.99,1.478-1.478-.894Z" transform="translate(-3687.449 2177.093)" fill="#12263f"/>
      <path id="Trazado_184351" data-name="Trazado 184351" d="M3765.753-2127.957l1.393-1.107,1.109,1.546-1.5.962Z" transform="translate(-3731.724 2136.388)" fill="#12263f"/>
      <path id="Trazado_184352" data-name="Trazado 184352" d="M3656.556-2195.866l-.388,1.724-1.7-.292.225-1.76Z" transform="translate(-3632.281 2196.375)" fill="#12263f"/>
      <path id="Trazado_184353" data-name="Trazado 184353" d="M3703.762-1814.956l1.551.855-.728,1.538-1.657-.658Z" transform="translate(-3675.584 1855.7)" fill="#12263f"/>
      <path id="Trazado_184354" data-name="Trazado 184354" d="M3743.13-2153.281l1.132-1.375,1.39,1.273-1.29,1.228Z" transform="translate(-3711.508 2159.257)" fill="#12263f"/>
      <path id="Trazado_184355" data-name="Trazado 184355" d="M3722.5-1843.417l-1,1.482-1.492-.969,1.032-1.53Z" transform="translate(-3690.847 1882.041)" fill="#12263f"/>
      <path id="Trazado_184356" data-name="Trazado 184356" d="M3771.385-1930.565l.662-1.642,1.659.618-.683,1.721Z" transform="translate(-3736.757 1960.476)" fill="#12263f"/>
    </g>
  </g>
</svg>
