<svg xmlns="http://www.w3.org/2000/svg" xmlns:xlink="http://www.w3.org/1999/xlink" width="179" height="230" viewBox="0 0 179 230">
  <defs>
    <filter id="Rect치ngulo_52597" x="0" y="0" width="179" height="230" filterUnits="userSpaceOnUse">
      <feOffset dy="3" input="SourceAlpha"/>
      <feGaussianBlur stdDeviation="3" result="blur"/>
      <feFlood flood-opacity="0.161"/>
      <feComposite operator="in" in2="blur"/>
      <feComposite in="SourceGraphic"/>
    </filter>
    <linearGradient id="linear-gradient" x1="0.5" x2="0.5" y2="1" gradientUnits="objectBoundingBox">
      <stop offset="0" stop-color="#ff5983"/>
      <stop offset="1" stop-color="#7e137c"/>
    </linearGradient>
  </defs>
  <g id="Grupo_173804" data-name="Grupo 173804" transform="translate(-867 -565)">
    <g transform="matrix(1, 0, 0, 1, 867, 565)" filter="url(#Rect치ngulo_52597)">
      <rect id="Rect치ngulo_52597-2" data-name="Rect치ngulo 52597" width="161" height="212" rx="10" transform="translate(9 6)" fill="#fff"/>
    </g>
    <path id="Trazado_214866" data-name="Trazado 214866" d="M13,9.364H8.781v2.871h4.951V14H6.584V3.336h7.134v1.78H8.781V7.657H13Zm6.174,2.446a.682.682,0,0,0-.385-.612,4.368,4.368,0,0,0-1.234-.4q-2.827-.593-2.827-2.4A2.178,2.178,0,0,1,15.6,6.635a3.531,3.531,0,0,1,2.289-.707,3.8,3.8,0,0,1,2.413.71,2.239,2.239,0,0,1,.9,1.846H19.094a1.024,1.024,0,0,0-.293-.751,1.24,1.24,0,0,0-.916-.3,1.267,1.267,0,0,0-.828.242.763.763,0,0,0-.293.615.652.652,0,0,0,.333.568,3.428,3.428,0,0,0,1.124.374,9.183,9.183,0,0,1,1.333.355,2.19,2.19,0,0,1,1.677,2.131,2.067,2.067,0,0,1-.93,1.754,4.013,4.013,0,0,1-2.4.67,4.191,4.191,0,0,1-1.769-.355,2.968,2.968,0,0,1-1.212-.974,2.263,2.263,0,0,1-.439-1.337h2.007a1.105,1.105,0,0,0,.417.864,1.656,1.656,0,0,0,1.04.3,1.533,1.533,0,0,0,.919-.231A.718.718,0,0,0,19.174,11.81Zm14.29-1.7a4.753,4.753,0,0,1-.831,2.933,2.665,2.665,0,0,1-2.245,1.1,2.469,2.469,0,0,1-1.941-.835v3.735H26.33V6.075h1.963l.073.776a2.488,2.488,0,0,1,2.007-.923,2.683,2.683,0,0,1,2.278,1.084A4.882,4.882,0,0,1,33.464,10Zm-2.117-.161a3.136,3.136,0,0,0-.392-1.712,1.275,1.275,0,0,0-1.139-.6,1.385,1.385,0,0,0-1.37.764v3.255a1.409,1.409,0,0,0,1.384.786Q31.347,12.44,31.347,9.949ZM39.228,8.06A5.751,5.751,0,0,0,38.466,8a1.55,1.55,0,0,0-1.575.813V14H34.775V6.075h2l.059.945A1.961,1.961,0,0,1,38.6,5.929a2.218,2.218,0,0,1,.659.1ZM42.48,14H40.356V6.075H42.48ZM40.231,4.024a1.042,1.042,0,0,1,.319-.784,1.373,1.373,0,0,1,1.732,0,1.036,1.036,0,0,1,.322.784,1.039,1.039,0,0,1-.326.791,1.358,1.358,0,0,1-1.721,0A1.039,1.039,0,0,1,40.231,4.024Zm5.977,2.051.066.886a2.785,2.785,0,0,1,2.278-1.033,2.114,2.114,0,0,1,2.1,1.208,2.721,2.721,0,0,1,2.38-1.208,2.364,2.364,0,0,1,1.919.751,3.451,3.451,0,0,1,.63,2.26V14H53.459V8.935a1.515,1.515,0,0,0-.264-.987,1.167,1.167,0,0,0-.93-.312,1.321,1.321,0,0,0-1.318.91L50.954,14H48.837V8.942a1.5,1.5,0,0,0-.271-1,1.178,1.178,0,0,0-.923-.308,1.371,1.371,0,0,0-1.3.749V14H44.223V6.075ZM56.879,9.964a4.7,4.7,0,0,1,.454-2.1,3.324,3.324,0,0,1,1.307-1.428,3.814,3.814,0,0,1,1.981-.505,3.609,3.609,0,0,1,2.618.981,3.939,3.939,0,0,1,1.132,2.666l.015.542a4.142,4.142,0,0,1-1.018,2.926,3.946,3.946,0,0,1-5.468,0,4.215,4.215,0,0,1-1.022-2.988Zm2.117.15a2.962,2.962,0,0,0,.425,1.727,1.526,1.526,0,0,0,2.417.007,3.241,3.241,0,0,0,.432-1.889,2.933,2.933,0,0,0-.432-1.716,1.4,1.4,0,0,0-1.216-.609,1.382,1.382,0,0,0-1.2.605A3.3,3.3,0,0,0,59,10.115ZM70.143,8.06A5.751,5.751,0,0,0,69.382,8a1.55,1.55,0,0,0-1.575.813V14H65.69V6.075h2l.059.945a1.961,1.961,0,0,1,1.765-1.091,2.218,2.218,0,0,1,.659.1Zm.549,1.919a4.776,4.776,0,0,1,.831-2.952,2.7,2.7,0,0,1,2.274-1.1,2.427,2.427,0,0,1,1.912.864V2.75h2.124V14H75.922l-.1-.842a2.491,2.491,0,0,1-2.036.989,2.69,2.69,0,0,1-2.245-1.1A4.93,4.93,0,0,1,70.693,9.979Zm2.117.151a3.146,3.146,0,0,0,.388,1.714,1.263,1.263,0,0,0,1.128.6,1.416,1.416,0,0,0,1.384-.831V8.467a1.4,1.4,0,0,0-1.37-.831Q72.809,7.635,72.809,10.13Zm8.9,3.87H79.584V6.075h2.124ZM79.46,4.024a1.042,1.042,0,0,1,.319-.784,1.373,1.373,0,0,1,1.732,0,1.036,1.036,0,0,1,.322.784,1.039,1.039,0,0,1-.326.791,1.358,1.358,0,0,1-1.721,0A1.039,1.039,0,0,1,79.46,4.024ZM88.044,14a2.351,2.351,0,0,1-.212-.71,2.561,2.561,0,0,1-2,.857,2.814,2.814,0,0,1-1.93-.674,2.167,2.167,0,0,1-.765-1.7A2.24,2.24,0,0,1,84.07,9.84a4.608,4.608,0,0,1,2.7-.681h.974V8.7a1.306,1.306,0,0,0-.282-.879,1.109,1.109,0,0,0-.89-.33,1.261,1.261,0,0,0-.839.256.871.871,0,0,0-.3.7H83.312a2.126,2.126,0,0,1,.425-1.274,2.808,2.808,0,0,1,1.2-.919,4.378,4.378,0,0,1,1.743-.333,3.459,3.459,0,0,1,2.325.736,2.575,2.575,0,0,1,.861,2.069v3.435a3.789,3.789,0,0,0,.315,1.707V14Zm-1.75-1.472a1.823,1.823,0,0,0,.864-.209,1.371,1.371,0,0,0,.586-.56V10.4h-.791q-1.589,0-1.692,1.1l-.007.125a.847.847,0,0,0,.278.652A1.081,1.081,0,0,0,86.293,12.528ZM93.727,14H91.6V2.75h2.124Zm5.149-4.036a4.737,4.737,0,0,1,.831-2.952,2.718,2.718,0,0,1,2.281-1.084,2.433,2.433,0,0,1,2.029.974l.139-.828h1.86V17.047h-2.124V13.319a2.44,2.44,0,0,1-1.919.828,2.7,2.7,0,0,1-2.256-1.1A4.969,4.969,0,0,1,98.876,9.964Zm2.117.15a3.107,3.107,0,0,0,.4,1.731,1.278,1.278,0,0,0,1.124.594,1.423,1.423,0,0,0,1.377-.778V8.383a1.412,1.412,0,0,0-1.362-.748,1.293,1.293,0,0,0-1.135.594A3.432,3.432,0,0,0,100.993,10.115Zm11.433,3.08a2.654,2.654,0,0,1-2.168.952,2.5,2.5,0,0,1-1.945-.732,3.127,3.127,0,0,1-.685-2.146V6.075h2.117V11.2q0,1.239,1.128,1.239a1.528,1.528,0,0,0,1.479-.748V6.075h2.124V14h-1.992Zm7.295.952a3.89,3.89,0,0,1-2.838-1.069,3.8,3.8,0,0,1-1.095-2.849v-.205a4.787,4.787,0,0,1,.461-2.135,3.386,3.386,0,0,1,1.307-1.45,3.669,3.669,0,0,1,1.93-.509,3.289,3.289,0,0,1,2.56,1.025,4.167,4.167,0,0,1,.934,2.908v.864h-5.046a1.966,1.966,0,0,0,.619,1.245,1.871,1.871,0,0,0,1.307.469,2.285,2.285,0,0,0,1.912-.886l1.04,1.165a3.178,3.178,0,0,1-1.289,1.051A4.229,4.229,0,0,1,119.721,14.146Zm-.242-6.511a1.323,1.323,0,0,0-1.022.427,2.209,2.209,0,0,0-.5,1.221H120.9V9.114a1.576,1.576,0,0,0-.381-1.092A1.365,1.365,0,0,0,119.479,7.635ZM23.635,32a2.351,2.351,0,0,1-.212-.71,2.561,2.561,0,0,1-2,.857,2.814,2.814,0,0,1-1.93-.674,2.167,2.167,0,0,1-.765-1.7,2.24,2.24,0,0,1,.934-1.934,4.608,4.608,0,0,1,2.7-.681h.974V26.7a1.306,1.306,0,0,0-.282-.879,1.109,1.109,0,0,0-.89-.33,1.261,1.261,0,0,0-.839.256.871.871,0,0,0-.3.7H18.9a2.126,2.126,0,0,1,.425-1.274,2.808,2.808,0,0,1,1.2-.919,4.378,4.378,0,0,1,1.743-.333,3.459,3.459,0,0,1,2.325.736,2.575,2.575,0,0,1,.861,2.069v3.435a3.789,3.789,0,0,0,.315,1.707V32Zm-1.75-1.472a1.823,1.823,0,0,0,.864-.209,1.371,1.371,0,0,0,.586-.56V28.4h-.791q-1.589,0-1.692,1.1l-.007.125a.847.847,0,0,0,.278.652A1.081,1.081,0,0,0,21.884,30.528ZM29.318,32H27.194V20.75h2.124Zm7.712,0H34.906V24.075h2.124Zm-2.249-9.976a1.042,1.042,0,0,1,.319-.784,1.373,1.373,0,0,1,1.732,0,1.118,1.118,0,0,1,0,1.575,1.358,1.358,0,0,1-1.721,0A1.039,1.039,0,0,1,34.782,22.024Zm5.94,2.051.066.916a2.767,2.767,0,0,1,2.278-1.062,2.3,2.3,0,0,1,1.875.74,3.451,3.451,0,0,1,.63,2.212V32H43.454V26.92a1.379,1.379,0,0,0-.293-.98,1.31,1.31,0,0,0-.974-.3,1.456,1.456,0,0,0-1.34.763V32H38.73V24.075Zm8.987-1.948v1.948h1.355v1.553H49.709v3.955a.944.944,0,0,0,.168.63.846.846,0,0,0,.645.19,3.376,3.376,0,0,0,.623-.051v1.6a4.358,4.358,0,0,1-1.282.19A2.021,2.021,0,0,1,47.592,29.9v-4.27H46.435V24.075h1.157V22.127Zm6.182,10.02a3.89,3.89,0,0,1-2.838-1.069,3.8,3.8,0,0,1-1.095-2.849v-.205a4.787,4.787,0,0,1,.461-2.135,3.386,3.386,0,0,1,1.307-1.45,3.669,3.669,0,0,1,1.93-.509,3.289,3.289,0,0,1,2.56,1.025,4.167,4.167,0,0,1,.934,2.908v.864H54.1a1.966,1.966,0,0,0,.619,1.245,1.871,1.871,0,0,0,1.307.469,2.285,2.285,0,0,0,1.912-.886l1.04,1.165a3.178,3.178,0,0,1-1.289,1.051A4.229,4.229,0,0,1,55.89,32.146Zm-.242-6.511a1.323,1.323,0,0,0-1.022.427,2.209,2.209,0,0,0-.5,1.221H57.07v-.169a1.576,1.576,0,0,0-.381-1.092A1.365,1.365,0,0,0,55.649,25.635Zm4.395,2.344a4.644,4.644,0,0,1,.868-2.937,2.812,2.812,0,0,1,2.34-1.113,2.466,2.466,0,0,1,2.029.894l.088-.747h1.919v7.661a3.387,3.387,0,0,1-.472,1.809,3.034,3.034,0,0,1-1.329,1.172,4.673,4.673,0,0,1-2.007.4,4.346,4.346,0,0,1-1.7-.348,3.016,3.016,0,0,1-1.252-.9l.938-1.289a2.48,2.48,0,0,0,1.919.886,1.815,1.815,0,0,0,1.311-.45,1.69,1.69,0,0,0,.469-1.278v-.425a2.448,2.448,0,0,1-1.926.828,2.8,2.8,0,0,1-2.311-1.117,4.643,4.643,0,0,1-.883-2.963Zm2.117.151a2.907,2.907,0,0,0,.432,1.7,1.373,1.373,0,0,0,1.187.614,1.469,1.469,0,0,0,1.384-.728V26.364a1.465,1.465,0,0,0-1.37-.728,1.382,1.382,0,0,0-1.2.625A3.278,3.278,0,0,0,62.16,28.13Zm11.206-2.07A5.75,5.75,0,0,0,72.6,26a1.55,1.55,0,0,0-1.575.813V32H68.913V24.075h2l.059.945a1.961,1.961,0,0,1,1.765-1.091,2.218,2.218,0,0,1,.659.1ZM78.757,32a2.351,2.351,0,0,1-.212-.71,2.561,2.561,0,0,1-2,.857,2.814,2.814,0,0,1-1.93-.674,2.167,2.167,0,0,1-.765-1.7,2.24,2.24,0,0,1,.934-1.934,4.608,4.608,0,0,1,2.7-.681h.974V26.7a1.306,1.306,0,0,0-.282-.879,1.109,1.109,0,0,0-.89-.33,1.261,1.261,0,0,0-.839.256.871.871,0,0,0-.3.7H74.025a2.126,2.126,0,0,1,.425-1.274,2.808,2.808,0,0,1,1.2-.919,4.378,4.378,0,0,1,1.743-.333,3.459,3.459,0,0,1,2.325.736,2.575,2.575,0,0,1,.861,2.069v3.435a3.789,3.789,0,0,0,.315,1.707V32Zm-1.75-1.472a1.823,1.823,0,0,0,.864-.209,1.371,1.371,0,0,0,.586-.56V28.4h-.791q-1.589,0-1.692,1.1l-.007.125a.847.847,0,0,0,.278.652A1.081,1.081,0,0,0,77.006,30.528Zm9.653-4.468A5.75,5.75,0,0,0,85.9,26a1.55,1.55,0,0,0-1.575.813V32H82.206V24.075h2l.059.945a1.961,1.961,0,0,1,1.765-1.091,2.218,2.218,0,0,1,.659.1ZM93.647,32H91.523V20.75h2.124Zm1.414-4.036a4.7,4.7,0,0,1,.454-2.1,3.324,3.324,0,0,1,1.307-1.428,3.814,3.814,0,0,1,1.981-.505,3.609,3.609,0,0,1,2.618.981,3.939,3.939,0,0,1,1.132,2.666l.015.542a4.142,4.142,0,0,1-1.018,2.926,3.946,3.946,0,0,1-5.468,0A4.215,4.215,0,0,1,95.06,28.06Zm2.117.15a2.962,2.962,0,0,0,.425,1.727,1.526,1.526,0,0,0,2.417.007,3.241,3.241,0,0,0,.432-1.889,2.933,2.933,0,0,0-.432-1.716,1.4,1.4,0,0,0-1.216-.609,1.382,1.382,0,0,0-1.2.605A3.3,3.3,0,0,0,97.177,28.115Zm10.986,1.7a.682.682,0,0,0-.385-.612,4.368,4.368,0,0,0-1.234-.4q-2.827-.593-2.827-2.4a2.178,2.178,0,0,1,.875-1.761,3.531,3.531,0,0,1,2.289-.707,3.8,3.8,0,0,1,2.413.71,2.239,2.239,0,0,1,.9,1.846h-2.117a1.024,1.024,0,0,0-.293-.751,1.24,1.24,0,0,0-.916-.3,1.267,1.267,0,0,0-.828.242.763.763,0,0,0-.293.615.652.652,0,0,0,.333.568,3.428,3.428,0,0,0,1.124.374,9.183,9.183,0,0,1,1.333.355,2.19,2.19,0,0,1,1.677,2.131,2.067,2.067,0,0,1-.93,1.754,4.013,4.013,0,0,1-2.4.67,4.191,4.191,0,0,1-1.769-.355,2.968,2.968,0,0,1-1.212-.974,2.263,2.263,0,0,1-.439-1.337h2.007a1.105,1.105,0,0,0,.417.864,1.656,1.656,0,0,0,1.04.3,1.533,1.533,0,0,0,.919-.231A.718.718,0,0,0,108.163,29.81ZM1.889,45.979a4.776,4.776,0,0,1,.831-2.952,2.7,2.7,0,0,1,2.274-1.1,2.427,2.427,0,0,1,1.912.864V38.75H9.03V50H7.118l-.1-.842a2.491,2.491,0,0,1-2.036.989,2.69,2.69,0,0,1-2.245-1.1A4.93,4.93,0,0,1,1.889,45.979Zm2.117.151a3.146,3.146,0,0,0,.388,1.714,1.263,1.263,0,0,0,1.128.6,1.416,1.416,0,0,0,1.384-.831V44.467a1.4,1.4,0,0,0-1.37-.831Q4.006,43.635,4.006,46.13ZM15.263,50a2.351,2.351,0,0,1-.212-.71,2.561,2.561,0,0,1-2,.857,2.814,2.814,0,0,1-1.93-.674,2.167,2.167,0,0,1-.765-1.7,2.24,2.24,0,0,1,.934-1.934,4.608,4.608,0,0,1,2.7-.681h.974V44.7a1.306,1.306,0,0,0-.282-.879,1.109,1.109,0,0,0-.89-.33,1.261,1.261,0,0,0-.839.256.871.871,0,0,0-.3.7H10.531a2.126,2.126,0,0,1,.425-1.274,2.808,2.808,0,0,1,1.2-.919,4.378,4.378,0,0,1,1.743-.333,3.459,3.459,0,0,1,2.325.736,2.575,2.575,0,0,1,.861,2.069v3.435a3.789,3.789,0,0,0,.315,1.707V50Zm-1.75-1.472a1.823,1.823,0,0,0,.864-.209,1.371,1.371,0,0,0,.586-.56V46.4h-.791q-1.589,0-1.692,1.1l-.007.125a.847.847,0,0,0,.278.652A1.081,1.081,0,0,0,13.512,48.528Zm7.734-8.4v1.948H22.6v1.553H21.247v3.955a.944.944,0,0,0,.168.63.846.846,0,0,0,.645.19,3.376,3.376,0,0,0,.623-.051v1.6a4.358,4.358,0,0,1-1.282.19A2.021,2.021,0,0,1,19.13,47.9v-4.27H17.973V42.075H19.13V40.127Zm1.985,5.837a4.7,4.7,0,0,1,.454-2.1,3.324,3.324,0,0,1,1.307-1.428,3.814,3.814,0,0,1,1.981-.505,3.609,3.609,0,0,1,2.618.981,3.939,3.939,0,0,1,1.132,2.666l.015.542a4.142,4.142,0,0,1-1.018,2.926,3.539,3.539,0,0,1-2.732,1.1,3.556,3.556,0,0,1-2.736-1.1,4.215,4.215,0,0,1-1.022-2.988Zm2.117.15a2.962,2.962,0,0,0,.425,1.727,1.526,1.526,0,0,0,2.417.007,3.241,3.241,0,0,0,.432-1.889,2.933,2.933,0,0,0-.432-1.716,1.4,1.4,0,0,0-1.216-.609,1.382,1.382,0,0,0-1.2.605A3.3,3.3,0,0,0,25.348,46.115Zm10.986,1.7a.682.682,0,0,0-.385-.612,4.368,4.368,0,0,0-1.234-.4q-2.827-.593-2.827-2.4a2.178,2.178,0,0,1,.875-1.761,3.531,3.531,0,0,1,2.289-.707,3.8,3.8,0,0,1,2.413.71,2.239,2.239,0,0,1,.9,1.846H36.254a1.024,1.024,0,0,0-.293-.751,1.24,1.24,0,0,0-.916-.3,1.267,1.267,0,0,0-.828.242.763.763,0,0,0-.293.615.652.652,0,0,0,.333.568,3.428,3.428,0,0,0,1.124.374,9.183,9.183,0,0,1,1.333.355,2.19,2.19,0,0,1,1.677,2.131,2.067,2.067,0,0,1-.93,1.754,4.013,4.013,0,0,1-2.4.67,4.191,4.191,0,0,1-1.769-.355,2.968,2.968,0,0,1-1.212-.974,2.263,2.263,0,0,1-.439-1.337h2.007a1.105,1.105,0,0,0,.417.864,1.656,1.656,0,0,0,1.04.3,1.533,1.533,0,0,0,.919-.231A.718.718,0,0,0,36.335,47.81Zm11.448,0A.682.682,0,0,0,47.4,47.2a4.368,4.368,0,0,0-1.234-.4q-2.827-.593-2.827-2.4a2.178,2.178,0,0,1,.875-1.761,3.531,3.531,0,0,1,2.289-.707,3.8,3.8,0,0,1,2.413.71,2.239,2.239,0,0,1,.9,1.846H47.7a1.024,1.024,0,0,0-.293-.751,1.24,1.24,0,0,0-.916-.3,1.267,1.267,0,0,0-.828.242.763.763,0,0,0-.293.615.652.652,0,0,0,.333.568,3.428,3.428,0,0,0,1.124.374,9.183,9.183,0,0,1,1.333.355,2.19,2.19,0,0,1,1.677,2.131,2.067,2.067,0,0,1-.93,1.754,4.013,4.013,0,0,1-2.4.67,4.191,4.191,0,0,1-1.769-.355,2.968,2.968,0,0,1-1.212-.974,2.263,2.263,0,0,1-.439-1.337h2.007a1.105,1.105,0,0,0,.417.864,1.656,1.656,0,0,0,1.04.3,1.533,1.533,0,0,0,.919-.231A.718.718,0,0,0,47.782,47.81Zm7.068,2.336a3.89,3.89,0,0,1-2.838-1.069,3.8,3.8,0,0,1-1.095-2.849v-.205a4.787,4.787,0,0,1,.461-2.135,3.386,3.386,0,0,1,1.307-1.45,3.669,3.669,0,0,1,1.93-.509,3.289,3.289,0,0,1,2.56,1.025,4.167,4.167,0,0,1,.934,2.908v.864H53.063a1.966,1.966,0,0,0,.619,1.245,1.871,1.871,0,0,0,1.307.469,2.285,2.285,0,0,0,1.912-.886l1.04,1.165a3.178,3.178,0,0,1-1.289,1.051A4.229,4.229,0,0,1,54.85,50.146Zm-.242-6.511a1.323,1.323,0,0,0-1.022.427,2.209,2.209,0,0,0-.5,1.221H56.03v-.169a1.576,1.576,0,0,0-.381-1.092A1.365,1.365,0,0,0,54.609,43.635Zm10.422-1.56.066.886a2.785,2.785,0,0,1,2.278-1.033,2.114,2.114,0,0,1,2.1,1.208,2.721,2.721,0,0,1,2.38-1.208,2.364,2.364,0,0,1,1.919.751,3.451,3.451,0,0,1,.63,2.26V50H72.282V44.935a1.515,1.515,0,0,0-.264-.987,1.167,1.167,0,0,0-.93-.312,1.321,1.321,0,0,0-1.318.91L69.777,50H67.66V44.942a1.5,1.5,0,0,0-.271-1,1.178,1.178,0,0,0-.923-.308,1.371,1.371,0,0,0-1.3.749V50H63.046V42.075ZM80.624,50a2.351,2.351,0,0,1-.212-.71,2.561,2.561,0,0,1-2,.857,2.814,2.814,0,0,1-1.93-.674,2.167,2.167,0,0,1-.765-1.7,2.24,2.24,0,0,1,.934-1.934,4.608,4.608,0,0,1,2.7-.681h.974V44.7a1.306,1.306,0,0,0-.282-.879,1.109,1.109,0,0,0-.89-.33,1.261,1.261,0,0,0-.839.256.871.871,0,0,0-.3.7H75.893a2.126,2.126,0,0,1,.425-1.274,2.808,2.808,0,0,1,1.2-.919,4.378,4.378,0,0,1,1.743-.333,3.459,3.459,0,0,1,2.325.736,2.575,2.575,0,0,1,.861,2.069v3.435a3.789,3.789,0,0,0,.315,1.707V50Zm-1.75-1.472a1.823,1.823,0,0,0,.864-.209,1.371,1.371,0,0,0,.586-.56V46.4h-.791q-1.589,0-1.692,1.1l-.007.125a.847.847,0,0,0,.278.652A1.081,1.081,0,0,0,78.874,48.528Zm7.148-6.453.066.916a2.767,2.767,0,0,1,2.278-1.062,2.3,2.3,0,0,1,1.875.74,3.451,3.451,0,0,1,.63,2.212V50H88.754V44.92a1.379,1.379,0,0,0-.293-.98,1.31,1.31,0,0,0-.974-.3,1.456,1.456,0,0,0-1.34.763V50H84.03V42.075Zm10.1,8.071a3.89,3.89,0,0,1-2.838-1.069,3.8,3.8,0,0,1-1.095-2.849v-.205a4.787,4.787,0,0,1,.461-2.135,3.386,3.386,0,0,1,1.307-1.45,3.669,3.669,0,0,1,1.93-.509,3.289,3.289,0,0,1,2.56,1.025,4.167,4.167,0,0,1,.934,2.908v.864H94.335a1.966,1.966,0,0,0,.619,1.245,1.871,1.871,0,0,0,1.307.469,2.285,2.285,0,0,0,1.912-.886l1.04,1.165a3.178,3.178,0,0,1-1.289,1.051A4.229,4.229,0,0,1,96.122,50.146Zm-.242-6.511a1.323,1.323,0,0,0-1.022.427,2.209,2.209,0,0,0-.5,1.221H97.3v-.169a1.576,1.576,0,0,0-.381-1.092A1.365,1.365,0,0,0,95.881,43.635Zm6.943-1.56v8.357a2.835,2.835,0,0,1-.7,2.04,2.645,2.645,0,0,1-2.007.729,4.3,4.3,0,0,1-1.047-.125V51.4a3.973,3.973,0,0,0,.667.066q.959,0,.959-1.018V42.075Zm-2.292-2.051a1.042,1.042,0,0,1,.319-.784,1.378,1.378,0,0,1,1.736,0,1.123,1.123,0,0,1-.007,1.575,1.358,1.358,0,0,1-1.721,0A1.039,1.039,0,0,1,100.531,40.024Zm7.6,10.122a3.89,3.89,0,0,1-2.838-1.069,3.8,3.8,0,0,1-1.095-2.849v-.205a4.787,4.787,0,0,1,.461-2.135,3.386,3.386,0,0,1,1.307-1.45,3.669,3.669,0,0,1,1.93-.509,3.289,3.289,0,0,1,2.56,1.025,4.167,4.167,0,0,1,.934,2.908v.864H106.34a1.966,1.966,0,0,0,.619,1.245,1.871,1.871,0,0,0,1.307.469,2.285,2.285,0,0,0,1.912-.886l1.04,1.165a3.178,3.178,0,0,1-1.289,1.051A4.229,4.229,0,0,1,108.127,50.146Zm-.242-6.511a1.323,1.323,0,0,0-1.022.427,2.209,2.209,0,0,0-.5,1.221h2.944v-.169a1.576,1.576,0,0,0-.381-1.092A1.365,1.365,0,0,0,107.885,43.635Zm12.085,6.511a3.89,3.89,0,0,1-2.838-1.069,3.8,3.8,0,0,1-1.095-2.849v-.205a4.787,4.787,0,0,1,.461-2.135,3.386,3.386,0,0,1,1.307-1.45,3.669,3.669,0,0,1,1.93-.509,3.289,3.289,0,0,1,2.56,1.025,4.167,4.167,0,0,1,.934,2.908v.864h-5.046a1.966,1.966,0,0,0,.619,1.245,1.871,1.871,0,0,0,1.307.469,2.285,2.285,0,0,0,1.912-.886l1.04,1.165a3.178,3.178,0,0,1-1.289,1.051A4.229,4.229,0,0,1,119.97,50.146Zm-.242-6.511a1.323,1.323,0,0,0-1.022.427,2.209,2.209,0,0,0-.5,1.221h2.944v-.169a1.576,1.576,0,0,0-.381-1.092A1.365,1.365,0,0,0,119.728,43.635ZM126.664,50H124.54V38.75h2.124ZM19.225,60.075l.066.886a2.785,2.785,0,0,1,2.278-1.033,2.114,2.114,0,0,1,2.1,1.208,2.721,2.721,0,0,1,2.38-1.208,2.364,2.364,0,0,1,1.919.751,3.451,3.451,0,0,1,.63,2.26V68H26.476V62.935a1.515,1.515,0,0,0-.264-.987,1.167,1.167,0,0,0-.93-.312,1.321,1.321,0,0,0-1.318.91L23.971,68H21.855V62.942a1.5,1.5,0,0,0-.271-1,1.178,1.178,0,0,0-.923-.308,1.371,1.371,0,0,0-1.3.749V68H17.24V60.075ZM32.46,68H30.336V60.075H32.46Zm-2.249-9.976a1.042,1.042,0,0,1,.319-.784,1.373,1.373,0,0,1,1.732,0,1.118,1.118,0,0,1,0,1.575,1.358,1.358,0,0,1-1.721,0A1.039,1.039,0,0,1,30.212,58.024ZM38.5,65.81a.682.682,0,0,0-.385-.612,4.368,4.368,0,0,0-1.234-.4q-2.827-.593-2.827-2.4a2.178,2.178,0,0,1,.875-1.761,3.531,3.531,0,0,1,2.289-.707,3.8,3.8,0,0,1,2.413.71,2.239,2.239,0,0,1,.9,1.846H38.415a1.024,1.024,0,0,0-.293-.751,1.24,1.24,0,0,0-.916-.3,1.267,1.267,0,0,0-.828.242.763.763,0,0,0-.293.615.652.652,0,0,0,.333.568,3.428,3.428,0,0,0,1.124.374,9.183,9.183,0,0,1,1.333.355,2.19,2.19,0,0,1,1.677,2.131,2.067,2.067,0,0,1-.93,1.754,4.013,4.013,0,0,1-2.4.67,4.191,4.191,0,0,1-1.769-.355,2.968,2.968,0,0,1-1.212-.974A2.263,2.263,0,0,1,33.8,65.48h2.007a1.105,1.105,0,0,0,.417.864,1.656,1.656,0,0,0,1.04.3,1.533,1.533,0,0,0,.919-.231A.718.718,0,0,0,38.5,65.81ZM43.9,60.075l.066.886a2.785,2.785,0,0,1,2.278-1.033,2.114,2.114,0,0,1,2.1,1.208,2.721,2.721,0,0,1,2.38-1.208,2.364,2.364,0,0,1,1.919.751,3.451,3.451,0,0,1,.63,2.26V68H51.152V62.935a1.515,1.515,0,0,0-.264-.987,1.167,1.167,0,0,0-.93-.312,1.321,1.321,0,0,0-1.318.91L48.647,68H46.53V62.942a1.5,1.5,0,0,0-.271-1,1.178,1.178,0,0,0-.923-.308,1.371,1.371,0,0,0-1.3.749V68H41.916V60.075Zm10.671,3.889a4.7,4.7,0,0,1,.454-2.1,3.324,3.324,0,0,1,1.307-1.428,3.814,3.814,0,0,1,1.981-.505,3.609,3.609,0,0,1,2.618.981,3.939,3.939,0,0,1,1.132,2.666l.015.542a4.142,4.142,0,0,1-1.018,2.926,3.946,3.946,0,0,1-5.468,0,4.215,4.215,0,0,1-1.022-2.988Zm2.117.15a2.962,2.962,0,0,0,.425,1.727,1.526,1.526,0,0,0,2.417.007,3.241,3.241,0,0,0,.432-1.889,2.933,2.933,0,0,0-.432-1.716,1.4,1.4,0,0,0-1.216-.609,1.382,1.382,0,0,0-1.2.605A3.3,3.3,0,0,0,56.689,64.115Zm12.964-5.988v1.948h1.355v1.553H69.653v3.955a.944.944,0,0,0,.168.63.846.846,0,0,0,.645.19,3.376,3.376,0,0,0,.623-.051v1.6a4.358,4.358,0,0,1-1.282.19A2.021,2.021,0,0,1,67.536,65.9v-4.27H66.379V60.075h1.157V58.127ZM74.421,68H72.3V60.075h2.124Zm-2.249-9.976a1.042,1.042,0,0,1,.319-.784,1.373,1.373,0,0,1,1.732,0,1.118,1.118,0,0,1,0,1.575,1.358,1.358,0,0,1-1.721,0A1.039,1.039,0,0,1,72.172,58.024ZM83.3,64.111a4.753,4.753,0,0,1-.831,2.933,2.665,2.665,0,0,1-2.245,1.1,2.469,2.469,0,0,1-1.941-.835v3.735H76.164V60.075h1.963l.073.776a2.488,2.488,0,0,1,2.007-.923,2.683,2.683,0,0,1,2.278,1.084A4.882,4.882,0,0,1,83.3,64Zm-2.117-.161a3.136,3.136,0,0,0-.392-1.712,1.275,1.275,0,0,0-1.139-.6,1.385,1.385,0,0,0-1.37.764v3.255a1.409,1.409,0,0,0,1.384.786Q81.181,66.44,81.181,63.949Zm3.1.015a4.7,4.7,0,0,1,.454-2.1,3.324,3.324,0,0,1,1.307-1.428,3.814,3.814,0,0,1,1.981-.505,3.609,3.609,0,0,1,2.618.981,3.939,3.939,0,0,1,1.132,2.666l.015.542a4.142,4.142,0,0,1-1.018,2.926,3.946,3.946,0,0,1-5.468,0,4.215,4.215,0,0,1-1.022-2.988Zm2.117.15a2.962,2.962,0,0,0,.425,1.727,1.526,1.526,0,0,0,2.417.007,3.241,3.241,0,0,0,.432-1.889,2.933,2.933,0,0,0-.432-1.716,1.4,1.4,0,0,0-1.216-.609,1.382,1.382,0,0,0-1.2.605A3.3,3.3,0,0,0,86.4,64.115Zm10.1-.136a4.776,4.776,0,0,1,.831-2.952,2.7,2.7,0,0,1,2.274-1.1,2.427,2.427,0,0,1,1.912.864V56.75h2.124V68h-1.912l-.1-.842a2.491,2.491,0,0,1-2.036.989,2.69,2.69,0,0,1-2.245-1.1A4.93,4.93,0,0,1,96.5,63.979Zm2.117.151A3.146,3.146,0,0,0,99,65.844a1.263,1.263,0,0,0,1.128.6,1.416,1.416,0,0,0,1.384-.831V62.467a1.4,1.4,0,0,0-1.37-.831Q98.613,61.635,98.613,64.13Zm10.313,4.017a3.89,3.89,0,0,1-2.838-1.069,3.8,3.8,0,0,1-1.095-2.849v-.205a4.787,4.787,0,0,1,.461-2.135,3.386,3.386,0,0,1,1.307-1.45,3.669,3.669,0,0,1,1.93-.509,3.289,3.289,0,0,1,2.56,1.025,4.167,4.167,0,0,1,.934,2.908v.864h-5.046a1.966,1.966,0,0,0,.619,1.245,1.871,1.871,0,0,0,1.307.469,2.285,2.285,0,0,0,1.912-.886l1.04,1.165a3.178,3.178,0,0,1-1.289,1.051A4.229,4.229,0,0,1,108.925,68.146Zm-.242-6.511a1.323,1.323,0,0,0-1.022.427,2.209,2.209,0,0,0-.5,1.221H110.1v-.169a1.576,1.576,0,0,0-.381-1.092A1.365,1.365,0,0,0,108.683,61.635ZM39.048,86V79.628H37.869V78.075h1.179V77.4a2.736,2.736,0,0,1,.765-2.069,2.964,2.964,0,0,1,2.142-.736,4.989,4.989,0,0,1,1.077.145l-.022,1.627a2.7,2.7,0,0,0-.645-.066q-1.194,0-1.194,1.13v.642h1.575v1.553H41.172V86Zm4.468-4.036a4.7,4.7,0,0,1,.454-2.1,3.324,3.324,0,0,1,1.307-1.428,3.814,3.814,0,0,1,1.981-.505,3.609,3.609,0,0,1,2.618.981,3.939,3.939,0,0,1,1.132,2.666l.015.542a4.142,4.142,0,0,1-1.018,2.926,3.946,3.946,0,0,1-5.468,0,4.215,4.215,0,0,1-1.022-2.988Zm2.117.15a2.962,2.962,0,0,0,.425,1.727,1.526,1.526,0,0,0,2.417.007,3.241,3.241,0,0,0,.432-1.889,2.933,2.933,0,0,0-.432-1.716,1.4,1.4,0,0,0-1.216-.609,1.382,1.382,0,0,0-1.2.605A3.3,3.3,0,0,0,45.633,82.115ZM56.78,80.06A5.75,5.75,0,0,0,56.019,80a1.55,1.55,0,0,0-1.575.813V86H52.327V78.075h2l.059.945a1.961,1.961,0,0,1,1.765-1.091,2.218,2.218,0,0,1,.659.1Zm3-1.985.066.886a2.785,2.785,0,0,1,2.278-1.033,2.114,2.114,0,0,1,2.1,1.208,2.721,2.721,0,0,1,2.38-1.208,2.364,2.364,0,0,1,1.919.751,3.451,3.451,0,0,1,.63,2.26V86H67.034V80.935a1.515,1.515,0,0,0-.264-.987,1.167,1.167,0,0,0-.93-.312,1.321,1.321,0,0,0-1.318.91L64.529,86H62.413V80.942a1.5,1.5,0,0,0-.271-1,1.178,1.178,0,0,0-.923-.308,1.371,1.371,0,0,0-1.3.749V86H57.8V78.075ZM75.376,86a2.351,2.351,0,0,1-.212-.71,2.561,2.561,0,0,1-2,.857,2.814,2.814,0,0,1-1.93-.674,2.167,2.167,0,0,1-.765-1.7A2.24,2.24,0,0,1,71.4,81.84a4.608,4.608,0,0,1,2.7-.681h.974V80.7a1.306,1.306,0,0,0-.282-.879,1.109,1.109,0,0,0-.89-.33,1.261,1.261,0,0,0-.839.256.871.871,0,0,0-.3.7H70.645a2.126,2.126,0,0,1,.425-1.274,2.808,2.808,0,0,1,1.2-.919,4.378,4.378,0,0,1,1.743-.333,3.459,3.459,0,0,1,2.325.736,2.575,2.575,0,0,1,.861,2.069v3.435a3.789,3.789,0,0,0,.315,1.707V86Zm-1.75-1.472a1.823,1.823,0,0,0,.864-.209,1.371,1.371,0,0,0,.586-.56V82.4h-.791q-1.589,0-1.692,1.1l-.007.125a.847.847,0,0,0,.278.652A1.081,1.081,0,0,0,73.626,84.528Zm7.734-8.4v1.948h1.355v1.553H81.36v3.955a.944.944,0,0,0,.168.63.846.846,0,0,0,.645.19,3.376,3.376,0,0,0,.623-.051v1.6a4.358,4.358,0,0,1-1.282.19A2.021,2.021,0,0,1,79.244,83.9v-4.27H78.086V78.075h1.157V76.127Zm1.985,5.837a4.7,4.7,0,0,1,.454-2.1,3.324,3.324,0,0,1,1.307-1.428,3.814,3.814,0,0,1,1.981-.505,3.609,3.609,0,0,1,2.618.981,3.939,3.939,0,0,1,1.132,2.666l.015.542a4.142,4.142,0,0,1-1.018,2.926,3.946,3.946,0,0,1-5.468,0,4.215,4.215,0,0,1-1.022-2.988Zm2.117.15a2.962,2.962,0,0,0,.425,1.727,1.526,1.526,0,0,0,2.417.007,3.241,3.241,0,0,0,.432-1.889,2.933,2.933,0,0,0-.432-1.716,1.4,1.4,0,0,0-1.216-.609,1.382,1.382,0,0,0-1.2.605A3.3,3.3,0,0,0,85.462,82.115Z" transform="translate(888 674)" fill="#12263f"/>
    <g id="Grupo_171307" data-name="Grupo 171307" transform="translate(922.08 589.9)">
      <ellipse id="Elipse_4775" data-name="Elipse 4775" cx="35" cy="35.5" rx="35" ry="35.5" transform="translate(-0.08 -0.9)" fill="url(#linear-gradient)"/>
      <g id="V8GC4p" transform="translate(1615.877 -121.862)">
        <g id="Grupo_155561" data-name="Grupo 155561" transform="translate(-1600.006 134.779)">
          <path id="Trazado_197572" data-name="Trazado 197572" d="M-1373.769,283.655h1.336v-.375q0-2.749,0-5.5c0-.587.239-.834.813-.836q1.221,0,2.443,0c.571,0,.794.223.794.807,0,1.814-.005,3.629-.009,5.443,0,.141,0,.282,0,.448h1.349v-.435q0-4.707,0-9.415c0-.664.242-.911.9-.913.754,0,1.508,0,2.261,0,.674,0,.877.21.878.88q.005,4.871.009,9.742c0,.035.005.069.011.135h1.33v-.386q0-4.06,0-8.121c0-.658.25-.906.906-.907q1.15,0,2.3,0c.577,0,.833.244.834.822q.006,4.065,0,8.129v.459h1.348v-.407q0-6.073,0-12.145c0-.651.232-.885.879-.885.814,0,1.629,0,2.444,0a.644.644,0,0,1,.717.706q.01,3.224.006,6.447c0,2.088,0,4.176,0,6.318.221,0,.42-.007.618,0,.486.019.74.262.731.689-.008.41-.26.641-.733.642q-4.527.007-9.054.006c-4.431,0-8.863-.014-13.294.01-1.161.006-1.173-.323-1.162-1.206.023-1.8,0-3.592,0-5.388s.007-3.592.007-5.388c0-2.024-.007-4.047-.008-6.071,0-.533.216-.793.649-.8a.6.6,0,0,1,.674.622c.019.513.015,1.027.016,1.54q0,6.483,0,12.966C-1373.769,282.066-1373.769,282.841-1373.769,283.655Zm18.9-12.077v12.044h1.314V271.578Zm-9.475,12.048v-9.381h-1.31v9.381Zm4.078-8.032v8.017h1.316v-8.017Zm-10.777,2.708v5.319h1.312V278.3Z" transform="translate(1391.275 -256.72)" fill="#fff"/>
          <path id="Trazado_197573" data-name="Trazado 197573" d="M-1592.015,283.326a2.3,2.3,0,0,1,2.788,2.466c.043,1.16.009,2.323.008,3.485a3.749,3.749,0,0,1-.559,2c-.277.451-.1.954-.131,1.433,0,.053.127.126.207.172.949.547,1.9,1.1,2.85,1.634a3.032,3.032,0,0,1,1.662,2.835c-.007,1.171,0,2.342,0,3.536H-1600c0-.793-.01-1.58,0-2.367a13.31,13.31,0,0,1,.088-1.964,2.8,2.8,0,0,1,1.458-1.979c.949-.55,1.9-1.1,2.854-1.636.2-.113.321-.228.283-.47a1.427,1.427,0,0,1,0-.323,1.791,1.791,0,0,0-.257-1.153,2.842,2.842,0,0,1-.4-1.573c.011-1.054,0-2.108,0-3.162a2.207,2.207,0,0,1,2.241-2.247c.4,0,.792-.018,1.186,0,.321.018.51-.057.475-.424A.966.966,0,0,1-1592.015,283.326Zm.076,16.246h5.38c0-.888.054-1.765-.026-2.63a1.486,1.486,0,0,0-.563-.984c-.986-.656-2.034-1.219-3.014-1.791a8.415,8.415,0,0,1-1.043,1.273,1.883,1.883,0,0,0-.749,1.757C-1591.889,297.977-1591.939,298.767-1591.939,299.571Zm-3.133-5.383c-.888.511-1.853,1.051-2.8,1.619a1.51,1.51,0,0,0-.764,1.228c-.041.619-.034,1.241-.046,1.862,0,.222,0,.445,0,.667h5.4c0-1.112,0-2.2,0-3.284a.423.423,0,0,0-.115-.246C-1593.95,295.425-1594.5,294.82-1595.072,294.188Zm1.3-6.223a1.321,1.321,0,0,1-.15.137,1.369,1.369,0,0,0-.708,1.431,2.145,2.145,0,0,0,1.243,1.809,1.961,1.961,0,0,0,2.157-.391,2.49,2.49,0,0,0,.635-2.214c0-.071-.156-.181-.245-.187-.367-.025-.737-.025-1.106-.02A1.992,1.992,0,0,1-1593.769,287.966Zm3.182-.849c0-.5.02-1.032-.01-1.565a1.3,1.3,0,0,0-.222-.595c-.111-.171-.248-.285-.46-.02a1.1,1.1,0,0,1-.665.362,9.542,9.542,0,0,1-1.71.071c-.767-.044-1.143.581-.893,1.372.441-.515.839-.49,1.247.043a.783.783,0,0,0,.482.317C-1592.086,287.136-1591.351,287.116-1590.588,287.116Zm-3.379,5.435a3.223,3.223,0,0,0,1.335,2.366,2.591,2.591,0,0,0,1.325-2.331A3.268,3.268,0,0,1-1593.967,292.552Z" transform="translate(1600.006 -272.624)" fill="#fff"/>
          <path id="Trazado_197574" data-name="Trazado 197574" d="M-1481.023,141.507h-2.041c-.874,0-1.749,0-2.623,0a.617.617,0,0,1-.7-.68c-.013-.874,0-1.748,0-2.622v-2.065h-18.888v.421q0,3.414,0,6.827c0,.528-.245.838-.661.839s-.682-.305-.684-.837c-.008-1.617,0-3.234,0-4.851,0-.97,0-1.94,0-2.911,0-.589.243-.847.82-.847q9.97,0,19.941,0a1,1,0,0,1,.755.328c1.706,1.716,3.423,3.42,5.122,5.143a1.06,1.06,0,0,1,.3.646c.026,1.373.022,2.747,0,4.12a.635.635,0,0,1-1,.563.824.824,0,0,1-.3-.585c-.032-1.1-.021-2.2-.026-3.3C-1481,141.649-1481.011,141.6-1481.023,141.507Zm-4.025-1.345h2.934l-2.934-2.928Z" transform="translate(1513.335 -134.779)" fill="#fff"/>
          <path id="Trazado_197575" data-name="Trazado 197575" d="M-1505.272,553.983h24.282c0-.2,0-.4,0-.6,0-.934-.015-1.867,0-2.8a.64.64,0,0,1,.894-.615.586.586,0,0,1,.424.6c0,1.36.009,2.721,0,4.081,0,.459-.256.677-.778.686-.765.013-1.531.007-2.3.006q-4.879,0-9.757-.01-4.986,0-9.972.008-1.633,0-3.265-.01c-.635,0-.876-.239-.877-.862q0-3.161,0-6.323a1.236,1.236,0,0,1,.131-.578.584.584,0,0,1,.7-.3.653.653,0,0,1,.512.684c-.007,1.88,0,3.76,0,5.64Z" transform="translate(1513.333 -517.594)" fill="#fff"/>
          <path id="Trazado_197576" data-name="Trazado 197576" d="M-1325.433,260.921l4.588-4.727c-.19-.008-.313-.012-.436-.02a.657.657,0,0,1-.619-.582.607.607,0,0,1,.532-.723c.764-.035,1.531-.033,2.294,0a.589.589,0,0,1,.546.64c.006.658,0,1.317,0,1.975a.654.654,0,0,1-.631.717.654.654,0,0,1-.71-.648c-.012-.106,0-.214,0-.42-.307.313-.558.567-.807.823q-2.012,2.074-4.021,4.152a.771.771,0,0,1-.937.184c-1.515-.592-3.038-1.165-4.549-1.767a.651.651,0,0,0-.71.081q-3.007,2.158-6.028,4.3a.7.7,0,0,1-1.042-.084.689.689,0,0,1,.262-1.007q3.275-2.337,6.55-4.674a.946.946,0,0,1,.98-.059C-1328.6,259.688-1327.031,260.3-1325.433,260.921Z" transform="translate(1356.915 -246.214)" fill="#fff"/>
          <path id="Trazado_197577" data-name="Trazado 197577" d="M-1311.26,547.287q3.682,0,7.363,0c.3,0,.58.091.657.385a.876.876,0,0,1-.074.685,1,1,0,0,1-.681.28c-1.185.027-2.37.013-3.555.013l-10.988,0c-.5,0-.83-.289-.818-.7s.3-.66.769-.66Z" transform="translate(1339.527 -517.638)" fill="#fff"/>
          <path id="Trazado_197578" data-name="Trazado 197578" d="M-1390.53,229.669c-.884,0-1.769,0-2.653,0a.647.647,0,0,1-.731-.649.646.646,0,0,1,.684-.705q2.653-.017,5.306,0a.722.722,0,0,1,.758.7.707.707,0,0,1-.783.658Q-1389.239,229.671-1390.53,229.669Z" transform="translate(1408.726 -221.584)" fill="#fff"/>
          <path id="Trazado_197579" data-name="Trazado 197579" d="M-1390.718,191.187c.862,0,1.725,0,2.587,0,.5,0,.8.246.811.662.011.382-.321.672-.812.674-1.423.007-2.846,0-4.27,0-.335,0-.671.018-1,0a.632.632,0,0,1-.644-.475.624.624,0,0,1,.269-.753.943.943,0,0,1,.44-.1c.874-.009,1.749,0,2.623,0Z" transform="translate(1408.88 -187.132)" fill="#fff"/>
          <path id="Trazado_197580" data-name="Trazado 197580" d="M-1449.462,229.57c-.215,0-.431,0-.646,0a.684.684,0,0,1-.728-.638.715.715,0,0,1,.662-.714,13.936,13.936,0,0,1,1.434,0,.643.643,0,0,1,.637.715.655.655,0,0,1-.714.635C-1449.031,229.573-1449.246,229.57-1449.462,229.57Z" transform="translate(1461.558 -221.485)" fill="#fff"/>
          <path id="Trazado_197581" data-name="Trazado 197581" d="M-1449.487,191.241c.251,0,.5-.009.753,0a.624.624,0,0,1,.6.557c.042.373-.125.7-.467.726a10.993,10.993,0,0,1-1.709.012.641.641,0,0,1-.554-.714.681.681,0,0,1,.7-.583C-1449.941,191.237-1449.714,191.241-1449.487,191.241Z" transform="translate(1461.59 -187.181)" fill="#fff"/>
        </g>
      </g>
    </g>
  </g>
</svg>
