<svg xmlns="http://www.w3.org/2000/svg" xmlns:xlink="http://www.w3.org/1999/xlink" width="179" height="230" viewBox="0 0 179 230">
  <defs>
    <filter id="Rect치ngulo_52598" x="0" y="0" width="179" height="230" filterUnits="userSpaceOnUse">
      <feOffset dy="3" input="SourceAlpha"/>
      <feGaussianBlur stdDeviation="3" result="blur"/>
      <feFlood flood-opacity="0.161"/>
      <feComposite operator="in" in2="blur"/>
      <feComposite in="SourceGraphic"/>
    </filter>
    <linearGradient id="linear-gradient" x1="0.5" x2="0.5" y2="1" gradientUnits="objectBoundingBox">
      <stop offset="0" stop-color="#067eff"/>
      <stop offset="1" stop-color="#276499"/>
    </linearGradient>
  </defs>
  <g id="Grupo_173803" data-name="Grupo 173803" transform="translate(-694 -565)">
    <g transform="matrix(1, 0, 0, 1, 694, 565)" filter="url(#Rect치ngulo_52598)">
      <rect id="Rect치ngulo_52598-2" data-name="Rect치ngulo 52598" width="161" height="212" rx="10" transform="translate(9 6)" fill="#fff"/>
    </g>
    <g id="Grupo_171306" data-name="Grupo 171306" transform="translate(746.08 589.9)">
      <ellipse id="Elipse_4775" data-name="Elipse 4775" cx="35" cy="35.5" rx="35" ry="35.5" transform="translate(-0.08 -0.9)" fill="url(#linear-gradient)"/>
      <g id="SnLQDX.tif" transform="translate(1614.87 3968.208)">
        <g id="Grupo_155565" data-name="Grupo 155565" transform="translate(-1603.63 -3954.45)">
          <path id="Trazado_197608" data-name="Trazado 197608" d="M-1569.747-3913.779h-15.261c-.326-.2-.592-.436-.473-.873.126-.465.49-.521.894-.507.121,0,.242,0,.363,0h13.891v-7.123h-20.245v7.125c.859,0,1.687-.008,2.515,0,.457.006.813.3.728.673-.059.257-.318.469-.488.7h-3.361a1.484,1.484,0,0,1-.817-1.556c.043-.78.01-1.565.01-2.4h-.531c-1.285,0-2.57.005-3.855,0a4.34,4.34,0,0,1-.989-.089,2.761,2.761,0,0,1-2.117-2.757c-.014-.538,0-1.076,0-1.639-.493,0-.916-.009-1.338,0a.778.778,0,0,1-.811-.371.762.762,0,0,1,.157-.875c.594-.819,1.194-1.635,1.766-2.469a1.338,1.338,0,0,0,.214-.66c.029-.573,0-1.148.015-1.722.008-.285-.066-.4-.376-.478a4.785,4.785,0,0,1-3.675-3.718,1.783,1.783,0,0,0-.1-.241v-1.453a1.835,1.835,0,0,0,.091-.25,4.639,4.639,0,0,1,2.269-3.187,15.536,15.536,0,0,1,1.784-.76v-.479q0-4.29,0-8.578a2.792,2.792,0,0,1,3.015-3.036c1.317-.009,2.634,0,3.95,0h.528c0-.87,0-1.684,0-2.5,0-1.058.392-1.452,1.444-1.452h20.115c1.132,0,1.5.362,1.5,1.48,0,.81,0,1.621,0,2.446h2.218c.9-2.619,2.917-4.089,5.184-3.8a4.887,4.887,0,0,1,4.4,4.355,4.913,4.913,0,0,1-4.1,5.283v8.209c.459,0,.882.008,1.305,0a.776.776,0,0,1,.81.372.765.765,0,0,1-.161.876c-.585.809-1.179,1.611-1.739,2.437a1.417,1.417,0,0,0-.241.742c-.017,2.632-.011,5.265-.011,7.9v.458c.181.045.325.084.471.119a4.872,4.872,0,0,1,3.659,5.248,4.857,4.857,0,0,1-4.751,4.278,4.851,4.851,0,0,1-4.668-3.312c-.047-.136-.168-.347-.262-.351-.691-.03-1.385-.016-2.114-.016,0,.835-.035,1.621.01,2.4A1.444,1.444,0,0,1-1569.747-3913.779Zm.813-35.307c0,1.123,0,2.209,0,3.3a1.119,1.119,0,0,1-1.206,1.224c-.681.007-1.362,0-2.043,0-.556,0-.886-.261-.888-.687s.316-.676.886-.679c.615,0,1.23,0,1.849,0v-7.117h-20.239v7.117h14.6c.151,0,.3,0,.454.006a.645.645,0,0,1,.641.64.671.671,0,0,1-.621.71c-.331.027-.666.01-1,.01h-3.223v4.2h9.345c1.054,0,1.44.392,1.44,1.455q0,4.879,0,9.759c0,1.169-.342,1.513-1.512,1.513h-8.764c-.174,0-.348.015-.523.023v3.938h.513q4.5,0,8.991,0a1.14,1.14,0,0,1,1.293,1.274c0,.59,0,1.18,0,1.77v1.467h2.122a4.958,4.958,0,0,1,4.135-4.54,1.4,1.4,0,0,0,.024-.183c0-2.784,0-5.567-.006-8.352a.926.926,0,0,0-.177-.488c-.607-.866-1.249-1.709-1.832-2.592a.923.923,0,0,1-.091-.783,1,1,0,0,1,.7-.363,11.264,11.264,0,0,1,1.39-.016v-8.215a4.95,4.95,0,0,1-4.127-4.394Zm-23.058,29.953c0-1.106,0-2.149,0-3.192,0-.933.422-1.346,1.365-1.347h9.429v-3.962h-.58q-4.406,0-8.811,0c-1.01,0-1.4-.4-1.4-1.4q0-4.926,0-9.852c0-1.079.394-1.471,1.477-1.471h9.336v-4.2h-.553q-4.5,0-8.993,0a1.143,1.143,0,0,1-1.268-1.261c0-.317,0-.635,0-.953v-2.333c-1.54,0-3.021,0-4.5,0a1.421,1.421,0,0,0-1.607,1.619q0,4.358,0,8.716v.453c.308.083.59.138.857.235a4.772,4.772,0,0,1,3,2.951.684.684,0,0,1-.365.905.694.694,0,0,1-.9-.389c-.066-.135-.115-.279-.181-.415a3.457,3.457,0,0,0-4.306-1.715,3.47,3.47,0,0,0-2.149,4.107,3.477,3.477,0,0,0,3.009,2.579,3.461,3.461,0,0,0,3.375-1.77c.3-.513.63-.661,1.016-.456.4.214.474.617.183,1.132a4.69,4.69,0,0,1-3.172,2.364c-.325.072-.373.2-.366.48.015.589-.011,1.181.013,1.77a1.14,1.14,0,0,0,.188.576c.6.87,1.249,1.71,1.831,2.594a.934.934,0,0,1,.07.785.928.928,0,0,1-.661.347,12.494,12.494,0,0,1-1.424.016c0,.679-.035,1.313.01,1.941a1.3,1.3,0,0,0,1.182,1.142C-1595.28-3919.115-1593.663-3919.133-1591.992-3919.133Zm1.411-19.8v9.882h20.252v-9.882Zm25.177-10.568a3.458,3.458,0,0,0,3.446,3.469,3.5,3.5,0,0,0,3.475-3.46,3.469,3.469,0,0,0-3.467-3.455A3.424,3.424,0,0,0-1565.4-3949.5Zm0,30.6a3.47,3.47,0,0,0,3.425,3.495,3.509,3.509,0,0,0,3.494-3.444,3.465,3.465,0,0,0-3.444-3.472A3.419,3.419,0,0,0-1565.4-3918.908Zm3.448-14.967.879-1.218h-1.754Zm-37.714,10.257h1.742l-.87-1.21Z" transform="translate(1603.63 3954.45)" fill="#fff"/>
          <path id="Trazado_197609" data-name="Trazado 197609" d="M-1437.175-3587.608c0,.5.005,1,0,1.5a.971.971,0,0,1-1.025,1.075q-1.589.033-3.179,0a.934.934,0,0,1-1-1.005q-.03-1.611,0-3.223a.943.943,0,0,1,1.017-.985q1.567-.021,3.134,0a.977.977,0,0,1,1.048,1.053C-1437.168-3588.667-1437.175-3588.138-1437.175-3587.608Zm-3.8-1.241v2.385h2.4v-2.385Z" transform="translate(1457.063 3623.397)" fill="#fff"/>
          <path id="Trazado_197610" data-name="Trazado 197610" d="M-1365.051-3581.679h-4.177a2.85,2.85,0,0,1-.363-.007.667.667,0,0,1-.667-.669.68.68,0,0,1,.668-.715,2.893,2.893,0,0,1,.363-.009h8.355c.076,0,.151,0,.227,0,.5.025.833.317.817.725a.728.728,0,0,1-.818.671C-1362.115-3581.674-1363.583-3581.679-1365.051-3581.679Z" transform="translate(1391.494 3616.872)" fill="#fff"/>
          <path id="Trazado_197611" data-name="Trazado 197611" d="M-1365.1-3555.932c-1.437,0-2.875,0-4.313,0-.577,0-.872-.241-.867-.688s.316-.682.884-.682q4.336,0,8.671,0c.7,0,1.116.55.756,1.031a1.037,1.037,0,0,1-.728.326C-1362.166-3555.917-1363.634-3555.932-1365.1-3555.932Z" transform="translate(1391.515 3593.442)" fill="#fff"/>
          <path id="Trazado_197612" data-name="Trazado 197612" d="M-1431.8-3922.562h7.262a3.452,3.452,0,0,1,.363,0,.675.675,0,0,1,.634.7.641.641,0,0,1-.625.653c-.15.013-.3.009-.454.009h-14.615c-.611-.005-.912-.239-.9-.7.01-.439.312-.667.893-.667Z" transform="translate(1455.016 3925.466)" fill="#fff"/>
          <path id="Trazado_197613" data-name="Trazado 197613" d="M-1396.663-3893.181q-2.018,0-4.035,0a.632.632,0,0,1-.7-.452.889.889,0,0,1,.124-.66.824.824,0,0,1,.587-.255c2.69-.016,5.38-.014,8.07-.009a.688.688,0,0,1,.777.695c0,.418-.28.674-.786.677C-1393.973-3893.176-1395.318-3893.181-1396.663-3893.181Z" transform="translate(1419.817 3900.009)" fill="#fff"/>
          <path id="Trazado_197614" data-name="Trazado 197614" d="M-1575.141-3751.659a2.741,2.741,0,0,1-2.734,2.743,2.751,2.751,0,0,1-2.74-2.74,2.744,2.744,0,0,1,2.738-2.741A2.733,2.733,0,0,1-1575.141-3751.659Zm-2.745-1.349a1.365,1.365,0,0,0-1.36,1.349,1.406,1.406,0,0,0,1.359,1.368,1.37,1.37,0,0,0,1.366-1.39A1.334,1.334,0,0,0-1577.886-3753.008Z" transform="translate(1582.709 3772.6)" fill="#fff"/>
          <path id="Trazado_197615" data-name="Trazado 197615" d="M-1431.828-3765.218h7.217c.151,0,.3,0,.454.011a.643.643,0,0,1,.638.642.69.69,0,0,1-.62.717,1.867,1.867,0,0,1-.272.007q-7.4,0-14.8,0a1.4,1.4,0,0,1-.486-.069.62.62,0,0,1-.408-.725.605.605,0,0,1,.56-.561,3.761,3.761,0,0,1,.5-.02Z" transform="translate(1454.991 3782.437)" fill="#fff"/>
          <path id="Trazado_197616" data-name="Trazado 197616" d="M-1431.812-3735.737h-7.308a1.853,1.853,0,0,1-.407-.012.644.644,0,0,1-.565-.707.616.616,0,0,1,.585-.635,3.506,3.506,0,0,1,.453-.012h14.525c.7,0,1.024.208,1.032.668s-.332.7-1.053.7Z" transform="translate(1454.974 3756.881)" fill="#fff"/>
          <path id="Trazado_197617" data-name="Trazado 197617" d="M-1399.115-3707.676q-2.085,0-4.171,0c-.572,0-.864-.242-.853-.7.01-.431.3-.662.844-.662q4.171,0,8.342,0c.557,0,.872.26.86.7-.012.423-.312.658-.851.659Q-1397.03-3707.673-1399.115-3707.676Z" transform="translate(1422.291 3731.365)" fill="#fff"/>
          <path id="Trazado_197618" data-name="Trazado 197618" d="M-1175.653-3927.471a2.746,2.746,0,0,1,2.667-2.813,2.769,2.769,0,0,1,2.8,2.637,2.763,2.763,0,0,1-2.672,2.859A2.75,2.75,0,0,1-1175.653-3927.471Zm1.379-.072a1.355,1.355,0,0,0,1.337,1.364,1.384,1.384,0,0,0,1.387-1.375,1.361,1.361,0,0,0-1.376-1.331A1.334,1.334,0,0,0-1174.274-3927.542Z" transform="translate(1214.596 3932.485)" fill="#fff"/>
          <path id="Trazado_197619" data-name="Trazado 197619" d="M-1175.661-3590.869a2.722,2.722,0,0,1,2.729-2.739,2.733,2.733,0,0,1,2.745,2.728,2.743,2.743,0,0,1-2.733,2.743A2.732,2.732,0,0,1-1175.661-3590.869Zm2.754-1.358a1.338,1.338,0,0,0-1.373,1.322,1.373,1.373,0,0,0,1.357,1.4,1.413,1.413,0,0,0,1.367-1.362A1.373,1.373,0,0,0-1172.908-3592.227Z" transform="translate(1214.603 3626.441)" fill="#fff"/>
        </g>
      </g>
    </g>
    <path id="Trazado_214865" data-name="Trazado 214865" d="M8.561,14h-2.2V3.336h2.2Zm3.845-7.925.066.916A2.767,2.767,0,0,1,14.75,5.929a2.3,2.3,0,0,1,1.875.74,3.451,3.451,0,0,1,.63,2.212V14H15.138V8.92a1.379,1.379,0,0,0-.293-.98,1.31,1.31,0,0,0-.974-.3,1.456,1.456,0,0,0-1.34.763V14H10.414V6.075Zm8.987-1.948V6.075h1.355V7.628H21.393v3.955a.944.944,0,0,0,.168.63.846.846,0,0,0,.645.19,3.376,3.376,0,0,0,.623-.051v1.6a4.358,4.358,0,0,1-1.282.19A2.021,2.021,0,0,1,19.277,11.9V7.628H18.119V6.075h1.157V4.127Zm6.182,10.02a3.89,3.89,0,0,1-2.838-1.069,3.8,3.8,0,0,1-1.095-2.849v-.205A4.787,4.787,0,0,1,24.1,7.888a3.386,3.386,0,0,1,1.307-1.45,3.669,3.669,0,0,1,1.93-.509A3.289,3.289,0,0,1,29.9,6.954a4.167,4.167,0,0,1,.934,2.908v.864H25.788a1.966,1.966,0,0,0,.619,1.245,1.871,1.871,0,0,0,1.307.469,2.285,2.285,0,0,0,1.912-.886l1.04,1.165a3.178,3.178,0,0,1-1.289,1.051A4.229,4.229,0,0,1,27.575,14.146Zm-.242-6.511a1.323,1.323,0,0,0-1.022.427,2.209,2.209,0,0,0-.5,1.221h2.944V9.114a1.576,1.576,0,0,0-.381-1.092A1.365,1.365,0,0,0,27.333,7.635Zm4.395,2.344A4.644,4.644,0,0,1,32.6,7.042a2.812,2.812,0,0,1,2.34-1.113,2.466,2.466,0,0,1,2.029.894l.088-.747h1.919v7.661a3.387,3.387,0,0,1-.472,1.809,3.034,3.034,0,0,1-1.329,1.172,4.673,4.673,0,0,1-2.007.4,4.346,4.346,0,0,1-1.7-.348,3.016,3.016,0,0,1-1.252-.9l.938-1.289a2.48,2.48,0,0,0,1.919.886,1.815,1.815,0,0,0,1.311-.45,1.69,1.69,0,0,0,.469-1.278v-.425a2.448,2.448,0,0,1-1.926.828A2.8,2.8,0,0,1,32.61,13.03a4.643,4.643,0,0,1-.883-2.963Zm2.117.151a2.907,2.907,0,0,0,.432,1.7,1.373,1.373,0,0,0,1.187.614,1.469,1.469,0,0,0,1.384-.728V8.364a1.465,1.465,0,0,0-1.37-.728,1.382,1.382,0,0,0-1.2.625A3.278,3.278,0,0,0,33.844,10.13ZM45.051,8.06A5.751,5.751,0,0,0,44.289,8a1.55,1.55,0,0,0-1.575.813V14H40.6V6.075h2l.059.945a1.961,1.961,0,0,1,1.765-1.091,2.218,2.218,0,0,1,.659.1ZM50.441,14a2.351,2.351,0,0,1-.212-.71,2.561,2.561,0,0,1-2,.857,2.814,2.814,0,0,1-1.93-.674,2.167,2.167,0,0,1-.765-1.7,2.24,2.24,0,0,1,.934-1.934,4.608,4.608,0,0,1,2.7-.681h.974V8.7a1.306,1.306,0,0,0-.282-.879,1.109,1.109,0,0,0-.89-.33,1.261,1.261,0,0,0-.839.256.871.871,0,0,0-.3.7H45.71a2.126,2.126,0,0,1,.425-1.274,2.808,2.808,0,0,1,1.2-.919,4.378,4.378,0,0,1,1.743-.333,3.459,3.459,0,0,1,2.325.736,2.575,2.575,0,0,1,.861,2.069v3.435a3.789,3.789,0,0,0,.315,1.707V14Zm-1.75-1.472a1.823,1.823,0,0,0,.864-.209,1.371,1.371,0,0,0,.586-.56V10.4H49.35q-1.589,0-1.692,1.1l-.007.125a.847.847,0,0,0,.278.652A1.081,1.081,0,0,0,48.691,12.528ZM58.344,8.06A5.751,5.751,0,0,0,57.582,8a1.55,1.55,0,0,0-1.575.813V14H53.891V6.075h2l.059.945a1.961,1.961,0,0,1,1.765-1.091,2.218,2.218,0,0,1,.659.1ZM65.331,14H63.207V2.75h2.124Zm1.414-4.036a4.7,4.7,0,0,1,.454-2.1,3.324,3.324,0,0,1,1.307-1.428,3.814,3.814,0,0,1,1.981-.505,3.609,3.609,0,0,1,2.618.981,3.939,3.939,0,0,1,1.132,2.666l.015.542a4.142,4.142,0,0,1-1.018,2.926,3.946,3.946,0,0,1-5.468,0,4.215,4.215,0,0,1-1.022-2.988Zm2.117.15a2.962,2.962,0,0,0,.425,1.727,1.526,1.526,0,0,0,2.417.007,3.241,3.241,0,0,0,.432-1.889A2.933,2.933,0,0,0,71.7,8.244a1.4,1.4,0,0,0-1.216-.609,1.382,1.382,0,0,0-1.2.605A3.3,3.3,0,0,0,68.862,10.115Zm10.986,1.7a.682.682,0,0,0-.385-.612,4.368,4.368,0,0,0-1.234-.4Q75.4,10.206,75.4,8.4a2.178,2.178,0,0,1,.875-1.761,3.531,3.531,0,0,1,2.289-.707,3.8,3.8,0,0,1,2.413.71,2.239,2.239,0,0,1,.9,1.846H79.767a1.024,1.024,0,0,0-.293-.751,1.24,1.24,0,0,0-.916-.3,1.267,1.267,0,0,0-.828.242.763.763,0,0,0-.293.615.652.652,0,0,0,.333.568,3.428,3.428,0,0,0,1.124.374,9.183,9.183,0,0,1,1.333.355,2.19,2.19,0,0,1,1.677,2.131,2.067,2.067,0,0,1-.93,1.754,4.013,4.013,0,0,1-2.4.67,4.191,4.191,0,0,1-1.769-.355,2.968,2.968,0,0,1-1.212-.974,2.263,2.263,0,0,1-.439-1.337H77.16a1.105,1.105,0,0,0,.417.864,1.656,1.656,0,0,0,1.04.3,1.533,1.533,0,0,0,.919-.231A.718.718,0,0,0,79.848,11.81Zm6.826-1.831a4.776,4.776,0,0,1,.831-2.952,2.7,2.7,0,0,1,2.274-1.1,2.427,2.427,0,0,1,1.912.864V2.75h2.124V14H91.9l-.1-.842a2.491,2.491,0,0,1-2.036.989,2.69,2.69,0,0,1-2.245-1.1A4.93,4.93,0,0,1,86.674,9.979Zm2.117.151a3.146,3.146,0,0,0,.388,1.714,1.263,1.263,0,0,0,1.128.6,1.416,1.416,0,0,0,1.384-.831V8.467a1.4,1.4,0,0,0-1.37-.831Q88.791,7.635,88.791,10.13ZM100.048,14a2.351,2.351,0,0,1-.212-.71,2.561,2.561,0,0,1-2,.857,2.814,2.814,0,0,1-1.93-.674,2.167,2.167,0,0,1-.765-1.7,2.24,2.24,0,0,1,.934-1.934,4.608,4.608,0,0,1,2.7-.681h.974V8.7a1.306,1.306,0,0,0-.282-.879,1.109,1.109,0,0,0-.89-.33,1.261,1.261,0,0,0-.839.256.871.871,0,0,0-.3.7H95.317a2.126,2.126,0,0,1,.425-1.274,2.808,2.808,0,0,1,1.2-.919,4.378,4.378,0,0,1,1.743-.333,3.459,3.459,0,0,1,2.325.736,2.575,2.575,0,0,1,.861,2.069v3.435a3.789,3.789,0,0,0,.315,1.707V14ZM98.3,12.528a1.823,1.823,0,0,0,.864-.209,1.371,1.371,0,0,0,.586-.56V10.4h-.791q-1.589,0-1.692,1.1l-.007.125a.847.847,0,0,0,.278.652A1.081,1.081,0,0,0,98.3,12.528Zm7.734-8.4V6.075h1.355V7.628h-1.355v3.955a.944.944,0,0,0,.168.63.846.846,0,0,0,.645.19,3.376,3.376,0,0,0,.623-.051v1.6a4.358,4.358,0,0,1-1.282.19,2.021,2.021,0,0,1-2.271-2.249V7.628h-1.157V6.075h1.157V4.127Zm1.985,5.837a4.7,4.7,0,0,1,.454-2.1,3.324,3.324,0,0,1,1.307-1.428,3.814,3.814,0,0,1,1.981-.505,3.609,3.609,0,0,1,2.618.981,3.939,3.939,0,0,1,1.132,2.666l.015.542a4.142,4.142,0,0,1-1.018,2.926,3.946,3.946,0,0,1-5.468,0,4.215,4.215,0,0,1-1.022-2.988Zm2.117.15a2.962,2.962,0,0,0,.425,1.727,1.526,1.526,0,0,0,2.417.007,3.241,3.241,0,0,0,.432-1.889,2.933,2.933,0,0,0-.432-1.716,1.4,1.4,0,0,0-1.216-.609,1.382,1.382,0,0,0-1.2.605A3.3,3.3,0,0,0,110.134,10.115Zm10.986,1.7a.682.682,0,0,0-.385-.612,4.368,4.368,0,0,0-1.234-.4q-2.827-.593-2.827-2.4a2.178,2.178,0,0,1,.875-1.761,3.531,3.531,0,0,1,2.289-.707,3.8,3.8,0,0,1,2.413.71,2.239,2.239,0,0,1,.9,1.846h-2.117a1.024,1.024,0,0,0-.293-.751,1.24,1.24,0,0,0-.916-.3,1.267,1.267,0,0,0-.828.242.763.763,0,0,0-.293.615.652.652,0,0,0,.333.568,3.428,3.428,0,0,0,1.124.374,9.183,9.183,0,0,1,1.333.355,2.19,2.19,0,0,1,1.677,2.131,2.067,2.067,0,0,1-.93,1.754,4.013,4.013,0,0,1-2.4.67,4.191,4.191,0,0,1-1.769-.355,2.968,2.968,0,0,1-1.212-.974,2.263,2.263,0,0,1-.439-1.337h2.007a1.105,1.105,0,0,0,.417.864,1.656,1.656,0,0,0,1.04.3,1.533,1.533,0,0,0,.919-.231A.718.718,0,0,0,121.12,11.81ZM28.2,27.664a11.24,11.24,0,0,1,.447-3.193,8.427,8.427,0,0,1,1.318-2.684,4.923,4.923,0,0,1,1.89-1.622l.41,1.143a5.1,5.1,0,0,0-1.67,2.446A11.327,11.327,0,0,0,30,27.62v.227a11.543,11.543,0,0,0,.593,3.882,5.2,5.2,0,0,0,1.677,2.483l-.41,1.121A4.925,4.925,0,0,1,30,33.754a8.286,8.286,0,0,1-1.315-2.611,11.173,11.173,0,0,1-.483-3.091Zm8.467,2.776a1.388,1.388,0,0,0,.952-.322A1.129,1.129,0,0,0,38,29.261h1.985a2.715,2.715,0,0,1-.439,1.476,2.9,2.9,0,0,1-1.183,1.04,3.7,3.7,0,0,1-1.659.37,3.44,3.44,0,0,1-2.681-1.08,4.275,4.275,0,0,1-.981-2.985v-.139a4.226,4.226,0,0,1,.974-2.922,3.4,3.4,0,0,1,2.673-1.091,3.333,3.333,0,0,1,2.384.846,3,3,0,0,1,.912,2.252H38a1.455,1.455,0,0,0-.381-1.005,1.416,1.416,0,0,0-2.084.153,3.125,3.125,0,0,0-.377,1.749v.22a3.164,3.164,0,0,0,.374,1.761A1.291,1.291,0,0,0,36.668,30.44Zm9.272.754a2.654,2.654,0,0,1-2.168.952,2.5,2.5,0,0,1-1.945-.732,3.127,3.127,0,0,1-.685-2.146V24.075H43.26V29.2q0,1.239,1.128,1.239a1.528,1.528,0,0,0,1.479-.748V24.075h2.124V32H46ZM54.18,32a2.351,2.351,0,0,1-.212-.71,2.561,2.561,0,0,1-2,.857,2.814,2.814,0,0,1-1.93-.674,2.167,2.167,0,0,1-.765-1.7,2.24,2.24,0,0,1,.934-1.934,4.608,4.608,0,0,1,2.7-.681h.974V26.7a1.306,1.306,0,0,0-.282-.879,1.109,1.109,0,0,0-.89-.33,1.261,1.261,0,0,0-.839.256.871.871,0,0,0-.3.7H49.449a2.126,2.126,0,0,1,.425-1.274,2.808,2.808,0,0,1,1.2-.919,4.378,4.378,0,0,1,1.743-.333,3.459,3.459,0,0,1,2.325.736A2.575,2.575,0,0,1,56,26.734v3.435a3.789,3.789,0,0,0,.315,1.707V32Zm-1.75-1.472a1.823,1.823,0,0,0,.864-.209,1.371,1.371,0,0,0,.586-.56V28.4h-.791q-1.589,0-1.692,1.1l-.007.125a.847.847,0,0,0,.278.652A1.081,1.081,0,0,0,52.43,30.528Zm7.148-6.453.066.916a2.767,2.767,0,0,1,2.278-1.062,2.3,2.3,0,0,1,1.875.74,3.451,3.451,0,0,1,.63,2.212V32H62.31V26.92a1.379,1.379,0,0,0-.293-.98,1.31,1.31,0,0,0-.974-.3,1.456,1.456,0,0,0-1.34.763V32H57.586V24.075Zm6.123,3.9a4.776,4.776,0,0,1,.831-2.952,2.7,2.7,0,0,1,2.274-1.1,2.427,2.427,0,0,1,1.912.864V20.75h2.124V32H70.931l-.1-.842a2.491,2.491,0,0,1-2.036.989,2.69,2.69,0,0,1-2.245-1.1A4.93,4.93,0,0,1,65.7,27.979Zm2.117.151a3.146,3.146,0,0,0,.388,1.714,1.263,1.263,0,0,0,1.128.6,1.416,1.416,0,0,0,1.384-.831V26.467a1.4,1.4,0,0,0-1.37-.831Q67.818,25.635,67.818,28.13Zm6.335-.165a4.7,4.7,0,0,1,.454-2.1,3.324,3.324,0,0,1,1.307-1.428,3.814,3.814,0,0,1,1.981-.505,3.609,3.609,0,0,1,2.618.981,3.939,3.939,0,0,1,1.132,2.666l.015.542a4.142,4.142,0,0,1-1.018,2.926,3.946,3.946,0,0,1-5.468,0,4.215,4.215,0,0,1-1.022-2.988Zm2.117.15a2.962,2.962,0,0,0,.425,1.727,1.526,1.526,0,0,0,2.417.007,3.241,3.241,0,0,0,.432-1.889,2.933,2.933,0,0,0-.432-1.716,1.4,1.4,0,0,0-1.216-.609,1.382,1.382,0,0,0-1.2.605A3.3,3.3,0,0,0,76.27,28.115Zm14.722,1.7a.682.682,0,0,0-.385-.612,4.368,4.368,0,0,0-1.234-.4q-2.827-.593-2.827-2.4a2.178,2.178,0,0,1,.875-1.761,3.531,3.531,0,0,1,2.289-.707,3.8,3.8,0,0,1,2.413.71,2.239,2.239,0,0,1,.9,1.846H90.911a1.024,1.024,0,0,0-.293-.751,1.24,1.24,0,0,0-.916-.3,1.267,1.267,0,0,0-.828.242.763.763,0,0,0-.293.615.652.652,0,0,0,.333.568,3.428,3.428,0,0,0,1.124.374,9.183,9.183,0,0,1,1.333.355,2.19,2.19,0,0,1,1.677,2.131,2.067,2.067,0,0,1-.93,1.754,4.013,4.013,0,0,1-2.4.67,4.191,4.191,0,0,1-1.769-.355,2.968,2.968,0,0,1-1.212-.974A2.263,2.263,0,0,1,86.3,29.48H88.3a1.105,1.105,0,0,0,.417.864,1.656,1.656,0,0,0,1.04.3,1.533,1.533,0,0,0,.919-.231A.718.718,0,0,0,90.992,29.81Zm7.068,2.336a3.89,3.89,0,0,1-2.838-1.069,3.8,3.8,0,0,1-1.095-2.849v-.205a4.787,4.787,0,0,1,.461-2.135,3.386,3.386,0,0,1,1.307-1.45,3.669,3.669,0,0,1,1.93-.509,3.289,3.289,0,0,1,2.56,1.025,4.167,4.167,0,0,1,.934,2.908v.864H96.272a1.966,1.966,0,0,0,.619,1.245,1.871,1.871,0,0,0,1.307.469,2.285,2.285,0,0,0,1.912-.886l1.04,1.165a3.178,3.178,0,0,1-1.289,1.051A4.229,4.229,0,0,1,98.06,32.146Zm-.242-6.511a1.323,1.323,0,0,0-1.022.427,2.209,2.209,0,0,0-.5,1.221h2.944v-.169a1.576,1.576,0,0,0-.381-1.092A1.365,1.365,0,0,0,97.818,25.635ZM4.705,45.964a4.7,4.7,0,0,1,.454-2.1,3.324,3.324,0,0,1,1.307-1.428,3.814,3.814,0,0,1,1.981-.505,3.609,3.609,0,0,1,2.618.981A3.939,3.939,0,0,1,12.2,45.576l.015.542a4.142,4.142,0,0,1-1.018,2.926,3.539,3.539,0,0,1-2.732,1.1,3.556,3.556,0,0,1-2.736-1.1A4.215,4.215,0,0,1,4.705,46.06Zm2.117.15a2.962,2.962,0,0,0,.425,1.727,1.4,1.4,0,0,0,1.216.6,1.4,1.4,0,0,0,1.2-.591,3.241,3.241,0,0,0,.432-1.889,2.933,2.933,0,0,0-.432-1.716,1.4,1.4,0,0,0-1.216-.609,1.382,1.382,0,0,0-1.2.605A3.3,3.3,0,0,0,6.822,46.115Zm13.835,0a4.8,4.8,0,0,1-.813,2.97,2.693,2.693,0,0,1-2.271,1.066,2.474,2.474,0,0,1-2.058-.989l-.1.842h-1.9V38.75h2.117v4.036a2.411,2.411,0,0,1,1.926-.857,2.715,2.715,0,0,1,2.274,1.066,4.806,4.806,0,0,1,.824,3Zm-2.117-.161a3.17,3.17,0,0,0-.381-1.76,1.287,1.287,0,0,0-1.135-.555,1.4,1.4,0,0,0-1.392.83V47.6a1.415,1.415,0,0,0,1.406.837,1.307,1.307,0,0,0,1.348-1.014A5.245,5.245,0,0,0,18.541,45.949ZM24.5,40.127v1.948H25.85v1.553H24.5v3.955a.944.944,0,0,0,.168.63.846.846,0,0,0,.645.19,3.376,3.376,0,0,0,.623-.051v1.6a4.358,4.358,0,0,1-1.282.19A2.021,2.021,0,0,1,22.378,47.9v-4.27H21.221V42.075h1.157V40.127ZM29.263,50H27.139V42.075h2.124Zm-2.249-9.976a1.042,1.042,0,0,1,.319-.784,1.373,1.373,0,0,1,1.732,0,1.118,1.118,0,0,1,0,1.575,1.358,1.358,0,0,1-1.721,0A1.039,1.039,0,0,1,27.015,40.024Zm7.639,10.122a3.89,3.89,0,0,1-2.838-1.069,3.8,3.8,0,0,1-1.095-2.849v-.205a4.787,4.787,0,0,1,.461-2.135,3.386,3.386,0,0,1,1.307-1.45,3.669,3.669,0,0,1,1.93-.509,3.289,3.289,0,0,1,2.56,1.025,4.167,4.167,0,0,1,.934,2.908v.864H32.867a1.966,1.966,0,0,0,.619,1.245,1.871,1.871,0,0,0,1.307.469,2.285,2.285,0,0,0,1.912-.886l1.04,1.165a3.178,3.178,0,0,1-1.289,1.051A4.229,4.229,0,0,1,34.654,50.146Zm-.242-6.511a1.323,1.323,0,0,0-1.022.427,2.209,2.209,0,0,0-.5,1.221h2.944v-.169a1.576,1.576,0,0,0-.381-1.092A1.365,1.365,0,0,0,34.412,43.635Zm6.65-1.56.066.916a2.767,2.767,0,0,1,2.278-1.062,2.3,2.3,0,0,1,1.875.74,3.451,3.451,0,0,1,.63,2.212V50H43.794V44.92a1.379,1.379,0,0,0-.293-.98,1.31,1.31,0,0,0-.974-.3,1.456,1.456,0,0,0-1.34.763V50H39.07V42.075Zm10.1,8.071a3.89,3.89,0,0,1-2.838-1.069,3.8,3.8,0,0,1-1.095-2.849v-.205a4.787,4.787,0,0,1,.461-2.135A3.386,3.386,0,0,1,49,42.438a3.669,3.669,0,0,1,1.93-.509,3.289,3.289,0,0,1,2.56,1.025,4.167,4.167,0,0,1,.934,2.908v.864H49.375a1.966,1.966,0,0,0,.619,1.245,1.871,1.871,0,0,0,1.307.469,2.285,2.285,0,0,0,1.912-.886l1.04,1.165a3.178,3.178,0,0,1-1.289,1.051A4.229,4.229,0,0,1,51.163,50.146Zm-.242-6.511a1.323,1.323,0,0,0-1.022.427,2.209,2.209,0,0,0-.5,1.221h2.944v-.169a1.576,1.576,0,0,0-.381-1.092A1.365,1.365,0,0,0,50.921,43.635Zm6.65-1.56.066.916a2.767,2.767,0,0,1,2.278-1.062,2.3,2.3,0,0,1,1.875.74,3.451,3.451,0,0,1,.63,2.212V50H60.3V44.92a1.379,1.379,0,0,0-.293-.98,1.31,1.31,0,0,0-.974-.3,1.456,1.456,0,0,0-1.34.763V50H55.579V42.075Zm9.858,3.9a4.776,4.776,0,0,1,.831-2.952,2.7,2.7,0,0,1,2.274-1.1,2.427,2.427,0,0,1,1.912.864V38.75h2.124V50H72.659l-.1-.842a2.491,2.491,0,0,1-2.036.989,2.69,2.69,0,0,1-2.245-1.1A4.93,4.93,0,0,1,67.43,45.979Zm2.117.151a3.146,3.146,0,0,0,.388,1.714,1.263,1.263,0,0,0,1.128.6,1.416,1.416,0,0,0,1.384-.831V44.467a1.4,1.4,0,0,0-1.37-.831Q69.546,43.635,69.546,46.13ZM80.8,50a2.351,2.351,0,0,1-.212-.71,2.561,2.561,0,0,1-2,.857,2.814,2.814,0,0,1-1.93-.674,2.167,2.167,0,0,1-.765-1.7,2.24,2.24,0,0,1,.934-1.934,4.608,4.608,0,0,1,2.7-.681H80.5V44.7a1.306,1.306,0,0,0-.282-.879,1.109,1.109,0,0,0-.89-.33,1.261,1.261,0,0,0-.839.256.871.871,0,0,0-.3.7H76.072a2.126,2.126,0,0,1,.425-1.274,2.808,2.808,0,0,1,1.2-.919,4.378,4.378,0,0,1,1.743-.333,3.459,3.459,0,0,1,2.325.736,2.575,2.575,0,0,1,.861,2.069v3.435a3.789,3.789,0,0,0,.315,1.707V50Zm-1.75-1.472a1.823,1.823,0,0,0,.864-.209,1.371,1.371,0,0,0,.586-.56V46.4h-.791q-1.589,0-1.692,1.1l-.007.125a.847.847,0,0,0,.278.652A1.081,1.081,0,0,0,79.053,48.528Zm7.734-8.4v1.948h1.355v1.553H86.788v3.955a.944.944,0,0,0,.168.63.846.846,0,0,0,.645.19,3.376,3.376,0,0,0,.623-.051v1.6a4.358,4.358,0,0,1-1.282.19A2.021,2.021,0,0,1,84.671,47.9v-4.27H83.514V42.075h1.157V40.127Zm1.985,5.837a4.7,4.7,0,0,1,.454-2.1,3.324,3.324,0,0,1,1.307-1.428,3.814,3.814,0,0,1,1.981-.505,3.609,3.609,0,0,1,2.618.981,3.939,3.939,0,0,1,1.132,2.666l.015.542a4.142,4.142,0,0,1-1.018,2.926,3.946,3.946,0,0,1-5.468,0,4.215,4.215,0,0,1-1.022-2.988Zm2.117.15a2.962,2.962,0,0,0,.425,1.727,1.526,1.526,0,0,0,2.417.007,3.241,3.241,0,0,0,.432-1.889,2.933,2.933,0,0,0-.432-1.716,1.4,1.4,0,0,0-1.216-.609,1.382,1.382,0,0,0-1.2.605A3.3,3.3,0,0,0,90.889,46.115Zm10.986,1.7a.682.682,0,0,0-.385-.612,4.368,4.368,0,0,0-1.234-.4q-2.827-.593-2.827-2.4a2.178,2.178,0,0,1,.875-1.761,3.531,3.531,0,0,1,2.289-.707,3.8,3.8,0,0,1,2.413.71,2.239,2.239,0,0,1,.9,1.846h-2.117a1.024,1.024,0,0,0-.293-.751,1.24,1.24,0,0,0-.916-.3,1.267,1.267,0,0,0-.828.242.763.763,0,0,0-.293.615.652.652,0,0,0,.333.568,3.428,3.428,0,0,0,1.124.374,9.183,9.183,0,0,1,1.333.355,2.19,2.19,0,0,1,1.677,2.131,2.067,2.067,0,0,1-.93,1.754,4.013,4.013,0,0,1-2.4.67,4.191,4.191,0,0,1-1.769-.355,2.968,2.968,0,0,1-1.212-.974,2.263,2.263,0,0,1-.439-1.337h2.007a1.105,1.105,0,0,0,.417.864,1.656,1.656,0,0,0,1.04.3,1.533,1.533,0,0,0,.919-.231A.718.718,0,0,0,101.875,47.81Zm6.826-1.831a4.776,4.776,0,0,1,.831-2.952,2.7,2.7,0,0,1,2.274-1.1,2.427,2.427,0,0,1,1.912.864V38.75h2.124V50h-1.912l-.1-.842a2.491,2.491,0,0,1-2.036.989,2.69,2.69,0,0,1-2.245-1.1A4.93,4.93,0,0,1,108.7,45.979Zm2.117.151a3.146,3.146,0,0,0,.388,1.714,1.263,1.263,0,0,0,1.128.6,1.416,1.416,0,0,0,1.384-.831V44.467a1.4,1.4,0,0,0-1.37-.831Q110.818,43.635,110.818,46.13Zm10.313,4.017a3.89,3.89,0,0,1-2.838-1.069,3.8,3.8,0,0,1-1.095-2.849v-.205a4.787,4.787,0,0,1,.461-2.135,3.386,3.386,0,0,1,1.307-1.45,3.669,3.669,0,0,1,1.93-.509,3.289,3.289,0,0,1,2.56,1.025,4.167,4.167,0,0,1,.934,2.908v.864h-5.046a1.966,1.966,0,0,0,.619,1.245,1.871,1.871,0,0,0,1.307.469,2.285,2.285,0,0,0,1.912-.886l1.04,1.165a3.178,3.178,0,0,1-1.289,1.051A4.229,4.229,0,0,1,121.131,50.146Zm-.242-6.511a1.323,1.323,0,0,0-1.022.427,2.209,2.209,0,0,0-.5,1.221h2.944v-.169a1.576,1.576,0,0,0-.381-1.092A1.365,1.365,0,0,0,120.889,43.635Zm-119,20.344a4.776,4.776,0,0,1,.831-2.952A2.7,2.7,0,0,1,5,59.929a2.427,2.427,0,0,1,1.912.864V56.75H9.034V68H7.122l-.1-.842a2.491,2.491,0,0,1-2.036.989,2.69,2.69,0,0,1-2.245-1.1A4.93,4.93,0,0,1,1.893,63.979Zm2.117.151A3.146,3.146,0,0,0,4.4,65.844a1.263,1.263,0,0,0,1.128.6,1.416,1.416,0,0,0,1.384-.831V62.467a1.4,1.4,0,0,0-1.37-.831Q4.009,61.635,4.009,64.13Zm8.9,3.87H10.784V60.075h2.124ZM10.66,58.024a1.042,1.042,0,0,1,.319-.784,1.2,1.2,0,0,1,.868-.308,1.2,1.2,0,0,1,.864.308,1.118,1.118,0,0,1,0,1.575,1.358,1.358,0,0,1-1.721,0A1.039,1.039,0,0,1,10.66,58.024ZM15.23,68V61.628H14.051V60.075H15.23V59.4A2.736,2.736,0,0,1,16,57.332a2.964,2.964,0,0,1,2.142-.736,4.989,4.989,0,0,1,1.077.145l-.022,1.627a2.7,2.7,0,0,0-.645-.066q-1.194,0-1.194,1.13v.642h1.575v1.553H17.354V68Zm8.269.146a3.89,3.89,0,0,1-2.838-1.069,3.8,3.8,0,0,1-1.095-2.849v-.205a4.787,4.787,0,0,1,.461-2.135,3.386,3.386,0,0,1,1.307-1.45,3.669,3.669,0,0,1,1.93-.509,3.289,3.289,0,0,1,2.56,1.025,4.167,4.167,0,0,1,.934,2.908v.864H21.712a1.966,1.966,0,0,0,.619,1.245,1.871,1.871,0,0,0,1.307.469,2.285,2.285,0,0,0,1.912-.886l1.04,1.165A3.178,3.178,0,0,1,25.3,67.769,4.229,4.229,0,0,1,23.5,68.146Zm-.242-6.511a1.323,1.323,0,0,0-1.022.427,2.209,2.209,0,0,0-.5,1.221h2.944v-.169a1.576,1.576,0,0,0-.381-1.092A1.365,1.365,0,0,0,23.257,61.635Zm9.155.425A5.75,5.75,0,0,0,31.651,62a1.55,1.55,0,0,0-1.575.813V68H27.959V60.075h2l.059.945a1.961,1.961,0,0,1,1.765-1.091,2.218,2.218,0,0,1,.659.1Zm4.526,6.086A3.89,3.89,0,0,1,34.1,67.077a3.8,3.8,0,0,1-1.095-2.849v-.205a4.787,4.787,0,0,1,.461-2.135,3.386,3.386,0,0,1,1.307-1.45,3.669,3.669,0,0,1,1.93-.509,3.289,3.289,0,0,1,2.56,1.025,4.167,4.167,0,0,1,.934,2.908v.864H35.152a1.966,1.966,0,0,0,.619,1.245,1.871,1.871,0,0,0,1.307.469,2.285,2.285,0,0,0,1.912-.886l1.04,1.165a3.178,3.178,0,0,1-1.289,1.051A4.229,4.229,0,0,1,36.939,68.146ZM36.7,61.635a1.323,1.323,0,0,0-1.022.427,2.209,2.209,0,0,0-.5,1.221h2.944v-.169a1.576,1.576,0,0,0-.381-1.092A1.365,1.365,0,0,0,36.7,61.635Zm6.65-1.56.066.916a2.767,2.767,0,0,1,2.278-1.062,2.3,2.3,0,0,1,1.875.74,3.451,3.451,0,0,1,.63,2.212V68H46.08V62.92a1.379,1.379,0,0,0-.293-.98,1.31,1.31,0,0,0-.974-.3,1.456,1.456,0,0,0-1.34.763V68H41.355V60.075Zm8.987-1.948v1.948h1.355v1.553H52.334v3.955a.944.944,0,0,0,.168.63.846.846,0,0,0,.645.19,3.376,3.376,0,0,0,.623-.051v1.6a4.358,4.358,0,0,1-1.282.19A2.021,2.021,0,0,1,50.218,65.9v-4.27H49.061V60.075h1.157V58.127Zm6.182,10.02a3.89,3.89,0,0,1-2.838-1.069,3.8,3.8,0,0,1-1.095-2.849v-.205a4.787,4.787,0,0,1,.461-2.135,3.386,3.386,0,0,1,1.307-1.45,3.669,3.669,0,0,1,1.93-.509,3.289,3.289,0,0,1,2.56,1.025,4.167,4.167,0,0,1,.934,2.908v.864H56.729a1.966,1.966,0,0,0,.619,1.245,1.871,1.871,0,0,0,1.307.469,2.285,2.285,0,0,0,1.912-.886l1.04,1.165a3.178,3.178,0,0,1-1.289,1.051A4.229,4.229,0,0,1,58.516,68.146Zm-.242-6.511a1.323,1.323,0,0,0-1.022.427,2.209,2.209,0,0,0-.5,1.221H59.7v-.169a1.576,1.576,0,0,0-.381-1.092A1.365,1.365,0,0,0,58.274,61.635Zm8.994,4.175a.682.682,0,0,0-.385-.612,4.368,4.368,0,0,0-1.234-.4q-2.827-.593-2.827-2.4a2.178,2.178,0,0,1,.875-1.761,3.531,3.531,0,0,1,2.289-.707,3.8,3.8,0,0,1,2.413.71,2.239,2.239,0,0,1,.9,1.846H67.188a1.024,1.024,0,0,0-.293-.751,1.24,1.24,0,0,0-.916-.3,1.267,1.267,0,0,0-.828.242.763.763,0,0,0-.293.615.652.652,0,0,0,.333.568,3.428,3.428,0,0,0,1.124.374,9.183,9.183,0,0,1,1.333.355,2.19,2.19,0,0,1,1.677,2.131,2.067,2.067,0,0,1-.93,1.754,4.013,4.013,0,0,1-2.4.67,4.191,4.191,0,0,1-1.769-.355,2.968,2.968,0,0,1-1.212-.974,2.263,2.263,0,0,1-.439-1.337h2.007a1.105,1.105,0,0,0,.417.864,1.656,1.656,0,0,0,1.04.3,1.533,1.533,0,0,0,.919-.231A.718.718,0,0,0,67.269,65.81Zm9.69-7.683v1.948h1.355v1.553H76.958v3.955a.944.944,0,0,0,.168.63.846.846,0,0,0,.645.19,3.376,3.376,0,0,0,.623-.051v1.6a4.358,4.358,0,0,1-1.282.19A2.021,2.021,0,0,1,74.842,65.9v-4.27H73.685V60.075h1.157V58.127ZM81.727,68H79.6V60.075h2.124Zm-2.249-9.976a1.042,1.042,0,0,1,.319-.784,1.373,1.373,0,0,1,1.732,0,1.118,1.118,0,0,1,0,1.575,1.358,1.358,0,0,1-1.721,0A1.039,1.039,0,0,1,79.478,58.024ZM90.6,64.111a4.753,4.753,0,0,1-.831,2.933,2.665,2.665,0,0,1-2.245,1.1,2.469,2.469,0,0,1-1.941-.835v3.735H83.47V60.075h1.963l.073.776a2.488,2.488,0,0,1,2.007-.923,2.683,2.683,0,0,1,2.278,1.084A4.882,4.882,0,0,1,90.6,64Zm-2.117-.161a3.136,3.136,0,0,0-.392-1.712,1.275,1.275,0,0,0-1.139-.6,1.385,1.385,0,0,0-1.37.764v3.255a1.409,1.409,0,0,0,1.384.786Q88.487,66.44,88.487,63.949Zm3.1.015a4.7,4.7,0,0,1,.454-2.1,3.324,3.324,0,0,1,1.307-1.428,3.814,3.814,0,0,1,1.981-.505,3.609,3.609,0,0,1,2.618.981,3.939,3.939,0,0,1,1.132,2.666l.015.542a4.142,4.142,0,0,1-1.018,2.926,3.946,3.946,0,0,1-5.468,0,4.215,4.215,0,0,1-1.022-2.988Zm2.117.15a2.962,2.962,0,0,0,.425,1.727,1.526,1.526,0,0,0,2.417.007,3.241,3.241,0,0,0,.432-1.889,2.933,2.933,0,0,0-.432-1.716,1.4,1.4,0,0,0-1.216-.609,1.382,1.382,0,0,0-1.2.605A3.3,3.3,0,0,0,93.7,64.115Zm10.986,1.7a.682.682,0,0,0-.385-.612,4.368,4.368,0,0,0-1.234-.4q-2.827-.593-2.827-2.4a2.178,2.178,0,0,1,.875-1.761,3.531,3.531,0,0,1,2.289-.707,3.8,3.8,0,0,1,2.413.71,2.239,2.239,0,0,1,.9,1.846h-2.117a1.024,1.024,0,0,0-.293-.751,1.24,1.24,0,0,0-.916-.3,1.267,1.267,0,0,0-.828.242.763.763,0,0,0-.293.615.652.652,0,0,0,.333.568,3.428,3.428,0,0,0,1.124.374,9.183,9.183,0,0,1,1.333.355,2.19,2.19,0,0,1,1.677,2.131,2.067,2.067,0,0,1-.93,1.754,4.013,4.013,0,0,1-2.4.67,4.191,4.191,0,0,1-1.769-.355,2.968,2.968,0,0,1-1.212-.974,2.263,2.263,0,0,1-.439-1.337H102a1.105,1.105,0,0,0,.417.864,1.656,1.656,0,0,0,1.04.3,1.533,1.533,0,0,0,.919-.231A.718.718,0,0,0,104.688,65.81Zm6.826-1.831a4.776,4.776,0,0,1,.831-2.952,2.7,2.7,0,0,1,2.274-1.1,2.427,2.427,0,0,1,1.912.864V56.75h2.124V68h-1.912l-.1-.842a2.491,2.491,0,0,1-2.036.989,2.69,2.69,0,0,1-2.245-1.1A4.93,4.93,0,0,1,111.514,63.979Zm2.117.151a3.146,3.146,0,0,0,.388,1.714,1.263,1.263,0,0,0,1.128.6,1.416,1.416,0,0,0,1.384-.831V62.467a1.4,1.4,0,0,0-1.37-.831Q113.631,61.635,113.631,64.13Zm10.313,4.017a3.89,3.89,0,0,1-2.838-1.069,3.8,3.8,0,0,1-1.095-2.849v-.205a4.787,4.787,0,0,1,.461-2.135,3.386,3.386,0,0,1,1.307-1.45,3.669,3.669,0,0,1,1.93-.509,3.289,3.289,0,0,1,2.56,1.025,4.167,4.167,0,0,1,.934,2.908v.864h-5.046a1.966,1.966,0,0,0,.619,1.245,1.871,1.871,0,0,0,1.307.469,2.285,2.285,0,0,0,1.912-.886l1.04,1.165a3.178,3.178,0,0,1-1.289,1.051A4.229,4.229,0,0,1,123.943,68.146Zm-.242-6.511a1.323,1.323,0,0,0-1.022.427,2.209,2.209,0,0,0-.5,1.221h2.944v-.169a1.576,1.576,0,0,0-.381-1.092A1.365,1.365,0,0,0,123.7,61.635ZM37.664,86V79.628H36.485V78.075h1.179V77.4a2.736,2.736,0,0,1,.765-2.069,2.964,2.964,0,0,1,2.142-.736,4.989,4.989,0,0,1,1.077.145l-.022,1.627a2.7,2.7,0,0,0-.645-.066q-1.194,0-1.194,1.13v.642h1.575v1.553H39.788V86Zm9.543-.806a2.654,2.654,0,0,1-2.168.952,2.5,2.5,0,0,1-1.945-.732,3.127,3.127,0,0,1-.685-2.146V78.075h2.117V83.2q0,1.239,1.128,1.239a1.528,1.528,0,0,0,1.479-.748V78.075h2.124V86H47.266Zm7.295.952a3.89,3.89,0,0,1-2.838-1.069,3.8,3.8,0,0,1-1.095-2.849v-.205a4.787,4.787,0,0,1,.461-2.135,3.386,3.386,0,0,1,1.307-1.45,3.669,3.669,0,0,1,1.93-.509,3.289,3.289,0,0,1,2.56,1.025,4.167,4.167,0,0,1,.934,2.908v.864H52.715a1.966,1.966,0,0,0,.619,1.245,1.871,1.871,0,0,0,1.307.469,2.285,2.285,0,0,0,1.912-.886l1.04,1.165A3.178,3.178,0,0,1,56.3,85.769,4.229,4.229,0,0,1,54.5,86.146Zm-.242-6.511a1.323,1.323,0,0,0-1.022.427,2.209,2.209,0,0,0-.5,1.221h2.944v-.169a1.576,1.576,0,0,0-.381-1.092A1.365,1.365,0,0,0,54.261,79.635Zm6.65-1.56.066.916a2.767,2.767,0,0,1,2.278-1.062,2.3,2.3,0,0,1,1.875.74,3.451,3.451,0,0,1,.63,2.212V86H63.643V80.92a1.379,1.379,0,0,0-.293-.98,1.31,1.31,0,0,0-.974-.3,1.456,1.456,0,0,0-1.34.763V86H58.919V78.075ZM69.9,76.127v1.948h1.355v1.553H69.9v3.955a.944.944,0,0,0,.168.63.846.846,0,0,0,.645.19,3.376,3.376,0,0,0,.623-.051v1.6a4.358,4.358,0,0,1-1.282.19A2.021,2.021,0,0,1,67.781,83.9v-4.27H66.624V78.075h1.157V76.127Zm6.182,10.02a3.89,3.89,0,0,1-2.838-1.069,3.8,3.8,0,0,1-1.095-2.849v-.205a4.787,4.787,0,0,1,.461-2.135,3.386,3.386,0,0,1,1.307-1.45,3.669,3.669,0,0,1,1.93-.509,3.289,3.289,0,0,1,2.56,1.025,4.167,4.167,0,0,1,.934,2.908v.864H74.292a1.966,1.966,0,0,0,.619,1.245,1.871,1.871,0,0,0,1.307.469,2.285,2.285,0,0,0,1.912-.886l1.04,1.165a3.178,3.178,0,0,1-1.289,1.051A4.229,4.229,0,0,1,76.08,86.146Zm-.242-6.511a1.323,1.323,0,0,0-1.022.427,2.209,2.209,0,0,0-.5,1.221h2.944v-.169a1.576,1.576,0,0,0-.381-1.092A1.365,1.365,0,0,0,75.838,79.635Zm8.994,4.175a.682.682,0,0,0-.385-.612,4.368,4.368,0,0,0-1.234-.4q-2.827-.593-2.827-2.4a2.178,2.178,0,0,1,.875-1.761,3.531,3.531,0,0,1,2.289-.707,3.8,3.8,0,0,1,2.413.71,2.239,2.239,0,0,1,.9,1.846H84.751a1.024,1.024,0,0,0-.293-.751,1.24,1.24,0,0,0-.916-.3,1.267,1.267,0,0,0-.828.242.763.763,0,0,0-.293.615.652.652,0,0,0,.333.568,3.428,3.428,0,0,0,1.124.374,9.183,9.183,0,0,1,1.333.355,2.19,2.19,0,0,1,1.677,2.131,2.067,2.067,0,0,1-.93,1.754,4.013,4.013,0,0,1-2.4.67,4.191,4.191,0,0,1-1.769-.355,2.968,2.968,0,0,1-1.212-.974,2.263,2.263,0,0,1-.439-1.337h2.007a1.105,1.105,0,0,0,.417.864,1.656,1.656,0,0,0,1.04.3,1.533,1.533,0,0,0,.919-.231A.718.718,0,0,0,84.832,83.81ZM91.9,81.833a10.666,10.666,0,0,1-.476,3.186,8.648,8.648,0,0,1-1.37,2.7,4.935,4.935,0,0,1-1.912,1.611l-.41-1.121a5.15,5.15,0,0,0,1.641-2.417A11.192,11.192,0,0,0,90,82.038v-.388a11.445,11.445,0,0,0-.6-3.86,5.369,5.369,0,0,0-1.666-2.5l.41-1.121a4.936,4.936,0,0,1,1.879,1.567,8.537,8.537,0,0,1,1.37,2.644A10.59,10.59,0,0,1,91.9,81.5Z" transform="translate(716 674)" fill="#12263f"/>
  </g>
</svg>
