<svg xmlns="http://www.w3.org/2000/svg" xmlns:xlink="http://www.w3.org/1999/xlink" width="360.523" height="472.919" viewBox="0 0 360.523 472.919">
  <defs>
    <linearGradient id="linear-gradient" x1="0.5" x2="0.5" y2="1" gradientUnits="objectBoundingBox">
      <stop offset="0" stop-color="#ff5983"/>
      <stop offset="1" stop-color="#7e137c"/>
    </linearGradient>
    <filter id="Rectángulo_46669" x="19.122" y="20.189" width="255.091" height="452.73" filterUnits="userSpaceOnUse">
      <feOffset dy="3" input="SourceAlpha"/>
      <feGaussianBlur stdDeviation="3" result="blur"/>
      <feFlood flood-opacity="0.161"/>
      <feComposite operator="in" in2="blur"/>
      <feComposite in="SourceGraphic"/>
    </filter>
  </defs>
  <g id="Grupo_173807" data-name="Grupo 173807" transform="translate(-1012.599 -7477.363)">
    <g id="Grupo_171317" data-name="Grupo 171317" transform="translate(1080.651 3618.977)">
      <g id="Grupo_166659" data-name="Grupo 166659" transform="translate(-68.052 3859.563)">
        <path id="Trazado_210944" data-name="Trazado 210944" d="M170.8,4296.029h-1.927c-1.384,0-2.506-1.426-2.506-3.185s1.122-3.185,2.506-3.185H170.8c1.384,0,2.506,1.426,2.506,3.185S172.179,4296.029,170.8,4296.029Zm-21.2,0h-1.927c-1.384,0-2.506-1.426-2.506-3.185s1.122-3.185,2.506-3.185h1.927c1.384,0,2.506,1.426,2.506,3.185S150.978,4296.029,149.595,4296.029Zm-21.2,0h-1.927c-1.384,0-2.506-1.426-2.506-3.185s1.122-3.185,2.506-3.185h1.927c1.384,0,2.506,1.426,2.506,3.185S129.778,4296.029,128.394,4296.029Zm-21.2,0h-1.927c-1.384,0-2.506-1.426-2.506-3.185s1.122-3.185,2.506-3.185h1.927c1.384,0,2.506,1.426,2.506,3.185S108.577,4296.029,107.194,4296.029Zm-21.2,0H84.066c-1.384,0-2.506-1.426-2.506-3.185s1.122-3.185,2.506-3.185h1.927c1.384,0,2.506,1.426,2.506,3.185S87.377,4296.029,85.993,4296.029Zm-21.2,0H62.865c-1.384,0-2.506-1.426-2.506-3.185s1.122-3.185,2.506-3.185h1.927c1.384,0,2.506,1.426,2.506,3.185S66.176,4296.029,64.792,4296.029Zm-21.2,0H41.665c-1.384,0-2.506-1.426-2.506-3.185s1.122-3.185,2.506-3.185h1.927c1.384,0,2.506,1.426,2.506,3.185S44.976,4296.029,43.592,4296.029Zm-21.2,0H20.464c-1.384,0-2.506-1.426-2.506-3.185s1.122-3.185,2.506-3.185h1.927c1.384,0,2.506,1.426,2.506,3.185S23.775,4296.029,22.391,4296.029Zm-21.2,0H-.736c-1.384,0-2.506-1.426-2.506-3.185s1.122-3.185,2.506-3.185H1.191c1.384,0,2.506,1.426,2.506,3.185S2.575,4296.029,1.191,4296.029Zm-21.2,0h-1.927c-1.384,0-2.506-1.426-2.506-3.185s1.122-3.185,2.506-3.185h1.927c1.384,0,2.506,1.426,2.506,3.185S-18.626,4296.029-20.01,4296.029Zm-21.2-.079c-.058,0-.116,0-.175-.008-.7-.062-1.406-.156-2.1-.281-1.37-.25-2.321-1.863-2.125-3.6s1.467-2.951,2.835-2.7c.571.1,1.154.183,1.733.233,1.381.121,2.423,1.642,2.328,3.4C-38.8,4294.664-39.9,4295.95-41.205,4295.95Zm219.1-1.159a2.678,2.678,0,0,1-2.41-2.322,3.367,3.367,0,0,1,1.732-3.929c.559-.2,1.117-.429,1.658-.678,1.3-.6,2.738.253,3.21,1.907a3.477,3.477,0,0,1-1.5,4.08c-.656.3-1.332.579-2.009.822A2.02,2.02,0,0,1,177.894,4294.791ZM-59.545,4283.97a2.332,2.332,0,0,1-1.931-1.153c-.448-.687-.88-1.4-1.285-2.127a3.767,3.767,0,0,1,.589-4.441,2.187,2.187,0,0,1,3.494.75c.335.6.692,1.189,1.062,1.756a3.8,3.8,0,0,1-.332,4.484A2.2,2.2,0,0,1-59.545,4283.97Zm253.474-5.659a2.083,2.083,0,0,1-1.17-.371,3.653,3.653,0,0,1-1.042-4.3c.271-.651.525-1.321.757-1.995.555-1.611,2.033-2.347,3.3-1.64a3.564,3.564,0,0,1,1.29,4.194c-.281.816-.59,1.63-.919,2.419A2.5,2.5,0,0,1,193.929,4278.311Zm-259.475-19.493c-1.384,0-2.506-1.426-2.506-3.185v-2.45c0-1.759,1.122-3.185,2.506-3.185s2.506,1.426,2.506,3.185v2.45C-63.041,4257.392-64.163,4258.818-65.546,4258.818Zm262.5-6.825c-1.384,0-2.506-1.426-2.506-3.185v-2.45c0-1.759,1.122-3.185,2.506-3.185s2.506,1.426,2.506,3.185v2.45C199.46,4250.567,198.339,4251.993,196.955,4251.993Zm-262.5-20.123c-1.384,0-2.506-1.426-2.506-3.185v-2.45c0-1.759,1.122-3.185,2.506-3.185s2.506,1.425,2.506,3.185v2.45C-63.041,4230.444-64.163,4231.87-65.546,4231.87Zm262.5-6.825c-1.384,0-2.506-1.426-2.506-3.185v-2.45c0-1.759,1.122-3.185,2.506-3.185s2.506,1.425,2.506,3.185v2.45C199.46,4223.62,198.339,4225.045,196.955,4225.045Zm-262.5-20.124c-1.384,0-2.506-1.425-2.506-3.185v-2.45c0-1.759,1.122-3.185,2.506-3.185s2.506,1.426,2.506,3.185v2.45C-63.041,4203.5-64.163,4204.922-65.546,4204.922Zm262.5-6.825c-1.384,0-2.506-1.425-2.506-3.185v-2.45c0-1.759,1.122-3.185,2.506-3.185s2.506,1.426,2.506,3.185v2.45C199.46,4196.672,198.339,4198.1,196.955,4198.1Zm-262.5-20.123c-1.384,0-2.506-1.425-2.506-3.185v-2.449c0-1.759,1.122-3.185,2.506-3.185s2.506,1.426,2.506,3.185v2.449C-63.041,4176.549-64.163,4177.975-65.546,4177.975Zm262.5-6.825c-1.384,0-2.506-1.426-2.506-3.185v-2.45c0-1.759,1.122-3.185,2.506-3.185s2.506,1.425,2.506,3.185v2.45C199.46,4169.724,198.339,4171.15,196.955,4171.15Zm-262.5-20.123c-1.384,0-2.506-1.426-2.506-3.185v-2.45c0-1.759,1.122-3.185,2.506-3.185s2.506,1.426,2.506,3.185v2.45C-63.041,4149.6-64.163,4151.027-65.546,4151.027Zm262.5-6.825c-1.384,0-2.506-1.426-2.506-3.185v-2.45c0-1.759,1.122-3.185,2.506-3.185s2.506,1.426,2.506,3.185v2.45C199.46,4142.776,198.339,4144.2,196.955,4144.2Zm-262.5-20.123c-1.384,0-2.506-1.425-2.506-3.185v-2.45c0-1.759,1.122-3.185,2.506-3.185s2.506,1.425,2.506,3.185v2.45C-63.041,4122.654-64.163,4124.079-65.546,4124.079Zm262.5-6.825c-1.384,0-2.506-1.426-2.506-3.185v-2.45c0-1.759,1.122-3.185,2.506-3.185s2.506,1.425,2.506,3.185v2.45C199.46,4115.828,198.339,4117.254,196.955,4117.254Zm-262.5-20.123c-1.384,0-2.506-1.425-2.506-3.185v-2.45c0-1.758,1.122-3.185,2.506-3.185s2.506,1.426,2.506,3.185v2.45C-63.041,4095.706-64.163,4097.131-65.546,4097.131Zm262.5-6.825c-1.384,0-2.506-1.425-2.506-3.185v-2.45c0-1.759,1.122-3.185,2.506-3.185s2.506,1.426,2.506,3.185v2.45C199.46,4088.881,198.339,4090.306,196.955,4090.306Zm-262.5-20.123c-1.384,0-2.506-1.426-2.506-3.185v-2.45c0-1.759,1.122-3.185,2.506-3.185s2.506,1.426,2.506,3.185V4067C-63.041,4068.758-64.163,4070.184-65.546,4070.184Zm262.5-6.825c-1.384,0-2.506-1.426-2.506-3.185v-2.45c0-1.759,1.122-3.185,2.506-3.185s2.506,1.426,2.506,3.185v2.45C199.46,4061.933,198.339,4063.359,196.955,4063.359Zm-262.5-20.123c-1.384,0-2.506-1.425-2.506-3.185v-2.45c0-1.759,1.122-3.185,2.506-3.185s2.506,1.426,2.506,3.185v2.45C-63.041,4041.811-64.163,4043.236-65.546,4043.236Zm262.5-6.824c-1.384,0-2.506-1.426-2.506-3.185v-2.45c0-1.759,1.122-3.185,2.506-3.185s2.506,1.426,2.506,3.185v2.45C199.46,4034.985,198.339,4036.412,196.955,4036.412Zm-262.5-20.123c-1.384,0-2.506-1.426-2.506-3.185v-2.45c0-1.759,1.122-3.185,2.506-3.185s2.506,1.425,2.506,3.185v2.45C-63.041,4014.863-64.163,4016.289-65.546,4016.289Zm262.5-6.825c-1.384,0-2.506-1.426-2.506-3.185v-2.45c0-1.759,1.122-3.185,2.506-3.185s2.506,1.426,2.506,3.185v2.45C199.46,4008.038,198.339,4009.464,196.955,4009.464Zm-262.5-20.124c-1.384,0-2.506-1.425-2.506-3.185v-2.45c0-1.759,1.122-3.185,2.506-3.185s2.506,1.426,2.506,3.185v2.45C-63.041,3987.915-64.163,3989.34-65.546,3989.34Zm262.5-6.824c-1.384,0-2.506-1.426-2.506-3.185v-2.45c0-1.759,1.122-3.185,2.506-3.185s2.506,1.426,2.506,3.185v2.45C199.46,3981.09,198.339,3982.516,196.955,3982.516Zm-262.5-20.123c-1.384,0-2.506-1.426-2.506-3.185v-2.45c0-1.759,1.122-3.185,2.506-3.185s2.506,1.426,2.506,3.185v2.45C-63.041,3960.967-64.163,3962.393-65.546,3962.393Zm262.5-6.825c-1.384,0-2.506-1.426-2.506-3.185v-2.45c0-1.759,1.122-3.185,2.506-3.185s2.506,1.426,2.506,3.185v2.45C199.46,3954.142,198.339,3955.568,196.955,3955.568Zm-262.5-20.123c-1.384,0-2.506-1.426-2.506-3.185v-2.45c0-1.759,1.122-3.185,2.506-3.185s2.506,1.426,2.506,3.185v2.45C-63.041,3934.02-64.163,3935.445-65.546,3935.445Zm262.5-6.825c-1.384,0-2.506-1.426-2.506-3.185v-2.45c0-1.759,1.122-3.185,2.506-3.185s2.506,1.426,2.506,3.185v2.45C199.46,3927.194,198.339,3928.621,196.955,3928.621Zm-262.5-20.123c-1.384,0-2.506-1.426-2.506-3.185v-2.45c0-1.759,1.122-3.185,2.506-3.185s2.506,1.426,2.506,3.185v2.45C-63.041,3907.072-64.163,3908.5-65.546,3908.5Zm262.5-6.825c-1.384,0-2.506-1.426-2.506-3.185v-.616c0-.552-.012-1.11-.035-1.66-.075-1.756.984-3.257,2.366-3.353s2.563,1.25,2.638,3.007c.028.664.043,1.338.043,2.006v.616C199.46,3900.247,198.339,3901.673,196.955,3901.673Zm-258.136-19.018a2.133,2.133,0,0,1-1.386-.534,3.746,3.746,0,0,1-.7-4.416c.389-.742.8-1.475,1.233-2.178a2.17,2.17,0,0,1,3.516-.561,3.793,3.793,0,0,1,.441,4.47c-.355.58-.7,1.185-1.019,1.8A2.414,2.414,0,0,1-61.181,3882.655Zm250.358-5.255a2.257,2.257,0,0,1-1.761-.92c-.41-.516-.842-1.019-1.284-1.5a3.809,3.809,0,0,1-.281-4.489,2.158,2.158,0,0,1,3.532-.357c.535.579,1.058,1.19,1.555,1.814a3.822,3.822,0,0,1,.02,4.5A2.265,2.265,0,0,1,189.177,3877.4Zm-233.1-9.1a2.764,2.764,0,0,1-2.465-2.637c-.238-1.732.673-3.382,2.036-3.685.692-.154,1.4-.276,2.092-.364,1.373-.175,2.6,1.1,2.741,2.854s-.869,3.31-2.246,3.483c-.574.073-1.153.174-1.724.3A1.985,1.985,0,0,1-43.925,3868.3Zm213.911-.5h-1.927c-1.384,0-2.506-1.426-2.506-3.185s1.122-3.185,2.506-3.185h1.927c1.384,0,2.506,1.426,2.506,3.185S171.369,3867.805,169.986,3867.805Zm-21.2,0h-1.927c-1.384,0-2.506-1.426-2.506-3.185s1.122-3.185,2.506-3.185h1.927c1.384,0,2.506,1.426,2.506,3.185S150.169,3867.805,148.785,3867.805Zm-21.2,0h-1.927c-1.384,0-2.506-1.426-2.506-3.185s1.122-3.185,2.506-3.185h1.927c1.384,0,2.506,1.426,2.506,3.185S128.969,3867.805,127.585,3867.805Zm-21.2,0h-1.927c-1.384,0-2.506-1.426-2.506-3.185s1.122-3.185,2.506-3.185h1.927c1.384,0,2.506,1.426,2.506,3.185S107.768,3867.805,106.384,3867.805Zm-21.2,0H83.257c-1.384,0-2.506-1.426-2.506-3.185s1.122-3.185,2.506-3.185h1.927c1.384,0,2.506,1.426,2.506,3.185S86.568,3867.805,85.184,3867.805Zm-21.2,0H62.056c-1.384,0-2.506-1.426-2.506-3.185s1.122-3.185,2.506-3.185h1.927c1.384,0,2.506,1.426,2.506,3.185S65.367,3867.805,63.983,3867.805Zm-21.2,0H40.856c-1.384,0-2.506-1.426-2.506-3.185s1.122-3.185,2.506-3.185h1.927c1.384,0,2.506,1.426,2.506,3.185S44.167,3867.805,42.783,3867.805Zm-21.2,0H19.655c-1.384,0-2.506-1.426-2.506-3.185s1.122-3.185,2.506-3.185h1.927c1.384,0,2.506,1.426,2.506,3.185S22.966,3867.805,21.582,3867.805Zm-21.2,0H-1.546c-1.384,0-2.506-1.426-2.506-3.185s1.122-3.185,2.506-3.185H.382c1.384,0,2.506,1.426,2.506,3.185S1.766,3867.805.382,3867.805Zm-21.2,0h-1.927c-1.384,0-2.506-1.426-2.506-3.185s1.122-3.185,2.506-3.185h1.927c1.384,0,2.506,1.426,2.506,3.185S-19.435,3867.805-20.819,3867.805Z" transform="translate(68.052 -3861.436)" fill="url(#linear-gradient)"/>
      </g>
      <path id="Trazado_210945" data-name="Trazado 210945" d="M419.852,3858.387h-115.9c-5.565,0-10.077,5.727-10.077,12.791v411.351c0,7.064,4.512,12.79,10.077,12.79H419.872c3.384,0,6.53-2.155,8.391-5.707.2-.375.365-.773.528-1.173l86.094-210.808-86.1-212.327c-.163-.4-.331-.8-.527-1.178C426.4,3860.555,423.247,3858.387,419.852,3858.387Z" transform="translate(-222.414)" fill="url(#linear-gradient)"/>
      <g id="Grupo_166662" data-name="Grupo 166662" transform="translate(-40.31 3885.336)" opacity="0.2" style="mix-blend-mode: multiply;isolation: isolate">
        <g id="Grupo_166661" data-name="Grupo 166661" transform="translate(0 0)">
          <g id="Grupo_166660" data-name="Grupo 166660">
            <rect id="Rectángulo_46668" data-name="Rectángulo 46668" width="237.091" height="291.867" rx="20"/>
          </g>
        </g>
      </g>
      <g id="Grupo_166672" data-name="Grupo 166672">
        <g id="Grupo_166664" data-name="Grupo 166664" transform="translate(-39.93 3884.576)">
          <g id="Grupo_166663" data-name="Grupo 166663" transform="translate(0)">
            <g transform="matrix(1, 0, 0, 1, -28.12, -26.19)" filter="url(#Rectángulo_46669)">
              <rect id="Rectángulo_46669-2" data-name="Rectángulo 46669" width="237.091" height="434.73" rx="20" transform="translate(28.12 26.19)" fill="#fff"/>
            </g>
          </g>
        </g>
        <g id="Grupo_166665" data-name="Grupo 166665" transform="translate(-39.929 3892.795)">
          <path id="Trazado_210946" data-name="Trazado 210946" d="M233.778,3979.639v362.537c0,17.669-9.523,31.987-21.273,31.987H26.175c-11.746,0-21.269-14.318-21.269-31.987V3979.639c0-17.669,9.523-31.988,21.269-31.988H212.5C224.255,3947.651,233.778,3961.97,233.778,3979.639Z" transform="translate(-4.906 -3947.652)" fill="#f7f7f7"/>
        </g>
      </g>
      <g id="Grupo_46654" data-name="Grupo 46654" transform="translate(40.975 3898.68)">
        <path id="Trazado_97027" data-name="Trazado 97027" d="M-2567.335,1752.243a1.886,1.886,0,0,1,.834,1.852c-.04.885.007,1.773-.014,2.659s-.535,1.469-1.262,1.464-1.215-.574-1.229-1.482.031-1.83-.014-2.742a1.76,1.76,0,0,1,.852-1.75Z" transform="translate(2606.958 -1752.243)" fill="#12263f"/>
        <path id="Trazado_97028" data-name="Trazado 97028" d="M-2697.34,1875.956c0,1.45.009,2.751,0,4.051a2.764,2.764,0,0,1-3.077,3.093q-5.29.01-10.58,0a2.763,2.763,0,0,1-3.07-3.1c-.009-1.3,0-2.6,0-4.041-.626,0-1.2.013-1.767,0a2.807,2.807,0,0,1-2.943-2.681,24.287,24.287,0,0,1,.014-3.157,2.8,2.8,0,0,1,1.438-2.3,1.1,1.1,0,0,0,.406-.784c.047-1.109-.017-2.222.04-3.33a.959.959,0,0,0-.682-1.054,27.436,27.436,0,0,1-10.02-7.814,27.907,27.907,0,0,1-6.319-16.5,27.8,27.8,0,0,1,6.278-19.42,27.554,27.554,0,0,1,18.24-10.291,27.229,27.229,0,0,1,12.635,1.223,1.761,1.761,0,0,0,1.633-.042,1.9,1.9,0,0,1,2.3.428,15.164,15.164,0,0,1,1.176,1.179.817.817,0,0,0,1.068.28.823.823,0,0,0,.555-.959c-.025-.554-.031-1.112,0-1.666a2.118,2.118,0,0,1,2.189-2.139q2.166-.033,4.332,0a2.069,2.069,0,0,1,2.159,2.144,17.733,17.733,0,0,0,.034,1.829,1.084,1.084,0,0,0,.569.727,1.11,1.11,0,0,0,.915-.134,14.563,14.563,0,0,0,1.193-1.158,2.123,2.123,0,0,1,3.242.012q1.523,1.48,2.988,3.02a2.1,2.1,0,0,1-.015,3.055c-.358.387-.723.771-1.117,1.119a.86.86,0,0,0-.295,1.137c.222.536.555.6,1.033.574.526-.027,1.055-.023,1.582,0a2.075,2.075,0,0,1,2.113,2.03c.051,1.553.052,3.111,0,4.664a2.073,2.073,0,0,1-2.131,2.008c-.528.015-1.057.031-1.583,0a.875.875,0,0,0-1.021.592c-.233.536-.029.809.32,1.131.408.377.8.774,1.169,1.187a2.058,2.058,0,0,1,.042,2.866c-1.041,1.117-2.1,2.222-3.241,3.235a8.143,8.143,0,0,1-1.913.911c-.055.655-.112,1.532-.207,2.4-.106.982-.619,1.462-1.412,1.371-.762-.088-1.122-.7-1.051-1.689.086-1.218.141-2.438.188-3.658a5.954,5.954,0,0,0-.091-.88c-1.217.13-1.3.217-1.3,1.286,0,.555.015,1.112-.027,1.665a2,2,0,0,1-1.879,1.889q-2.413.068-4.831,0a2.073,2.073,0,0,1-1.944-2.029c-.04-.58-.023-1.166,0-1.749.014-.444-.034-.765-.546-.966a.826.826,0,0,0-1.072.265,13.482,13.482,0,0,1-1.239,1.233,2,2,0,0,1-2.86,0c-1.159-1.076-2.269-2.208-3.345-3.368a2.026,2.026,0,0,1,0-2.676,6.329,6.329,0,0,1,1.044-1.072c.766-.572.8-1.183.176-1.951-.707,0-1.483.017-2.259,0a2.077,2.077,0,0,1-2.1-2.118c-.025-1.5-.031-3,0-4.5a2.072,2.072,0,0,1,2.055-2.08c.582-.024,1.167-.023,1.749,0,.426.018.718-.051.888-.524.157-.437.222-.758-.184-1.1a12.967,12.967,0,0,1-1.12-1.116,2.142,2.142,0,0,1,.01-3.241,11.12,11.12,0,0,1,1.171-.915l-.158-.416c-1.9-.333-3.789-.821-5.7-.972a24.881,24.881,0,0,0-17.9,5.324,24.681,24.681,0,0,0-9.754,17.1c-1.235,11.022,2.955,19.6,12.226,25.673a26.279,26.279,0,0,0,3.479,1.769,1.639,1.639,0,0,1,1.088,1.677c-.027,1.6-.008,3.209-.008,4.863h1.648V1858.6c-1.995-.5-2.342-.949-2.342-2.988,0-.833-.02-1.667.014-2.5a2.027,2.027,0,0,1,2.025-2.011c1.054-.033,2.111-.029,3.165,0a2.078,2.078,0,0,1,2.117,2.027c.055,1.108.058,2.223.005,3.331-.057,1.173-.7,1.719-2.385,2.157v8.763h3.752v-.847c0-3.11-.006-6.22,0-9.33,0-.971.5-1.511,1.3-1.471.768.039,1.193.588,1.2,1.6q.012,4.582.007,9.164v.887h2.56v-5.339c0-1.249.041-2.5-.024-3.747a2.078,2.078,0,0,0-.5-1.252c-2.9-2.985-5.848-5.932-8.782-8.888a3.1,3.1,0,0,0-.309-.246c-1.654.949-2.272.865-3.594-.475-.566-.573-1.144-1.135-1.691-1.725a2.084,2.084,0,0,1-.013-2.991c.682-.73,1.388-1.439,2.113-2.128a2.1,2.1,0,0,1,3.232.005c.507.474.982.981,1.473,1.472,1.547,1.549,1.6,2.277.187,4.152.479.417,1.009.827,1.477,1.3,2.553,2.551,5.083,5.128,7.641,7.674a4.128,4.128,0,0,1,1.3,3.124c-.029,2.721-.009,5.442-.009,8.164v.931h1.767v-13.887c-.127-.022-.252-.051-.38-.067a2.111,2.111,0,0,1-2.03-2.125c-.047-1.026-.049-2.056-.012-3.082a2.114,2.114,0,0,1,2.208-2.207c.971-.034,1.944-.026,2.915.006a2.1,2.1,0,0,1,2.212,2.191c.034.859.014,1.721.011,2.582-.008,1.726-.593,2.418-2.374,2.711v6.8c1.448-.909,2.771-1.639,3.983-2.52a25.363,25.363,0,0,0,7.814-9.266c.613-1.221,1.23-1.569,2.008-1.186s.838,1.092.218,2.31a27.879,27.879,0,0,1-13.273,12.938,1.108,1.108,0,0,0-.768,1.26,16.937,16.937,0,0,1,.01,2,2.478,2.478,0,0,0,.973,2.464c1.489,1.1,1.464,5.514.075,6.766a4.437,4.437,0,0,1-1.918.839A9.086,9.086,0,0,1-2697.34,1875.956Zm.447-43.683,2.613,2.629c1.166-1.046,2.052-2.55,4.124-1.916,2.482.759,2.921,2.511,2.594,4.752h3.748c-.117-1.927-.1-3.625,2.117-4.562,2.28-.959,3.4.458,4.572,1.679l2.7-2.578c-1.374-1.251-2.667-2.422-1.754-4.675.919-2.271,2.706-2.191,4.55-2.131v-3.732c-1.915.132-3.614.095-4.546-2.107-.962-2.275.44-3.442,1.673-4.634l-2.618-2.638c-1.213,1.333-2.373,2.635-4.635,1.669-2.218-.946-2.131-2.7-2.076-4.526h-3.739c.249,2.1.024,3.809-2.33,4.649-2.167.773-3.167-.649-4.281-1.743l-2.676,2.573c1.379,1.239,2.6,2.452,1.685,4.684s-2.679,2.149-4.5,2.093v3.735c1.994-.166,3.7-.04,4.568,2.229C-2694.266,1829.915-2695.576,1831.036-2696.893,1832.273Zm-8.806,41.193v0c3.244,0,6.488-.011,9.732.009.635,0,.928-.2.892-.86a12.943,12.943,0,0,1,.006-1.663c.056-.746-.216-1.034-1-1.022-2.551.039-5.1.015-7.653.015-3.882,0-7.764.014-11.646-.013-.723-.005-1.022.234-.976.957a11.836,11.836,0,0,1,0,1.579c-.052.738.2,1.028.992,1.019C-2712.133,1873.443-2708.916,1873.465-2705.7,1873.465Zm5.782,6h-11.6c-.1,1.134-.1,1.135.927,1.135,3.268,0,6.537-.032,9.8.017C-2699.913,1880.632-2699.7,1880.327-2699.917,1879.467Zm.036-3.441h-11.69l.063.824h11.627Zm-12.69-30.248,1.69-1.627-1.652-1.588-1.565,1.657Zm15.633,5.113h2.241v-2.285h-2.241Zm-13.37,5.052v-2.3h-2.235v2.3Z" transform="translate(2744.345 -1797.794)" fill="#12263f"/>
        <path id="Trazado_97029" data-name="Trazado 97029" d="M-2581.193,1961.349c-2.175-.61-2.443-.975-2.443-3.247,0-.693-.022-1.387.008-2.079a2.146,2.146,0,0,1,2.278-2.221q1.414-.018,2.827,0a2.1,2.1,0,0,1,2.233,2.163c.034.8.014,1.607.014,2.411,0,1.955-.414,2.479-2.413,2.951v1.6q0,2.745,0,5.488c0,1.185-.434,1.777-1.277,1.765-.817-.012-1.219-.573-1.221-1.721q-.007-3.159-.006-6.319C-2581.194,1961.869-2581.193,1961.6-2581.193,1961.349Zm2.344-2.66v-2.345h-2.219v2.345Z" transform="translate(2619.138 -1920.146)" fill="#12263f"/>
        <path id="Trazado_97030" data-name="Trazado 97030" d="M-2648.687,1936.9c.5,0,1-.012,1.5,0a2.094,2.094,0,0,1,2.168,2.063,32.646,32.646,0,0,1-.01,3.323,2.027,2.027,0,0,1-2.022,2.02,30.06,30.06,0,0,1-3.24.008,2.062,2.062,0,0,1-2.042-2.1c-.047-1.023-.041-2.051-.01-3.075a2.143,2.143,0,0,1,2.331-2.244C-2649.574,1936.891-2649.131,1936.9-2648.687,1936.9Zm1.124,2.536h-2.234v2.344h2.234Z" transform="translate(2676.393 -1906.067)" fill="#12263f"/>
        <path id="Trazado_97031" data-name="Trazado 97031" d="M-2614.431,1886.96c-.526,0-1.053.018-1.579,0a2.046,2.046,0,0,1-2.036-2c-.038-1.134-.037-2.272,0-3.407a1.992,1.992,0,0,1,1.964-1.968c1.106-.048,2.216-.048,3.323,0a2.053,2.053,0,0,1,2.017,2.03c.051,1.106.054,2.218,0,3.324a2.1,2.1,0,0,1-2.2,2.028c-.5.01-1,0-1.5,0Zm1.153-2.531v-2.3h-2.233v2.3Z" transform="translate(2647.82 -1858.295)" fill="#12263f"/>
        <path id="Trazado_97032" data-name="Trazado 97032" d="M-2778.589,1893.7a6.737,6.737,0,0,1,.71.186c1.07.45,2.148.879,3.2,1.374a1.169,1.169,0,0,1,.676,1.579,1.206,1.206,0,0,1-1.645.691c-1.08-.42-2.14-.9-3.188-1.392a1.075,1.075,0,0,1-.656-1.432A3.958,3.958,0,0,1-2778.589,1893.7Z" transform="translate(2782.371 -1870.088)" fill="#12263f"/>
        <path id="Trazado_97033" data-name="Trazado 97033" d="M-2794.73,1959.233c1.064.134,2.192.25,3.311.425a1.216,1.216,0,0,1,1.093,1.332,1.276,1.276,0,0,1-1.409,1.118c-1.128-.106-2.254-.242-3.372-.419a1.233,1.233,0,0,1-1.134-1.379A1.33,1.33,0,0,1-2794.73,1959.233Z" transform="translate(2796.254 -1924.676)" fill="#12263f"/>
        <path id="Trazado_97034" data-name="Trazado 97034" d="M-2693.793,1791.632a3.588,3.588,0,0,1,.88.695c.626.841,1.184,1.732,1.737,2.624a1.27,1.27,0,0,1-.26,1.837,1.247,1.247,0,0,1-1.792-.447c-.632-.9-1.247-1.825-1.808-2.775C-2695.569,1792.663-2695.033,1791.662-2693.793,1791.632Z" transform="translate(2712.105 -1785.057)" fill="#12263f"/>
        <path id="Trazado_97035" data-name="Trazado 97035" d="M-2789.089,2022.639c.832.023,1.323.324,1.443,1.03a1.119,1.119,0,0,1-.88,1.392c-1.209.276-2.435.5-3.666.657a1.1,1.1,0,0,1-1.256-.965,1.111,1.111,0,0,1,.84-1.413C-2791.4,2023.045-2790.174,2022.85-2789.089,2022.639Z" transform="translate(2793.944 -1977.498)" fill="#12263f"/>
        <path id="Trazado_97036" data-name="Trazado 97036" d="M-2633.365,1762.65c.2.205.7.513.874.95a26.428,26.428,0,0,1,.972,3.167,1.238,1.238,0,0,1-.838,1.645,1.257,1.257,0,0,1-1.557-1c-.324-1-.637-2-.905-3.018C-2635.07,1763.442-2634.554,1762.686-2633.365,1762.65Z" transform="translate(2661.821 -1760.913)" fill="#12263f"/>
        <path id="Trazado_97037" data-name="Trazado 97037" d="M-2740.021,1840.415c.019,1.088-1.017,1.764-1.8,1.21a30.1,30.1,0,0,1-3-2.505,1,1,0,0,1-.021-1.5c.333-.293,1.108-.562,1.366-.381a38.376,38.376,0,0,1,3.258,2.69C-2740.065,1840.057-2740.051,1840.33-2740.021,1840.415Z" transform="translate(2753.691 -1823.003)" fill="#12263f"/>
        <path id="Trazado_97038" data-name="Trazado 97038" d="M-2766.849,2079.036a5.478,5.478,0,0,1,1.1,1.071,1,1,0,0,1-.408,1.376c-1.13.633-2.287,1.224-3.467,1.76a.969.969,0,0,1-1.342-.489c-.159-.4-.2-1.2.026-1.347C-2769.667,2080.561-2768.3,2079.857-2766.849,2079.036Z" transform="translate(2775.295 -2024.48)" fill="#12263f"/>
        <path id="Trazado_97039" data-name="Trazado 97039" d="M-2729.05,2129.642c.285.224.749.422.9.759a1.38,1.38,0,0,1-.061,1.214,32.35,32.35,0,0,1-2.857,2.757,1.063,1.063,0,0,1-1.558-.209,1.066,1.066,0,0,1-.072-1.511c.888-.943,1.852-1.816,2.809-2.692A2.938,2.938,0,0,1-2729.05,2129.642Z" transform="translate(2743.544 -2066.638)" fill="#12263f"/>
        <path id="Trazado_97050" data-name="Trazado 97050" d="M-2496.32,1863.74a8.642,8.642,0,0,1,11.185-8.316,1.268,1.268,0,0,1,1.035,1.615,1.266,1.266,0,0,1-1.757.783,6.116,6.116,0,0,0-4.971.583,6.225,6.225,0,0,0-2.482,7.766,6.081,6.081,0,0,0,7.612,3.347,6.19,6.19,0,0,0,3.963-7.044c-.053-.244-.123-.484-.167-.73a1.244,1.244,0,0,1,.9-1.548,1.233,1.233,0,0,1,1.521.949,8.634,8.634,0,0,1-.171,5.635,8.636,8.636,0,0,1-10.965,5.088A8.743,8.743,0,0,1-2496.32,1863.74Z" transform="translate(2546.392 -1837.88)" fill="#12263f"/>
        <path id="Trazado_97051" data-name="Trazado 97051" d="M-2466.575,1889.468a4.39,4.39,0,0,1-4.387-4.392,4.4,4.4,0,0,1,4.355-4.344,4.36,4.36,0,0,1,4.37,4.395A4.351,4.351,0,0,1-2466.575,1889.468Zm1.82-4.4a1.833,1.833,0,0,0-1.865-1.827,1.892,1.892,0,0,0-1.825,1.891,1.881,1.881,0,0,0,1.887,1.826A1.832,1.832,0,0,0-2464.755,1885.07Z" transform="translate(2525.268 -1859.281)" fill="#12263f"/>
      </g>
    </g>
    <path id="Trazado_214875" data-name="Trazado 214875" d="M31.084-17.343q0,8.7-3.6,13.31T16.939.576q-6.856,0-10.486-4.523T2.737-16.911v-7.721q0-8.787,3.644-13.338t10.5-4.552q6.856,0,10.486,4.509t3.716,12.949Zm-8.326-8.489q0-5.22-1.426-7.6a4.819,4.819,0,0,0-4.451-2.379,4.734,4.734,0,0,0-4.336,2.264q-1.4,2.264-1.484,7.079v10.208q0,5.133,1.4,7.627a4.755,4.755,0,0,0,4.48,2.494A4.676,4.676,0,0,0,21.347-8.53q1.354-2.393,1.412-7.325ZM45.172-24.66h4.437a6.251,6.251,0,0,0,4.7-1.584,5.806,5.806,0,0,0,1.527-4.206A5.134,5.134,0,0,0,54.319-34.4a5.862,5.862,0,0,0-4.163-1.412,6.144,6.144,0,0,0-4,1.311,4.191,4.191,0,0,0-1.613,3.414H36.212a10.239,10.239,0,0,1,1.772-5.891,11.806,11.806,0,0,1,4.955-4.076,16.537,16.537,0,0,1,7.015-1.469q6.655,0,10.429,3.183a10.861,10.861,0,0,1,3.774,8.772,8.826,8.826,0,0,1-1.757,5.3,11.417,11.417,0,0,1-4.609,3.716,10.422,10.422,0,0,1,5.286,3.8,10.315,10.315,0,0,1,1.743,5.992,11.041,11.041,0,0,1-4.076,8.959Q56.667.576,49.954.576a15.541,15.541,0,0,1-10.27-3.313,10.82,10.82,0,0,1-3.99-8.758H44.02a4.824,4.824,0,0,0,1.772,3.86,6.529,6.529,0,0,0,4.365,1.5,6.56,6.56,0,0,0,4.653-1.57,5.42,5.42,0,0,0,1.685-4.163q0-6.28-6.914-6.28H45.172Z" transform="translate(1287.599 7715.825)" fill="#12263f" opacity="0.273"/>
    <path id="Trazado_214872" data-name="Trazado 214872" d="M17.563,3.625v7.734a3.628,3.628,0,0,1-1.012,2.633,4.077,4.077,0,0,1-2.723,1.148l-.4.016a4.258,4.258,0,0,1-2.977-1.008,3.6,3.6,0,0,1-1.125-2.773V3.625h1.484v7.7a2.6,2.6,0,0,0,.68,1.918,2.612,2.612,0,0,0,1.938.684,2.63,2.63,0,0,0,1.949-.68,2.6,2.6,0,0,0,.676-1.914V3.625ZM21.07,6.547l.047,1.063a3.08,3.08,0,0,1,2.531-1.219q2.68,0,2.7,3.023V15H24.906V9.406a1.946,1.946,0,0,0-.418-1.352,1.675,1.675,0,0,0-1.277-.437,2.086,2.086,0,0,0-1.234.375,2.546,2.546,0,0,0-.828.984V15H19.7V6.547ZM33.75,15a3.036,3.036,0,0,1-.2-.891,3.225,3.225,0,0,1-2.406,1.047,2.984,2.984,0,0,1-2.051-.707,2.287,2.287,0,0,1-.8-1.793,2.39,2.39,0,0,1,1-2.051,4.733,4.733,0,0,1,2.824-.73h1.406V9.211A1.623,1.623,0,0,0,33.07,8a1.821,1.821,0,0,0-1.336-.449,2.108,2.108,0,0,0-1.3.391,1.151,1.151,0,0,0-.523.945H28.461a2,2,0,0,1,.449-1.223,3.066,3.066,0,0,1,1.219-.934,4.1,4.1,0,0,1,1.691-.344,3.342,3.342,0,0,1,2.289.73,2.635,2.635,0,0,1,.859,2.012v3.891a4.757,4.757,0,0,0,.3,1.852V15Zm-2.4-1.1a2.54,2.54,0,0,0,1.289-.352,2.127,2.127,0,0,0,.883-.914V10.9H32.391q-2.656,0-2.656,1.555a1.316,1.316,0,0,0,.453,1.063A1.742,1.742,0,0,0,31.352,13.9Zm12.633-.859,2.094-6.492h1.477L44.523,15h-1.1L40.359,6.547h1.477Zm8.367,2.117a3.693,3.693,0,0,1-2.8-1.129,4.19,4.19,0,0,1-1.078-3.02v-.266a5.073,5.073,0,0,1,.48-2.246A3.748,3.748,0,0,1,50.3,6.949a3.378,3.378,0,0,1,1.871-.559,3.166,3.166,0,0,1,2.563,1.086,4.7,4.7,0,0,1,.914,3.109v.6H49.922a3,3,0,0,0,.73,2.02,2.3,2.3,0,0,0,1.777.77,2.517,2.517,0,0,0,1.3-.312,3.259,3.259,0,0,0,.93-.828l.883.688A3.55,3.55,0,0,1,52.352,15.156Zm-.18-7.578a1.928,1.928,0,0,0-1.469.637A3.1,3.1,0,0,0,49.969,10H54.2V9.891a2.753,2.753,0,0,0-.594-1.707A1.815,1.815,0,0,0,52.172,7.578ZM58.68,13.82h4.945V15H56.914V13.938l4.664-6.2H56.984v-1.2h6.406V7.57Zm15.453-1.062a1.064,1.064,0,0,0-.441-.91,4.249,4.249,0,0,0-1.539-.559,7.277,7.277,0,0,1-1.742-.562,2.479,2.479,0,0,1-.953-.781,1.869,1.869,0,0,1-.309-1.078,2.193,2.193,0,0,1,.879-1.758,3.432,3.432,0,0,1,2.246-.719,3.532,3.532,0,0,1,2.332.742,2.357,2.357,0,0,1,.895,1.9H74.047a1.3,1.3,0,0,0-.5-1.023,1.888,1.888,0,0,0-1.27-.43,1.976,1.976,0,0,0-1.234.344,1.082,1.082,0,0,0-.445.9.877.877,0,0,0,.414.789,5.1,5.1,0,0,0,1.5.508,7.8,7.8,0,0,1,1.754.578,2.558,2.558,0,0,1,1,.809,1.988,1.988,0,0,1,.324,1.152,2.163,2.163,0,0,1-.906,1.816,3.8,3.8,0,0,1-2.352.684,4.257,4.257,0,0,1-1.8-.359,2.922,2.922,0,0,1-1.223-1,2.42,2.42,0,0,1-.441-1.395H70.3a1.5,1.5,0,0,0,.582,1.152,2.258,2.258,0,0,0,1.434.426,2.331,2.331,0,0,0,1.316-.332A1.02,1.02,0,0,0,74.133,12.758Zm6.836,2.4a3.693,3.693,0,0,1-2.8-1.129,4.19,4.19,0,0,1-1.078-3.02v-.266a5.073,5.073,0,0,1,.48-2.246,3.748,3.748,0,0,1,1.344-1.547,3.378,3.378,0,0,1,1.871-.559,3.166,3.166,0,0,1,2.563,1.086,4.7,4.7,0,0,1,.914,3.109v.6H78.539a3,3,0,0,0,.73,2.02,2.3,2.3,0,0,0,1.777.77,2.517,2.517,0,0,0,1.3-.312,3.259,3.259,0,0,0,.93-.828l.883.688A3.55,3.55,0,0,1,80.969,15.156Zm-.18-7.578a1.928,1.928,0,0,0-1.469.637A3.1,3.1,0,0,0,78.586,10H82.82V9.891a2.753,2.753,0,0,0-.594-1.707A1.815,1.815,0,0,0,80.789,7.578ZM87.508,15H86.063V3h1.445Zm5.82.156a3.693,3.693,0,0,1-2.8-1.129,4.19,4.19,0,0,1-1.078-3.02v-.266a5.073,5.073,0,0,1,.48-2.246,3.748,3.748,0,0,1,1.344-1.547,3.378,3.378,0,0,1,1.871-.559,3.166,3.166,0,0,1,2.563,1.086,4.7,4.7,0,0,1,.914,3.109v.6H90.9a3,3,0,0,0,.73,2.02,2.3,2.3,0,0,0,1.777.77,2.517,2.517,0,0,0,1.3-.312,3.259,3.259,0,0,0,.93-.828l.883.688A3.55,3.55,0,0,1,93.328,15.156Zm-.18-7.578a1.928,1.928,0,0,0-1.469.637A3.1,3.1,0,0,0,90.945,10H95.18V9.891a2.753,2.753,0,0,0-.594-1.707A1.815,1.815,0,0,0,93.148,7.578Zm8.539,6.4a2.082,2.082,0,0,0,1.352-.469,1.649,1.649,0,0,0,.641-1.172h1.367a2.621,2.621,0,0,1-.5,1.383,3.293,3.293,0,0,1-1.23,1.047,3.55,3.55,0,0,1-1.629.391A3.482,3.482,0,0,1,98.941,14a4.59,4.59,0,0,1-1.02-3.152v-.242a5.089,5.089,0,0,1,.453-2.2,3.451,3.451,0,0,1,1.3-1.492,3.7,3.7,0,0,1,2-.531,3.39,3.39,0,0,1,2.363.852,3.043,3.043,0,0,1,1,2.211H103.68a1.992,1.992,0,0,0-.621-1.348,1.932,1.932,0,0,0-1.379-.527,2.023,2.023,0,0,0-1.707.793,3.724,3.724,0,0,0-.605,2.293v.273a3.65,3.65,0,0,0,.6,2.25A2.033,2.033,0,0,0,101.688,13.977Zm8.375,0a2.082,2.082,0,0,0,1.352-.469,1.649,1.649,0,0,0,.641-1.172h1.367a2.621,2.621,0,0,1-.5,1.383,3.293,3.293,0,0,1-1.23,1.047,3.55,3.55,0,0,1-1.629.391A3.482,3.482,0,0,1,107.316,14a4.59,4.59,0,0,1-1.02-3.152v-.242a5.089,5.089,0,0,1,.453-2.2,3.451,3.451,0,0,1,1.3-1.492,3.7,3.7,0,0,1,2-.531,3.39,3.39,0,0,1,2.363.852,3.043,3.043,0,0,1,1,2.211h-1.367a1.992,1.992,0,0,0-.621-1.348,1.932,1.932,0,0,0-1.379-.527,2.023,2.023,0,0,0-1.707.793,3.724,3.724,0,0,0-.605,2.293v.273a3.65,3.65,0,0,0,.6,2.25A2.033,2.033,0,0,0,110.063,13.977ZM116.617,15h-1.445V6.547h1.445ZM115.055,4.3a.863.863,0,0,1,.215-.594.807.807,0,0,1,.637-.242.819.819,0,0,1,.641.242.854.854,0,0,1,.219.594.826.826,0,0,1-.219.586.834.834,0,0,1-.641.234.821.821,0,0,1-.637-.234A.834.834,0,0,1,115.055,4.3Zm3.492,6.391a4.993,4.993,0,0,1,.488-2.234,3.643,3.643,0,0,1,1.359-1.531,3.7,3.7,0,0,1,1.988-.539,3.565,3.565,0,0,1,2.793,1.2,4.6,4.6,0,0,1,1.066,3.18v.1a5.036,5.036,0,0,1-.473,2.215,3.589,3.589,0,0,1-1.352,1.527,3.743,3.743,0,0,1-2.02.547,3.556,3.556,0,0,1-2.785-1.2,4.575,4.575,0,0,1-1.066-3.164Zm1.453.172a3.616,3.616,0,0,0,.652,2.258,2.211,2.211,0,0,0,3.5-.012A3.955,3.955,0,0,0,124.8,10.7a3.61,3.61,0,0,0-.66-2.254,2.1,2.1,0,0,0-1.754-.863,2.075,2.075,0,0,0-1.727.852A3.925,3.925,0,0,0,120,10.867Zm9.422-4.32.047,1.063A3.08,3.08,0,0,1,132,6.391q2.68,0,2.7,3.023V15h-1.445V9.406a1.946,1.946,0,0,0-.418-1.352,1.675,1.675,0,0,0-1.277-.437,2.086,2.086,0,0,0-1.234.375,2.546,2.546,0,0,0-.828.984V15h-1.445V6.547ZM142.1,15a3.036,3.036,0,0,1-.2-.891,3.225,3.225,0,0,1-2.406,1.047,2.984,2.984,0,0,1-2.051-.707,2.287,2.287,0,0,1-.8-1.793,2.39,2.39,0,0,1,1-2.051,4.733,4.733,0,0,1,2.824-.73h1.406V9.211A1.623,1.623,0,0,0,141.422,8a1.821,1.821,0,0,0-1.336-.449,2.107,2.107,0,0,0-1.3.391,1.151,1.151,0,0,0-.523.945h-1.453a2,2,0,0,1,.449-1.223,3.066,3.066,0,0,1,1.219-.934,4.1,4.1,0,0,1,1.691-.344,3.342,3.342,0,0,1,2.289.73,2.635,2.635,0,0,1,.859,2.012v3.891a4.757,4.757,0,0,0,.3,1.852V15Zm-2.4-1.1a2.54,2.54,0,0,0,1.289-.352,2.127,2.127,0,0,0,.883-.914V10.9h-1.133q-2.656,0-2.656,1.555a1.316,1.316,0,0,0,.453,1.063A1.742,1.742,0,0,0,139.7,13.9Zm5.531-3.2a4.952,4.952,0,0,1,.922-3.129,3.137,3.137,0,0,1,4.766-.168V3h1.445V15h-1.328l-.07-.906a2.943,2.943,0,0,1-2.414,1.063,2.887,2.887,0,0,1-2.395-1.2,5.008,5.008,0,0,1-.926-3.141Zm1.445.164a3.749,3.749,0,0,0,.594,2.25,1.919,1.919,0,0,0,1.641.813,2.108,2.108,0,0,0,2.008-1.234V8.813a2.125,2.125,0,0,0-1.992-1.2,1.929,1.929,0,0,0-1.656.82A4.128,4.128,0,0,0,146.68,10.867ZM159.828,15a3.036,3.036,0,0,1-.2-.891,3.225,3.225,0,0,1-2.406,1.047,2.984,2.984,0,0,1-2.051-.707,2.287,2.287,0,0,1-.8-1.793,2.39,2.39,0,0,1,1-2.051,4.733,4.733,0,0,1,2.824-.73H159.6V9.211A1.623,1.623,0,0,0,159.148,8a1.821,1.821,0,0,0-1.336-.449,2.107,2.107,0,0,0-1.3.391,1.151,1.151,0,0,0-.523.945h-1.453a2,2,0,0,1,.449-1.223,3.066,3.066,0,0,1,1.219-.934,4.1,4.1,0,0,1,1.691-.344,3.342,3.342,0,0,1,2.289.73,2.635,2.635,0,0,1,.859,2.012v3.891a4.757,4.757,0,0,0,.3,1.852V15Zm-2.4-1.1a2.54,2.54,0,0,0,1.289-.352,2.127,2.127,0,0,0,.883-.914V10.9h-1.133q-2.656,0-2.656,1.555a1.316,1.316,0,0,0,.453,1.063A1.742,1.742,0,0,0,157.43,13.9ZM168.844,15H167.4V3h1.445Zm7.531,0a3.036,3.036,0,0,1-.2-.891,3.225,3.225,0,0,1-2.406,1.047,2.984,2.984,0,0,1-2.051-.707,2.287,2.287,0,0,1-.8-1.793,2.39,2.39,0,0,1,1-2.051,4.733,4.733,0,0,1,2.824-.73h1.406V9.211A1.623,1.623,0,0,0,175.7,8a1.821,1.821,0,0,0-1.336-.449,2.107,2.107,0,0,0-1.3.391,1.151,1.151,0,0,0-.523.945h-1.453a2,2,0,0,1,.449-1.223,3.066,3.066,0,0,1,1.219-.934,4.1,4.1,0,0,1,1.691-.344,3.342,3.342,0,0,1,2.289.73,2.635,2.635,0,0,1,.859,2.012v3.891a4.757,4.757,0,0,0,.3,1.852V15Zm-2.4-1.1a2.54,2.54,0,0,0,1.289-.352,2.127,2.127,0,0,0,.883-.914V10.9h-1.133q-2.656,0-2.656,1.555a1.316,1.316,0,0,0,.453,1.063A1.742,1.742,0,0,0,173.977,13.9ZM23.109,28.5v2.047h1.578v1.117H23.109v5.249a1.173,1.173,0,0,0,.211.763.888.888,0,0,0,.719.254,3.5,3.5,0,0,0,.688-.094V39a4.215,4.215,0,0,1-1.109.155,1.8,1.8,0,0,1-1.461-.586,2.517,2.517,0,0,1-.492-1.664V31.664H20.125V30.547h1.539V28.5Zm6.773,10.656a3.693,3.693,0,0,1-2.8-1.129,4.19,4.19,0,0,1-1.078-3.02v-.266a5.073,5.073,0,0,1,.48-2.246,3.748,3.748,0,0,1,1.344-1.547,3.378,3.378,0,0,1,1.871-.559,3.166,3.166,0,0,1,2.563,1.086,4.7,4.7,0,0,1,.914,3.109v.6H27.453a3,3,0,0,0,.73,2.02,2.3,2.3,0,0,0,1.777.77,2.517,2.517,0,0,0,1.3-.312,3.259,3.259,0,0,0,.93-.828l.883.688A3.55,3.55,0,0,1,29.883,39.156Zm-.18-7.578a1.928,1.928,0,0,0-1.469.637A3.1,3.1,0,0,0,27.5,34h4.234v-.109a2.753,2.753,0,0,0-.594-1.707A1.815,1.815,0,0,0,29.7,31.578Zm.7-4.562h1.75l-2.094,2.3-1.164,0Zm7.836,10.961a2.082,2.082,0,0,0,1.352-.469,1.649,1.649,0,0,0,.641-1.172H41.6a2.621,2.621,0,0,1-.5,1.383,3.293,3.293,0,0,1-1.23,1.047,3.55,3.55,0,0,1-1.629.391A3.482,3.482,0,0,1,35.5,38a4.59,4.59,0,0,1-1.02-3.152v-.242a5.089,5.089,0,0,1,.453-2.2,3.451,3.451,0,0,1,1.3-1.492,3.7,3.7,0,0,1,2-.531,3.39,3.39,0,0,1,2.363.852,3.043,3.043,0,0,1,1,2.211H40.234a1.992,1.992,0,0,0-.621-1.348,1.932,1.932,0,0,0-1.379-.527,2.023,2.023,0,0,0-1.707.793,3.724,3.724,0,0,0-.605,2.293v.273a3.65,3.65,0,0,0,.6,2.25A2.033,2.033,0,0,0,38.242,37.977Zm6.352-7.43.047,1.063a3.08,3.08,0,0,1,2.531-1.219q2.68,0,2.7,3.023V39H48.43V33.406a1.946,1.946,0,0,0-.418-1.352,1.675,1.675,0,0,0-1.277-.437,2.086,2.086,0,0,0-1.234.375,2.546,2.546,0,0,0-.828.984V39H43.227V30.547ZM53.625,39H52.18V30.547h1.445ZM52.063,28.3a.863.863,0,0,1,.215-.594.807.807,0,0,1,.637-.242.819.819,0,0,1,.641.242.854.854,0,0,1,.219.594.826.826,0,0,1-.219.586.834.834,0,0,1-.641.234.821.821,0,0,1-.637-.234A.834.834,0,0,1,52.063,28.3Zm7.266,9.672a2.082,2.082,0,0,0,1.352-.469,1.649,1.649,0,0,0,.641-1.172h1.367a2.621,2.621,0,0,1-.5,1.383,3.293,3.293,0,0,1-1.23,1.047,3.55,3.55,0,0,1-1.629.391A3.482,3.482,0,0,1,56.582,38a4.59,4.59,0,0,1-1.02-3.152v-.242a5.089,5.089,0,0,1,.453-2.2,3.451,3.451,0,0,1,1.3-1.492,3.7,3.7,0,0,1,2-.531,3.39,3.39,0,0,1,2.363.852,3.043,3.043,0,0,1,1,2.211H61.32a1.992,1.992,0,0,0-.621-1.348,1.932,1.932,0,0,0-1.379-.527,2.023,2.023,0,0,0-1.707.793,3.724,3.724,0,0,0-.605,2.293v.273a3.65,3.65,0,0,0,.6,2.25A2.033,2.033,0,0,0,59.328,37.977ZM69.531,39a3.036,3.036,0,0,1-.2-.891,3.225,3.225,0,0,1-2.406,1.047,2.984,2.984,0,0,1-2.051-.707,2.288,2.288,0,0,1-.8-1.793,2.39,2.39,0,0,1,1-2.051,4.733,4.733,0,0,1,2.824-.73H69.3v-.664A1.623,1.623,0,0,0,68.852,32a1.821,1.821,0,0,0-1.336-.449,2.108,2.108,0,0,0-1.3.391,1.151,1.151,0,0,0-.523.945H64.242a2,2,0,0,1,.449-1.223,3.066,3.066,0,0,1,1.219-.934,4.1,4.1,0,0,1,1.691-.344,3.342,3.342,0,0,1,2.289.73,2.635,2.635,0,0,1,.859,2.012v3.891a4.757,4.757,0,0,0,.3,1.852V39Zm-2.4-1.1a2.54,2.54,0,0,0,1.289-.352,2.127,2.127,0,0,0,.883-.914V34.9H68.172q-2.656,0-2.656,1.555a1.316,1.316,0,0,0,.453,1.063A1.742,1.742,0,0,0,67.133,37.9ZM81.9,36.758a1.064,1.064,0,0,0-.441-.91,4.249,4.249,0,0,0-1.539-.559,7.277,7.277,0,0,1-1.742-.562,2.479,2.479,0,0,1-.953-.781,1.869,1.869,0,0,1-.309-1.078,2.193,2.193,0,0,1,.879-1.758,3.432,3.432,0,0,1,2.246-.719,3.532,3.532,0,0,1,2.332.742,2.357,2.357,0,0,1,.895,1.9H81.813a1.3,1.3,0,0,0-.5-1.023,1.888,1.888,0,0,0-1.27-.43,1.976,1.976,0,0,0-1.234.344,1.082,1.082,0,0,0-.445.9.877.877,0,0,0,.414.789,5.1,5.1,0,0,0,1.5.508,7.8,7.8,0,0,1,1.754.578,2.558,2.558,0,0,1,1,.809,1.988,1.988,0,0,1,.324,1.152,2.163,2.163,0,0,1-.906,1.816,3.8,3.8,0,0,1-2.352.684,4.257,4.257,0,0,1-1.8-.359,2.922,2.922,0,0,1-1.223-1,2.42,2.42,0,0,1-.441-1.395H78.07a1.5,1.5,0,0,0,.582,1.152,2.258,2.258,0,0,0,1.434.426,2.331,2.331,0,0,0,1.316-.332A1.02,1.02,0,0,0,81.9,36.758Zm6.836,2.4a3.693,3.693,0,0,1-2.8-1.129,4.19,4.19,0,0,1-1.078-3.02v-.266a5.073,5.073,0,0,1,.48-2.246,3.748,3.748,0,0,1,1.344-1.547,3.378,3.378,0,0,1,1.871-.559,3.166,3.166,0,0,1,2.563,1.086,4.7,4.7,0,0,1,.914,3.109v.6H86.3a3,3,0,0,0,.73,2.02,2.3,2.3,0,0,0,1.777.77,2.517,2.517,0,0,0,1.3-.312,3.259,3.259,0,0,0,.93-.828l.883.688A3.55,3.55,0,0,1,88.734,39.156Zm-.18-7.578a1.928,1.928,0,0,0-1.469.637A3.1,3.1,0,0,0,86.352,34h4.234v-.109a2.753,2.753,0,0,0-.594-1.707A1.815,1.815,0,0,0,88.555,31.578Zm16.25,3.289a5.062,5.062,0,0,1-.883,3.109,2.829,2.829,0,0,1-2.391,1.18,3.1,3.1,0,0,1-2.422-.977v4.07H97.664v-11.7h1.32l.07.938a2.977,2.977,0,0,1,2.453-1.094,2.882,2.882,0,0,1,2.41,1.148,5.117,5.117,0,0,1,.887,3.2Zm-1.445-.164a3.735,3.735,0,0,0-.609-2.258,1.963,1.963,0,0,0-1.672-.828,2.125,2.125,0,0,0-1.969,1.164V36.82a2.129,2.129,0,0,0,1.984,1.156,1.954,1.954,0,0,0,1.652-.824A4.077,4.077,0,0,0,103.359,34.7Zm7.367-2.859a4.331,4.331,0,0,0-.711-.055A1.9,1.9,0,0,0,108.086,33v6h-1.445V30.547h1.406l.023.977a2.251,2.251,0,0,1,2.016-1.133,1.477,1.477,0,0,1,.641.109Zm.789,2.852A4.993,4.993,0,0,1,112,32.461a3.643,3.643,0,0,1,1.359-1.531,3.7,3.7,0,0,1,1.988-.539,3.565,3.565,0,0,1,2.793,1.2,4.6,4.6,0,0,1,1.066,3.18v.1a5.036,5.036,0,0,1-.473,2.215,3.589,3.589,0,0,1-1.352,1.527,3.743,3.743,0,0,1-2.02.547,3.556,3.556,0,0,1-2.785-1.2,4.575,4.575,0,0,1-1.066-3.164Zm1.453.172a3.616,3.616,0,0,0,.652,2.258,2.211,2.211,0,0,0,3.5-.012,3.955,3.955,0,0,0,.648-2.418,3.61,3.61,0,0,0-.66-2.254,2.1,2.1,0,0,0-1.754-.863,2.075,2.075,0,0,0-1.727.852A3.925,3.925,0,0,0,112.969,34.867Zm11.445,3.109a2.082,2.082,0,0,0,1.352-.469,1.649,1.649,0,0,0,.641-1.172h1.367a2.621,2.621,0,0,1-.5,1.383,3.293,3.293,0,0,1-1.23,1.047,3.55,3.55,0,0,1-1.629.391A3.482,3.482,0,0,1,121.668,38a4.59,4.59,0,0,1-1.02-3.152v-.242a5.089,5.089,0,0,1,.453-2.2,3.451,3.451,0,0,1,1.3-1.492,3.7,3.7,0,0,1,2-.531,3.39,3.39,0,0,1,2.363.852,3.043,3.043,0,0,1,1,2.211h-1.367a1.992,1.992,0,0,0-.621-1.348,1.932,1.932,0,0,0-1.379-.527,2.023,2.023,0,0,0-1.707.793,3.724,3.724,0,0,0-.605,2.293v.273a3.65,3.65,0,0,0,.6,2.25A2.033,2.033,0,0,0,124.414,37.977Zm8.492,1.18a3.693,3.693,0,0,1-2.8-1.129,4.19,4.19,0,0,1-1.078-3.02v-.266a5.073,5.073,0,0,1,.48-2.246,3.748,3.748,0,0,1,1.344-1.547,3.378,3.378,0,0,1,1.871-.559,3.166,3.166,0,0,1,2.563,1.086,4.7,4.7,0,0,1,.914,3.109v.6h-5.727a3,3,0,0,0,.73,2.02,2.3,2.3,0,0,0,1.777.77,2.517,2.517,0,0,0,1.3-.312,3.258,3.258,0,0,0,.93-.828l.883.688A3.55,3.55,0,0,1,132.906,39.156Zm-.18-7.578a1.928,1.928,0,0,0-1.469.637A3.1,3.1,0,0,0,130.523,34h4.234v-.109a2.753,2.753,0,0,0-.594-1.707A1.815,1.815,0,0,0,132.727,31.578Zm4.8,3.125a4.952,4.952,0,0,1,.922-3.129,3.137,3.137,0,0,1,4.766-.168V27h1.445V39h-1.328l-.07-.906a2.943,2.943,0,0,1-2.414,1.063,2.887,2.887,0,0,1-2.395-1.2,5.008,5.008,0,0,1-.926-3.141Zm1.445.164a3.749,3.749,0,0,0,.594,2.25,1.919,1.919,0,0,0,1.641.813,2.108,2.108,0,0,0,2.008-1.234V32.813a2.125,2.125,0,0,0-1.992-1.2,1.929,1.929,0,0,0-1.656.82A4.128,4.128,0,0,0,138.969,34.867Zm11.438,4.289a3.693,3.693,0,0,1-2.8-1.129,4.19,4.19,0,0,1-1.078-3.02v-.266a5.073,5.073,0,0,1,.48-2.246,3.748,3.748,0,0,1,1.344-1.547,3.378,3.378,0,0,1,1.871-.559,3.166,3.166,0,0,1,2.563,1.086,4.7,4.7,0,0,1,.914,3.109v.6h-5.727a3,3,0,0,0,.73,2.02,2.3,2.3,0,0,0,1.777.77,2.517,2.517,0,0,0,1.3-.312,3.258,3.258,0,0,0,.93-.828l.883.688A3.55,3.55,0,0,1,150.406,39.156Zm-.18-7.578a1.928,1.928,0,0,0-1.469.637A3.1,3.1,0,0,0,148.023,34h4.234v-.109a2.753,2.753,0,0,0-.594-1.707A1.815,1.815,0,0,0,150.227,31.578ZM164.555,39a3.036,3.036,0,0,1-.2-.891,3.225,3.225,0,0,1-2.406,1.047,2.984,2.984,0,0,1-2.051-.707,2.287,2.287,0,0,1-.8-1.793,2.39,2.39,0,0,1,1-2.051,4.733,4.733,0,0,1,2.824-.73h1.406v-.664A1.623,1.623,0,0,0,163.875,32a1.821,1.821,0,0,0-1.336-.449,2.107,2.107,0,0,0-1.3.391,1.151,1.151,0,0,0-.523.945h-1.453a2,2,0,0,1,.449-1.223,3.066,3.066,0,0,1,1.219-.934,4.1,4.1,0,0,1,1.691-.344,3.342,3.342,0,0,1,2.289.73,2.635,2.635,0,0,1,.859,2.012v3.891a4.757,4.757,0,0,0,.3,1.852V39Zm-2.4-1.1a2.54,2.54,0,0,0,1.289-.352,2.127,2.127,0,0,0,.883-.914V34.9H163.2q-2.656,0-2.656,1.555a1.316,1.316,0,0,0,.453,1.063A1.742,1.742,0,0,0,162.156,37.9ZM16.531,63H15.086V54.547h1.445ZM14.969,52.3a.863.863,0,0,1,.215-.594.807.807,0,0,1,.637-.242.819.819,0,0,1,.641.242.854.854,0,0,1,.219.594.826.826,0,0,1-.219.586.834.834,0,0,1-.641.234.821.821,0,0,1-.637-.234A.834.834,0,0,1,14.969,52.3ZM20.2,54.547l.039.938a3.122,3.122,0,0,1,2.508-1.094,2.417,2.417,0,0,1,2.414,1.359,3.2,3.2,0,0,1,1.1-.984,3.242,3.242,0,0,1,1.6-.375q2.781,0,2.828,2.945V63H29.242V57.422a1.941,1.941,0,0,0-.414-1.355,1.823,1.823,0,0,0-1.391-.449,1.916,1.916,0,0,0-1.336.48,1.949,1.949,0,0,0-.617,1.293V63H24.031V57.461a1.613,1.613,0,0,0-1.8-1.844,1.934,1.934,0,0,0-1.945,1.211V63H18.836V54.547Zm19.8,4.32a5.062,5.062,0,0,1-.883,3.109,2.829,2.829,0,0,1-2.391,1.18,3.1,3.1,0,0,1-2.422-.977v4.07H32.867v-11.7h1.32l.07.938a2.977,2.977,0,0,1,2.453-1.094,2.882,2.882,0,0,1,2.41,1.148,5.117,5.117,0,0,1,.887,3.2ZM38.563,58.7a3.735,3.735,0,0,0-.609-2.258,1.963,1.963,0,0,0-1.672-.828,2.125,2.125,0,0,0-1.969,1.164V60.82A2.129,2.129,0,0,0,36.3,61.977a1.954,1.954,0,0,0,1.652-.824A4.077,4.077,0,0,0,38.563,58.7ZM43.414,63H41.969V51h1.445Zm5.82.156a3.693,3.693,0,0,1-2.8-1.129,4.19,4.19,0,0,1-1.078-3.02v-.266a5.073,5.073,0,0,1,.48-2.246,3.748,3.748,0,0,1,1.344-1.547,3.378,3.378,0,0,1,1.871-.559,3.166,3.166,0,0,1,2.563,1.086,4.7,4.7,0,0,1,.914,3.109v.6H46.8a3,3,0,0,0,.73,2.02,2.3,2.3,0,0,0,1.777.77,2.517,2.517,0,0,0,1.3-.312,3.258,3.258,0,0,0,.93-.828l.883.688A3.55,3.55,0,0,1,49.234,63.156Zm-.18-7.578a1.928,1.928,0,0,0-1.469.637A3.1,3.1,0,0,0,46.852,58h4.234v-.109a2.753,2.753,0,0,0-.594-1.707A1.815,1.815,0,0,0,49.055,55.578Zm6.508-1.031.039.938a3.122,3.122,0,0,1,2.508-1.094,2.417,2.417,0,0,1,2.414,1.359,3.2,3.2,0,0,1,1.1-.984,3.242,3.242,0,0,1,1.6-.375q2.781,0,2.828,2.945V63H64.6V57.422a1.941,1.941,0,0,0-.414-1.355,1.823,1.823,0,0,0-1.391-.449,1.916,1.916,0,0,0-1.336.48,1.949,1.949,0,0,0-.617,1.293V63H59.391V57.461a1.613,1.613,0,0,0-1.8-1.844,1.934,1.934,0,0,0-1.945,1.211V63H54.2V54.547Zm16.172,8.609a3.693,3.693,0,0,1-2.8-1.129,4.19,4.19,0,0,1-1.078-3.02v-.266a5.073,5.073,0,0,1,.48-2.246,3.748,3.748,0,0,1,1.344-1.547,3.378,3.378,0,0,1,1.871-.559,3.166,3.166,0,0,1,2.563,1.086,4.7,4.7,0,0,1,.914,3.109v.6H69.3a3,3,0,0,0,.73,2.02,2.3,2.3,0,0,0,1.777.77,2.517,2.517,0,0,0,1.3-.312,3.259,3.259,0,0,0,.93-.828l.883.688A3.55,3.55,0,0,1,71.734,63.156Zm-.18-7.578a1.928,1.928,0,0,0-1.469.637A3.1,3.1,0,0,0,69.352,58h4.234v-.109a2.753,2.753,0,0,0-.594-1.707A1.815,1.815,0,0,0,71.555,55.578Zm6.516-1.031.047,1.063a3.08,3.08,0,0,1,2.531-1.219q2.68,0,2.7,3.023V63H81.906V57.406a1.946,1.946,0,0,0-.418-1.352,1.675,1.675,0,0,0-1.277-.437,2.086,2.086,0,0,0-1.234.375,2.546,2.546,0,0,0-.828.984V63H76.7V54.547ZM87.492,52.5v2.047H89.07v1.117H87.492v5.249a1.173,1.173,0,0,0,.211.763.888.888,0,0,0,.719.254,3.5,3.5,0,0,0,.688-.094V63A4.215,4.215,0,0,1,88,63.156a1.8,1.8,0,0,1-1.461-.586,2.517,2.517,0,0,1-.492-1.664V55.664H84.508V54.547h1.539V52.5ZM95.977,63a3.036,3.036,0,0,1-.2-.891,3.225,3.225,0,0,1-2.406,1.047,2.984,2.984,0,0,1-2.051-.707,2.288,2.288,0,0,1-.8-1.793,2.39,2.39,0,0,1,1-2.051,4.733,4.733,0,0,1,2.824-.73H95.75v-.664A1.623,1.623,0,0,0,95.3,56a1.821,1.821,0,0,0-1.336-.449,2.107,2.107,0,0,0-1.3.391,1.151,1.151,0,0,0-.523.945H90.688a2,2,0,0,1,.449-1.223,3.066,3.066,0,0,1,1.219-.934,4.1,4.1,0,0,1,1.691-.344,3.342,3.342,0,0,1,2.289.73,2.635,2.635,0,0,1,.859,2.012v3.891a4.757,4.757,0,0,0,.3,1.852V63Zm-2.4-1.1a2.54,2.54,0,0,0,1.289-.352,2.127,2.127,0,0,0,.883-.914V58.9H94.617q-2.656,0-2.656,1.555a1.316,1.316,0,0,0,.453,1.063A1.742,1.742,0,0,0,93.578,61.9Zm9.969-6.055a4.331,4.331,0,0,0-.711-.055A1.9,1.9,0,0,0,100.906,57v6H99.461V54.547h1.406l.023.977a2.251,2.251,0,0,1,2.016-1.133,1.477,1.477,0,0,1,.641.109ZM110.406,63h-1.445V51h1.445Zm1.93-4.3a4.993,4.993,0,0,1,.488-2.234,3.643,3.643,0,0,1,1.359-1.531,3.7,3.7,0,0,1,1.988-.539,3.565,3.565,0,0,1,2.793,1.2,4.6,4.6,0,0,1,1.066,3.18v.1a5.036,5.036,0,0,1-.473,2.215,3.589,3.589,0,0,1-1.352,1.527,3.743,3.743,0,0,1-2.02.547,3.556,3.556,0,0,1-2.785-1.2,4.575,4.575,0,0,1-1.066-3.164Zm1.453.172a3.616,3.616,0,0,0,.652,2.258,2.211,2.211,0,0,0,3.5-.012,3.955,3.955,0,0,0,.648-2.418,3.61,3.61,0,0,0-.66-2.254,2.1,2.1,0,0,0-1.754-.863,2.075,2.075,0,0,0-1.727.852A3.925,3.925,0,0,0,113.789,58.867Zm12.977,1.891a1.064,1.064,0,0,0-.441-.91,4.249,4.249,0,0,0-1.539-.559,7.277,7.277,0,0,1-1.742-.562,2.479,2.479,0,0,1-.953-.781,1.869,1.869,0,0,1-.309-1.078,2.193,2.193,0,0,1,.879-1.758,3.432,3.432,0,0,1,2.246-.719,3.532,3.532,0,0,1,2.332.742,2.357,2.357,0,0,1,.895,1.9H126.68a1.3,1.3,0,0,0-.5-1.023,1.888,1.888,0,0,0-1.27-.43,1.976,1.976,0,0,0-1.234.344,1.082,1.082,0,0,0-.445.9.877.877,0,0,0,.414.789,5.1,5.1,0,0,0,1.5.508,7.8,7.8,0,0,1,1.754.578,2.558,2.558,0,0,1,1,.809,1.988,1.988,0,0,1,.324,1.152,2.163,2.163,0,0,1-.906,1.816,3.8,3.8,0,0,1-2.352.684,4.257,4.257,0,0,1-1.8-.359,2.922,2.922,0,0,1-1.223-1,2.42,2.42,0,0,1-.441-1.395h1.445a1.5,1.5,0,0,0,.582,1.152,2.258,2.258,0,0,0,1.434.426,2.331,2.331,0,0,0,1.316-.332A1.02,1.02,0,0,0,126.766,60.758ZM133.7,58.7a4.952,4.952,0,0,1,.922-3.129,3.137,3.137,0,0,1,4.766-.168V51h1.445V63h-1.328l-.07-.906a2.943,2.943,0,0,1-2.414,1.063,2.887,2.887,0,0,1-2.395-1.2,5.008,5.008,0,0,1-.926-3.141Zm1.445.164a3.749,3.749,0,0,0,.594,2.25,1.919,1.919,0,0,0,1.641.813,2.108,2.108,0,0,0,2.008-1.234V56.813a2.125,2.125,0,0,0-1.992-1.2,1.929,1.929,0,0,0-1.656.82A4.128,4.128,0,0,0,135.148,58.867ZM148.3,63a3.036,3.036,0,0,1-.2-.891,3.225,3.225,0,0,1-2.406,1.047,2.984,2.984,0,0,1-2.051-.707,2.287,2.287,0,0,1-.8-1.793,2.39,2.39,0,0,1,1-2.051,4.733,4.733,0,0,1,2.824-.73h1.406v-.664A1.623,1.623,0,0,0,147.617,56a1.821,1.821,0,0,0-1.336-.449,2.107,2.107,0,0,0-1.3.391,1.151,1.151,0,0,0-.523.945h-1.453a2,2,0,0,1,.449-1.223,3.066,3.066,0,0,1,1.219-.934,4.1,4.1,0,0,1,1.691-.344,3.342,3.342,0,0,1,2.289.73,2.635,2.635,0,0,1,.859,2.012v3.891a4.757,4.757,0,0,0,.3,1.852V63Zm-2.4-1.1a2.54,2.54,0,0,0,1.289-.352,2.127,2.127,0,0,0,.883-.914V58.9h-1.133q-2.656,0-2.656,1.555a1.316,1.316,0,0,0,.453,1.063A1.742,1.742,0,0,0,145.9,61.9Zm7.844-9.4v2.047h1.578v1.117h-1.578v5.249a1.173,1.173,0,0,0,.211.763.888.888,0,0,0,.719.254,3.5,3.5,0,0,0,.688-.094V63a4.215,4.215,0,0,1-1.109.155,1.8,1.8,0,0,1-1.461-.586,2.517,2.517,0,0,1-.492-1.664V55.664h-1.539V54.547H152.3V52.5Zm2.727,6.2a4.993,4.993,0,0,1,.488-2.234,3.642,3.642,0,0,1,1.359-1.531,3.7,3.7,0,0,1,1.988-.539,3.565,3.565,0,0,1,2.793,1.2,4.6,4.6,0,0,1,1.066,3.18v.1a5.036,5.036,0,0,1-.473,2.215,3.589,3.589,0,0,1-1.352,1.527,3.743,3.743,0,0,1-2.02.547,3.556,3.556,0,0,1-2.785-1.2,4.575,4.575,0,0,1-1.066-3.164Zm1.453.172a3.616,3.616,0,0,0,.652,2.258,2.211,2.211,0,0,0,3.5-.012,3.954,3.954,0,0,0,.648-2.418,3.61,3.61,0,0,0-.66-2.254,2.1,2.1,0,0,0-1.754-.863,2.075,2.075,0,0,0-1.727.852A3.925,3.925,0,0,0,157.922,58.867ZM170.9,60.758a1.064,1.064,0,0,0-.441-.91,4.249,4.249,0,0,0-1.539-.559,7.277,7.277,0,0,1-1.742-.562,2.479,2.479,0,0,1-.953-.781,1.869,1.869,0,0,1-.309-1.078,2.193,2.193,0,0,1,.879-1.758,3.432,3.432,0,0,1,2.246-.719,3.532,3.532,0,0,1,2.332.742,2.357,2.357,0,0,1,.895,1.9h-1.453a1.3,1.3,0,0,0-.5-1.023,1.888,1.888,0,0,0-1.27-.43,1.976,1.976,0,0,0-1.234.344,1.082,1.082,0,0,0-.445.9.877.877,0,0,0,.414.789,5.1,5.1,0,0,0,1.5.508,7.8,7.8,0,0,1,1.754.578,2.558,2.558,0,0,1,1,.809,1.988,1.988,0,0,1,.324,1.152,2.163,2.163,0,0,1-.906,1.816,3.8,3.8,0,0,1-2.352.684,4.257,4.257,0,0,1-1.8-.359,2.922,2.922,0,0,1-1.223-1,2.42,2.42,0,0,1-.441-1.395h1.445a1.5,1.5,0,0,0,.582,1.152,2.258,2.258,0,0,0,1.434.426,2.331,2.331,0,0,0,1.316-.332A1.02,1.02,0,0,0,170.9,60.758ZM38.715,82.7a4.961,4.961,0,0,1,.914-3.152,3.226,3.226,0,0,1,4.82-.152l.063-.852H45.84v11.7H44.395V86.219a3.033,3.033,0,0,1-2.328.938,2.915,2.915,0,0,1-2.441-1.191,5.072,5.072,0,0,1-.91-3.16Zm1.445.164a3.761,3.761,0,0,0,.613,2.281,1.951,1.951,0,0,0,1.652.828,2.164,2.164,0,0,0,1.969-1.141V80.7a2.171,2.171,0,0,0-1.953-1.117,1.965,1.965,0,0,0-1.664.832A4.094,4.094,0,0,0,40.16,82.867Zm13.219,3.3a3.07,3.07,0,0,1-2.477.992,2.628,2.628,0,0,1-2.059-.785,3.4,3.4,0,0,1-.715-2.324v-5.5h1.445v5.461q0,1.922,1.563,1.922a2.163,2.163,0,0,0,2.2-1.234V78.547h1.445V87H53.41Zm7.109.992a3.693,3.693,0,0,1-2.8-1.129,4.19,4.19,0,0,1-1.078-3.02v-.266a5.073,5.073,0,0,1,.48-2.246,3.748,3.748,0,0,1,1.344-1.547,3.378,3.378,0,0,1,1.871-.559,3.166,3.166,0,0,1,2.563,1.086,4.7,4.7,0,0,1,.914,3.109v.6H58.059a3,3,0,0,0,.73,2.02,2.3,2.3,0,0,0,1.777.77,2.517,2.517,0,0,0,1.3-.312,3.259,3.259,0,0,0,.93-.828l.883.688A3.55,3.55,0,0,1,60.488,87.156Zm-.18-7.578a1.928,1.928,0,0,0-1.469.637A3.1,3.1,0,0,0,58.105,82H62.34v-.109a2.753,2.753,0,0,0-.594-1.707A1.815,1.815,0,0,0,60.309,79.578Zm11.875,5.3,1.969-6.336H75.7L72.3,88.3q-.789,2.109-2.508,2.109l-.273-.023-.539-.1V89.117l.391.031a1.923,1.923,0,0,0,1.145-.3,2.149,2.149,0,0,0,.676-1.086l.32-.859L68.5,78.547h1.578ZM82.09,87a3.036,3.036,0,0,1-.2-.891,3.225,3.225,0,0,1-2.406,1.047,2.984,2.984,0,0,1-2.051-.707,2.287,2.287,0,0,1-.8-1.793,2.39,2.39,0,0,1,1-2.051,4.733,4.733,0,0,1,2.824-.73h1.406v-.664A1.623,1.623,0,0,0,81.41,80a1.821,1.821,0,0,0-1.336-.449,2.108,2.108,0,0,0-1.3.391,1.151,1.151,0,0,0-.523.945H76.8a2,2,0,0,1,.449-1.223,3.066,3.066,0,0,1,1.219-.934,4.1,4.1,0,0,1,1.691-.344,3.342,3.342,0,0,1,2.289.73,2.635,2.635,0,0,1,.859,2.012v3.891a4.757,4.757,0,0,0,.3,1.852V87Zm-2.4-1.1a2.54,2.54,0,0,0,1.289-.352,2.127,2.127,0,0,0,.883-.914V82.9H80.73q-2.656,0-2.656,1.555a1.316,1.316,0,0,0,.453,1.063A1.742,1.742,0,0,0,79.691,85.9ZM90.98,79.57a3.073,3.073,0,0,1,2.5-1.18q2.68,0,2.7,3.023V87H94.738V81.406a1.946,1.946,0,0,0-.418-1.352,1.675,1.675,0,0,0-1.277-.437,2.086,2.086,0,0,0-1.234.375,2.546,2.546,0,0,0-.828.984V87H89.535V75H90.98ZM103.566,87a3.036,3.036,0,0,1-.2-.891,3.225,3.225,0,0,1-2.406,1.047,2.984,2.984,0,0,1-2.051-.707,2.287,2.287,0,0,1-.8-1.793,2.39,2.39,0,0,1,1-2.051,4.733,4.733,0,0,1,2.824-.73h1.406v-.664A1.623,1.623,0,0,0,102.887,80a1.821,1.821,0,0,0-1.336-.449,2.108,2.108,0,0,0-1.3.391,1.151,1.151,0,0,0-.523.945H98.277a2,2,0,0,1,.449-1.223,3.066,3.066,0,0,1,1.219-.934,4.1,4.1,0,0,1,1.691-.344,3.342,3.342,0,0,1,2.289.73,2.635,2.635,0,0,1,.859,2.012v3.891a4.757,4.757,0,0,0,.3,1.852V87Zm-2.4-1.1a2.54,2.54,0,0,0,1.289-.352,2.127,2.127,0,0,0,.883-.914V82.9h-1.133q-2.656,0-2.656,1.555A1.316,1.316,0,0,0,100,85.516,1.742,1.742,0,0,0,101.168,85.9Zm7.25-7.352.047,1.063A3.08,3.08,0,0,1,111,78.391q2.68,0,2.7,3.023V87h-1.445V81.406a1.946,1.946,0,0,0-.418-1.352,1.675,1.675,0,0,0-1.277-.437,2.086,2.086,0,0,0-1.234.375,2.546,2.546,0,0,0-.828.984V87h-1.445V78.547Zm16.344,6.211a1.064,1.064,0,0,0-.441-.91,4.249,4.249,0,0,0-1.539-.559,7.277,7.277,0,0,1-1.742-.562,2.478,2.478,0,0,1-.953-.781,1.869,1.869,0,0,1-.309-1.078,2.193,2.193,0,0,1,.879-1.758,3.432,3.432,0,0,1,2.246-.719,3.532,3.532,0,0,1,2.332.742,2.357,2.357,0,0,1,.895,1.9h-1.453a1.3,1.3,0,0,0-.5-1.023,1.888,1.888,0,0,0-1.27-.43,1.976,1.976,0,0,0-1.234.344,1.082,1.082,0,0,0-.445.9.877.877,0,0,0,.414.789,5.1,5.1,0,0,0,1.5.508,7.8,7.8,0,0,1,1.754.578,2.559,2.559,0,0,1,1,.809,1.988,1.988,0,0,1,.324,1.152,2.163,2.163,0,0,1-.906,1.816,3.8,3.8,0,0,1-2.352.684,4.257,4.257,0,0,1-1.8-.359,2.922,2.922,0,0,1-1.223-1,2.42,2.42,0,0,1-.441-1.395h1.445a1.5,1.5,0,0,0,.582,1.152,2.258,2.258,0,0,0,1.434.426,2.331,2.331,0,0,0,1.316-.332A1.02,1.02,0,0,0,124.762,84.758ZM129.66,87h-1.445V78.547h1.445ZM128.1,76.3a.863.863,0,0,1,.215-.594.807.807,0,0,1,.637-.242.819.819,0,0,1,.641.242.854.854,0,0,1,.219.594.826.826,0,0,1-.219.586.834.834,0,0,1-.641.234.821.821,0,0,1-.637-.234A.834.834,0,0,1,128.1,76.3Zm3.523,6.4a4.952,4.952,0,0,1,.922-3.129,3.137,3.137,0,0,1,4.766-.168V75h1.445V87h-1.328l-.07-.906a2.943,2.943,0,0,1-2.414,1.063,2.887,2.887,0,0,1-2.395-1.2,5.008,5.008,0,0,1-.926-3.141Zm1.445.164a3.749,3.749,0,0,0,.594,2.25,1.919,1.919,0,0,0,1.641.813,2.108,2.108,0,0,0,2.008-1.234V80.813a2.125,2.125,0,0,0-1.992-1.2,1.929,1.929,0,0,0-1.656.82A4.128,4.128,0,0,0,133.066,82.867Zm7.547-.172a4.993,4.993,0,0,1,.488-2.234,3.642,3.642,0,0,1,1.359-1.531,3.7,3.7,0,0,1,1.988-.539,3.565,3.565,0,0,1,2.793,1.2,4.6,4.6,0,0,1,1.066,3.18v.1a5.036,5.036,0,0,1-.473,2.215,3.589,3.589,0,0,1-1.352,1.527,3.743,3.743,0,0,1-2.02.547,3.556,3.556,0,0,1-2.785-1.2,4.575,4.575,0,0,1-1.066-3.164Zm1.453.172a3.616,3.616,0,0,0,.652,2.258,2.211,2.211,0,0,0,3.5-.012,3.954,3.954,0,0,0,.648-2.418,3.61,3.61,0,0,0-.66-2.254,2.1,2.1,0,0,0-1.754-.863,2.075,2.075,0,0,0-1.727.852A3.925,3.925,0,0,0,142.066,82.867Zm-82.738,24a5.062,5.062,0,0,1-.883,3.109,2.829,2.829,0,0,1-2.391,1.18,3.1,3.1,0,0,1-2.422-.977v4.07H52.188v-11.7h1.32l.07.938a2.977,2.977,0,0,1,2.453-1.094,2.882,2.882,0,0,1,2.41,1.148,5.117,5.117,0,0,1,.887,3.2Zm-1.445-.164a3.735,3.735,0,0,0-.609-2.258,1.963,1.963,0,0,0-1.672-.828,2.125,2.125,0,0,0-1.969,1.164v4.039a2.129,2.129,0,0,0,1.984,1.156,1.954,1.954,0,0,0,1.652-.824A4.077,4.077,0,0,0,57.883,106.7Zm7.367-2.859a4.331,4.331,0,0,0-.711-.055A1.9,1.9,0,0,0,62.609,105v6H61.164v-8.453H62.57l.023.977a2.251,2.251,0,0,1,2.016-1.133,1.477,1.477,0,0,1,.641.109Zm4.688,7.313a3.693,3.693,0,0,1-2.8-1.129,4.19,4.19,0,0,1-1.078-3.02v-.266a5.073,5.073,0,0,1,.48-2.246,3.748,3.748,0,0,1,1.344-1.547,3.378,3.378,0,0,1,1.871-.559,3.166,3.166,0,0,1,2.563,1.086,4.7,4.7,0,0,1,.914,3.109v.6H67.508a3,3,0,0,0,.73,2.02,2.3,2.3,0,0,0,1.777.77,2.517,2.517,0,0,0,1.3-.312,3.259,3.259,0,0,0,.93-.828l.883.688A3.55,3.55,0,0,1,69.938,111.156Zm-.18-7.578a1.928,1.928,0,0,0-1.469.637A3.1,3.1,0,0,0,67.555,106h4.234v-.109a2.753,2.753,0,0,0-.594-1.707A1.815,1.815,0,0,0,69.758,103.578Zm12.289,3.289a5.062,5.062,0,0,1-.883,3.109,2.829,2.829,0,0,1-2.391,1.18,3.1,3.1,0,0,1-2.422-.977v4.07H74.906v-11.7h1.32l.07.938a2.977,2.977,0,0,1,2.453-1.094,2.882,2.882,0,0,1,2.41,1.148,5.117,5.117,0,0,1,.887,3.2ZM80.6,106.7a3.735,3.735,0,0,0-.609-2.258,1.963,1.963,0,0,0-1.672-.828,2.125,2.125,0,0,0-1.969,1.164v4.039a2.129,2.129,0,0,0,1.984,1.156,1.954,1.954,0,0,0,1.652-.824A4.077,4.077,0,0,0,80.6,106.7Zm8.5,4.3a3.036,3.036,0,0,1-.2-.891,3.225,3.225,0,0,1-2.406,1.047,2.984,2.984,0,0,1-2.051-.707,2.287,2.287,0,0,1-.8-1.793,2.39,2.39,0,0,1,1-2.051,4.733,4.733,0,0,1,2.824-.73h1.406v-.664A1.623,1.623,0,0,0,88.422,104a1.821,1.821,0,0,0-1.336-.449,2.108,2.108,0,0,0-1.3.391,1.151,1.151,0,0,0-.523.945H83.813a2,2,0,0,1,.449-1.223,3.066,3.066,0,0,1,1.219-.934,4.1,4.1,0,0,1,1.691-.344,3.342,3.342,0,0,1,2.289.73,2.635,2.635,0,0,1,.859,2.012v3.891a4.757,4.757,0,0,0,.3,1.852V111Zm-2.4-1.1a2.54,2.54,0,0,0,1.289-.352,2.127,2.127,0,0,0,.883-.914V106.9H87.742q-2.656,0-2.656,1.555a1.316,1.316,0,0,0,.453,1.063A1.742,1.742,0,0,0,86.7,109.9Zm9.969-6.055a4.331,4.331,0,0,0-.711-.055A1.9,1.9,0,0,0,94.031,105v6H92.586v-8.453h1.406l.023.977a2.251,2.251,0,0,1,2.016-1.133,1.477,1.477,0,0,1,.641.109ZM102.906,111a3.036,3.036,0,0,1-.2-.891,3.225,3.225,0,0,1-2.406,1.047,2.984,2.984,0,0,1-2.051-.707,2.287,2.287,0,0,1-.8-1.793,2.39,2.39,0,0,1,1-2.051,4.733,4.733,0,0,1,2.824-.73h1.406v-.664a1.623,1.623,0,0,0-.453-1.207,1.821,1.821,0,0,0-1.336-.449,2.108,2.108,0,0,0-1.3.391,1.151,1.151,0,0,0-.523.945H97.617a2,2,0,0,1,.449-1.223,3.066,3.066,0,0,1,1.219-.934,4.1,4.1,0,0,1,1.691-.344,3.342,3.342,0,0,1,2.289.73,2.635,2.635,0,0,1,.859,2.012v3.891a4.757,4.757,0,0,0,.3,1.852V111Zm-2.4-1.1a2.54,2.54,0,0,0,1.289-.352,2.127,2.127,0,0,0,.883-.914V106.9h-1.133q-2.656,0-2.656,1.555a1.316,1.316,0,0,0,.453,1.063A1.742,1.742,0,0,0,100.508,109.9Zm5.531-3.2a4.952,4.952,0,0,1,.922-3.129,3.137,3.137,0,0,1,4.766-.168V99h1.445v12h-1.328l-.07-.906a2.943,2.943,0,0,1-2.414,1.063,2.887,2.887,0,0,1-2.395-1.2,5.008,5.008,0,0,1-.926-3.141Zm1.445.164a3.749,3.749,0,0,0,.594,2.25,1.92,1.92,0,0,0,1.641.813,2.109,2.109,0,0,0,2.008-1.234v-3.883a2.125,2.125,0,0,0-1.992-1.2,1.929,1.929,0,0,0-1.656.82A4.128,4.128,0,0,0,107.484,106.867Zm7.547-.172a4.993,4.993,0,0,1,.488-2.234,3.643,3.643,0,0,1,1.359-1.531,3.7,3.7,0,0,1,1.988-.539,3.565,3.565,0,0,1,2.793,1.2,4.6,4.6,0,0,1,1.066,3.18v.1a5.036,5.036,0,0,1-.473,2.215,3.589,3.589,0,0,1-1.352,1.527,3.743,3.743,0,0,1-2.02.547,3.556,3.556,0,0,1-2.785-1.2,4.575,4.575,0,0,1-1.066-3.164Zm1.453.172a3.616,3.616,0,0,0,.652,2.258,2.211,2.211,0,0,0,3.5-.012,3.955,3.955,0,0,0,.648-2.418,3.61,3.61,0,0,0-.66-2.254,2.1,2.1,0,0,0-1.754-.863,2.075,2.075,0,0,0-1.727.852A3.925,3.925,0,0,0,116.484,106.867Zm12.977,1.891a1.064,1.064,0,0,0-.441-.91,4.249,4.249,0,0,0-1.539-.559,7.277,7.277,0,0,1-1.742-.562,2.478,2.478,0,0,1-.953-.781,1.869,1.869,0,0,1-.309-1.078,2.193,2.193,0,0,1,.879-1.758,3.432,3.432,0,0,1,2.246-.719,3.532,3.532,0,0,1,2.332.742,2.357,2.357,0,0,1,.895,1.9h-1.453a1.3,1.3,0,0,0-.5-1.023,1.888,1.888,0,0,0-1.27-.43,1.976,1.976,0,0,0-1.234.344,1.082,1.082,0,0,0-.445.9.877.877,0,0,0,.414.789,5.1,5.1,0,0,0,1.5.508,7.8,7.8,0,0,1,1.754.578,2.558,2.558,0,0,1,1,.809,1.988,1.988,0,0,1,.324,1.152,2.163,2.163,0,0,1-.906,1.816,3.8,3.8,0,0,1-2.352.684,4.257,4.257,0,0,1-1.8-.359,2.922,2.922,0,0,1-1.223-1,2.42,2.42,0,0,1-.441-1.395h1.445a1.5,1.5,0,0,0,.582,1.152,2.258,2.258,0,0,0,1.434.426,2.331,2.331,0,0,0,1.316-.332A1.02,1.02,0,0,0,129.461,108.758Zm3.359,1.484a.905.905,0,0,1,.223-.625.848.848,0,0,1,.668-.25.874.874,0,0,1,.676.25.887.887,0,0,1,.23.625.839.839,0,0,1-.23.6.89.89,0,0,1-.676.242.8.8,0,0,1-.891-.844Z" transform="translate(1065.122 7644.659)" fill="#12263f"/>
    <path id="Trazado_214871" data-name="Trazado 214871" d="M37.063,12.667a4.673,4.673,0,0,1-.721,2.36,4.35,4.35,0,0,1-1.85,1.586,6.3,6.3,0,0,1-2.72.563A5.025,5.025,0,0,1,27.8,15.532a6.786,6.786,0,0,1-1.45-4.641v-.633A7.746,7.746,0,0,1,27,6.967a4.961,4.961,0,0,1,1.885-2.18,5.26,5.26,0,0,1,2.848-.769,5.516,5.516,0,0,1,3.744,1.226,4.844,4.844,0,0,1,1.608,3.379H34.013a2.292,2.292,0,0,0-.589-1.679,2.422,2.422,0,0,0-1.687-.51,1.843,1.843,0,0,0-1.687.861,5.536,5.536,0,0,0-.562,2.751v.905A6.126,6.126,0,0,0,30,13.88a1.882,1.882,0,0,0,1.771.879,2.369,2.369,0,0,0,1.626-.5,2.126,2.126,0,0,0,.6-1.591Zm.949-.51a5.613,5.613,0,0,1,.554-2.536,3.96,3.96,0,0,1,1.591-1.709,4.791,4.791,0,0,1,2.435-.6,4.373,4.373,0,0,1,3.366,1.323,5.076,5.076,0,0,1,1.23,3.6v.105a4.925,4.925,0,0,1-1.235,3.529,4.384,4.384,0,0,1-3.344,1.305,4.434,4.434,0,0,1-3.261-1.217,4.761,4.761,0,0,1-1.327-3.3Zm2.962.185a3.538,3.538,0,0,0,.413,1.934,1.376,1.376,0,0,0,1.222.615q1.582,0,1.617-2.435v-.3q0-2.558-1.635-2.558-1.485,0-1.608,2.206ZM51.213,7.49l.1,1.116a3.225,3.225,0,0,1,2.716-1.292,2.713,2.713,0,0,1,2.219.888,4.226,4.226,0,0,1,.76,2.672V17H54.035V11a1.6,1.6,0,0,0-.29-1.059A1.342,1.342,0,0,0,52.69,9.6a1.413,1.413,0,0,0-1.292.686V17H48.436V7.49Zm12.41,6.838a.684.684,0,0,0-.4-.606,6.016,6.016,0,0,0-1.5-.475A6.853,6.853,0,0,1,59.9,12.6a3.062,3.062,0,0,1-1.1-.971,2.319,2.319,0,0,1-.378-1.31A2.628,2.628,0,0,1,59.5,8.163a4.453,4.453,0,0,1,2.83-.848,4.934,4.934,0,0,1,3.023.853A2.666,2.666,0,0,1,66.5,10.408H63.527q0-1.143-1.2-1.143a1.194,1.194,0,0,0-.782.259.8.8,0,0,0-.316.646.737.737,0,0,0,.387.642,3.654,3.654,0,0,0,1.235.4,10.671,10.671,0,0,1,1.49.378A2.706,2.706,0,0,1,66.48,14.24a2.491,2.491,0,0,1-1.156,2.118,5.068,5.068,0,0,1-2.993.817,5.172,5.172,0,0,1-2.18-.439,3.645,3.645,0,0,1-1.494-1.2,2.707,2.707,0,0,1-.536-1.591H60.89a1.145,1.145,0,0,0,.439.962,1.808,1.808,0,0,0,1.081.3,1.422,1.422,0,0,0,.91-.246A.787.787,0,0,0,63.624,14.328Zm7.69-9.2V7.49h1.564V9.547H71.314V13.9a1.111,1.111,0,0,0,.193.747,1.037,1.037,0,0,0,.765.211,4.345,4.345,0,0,0,.738-.053v2.118a5.466,5.466,0,0,1-1.67.255,3.1,3.1,0,0,1-2.259-.721,2.954,2.954,0,0,1-.729-2.188V9.547H67.139V7.49h1.213V5.126ZM79.8,10.171l-.976-.07a1.752,1.752,0,0,0-1.793.879V17H74.065V7.49h2.777l.1,1.222a2.294,2.294,0,0,1,2.083-1.4,2.888,2.888,0,0,1,.826.105Zm6.732,5.8a3.054,3.054,0,0,1-2.54,1.2,3,3,0,0,1-2.369-.91,3.826,3.826,0,0,1-.8-2.615V7.49h2.962v6.179a1.065,1.065,0,0,0,1.187,1.222,1.548,1.548,0,0,0,1.45-.729V7.49h2.979V17H86.616ZM94.139,17H91.168V7.49h2.971ZM90.993,5.029a1.334,1.334,0,0,1,.457-1.043,1.934,1.934,0,0,1,2.373,0,1.334,1.334,0,0,1,.457,1.043,1.334,1.334,0,0,1-.457,1.043,1.934,1.934,0,0,1-2.373,0A1.334,1.334,0,0,1,90.993,5.029Zm10.723,5.142-.976-.07a1.752,1.752,0,0,0-1.793.879V17H95.985V7.49h2.777l.1,1.222a2.294,2.294,0,0,1,2.083-1.4,2.888,2.888,0,0,1,.826.105Zm10.151,7a4.889,4.889,0,0,1-3.542-1.305,4.507,4.507,0,0,1-1.354-3.4v-.246a5.84,5.84,0,0,1,.541-2.575,3.955,3.955,0,0,1,1.578-1.727,4.763,4.763,0,0,1,2.461-.611,4.117,4.117,0,0,1,3.164,1.244,4.887,4.887,0,0,1,1.16,3.467v1.151h-5.889a2.135,2.135,0,0,0,.694,1.257,2.066,2.066,0,0,0,1.389.457,2.662,2.662,0,0,0,2.2-.984l1.354,1.6a3.784,3.784,0,0,1-1.569,1.217A5.3,5.3,0,0,1,111.867,17.176ZM111.533,9.6q-1.3,0-1.547,1.723h2.988v-.229a1.467,1.467,0,0,0-.36-1.1A1.434,1.434,0,0,0,111.533,9.6ZM120.19,17h-2.971V3.5h2.971ZM129.3,7.49l.1,1.116a3.27,3.27,0,0,1,2.716-1.292,2.407,2.407,0,0,1,2.435,1.433,3.165,3.165,0,0,1,2.795-1.433q2.892,0,2.971,3.5V17h-2.971V11a1.813,1.813,0,0,0-.246-1.063,1.048,1.048,0,0,0-.9-.334,1.4,1.4,0,0,0-1.31.782l.009.123V17h-2.971V11.015a1.906,1.906,0,0,0-.237-1.081,1.045,1.045,0,0,0-.905-.334,1.42,1.42,0,0,0-1.3.782V17h-2.962V7.49Zm12.331,4.667a5.613,5.613,0,0,1,.554-2.536,3.96,3.96,0,0,1,1.591-1.709,4.791,4.791,0,0,1,2.435-.6,4.373,4.373,0,0,1,3.366,1.323,5.076,5.076,0,0,1,1.23,3.6v.105a4.925,4.925,0,0,1-1.235,3.529,4.384,4.384,0,0,1-3.344,1.305,4.434,4.434,0,0,1-3.261-1.217,4.761,4.761,0,0,1-1.327-3.3Zm2.962.185A3.538,3.538,0,0,0,145,14.275a1.376,1.376,0,0,0,1.222.615q1.582,0,1.617-2.435v-.3q0-2.558-1.635-2.558-1.485,0-1.608,2.206Zm7.146-.167a5.809,5.809,0,0,1,.976-3.56,3.211,3.211,0,0,1,2.725-1.3,2.731,2.731,0,0,1,2.145,1V3.5h2.971V17h-2.663l-.149-1.02a2.8,2.8,0,0,1-2.32,1.2,3.205,3.205,0,0,1-2.689-1.3A5.993,5.993,0,0,1,151.734,12.175Zm2.962.185q0,2.531,1.477,2.531a1.458,1.458,0,0,0,1.406-.826V10.443A1.419,1.419,0,0,0,156.19,9.6q-1.371,0-1.485,2.215Zm12.138,4.816a4.889,4.889,0,0,1-3.542-1.305,4.507,4.507,0,0,1-1.354-3.4v-.246a5.84,5.84,0,0,1,.541-2.575,3.955,3.955,0,0,1,1.578-1.727,4.763,4.763,0,0,1,2.461-.611,4.117,4.117,0,0,1,3.164,1.244,4.887,4.887,0,0,1,1.16,3.467v1.151h-5.889a2.135,2.135,0,0,0,.694,1.257,2.066,2.066,0,0,0,1.389.457,2.662,2.662,0,0,0,2.2-.984l1.354,1.6a3.784,3.784,0,0,1-1.569,1.217A5.3,5.3,0,0,1,166.833,17.176ZM166.5,9.6q-1.3,0-1.547,1.723h2.988v-.229a1.467,1.467,0,0,0-.36-1.1A1.434,1.434,0,0,0,166.5,9.6Zm8.657,7.4h-2.971V3.5h2.971Zm1.45-4.843a5.613,5.613,0,0,1,.554-2.536,3.96,3.96,0,0,1,1.591-1.709,4.791,4.791,0,0,1,2.435-.6,4.373,4.373,0,0,1,3.366,1.323,5.076,5.076,0,0,1,1.23,3.6v.105a4.925,4.925,0,0,1-1.235,3.529,4.384,4.384,0,0,1-3.344,1.305,4.434,4.434,0,0,1-3.261-1.217,4.761,4.761,0,0,1-1.327-3.3Zm2.962.185a3.538,3.538,0,0,0,.413,1.934,1.376,1.376,0,0,0,1.222.615q1.582,0,1.617-2.435v-.3q0-2.558-1.635-2.558-1.485,0-1.608,2.206Z" transform="translate(1053.122 7610.825)" fill="#12263f"/>
  </g>
</svg>
