<svg xmlns="http://www.w3.org/2000/svg" xmlns:xlink="http://www.w3.org/1999/xlink" width="221.359" height="77.736" viewBox="0 0 221.359 77.736">
  <defs>
    <linearGradient id="linear-gradient" x1="0.5" x2="0.5" y2="1" gradientUnits="objectBoundingBox">
      <stop offset="0" stop-color="#067eff"/>
      <stop offset="1" stop-color="#276499"/>
    </linearGradient>
  </defs>
  <g id="Grupo_173782" data-name="Grupo 173782" transform="translate(-1007.953 -6210.463)">
    <g id="Grupo_173780" data-name="Grupo 173780" transform="translate(868.221 -1735.537)">
      <rect id="Rectángulo_50151" data-name="Rectángulo 50151" width="221.359" height="77.736" rx="10" transform="translate(139.732 7946)" fill="url(#linear-gradient)"/>
      <g id="Grupo_166739" data-name="Grupo 166739" transform="translate(131.605 7956.332)">
        <path id="Trazado_197267" data-name="Trazado 197267" d="M-9212.887-7630.063l5.664-3.441,4.038,11.22,9.749-49.135h122.34" transform="translate(9292.458 7671.42)" fill="none" stroke="#fff" stroke-width="4"/>
        <path id="Trazado_214843" data-name="Trazado 214843" d="M17.736-13.711H3.006l.633-3.551H18.352Zm-1.3,7.453H1.723l.615-3.533h14.73Z" transform="translate(53.394 33)" fill="#fff"/>
        <path id="Trazado_214842" data-name="Trazado 214842" d="M2.114-15.63a14.09,14.09,0,0,0,1.111,3.821A10.7,10.7,0,0,0,5.348-8.674a8.237,8.237,0,0,0,6.359,2.583,6.429,6.429,0,0,0,4.986-2.177,9.122,9.122,0,0,0,1.969-5.7,17.247,17.247,0,0,0-.072-2.493l-.235-1.5a11.9,11.9,0,0,0-3.026-6.269A7.073,7.073,0,0,0,9.9-26.379a6.086,6.086,0,0,0-4.806,2.2l-1.752-9.34h-4.3ZM5.6-20.815a3.48,3.48,0,0,1,3.306-2.078,4.373,4.373,0,0,1,3.541,1.563,8.258,8.258,0,0,1,1.807,4.49,24.4,24.4,0,0,1,.145,3.216,5.508,5.508,0,0,1-.912,3.017,2.754,2.754,0,0,1-2.177,1.03,3.773,3.773,0,0,1-3.216-1.689,10.364,10.364,0,0,1-1.734-4.652Z" transform="translate(11.666 12.701) rotate(97)" fill="#fff"/>
        <path id="Trazado_214844" data-name="Trazado 214844" d="M9.054-5.958,2.7.759H10.92l-.349,2H-.913L-.625,1.1,6.521-6.2,1.9-13.484l.256-1.446h10.91l-.349,2H4.881L9.075-6.255Z" transform="translate(113.932 24.073)" fill="#fff"/>
        <path id="Trazado_214847" data-name="Trazado 214847" d="M1.375-6.316a18.981,18.981,0,0,1,2.369-6.977,9.907,9.907,0,0,1,4.463-4.238l.387,1.547Q4.92-13.148,3.824-7.09a24.862,24.862,0,0,0-.408,4.265A11.8,11.8,0,0,0,3.932.983a5.743,5.743,0,0,0,1.59,2.562l-.6,1.429A7.2,7.2,0,0,1,2.1,1.429a13.761,13.761,0,0,1-.9-5.607,16.671,16.671,0,0,1,.15-1.955ZM14.8-10l4.061-5.64h3.2l-5.9,7.874L19.583,0H16.64L14.276-5.726,10.108,0H6.9l6.026-8L9.582-15.641H12.5Z" transform="translate(140.898 25.073)" fill="#fff"/>
        <path id="Trazado_214850" data-name="Trazado 214850" d="M7.251-10l4.061-5.64h3.2l-5.9,7.874L12.031,0H9.088L6.725-5.726,2.557,0H-.655L5.371-8,2.03-15.641H4.952Zm5.6,15-.4-1.482a11.8,11.8,0,0,0,3.566-4.775,21.747,21.747,0,0,0,1.568-7.117l.043-1.332q0-4.522-2.105-6.37l.612-1.439a6.6,6.6,0,0,1,2.111,2.111,10,10,0,0,1,1.3,3.228,15.6,15.6,0,0,1,.381,3.813,19.8,19.8,0,0,1-1.058,5.806A15.543,15.543,0,0,1,16.35,2.186,9.487,9.487,0,0,1,12.848,5Z" transform="translate(177.87 25.073)" fill="#fff"/>
        <path id="Trazado_214849" data-name="Trazado 214849" d="M5.793-5.342H.554l.359-2.01h5.24Z" transform="translate(168.864 24.073)" fill="#fff"/>
        <path id="Trazado_214852" data-name="Trazado 214852" d="M11.9,0H9.454L4.789-10.695,2.933,0H.4L2.994-14.93H5.445L10.11-4.194,11.977-14.93H14.5Z" transform="translate(144.69 56.091)" fill="#fff"/>
        <path id="Trazado_214720" data-name="Trazado 214720" d="M-9613.244-9288.434h107.408" transform="translate(9715.311 9323.144)" fill="#fff" stroke="#fff" stroke-width="3"/>
        <path id="Trazado_214845" data-name="Trazado 214845" d="M6.8,0H5.4L2.736-6.111,1.676,0H.229L1.711-8.531h1.4L5.777-2.4,6.844-8.531H8.285Z" transform="translate(130.47 14.888)" fill="#fff"/>
        <path id="Trazado_214851" data-name="Trazado 214851" d="M5.637,0H.064L.229-1.037l3.545-3.4a3.236,3.236,0,0,0,1.09-1.752,1.256,1.256,0,0,0-.187-.929.962.962,0,0,0-.791-.4,1.436,1.436,0,0,0-1.1.407A1.907,1.907,0,0,0,2.25-5.936L.867-5.93a2.883,2.883,0,0,1,.478-1.412,2.852,2.852,0,0,1,1.113-.976,3.146,3.146,0,0,1,1.5-.331A2.518,2.518,0,0,1,5.722-8,1.983,1.983,0,0,1,6.293-6.34,4.249,4.249,0,0,1,4.857-3.814l-.363.357L2.027-1.137H5.818Z" transform="translate(201.417 14.888)" fill="#fff"/>
        <path id="Trazado_214846" data-name="Trazado 214846" d="M3.756,0H2.373L3.557-6.82,1.4-6.105l.217-1.26,3.375-1.2H5.2Z" transform="translate(130.47 29.108)" fill="#fff"/>
        <path id="Trazado_214848" data-name="Trazado 214848" d="M1.57,0H.182l1.1-6.34H2.672ZM1.482-7.963a.783.783,0,0,1,.211-.551.773.773,0,0,1,.568-.24.739.739,0,0,1,.565.208.72.72,0,0,1,.226.536.741.741,0,0,1-.22.551.805.805,0,0,1-.56.229.751.751,0,0,1-.562-.2A.7.7,0,0,1,1.482-7.963Z" transform="translate(162.228 29.108)" fill="#fff"/>
        <path id="Trazado_214721" data-name="Trazado 214721" d="M-8958.062-6708h14.229" transform="translate(9137.799 6713.073)" fill="none" stroke="#fff" stroke-width="2"/>
      </g>
    </g>
  </g>
</svg>
